<svg xmlns="http://www.w3.org/2000/svg" version="1.1" width="1200" height="630">
<rect x="0" y="0" width="1200" height="630" fill="#1a1b32" />
<g transform="scale(1.000000) translate(0.5 0.5)">
<ellipse fill="#2f5ac9" fill-opacity="0.501961" cx="1027" cy="130" rx="164" ry="120" />
<ellipse fill="#2d50b0" fill-opacity="0.501961" cx="900" cy="15" rx="59" ry="142" />
<ellipse fill="#08070a" fill-opacity="0.501961" cx="0" cy="0" rx="399" ry="214" />
<ellipse fill="#08070a" fill-opacity="0.501961" cx="1199" cy="629" rx="405" ry="208" />
<ellipse fill="#0e0808" fill-opacity="0.501961" cx="0" cy="629" rx="407" ry="208" />
<ellipse fill="#2a253c" fill-opacity="0.501961" cx="551" cy="324" rx="338" ry="178" />
<ellipse fill="#0c1a3a" fill-opacity="0.501961" cx="1199" cy="0" rx="222" ry="128" />
<ellipse fill="#3658bc" fill-opacity="0.501961" cx="996" cy="170" rx="84" ry="59" />
<ellipse fill="#1e1b2b" fill-opacity="0.501961" cx="881" cy="228" rx="63" ry="49" />
<ellipse fill="#3456b9" fill-opacity="0.501961" cx="1052" cy="228" rx="71" ry="22" />
<ellipse fill="#c93c0d" fill-opacity="0.501961" cx="457" cy="321" rx="20" ry="10" />
<ellipse fill="#af3713" fill-opacity="0.501961" cx="425" cy="337" rx="22" ry="12" />
<ellipse fill="#2d1e29" fill-opacity="0.501961" cx="245" cy="472" rx="92" ry="78" />
<ellipse fill="#aa3612" fill-opacity="0.501961" cx="393" cy="355" rx="22" ry="12" />
<ellipse fill="#1c2e64" fill-opacity="0.501961" cx="972" cy="22" rx="85" ry="59" />
<ellipse fill="#a9340f" fill-opacity="0.501961" cx="363" cy="372" rx="20" ry="12" />
<ellipse fill="#b03308" fill-opacity="0.501961" cx="333" cy="390" rx="17" ry="11" />
<ellipse fill="#1a151d" fill-opacity="0.501961" cx="869" cy="177" rx="24" ry="32" />
<ellipse fill="#1d1a29" fill-opacity="0.501961" cx="942" cy="250" rx="50" ry="28" />
<ellipse fill="#0f0e16" fill-opacity="0.501961" cx="1168" cy="331" rx="87" ry="114" />
<ellipse fill="#6757cf" fill-opacity="0.501961" cx="282" cy="301" rx="4" ry="46" />
<ellipse fill="#9d3f45" fill-opacity="0.501961" cx="309" cy="408" rx="16" ry="14" />
<ellipse fill="#010307" fill-opacity="0.501961" cx="49" cy="606" rx="76" ry="91" />
<ellipse fill="#030306" fill-opacity="0.501961" cx="15" cy="10" rx="163" ry="85" />
<ellipse fill="#d53800" fill-opacity="0.501961" cx="289" cy="423" rx="11" ry="8" />
<ellipse fill="#000000" fill-opacity="0.501961" cx="1199" cy="0" rx="27" ry="63" />
<ellipse fill="#030306" fill-opacity="0.501961" cx="1172" cy="629" rx="152" ry="89" />
<ellipse fill="#100f17" fill-opacity="0.501961" cx="779" cy="19" rx="61" ry="81" />
<ellipse fill="#d03700" fill-opacity="0.501961" cx="272" cy="435" rx="11" ry="8" />
<ellipse fill="#11111d" fill-opacity="0.501961" cx="75" cy="317" rx="99" ry="269" />
<ellipse fill="#ae3003" fill-opacity="0.501961" cx="255" cy="447" rx="12" ry="10" />
<ellipse fill="#2d4aa0" fill-opacity="0.501961" cx="872" cy="71" rx="23" ry="47" />
<ellipse fill="#12111b" fill-opacity="0.501961" cx="693" cy="593" rx="159" ry="51" />
<ellipse fill="#b13307" fill-opacity="0.501961" cx="232" cy="467" rx="10" ry="10" />
<ellipse fill="#243a7d" fill-opacity="0.501961" cx="1053" cy="119" rx="73" ry="58" />
<ellipse fill="#3555b6" fill-opacity="0.501961" cx="919" cy="148" rx="35" ry="32" />
<ellipse fill="#ff5300" fill-opacity="0.501961" cx="473" cy="312" rx="8" ry="5" />
<ellipse fill="#12111a" fill-opacity="0.501961" cx="619" cy="30" rx="117" ry="52" />
<ellipse fill="#0f0f17" fill-opacity="0.501961" cx="438" cy="629" rx="68" ry="65" />
<ellipse fill="#8d2a09" fill-opacity="0.501961" cx="211" cy="490" rx="11" ry="12" />
<ellipse fill="#ff4700" fill-opacity="0.501961" cx="349" cy="382" rx="8" ry="5" />
<ellipse fill="#e43800" fill-opacity="0.501961" cx="242" cy="459" rx="7" ry="7" />
<ellipse fill="#182855" fill-opacity="0.501961" cx="1165" cy="115" rx="29" ry="69" />
<ellipse fill="#802606" fill-opacity="0.501961" cx="172" cy="532" rx="10" ry="13" />
<ellipse fill="#294391" fill-opacity="0.501961" cx="1116" cy="205" rx="37" ry="26" />
<ellipse fill="#1b1a2b" fill-opacity="0.501961" cx="982" cy="261" rx="51" ry="22" />
<ellipse fill="#9b2900" fill-opacity="0.501961" cx="192" cy="507" rx="9" ry="10" />
<ellipse fill="#0d0c12" fill-opacity="0.501961" cx="434" cy="13" rx="46" ry="28" />
<ellipse fill="#1b203a" fill-opacity="0.501961" cx="441" cy="372" rx="44" ry="32" />
<ellipse fill="#ff4800" fill-opacity="0.501961" cx="411" cy="344" rx="9" ry="5" />
<ellipse fill="#1d1d32" fill-opacity="0.501961" cx="331" cy="156" rx="218" ry="83" />
<ellipse fill="#181f39" fill-opacity="0.501961" cx="388" cy="323" rx="33" ry="25" />
<ellipse fill="#ff4900" fill-opacity="0.501961" cx="435" cy="331" rx="10" ry="4" />
<ellipse fill="#1c1b2d" fill-opacity="0.501961" cx="853" cy="160" rx="26" ry="40" />
<ellipse fill="#1c1c2f" fill-opacity="0.501961" cx="874" cy="464" rx="217" ry="100" />
<ellipse fill="#1d1d31" fill-opacity="0.501961" cx="922" cy="246" rx="43" ry="39" />
<ellipse fill="#1e2142" fill-opacity="0.501961" cx="319" cy="357" rx="39" ry="31" />
<ellipse fill="#1c1b2e" fill-opacity="0.501961" cx="878" cy="195" rx="30" ry="32" />
<ellipse fill="#4e439b" fill-opacity="0.501961" cx="288" cy="247" rx="5" ry="20" />
<ellipse fill="#802200" fill-opacity="0.501961" cx="159" cy="551" rx="8" ry="13" />
<ellipse fill="#3455b6" fill-opacity="0.501961" cx="939" cy="174" rx="31" ry="29" />
<ellipse fill="#1d2246" fill-opacity="0.501961" cx="328" cy="434" rx="39" ry="23" />
<ellipse fill="#12182c" fill-opacity="0.501961" cx="287" cy="522" rx="70" ry="77" />
<ellipse fill="#ff4800" fill-opacity="0.501961" cx="393" cy="355" rx="8" ry="5" />
<ellipse fill="#1e223d" fill-opacity="0.501961" cx="474" cy="347" rx="32" ry="27" />
<ellipse fill="#53469d" fill-opacity="0.501961" cx="290" cy="359" rx="5" ry="17" />
<ellipse fill="#d03000" fill-opacity="0.501961" cx="183" cy="518" rx="5" ry="7" />
<ellipse fill="#ff4700" fill-opacity="0.501961" cx="375" cy="365" rx="8" ry="5" />
<ellipse fill="#181e35" fill-opacity="0.501961" cx="352" cy="348" rx="34" ry="19" />
<ellipse fill="#101c3d" fill-opacity="0.501961" cx="1119" cy="32" rx="64" ry="29" />
<ellipse fill="#1e213b" fill-opacity="0.501961" cx="414" cy="311" rx="35" ry="22" />
<ellipse fill="#e43900" fill-opacity="0.501961" cx="221" cy="478" rx="6" ry="7" />
<ellipse fill="#09080d" fill-opacity="0.501961" cx="1199" cy="198" rx="26" ry="41" />
<ellipse fill="#463d87" fill-opacity="0.501961" cx="298" cy="221" rx="7" ry="16" />
<ellipse fill="#fe3d00" fill-opacity="0.501961" cx="321" cy="399" rx="7" ry="6" />
<ellipse fill="#551701" fill-opacity="0.501961" cx="145" cy="574" rx="10" ry="20" />
<ellipse fill="#ff4700" fill-opacity="0.501961" cx="365" cy="372" rx="7" ry="5" />
<ellipse fill="#161c35" fill-opacity="0.501961" cx="383" cy="394" rx="28" ry="24" />
<ellipse fill="#ff3a00" fill-opacity="0.501961" cx="299" cy="414" rx="7" ry="5" />
<ellipse fill="#222752" fill-opacity="0.501961" cx="303" cy="386" rx="22" ry="16" />
<ellipse fill="#ff4600" fill-opacity="0.501961" cx="422" cy="339" rx="8" ry="6" />
<ellipse fill="#42397c" fill-opacity="0.501961" cx="314" cy="189" rx="8" ry="14" />
<ellipse fill="#491000" fill-opacity="0.501961" cx="133" cy="612" rx="8" ry="29" />
<ellipse fill="#11192f" fill-opacity="0.501961" cx="238" cy="414" rx="33" ry="34" />
<ellipse fill="#ff4800" fill-opacity="0.501961" cx="447" cy="326" rx="9" ry="5" />
<ellipse fill="#3556b9" fill-opacity="0.501961" cx="983" cy="209" rx="27" ry="24" />
<ellipse fill="#2a4492" fill-opacity="0.501961" cx="958" cy="110" rx="49" ry="49" />
<ellipse fill="#1a1c31" fill-opacity="0.501961" cx="357" cy="414" rx="38" ry="23" />
<ellipse fill="#10172c" fill-opacity="0.501961" cx="180" cy="456" rx="50" ry="31" />
<ellipse fill="#423979" fill-opacity="0.501961" cx="366" cy="480" rx="10" ry="10" />
<ellipse fill="#3c336e" fill-opacity="0.501961" cx="327" cy="169" rx="10" ry="14" />
<ellipse fill="#030810" fill-opacity="0.501961" cx="161" cy="623" rx="27" ry="47" />
<ellipse fill="#5f50ba" fill-opacity="0.501961" cx="305" cy="202" rx="4" ry="8" />
<ellipse fill="#0f1427" fill-opacity="0.501961" cx="232" cy="513" rx="27" ry="32" />
<ellipse fill="#1b1c30" fill-opacity="0.501961" cx="296" cy="300" rx="13" ry="58" />
<ellipse fill="#181a2e" fill-opacity="0.501961" cx="266" cy="396" rx="34" ry="29" />
<ellipse fill="#6756c7" fill-opacity="0.501961" cx="286" cy="347" rx="3" ry="13" />
<ellipse fill="#ff4700" fill-opacity="0.501961" cx="384" cy="361" rx="7" ry="4" />
<ellipse fill="#1f2038" fill-opacity="0.501961" cx="415" cy="378" rx="40" ry="23" />
<ellipse fill="#253d83" fill-opacity="0.501961" cx="882" cy="51" rx="42" ry="36" />
</g>
</svg>