<svg xmlns="http://www.w3.org/2000/svg" version="1.1" width="1200" height="630">
<rect x="0" y="0" width="1200" height="630" fill="#32292e" />
<g transform="scale(1.000000) translate(0.5 0.5)">
<g transform="translate(379.288864 233.847812) rotate(426.480406) scale(300.663941 213.899467)"><ellipse fill="#c9b5c1" fill-opacity="0.501961" cx="0" cy="0" rx="1" ry="1" /></g>
<g transform="translate(238.678348 438.355557) rotate(382.913091) scale(104.628882 121.024165)"><ellipse fill="#ff0f99" fill-opacity="0.501961" cx="0" cy="0" rx="1" ry="1" /></g>
<g transform="translate(153.341668 216.565436) rotate(382.097014) scale(231.806310 54.790470)"><ellipse fill="#000000" fill-opacity="0.501961" cx="0" cy="0" rx="1" ry="1" /></g>
<g transform="translate(479.900903 362.296655) rotate(99.021999) scale(143.855989 147.907579)"><ellipse fill="#35e893" fill-opacity="0.501961" cx="0" cy="0" rx="1" ry="1" /></g>
<g transform="translate(464.598515 82.431958) rotate(384.543258) scale(75.304842 221.219308)"><ellipse fill="#ff80c3" fill-opacity="0.501961" cx="0" cy="0" rx="1" ry="1" /></g>
<g transform="translate(640.101905 148.528385) rotate(-19.697308) scale(148.816461 82.618735)"><ellipse fill="#000000" fill-opacity="0.501961" cx="0" cy="0" rx="1" ry="1" /></g>
<g transform="translate(342.172412 170.454541) rotate(119.629588) scale(68.343447 158.338241)"><ellipse fill="#f380b8" fill-opacity="0.501961" cx="0" cy="0" rx="1" ry="1" /></g>
<g transform="translate(948.766320 344.789497) rotate(-82.563126) scale(972.433803 316.084745)"><ellipse fill="#000000" fill-opacity="0.501961" cx="0" cy="0" rx="1" ry="1" /></g>
<g transform="translate(409.917896 584.802282) rotate(169.860225) scale(229.148539 86.792876)"><ellipse fill="#000600" fill-opacity="0.501961" cx="0" cy="0" rx="1" ry="1" /></g>
<g transform="translate(42.200889 464.611858) rotate(380.324841) scale(86.795322 201.591089)"><ellipse fill="#000000" fill-opacity="0.501961" cx="0" cy="0" rx="1" ry="1" /></g>
<g transform="translate(48.648977 121.312962) rotate(-72.011918) scale(176.306903 90.466691)"><ellipse fill="#000000" fill-opacity="0.501961" cx="0" cy="0" rx="1" ry="1" /></g>
<g transform="translate(151.528085 536.399702) rotate(196.778988) scale(48.426654 69.940684)"><ellipse fill="#af0f5c" fill-opacity="0.501961" cx="0" cy="0" rx="1" ry="1" /></g>
<g transform="translate(216.702746 249.404470) rotate(217.928450) scale(7.637440 69.688386)"><ellipse fill="#ffa5ea" fill-opacity="0.501961" cx="0" cy="0" rx="1" ry="1" /></g>
<g transform="translate(417.736817 532.606780) rotate(330.447251) scale(4.814567 80.340773)"><ellipse fill="#fcc8e2" fill-opacity="0.501961" cx="0" cy="0" rx="1" ry="1" /></g>
<g transform="translate(195.329303 346.058898) rotate(283.522461) scale(63.598339 29.922669)"><ellipse fill="#f32a89" fill-opacity="0.501961" cx="0" cy="0" rx="1" ry="1" /></g>
<g transform="translate(542.852601 168.776232) rotate(90.071663) scale(80.081375 4.957153)"><ellipse fill="#ffffff" fill-opacity="0.501961" cx="0" cy="0" rx="1" ry="1" /></g>
<g transform="translate(167.964650 211.080146) rotate(193.844712) scale(58.552519 44.716934)"><ellipse fill="#000000" fill-opacity="0.501961" cx="0" cy="0" rx="1" ry="1" /></g>
<g transform="translate(295.693289 256.442786) rotate(453.575728) scale(19.166250 72.783952)"><ellipse fill="#000000" fill-opacity="0.501961" cx="0" cy="0" rx="1" ry="1" /></g>
<g transform="translate(340.468861 33.921495) rotate(256.777169) scale(75.463802 178.439190)"><ellipse fill="#8f3e65" fill-opacity="0.501961" cx="0" cy="0" rx="1" ry="1" /></g>
<g transform="translate(609.231842 388.514409) rotate(21.325903) scale(27.775045 37.776999)"><ellipse fill="#62dca3" fill-opacity="0.501961" cx="0" cy="0" rx="1" ry="1" /></g>
<g transform="translate(517.266521 476.777816) rotate(-16.770154) scale(51.517719 37.842518)"><ellipse fill="#43ac7b" fill-opacity="0.501961" cx="0" cy="0" rx="1" ry="1" /></g>
<g transform="translate(635.127718 102.074788) rotate(209.455954) scale(68.142970 134.542172)"><ellipse fill="#000100" fill-opacity="0.501961" cx="0" cy="0" rx="1" ry="1" /></g>
<g transform="translate(334.922832 472.072516) rotate(115.972440) scale(45.800843 24.484817)"><ellipse fill="#f71480" fill-opacity="0.501961" cx="0" cy="0" rx="1" ry="1" /></g>
<g transform="translate(425.536074 261.287097) rotate(130.940321) scale(22.369481 34.123103)"><ellipse fill="#ff8ddc" fill-opacity="0.501961" cx="0" cy="0" rx="1" ry="1" /></g>
<g transform="translate(240.650175 423.305968) rotate(157.176153) scale(75.119081 119.547419)"><ellipse fill="#d92476" fill-opacity="0.501961" cx="0" cy="0" rx="1" ry="1" /></g>
<g transform="translate(513.883636 190.207664) rotate(392.706778) scale(18.331488 35.613020)"><ellipse fill="#000000" fill-opacity="0.501961" cx="0" cy="0" rx="1" ry="1" /></g>
<g transform="translate(81.460621 24.550598) rotate(334.293631) scale(235.891587 59.997501)"><ellipse fill="#000000" fill-opacity="0.501961" cx="0" cy="0" rx="1" ry="1" /></g>
<g transform="translate(168.123174 276.659552) rotate(14.459525) scale(51.871894 6.372638)"><ellipse fill="#cbabb9" fill-opacity="0.501961" cx="0" cy="0" rx="1" ry="1" /></g>
<g transform="translate(354.456059 620.954976) rotate(87.828202) scale(30.286399 472.208620)"><ellipse fill="#000000" fill-opacity="0.501961" cx="0" cy="0" rx="1" ry="1" /></g>
<g transform="translate(325.441342 275.856728) rotate(172.728133) scale(114.556890 6.053674)"><ellipse fill="#7edeac" fill-opacity="0.501961" cx="0" cy="0" rx="1" ry="1" /></g>
<g transform="translate(375.008604 523.803892) rotate(165.417750) scale(30.914108 35.792491)"><ellipse fill="#000000" fill-opacity="0.501961" cx="0" cy="0" rx="1" ry="1" /></g>
<g transform="translate(367.670066 104.939421) rotate(252.464175) scale(62.741028 193.783131)"><ellipse fill="#bd6e95" fill-opacity="0.501961" cx="0" cy="0" rx="1" ry="1" /></g>
<g transform="translate(627.416511 547.483740) rotate(83.395005) scale(5.027277 101.578229)"><ellipse fill="#42b280" fill-opacity="0.501961" cx="0" cy="0" rx="1" ry="1" /></g>
<g transform="translate(170.895554 129.648268) rotate(-15.315702) scale(38.952658 28.627958)"><ellipse fill="#bd5688" fill-opacity="0.501961" cx="0" cy="0" rx="1" ry="1" /></g>
<g transform="translate(295.989130 308.753476) rotate(93.603260) scale(23.459993 38.045142)"><ellipse fill="#001e06" fill-opacity="0.501961" cx="0" cy="0" rx="1" ry="1" /></g>
<g transform="translate(701.796117 250.988523) rotate(339.732910) scale(51.849048 4.680161)"><ellipse fill="#50c48e" fill-opacity="0.501961" cx="0" cy="0" rx="1" ry="1" /></g>
<g transform="translate(65.059112 278.716361) rotate(341.654683) scale(50.792951 5.383196)"><ellipse fill="#b38fa0" fill-opacity="0.501961" cx="0" cy="0" rx="1" ry="1" /></g>
<g transform="translate(598.306604 476.238520) rotate(129.858519) scale(93.248000 22.701966)"><ellipse fill="#000000" fill-opacity="0.501961" cx="0" cy="0" rx="1" ry="1" /></g>
<g transform="translate(64.086630 471.014083) rotate(101.951100) scale(187.434113 58.081968)"><ellipse fill="#000000" fill-opacity="0.501961" cx="0" cy="0" rx="1" ry="1" /></g>
<g transform="translate(827.841876 140.369086) rotate(304.882335) scale(73.740710 3.283205)"><ellipse fill="#4cc38b" fill-opacity="0.501961" cx="0" cy="0" rx="1" ry="1" /></g>
<g transform="translate(646.876447 307.205648) rotate(331.599502) scale(31.690589 89.209304)"><ellipse fill="#04130c" fill-opacity="0.501961" cx="0" cy="0" rx="1" ry="1" /></g>
<g transform="translate(539.418304 238.984322) rotate(185.227369) scale(68.533886 13.397047)"><ellipse fill="#3dc585" fill-opacity="0.501961" cx="0" cy="0" rx="1" ry="1" /></g>
<g transform="translate(306.273137 374.014171) rotate(227.503940) scale(82.422119 5.260712)"><ellipse fill="#f9d1dd" fill-opacity="0.501961" cx="0" cy="0" rx="1" ry="1" /></g>
<g transform="translate(1076.784844 209.988977) rotate(205.940108) scale(244.383322 294.576877)"><ellipse fill="#000200" fill-opacity="0.501961" cx="0" cy="0" rx="1" ry="1" /></g>
<g transform="translate(602.728320 266.319324) rotate(86.200120) scale(3.906748 96.766701)"><ellipse fill="#4dc88e" fill-opacity="0.501961" cx="0" cy="0" rx="1" ry="1" /></g>
<g transform="translate(585.451857 47.654029) rotate(33.166879) scale(24.008919 56.608415)"><ellipse fill="#000000" fill-opacity="0.501961" cx="0" cy="0" rx="1" ry="1" /></g>
<g transform="translate(284.769582 235.775686) rotate(197.749137) scale(41.121980 16.551453)"><ellipse fill="#000000" fill-opacity="0.501961" cx="0" cy="0" rx="1" ry="1" /></g>
<g transform="translate(483.854954 153.458492) rotate(202.538241) scale(24.047056 85.300434)"><ellipse fill="#f08dbd" fill-opacity="0.501961" cx="0" cy="0" rx="1" ry="1" /></g>
<g transform="translate(148.265058 306.849088) rotate(214.681537) scale(26.447661 34.558943)"><ellipse fill="#000000" fill-opacity="0.501961" cx="0" cy="0" rx="1" ry="1" /></g>
<g transform="translate(392.480812 220.595919) rotate(286.364050) scale(2.792058 46.589525)"><ellipse fill="#00c55d" fill-opacity="0.501961" cx="0" cy="0" rx="1" ry="1" /></g>
<g transform="translate(1007.415088 593.780525) rotate(444.784815) scale(83.153506 345.465220)"><ellipse fill="#000400" fill-opacity="0.501961" cx="0" cy="0" rx="1" ry="1" /></g>
<g transform="translate(813.933551 526.864840) rotate(263.442179) scale(5.633849 90.812922)"><ellipse fill="#3ca776" fill-opacity="0.501961" cx="0" cy="0" rx="1" ry="1" /></g>
<g transform="translate(385.648575 278.720696) rotate(207.514733) scale(33.511733 12.098764)"><ellipse fill="#189f5e" fill-opacity="0.501961" cx="0" cy="0" rx="1" ry="1" /></g>
<g transform="translate(469.580808 528.701105) rotate(290.673806) scale(21.598098 63.287029)"><ellipse fill="#000000" fill-opacity="0.501961" cx="0" cy="0" rx="1" ry="1" /></g>
<g transform="translate(216.355831 558.612283) rotate(154.400322) scale(71.293039 9.982409)"><ellipse fill="#9f1658" fill-opacity="0.501961" cx="0" cy="0" rx="1" ry="1" /></g>
<g transform="translate(443.277636 568.381147) rotate(263.611164) scale(5.030602 190.285257)"><ellipse fill="#378b66" fill-opacity="0.501961" cx="0" cy="0" rx="1" ry="1" /></g>
<g transform="translate(764.511788 214.288092) rotate(139.235516) scale(43.692369 4.282723)"><ellipse fill="#4ebd89" fill-opacity="0.501961" cx="0" cy="0" rx="1" ry="1" /></g>
<g transform="translate(353.158472 334.412530) rotate(196.118784) scale(32.649658 46.015528)"><ellipse fill="#3fad79" fill-opacity="0.501961" cx="0" cy="0" rx="1" ry="1" /></g>
<g transform="translate(141.956624 459.055050) rotate(18.410998) scale(12.707706 86.579787)"><ellipse fill="#b62469" fill-opacity="0.501961" cx="0" cy="0" rx="1" ry="1" /></g>
<g transform="translate(467.832665 480.620869) rotate(105.026171) scale(25.483220 85.484457)"><ellipse fill="#3e986e" fill-opacity="0.501961" cx="0" cy="0" rx="1" ry="1" /></g>
<g transform="translate(213.636793 296.312731) rotate(118.139528) scale(6.031476 51.452380)"><ellipse fill="#b9c7c1" fill-opacity="0.501961" cx="0" cy="0" rx="1" ry="1" /></g>
<g transform="translate(232.931569 18.799657) rotate(238.141643) scale(36.508234 58.677635)"><ellipse fill="#6a3a52" fill-opacity="0.501961" cx="0" cy="0" rx="1" ry="1" /></g>
<g transform="translate(327.132811 199.794992) rotate(287.835778) scale(3.214379 54.987392)"><ellipse fill="#1bab68" fill-opacity="0.501961" cx="0" cy="0" rx="1" ry="1" /></g>
<g transform="translate(529.657878 122.870086) rotate(17.346862) scale(5.324185 25.674764)"><ellipse fill="#000000" fill-opacity="0.501961" cx="0" cy="0" rx="1" ry="1" /></g>
<g transform="translate(417.349163 255.038183) rotate(13.499866) scale(42.920318 23.497484)"><ellipse fill="#ff8ec4" fill-opacity="0.501961" cx="0" cy="0" rx="1" ry="1" /></g>
<g transform="translate(992.909490 506.643476) rotate(173.813916) scale(122.582777 6.945747)"><ellipse fill="#2a7955" fill-opacity="0.501961" cx="0" cy="0" rx="1" ry="1" /></g>
<g transform="translate(461.776015 3.360169) rotate(87.779215) scale(57.074339 119.913739)"><ellipse fill="#8c5871" fill-opacity="0.501961" cx="0" cy="0" rx="1" ry="1" /></g>
<g transform="translate(238.988521 258.932478) rotate(312.518018) scale(32.247924 16.445419)"><ellipse fill="#000000" fill-opacity="0.501961" cx="0" cy="0" rx="1" ry="1" /></g>
<g transform="translate(46.321835 353.312084) rotate(134.611574) scale(96.439223 50.851053)"><ellipse fill="#030604" fill-opacity="0.501961" cx="0" cy="0" rx="1" ry="1" /></g>
<g transform="translate(293.830076 207.459448) rotate(106.993384) scale(10.730677 65.503533)"><ellipse fill="#f486bc" fill-opacity="0.501961" cx="0" cy="0" rx="1" ry="1" /></g>
<g transform="translate(118.770533 587.288647) rotate(39.017278) scale(26.755579 49.163392)"><ellipse fill="#6a073a" fill-opacity="0.501961" cx="0" cy="0" rx="1" ry="1" /></g>
<g transform="translate(181.484926 226.402091) rotate(8.865058) scale(30.209083 45.385591)"><ellipse fill="#000000" fill-opacity="0.501961" cx="0" cy="0" rx="1" ry="1" /></g>
<g transform="translate(357.946237 437.323048) rotate(144.272047) scale(4.177054 59.653642)"><ellipse fill="#f4bed8" fill-opacity="0.501961" cx="0" cy="0" rx="1" ry="1" /></g>
<g transform="translate(29.810953 124.795320) rotate(330.364333) scale(102.396422 3.819528)"><ellipse fill="#ac1761" fill-opacity="0.501961" cx="0" cy="0" rx="1" ry="1" /></g>
<g transform="translate(815.722989 24.323703) rotate(-39.770388) scale(106.232890 59.892443)"><ellipse fill="#000201" fill-opacity="0.501961" cx="0" cy="0" rx="1" ry="1" /></g>
<g transform="translate(578.306474 207.228528) rotate(189.939560) scale(29.882700 26.389571)"><ellipse fill="#000200" fill-opacity="0.501961" cx="0" cy="0" rx="1" ry="1" /></g>
<g transform="translate(891.106337 581.571278) rotate(167.697720) scale(88.972019 6.353113)"><ellipse fill="#234d3b" fill-opacity="0.501961" cx="0" cy="0" rx="1" ry="1" /></g>
<g transform="translate(541.855322 171.325996) rotate(90.455591) scale(49.631922 5.213655)"><ellipse fill="#ffbde2" fill-opacity="0.501961" cx="0" cy="0" rx="1" ry="1" /></g>
<g transform="translate(110.294170 268.976767) rotate(176.256585) scale(21.388704 4.447976)"><ellipse fill="#d9adc2" fill-opacity="0.501961" cx="0" cy="0" rx="1" ry="1" /></g>
<g transform="translate(145.785656 61.340665) rotate(30.191339) scale(18.082307 76.990835)"><ellipse fill="#000000" fill-opacity="0.501961" cx="0" cy="0" rx="1" ry="1" /></g>
<g transform="translate(443.209519 580.041699) rotate(64.329110) scale(30.311447 4.339863)"><ellipse fill="#bb8fa5" fill-opacity="0.501961" cx="0" cy="0" rx="1" ry="1" /></g>
<g transform="translate(60.207158 243.055530) rotate(357.288885) scale(101.266538 27.190564)"><ellipse fill="#000301" fill-opacity="0.501961" cx="0" cy="0" rx="1" ry="1" /></g>
<g transform="translate(511.416155 206.676562) rotate(263.772768) scale(14.295543 27.917278)"><ellipse fill="#000400" fill-opacity="0.501961" cx="0" cy="0" rx="1" ry="1" /></g>
<g transform="translate(607.940418 354.491925) rotate(147.083636) scale(18.908340 51.036718)"><ellipse fill="#52c18d" fill-opacity="0.501961" cx="0" cy="0" rx="1" ry="1" /></g>
<g transform="translate(147.496275 371.117788) rotate(195.288619) scale(9.282733 69.719507)"><ellipse fill="#000100" fill-opacity="0.501961" cx="0" cy="0" rx="1" ry="1" /></g>
<g transform="translate(483.440613 260.616885) rotate(202.437143) scale(22.656497 48.039062)"><ellipse fill="#41b47e" fill-opacity="0.501961" cx="0" cy="0" rx="1" ry="1" /></g>
<g transform="translate(391.976303 169.344804) rotate(180.127082) scale(105.204971 35.346201)"><ellipse fill="#e189b4" fill-opacity="0.501961" cx="0" cy="0" rx="1" ry="1" /></g>
<g transform="translate(291.438576 320.263198) rotate(12.521026) scale(38.737518 4.916874)"><ellipse fill="#3dcd8d" fill-opacity="0.501961" cx="0" cy="0" rx="1" ry="1" /></g>
<g transform="translate(168.730282 106.120845) rotate(41.792074) scale(17.919311 56.391746)"><ellipse fill="#945374" fill-opacity="0.501961" cx="0" cy="0" rx="1" ry="1" /></g>
<g transform="translate(872.547212 67.580163) rotate(300.529485) scale(77.593455 3.281397)"><ellipse fill="#338760" fill-opacity="0.501961" cx="0" cy="0" rx="1" ry="1" /></g>
<g transform="translate(343.155276 485.777542) rotate(340.686031) scale(26.564484 16.176968)"><ellipse fill="#d81276" fill-opacity="0.501961" cx="0" cy="0" rx="1" ry="1" /></g>
<g transform="translate(342.098207 251.227943) rotate(206.327098) scale(45.574801 4.908147)"><ellipse fill="#000400" fill-opacity="0.501961" cx="0" cy="0" rx="1" ry="1" /></g>
<g transform="translate(1.532042 309.964294) rotate(150.000893) scale(37.082335 4.708491)"><ellipse fill="#b792a4" fill-opacity="0.501961" cx="0" cy="0" rx="1" ry="1" /></g>
<g transform="translate(240.375171 217.380774) rotate(217.239293) scale(6.581591 106.979374)"><ellipse fill="#df7ba6" fill-opacity="0.501961" cx="0" cy="0" rx="1" ry="1" /></g>
<g transform="translate(463.689727 439.957100) rotate(345.808249) scale(85.284826 59.578246)"><ellipse fill="#40a173" fill-opacity="0.501961" cx="0" cy="0" rx="1" ry="1" /></g>
<g transform="translate(185.386108 520.243671) rotate(119.593767) scale(52.140585 60.076590)"><ellipse fill="#942058" fill-opacity="0.501961" cx="0" cy="0" rx="1" ry="1" /></g>
<g transform="translate(303.958235 398.274091) rotate(230.739899) scale(88.154491 15.916510)"><ellipse fill="#e62282" fill-opacity="0.501961" cx="0" cy="0" rx="1" ry="1" /></g>
<g transform="translate(314.110818 300.274822) rotate(73.525070) scale(16.483359 32.891375)"><ellipse fill="#000000" fill-opacity="0.501961" cx="0" cy="0" rx="1" ry="1" /></g>
<g transform="translate(296.789478 552.583167) rotate(71.438897) scale(20.205703 72.002080)"><ellipse fill="#000000" fill-opacity="0.501961" cx="0" cy="0" rx="1" ry="1" /></g>
<g transform="translate(564.807669 439.724788) rotate(297.840970) scale(88.772201 20.835652)"><ellipse fill="#4aaa7d" fill-opacity="0.501961" cx="0" cy="0" rx="1" ry="1" /></g>
</g>
</svg>