<svg xmlns="http://www.w3.org/2000/svg" version="1.1" width="1200" height="630">
<rect x="0" y="0" width="1200" height="630" fill="#111a25" />
<g transform="scale(1.000000) translate(0.5 0.5)">
<g transform="translate(835 384) rotate(248) scale(342 15)"><rect fill="#ffffff" fill-opacity="0.501961" x="-0.5" y="-0.5" width="1" height="1" /></g>
<g transform="translate(940 276) rotate(192) scale(314 16)"><rect fill="#ffffff" fill-opacity="0.501961" x="-0.5" y="-0.5" width="1" height="1" /></g>
<g transform="translate(957 423) rotate(226) scale(13 353)"><rect fill="#ffffff" fill-opacity="0.501961" x="-0.5" y="-0.5" width="1" height="1" /></g>
<g transform="translate(622 308) rotate(158) scale(324 12)"><rect fill="#ffffda" fill-opacity="0.501961" x="-0.5" y="-0.5" width="1" height="1" /></g>
<g transform="translate(838 537) rotate(253) scale(69 71)"><rect fill="#926fff" fill-opacity="0.501961" x="-0.5" y="-0.5" width="1" height="1" /></g>
<g transform="translate(780 108) rotate(90) scale(240 12)"><rect fill="#ffff98" fill-opacity="0.501961" x="-0.5" y="-0.5" width="1" height="1" /></g>
<g transform="translate(336 304) rotate(382) scale(339 13)"><rect fill="#9374ff" fill-opacity="0.501961" x="-0.5" y="-0.5" width="1" height="1" /></g>
<g transform="translate(311 547) rotate(329) scale(263 9)"><rect fill="#fffec4" fill-opacity="0.501961" x="-0.5" y="-0.5" width="1" height="1" /></g>
<g transform="translate(623 0) rotate(90) scale(15 303)"><rect fill="#e8d66e" fill-opacity="0.501961" x="-0.5" y="-0.5" width="1" height="1" /></g>
<g transform="translate(809 393) rotate(169) scale(11 215)"><rect fill="#987bff" fill-opacity="0.501961" x="-0.5" y="-0.5" width="1" height="1" /></g>
<g transform="translate(821 348) rotate(68) scale(219 12)"><rect fill="#ffffff" fill-opacity="0.501961" x="-0.5" y="-0.5" width="1" height="1" /></g>
<g transform="translate(86 466) rotate(117) scale(420 380)"><rect fill="#00070e" fill-opacity="0.501961" x="-0.5" y="-0.5" width="1" height="1" /></g>
<g transform="translate(863 260) rotate(102) scale(12 178)"><rect fill="#fffffb" fill-opacity="0.501961" x="-0.5" y="-0.5" width="1" height="1" /></g>
<g transform="translate(114 208) rotate(29) scale(149 9)"><rect fill="#6d52d0" fill-opacity="0.501961" x="-0.5" y="-0.5" width="1" height="1" /></g>
<g transform="translate(211 49) rotate(266) scale(195 525)"><rect fill="#000207" fill-opacity="0.501961" x="-0.5" y="-0.5" width="1" height="1" /></g>
<g transform="translate(974 446) rotate(127) scale(265 13)"><rect fill="#624ca5" fill-opacity="0.501961" x="-0.5" y="-0.5" width="1" height="1" /></g>
<g transform="translate(1139 308) rotate(349) scale(9 240)"><rect fill="#684ec8" fill-opacity="0.501961" x="-0.5" y="-0.5" width="1" height="1" /></g>
<g transform="translate(891 543) rotate(186) scale(61 14)"><rect fill="#a99ecd" fill-opacity="0.501961" x="-0.5" y="-0.5" width="1" height="1" /></g>
<g transform="translate(614 311) rotate(157) scale(256 7)"><rect fill="#ffff8d" fill-opacity="0.501961" x="-0.5" y="-0.5" width="1" height="1" /></g>
<g transform="translate(1026 28) rotate(15) scale(428 285)"><rect fill="#00030b" fill-opacity="0.501961" x="-0.5" y="-0.5" width="1" height="1" /></g>
<g transform="translate(1104 120) rotate(349) scale(11 205)"><rect fill="#513f97" fill-opacity="0.501961" x="-0.5" y="-0.5" width="1" height="1" /></g>
<g transform="translate(1060 577) rotate(76) scale(204 240)"><rect fill="#000002" fill-opacity="0.501961" x="-0.5" y="-0.5" width="1" height="1" /></g>
<g transform="translate(1012 292) rotate(102) scale(13 130)"><rect fill="#f7f3c0" fill-opacity="0.501961" x="-0.5" y="-0.5" width="1" height="1" /></g>
<g transform="translate(1021 362) rotate(46) scale(10 119)"><rect fill="#fbf8c1" fill-opacity="0.501961" x="-0.5" y="-0.5" width="1" height="1" /></g>
<g transform="translate(780 244) rotate(-23) scale(20 25)"><rect fill="#5633ff" fill-opacity="0.501961" x="-0.5" y="-0.5" width="1" height="1" /></g>
<g transform="translate(935 444) rotate(46) scale(11 108)"><rect fill="#fffac6" fill-opacity="0.501961" x="-0.5" y="-0.5" width="1" height="1" /></g>
<g transform="translate(124 182) rotate(226) scale(34 36)"><rect fill="#7e7947" fill-opacity="0.501961" x="-0.5" y="-0.5" width="1" height="1" /></g>
<g transform="translate(835 530) rotate(165) scale(65 56)"><rect fill="#5c4ecd" fill-opacity="0.501961" x="-0.5" y="-0.5" width="1" height="1" /></g>
<g transform="translate(65 181) rotate(214) scale(55 56)"><rect fill="#342363" fill-opacity="0.501961" x="-0.5" y="-0.5" width="1" height="1" /></g>
<g transform="translate(640 614) rotate(185) scale(620 103)"><rect fill="#00060e" fill-opacity="0.501961" x="-0.5" y="-0.5" width="1" height="1" /></g>
<g transform="translate(839 394) rotate(248) scale(295 10)"><rect fill="#ffffc7" fill-opacity="0.501961" x="-0.5" y="-0.5" width="1" height="1" /></g>
<g transform="translate(779 178) rotate(270) scale(121 12)"><rect fill="#e6d589" fill-opacity="0.501961" x="-0.5" y="-0.5" width="1" height="1" /></g>
<g transform="translate(1199 381) rotate(260) scale(377 78)"><rect fill="#000409" fill-opacity="0.501961" x="-0.5" y="-0.5" width="1" height="1" /></g>
<g transform="translate(177 242) rotate(394) scale(20 57)"><rect fill="#453487" fill-opacity="0.501961" x="-0.5" y="-0.5" width="1" height="1" /></g>
<g transform="translate(174 629) rotate(-32) scale(195 9)"><rect fill="#847c60" fill-opacity="0.501961" x="-0.5" y="-0.5" width="1" height="1" /></g>
<g transform="translate(482 365) rotate(189) scale(14 30)"><rect fill="#846aff" fill-opacity="0.501961" x="-0.5" y="-0.5" width="1" height="1" /></g>
<g transform="translate(1088 298) rotate(343) scale(16 36)"><rect fill="#2c2076" fill-opacity="0.501961" x="-0.5" y="-0.5" width="1" height="1" /></g>
<g transform="translate(380 505) rotate(59) scale(6 93)"><rect fill="#f4eabe" fill-opacity="0.501961" x="-0.5" y="-0.5" width="1" height="1" /></g>
<g transform="translate(1169 473) rotate(258) scale(108 9)"><rect fill="#4b3690" fill-opacity="0.501961" x="-0.5" y="-0.5" width="1" height="1" /></g>
<g transform="translate(747 256) rotate(154) scale(46 7)"><rect fill="#ffff84" fill-opacity="0.501961" x="-0.5" y="-0.5" width="1" height="1" /></g>
<g transform="translate(665 54) rotate(270) scale(87 210)"><rect fill="#000a13" fill-opacity="0.501961" x="-0.5" y="-0.5" width="1" height="1" /></g>
<g transform="translate(269 608) rotate(60) scale(52 143)"><rect fill="#000307" fill-opacity="0.501961" x="-0.5" y="-0.5" width="1" height="1" /></g>
<g transform="translate(432 343) rotate(292) scale(9 97)"><rect fill="#7461f0" fill-opacity="0.501961" x="-0.5" y="-0.5" width="1" height="1" /></g>
<g transform="translate(56 591) rotate(211) scale(226 144)"><rect fill="#000203" fill-opacity="0.501961" x="-0.5" y="-0.5" width="1" height="1" /></g>
<g transform="translate(913 548) rotate(294) scale(34 13)"><rect fill="#503cb8" fill-opacity="0.501961" x="-0.5" y="-0.5" width="1" height="1" /></g>
<g transform="translate(802 90) rotate(180) scale(36 212)"><rect fill="#06111c" fill-opacity="0.501961" x="-0.5" y="-0.5" width="1" height="1" /></g>
<g transform="translate(255 400) rotate(31) scale(245 183)"><rect fill="#0a1826" fill-opacity="0.501961" x="-0.5" y="-0.5" width="1" height="1" /></g>
<g transform="translate(1101 399) rotate(-1) scale(77 129)"><rect fill="#000912" fill-opacity="0.501961" x="-0.5" y="-0.5" width="1" height="1" /></g>
<g transform="translate(923 263) rotate(11) scale(226 2)"><rect fill="#0c1a20" fill-opacity="0.501961" x="-0.5" y="-0.5" width="1" height="1" /></g>
<g transform="translate(1061 325) rotate(136) scale(61 14)"><rect fill="#b7b49c" fill-opacity="0.501961" x="-0.5" y="-0.5" width="1" height="1" /></g>
<g transform="translate(419 133) rotate(86) scale(196 456)"><rect fill="#061421" fill-opacity="0.501961" x="-0.5" y="-0.5" width="1" height="1" /></g>
<g transform="translate(124 183) rotate(310) scale(19 20)"><rect fill="#000009" fill-opacity="0.501961" x="-0.5" y="-0.5" width="1" height="1" /></g>
<g transform="translate(686 282) rotate(336) scale(90 8)"><rect fill="#fff886" fill-opacity="0.501961" x="-0.5" y="-0.5" width="1" height="1" /></g>
<g transform="translate(1155 40) rotate(262) scale(144 110)"><rect fill="#000201" fill-opacity="0.501961" x="-0.5" y="-0.5" width="1" height="1" /></g>
<g transform="translate(359 315) rotate(112) scale(12 148)"><rect fill="#6455cd" fill-opacity="0.501961" x="-0.5" y="-0.5" width="1" height="1" /></g>
<g transform="translate(765 226) rotate(146) scale(15 17)"><rect fill="#00041a" fill-opacity="0.501961" x="-0.5" y="-0.5" width="1" height="1" /></g>
<g transform="translate(98 15) rotate(424) scale(112 256)"><rect fill="#000204" fill-opacity="0.501961" x="-0.5" y="-0.5" width="1" height="1" /></g>
<g transform="translate(1046 235) rotate(276) scale(97 132)"><rect fill="#020d18" fill-opacity="0.501961" x="-0.5" y="-0.5" width="1" height="1" /></g>
<g transform="translate(860 425) rotate(338) scale(1 253)"><rect fill="#182325" fill-opacity="0.501961" x="-0.5" y="-0.5" width="1" height="1" /></g>
<g transform="translate(885 491) rotate(226) scale(13 51)"><rect fill="#c8c6a3" fill-opacity="0.501961" x="-0.5" y="-0.5" width="1" height="1" /></g>
<g transform="translate(543 339) rotate(247) scale(7 115)"><rect fill="#fffd8e" fill-opacity="0.501961" x="-0.5" y="-0.5" width="1" height="1" /></g>
<g transform="translate(1036 304) rotate(283) scale(1 64)"><rect fill="#161f1d" fill-opacity="0.501961" x="-0.5" y="-0.5" width="1" height="1" /></g>
<g transform="translate(849 544) rotate(73) scale(53 52)"><rect fill="#5447aa" fill-opacity="0.501961" x="-0.5" y="-0.5" width="1" height="1" /></g>
<g transform="translate(680 303) rotate(338) scale(198 22)"><rect fill="#081a2b" fill-opacity="0.501961" x="-0.5" y="-0.5" width="1" height="1" /></g>
<g transform="translate(1016 471) rotate(218) scale(81 222)"><rect fill="#05111c" fill-opacity="0.501961" x="-0.5" y="-0.5" width="1" height="1" /></g>
<g transform="translate(807 249) rotate(92) scale(11 34)"><rect fill="#ffffd5" fill-opacity="0.501961" x="-0.5" y="-0.5" width="1" height="1" /></g>
<g transform="translate(793 313) rotate(164) scale(5 84)"><rect fill="#7562ee" fill-opacity="0.501961" x="-0.5" y="-0.5" width="1" height="1" /></g>
<g transform="translate(889 541) rotate(58) scale(15 17)"><rect fill="#c4c888" fill-opacity="0.501961" x="-0.5" y="-0.5" width="1" height="1" /></g>
<g transform="translate(735 534) rotate(-14) scale(127 127)"><rect fill="#04101d" fill-opacity="0.501961" x="-0.5" y="-0.5" width="1" height="1" /></g>
<g transform="translate(149 226) rotate(28) scale(35 9)"><rect fill="#6d5cd4" fill-opacity="0.501961" x="-0.5" y="-0.5" width="1" height="1" /></g>
<g transform="translate(847 258) rotate(371) scale(100 13)"><rect fill="#fcfbc8" fill-opacity="0.501961" x="-0.5" y="-0.5" width="1" height="1" /></g>
<g transform="translate(538 519) rotate(100) scale(176 244)"><rect fill="#061321" fill-opacity="0.501961" x="-0.5" y="-0.5" width="1" height="1" /></g>
<g transform="translate(485 364) rotate(14) scale(13 28)"><rect fill="#7e6aff" fill-opacity="0.501961" x="-0.5" y="-0.5" width="1" height="1" /></g>
<g transform="translate(124 195) rotate(103) scale(4 25)"><rect fill="#b9b168" fill-opacity="0.501961" x="-0.5" y="-0.5" width="1" height="1" /></g>
<g transform="translate(780 236) rotate(115) scale(8 20)"><rect fill="#5745ff" fill-opacity="0.501961" x="-0.5" y="-0.5" width="1" height="1" /></g>
<g transform="translate(138 181) rotate(-1) scale(5 25)"><rect fill="#bfb569" fill-opacity="0.501961" x="-0.5" y="-0.5" width="1" height="1" /></g>
<g transform="translate(898 183) rotate(91) scale(116 226)"><rect fill="#061421" fill-opacity="0.501961" x="-0.5" y="-0.5" width="1" height="1" /></g>
<g transform="translate(307 282) rotate(202) scale(187 8)"><rect fill="#041423" fill-opacity="0.501961" x="-0.5" y="-0.5" width="1" height="1" /></g>
<g transform="translate(66 185) rotate(125) scale(52 46)"><rect fill="#29234f" fill-opacity="0.501961" x="-0.5" y="-0.5" width="1" height="1" /></g>
<g transform="translate(1110 316) rotate(60) scale(31 48)"><rect fill="#000a15" fill-opacity="0.501961" x="-0.5" y="-0.5" width="1" height="1" /></g>
<g transform="translate(832 517) rotate(226) scale(33 33)"><rect fill="#6959c7" fill-opacity="0.501961" x="-0.5" y="-0.5" width="1" height="1" /></g>
<g transform="translate(804 370) rotate(78) scale(107 6)"><rect fill="#6857db" fill-opacity="0.501961" x="-0.5" y="-0.5" width="1" height="1" /></g>
<g transform="translate(927 273) rotate(11) scale(120 11)"><rect fill="#e9e8bf" fill-opacity="0.501961" x="-0.5" y="-0.5" width="1" height="1" /></g>
<g transform="translate(779 79) rotate(87) scale(78 8)"><rect fill="#bdac61" fill-opacity="0.501961" x="-0.5" y="-0.5" width="1" height="1" /></g>
<g transform="translate(167 178) rotate(244) scale(80 44)"><rect fill="#010c15" fill-opacity="0.501961" x="-0.5" y="-0.5" width="1" height="1" /></g>
<g transform="translate(116 210) rotate(296) scale(8 58)"><rect fill="#5f50b9" fill-opacity="0.501961" x="-0.5" y="-0.5" width="1" height="1" /></g>
<g transform="translate(1124 624) rotate(347) scale(132 121)"><rect fill="#000305" fill-opacity="0.501961" x="-0.5" y="-0.5" width="1" height="1" /></g>
<g transform="translate(1087 291) rotate(238) scale(30 5)"><rect fill="#5949ab" fill-opacity="0.501961" x="-0.5" y="-0.5" width="1" height="1" /></g>
<g transform="translate(808 345) rotate(160) scale(7 56)"><rect fill="#18253d" fill-opacity="0.501961" x="-0.5" y="-0.5" width="1" height="1" /></g>
<g transform="translate(926 509) rotate(307) scale(67 15)"><rect fill="#2e2661" fill-opacity="0.501961" x="-0.5" y="-0.5" width="1" height="1" /></g>
<g transform="translate(35 128) rotate(301) scale(201 45)"><rect fill="#03090e" fill-opacity="0.501961" x="-0.5" y="-0.5" width="1" height="1" /></g>
<g transform="translate(1047 30) rotate(349) scale(71 104)"><rect fill="#02070a" fill-opacity="0.501961" x="-0.5" y="-0.5" width="1" height="1" /></g>
<g transform="translate(619 309) rotate(67) scale(9 78)"><rect fill="#fff187" fill-opacity="0.501961" x="-0.5" y="-0.5" width="1" height="1" /></g>
<g transform="translate(1022 275) rotate(281) scale(20 76)"><rect fill="#0d1823" fill-opacity="0.501961" x="-0.5" y="-0.5" width="1" height="1" /></g>
<g transform="translate(524 32) rotate(269) scale(44 107)"><rect fill="#030a11" fill-opacity="0.501961" x="-0.5" y="-0.5" width="1" height="1" /></g>
<g transform="translate(179 240) rotate(305) scale(40 25)"><rect fill="#332b65" fill-opacity="0.501961" x="-0.5" y="-0.5" width="1" height="1" /></g>
<g transform="translate(537 360) rotate(68) scale(21 71)"><rect fill="#0e202e" fill-opacity="0.501961" x="-0.5" y="-0.5" width="1" height="1" /></g>
<g transform="translate(1036 337) rotate(47) scale(1 154)"><rect fill="#363d3d" fill-opacity="0.501961" x="-0.5" y="-0.5" width="1" height="1" /></g>
<g transform="translate(309 518) rotate(326) scale(185 34)"><rect fill="#040e18" fill-opacity="0.501961" x="-0.5" y="-0.5" width="1" height="1" /></g>
<g transform="translate(898 577) rotate(130) scale(29 53)"><rect fill="#010911" fill-opacity="0.501961" x="-0.5" y="-0.5" width="1" height="1" /></g>
</g>
</svg>