<svg xmlns="http://www.w3.org/2000/svg" version="1.1" width="1200" height="630">
<rect x="0" y="0" width="1200" height="630" fill="#262023" />
<g transform="scale(1.000000) translate(0.5 0.5)">
<rect fill="#ff96ff" fill-opacity="0.501961" x="441" y="237" width="248" height="161" />
<rect fill="#2cbc6d" fill-opacity="0.501961" x="629" y="446" width="218" height="133" />
<rect fill="#ff6ec0" fill-opacity="0.501961" x="485" y="246" width="166" height="162" />
<rect fill="#020604" fill-opacity="0.501961" x="0" y="0" width="536" height="253" />
<rect fill="#ff71bd" fill-opacity="0.501961" x="493" y="250" width="215" height="73" />
<rect fill="#a0346a" fill-opacity="0.501961" x="46" y="496" width="232" height="134" />
<rect fill="#000000" fill-opacity="0.501961" x="633" y="349" width="57" height="60" />
<rect fill="#ff6bbd" fill-opacity="0.501961" x="429" y="316" width="225" height="57" />
<rect fill="#46a383" fill-opacity="0.501961" x="63" y="276" width="238" height="33" />
<rect fill="#040505" fill-opacity="0.501961" x="284" y="521" width="405" height="109" />
<rect fill="#0b100d" fill-opacity="0.501961" x="195" y="383" width="323" height="153" />
<rect fill="#ff66b2" fill-opacity="0.501961" x="571" y="234" width="52" height="200" />
<rect fill="#090a09" fill-opacity="0.501961" x="786" y="0" width="404" height="505" />
<rect fill="#358f68" fill-opacity="0.501961" x="279" y="257" width="222" height="20" />
<rect fill="#1f9353" fill-opacity="0.501961" x="756" y="528" width="156" height="93" />
<rect fill="#ff97dd" fill-opacity="0.501961" x="642" y="274" width="131" height="12" />
<rect fill="#40c079" fill-opacity="0.501961" x="622" y="441" width="105" height="66" />
<rect fill="#000000" fill-opacity="0.501961" x="428" y="265" width="44" height="34" />
<rect fill="#1a1b1a" fill-opacity="0.501961" x="671" y="312" width="203" height="143" />
<rect fill="#a74174" fill-opacity="0.501961" x="90" y="478" width="74" height="81" />
<rect fill="#ff67b2" fill-opacity="0.501961" x="462" y="288" width="177" height="98" />
<rect fill="#0d0f0e" fill-opacity="0.501961" x="665" y="0" width="124" height="255" />
<rect fill="#ff69b4" fill-opacity="0.501961" x="530" y="243" width="150" height="90" />
<rect fill="#d083b3" fill-opacity="0.501961" x="879" y="71" width="9" height="97" />
<rect fill="#d3478d" fill-opacity="0.501961" x="1191" y="285" width="9" height="161" />
<rect fill="#35a567" fill-opacity="0.501961" x="662" y="481" width="159" height="66" />
<rect fill="#010000" fill-opacity="0.501961" x="0" y="253" width="169" height="34" />
<rect fill="#08160a" fill-opacity="0.501961" x="617" y="381" width="71" height="42" />
<rect fill="#43343d" fill-opacity="0.501961" x="779" y="169" width="99" height="105" />
<rect fill="#ff71d5" fill-opacity="0.501961" x="613" y="428" width="27" height="17" />
<rect fill="#a54274" fill-opacity="0.501961" x="163" y="522" width="65" height="67" />
<rect fill="#000000" fill-opacity="0.501961" x="931" y="502" width="269" height="128" />
<rect fill="#75e3c2" fill-opacity="0.501961" x="352" y="261" width="91" height="9" />
<rect fill="#12120f" fill-opacity="0.501961" x="394" y="268" width="57" height="56" />
<rect fill="#131614" fill-opacity="0.501961" x="514" y="415" width="81" height="168" />
<rect fill="#4cc59b" fill-opacity="0.501961" x="59" y="296" width="9" height="201" />
<rect fill="#69d6b3" fill-opacity="0.501961" x="253" y="270" width="98" height="9" />
<rect fill="#000400" fill-opacity="0.501961" x="433" y="377" width="43" height="21" />
<rect fill="#000900" fill-opacity="0.501961" x="240" y="496" width="41" height="58" />
<rect fill="#090000" fill-opacity="0.501961" x="204" y="286" width="99" height="11" />
<rect fill="#36d891" fill-opacity="0.501961" x="422" y="252" width="93" height="10" />
<rect fill="#501935" fill-opacity="0.501961" x="0" y="529" width="121" height="101" />
<rect fill="#201e1f" fill-opacity="0.501961" x="216" y="104" width="328" height="144" />
<rect fill="#0e0f0e" fill-opacity="0.501961" x="69" y="307" width="229" height="174" />
<rect fill="#ff68b3" fill-opacity="0.501961" x="426" y="342" width="118" height="27" />
<rect fill="#ff67b1" fill-opacity="0.501961" x="489" y="267" width="143" height="123" />
<rect fill="#1c1a1b" fill-opacity="0.501961" x="437" y="395" width="100" height="180" />
<rect fill="#ff7ec9" fill-opacity="0.501961" x="649" y="265" width="65" height="26" />
<rect fill="#bd7ba4" fill-opacity="0.501961" x="771" y="262" width="32" height="14" />
<rect fill="#0f080b" fill-opacity="0.501961" x="624" y="560" width="92" height="70" />
<rect fill="#1a000c" fill-opacity="0.501961" x="754" y="445" width="94" height="26" />
<rect fill="#171a17" fill-opacity="0.501961" x="643" y="359" width="55" height="80" />
<rect fill="#050000" fill-opacity="0.501961" x="456" y="262" width="36" height="14" />
<rect fill="#1b1b1b" fill-opacity="0.501961" x="661" y="105" width="164" height="142" />
<rect fill="#9d3e6e" fill-opacity="0.501961" x="228" y="561" width="54" height="53" />
<rect fill="#ff6bb9" fill-opacity="0.501961" x="559" y="377" width="48" height="36" />
<rect fill="#ff6bb4" fill-opacity="0.501961" x="558" y="236" width="103" height="115" />
<rect fill="#020001" fill-opacity="0.501961" x="694" y="604" width="99" height="26" />
<rect fill="#000100" fill-opacity="0.501961" x="0" y="285" width="58" height="229" />
<rect fill="#090105" fill-opacity="0.501961" x="887" y="505" width="48" height="50" />
<rect fill="#62cea9" fill-opacity="0.501961" x="70" y="298" width="230" height="9" />
<rect fill="#80355a" fill-opacity="0.501961" x="24" y="515" width="176" height="55" />
<rect fill="#b876a0" fill-opacity="0.501961" x="869" y="162" width="12" height="29" />
<rect fill="#1b6e40" fill-opacity="0.501961" x="815" y="573" width="119" height="57" />
<rect fill="#5fc2a0" fill-opacity="0.501961" x="149" y="282" width="93" height="7" />
<rect fill="#000500" fill-opacity="0.501961" x="693" y="299" width="15" height="24" />
<rect fill="#2a7e50" fill-opacity="0.501961" x="728" y="514" width="138" height="80" />
<rect fill="#0e0408" fill-opacity="0.501961" x="166" y="253" width="205" height="12" />
<rect fill="#000900" fill-opacity="0.501961" x="666" y="329" width="23" height="30" />
<rect fill="#171918" fill-opacity="0.501961" x="327" y="275" width="108" height="71" />
<rect fill="#a96f94" fill-opacity="0.501961" x="810" y="239" width="23" height="18" />
<rect fill="#ff67b0" fill-opacity="0.501961" x="447" y="308" width="84" height="67" />
<rect fill="#181517" fill-opacity="0.501961" x="263" y="496" width="377" height="71" />
<rect fill="#be4984" fill-opacity="0.501961" x="111" y="473" width="25" height="26" />
<rect fill="#e791c7" fill-opacity="0.501961" x="862" y="189" width="8" height="18" />
<rect fill="#ff72bc" fill-opacity="0.501961" x="634" y="259" width="65" height="45" />
<rect fill="#0c0f0d" fill-opacity="0.501961" x="536" y="0" width="131" height="202" />
<rect fill="#c981ae" fill-opacity="0.501961" x="836" y="222" width="14" height="16" />
<rect fill="#050505" fill-opacity="0.501961" x="1023" y="0" width="177" height="216" />
<rect fill="#39ad6d" fill-opacity="0.501961" x="620" y="444" width="91" height="37" />
<rect fill="#1f1d1e" fill-opacity="0.501961" x="750" y="281" width="239" height="181" />
<rect fill="#1b191a" fill-opacity="0.501961" x="215" y="371" width="238" height="163" />
<rect fill="#d386b7" fill-opacity="0.501961" x="849" y="206" width="11" height="17" />
<rect fill="#ffabe9" fill-opacity="0.501961" x="800" y="254" width="14" height="8" />
<rect fill="#73e7c2" fill-opacity="0.501961" x="316" y="267" width="63" height="6" />
<rect fill="#000000" fill-opacity="0.501961" x="717" y="272" width="32" height="6" />
<rect fill="#8b5878" fill-opacity="0.501961" x="868" y="43" width="12" height="29" />
<rect fill="#ff67b2" fill-opacity="0.501961" x="480" y="272" width="169" height="94" />
<rect fill="#040d09" fill-opacity="0.501961" x="177" y="481" width="76" height="29" />
<rect fill="#29111d" fill-opacity="0.501961" x="0" y="601" width="148" height="29" />
<rect fill="#1e1d1e" fill-opacity="0.501961" x="695" y="170" width="96" height="96" />
<rect fill="#1e1c1d" fill-opacity="0.501961" x="271" y="176" width="202" height="79" />
<rect fill="#ff73c9" fill-opacity="0.501961" x="594" y="400" width="14" height="27" />
<rect fill="#ff67b0" fill-opacity="0.501961" x="529" y="372" width="91" height="29" />
<rect fill="#3cc479" fill-opacity="0.501961" x="726" y="465" width="42" height="16" />
<rect fill="#00110a" fill-opacity="0.501961" x="612" y="400" width="26" height="19" />
<rect fill="#ffb8f3" fill-opacity="0.501961" x="685" y="279" width="68" height="5" />
<rect fill="#181814" fill-opacity="0.501961" x="422" y="266" width="35" height="43" />
<rect fill="#1f1d1e" fill-opacity="0.501961" x="629" y="377" width="81" height="56" />
<rect fill="#67d4af" fill-opacity="0.501961" x="216" y="277" width="66" height="6" />
</g>
</svg>