<svg xmlns="http://www.w3.org/2000/svg" version="1.1" width="1200" height="630">
<rect x="0" y="0" width="1200" height="630" fill="#3b353d" />
<g transform="scale(1.000000) translate(0.5 0.5)">
<rect fill="#d4b4a4" fill-opacity="0.501961" x="271" y="237" width="346" height="315" />
<rect fill="#00000d" fill-opacity="0.501961" x="0" y="4" width="354" height="355" />
<rect fill="#e4bda9" fill-opacity="0.501961" x="616" y="258" width="201" height="121" />
<rect fill="#c9c7c3" fill-opacity="0.501961" x="250" y="361" width="203" height="232" />
<rect fill="#b7a598" fill-opacity="0.501961" x="909" y="352" width="201" height="165" />
<rect fill="#000013" fill-opacity="0.501961" x="465" y="510" width="408" height="120" />
<rect fill="#000010" fill-opacity="0.501961" x="0" y="359" width="229" height="123" />
<rect fill="#b2988e" fill-opacity="0.501961" x="687" y="264" width="77" height="170" />
<rect fill="#0c0f22" fill-opacity="0.501961" x="0" y="0" width="287" height="405" />
<rect fill="#000529" fill-opacity="0.501961" x="842" y="244" width="110" height="151" />
<rect fill="#c4aea1" fill-opacity="0.501961" x="854" y="444" width="55" height="64" />
<rect fill="#b58871" fill-opacity="0.501961" x="363" y="193" width="164" height="47" />
<rect fill="#aa9a92" fill-opacity="0.501961" x="977" y="318" width="73" height="131" />
<rect fill="#000009" fill-opacity="0.501961" x="908" y="0" width="292" height="324" />
<rect fill="#e6ded5" fill-opacity="0.501961" x="894" y="62" width="12" height="185" />
<rect fill="#bfb6b3" fill-opacity="0.501961" x="279" y="375" width="202" height="150" />
<rect fill="#00000f" fill-opacity="0.501961" x="1085" y="319" width="115" height="72" />
<rect fill="#0c0f29" fill-opacity="0.501961" x="599" y="426" width="116" height="204" />
<rect fill="#000000" fill-opacity="0.501961" x="1101" y="533" width="99" height="97" />
<rect fill="#00001a" fill-opacity="0.501961" x="353" y="6" width="503" height="168" />
<rect fill="#8b6252" fill-opacity="0.501961" x="456" y="226" width="176" height="214" />
<rect fill="#958d89" fill-opacity="0.501961" x="231" y="443" width="151" height="109" />
<rect fill="#655345" fill-opacity="0.501961" x="122" y="503" width="185" height="101" />
<rect fill="#0b0f2e" fill-opacity="0.501961" x="778" y="353" width="141" height="68" />
<rect fill="#78676a" fill-opacity="0.501961" x="310" y="166" width="129" height="34" />
<rect fill="#000005" fill-opacity="0.501961" x="433" y="565" width="32" height="65" />
<rect fill="#b8a69f" fill-opacity="0.501961" x="996" y="307" width="36" height="49" />
<rect fill="#090e31" fill-opacity="0.501961" x="754" y="164" width="52" height="111" />
<rect fill="#482712" fill-opacity="0.501961" x="882" y="491" width="98" height="139" />
<rect fill="#7a6e66" fill-opacity="0.501961" x="996" y="405" width="149" height="151" />
<rect fill="#a79891" fill-opacity="0.501961" x="897" y="410" width="80" height="74" />
<rect fill="#1e1e34" fill-opacity="0.501961" x="114" y="113" width="154" height="307" />
<rect fill="#050b30" fill-opacity="0.501961" x="491" y="174" width="263" height="38" />
<rect fill="#000027" fill-opacity="0.501961" x="641" y="356" width="32" height="39" />
<rect fill="#caa99a" fill-opacity="0.501961" x="815" y="298" width="24" height="39" />
<rect fill="#958688" fill-opacity="0.501961" x="722" y="426" width="60" height="41" />
<rect fill="#696672" fill-opacity="0.501961" x="264" y="130" width="54" height="37" />
<rect fill="#000003" fill-opacity="0.501961" x="1135" y="509" width="65" height="121" />
<rect fill="#805a4b" fill-opacity="0.501961" x="339" y="237" width="116" height="121" />
<rect fill="#000003" fill-opacity="0.501961" x="342" y="598" width="91" height="32" />
<rect fill="#aba6aa" fill-opacity="0.501961" x="840" y="154" width="19" height="41" />
<rect fill="#0d1233" fill-opacity="0.501961" x="267" y="181" width="64" height="173" />
<rect fill="#cec8cd" fill-opacity="0.501961" x="815" y="223" width="16" height="34" />
<rect fill="#020615" fill-opacity="0.501961" x="786" y="7" width="109" height="69" />
<rect fill="#775444" fill-opacity="0.501961" x="493" y="440" width="103" height="99" />
<rect fill="#f7eeea" fill-opacity="0.501961" x="829" y="199" width="11" height="26" />
<rect fill="#a78b84" fill-opacity="0.501961" x="614" y="398" width="70" height="16" />
<rect fill="#000214" fill-opacity="0.501961" x="1152" y="330" width="48" height="108" />
<rect fill="#c9bfbb" fill-opacity="0.501961" x="296" y="358" width="141" height="108" />
<rect fill="#b1a8a5" fill-opacity="0.501961" x="243" y="433" width="245" height="83" />
<rect fill="#20180c" fill-opacity="0.501961" x="0" y="568" width="163" height="62" />
<rect fill="#040b34" fill-opacity="0.501961" x="596" y="212" width="158" height="30" />
<rect fill="#6d635e" fill-opacity="0.501961" x="1045" y="426" width="121" height="99" />
<rect fill="#b7a69c" fill-opacity="0.501961" x="936" y="373" width="41" height="38" />
<rect fill="#756155" fill-opacity="0.501961" x="116" y="473" width="77" height="52" />
<rect fill="#6d554e" fill-opacity="0.501961" x="831" y="506" width="86" height="31" />
<rect fill="#010628" fill-opacity="0.501961" x="852" y="170" width="43" height="73" />
<rect fill="#000001" fill-opacity="0.501961" x="1070" y="594" width="130" height="36" />
<rect fill="#ad9fa0" fill-opacity="0.501961" x="783" y="433" width="52" height="12" />
<rect fill="#a0877c" fill-opacity="0.501961" x="664" y="266" width="129" height="101" />
<rect fill="#1c1b31" fill-opacity="0.501961" x="178" y="152" width="113" height="229" />
<rect fill="#e0d8d7" fill-opacity="0.501961" x="715" y="461" width="14" height="21" />
<rect fill="#000223" fill-opacity="0.501961" x="797" y="452" width="70" height="22" />
<rect fill="#938b87" fill-opacity="0.501961" x="239" y="115" width="29" height="19" />
<rect fill="#22223a" fill-opacity="0.501961" x="829" y="246" width="133" height="121" />
<rect fill="#090d22" fill-opacity="0.501961" x="459" y="536" width="75" height="94" />
<rect fill="#050818" fill-opacity="0.501961" x="1070" y="0" width="130" height="362" />
<rect fill="#b3adae" fill-opacity="0.501961" x="858" y="125" width="14" height="32" />
<rect fill="#050816" fill-opacity="0.501961" x="0" y="404" width="86" height="94" />
<rect fill="#181933" fill-opacity="0.501961" x="804" y="345" width="95" height="92" />
<rect fill="#000223" fill-opacity="0.501961" x="733" y="456" width="28" height="56" />
<rect fill="#a47f6e" fill-opacity="0.501961" x="325" y="317" width="29" height="41" />
<rect fill="#1a1b34" fill-opacity="0.501961" x="234" y="197" width="123" height="81" />
<rect fill="#141628" fill-opacity="0.501961" x="591" y="487" width="209" height="143" />
<rect fill="#8a6b60" fill-opacity="0.501961" x="381" y="217" width="185" height="144" />
<rect fill="#827d77" fill-opacity="0.501961" x="894" y="0" width="12" height="117" />
<rect fill="#483b34" fill-opacity="0.501961" x="117" y="568" width="200" height="62" />
<rect fill="#aa948d" fill-opacity="0.501961" x="704" y="379" width="51" height="49" />
<rect fill="#8e807c" fill-opacity="0.501961" x="970" y="339" width="94" height="136" />
<rect fill="#2a1609" fill-opacity="0.501961" x="947" y="580" width="90" height="50" />
<rect fill="#bfb8b4" fill-opacity="0.501961" x="871" y="103" width="11" height="26" />
<rect fill="#cdc5c2" fill-opacity="0.501961" x="434" y="411" width="34" height="72" />
<rect fill="#e8ded9" fill-opacity="0.501961" x="836" y="188" width="10" height="21" />
<rect fill="#000120" fill-opacity="0.501961" x="762" y="440" width="42" height="14" />
<rect fill="#bfb9b8" fill-opacity="0.501961" x="307" y="161" width="20" height="13" />
<rect fill="#cebbb3" fill-opacity="0.501961" x="827" y="442" width="26" height="9" />
<rect fill="#b6b4b7" fill-opacity="0.501961" x="334" y="179" width="20" height="15" />
<rect fill="#00001d" fill-opacity="0.501961" x="347" y="165" width="33" height="23" />
<rect fill="#8e8988" fill-opacity="0.501961" x="882" y="71" width="20" height="33" />
<rect fill="#f3ece9" fill-opacity="0.501961" x="810" y="247" width="11" height="18" />
<rect fill="#948d8a" fill-opacity="0.501961" x="291" y="497" width="152" height="81" />
<rect fill="#645a54" fill-opacity="0.501961" x="1022" y="483" width="90" height="99" />
<rect fill="#111427" fill-opacity="0.501961" x="290" y="9" width="246" height="137" />
<rect fill="#00001d" fill-opacity="0.501961" x="878" y="117" width="17" height="53" />
<rect fill="#987a6e" fill-opacity="0.501961" x="616" y="247" width="28" height="157" />
<rect fill="#a98f81" fill-opacity="0.501961" x="791" y="307" width="54" height="22" />
<rect fill="#181a36" fill-opacity="0.501961" x="907" y="98" width="80" height="238" />
<rect fill="#b5ada9" fill-opacity="0.501961" x="227" y="460" width="26" height="24" />
<rect fill="#080e30" fill-opacity="0.501961" x="754" y="404" width="46" height="23" />
<rect fill="#1c1e37" fill-opacity="0.501961" x="582" y="106" width="240" height="131" />
</g>
</svg>