<svg xmlns="http://www.w3.org/2000/svg" version="1.1" width="1200" height="630">
<rect x="0" y="0" width="1200" height="630" fill="#132227" />
<g transform="scale(1.000000) translate(0.5 0.5)">
<g transform="translate(725 371) rotate(210) scale(129 115)"><rect fill="#8dffca" fill-opacity="0.501961" x="-0.5" y="-0.5" width="1" height="1" /></g>
<g transform="translate(958 429) rotate(75) scale(147 166)"><rect fill="#73eb9f" fill-opacity="0.501961" x="-0.5" y="-0.5" width="1" height="1" /></g>
<g transform="translate(507 229) rotate(266) scale(11 430)"><rect fill="#b7ffff" fill-opacity="0.501961" x="-0.5" y="-0.5" width="1" height="1" /></g>
<g transform="translate(790 554) rotate(251) scale(321 17)"><rect fill="#ff86cf" fill-opacity="0.501961" x="-0.5" y="-0.5" width="1" height="1" /></g>
<g transform="translate(862 205) rotate(266) scale(9 279)"><rect fill="#b4fff8" fill-opacity="0.501961" x="-0.5" y="-0.5" width="1" height="1" /></g>
<g transform="translate(1144 496) rotate(171) scale(135 121)"><rect fill="#44ab63" fill-opacity="0.501961" x="-0.5" y="-0.5" width="1" height="1" /></g>
<g transform="translate(109 559) rotate(321) scale(139 78)"><rect fill="#a34c6e" fill-opacity="0.501961" x="-0.5" y="-0.5" width="1" height="1" /></g>
<g transform="translate(759 364) rotate(290) scale(20 270)"><rect fill="#86e9aa" fill-opacity="0.501961" x="-0.5" y="-0.5" width="1" height="1" /></g>
<g transform="translate(846 623) rotate(269) scale(81 130)"><rect fill="#bb5582" fill-opacity="0.501961" x="-0.5" y="-0.5" width="1" height="1" /></g>
<g transform="translate(921 329) rotate(269) scale(73 61)"><rect fill="#57d790" fill-opacity="0.501961" x="-0.5" y="-0.5" width="1" height="1" /></g>
<g transform="translate(854 525) rotate(167) scale(142 10)"><rect fill="#ff9ad7" fill-opacity="0.501961" x="-0.5" y="-0.5" width="1" height="1" /></g>
<g transform="translate(746 320) rotate(135) scale(85 24)"><rect fill="#69ffac" fill-opacity="0.501961" x="-0.5" y="-0.5" width="1" height="1" /></g>
<g transform="translate(899 540) rotate(25) scale(9 91)"><rect fill="#ff57a2" fill-opacity="0.501961" x="-0.5" y="-0.5" width="1" height="1" /></g>
<g transform="translate(704 300) rotate(343) scale(18 75)"><rect fill="#67ffa9" fill-opacity="0.501961" x="-0.5" y="-0.5" width="1" height="1" /></g>
<g transform="translate(994 299) rotate(182) scale(54 11)"><rect fill="#72ffb0" fill-opacity="0.501961" x="-0.5" y="-0.5" width="1" height="1" /></g>
<g transform="translate(188 321) rotate(72) scale(741 189)"><rect fill="#00010e" fill-opacity="0.501961" x="-0.5" y="-0.5" width="1" height="1" /></g>
<g transform="translate(895 58) rotate(92) scale(221 629)"><rect fill="#00000b" fill-opacity="0.501961" x="-0.5" y="-0.5" width="1" height="1" /></g>
<g transform="translate(358 426) rotate(270) scale(173 10)"><rect fill="#71ffb1" fill-opacity="0.501961" x="-0.5" y="-0.5" width="1" height="1" /></g>
<g transform="translate(796 399) rotate(103) scale(31 73)"><rect fill="#00000d" fill-opacity="0.501961" x="-0.5" y="-0.5" width="1" height="1" /></g>
<g transform="translate(869 455) rotate(-1) scale(45 59)"><rect fill="#00000f" fill-opacity="0.501961" x="-0.5" y="-0.5" width="1" height="1" /></g>
<g transform="translate(1068 191) rotate(356) scale(174 9)"><rect fill="#7df4aa" fill-opacity="0.501961" x="-0.5" y="-0.5" width="1" height="1" /></g>
<g transform="translate(953 406) rotate(-61) scale(98 89)"><rect fill="#4ecc82" fill-opacity="0.501961" x="-0.5" y="-0.5" width="1" height="1" /></g>
<g transform="translate(714 384) rotate(242) scale(81 79)"><rect fill="#54e28a" fill-opacity="0.501961" x="-0.5" y="-0.5" width="1" height="1" /></g>
<g transform="translate(435 540) rotate(270) scale(8 102)"><rect fill="#6dffa5" fill-opacity="0.501961" x="-0.5" y="-0.5" width="1" height="1" /></g>
<g transform="translate(727 429) rotate(-23) scale(19 46)"><rect fill="#000001" fill-opacity="0.501961" x="-0.5" y="-0.5" width="1" height="1" /></g>
<g transform="translate(678 412) rotate(81) scale(34 30)"><rect fill="#00000b" fill-opacity="0.501961" x="-0.5" y="-0.5" width="1" height="1" /></g>
<g transform="translate(1036 465) rotate(255) scale(43 61)"><rect fill="#601346" fill-opacity="0.501961" x="-0.5" y="-0.5" width="1" height="1" /></g>
<g transform="translate(790 567) rotate(351) scale(28 51)"><rect fill="#d36b99" fill-opacity="0.501961" x="-0.5" y="-0.5" width="1" height="1" /></g>
<g transform="translate(1017 595) rotate(257) scale(148 140)"><rect fill="#000001" fill-opacity="0.501961" x="-0.5" y="-0.5" width="1" height="1" /></g>
<g transform="translate(1039 421) rotate(293) scale(21 76)"><rect fill="#4cc57b" fill-opacity="0.501961" x="-0.5" y="-0.5" width="1" height="1" /></g>
<g transform="translate(827 385) rotate(284) scale(8 91)"><rect fill="#ff78e3" fill-opacity="0.501961" x="-0.5" y="-0.5" width="1" height="1" /></g>
<g transform="translate(1037 389) rotate(381) scale(44 35)"><rect fill="#000003" fill-opacity="0.501961" x="-0.5" y="-0.5" width="1" height="1" /></g>
<g transform="translate(840 586) rotate(222) scale(48 28)"><rect fill="#000000" fill-opacity="0.501961" x="-0.5" y="-0.5" width="1" height="1" /></g>
<g transform="translate(965 330) rotate(231) scale(60 41)"><rect fill="#000419" fill-opacity="0.501961" x="-0.5" y="-0.5" width="1" height="1" /></g>
<g transform="translate(911 363) rotate(176) scale(14 52)"><rect fill="#000000" fill-opacity="0.501961" x="-0.5" y="-0.5" width="1" height="1" /></g>
<g transform="translate(947 488) rotate(71) scale(17 42)"><rect fill="#000000" fill-opacity="0.501961" x="-0.5" y="-0.5" width="1" height="1" /></g>
<g transform="translate(35 409) rotate(340) scale(154 225)"><rect fill="#000008" fill-opacity="0.501961" x="-0.5" y="-0.5" width="1" height="1" /></g>
<g transform="translate(648 392) rotate(58) scale(13 42)"><rect fill="#68ffa9" fill-opacity="0.501961" x="-0.5" y="-0.5" width="1" height="1" /></g>
<g transform="translate(1019 344) rotate(295) scale(56 20)"><rect fill="#51ce84" fill-opacity="0.501961" x="-0.5" y="-0.5" width="1" height="1" /></g>
<g transform="translate(353 76) rotate(96) scale(242 452)"><rect fill="#000514" fill-opacity="0.501961" x="-0.5" y="-0.5" width="1" height="1" /></g>
<g transform="translate(1132 304) rotate(86) scale(219 171)"><rect fill="#00000e" fill-opacity="0.501961" x="-0.5" y="-0.5" width="1" height="1" /></g>
<g transform="translate(501 541) rotate(181) scale(87 12)"><rect fill="#56d488" fill-opacity="0.501961" x="-0.5" y="-0.5" width="1" height="1" /></g>
<g transform="translate(1002 509) rotate(51) scale(39 17)"><rect fill="#52cb7d" fill-opacity="0.501961" x="-0.5" y="-0.5" width="1" height="1" /></g>
<g transform="translate(1152 562) rotate(257) scale(88 135)"><rect fill="#21542f" fill-opacity="0.501961" x="-0.5" y="-0.5" width="1" height="1" /></g>
<g transform="translate(143 525) rotate(177) scale(28 72)"><rect fill="#9f5f7f" fill-opacity="0.501961" x="-0.5" y="-0.5" width="1" height="1" /></g>
<g transform="translate(875 378) rotate(99) scale(23 34)"><rect fill="#000004" fill-opacity="0.501961" x="-0.5" y="-0.5" width="1" height="1" /></g>
<g transform="translate(942 503) rotate(256) scale(9 73)"><rect fill="#e241a1" fill-opacity="0.501961" x="-0.5" y="-0.5" width="1" height="1" /></g>
<g transform="translate(933 299) rotate(269) scale(10 79)"><rect fill="#69f99f" fill-opacity="0.501961" x="-0.5" y="-0.5" width="1" height="1" /></g>
<g transform="translate(24 130) rotate(288) scale(327 155)"><rect fill="#000106" fill-opacity="0.501961" x="-0.5" y="-0.5" width="1" height="1" /></g>
<g transform="translate(458 619) rotate(269) scale(145 190)"><rect fill="#00010e" fill-opacity="0.501961" x="-0.5" y="-0.5" width="1" height="1" /></g>
<g transform="translate(779 334) rotate(197) scale(38 20)"><rect fill="#00000b" fill-opacity="0.501961" x="-0.5" y="-0.5" width="1" height="1" /></g>
<g transform="translate(662 337) rotate(128) scale(15 52)"><rect fill="#63ffaa" fill-opacity="0.501961" x="-0.5" y="-0.5" width="1" height="1" /></g>
<g transform="translate(706 428) rotate(207) scale(10 59)"><rect fill="#6afda7" fill-opacity="0.501961" x="-0.5" y="-0.5" width="1" height="1" /></g>
<g transform="translate(357 522) rotate(89) scale(48 12)"><rect fill="#54cd82" fill-opacity="0.501961" x="-0.5" y="-0.5" width="1" height="1" /></g>
<g transform="translate(637 355) rotate(43) scale(55 42)"><rect fill="#000823" fill-opacity="0.501961" x="-0.5" y="-0.5" width="1" height="1" /></g>
<g transform="translate(905 587) rotate(289) scale(34 29)"><rect fill="#a36880" fill-opacity="0.501961" x="-0.5" y="-0.5" width="1" height="1" /></g>
<g transform="translate(661 594) rotate(88) scale(97 177)"><rect fill="#000110" fill-opacity="0.501961" x="-0.5" y="-0.5" width="1" height="1" /></g>
<g transform="translate(767 453) rotate(157) scale(7 82)"><rect fill="#00000a" fill-opacity="0.501961" x="-0.5" y="-0.5" width="1" height="1" /></g>
<g transform="translate(758 463) rotate(248) scale(131 10)"><rect fill="#ff84c6" fill-opacity="0.501961" x="-0.5" y="-0.5" width="1" height="1" /></g>
<g transform="translate(770 419) rotate(65) scale(40 8)"><rect fill="#63ffa0" fill-opacity="0.501961" x="-0.5" y="-0.5" width="1" height="1" /></g>
<g transform="translate(170 629) rotate(298) scale(141 86)"><rect fill="#000004" fill-opacity="0.501961" x="-0.5" y="-0.5" width="1" height="1" /></g>
<g transform="translate(67 619) rotate(21) scale(104 84)"><rect fill="#411727" fill-opacity="0.501961" x="-0.5" y="-0.5" width="1" height="1" /></g>
<g transform="translate(761 297) rotate(142) scale(54 8)"><rect fill="#6cffa7" fill-opacity="0.501961" x="-0.5" y="-0.5" width="1" height="1" /></g>
<g transform="translate(674 218) rotate(267) scale(9 101)"><rect fill="#7fffb4" fill-opacity="0.501961" x="-0.5" y="-0.5" width="1" height="1" /></g>
<g transform="translate(1023 469) rotate(83) scale(16 30)"><rect fill="#000000" fill-opacity="0.501961" x="-0.5" y="-0.5" width="1" height="1" /></g>
<g transform="translate(1193 183) rotate(86) scale(10 76)"><rect fill="#63c084" fill-opacity="0.501961" x="-0.5" y="-0.5" width="1" height="1" /></g>
<g transform="translate(770 351) rotate(192) scale(91 11)"><rect fill="#59f494" fill-opacity="0.501961" x="-0.5" y="-0.5" width="1" height="1" /></g>
<g transform="translate(677 273) rotate(360) scale(30 97)"><rect fill="#030f27" fill-opacity="0.501961" x="-0.5" y="-0.5" width="1" height="1" /></g>
<g transform="translate(1054 467) rotate(299) scale(11 83)"><rect fill="#ab7688" fill-opacity="0.501961" x="-0.5" y="-0.5" width="1" height="1" /></g>
<g transform="translate(399 340) rotate(121) scale(62 541)"><rect fill="#061227" fill-opacity="0.501961" x="-0.5" y="-0.5" width="1" height="1" /></g>
<g transform="translate(501 229) rotate(267) scale(10 88)"><rect fill="#7bffaf" fill-opacity="0.501961" x="-0.5" y="-0.5" width="1" height="1" /></g>
<g transform="translate(804 314) rotate(201) scale(67 74)"><rect fill="#051027" fill-opacity="0.501961" x="-0.5" y="-0.5" width="1" height="1" /></g>
<g transform="translate(374 541) rotate(3) scale(35 10)"><rect fill="#57d586" fill-opacity="0.501961" x="-0.5" y="-0.5" width="1" height="1" /></g>
<g transform="translate(898 368) rotate(-1) scale(9 142)"><rect fill="#5ee494" fill-opacity="0.501961" x="-0.5" y="-0.5" width="1" height="1" /></g>
<g transform="translate(926 342) rotate(261) scale(49 20)"><rect fill="#60e092" fill-opacity="0.501961" x="-0.5" y="-0.5" width="1" height="1" /></g>
<g transform="translate(13 547) rotate(128) scale(130 64)"><rect fill="#000002" fill-opacity="0.501961" x="-0.5" y="-0.5" width="1" height="1" /></g>
<g transform="translate(579 224) rotate(356) scale(126 9)"><rect fill="#7dffb3" fill-opacity="0.501961" x="-0.5" y="-0.5" width="1" height="1" /></g>
<g transform="translate(643 500) rotate(80) scale(4 64)"><rect fill="#51c685" fill-opacity="0.501961" x="-0.5" y="-0.5" width="1" height="1" /></g>
<g transform="translate(761 514) rotate(68) scale(83 17)"><rect fill="#000919" fill-opacity="0.501961" x="-0.5" y="-0.5" width="1" height="1" /></g>
<g transform="translate(908 321) rotate(175) scale(9 32)"><rect fill="#000000" fill-opacity="0.501961" x="-0.5" y="-0.5" width="1" height="1" /></g>
<g transform="translate(817 612) rotate(56) scale(106 32)"><rect fill="#975475" fill-opacity="0.501961" x="-0.5" y="-0.5" width="1" height="1" /></g>
<g transform="translate(399 236) rotate(86) scale(7 206)"><rect fill="#78ffaa" fill-opacity="0.501961" x="-0.5" y="-0.5" width="1" height="1" /></g>
<g transform="translate(868 408) rotate(197) scale(51 18)"><rect fill="#4dcc83" fill-opacity="0.501961" x="-0.5" y="-0.5" width="1" height="1" /></g>
<g transform="translate(924 618) rotate(208) scale(32 80)"><rect fill="#000000" fill-opacity="0.501961" x="-0.5" y="-0.5" width="1" height="1" /></g>
<g transform="translate(112 525) rotate(330) scale(94 30)"><rect fill="#85546c" fill-opacity="0.501961" x="-0.5" y="-0.5" width="1" height="1" /></g>
<g transform="translate(1031 481) rotate(163) scale(44 9)"><rect fill="#da78b3" fill-opacity="0.501961" x="-0.5" y="-0.5" width="1" height="1" /></g>
<g transform="translate(937 314) rotate(176) scale(25 18)"><rect fill="#000007" fill-opacity="0.501961" x="-0.5" y="-0.5" width="1" height="1" /></g>
<g transform="translate(897 575) rotate(269) scale(143 11)"><rect fill="#6a806d" fill-opacity="0.501961" x="-0.5" y="-0.5" width="1" height="1" /></g>
<g transform="translate(1020 315) rotate(233) scale(20 141)"><rect fill="#040c1c" fill-opacity="0.501961" x="-0.5" y="-0.5" width="1" height="1" /></g>
<g transform="translate(738 534) rotate(141) scale(4 59)"><rect fill="#47af75" fill-opacity="0.501961" x="-0.5" y="-0.5" width="1" height="1" /></g>
<g transform="translate(799 367) rotate(179) scale(21 9)"><rect fill="#000010" fill-opacity="0.501961" x="-0.5" y="-0.5" width="1" height="1" /></g>
<g transform="translate(788 210) rotate(177) scale(155 12)"><rect fill="#6df39e" fill-opacity="0.501961" x="-0.5" y="-0.5" width="1" height="1" /></g>
<g transform="translate(1102 470) rotate(261) scale(54 62)"><rect fill="#398e5e" fill-opacity="0.501961" x="-0.5" y="-0.5" width="1" height="1" /></g>
<g transform="translate(906 450) rotate(13) scale(10 27)"><rect fill="#000009" fill-opacity="0.501961" x="-0.5" y="-0.5" width="1" height="1" /></g>
<g transform="translate(705 350) rotate(69) scale(67 63)"><rect fill="#58e08f" fill-opacity="0.501961" x="-0.5" y="-0.5" width="1" height="1" /></g>
<g transform="translate(652 309) rotate(10) scale(74 19)"><rect fill="#051227" fill-opacity="0.501961" x="-0.5" y="-0.5" width="1" height="1" /></g>
<g transform="translate(783 400) rotate(79) scale(35 28)"><rect fill="#00061f" fill-opacity="0.501961" x="-0.5" y="-0.5" width="1" height="1" /></g>
<g transform="translate(755 320) rotate(24) scale(14 50)"><rect fill="#63f399" fill-opacity="0.501961" x="-0.5" y="-0.5" width="1" height="1" /></g>
<g transform="translate(566 563) rotate(23) scale(3 51)"><rect fill="#4bb978" fill-opacity="0.501961" x="-0.5" y="-0.5" width="1" height="1" /></g>
<g transform="translate(1110 0) rotate(29) scale(314 201)"><rect fill="#000305" fill-opacity="0.501961" x="-0.5" y="-0.5" width="1" height="1" /></g>
</g>
</svg>