<svg xmlns="http://www.w3.org/2000/svg" version="1.1" width="1200" height="630">
<rect x="0" y="0" width="1200" height="630" fill="#2b3640" />
<g transform="scale(1.000000) translate(0.5 0.5)">
<polygon fill="#ffedc0" fill-opacity="0.501961" points="862,281 1093,527 1176,267" />
<polygon fill="#9df4ff" fill-opacity="0.501961" points="558,548 563,282 855,180" />
<polygon fill="#ffffd0" fill-opacity="0.501961" points="409,455 238,322 446,307" />
<polygon fill="#8cb8d7" fill-opacity="0.501961" points="118,170 218,334 -16,440" />
<polygon fill="#a7dfff" fill-opacity="0.501961" points="760,50 711,210 875,119" />
<polygon fill="#000000" fill-opacity="0.501961" points="236,327 884,-16 -16,1" />
<polygon fill="#fff1b9" fill-opacity="0.501961" points="406,380 280,461 358,233" />
<polygon fill="#000006" fill-opacity="0.501961" points="1215,622 573,645 884,331" />
<polygon fill="#000000" fill-opacity="0.501961" points="983,150 1215,153 1215,346" />
<polygon fill="#000000" fill-opacity="0.501961" points="7,388 -1,645 190,636" />
<polygon fill="#7197b0" fill-opacity="0.501961" points="98,526 282,621 254,468" />
<polygon fill="#00000e" fill-opacity="0.501961" points="567,262 518,645 402,377" />
<polygon fill="#000000" fill-opacity="0.501961" points="8,348 -2,-16 231,-1" />
<polygon fill="#dfbba0" fill-opacity="0.501961" points="1215,398 914,252 953,428" />
<polygon fill="#000011" fill-opacity="0.501961" points="940,69 716,354 910,316" />
<polygon fill="#8ebbde" fill-opacity="0.501961" points="666,86 841,215 805,93" />
<polygon fill="#b9bab8" fill-opacity="0.501961" points="1000,282 1067,313 961,116" />
<polygon fill="#cbb492" fill-opacity="0.501961" points="809,605 793,484 720,391" />
<polygon fill="#887b6e" fill-opacity="0.501961" points="1168,304 973,591 1192,405" />
<polygon fill="#b08856" fill-opacity="0.501961" points="951,-12 830,-16 900,138" />
<polygon fill="#000001" fill-opacity="0.501961" points="252,645 361,398 489,631" />
<polygon fill="#000719" fill-opacity="0.501961" points="727,226 366,261 630,-16" />
<polygon fill="#ffeab9" fill-opacity="0.501961" points="927,325 847,320 775,357" />
<polygon fill="#021524" fill-opacity="0.501961" points="726,368 829,619 1143,490" />
<polygon fill="#f9c49a" fill-opacity="0.501961" points="393,379 174,323 481,318" />
<polygon fill="#86ace0" fill-opacity="0.501961" points="533,233 641,389 778,357" />
<polygon fill="#caac92" fill-opacity="0.501961" points="1093,237 1183,366 914,366" />
<polygon fill="#000004" fill-opacity="0.501961" points="-16,599 196,324 306,406" />
<polygon fill="#7397b1" fill-opacity="0.501961" points="45,427 161,396 170,197" />
<polygon fill="#e8bd93" fill-opacity="0.501961" points="449,548 372,407 396,328" />
<polygon fill="#00000b" fill-opacity="0.501961" points="853,220 957,124 1002,294" />
<polygon fill="#fff7c5" fill-opacity="0.501961" points="746,435 711,372 719,327" />
<polygon fill="#f6d7b4" fill-opacity="0.501961" points="957,397 965,484 944,469" />
<polygon fill="#000000" fill-opacity="0.501961" points="1215,509 940,624 1204,645" />
<polygon fill="#000514" fill-opacity="0.501961" points="566,543 821,645 708,364" />
<polygon fill="#fed299" fill-opacity="0.501961" points="555,229 435,305 503,286" />
<polygon fill="#c49d6b" fill-opacity="0.501961" points="857,52 774,69 837,4" />
<polygon fill="#326b98" fill-opacity="0.501961" points="476,609 603,645 642,542" />
<polygon fill="#79a3bd" fill-opacity="0.501961" points="1015,103 943,134 864,123" />
<polygon fill="#001021" fill-opacity="0.501961" points="396,327 563,225 253,-16" />
<polygon fill="#00030b" fill-opacity="0.501961" points="948,72 1050,-16 1045,275" />
<polygon fill="#285172" fill-opacity="0.501961" points="1007,543 1209,534 1211,369" />
<polygon fill="#001524" fill-opacity="0.501961" points="904,320 715,355 948,121" />
<polygon fill="#00040f" fill-opacity="0.501961" points="408,447 494,614 571,547" />
<polygon fill="#000004" fill-opacity="0.501961" points="247,487 295,591 348,417" />
<polygon fill="#ceb59f" fill-opacity="0.501961" points="375,399 228,486 383,314" />
<polygon fill="#6296d6" fill-opacity="0.501961" points="836,197 565,275 559,548" />
<polygon fill="#6c8faa" fill-opacity="0.501961" points="777,12 730,139 844,213" />
<polygon fill="#9f7a4c" fill-opacity="0.501961" points="949,-2 1030,73 931,48" />
<polygon fill="#000a17" fill-opacity="0.501961" points="181,-16 464,-7 186,343" />
<polygon fill="#ffeea4" fill-opacity="0.501961" points="708,361 770,364 811,338" />
<polygon fill="#3a6180" fill-opacity="0.501961" points="1056,40 1048,155 1215,145" />
<polygon fill="#000008" fill-opacity="0.501961" points="3,422 22,645 183,423" />
<polygon fill="#00000c" fill-opacity="0.501961" points="964,513 960,387 989,412" />
<polygon fill="#001224" fill-opacity="0.501961" points="546,251 465,298 562,576" />
<polygon fill="#00000b" fill-opacity="0.501961" points="923,138 817,127 839,190" />
<polygon fill="#c2a57b" fill-opacity="0.501961" points="152,393 230,468 202,420" />
<polygon fill="#00010e" fill-opacity="0.501961" points="1215,379 1206,152 1055,153" />
<polygon fill="#ffffbf" fill-opacity="0.501961" points="545,236 598,276 528,249" />
<polygon fill="#deba96" fill-opacity="0.501961" points="358,242 431,455 305,378" />
<polygon fill="#031223" fill-opacity="0.501961" points="727,369 917,328 797,542" />
<polygon fill="#eaceb2" fill-opacity="0.501961" points="1034,318 916,252 920,352" />
<polygon fill="#a08b75" fill-opacity="0.501961" points="1071,492 1183,409 1091,227" />
<polygon fill="#6086a4" fill-opacity="0.501961" points="1052,446 951,541 1015,507" />
<polygon fill="#567083" fill-opacity="0.501961" points="238,463 146,591 301,618" />
<polygon fill="#c4a57c" fill-opacity="0.501961" points="801,560 814,623 844,645" />
<polygon fill="#749ab5" fill-opacity="0.501961" points="138,194 185,255 166,380" />
<polygon fill="#a38c6c" fill-opacity="0.501961" points="360,555 299,553 413,526" />
<polygon fill="#5e7e93" fill-opacity="0.501961" points="22,421 49,308 -16,374" />
<polygon fill="#7295af" fill-opacity="0.501961" points="712,87 754,193 881,89" />
<polygon fill="#e5b984" fill-opacity="0.501961" points="453,540 460,583 492,614" />
<polygon fill="#000000" fill-opacity="0.501961" points="12,511 229,629 2,645" />
<polygon fill="#000000" fill-opacity="0.501961" points="1016,282 1025,266 1003,226" />
<polygon fill="#031321" fill-opacity="0.501961" points="738,139 590,277 445,-16" />
<polygon fill="#ecc69f" fill-opacity="0.501961" points="1003,272 967,158 1001,210" />
<polygon fill="#4c7696" fill-opacity="0.501961" points="1086,71 1014,84 961,130" />
<polygon fill="#00010b" fill-opacity="0.501961" points="4,346 76,275 8,25" />
<polygon fill="#f6d5ac" fill-opacity="0.501961" points="390,319 407,373 475,322" />
<polygon fill="#63859d" fill-opacity="0.501961" points="978,179 920,47 980,121" />
<polygon fill="#6a899e" fill-opacity="0.501961" points="107,175 207,339 78,245" />
<polygon fill="#010911" fill-opacity="0.501961" points="949,607 951,376 817,645" />
<polygon fill="#e9cda8" fill-opacity="0.501961" points="747,468 743,410 782,518" />
<polygon fill="#000c1c" fill-opacity="0.501961" points="152,381 244,469 316,368" />
<polygon fill="#c7b098" fill-opacity="0.501961" points="1007,445 1098,240 933,328" />
<polygon fill="#081625" fill-opacity="0.501961" points="326,319 182,317 419,-16" />
<polygon fill="#000d1b" fill-opacity="0.501961" points="752,86 552,90 782,-16" />
<polygon fill="#000000" fill-opacity="0.501961" points="820,87 867,43 879,86" />
<polygon fill="#557084" fill-opacity="0.501961" points="101,515 252,478 144,584" />
<polygon fill="#b3f1ff" fill-opacity="0.501961" points="760,180 746,222 760,208" />
<polygon fill="#a28863" fill-opacity="0.501961" points="911,640 988,567 960,614" />
<polygon fill="#000d17" fill-opacity="0.501961" points="-16,547 145,389 239,478" />
<polygon fill="#000813" fill-opacity="0.501961" points="-16,71 193,244 172,-16" />
<polygon fill="#000516" fill-opacity="0.501961" points="454,306 574,274 545,252" />
<polygon fill="#000004" fill-opacity="0.501961" points="1086,471 971,541 1042,466" />
<polygon fill="#a58b6a" fill-opacity="0.501961" points="1046,531 1004,547 1081,471" />
<polygon fill="#000000" fill-opacity="0.501961" points="967,6 1053,8 1032,82" />
<polygon fill="#04111a" fill-opacity="0.501961" points="1215,-1 1208,74 1058,-5" />
<polygon fill="#031626" fill-opacity="0.501961" points="433,467 406,376 499,303" />
<polygon fill="#000c18" fill-opacity="0.501961" points="975,124 1040,266 1169,191" />
<polygon fill="#001021" fill-opacity="0.501961" points="384,424 247,481 431,522" />
</g>
</svg>