<svg xmlns="http://www.w3.org/2000/svg" version="1.1" width="1200" height="630">
<rect x="0" y="0" width="1200" height="630" fill="#33464f" />
<g transform="scale(1.000000) translate(0.5 0.5)">
<polygon fill="#f7ffff" fill-opacity="0.501961" points="425,146 694,602 -16,348" />
<polygon fill="#000000" fill-opacity="0.501961" points="108,0 1215,-3 1191,645" />
<polygon fill="#b0faff" fill-opacity="0.501961" points="121,603 401,138 651,453" />
<polygon fill="#d1ddd9" fill-opacity="0.501961" points="-16,239 217,-16 172,410" />
<polygon fill="#000000" fill-opacity="0.501961" points="467,645 735,506 1215,625" />
<polygon fill="#aff1f8" fill-opacity="0.501961" points="689,367 497,645 452,442" />
<polygon fill="#000000" fill-opacity="0.501961" points="-16,372 221,449 12,645" />
<polygon fill="#000000" fill-opacity="0.501961" points="544,415 704,355 546,262" />
<polygon fill="#000000" fill-opacity="0.501961" points="442,171 207,83 209,210" />
<polygon fill="#9ae6ed" fill-opacity="0.501961" points="226,211 199,480 393,180" />
<polygon fill="#00000b" fill-opacity="0.501961" points="778,503 1215,610 797,272" />
<polygon fill="#888e8c" fill-opacity="0.501961" points="7,409 202,-16 -16,108" />
<polygon fill="#5dd3e9" fill-opacity="0.501961" points="660,221 778,293 875,283" />
<polygon fill="#60b5c9" fill-opacity="0.501961" points="702,232 568,233 445,157" />
<polygon fill="#000000" fill-opacity="0.501961" points="479,523 470,645 270,552" />
<polygon fill="#00000b" fill-opacity="0.501961" points="772,477 756,258 616,478" />
<polygon fill="#000000" fill-opacity="0.501961" points="-16,619 155,645 169,376" />
<polygon fill="#989e9d" fill-opacity="0.501961" points="292,317 117,607 307,645" />
<polygon fill="#000006" fill-opacity="0.501961" points="1215,626 742,645 605,473" />
<polygon fill="#000000" fill-opacity="0.501961" points="232,205 198,180 180,336" />
<polygon fill="#91c6d2" fill-opacity="0.501961" points="580,105 670,142 769,126" />
<polygon fill="#00030f" fill-opacity="0.501961" points="882,328 1200,-16 1200,645" />
<polygon fill="#8ec6cc" fill-opacity="0.501961" points="316,487 698,591 548,397" />
<polygon fill="#a3dce6" fill-opacity="0.501961" points="560,112 492,85 415,98" />
<polygon fill="#a5dfe9" fill-opacity="0.501961" points="820,121 884,150 744,132" />
<polygon fill="#00cdef" fill-opacity="0.501961" points="792,351 767,270 772,435" />
<polygon fill="#b5f5fe" fill-opacity="0.501961" points="557,327 413,172 455,486" />
<polygon fill="#9dafb2" fill-opacity="0.501961" points="170,99 -16,381 190,401" />
<polygon fill="#000006" fill-opacity="0.501961" points="1215,-16 476,10 1178,172" />
<polygon fill="#75d9e9" fill-opacity="0.501961" points="360,153 293,111 430,152" />
<polygon fill="#00061d" fill-opacity="0.501961" points="690,244 413,158 592,369" />
<polygon fill="#6e98a3" fill-opacity="0.501961" points="847,135 949,176 1065,156" />
<polygon fill="#000000" fill-opacity="0.501961" points="305,645 312,543 486,621" />
<polygon fill="#ccffff" fill-opacity="0.501961" points="682,369 605,488 596,396" />
<polygon fill="#6e9497" fill-opacity="0.501961" points="1033,163 1215,185 1127,149" />
<polygon fill="#00071b" fill-opacity="0.501961" points="1035,165 605,119 910,294" />
<polygon fill="#000005" fill-opacity="0.501961" points="-14,383 2,645 178,403" />
<polygon fill="#a2ffff" fill-opacity="0.501961" points="914,309 897,287 843,285" />
<polygon fill="#57d8e7" fill-opacity="0.501961" points="823,526 741,480 650,482" />
<polygon fill="#8abbc4" fill-opacity="0.501961" points="308,76 374,105 452,92" />
<polygon fill="#000615" fill-opacity="0.501961" points="386,84 523,-16 930,142" />
<polygon fill="#000008" fill-opacity="0.501961" points="784,626 566,551 501,645" />
<polygon fill="#c0ffff" fill-opacity="0.501961" points="630,112 576,120 527,99" />
<polygon fill="#000000" fill-opacity="0.501961" points="533,388 556,329 605,398" />
<polygon fill="#8ebbc1" fill-opacity="0.501961" points="85,316 298,548 523,507" />
<polygon fill="#00081e" fill-opacity="0.501961" points="640,300 712,249 845,289" />
<polygon fill="#000113" fill-opacity="0.501961" points="316,195 445,169 202,95" />
<polygon fill="#8ffcff" fill-opacity="0.501961" points="524,181 461,179 416,148" />
<polygon fill="#00f9ff" fill-opacity="0.501961" points="780,228 764,255 781,315" />
<polygon fill="#93c5cb" fill-opacity="0.501961" points="290,68 230,77 341,90" />
<polygon fill="#000009" fill-opacity="0.501961" points="627,0 166,-16 286,79" />
<polygon fill="#071828" fill-opacity="0.501961" points="1202,385 780,465 784,273" />
<polygon fill="#00d2ef" fill-opacity="0.501961" points="780,409 781,487 759,491" />
<polygon fill="#99ffff" fill-opacity="0.501961" points="705,246 658,216 611,217" />
<polygon fill="#00000d" fill-opacity="0.501961" points="209,78 208,136 428,99" />
<polygon fill="#879496" fill-opacity="0.501961" points="141,398 24,137 -16,380" />
<polygon fill="#000001" fill-opacity="0.501961" points="91,640 -16,625 211,451" />
<polygon fill="#575b5b" fill-opacity="0.501961" points="192,515 256,645 106,605" />
<polygon fill="#000811" fill-opacity="0.501961" points="1215,472 1080,574 723,490" />
<polygon fill="#000a12" fill-opacity="0.501961" points="1167,-16 768,124 1213,173" />
<polygon fill="#575d5c" fill-opacity="0.501961" points="149,-16 237,75 -16,104" />
<polygon fill="#93ffff" fill-opacity="0.501961" points="499,183 554,183 601,213" />
<polygon fill="#69c8d2" fill-opacity="0.501961" points="903,535 787,507 841,537" />
<polygon fill="#94cad0" fill-opacity="0.501961" points="392,181 164,402 228,210" />
<polygon fill="#000b1e" fill-opacity="0.501961" points="737,134 490,107 551,190" />
<polygon fill="#000011" fill-opacity="0.501961" points="203,146 181,335 218,245" />
<polygon fill="#acbcbf" fill-opacity="0.501961" points="170,407 202,146 94,260" />
<polygon fill="#081826" fill-opacity="0.501961" points="580,274 797,274 379,149" />
<polygon fill="#95c4c9" fill-opacity="0.501961" points="843,144 957,154 901,133" />
<polygon fill="#84acaf" fill-opacity="0.501961" points="610,508 475,508 483,639" />
<polygon fill="#96f6ff" fill-opacity="0.501961" points="731,237 764,264 674,234" />
<polygon fill="#000620" fill-opacity="0.501961" points="556,407 679,366 535,373" />
<polygon fill="#74ccd5" fill-opacity="0.501961" points="350,137 307,113 289,122" />
<polygon fill="#021425" fill-opacity="0.501961" points="769,264 624,463 712,487" />
<polygon fill="#a7e1e9" fill-opacity="0.501961" points="251,375 588,473 428,181" />
<polygon fill="#a0ffff" fill-opacity="0.501961" points="775,258 809,278 845,276" />
<polygon fill="#000514" fill-opacity="0.501961" points="313,545 485,645 461,524" />
<polygon fill="#8d9596" fill-opacity="0.501961" points="158,538 307,611 296,493" />
<polygon fill="#a9dfe4" fill-opacity="0.501961" points="794,132 746,137 708,118" />
<polygon fill="#99ffff" fill-opacity="0.501961" points="647,218 577,198 613,221" />
<polygon fill="#b1e8ec" fill-opacity="0.501961" points="727,131 689,114 649,121" />
<polygon fill="#88b3b6" fill-opacity="0.501961" points="986,149 1031,169 1082,162" />
<polygon fill="#00010a" fill-opacity="0.501961" points="971,185 1053,167 882,150" />
<polygon fill="#081726" fill-opacity="0.501961" points="618,475 769,269 769,477" />
<polygon fill="#251c14" fill-opacity="0.501961" points="135,-16 -16,62 -16,-16" />
<polygon fill="#091624" fill-opacity="0.501961" points="1156,503 782,268 780,505" />
<polygon fill="#89bcc2" fill-opacity="0.501961" points="692,587 542,550 604,471" />
<polygon fill="#011126" fill-opacity="0.501961" points="599,202 671,126 774,254" />
<polygon fill="#7cddee" fill-opacity="0.501961" points="858,297 910,297 809,266" />
<polygon fill="#000513" fill-opacity="0.501961" points="213,459 163,402 45,391" />
<polygon fill="#6c7879" fill-opacity="0.501961" points="-16,289 220,3 9,136" />
<polygon fill="#a8dbde" fill-opacity="0.501961" points="933,145 967,158 997,151" />
<polygon fill="#65c3c9" fill-opacity="0.501961" points="882,540 917,536 954,555" />
<polygon fill="#081825" fill-opacity="0.501961" points="1018,162 789,259 1090,349" />
<polygon fill="#b8f3fa" fill-opacity="0.501961" points="479,239 527,402 553,329" />
<polygon fill="#000006" fill-opacity="0.501961" points="307,567 437,631 310,633" />
<polygon fill="#7aebfb" fill-opacity="0.501961" points="424,150 412,159 461,169" />
<polygon fill="#94c5cc" fill-opacity="0.501961" points="191,313 622,493 368,535" />
<polygon fill="#00bad4" fill-opacity="0.501961" points="784,478 755,490 714,479" />
<polygon fill="#061320" fill-opacity="0.501961" points="866,-16 921,141 677,116" />
</g>
</svg>