<svg xmlns="http://www.w3.org/2000/svg" version="1.1" width="1200" height="630">
<rect x="0" y="0" width="1200" height="630" fill="#453c4a" />
<g transform="scale(1.000000) translate(0.5 0.5)">
<polygon fill="#ffffff" fill-opacity="0.501961" points="773.887257,257.697471,552.649196,358.262721,581.948340,529.297704,1028.876203,381.019528" />
<polygon fill="#ffe3f1" fill-opacity="0.501961" points="428.925131,323.285602,198.865526,288.832173,418.580428,42.836180,593.844663,217.102857" />
<polygon fill="#ffc2cc" fill-opacity="0.501961" points="510.070458,645.000000,388.076276,590.167685,390.712589,465.955374,582.442991,575.708389" />
<polygon fill="#000000" fill-opacity="0.501961" points="363.199750,241.023179,114.193889,-16.000000,361.243881,0.735582,364.408724,141.105148" />
<polygon fill="#000000" fill-opacity="0.501961" points="931.795519,645.000000,1215.000000,623.672631,1041.804479,409.118554,876.003510,370.981713" />
<polygon fill="#eaafb7" fill-opacity="0.501961" points="813.173067,106.584264,712.850504,93.681421,653.293831,-16.000000,891.901063,9.894977" />
<polygon fill="#00091f" fill-opacity="0.501961" points="740.696462,352.134217,808.233719,122.414025,454.843047,-16.000000,638.446006,294.876787" />
<polygon fill="#ffd7da" fill-opacity="0.501961" points="212.203747,83.598316,344.921785,222.121450,482.032191,311.250065,246.872192,304.412647" />
<polygon fill="#ffcde6" fill-opacity="0.501961" points="1017.578154,306.657240,564.044816,348.791003,557.082027,475.093015,484.772434,529.596331" />
<polygon fill="#000006" fill-opacity="0.501961" points="502.796488,645.000000,749.852785,467.196934,752.962347,400.962816,936.869700,645.000000" />
<polygon fill="#ffa5b9" fill-opacity="0.501961" points="539.080965,164.029235,622.060089,244.586489,373.067303,237.089731,361.725537,-9.583438" />
<polygon fill="#000c26" fill-opacity="0.501961" points="706.117699,247.866599,416.397263,242.367265,475.438583,301.928643,412.725625,477.832884" />
<polygon fill="#000009" fill-opacity="0.501961" points="0.351314,645.000000,-16.000000,259.626626,143.433771,256.651155,482.082519,392.532391" />
<polygon fill="#c56877" fill-opacity="0.501961" points="117.812280,556.244421,342.019084,645.000000,385.038875,591.300980,255.378765,503.398698" />
<polygon fill="#000007" fill-opacity="0.501961" points="854.979240,5.867285,1215.000000,-5.091226,1215.000000,20.554306,911.850707,342.860038" />
<polygon fill="#ffa1bb" fill-opacity="0.501961" points="738.691330,222.458316,909.844096,418.251757,841.633111,489.041108,775.318925,393.438777" />
<polygon fill="#000000" fill-opacity="0.501961" points="1005.951059,328.350464,1100.146133,233.713345,1215.000000,115.325330,1198.861139,645.000000" />
<polygon fill="#000011" fill-opacity="0.501961" points="573.776410,478.805722,625.804454,508.631855,752.220683,590.533316,493.213851,539.414379" />
<polygon fill="#ffd0e0" fill-opacity="0.501961" points="1130.991593,432.194546,977.687346,358.403012,717.626286,231.178258,867.728761,367.750617" />
<polygon fill="#ffcddf" fill-opacity="0.501961" points="757.730295,465.192547,645.397104,533.734661,569.799527,349.266265,658.770780,305.960660" />
<polygon fill="#cd576d" fill-opacity="0.501961" points="137.291819,182.930723,93.149822,206.326171,154.643652,30.508814,300.814270,170.997270" />
<polygon fill="#9f8586" fill-opacity="0.501961" points="1077.930736,118.969924,1138.291099,193.376340,1201.752715,124.043164,1121.745031,54.666367" />
<polygon fill="#000000" fill-opacity="0.501961" points="-16.000000,-1.930921,7.985402,443.299639,48.072362,96.754831,330.229089,-0.811797" />
<polygon fill="#fab1bd" fill-opacity="0.501961" points="517.573056,68.439968,413.451097,198.893129,578.396787,29.319006,603.005840,-16.000000" />
<polygon fill="#ebc7c9" fill-opacity="0.501961" points="1031.796249,303.728983,1004.558591,319.273476,1044.895683,252.532519,1146.088931,180.713184" />
<polygon fill="#f6cbd3" fill-opacity="0.501961" points="41.146906,230.102593,250.567624,234.409350,235.424165,246.700805,43.074049,243.037502" />
<polygon fill="#daafb5" fill-opacity="0.501961" points="846.446445,502.896273,862.121206,432.909031,899.569849,584.648194,896.968153,612.114317" />
<polygon fill="#000a1b" fill-opacity="0.501961" points="837.987253,359.910840,925.507896,426.033567,1173.155540,645.000000,1215.000000,457.046454" />
<polygon fill="#001325" fill-opacity="0.501961" points="732.373635,237.006699,793.103056,104.819681,1132.251203,-15.446856,955.650068,324.709607" />
<polygon fill="#ffc2db" fill-opacity="0.501961" points="385.374499,362.622106,422.182270,236.596319,451.835830,354.886173,416.280114,330.376207" />
<polygon fill="#04192d" fill-opacity="0.501961" points="345.737584,298.358586,394.031196,327.458201,382.535485,568.105477,-16.000000,392.252086" />
<polygon fill="#000000" fill-opacity="0.501961" points="366.793618,241.457794,373.583053,242.165990,406.419076,271.827241,415.693731,244.466155" />
<polygon fill="#000019" fill-opacity="0.501961" points="762.365163,290.474183,737.210794,349.712260,649.299562,299.412085,748.589442,269.025076" />
<polygon fill="#001329" fill-opacity="0.501961" points="561.099646,343.594427,552.752862,479.463654,478.202436,536.296699,394.274557,438.087057" />
<polygon fill="#000008" fill-opacity="0.501961" points="360.476115,-16.000000,480.158895,101.070843,515.080510,74.435829,568.977252,1.636741" />
<polygon fill="#000309" fill-opacity="0.501961" points="-14.751571,645.000000,-4.936671,335.665359,163.464348,512.990749,90.267229,635.911808" />
<polygon fill="#00021c" fill-opacity="0.501961" points="337.982080,211.343202,361.018717,242.732366,362.395022,79.828157,298.709407,179.752147" />
<polygon fill="#dba9b7" fill-opacity="0.501961" points="393.916946,491.042243,410.964036,458.636898,508.754791,566.936033,379.097305,543.188398" />
<polygon fill="#dca0ae" fill-opacity="0.501961" points="222.833143,278.367026,57.972639,117.733502,236.011271,308.268376,281.409464,304.653627" />
<polygon fill="#001229" fill-opacity="0.501961" points="747.020969,516.237540,859.818376,532.031782,820.451386,456.674820,754.041476,421.356012" />
<polygon fill="#00000c" fill-opacity="0.501961" points="235.032898,246.248137,238.043969,297.196911,188.710779,243.686141,180.708064,244.957001" />
<polygon fill="#ffd8e6" fill-opacity="0.501961" points="655.995200,305.804882,750.985676,360.542773,750.491545,462.978084,594.770386,336.791463" />
<polygon fill="#be8b94" fill-opacity="0.501961" points="77.317797,210.714882,32.017795,219.927243,61.635760,282.398264,121.320753,164.173344" />
<polygon fill="#000b21" fill-opacity="0.501961" points="446.957053,291.108366,481.235660,242.213673,558.706571,242.644424,467.364186,301.724501" />
<polygon fill="#000d1d" fill-opacity="0.501961" points="1088.202195,184.227267,1018.731011,293.830599,933.364234,323.378276,1088.928181,82.941122" />
<polygon fill="#000000" fill-opacity="0.501961" points="1215.000000,143.110568,1172.523349,75.087159,996.226708,-13.622370,1213.074823,-9.683398" />
<polygon fill="#000916" fill-opacity="0.501961" points="889.910112,544.679496,865.700509,440.723826,1215.000000,627.960610,1000.606707,645.000000" />
<polygon fill="#d49fab" fill-opacity="0.501961" points="1010.781155,308.153319,1124.106268,126.416891,1113.473792,167.895303,1022.998206,310.919542" />
<polygon fill="#081b2c" fill-opacity="0.501961" points="492.862227,119.665249,648.977086,1.617634,662.579033,-16.000000,755.756751,301.805013" />
<polygon fill="#000009" fill-opacity="0.501961" points="834.754474,451.048377,855.833443,455.908136,878.108915,542.018420,834.307765,448.905728" />
<polygon fill="#ffb5ca" fill-opacity="0.501961" points="618.659017,240.926052,608.996044,243.372910,377.376845,240.273341,522.120728,152.745901" />
<polygon fill="#fcdbe9" fill-opacity="0.501961" points="729.192170,232.332097,842.773948,290.449202,800.157101,363.608797,724.378206,218.243044" />
<polygon fill="#e9cfcd" fill-opacity="0.501961" points="238.544963,174.855002,235.032733,302.634919,430.496723,305.808128,300.509603,179.617185" />
<polygon fill="#001226" fill-opacity="0.501961" points="1215.000000,474.423035,1198.168902,257.167425,936.334608,335.896076,1010.599899,374.124754" />
<polygon fill="#001220" fill-opacity="0.501961" points="676.593709,535.339873,1028.411340,632.842953,579.483759,643.265424,575.207809,484.587691" />
<polygon fill="#132033" fill-opacity="0.501961" points="488.215272,365.503080,54.479227,277.304128,382.828227,595.840467,381.236700,507.251414" />
<polygon fill="#000000" fill-opacity="0.501961" points="88.394153,98.713324,116.046795,178.462008,116.774347,-16.000000,-16.000000,8.378526" />
<polygon fill="#c6a7ab" fill-opacity="0.501961" points="661.510358,-16.000000,604.785135,34.106734,579.295747,24.193628,555.612076,-13.468643" />
<polygon fill="#ffb4c8" fill-opacity="0.501961" points="396.854540,285.785514,477.639654,250.877539,391.400867,356.685780,391.504587,363.474218" />
<polygon fill="#000000" fill-opacity="0.501961" points="1057.751931,257.464556,1129.984239,183.683195,1147.723732,166.522120,1119.689758,164.874160" />
<polygon fill="#b08893" fill-opacity="0.501961" points="837.630857,92.395238,725.200163,95.734622,883.522376,-12.783729,879.298178,35.864386" />
<polygon fill="#934f5e" fill-opacity="0.501961" points="114.978277,91.285322,132.175604,206.139919,253.157864,124.442434,122.118611,-2.619580" />
<polygon fill="#f06b89" fill-opacity="0.501961" points="650.908140,431.305559,604.571071,459.713119,616.447748,376.990077,664.535422,365.479407" />
<polygon fill="#ef88a1" fill-opacity="0.501961" points="760.536587,421.460641,857.201179,456.001201,916.303046,417.677373,746.875492,315.562226" />
<polygon fill="#a2727e" fill-opacity="0.501961" points="364.270653,147.254612,363.320289,61.392534,384.324661,10.622869,500.760887,123.307379" />
<polygon fill="#b5717e" fill-opacity="0.501961" points="894.005867,604.846791,950.573349,595.471411,941.754159,591.807336,899.029787,554.040585" />
<polygon fill="#b56c7e" fill-opacity="0.501961" points="361.206544,571.372646,303.477644,524.019797,229.454272,513.985095,161.794862,532.511319" />
<polygon fill="#9e7983" fill-opacity="0.501961" points="462.526930,645.000000,380.484261,583.613034,591.027742,550.156857,551.401436,617.114602" />
<polygon fill="#000a15" fill-opacity="0.501961" points="-11.182770,123.271430,-16.000000,227.716389,83.829496,201.090118,110.768323,173.887483" />
<polygon fill="#95505b" fill-opacity="0.501961" points="96.951484,109.015326,59.705158,80.744233,24.008430,110.389512,62.466156,180.440967" />
<polygon fill="#f0c0ce" fill-opacity="0.501961" points="744.123091,475.078683,559.016536,373.020595,560.210210,471.332600,651.467460,524.053357" />
<polygon fill="#83484e" fill-opacity="0.501961" points="1121.060431,105.488172,1112.151735,53.846909,994.139973,-16.000000,1051.418674,39.312340" />
<polygon fill="#edc2c9" fill-opacity="0.501961" points="1006.885042,316.178203,1027.771954,292.656292,1048.881995,287.433704,820.009421,359.893282" />
<polygon fill="#000012" fill-opacity="0.501961" points="235.504281,171.454039,237.304142,178.629418,141.075773,178.270253,235.699734,204.558274" />
<polygon fill="#e77f93" fill-opacity="0.501961" points="281.802654,221.634444,189.692843,204.023387,119.611911,178.058433,208.131643,196.213916" />
<polygon fill="#020b15" fill-opacity="0.501961" points="431.246221,632.782099,391.079388,637.535744,374.907457,602.964836,298.990149,453.802973" />
<polygon fill="#000516" fill-opacity="0.501961" points="175.534597,197.846093,136.636995,188.400537,176.462936,233.943797,241.213207,217.114148" />
<polygon fill="#00000d" fill-opacity="0.501961" points="161.075887,228.545790,116.514161,187.456750,88.689374,229.756171,156.205191,231.811184" />
<polygon fill="#041526" fill-opacity="0.501961" points="230.611079,299.793923,176.712577,245.108025,106.942039,242.213378,-16.000000,402.395907" />
<polygon fill="#763c45" fill-opacity="0.501961" points="97.707517,622.821441,126.777528,562.619473,187.863804,558.617881,435.722692,645.000000" />
<polygon fill="#c297a4" fill-opacity="0.501961" points="789.456767,105.897854,848.209402,76.511223,673.030640,41.479743,735.621580,99.710700" />
<polygon fill="#021324" fill-opacity="0.501961" points="350.146615,220.586476,368.554082,-14.912585,131.621951,-6.548126,216.171650,91.052556" />
<polygon fill="#ad8790" fill-opacity="0.501961" points="52.984169,252.576578,100.734999,259.372131,66.987864,223.975353,63.579150,113.174459" />
<polygon fill="#111c2e" fill-opacity="0.501961" points="918.203942,328.322979,678.899795,201.789667,896.253862,40.134480,1016.474108,-6.629342" />
<polygon fill="#ddaab8" fill-opacity="0.501961" points="882.277486,574.175368,831.006957,475.381678,816.428439,419.392745,851.978187,487.209035" />
<polygon fill="#ffb7cf" fill-opacity="0.501961" points="412.645986,317.467330,486.156244,309.743022,435.703517,284.723595,449.196979,355.716546" />
<polygon fill="#000014" fill-opacity="0.501961" points="427.928728,244.405783,430.205549,269.966508,485.418373,246.127160,497.853543,243.010831" />
<polygon fill="#1e2c41" fill-opacity="0.501961" points="592.405365,255.922132,736.308599,150.451446,741.753876,354.256004,720.833383,344.174040" />
<polygon fill="#fed6e4" fill-opacity="0.501961" points="558.560387,432.246127,563.961780,487.675452,648.349586,307.409824,561.481125,358.448953" />
<polygon fill="#c18d9a" fill-opacity="0.501961" points="371.687117,595.425137,438.251831,575.265952,567.612434,484.472385,361.209195,595.488024" />
<polygon fill="#19263a" fill-opacity="0.501961" points="450.699139,361.547536,421.257377,323.614896,289.325140,461.874707,567.444580,474.014213" />
<polygon fill="#0d1724" fill-opacity="0.501961" points="24.866105,581.940014,218.121926,515.375818,379.004978,519.891692,-16.000000,228.226841" />
<polygon fill="#b05d74" fill-opacity="0.501961" points="266.238631,179.194662,100.558489,177.421884,209.749384,100.961338,308.490051,178.687254" />
<polygon fill="#182132" fill-opacity="0.501961" points="399.049129,311.373405,396.520746,312.240314,45.600471,299.552199,343.964339,552.686121" />
<polygon fill="#c69aa7" fill-opacity="0.501961" points="565.785394,595.008242,583.600861,558.794441,542.105144,548.438830,467.944031,538.778361" />
<polygon fill="#162031" fill-opacity="0.501961" points="917.324752,327.847243,1015.926534,296.586802,1109.978993,151.733129,681.827619,92.174853" />
<polygon fill="#000107" fill-opacity="0.501961" points="42.366331,88.899638,126.473690,-10.801216,-13.955350,-16.000000,-16.000000,198.693271" />
<polygon fill="#121f31" fill-opacity="0.501961" points="885.227602,374.020528,847.139503,364.239953,1045.398402,520.957767,1131.645962,431.893364" />
<polygon fill="#7d6168" fill-opacity="0.501961" points="862.562884,62.108181,814.553076,39.877316,668.737681,-3.976332,887.540770,-0.749528" />
<polygon fill="#131f31" fill-opacity="0.501961" points="772.991900,430.896555,749.894693,405.869147,763.890978,633.407569,826.994127,462.847732" />
</g>
</svg>