<svg xmlns="http://www.w3.org/2000/svg" version="1.1" width="1200" height="630">
<rect x="0" y="0" width="1200" height="630" fill="#4f4751" />
<g transform="scale(1.000000) translate(0.5 0.5)">
<rect fill="#fff2ff" fill-opacity="0.501961" x="548" y="80" width="347" height="306" />
<rect fill="#fff0fe" fill-opacity="0.501961" x="164" y="166" width="297" height="303" />
<rect fill="#ffe0f2" fill-opacity="0.501961" x="363" y="422" width="284" height="150" />
<rect fill="#000000" fill-opacity="0.501961" x="703" y="401" width="497" height="229" />
<rect fill="#000000" fill-opacity="0.501961" x="0" y="452" width="362" height="178" />
<rect fill="#ffafc8" fill-opacity="0.501961" x="642" y="57" width="141" height="386" />
<rect fill="#000000" fill-opacity="0.501961" x="591" y="510" width="609" height="120" />
<rect fill="#000000" fill-opacity="0.501961" x="459" y="350" width="152" height="70" />
<rect fill="#000000" fill-opacity="0.501961" x="940" y="0" width="260" height="630" />
<rect fill="#ffc4d5" fill-opacity="0.501961" x="391" y="423" width="295" height="66" />
<rect fill="#000000" fill-opacity="0.501961" x="0" y="0" width="503" height="147" />
<rect fill="#fb8ca6" fill-opacity="0.501961" x="247" y="120" width="118" height="139" />
<rect fill="#ffacc4" fill-opacity="0.501961" x="550" y="138" width="336" height="223" />
<rect fill="#ffa4c1" fill-opacity="0.501961" x="366" y="196" width="129" height="72" />
<rect fill="#d3cfd5" fill-opacity="0.501961" x="131" y="194" width="33" height="212" />
<rect fill="#d89aa6" fill-opacity="0.501961" x="362" y="423" width="178" height="207" />
<rect fill="#000000" fill-opacity="0.501961" x="0" y="406" width="171" height="224" />
<rect fill="#00020f" fill-opacity="0.501961" x="978" y="0" width="222" height="630" />
<rect fill="#8dd4d1" fill-opacity="0.501961" x="270" y="278" width="47" height="229" />
<rect fill="#000000" fill-opacity="0.501961" x="0" y="0" width="130" height="388" />
<rect fill="#155145" fill-opacity="0.501961" x="814" y="0" width="166" height="122" />
<rect fill="#000011" fill-opacity="0.501961" x="463" y="257" width="86" height="125" />
<rect fill="#ffb9c9" fill-opacity="0.501961" x="523" y="44" width="44" height="98" />
<rect fill="#000006" fill-opacity="0.501961" x="0" y="0" width="203" height="184" />
<rect fill="#00000a" fill-opacity="0.501961" x="416" y="101" width="114" height="82" />
<rect fill="#00111f" fill-opacity="0.501961" x="734" y="416" width="408" height="214" />
<rect fill="#000010" fill-opacity="0.501961" x="896" y="270" width="82" height="107" />
<rect fill="#000013" fill-opacity="0.501961" x="425" y="397" width="249" height="24" />
<rect fill="#7ac7c1" fill-opacity="0.501961" x="90" y="366" width="298" height="41" />
<rect fill="#8bc8c9" fill-opacity="0.501961" x="161" y="452" width="38" height="54" />
<rect fill="#000211" fill-opacity="0.501961" x="327" y="0" width="163" height="134" />
<rect fill="#000000" fill-opacity="0.501961" x="543" y="0" width="73" height="52" />
<rect fill="#ffbdd0" fill-opacity="0.501961" x="681" y="258" width="73" height="169" />
<rect fill="#ff99b3" fill-opacity="0.501961" x="353" y="177" width="107" height="209" />
<rect fill="#f0b4c3" fill-opacity="0.501961" x="480" y="423" width="146" height="114" />
<rect fill="#000000" fill-opacity="0.501961" x="814" y="374" width="56" height="38" />
<rect fill="#3e837a" fill-opacity="0.501961" x="893" y="79" width="87" height="155" />
<rect fill="#001529" fill-opacity="0.501961" x="462" y="343" width="121" height="76" />
<rect fill="#00000a" fill-opacity="0.501961" x="573" y="553" width="137" height="77" />
<rect fill="#00040e" fill-opacity="0.501961" x="0" y="0" width="96" height="630" />
<rect fill="#010f1c" fill-opacity="0.501961" x="669" y="468" width="271" height="162" />
<rect fill="#c88495" fill-opacity="0.501961" x="216" y="140" width="164" height="72" />
<rect fill="#000005" fill-opacity="0.501961" x="181" y="489" width="112" height="141" />
<rect fill="#9edfe0" fill-opacity="0.501961" x="107" y="253" width="24" height="33" />
<rect fill="#00000b" fill-opacity="0.501961" x="483" y="162" width="61" height="48" />
<rect fill="#255e55" fill-opacity="0.501961" x="587" y="21" width="82" height="77" />
<rect fill="#00091a" fill-opacity="0.501961" x="509" y="179" width="38" height="171" />
<rect fill="#feb2c5" fill-opacity="0.501961" x="632" y="230" width="172" height="164" />
<rect fill="#ffc0da" fill-opacity="0.501961" x="459" y="213" width="45" height="33" />
<rect fill="#cf9eaa" fill-opacity="0.501961" x="509" y="28" width="40" height="59" />
<rect fill="#ffb8ce" fill-opacity="0.501961" x="567" y="176" width="79" height="178" />
<rect fill="#00000c" fill-opacity="0.501961" x="880" y="338" width="67" height="22" />
<rect fill="#ce8898" fill-opacity="0.501961" x="540" y="92" width="309" height="86" />
<rect fill="#ffcddd" fill-opacity="0.501961" x="623" y="423" width="77" height="37" />
<rect fill="#ca6177" fill-opacity="0.501961" x="152" y="177" width="63" height="97" />
<rect fill="#ffd2e5" fill-opacity="0.501961" x="887" y="375" width="28" height="23" />
<rect fill="#b08692" fill-opacity="0.501961" x="364" y="519" width="204" height="75" />
<rect fill="#000000" fill-opacity="0.501961" x="528" y="605" width="63" height="25" />
<rect fill="#001021" fill-opacity="0.501961" x="548" y="376" width="88" height="44" />
<rect fill="#db96aa" fill-opacity="0.501961" x="275" y="111" width="43" height="37" />
<rect fill="#ff7b98" fill-opacity="0.501961" x="304" y="409" width="41" height="55" />
<rect fill="#6bb5af" fill-opacity="0.501961" x="171" y="280" width="101" height="180" />
<rect fill="#001221" fill-opacity="0.501961" x="444" y="65" width="70" height="121" />
<rect fill="#7ea0a2" fill-opacity="0.501961" x="66" y="381" width="159" height="24" />
<rect fill="#000c17" fill-opacity="0.501961" x="614" y="526" width="90" height="104" />
<rect fill="#e8b6ca" fill-opacity="0.501961" x="909" y="393" width="27" height="19" />
<rect fill="#0a1622" fill-opacity="0.501961" x="749" y="411" width="334" height="142" />
<rect fill="#ffadc4" fill-opacity="0.501961" x="459" y="192" width="18" height="79" />
<rect fill="#b5828e" fill-opacity="0.501961" x="690" y="43" width="64" height="82" />
<rect fill="#c695a1" fill-opacity="0.501961" x="495" y="0" width="20" height="41" />
<rect fill="#00131f" fill-opacity="0.501961" x="924" y="251" width="276" height="150" />
<rect fill="#ffbed2" fill-opacity="0.501961" x="662" y="384" width="112" height="22" />
<rect fill="#00040e" fill-opacity="0.501961" x="96" y="0" width="317" height="108" />
<rect fill="#cea0ad" fill-opacity="0.501961" x="521" y="68" width="63" height="52" />
<rect fill="#7eabae" fill-opacity="0.501961" x="156" y="497" width="15" height="30" />
<rect fill="#ffa3bb" fill-opacity="0.501961" x="390" y="268" width="55" height="137" />
<rect fill="#000814" fill-opacity="0.501961" x="220" y="450" width="30" height="180" />
<rect fill="#000006" fill-opacity="0.501961" x="530" y="0" width="79" height="34" />
<rect fill="#000914" fill-opacity="0.501961" x="0" y="410" width="173" height="52" />
<rect fill="#000000" fill-opacity="0.501961" x="417" y="410" width="45" height="12" />
<rect fill="#000c1d" fill-opacity="0.501961" x="712" y="434" width="74" height="34" />
<rect fill="#00010c" fill-opacity="0.501961" x="638" y="411" width="52" height="11" />
<rect fill="#7ec0bd" fill-opacity="0.501961" x="221" y="200" width="39" height="170" />
<rect fill="#ce9eac" fill-opacity="0.501961" x="451" y="475" width="151" height="83" />
<rect fill="#00000f" fill-opacity="0.501961" x="330" y="459" width="30" height="171" />
<rect fill="#98b3b9" fill-opacity="0.501961" x="298" y="455" width="18" height="65" />
<rect fill="#ffb6cb" fill-opacity="0.501961" x="597" y="252" width="87" height="117" />
<rect fill="#000c12" fill-opacity="0.501961" x="57" y="0" width="206" height="131" />
<rect fill="#000f1a" fill-opacity="0.501961" x="964" y="184" width="236" height="67" />
<rect fill="#c88093" fill-opacity="0.501961" x="191" y="157" width="203" height="28" />
<rect fill="#eab5c5" fill-opacity="0.501961" x="461" y="425" width="216" height="53" />
<rect fill="#000205" fill-opacity="0.501961" x="971" y="0" width="229" height="107" />
<rect fill="#031521" fill-opacity="0.501961" x="393" y="51" width="114" height="116" />
<rect fill="#dbacbe" fill-opacity="0.501961" x="932" y="408" width="17" height="14" />
<rect fill="#2c514b" fill-opacity="0.501961" x="766" y="0" width="180" height="96" />
<rect fill="#c18696" fill-opacity="0.501961" x="638" y="72" width="167" height="56" />
<rect fill="#365654" fill-opacity="0.501961" x="872" y="61" width="112" height="74" />
<rect fill="#0a1c2a" fill-opacity="0.501961" x="463" y="341" width="109" height="79" />
<rect fill="#438b80" fill-opacity="0.501961" x="895" y="193" width="36" height="86" />
<rect fill="#20544f" fill-opacity="0.501961" x="585" y="50" width="27" height="59" />
</g>
</svg>