<svg xmlns="http://www.w3.org/2000/svg" version="1.1" width="1200" height="630">
<rect x="0" y="0" width="1200" height="630" fill="#3c4546" />
<g transform="scale(1.000000) translate(0.5 0.5)">
<g transform="translate(723.819090 289.878673) rotate(182.595596) scale(161.628136 184.467540)"><ellipse fill="#ffffff" fill-opacity="0.501961" cx="0" cy="0" rx="1" ry="1" /></g>
<polygon fill="#d7ffff" fill-opacity="0.501961" points="84,83 548,135 419,288" />
<g transform="translate(719.765958 304.846671) rotate(-7.562721) scale(161.855104 155.533683)"><ellipse fill="#ffffad" fill-opacity="0.501961" cx="0" cy="0" rx="1" ry="1" /></g>
<ellipse fill="#d4c69b" fill-opacity="0.501961" cx="267" cy="581" rx="144" ry="72" />
<g transform="translate(1065.795450 192.059863) rotate(239.166028) scale(451.429889 194.707661)"><ellipse fill="#000000" fill-opacity="0.501961" cx="0" cy="0" rx="1" ry="1" /></g>
<g transform="translate(785.459999 557.653337) rotate(172.981603) scale(340.508761 104.467719)"><ellipse fill="#000000" fill-opacity="0.501961" cx="0" cy="0" rx="1" ry="1" /></g>
<polygon fill="#000006" fill-opacity="0.501961" points="542,563 69,470 560,203" />
<g transform="translate(327.512681 268.178074) rotate(228.421312) scale(32.764497 150.465985)"><ellipse fill="#83c5ff" fill-opacity="0.501961" cx="0" cy="0" rx="1" ry="1" /></g>
<ellipse fill="#7dd4f3" fill-opacity="0.501961" cx="725" cy="103" rx="85" ry="56" />
<g transform="translate(41.576147 407.020904) rotate(184.615943) scale(48.726156 112.251299)"><ellipse fill="#ca9019" fill-opacity="0.501961" cx="0" cy="0" rx="1" ry="1" /></g>
<g transform="translate(41.025971 582.969313) rotate(225.856914) scale(60.911769 211.056312)"><ellipse fill="#000000" fill-opacity="0.501961" cx="0" cy="0" rx="1" ry="1" /></g>
<g transform="translate(538.137095 26.269689) rotate(348.521510) scale(237.945994 80.457097)"><ellipse fill="#000000" fill-opacity="0.501961" cx="0" cy="0" rx="1" ry="1" /></g>
<g transform="translate(125.187157 116.762357) rotate(63.338472) scale(57.216072 194.035639)"><ellipse fill="#698b99" fill-opacity="0.501961" cx="0" cy="0" rx="1" ry="1" /></g>
<rect fill="#fff8b3" fill-opacity="0.501961" x="550" y="277" width="315" height="88" />
<g transform="translate(935.694707 405.649998) rotate(178.966249) scale(72.835633 114.403609)"><ellipse fill="#000011" fill-opacity="0.501961" cx="0" cy="0" rx="1" ry="1" /></g>
<polygon fill="#ffc235" fill-opacity="0.501961" points="198,415 73,455 88,384" />
<ellipse fill="#00000c" fill-opacity="0.501961" cx="148" cy="319" rx="79" ry="79" />
<g transform="translate(166.852358 220.271102) rotate(262.940296) scale(34.501483 115.623790)"><ellipse fill="#000000" fill-opacity="0.501961" cx="0" cy="0" rx="1" ry="1" /></g>
<g transform="translate(559.696271 211.389353) rotate(287.223218) scale(181.439812 27.191152)"><ellipse fill="#000014" fill-opacity="0.501961" cx="0" cy="0" rx="1" ry="1" /></g>
<g transform="translate(596.660908 466.491018) rotate(54.341501) scale(161.096137 42.517408)"><ellipse fill="#000018" fill-opacity="0.501961" cx="0" cy="0" rx="1" ry="1" /></g>
<ellipse fill="#00081f" fill-opacity="0.501961" cx="1158" cy="451" rx="304" ry="304" />
<g transform="translate(1084.449410 550.075477) rotate(168.730420) scale(44.338518 54.978308)"><ellipse fill="#4265a4" fill-opacity="0.501961" cx="0" cy="0" rx="1" ry="1" /></g>
<g transform="translate(410.317579 609.171102) rotate(395.809212) scale(61.949120 32.106964)"><ellipse fill="#c5bc98" fill-opacity="0.501961" cx="0" cy="0" rx="1" ry="1" /></g>
<g transform="translate(1017.197579 51.725868) rotate(290.328584) scale(127.431839 314.667996)"><ellipse fill="#000008" fill-opacity="0.501961" cx="0" cy="0" rx="1" ry="1" /></g>
<polygon fill="#ffe4a6" fill-opacity="0.501961" points="593,164 832,461 906,257" />
<g transform="translate(196.797115 264.756883) rotate(336.304311) scale(119.527688 5.918140)"><ellipse fill="#ffffdf" fill-opacity="0.501961" cx="0" cy="0" rx="1" ry="1" /></g>
<rect fill="#c3f8ff" fill-opacity="0.501961" x="534" y="0" width="10" height="180" />
<polygon fill="#000000" fill-opacity="0.501961" points="186,142 1,337 0,255" />
<ellipse fill="#ffefa8" fill-opacity="0.501961" cx="680" cy="432" rx="42" ry="42" />
<polygon fill="#aad7e6" fill-opacity="0.501961" points="421,294 281,189 541,113" />
<polygon fill="#66a7c3" fill-opacity="0.501961" points="843,133 702,31 603,154" />
<g transform="translate(61.491091 509.116035) rotate(249.564749) scale(66.118660 21.109111)"><ellipse fill="#a17c2c" fill-opacity="0.501961" cx="0" cy="0" rx="1" ry="1" /></g>
<g transform="translate(71.363151 296.160518) rotate(104.553398) scale(35.052248 12.838020)"><ellipse fill="#f8bd3b" fill-opacity="0.501961" cx="0" cy="0" rx="1" ry="1" /></g>
<g transform="translate(333.923004 17.935072) rotate(54.195897) scale(124.083457 39.871901)"><ellipse fill="#00000a" fill-opacity="0.501961" cx="0" cy="0" rx="1" ry="1" /></g>
<polygon fill="#00081b" fill-opacity="0.501961" points="803,645 673,474 955,419" />
<g transform="translate(197.351062 613.581377) rotate(110.694329) scale(39.228185 87.737092)"><ellipse fill="#514e40" fill-opacity="0.501961" cx="0" cy="0" rx="1" ry="1" /></g>
<polygon fill="#00081e" fill-opacity="0.501961" points="574,645 167,429 390,266" />
<g transform="translate(313.859639 540.076169) rotate(377.105627) scale(89.720681 23.125356)"><ellipse fill="#cac5a6" fill-opacity="0.501961" cx="0" cy="0" rx="1" ry="1" /></g>
<ellipse fill="#578aff" fill-opacity="0.501961" cx="322" cy="268" rx="41" ry="41" />
<polygon fill="#000011" fill-opacity="0.501961" points="215.699759,353.134388,96.281289,290.240758,66.752040,376.080723,100.391518,392.140994" />
<ellipse fill="#fff5b7" fill-opacity="0.501961" cx="627" cy="324" rx="74" ry="74" />
<polygon fill="#5080ef" fill-opacity="0.501961" points="327,310 162,423 295,241" />
<polygon fill="#000d20" fill-opacity="0.501961" points="980,359 835,191 906,-16" />
<g transform="translate(41.462013 201.745990) rotate(149.023965) scale(182.913770 23.805223)"><ellipse fill="#718d97" fill-opacity="0.501961" cx="0" cy="0" rx="1" ry="1" /></g>
<ellipse fill="#000000" fill-opacity="0.501961" cx="40" cy="620" rx="69" ry="69" />
<polygon fill="#ffebb1" fill-opacity="0.501961" points="630.978316,112.892397,545.067943,331.248898,544.721340,338.849518,665.692152,478.746775" />
<g transform="translate(243.588484 275.406343) rotate(229.910470) scale(20.109183 47.305354)"><ellipse fill="#000009" fill-opacity="0.501961" cx="0" cy="0" rx="1" ry="1" /></g>
<polygon fill="#94bcca" fill-opacity="0.501961" points="424.216445,292.804638,245.995118,184.872365,164.154259,182.401552,477.702811,125.973439" />
<g transform="translate(741 177) rotate(-9) scale(115 71)"><rect fill="#fbd390" fill-opacity="0.501961" x="-0.5" y="-0.5" width="1" height="1" /></g>
<polygon fill="#00021a" fill-opacity="0.501961" points="597,187 418,298 505,186" />
<ellipse fill="#ffe3a7" fill-opacity="0.501961" cx="717" cy="410" rx="55" ry="55" />
<ellipse fill="#4e6269" fill-opacity="0.501961" cx="150" cy="76" rx="61" ry="61" />
<ellipse fill="#000c17" fill-opacity="0.501961" cx="847" cy="624" rx="182" ry="182" />
<g transform="translate(606.684058 125.991619) rotate(113.331088) scale(117.292310 16.844156)"><ellipse fill="#000617" fill-opacity="0.501961" cx="0" cy="0" rx="1" ry="1" /></g>
<ellipse fill="#001121" fill-opacity="0.501961" cx="565" cy="494" rx="87" ry="87" />
<g transform="translate(704.655833 15.472348) rotate(355.928614) scale(162.610489 26.618070)"><ellipse fill="#000211" fill-opacity="0.501961" cx="0" cy="0" rx="1" ry="1" /></g>
<ellipse fill="#000316" fill-opacity="0.501961" cx="461" cy="53" rx="74" ry="74" />
<g transform="translate(183.311722 496.761430) rotate(74.786815) scale(21.089250 102.488820)"><ellipse fill="#000010" fill-opacity="0.501961" cx="0" cy="0" rx="1" ry="1" /></g>
<polygon fill="#65b7d9" fill-opacity="0.501961" points="816.470704,100.809330,837.785856,165.962515,803.769430,167.034804,796.220667,79.307519" />
<g transform="translate(525 178) rotate(267) scale(10 36)"><rect fill="#cdffff" fill-opacity="0.501961" x="-0.5" y="-0.5" width="1" height="1" /></g>
<g transform="translate(6.573784 15.105243) rotate(66.857761) scale(38.804558 170.741905)"><ellipse fill="#0d161b" fill-opacity="0.501961" cx="0" cy="0" rx="1" ry="1" /></g>
<g transform="translate(533.757289 279.424084) rotate(20.794192) scale(28.270149 173.073990)"><ellipse fill="#041b2d" fill-opacity="0.501961" cx="0" cy="0" rx="1" ry="1" /></g>
<g transform="translate(286.337720 106.378144) rotate(187.763812) scale(93.675342 9.634243)"><ellipse fill="#4a85b1" fill-opacity="0.501961" cx="0" cy="0" rx="1" ry="1" /></g>
<g transform="translate(874 260) rotate(319) scale(25 61)"><rect fill="#fde5a8" fill-opacity="0.501961" x="-0.5" y="-0.5" width="1" height="1" /></g>
<g transform="translate(167.766529 166.571973) rotate(327.366544) scale(29.064152 15.412943)"><ellipse fill="#000005" fill-opacity="0.501961" cx="0" cy="0" rx="1" ry="1" /></g>
<ellipse fill="#000b1b" fill-opacity="0.501961" cx="568" cy="112" rx="23" ry="139" />
<ellipse fill="#f4dba0" fill-opacity="0.501961" cx="811" cy="408" rx="39" ry="39" />
<polygon fill="#000613" fill-opacity="0.501961" points="110,599 67,457 172,430" />
<g transform="translate(640.345437 125.858976) rotate(297.786239) scale(44.921692 14.445442)"><ellipse fill="#65b6de" fill-opacity="0.501961" cx="0" cy="0" rx="1" ry="1" /></g>
<g transform="translate(311.003663 95.358038) rotate(107.951134) scale(4.944517 40.308541)"><ellipse fill="#f1aa0a" fill-opacity="0.501961" cx="0" cy="0" rx="1" ry="1" /></g>
<polygon fill="#000001" fill-opacity="0.501961" points="-10.090774,489.832115,0.194468,645.000000,108.421780,645.000000,108.530541,598.862350" />
<ellipse fill="#030f1c" fill-opacity="0.501961" cx="607" cy="604" rx="141" ry="141" />
<polygon fill="#000a1b" fill-opacity="0.501961" points="306,226 138,295 167,411" />
<g transform="translate(1192.145414 432.392423) rotate(78.061480) scale(248.399257 67.771676)"><ellipse fill="#00070d" fill-opacity="0.501961" cx="0" cy="0" rx="1" ry="1" /></g>
<g transform="translate(1100.164498 540.786767) rotate(308.603933) scale(29.682123 64.368395)"><ellipse fill="#314a77" fill-opacity="0.501961" cx="0" cy="0" rx="1" ry="1" /></g>
<polygon fill="#24385e" fill-opacity="0.501961" points="1042,533 1178,580 1027,645" />
<polygon fill="#6e878e" fill-opacity="0.501961" points="318.186371,56.768151,241.189400,27.819452,90.563869,198.766915,273.453171,83.089659" />
<polygon fill="#6694e4" fill-opacity="0.501961" points="389.971671,270.796293,347.822862,295.329274,288.111987,206.047502,405.602977,281.649246" />
<polygon fill="#5e90a7" fill-opacity="0.501961" points="648,74 727,34 794,62" />
<g transform="translate(172.319571 541.182631) rotate(237.572101) scale(14.825382 57.885588)"><ellipse fill="#928e78" fill-opacity="0.501961" cx="0" cy="0" rx="1" ry="1" /></g>
<polygon fill="#061827" fill-opacity="0.501961" points="617.071385,421.052877,434.050748,591.812101,376.842972,275.877902,521.622277,316.996188" />
<g transform="translate(275.830398 229.925722) rotate(247.251682) scale(5.324538 49.869424)"><ellipse fill="#efebc3" fill-opacity="0.501961" cx="0" cy="0" rx="1" ry="1" /></g>
<ellipse fill="#00040b" fill-opacity="0.501961" cx="1123" cy="0" rx="150" ry="150" />
<g transform="translate(858.094108 134.652231) rotate(82.804530) scale(93.101560 28.049328)"><ellipse fill="#01101f" fill-opacity="0.501961" cx="0" cy="0" rx="1" ry="1" /></g>
<g transform="translate(62.346490 310.843540) rotate(183.293397) scale(18.844143 32.283548)"><ellipse fill="#b38f3c" fill-opacity="0.501961" cx="0" cy="0" rx="1" ry="1" /></g>
<g transform="translate(167.040207 217.444592) rotate(198.586280) scale(59.699023 38.287006)"><ellipse fill="#00071c" fill-opacity="0.501961" cx="0" cy="0" rx="1" ry="1" /></g>
<g transform="translate(414 585) rotate(402) scale(68 25)"><rect fill="#afaa8e" fill-opacity="0.501961" x="-0.5" y="-0.5" width="1" height="1" /></g>
<polygon fill="#7e6529" fill-opacity="0.501961" points="16,515 59,419 102,581" />
<g transform="translate(675.227136 251.417282) rotate(142.746514) scale(76.375916 103.114730)"><ellipse fill="#ffe6ad" fill-opacity="0.501961" cx="0" cy="0" rx="1" ry="1" /></g>
<g transform="translate(34.873734 269.263196) rotate(228.128868) scale(24.270291 110.998263)"><ellipse fill="#000617" fill-opacity="0.501961" cx="0" cy="0" rx="1" ry="1" /></g>
<ellipse fill="#06131e" fill-opacity="0.501961" cx="994" cy="252" rx="97" ry="326" />
<polygon fill="#010f1b" fill-opacity="0.501961" points="704,8 532,-16 608,140" />
<g transform="translate(447.412538 566.293991) rotate(296.627739) scale(14.301439 91.989076)"><ellipse fill="#010a12" fill-opacity="0.501961" cx="0" cy="0" rx="1" ry="1" /></g>
<ellipse fill="#a88639" fill-opacity="0.501961" cx="35" cy="356" rx="37" ry="37" />
<polygon fill="#a8d4e4" fill-opacity="0.501961" points="540,142 423,284 359,250" />
<polygon fill="#fae7b6" fill-opacity="0.501961" points="539,108 492,131 534,125" />
<ellipse fill="#a08038" fill-opacity="0.501961" cx="72" cy="418" rx="38" ry="38" />
<ellipse fill="#000008" fill-opacity="0.501961" cx="324" cy="3" rx="36" ry="45" />
<polygon fill="#000415" fill-opacity="0.501961" points="222.570320,173.388212,196.287005,152.681198,175.308953,150.750287,124.782445,173.905240" />
<g transform="translate(109.334627 70.857467) rotate(150.976809) scale(281.340147 29.886187)"><ellipse fill="#46595f" fill-opacity="0.501961" cx="0" cy="0" rx="1" ry="1" /></g>
</g>
</svg>