<svg xmlns="http://www.w3.org/2000/svg" version="1.1" width="1200" height="630">
<rect x="0" y="0" width="1200" height="630" fill="#301f34" />
<g transform="scale(1.000000) translate(0.5 0.5)">
<g transform="translate(166 196) rotate(232) scale(241 545)"><rect fill="#712ae1" fill-opacity="0.501961" x="-0.5" y="-0.5" width="1" height="1" /></g>
<g transform="translate(888 504) rotate(209) scale(203 205)"><rect fill="#2f76ff" fill-opacity="0.501961" x="-0.5" y="-0.5" width="1" height="1" /></g>
<g transform="translate(688 45) rotate(68) scale(108 288)"><rect fill="#ff4000" fill-opacity="0.501961" x="-0.5" y="-0.5" width="1" height="1" /></g>
<g transform="translate(714 602) rotate(19) scale(175 118)"><rect fill="#ff8231" fill-opacity="0.501961" x="-0.5" y="-0.5" width="1" height="1" /></g>
<g transform="translate(1157 320) rotate(220) scale(216 129)"><rect fill="#ee3b00" fill-opacity="0.501961" x="-0.5" y="-0.5" width="1" height="1" /></g>
<g transform="translate(418 462) rotate(402) scale(441 629)"><rect fill="#051201" fill-opacity="0.501961" x="-0.5" y="-0.5" width="1" height="1" /></g>
<g transform="translate(1001 524) rotate(300) scale(131 95)"><rect fill="#1c49a9" fill-opacity="0.501961" x="-0.5" y="-0.5" width="1" height="1" /></g>
<g transform="translate(828 612) rotate(291) scale(61 57)"><rect fill="#da5e12" fill-opacity="0.501961" x="-0.5" y="-0.5" width="1" height="1" /></g>
<g transform="translate(1136 539) rotate(109) scale(244 173)"><rect fill="#000000" fill-opacity="0.501961" x="-0.5" y="-0.5" width="1" height="1" /></g>
<g transform="translate(61 439) rotate(103) scale(150 105)"><rect fill="#3c3c8f" fill-opacity="0.501961" x="-0.5" y="-0.5" width="1" height="1" /></g>
<g transform="translate(289 231) rotate(150) scale(89 56)"><rect fill="#9c24fe" fill-opacity="0.501961" x="-0.5" y="-0.5" width="1" height="1" /></g>
<g transform="translate(544 58) rotate(376) scale(59 170)"><rect fill="#000c06" fill-opacity="0.501961" x="-0.5" y="-0.5" width="1" height="1" /></g>
<g transform="translate(1014 130) rotate(239) scale(302 496)"><rect fill="#000900" fill-opacity="0.501961" x="-0.5" y="-0.5" width="1" height="1" /></g>
<g transform="translate(205 266) rotate(149) scale(266 82)"><rect fill="#7d1ec8" fill-opacity="0.501961" x="-0.5" y="-0.5" width="1" height="1" /></g>
<g transform="translate(1084 365) rotate(323) scale(88 25)"><rect fill="#f53700" fill-opacity="0.501961" x="-0.5" y="-0.5" width="1" height="1" /></g>
<g transform="translate(580 129) rotate(154) scale(82 35)"><rect fill="#ff4100" fill-opacity="0.501961" x="-0.5" y="-0.5" width="1" height="1" /></g>
<g transform="translate(66 602) rotate(204) scale(163 103)"><rect fill="#000000" fill-opacity="0.501961" x="-0.5" y="-0.5" width="1" height="1" /></g>
<g transform="translate(321 3) rotate(156) scale(191 222)"><rect fill="#314474" fill-opacity="0.501961" x="-0.5" y="-0.5" width="1" height="1" /></g>
<g transform="translate(765 82) rotate(225) scale(35 78)"><rect fill="#e35b4e" fill-opacity="0.501961" x="-0.5" y="-0.5" width="1" height="1" /></g>
<g transform="translate(143 59) rotate(58) scale(132 424)"><rect fill="#360862" fill-opacity="0.501961" x="-0.5" y="-0.5" width="1" height="1" /></g>
<g transform="translate(1110 275) rotate(157) scale(29 170)"><rect fill="#cf3100" fill-opacity="0.501961" x="-0.5" y="-0.5" width="1" height="1" /></g>
<g transform="translate(621 27) rotate(10) scale(81 185)"><rect fill="#cf3100" fill-opacity="0.501961" x="-0.5" y="-0.5" width="1" height="1" /></g>
<g transform="translate(690 127) rotate(246) scale(49 28)"><rect fill="#6e68fc" fill-opacity="0.501961" x="-0.5" y="-0.5" width="1" height="1" /></g>
<g transform="translate(499 68) rotate(200) scale(116 174)"><rect fill="#091106" fill-opacity="0.501961" x="-0.5" y="-0.5" width="1" height="1" /></g>
<g transform="translate(178 367) rotate(-32) scale(110 60)"><rect fill="#010f00" fill-opacity="0.501961" x="-0.5" y="-0.5" width="1" height="1" /></g>
<g transform="translate(864 423) rotate(209) scale(80 88)"><rect fill="#3f69e7" fill-opacity="0.501961" x="-0.5" y="-0.5" width="1" height="1" /></g>
<g transform="translate(348 132) rotate(84) scale(106 112)"><rect fill="#575cb2" fill-opacity="0.501961" x="-0.5" y="-0.5" width="1" height="1" /></g>
<g transform="translate(929 590) rotate(77) scale(103 142)"><rect fill="#17306c" fill-opacity="0.501961" x="-0.5" y="-0.5" width="1" height="1" /></g>
<g transform="translate(701 228) rotate(133) scale(96 220)"><rect fill="#0d1a08" fill-opacity="0.501961" x="-0.5" y="-0.5" width="1" height="1" /></g>
<g transform="translate(1166 219) rotate(93) scale(64 29)"><rect fill="#c72a00" fill-opacity="0.501961" x="-0.5" y="-0.5" width="1" height="1" /></g>
<g transform="translate(1034 291) rotate(82) scale(14 65)"><rect fill="#ff4000" fill-opacity="0.501961" x="-0.5" y="-0.5" width="1" height="1" /></g>
<g transform="translate(1003 369) rotate(316) scale(130 79)"><rect fill="#031000" fill-opacity="0.501961" x="-0.5" y="-0.5" width="1" height="1" /></g>
<g transform="translate(874 30) rotate(115) scale(133 80)"><rect fill="#030a00" fill-opacity="0.501961" x="-0.5" y="-0.5" width="1" height="1" /></g>
<g transform="translate(1018 423) rotate(136) scale(78 12)"><rect fill="#ab35d9" fill-opacity="0.501961" x="-0.5" y="-0.5" width="1" height="1" /></g>
<g transform="translate(1103 81) rotate(224) scale(252 199)"><rect fill="#050703" fill-opacity="0.501961" x="-0.5" y="-0.5" width="1" height="1" /></g>
<g transform="translate(346 201) rotate(348) scale(43 24)"><rect fill="#001500" fill-opacity="0.501961" x="-0.5" y="-0.5" width="1" height="1" /></g>
<g transform="translate(624 140) rotate(315) scale(50 13)"><rect fill="#7d6cfa" fill-opacity="0.501961" x="-0.5" y="-0.5" width="1" height="1" /></g>
<g transform="translate(241 191) rotate(-32) scale(130 138)"><rect fill="#731db7" fill-opacity="0.501961" x="-0.5" y="-0.5" width="1" height="1" /></g>
<g transform="translate(395 89) rotate(108) scale(144 67)"><rect fill="#4f469e" fill-opacity="0.501961" x="-0.5" y="-0.5" width="1" height="1" /></g>
<g transform="translate(674 76) rotate(61) scale(48 152)"><rect fill="#d03400" fill-opacity="0.501961" x="-0.5" y="-0.5" width="1" height="1" /></g>
<g transform="translate(0 389) rotate(150) scale(90 143)"><rect fill="#1e3a60" fill-opacity="0.501961" x="-0.5" y="-0.5" width="1" height="1" /></g>
<g transform="translate(146 570) rotate(315) scale(13 154)"><rect fill="#550b99" fill-opacity="0.501961" x="-0.5" y="-0.5" width="1" height="1" /></g>
<g transform="translate(1077 420) rotate(324) scale(139 49)"><rect fill="#010d00" fill-opacity="0.501961" x="-0.5" y="-0.5" width="1" height="1" /></g>
<g transform="translate(777 430) rotate(210) scale(57 238)"><rect fill="#0a1604" fill-opacity="0.501961" x="-0.5" y="-0.5" width="1" height="1" /></g>
<g transform="translate(33 6) rotate(505) scale(121 47)"><rect fill="#000000" fill-opacity="0.501961" x="-0.5" y="-0.5" width="1" height="1" /></g>
<g transform="translate(686 554) rotate(112) scale(46 88)"><rect fill="#da6741" fill-opacity="0.501961" x="-0.5" y="-0.5" width="1" height="1" /></g>
<g transform="translate(1126 308) rotate(159) scale(126 98)"><rect fill="#a42900" fill-opacity="0.501961" x="-0.5" y="-0.5" width="1" height="1" /></g>
<g transform="translate(732 91) rotate(248) scale(15 53)"><rect fill="#6954b6" fill-opacity="0.501961" x="-0.5" y="-0.5" width="1" height="1" /></g>
<g transform="translate(1056 332) rotate(111) scale(36 47)"><rect fill="#000e10" fill-opacity="0.501961" x="-0.5" y="-0.5" width="1" height="1" /></g>
<g transform="translate(48 609) rotate(71) scale(152 137)"><rect fill="#000200" fill-opacity="0.501961" x="-0.5" y="-0.5" width="1" height="1" /></g>
<g transform="translate(841 281) rotate(201) scale(328 152)"><rect fill="#1d1e1a" fill-opacity="0.501961" x="-0.5" y="-0.5" width="1" height="1" /></g>
<g transform="translate(1155 409) rotate(65) scale(46 16)"><rect fill="#bf2a00" fill-opacity="0.501961" x="-0.5" y="-0.5" width="1" height="1" /></g>
<g transform="translate(539 119) rotate(194) scale(36 178)"><rect fill="#161c27" fill-opacity="0.501961" x="-0.5" y="-0.5" width="1" height="1" /></g>
<g transform="translate(1031 502) rotate(212) scale(67 54)"><rect fill="#2a4aa0" fill-opacity="0.501961" x="-0.5" y="-0.5" width="1" height="1" /></g>
<g transform="translate(695 31) rotate(288) scale(55 208)"><rect fill="#9b2900" fill-opacity="0.501961" x="-0.5" y="-0.5" width="1" height="1" /></g>
<g transform="translate(732 102) rotate(99) scale(11 63)"><rect fill="#f45626" fill-opacity="0.501961" x="-0.5" y="-0.5" width="1" height="1" /></g>
<g transform="translate(602 595) rotate(290) scale(116 43)"><rect fill="#060c03" fill-opacity="0.501961" x="-0.5" y="-0.5" width="1" height="1" /></g>
<g transform="translate(232 559) rotate(313) scale(112 272)"><rect fill="#0a0909" fill-opacity="0.501961" x="-0.5" y="-0.5" width="1" height="1" /></g>
<g transform="translate(108 276) rotate(117) scale(225 80)"><rect fill="#62159b" fill-opacity="0.501961" x="-0.5" y="-0.5" width="1" height="1" /></g>
<g transform="translate(1130 595) rotate(219) scale(174 277)"><rect fill="#000700" fill-opacity="0.501961" x="-0.5" y="-0.5" width="1" height="1" /></g>
<g transform="translate(801 492) rotate(300) scale(154 40)"><rect fill="#385bc4" fill-opacity="0.501961" x="-0.5" y="-0.5" width="1" height="1" /></g>
<g transform="translate(737 4) rotate(209) scale(24 19)"><rect fill="#0032a0" fill-opacity="0.501961" x="-0.5" y="-0.5" width="1" height="1" /></g>
<g transform="translate(104 422) rotate(197) scale(29 90)"><rect fill="#4d449c" fill-opacity="0.501961" x="-0.5" y="-0.5" width="1" height="1" /></g>
<g transform="translate(1190 390) rotate(236) scale(95 49)"><rect fill="#8e5d3b" fill-opacity="0.501961" x="-0.5" y="-0.5" width="1" height="1" /></g>
<g transform="translate(701 156) rotate(67) scale(31 9)"><rect fill="#6e61e6" fill-opacity="0.501961" x="-0.5" y="-0.5" width="1" height="1" /></g>
<g transform="translate(297 0) rotate(179) scale(187 92)"><rect fill="#2c3057" fill-opacity="0.501961" x="-0.5" y="-0.5" width="1" height="1" /></g>
<g transform="translate(1192 225) rotate(2) scale(22 70)"><rect fill="#000200" fill-opacity="0.501961" x="-0.5" y="-0.5" width="1" height="1" /></g>
<g transform="translate(929 617) rotate(-25) scale(142 64)"><rect fill="#1a306a" fill-opacity="0.501961" x="-0.5" y="-0.5" width="1" height="1" /></g>
<g transform="translate(730 128) rotate(183) scale(52 38)"><rect fill="#0d1507" fill-opacity="0.501961" x="-0.5" y="-0.5" width="1" height="1" /></g>
<g transform="translate(92 93) rotate(149) scale(280 55)"><rect fill="#3f1069" fill-opacity="0.501961" x="-0.5" y="-0.5" width="1" height="1" /></g>
<g transform="translate(889 469) rotate(240) scale(69 134)"><rect fill="#3456bd" fill-opacity="0.501961" x="-0.5" y="-0.5" width="1" height="1" /></g>
<g transform="translate(1073 269) rotate(170) scale(33 18)"><rect fill="#000d18" fill-opacity="0.501961" x="-0.5" y="-0.5" width="1" height="1" /></g>
<g transform="translate(1098 235) rotate(220) scale(49 26)"><rect fill="#c83400" fill-opacity="0.501961" x="-0.5" y="-0.5" width="1" height="1" /></g>
<g transform="translate(570 120) rotate(106) scale(65 23)"><rect fill="#ef3d00" fill-opacity="0.501961" x="-0.5" y="-0.5" width="1" height="1" /></g>
<g transform="translate(797 20) rotate(135) scale(61 73)"><rect fill="#8b3f34" fill-opacity="0.501961" x="-0.5" y="-0.5" width="1" height="1" /></g>
<g transform="translate(132 434) rotate(194) scale(26 78)"><rect fill="#030c00" fill-opacity="0.501961" x="-0.5" y="-0.5" width="1" height="1" /></g>
<g transform="translate(459 3) rotate(319) scale(58 73)"><rect fill="#020800" fill-opacity="0.501961" x="-0.5" y="-0.5" width="1" height="1" /></g>
<g transform="translate(1085 347) rotate(302) scale(83 15)"><rect fill="#cd3500" fill-opacity="0.501961" x="-0.5" y="-0.5" width="1" height="1" /></g>
<g transform="translate(201 352) rotate(147) scale(141 56)"><rect fill="#171712" fill-opacity="0.501961" x="-0.5" y="-0.5" width="1" height="1" /></g>
<g transform="translate(799 629) rotate(19) scale(104 115)"><rect fill="#91462c" fill-opacity="0.501961" x="-0.5" y="-0.5" width="1" height="1" /></g>
<g transform="translate(557 82) rotate(77) scale(11 22)"><rect fill="#6055d3" fill-opacity="0.501961" x="-0.5" y="-0.5" width="1" height="1" /></g>
<g transform="translate(38 500) rotate(76) scale(61 113)"><rect fill="#2e2967" fill-opacity="0.501961" x="-0.5" y="-0.5" width="1" height="1" /></g>
<g transform="translate(1038 296) rotate(103) scale(18 37)"><rect fill="#e03900" fill-opacity="0.501961" x="-0.5" y="-0.5" width="1" height="1" /></g>
<g transform="translate(71 25) rotate(140) scale(182 41)"><rect fill="#1d013e" fill-opacity="0.501961" x="-0.5" y="-0.5" width="1" height="1" /></g>
<g transform="translate(421 136) rotate(379) scale(12 103)"><rect fill="#121701" fill-opacity="0.501961" x="-0.5" y="-0.5" width="1" height="1" /></g>
<g transform="translate(55 222) rotate(125) scale(203 68)"><rect fill="#51107e" fill-opacity="0.501961" x="-0.5" y="-0.5" width="1" height="1" /></g>
<g transform="translate(632 339) rotate(304) scale(249 311)"><rect fill="#222020" fill-opacity="0.501961" x="-0.5" y="-0.5" width="1" height="1" /></g>
<g transform="translate(1174 273) rotate(429) scale(123 26)"><rect fill="#8f2400" fill-opacity="0.501961" x="-0.5" y="-0.5" width="1" height="1" /></g>
<g transform="translate(243 281) rotate(177) scale(26 26)"><rect fill="#7632db" fill-opacity="0.501961" x="-0.5" y="-0.5" width="1" height="1" /></g>
<g transform="translate(1074 202) rotate(316) scale(8 36)"><rect fill="#d43500" fill-opacity="0.501961" x="-0.5" y="-0.5" width="1" height="1" /></g>
<g transform="translate(492 125) rotate(290) scale(116 115)"><rect fill="#1d1a1a" fill-opacity="0.501961" x="-0.5" y="-0.5" width="1" height="1" /></g>
<g transform="translate(991 512) rotate(210) scale(81 118)"><rect fill="#2b428c" fill-opacity="0.501961" x="-0.5" y="-0.5" width="1" height="1" /></g>
<g transform="translate(1025 1) rotate(-81) scale(143 368)"><rect fill="#080807" fill-opacity="0.501961" x="-0.5" y="-0.5" width="1" height="1" /></g>
<g transform="translate(465 597) rotate(281) scale(105 307)"><rect fill="#0f0e0e" fill-opacity="0.501961" x="-0.5" y="-0.5" width="1" height="1" /></g>
<g transform="translate(753 89) rotate(281) scale(11 38)"><rect fill="#3142b8" fill-opacity="0.501961" x="-0.5" y="-0.5" width="1" height="1" /></g>
<g transform="translate(1044 395) rotate(37) scale(8 42)"><rect fill="#7024b4" fill-opacity="0.501961" x="-0.5" y="-0.5" width="1" height="1" /></g>
<g transform="translate(348 57) rotate(69) scale(80 172)"><rect fill="#41357d" fill-opacity="0.501961" x="-0.5" y="-0.5" width="1" height="1" /></g>
<g transform="translate(677 118) rotate(417) scale(21 20)"><rect fill="#6153c0" fill-opacity="0.501961" x="-0.5" y="-0.5" width="1" height="1" /></g>
<g transform="translate(1175 186) rotate(33) scale(8 34)"><rect fill="#a72a00" fill-opacity="0.501961" x="-0.5" y="-0.5" width="1" height="1" /></g>
<g transform="translate(746 571) rotate(110) scale(40 106)"><rect fill="#b45737" fill-opacity="0.501961" x="-0.5" y="-0.5" width="1" height="1" /></g>
</g>
</svg>