<svg xmlns="http://www.w3.org/2000/svg" version="1.1" width="1200" height="630">
<rect x="0" y="0" width="1200" height="630" fill="#404226" />
<g transform="scale(1.000000) translate(0.5 0.5)">
<g transform="translate(707.959401 333.175222) rotate(454.346106) scale(420.479714 142.743509)"><ellipse fill="#ffff56" fill-opacity="0.501961" cx="0" cy="0" rx="1" ry="1" /></g>
<g transform="translate(285.234586 71.050954) rotate(80.426489) scale(194.296238 74.681922)"><ellipse fill="#00fdff" fill-opacity="0.501961" cx="0" cy="0" rx="1" ry="1" /></g>
<g transform="translate(889.357358 123.785015) rotate(24.057922) scale(161.723768 68.022553)"><ellipse fill="#fff3b5" fill-opacity="0.501961" cx="0" cy="0" rx="1" ry="1" /></g>
<ellipse fill="#fff27f" fill-opacity="0.501961" cx="504" cy="561" rx="69" ry="69" />
<ellipse fill="#ffff15" fill-opacity="0.501961" cx="685" cy="298" rx="133" ry="133" />
<ellipse fill="#00001b" fill-opacity="0.501961" cx="896" cy="257" rx="142" ry="52" />
<ellipse fill="#000000" fill-opacity="0.501961" cx="961" cy="519" rx="145" ry="223" />
<g transform="translate(542.487937 436.261353) rotate(137.292556) scale(65.202165 96.837261)"><ellipse fill="#000000" fill-opacity="0.501961" cx="0" cy="0" rx="1" ry="1" /></g>
<g transform="translate(1103.760987 69.420500) rotate(245.558718) scale(709.925367 113.833782)"><ellipse fill="#000000" fill-opacity="0.501961" cx="0" cy="0" rx="1" ry="1" /></g>
<ellipse fill="#000000" fill-opacity="0.501961" cx="153" cy="479" rx="289" ry="289" />
<g transform="translate(768.426276 272.835823) rotate(71.431508) scale(32.241440 37.864665)"><ellipse fill="#00ffff" fill-opacity="0.501961" cx="0" cy="0" rx="1" ry="1" /></g>
<g transform="translate(836.221186 362.870621) rotate(480.258588) scale(63.149947 32.370486)"><ellipse fill="#ffff00" fill-opacity="0.501961" cx="0" cy="0" rx="1" ry="1" /></g>
<g transform="translate(799 461) rotate(248) scale(37 113)"><rect fill="#000000" fill-opacity="0.501961" x="-0.5" y="-0.5" width="1" height="1" /></g>
<polygon fill="#30f8ff" fill-opacity="0.501961" points="331.735545,309.692123,368.036010,71.529248,221.736591,144.803551,334.447698,309.379905" />
<g transform="translate(468.333448 166.312819) rotate(191.411045) scale(111.947422 330.675027)"><ellipse fill="#000000" fill-opacity="0.501961" cx="0" cy="0" rx="1" ry="1" /></g>
<g transform="translate(125.735080 129.418282) rotate(48.822188) scale(233.153809 67.339339)"><ellipse fill="#000000" fill-opacity="0.501961" cx="0" cy="0" rx="1" ry="1" /></g>
<g transform="translate(688.278969 148.852822) rotate(140.630751) scale(72.200621 126.613478)"><ellipse fill="#ffd496" fill-opacity="0.501961" cx="0" cy="0" rx="1" ry="1" /></g>
<ellipse fill="#ffdc8c" fill-opacity="0.501961" cx="681" cy="493" rx="66" ry="66" />
<g transform="translate(103.387333 346.946089) rotate(80.624037) scale(85.211792 8.328041)"><ellipse fill="#ffffc1" fill-opacity="0.501961" cx="0" cy="0" rx="1" ry="1" /></g>
<rect fill="#000000" fill-opacity="0.501961" x="772" y="0" width="428" height="44" />
<g transform="translate(1152.386467 486.054479) rotate(136.072471) scale(36.241959 88.885126)"><ellipse fill="#b2a375" fill-opacity="0.501961" cx="0" cy="0" rx="1" ry="1" /></g>
<ellipse fill="#000001" fill-opacity="0.501961" cx="1095" cy="303" rx="215" ry="101" />
<g transform="translate(826 237) rotate(223) scale(45 101)"><rect fill="#000000" fill-opacity="0.501961" x="-0.5" y="-0.5" width="1" height="1" /></g>
<g transform="translate(194.656417 70.120485) rotate(148.109582) scale(20.954283 124.511629)"><ellipse fill="#00a5ba" fill-opacity="0.501961" cx="0" cy="0" rx="1" ry="1" /></g>
<polygon fill="#fdd776" fill-opacity="0.501961" points="640,557 433,539 449,468" />
<ellipse fill="#ffd200" fill-opacity="0.501961" cx="720" cy="377" rx="135" ry="80" />
<g transform="translate(771.208701 290.105168) rotate(185.468866) scale(51.247486 14.117240)"><ellipse fill="#00ffff" fill-opacity="0.501961" cx="0" cy="0" rx="1" ry="1" /></g>
<ellipse fill="#000006" fill-opacity="0.501961" cx="584" cy="458" rx="45" ry="45" />
<polygon fill="#000003" fill-opacity="0.501961" points="689,-7 350,206 388,-9" />
<g transform="translate(658.297371 567.824979) rotate(-19.263202) scale(186.125230 54.238419)"><ellipse fill="#bf9e62" fill-opacity="0.501961" cx="0" cy="0" rx="1" ry="1" /></g>
<polygon fill="#00000c" fill-opacity="0.501961" points="578,-16 151,524 604,188" />
<g transform="translate(609.644957 288.776187) rotate(174.045807) scale(51.670052 83.780258)"><ellipse fill="#ffdb00" fill-opacity="0.501961" cx="0" cy="0" rx="1" ry="1" /></g>
<ellipse fill="#a28d5c" fill-opacity="0.501961" cx="758" cy="61" rx="149" ry="39" />
<g transform="translate(78.841641 202.329313) rotate(171.078637) scale(8.448205 89.608005)"><ellipse fill="#e2d292" fill-opacity="0.501961" cx="0" cy="0" rx="1" ry="1" /></g>
<ellipse fill="#13828e" fill-opacity="0.501961" cx="268" cy="19" rx="115" ry="107" />
<polygon fill="#20d9e5" fill-opacity="0.501961" points="128.083919,430.841343,99.550432,407.323831,-16.000000,227.644890,1.618391,231.303557" />
<ellipse fill="#000000" fill-opacity="0.501961" cx="1013" cy="582" rx="112" ry="112" />
<ellipse fill="#000001" fill-opacity="0.501961" cx="807" cy="469" rx="63" ry="21" />
<g transform="translate(397.606006 582.945086) rotate(153.388031) scale(44.690837 120.387898)"><ellipse fill="#000001" fill-opacity="0.501961" cx="0" cy="0" rx="1" ry="1" /></g>
<g transform="translate(758.601870 263.678653) rotate(134.401882) scale(52.897282 12.524344)"><ellipse fill="#00ffff" fill-opacity="0.501961" cx="0" cy="0" rx="1" ry="1" /></g>
<polygon fill="#f0d38c" fill-opacity="0.501961" points="764.780763,129.044008,917.846380,114.334153,788.730533,240.246306,788.140959,234.309828" />
<g transform="translate(19.678427 101.839085) rotate(288.025038) scale(115.112088 29.097624)"><ellipse fill="#000000" fill-opacity="0.501961" cx="0" cy="0" rx="1" ry="1" /></g>
<polygon fill="#00000a" fill-opacity="0.501961" points="638.748441,433.570070,588.551375,535.944095,583.986630,530.551559,404.472426,449.349220" />
<g transform="translate(855.108282 242.058593) rotate(374.540299) scale(43.315675 59.181825)"><ellipse fill="#000000" fill-opacity="0.501961" cx="0" cy="0" rx="1" ry="1" /></g>
<rect fill="#ffd000" fill-opacity="0.501961" x="628" y="303" width="252" height="60" />
<ellipse fill="#d0c180" fill-opacity="0.501961" cx="1001" cy="171" rx="42" ry="42" />
<g transform="translate(1054.643021 75.102308) rotate(204.045524) scale(214.505381 46.507513)"><ellipse fill="#000000" fill-opacity="0.501961" cx="0" cy="0" rx="1" ry="1" /></g>
<polygon fill="#edd17e" fill-opacity="0.501961" points="761,502 681,386 595,515" />
<ellipse fill="#000005" fill-opacity="0.501961" cx="251" cy="549" rx="187" ry="187" />
<g transform="translate(847.337792 552.964310) rotate(200.626497) scale(28.419507 102.074045)"><ellipse fill="#000002" fill-opacity="0.501961" cx="0" cy="0" rx="1" ry="1" /></g>
<g transform="translate(72.287215 94.253311) rotate(297.648841) scale(152.202487 8.182586)"><ellipse fill="#90894f" fill-opacity="0.501961" cx="0" cy="0" rx="1" ry="1" /></g>
<ellipse fill="#e6d68d" fill-opacity="0.501961" cx="917" cy="167" rx="52" ry="33" />
<g transform="translate(136.996960 176.301592) rotate(261.164626) scale(392.075954 54.907457)"><ellipse fill="#00010a" fill-opacity="0.501961" cx="0" cy="0" rx="1" ry="1" /></g>
<g transform="translate(354.005227 67.040671) rotate(190.178187) scale(20.690943 81.068975)"><ellipse fill="#1cb2b6" fill-opacity="0.501961" cx="0" cy="0" rx="1" ry="1" /></g>
<polygon fill="#00000b" fill-opacity="0.501961" points="743,489 1101,468 887,372" />
<g transform="translate(678 275) rotate(204) scale(98 74)"><rect fill="#ffd400" fill-opacity="0.501961" x="-0.5" y="-0.5" width="1" height="1" /></g>
<polygon fill="#33ffff" fill-opacity="0.501961" points="345,211 273,214 329,299" />
<g transform="translate(1129.856488 382.652832) rotate(39.887786) scale(127.285378 33.450966)"><ellipse fill="#000004" fill-opacity="0.501961" cx="0" cy="0" rx="1" ry="1" /></g>
<polygon fill="#00ffff" fill-opacity="0.501961" points="774,298 718,297 792,218" />
<ellipse fill="#000000" fill-opacity="0.501961" cx="48" cy="223" rx="24" ry="64" />
<g transform="translate(217.885002 9.492854) rotate(271.607235) scale(42.013928 91.992098)"><ellipse fill="#105c5c" fill-opacity="0.501961" cx="0" cy="0" rx="1" ry="1" /></g>
<polygon fill="#000003" fill-opacity="0.501961" points="1215,-6 707,-16 1212,147" />
<g transform="translate(541.252209 374.987382) rotate(153.224656) scale(28.598675 141.476230)"><ellipse fill="#00010f" fill-opacity="0.501961" cx="0" cy="0" rx="1" ry="1" /></g>
<g transform="translate(1126.855903 499.590370) rotate(256.077974) scale(95.027144 23.057103)"><ellipse fill="#948961" fill-opacity="0.501961" cx="0" cy="0" rx="1" ry="1" /></g>
<ellipse fill="#000002" fill-opacity="0.501961" cx="10" cy="434" rx="91" ry="91" />
<ellipse fill="#ffda87" fill-opacity="0.501961" cx="635" cy="187" rx="34" ry="34" />
<polygon fill="#00ffff" fill-opacity="0.501961" points="843,305 776,267 724,293" />
<polygon fill="#b4a66e" fill-opacity="0.501961" points="933,57 1032,135 680,124" />
<polygon fill="#ffd100" fill-opacity="0.501961" points="591,406 850,396 552,309" />
<polygon fill="#b6ac75" fill-opacity="0.501961" points="1153.175203,444.255780,1086.197815,396.966456,1083.445524,409.580384,1104.725320,462.993580" />
<ellipse fill="#03000a" fill-opacity="0.501961" cx="818" cy="254" rx="33" ry="33" />
<ellipse fill="#8a7644" fill-opacity="0.501961" cx="617" cy="620" rx="156" ry="36" />
<ellipse fill="#000005" fill-opacity="0.501961" cx="1131" cy="137" rx="97" ry="97" />
<g transform="translate(769.434566 35.485646) rotate(18.896915) scale(103.782074 28.140194)"><ellipse fill="#95845b" fill-opacity="0.501961" cx="0" cy="0" rx="1" ry="1" /></g>
<ellipse fill="#ffd500" fill-opacity="0.501961" cx="593" cy="299" rx="39" ry="87" />
<ellipse fill="#f8c800" fill-opacity="0.501961" cx="758" cy="414" rx="44" ry="44" />
<g transform="translate(1078.817676 546.461870) rotate(262.202336) scale(185.371862 33.065543)"><ellipse fill="#000005" fill-opacity="0.501961" cx="0" cy="0" rx="1" ry="1" /></g>
<polygon fill="#06060a" fill-opacity="0.501961" points="838,305 846,174 948,219" />
<g transform="translate(275.022283 111.737483) rotate(165.353543) scale(64.923335 59.498050)"><ellipse fill="#27b0af" fill-opacity="0.501961" cx="0" cy="0" rx="1" ry="1" /></g>
<rect fill="#07070c" fill-opacity="0.501961" x="873" y="344" width="212" height="286" />
<ellipse fill="#e1c76e" fill-opacity="0.501961" cx="789" cy="509" rx="43" ry="22" />
<g transform="translate(30.688486 563.075144) rotate(47.564447) scale(99.117776 10.465573)"><ellipse fill="#716133" fill-opacity="0.501961" cx="0" cy="0" rx="1" ry="1" /></g>
<g transform="translate(14.027976 69.304507) rotate(109.847481) scale(130.926633 51.410158)"><ellipse fill="#000000" fill-opacity="0.501961" cx="0" cy="0" rx="1" ry="1" /></g>
<g transform="translate(1164.318110 542.644827) rotate(306.136204) scale(56.732352 44.885576)"><ellipse fill="#554e38" fill-opacity="0.501961" cx="0" cy="0" rx="1" ry="1" /></g>
<g transform="translate(618 25) rotate(142) scale(121 24)"><rect fill="#000002" fill-opacity="0.501961" x="-0.5" y="-0.5" width="1" height="1" /></g>
<g transform="translate(235.695217 192.497023) rotate(233.390376) scale(82.138139 15.223116)"><ellipse fill="#030005" fill-opacity="0.501961" cx="0" cy="0" rx="1" ry="1" /></g>
<polygon fill="#c2ae55" fill-opacity="0.501961" points="588,57 785,64 597,128" />
<ellipse fill="#f5dc73" fill-opacity="0.501961" cx="463" cy="497" rx="20" ry="20" />
<g transform="translate(79 84) rotate(114) scale(130 13)"><rect fill="#767e4b" fill-opacity="0.501961" x="-0.5" y="-0.5" width="1" height="1" /></g>
<g transform="translate(958 198) rotate(189) scale(65 32)"><rect fill="#dacc88" fill-opacity="0.501961" x="-0.5" y="-0.5" width="1" height="1" /></g>
<g transform="translate(240.942856 319.100249) rotate(156.643233) scale(77.181371 174.296827)"><ellipse fill="#0c0b0f" fill-opacity="0.501961" cx="0" cy="0" rx="1" ry="1" /></g>
<g transform="translate(759.704808 204.309748) rotate(77.384087) scale(34.238833 67.295771)"><ellipse fill="#f1d67d" fill-opacity="0.501961" cx="0" cy="0" rx="1" ry="1" /></g>
<rect fill="#000001" fill-opacity="0.501961" x="580" y="133" width="18" height="58" />
<polygon fill="#0d0d11" fill-opacity="0.501961" points="528,-16 559,357 288,645" />
<g transform="translate(852.032981 363.241977) rotate(116.162770) scale(65.110043 15.095180)"><ellipse fill="#f3c400" fill-opacity="0.501961" cx="0" cy="0" rx="1" ry="1" /></g>
<polygon fill="#e8ce6e" fill-opacity="0.501961" points="881.433320,171.210216,664.757863,127.136725,591.670074,193.255965,667.741966,235.909098" />
<ellipse fill="#000000" fill-opacity="0.501961" cx="12" cy="624" rx="45" ry="45" />
<polygon fill="#000006" fill-opacity="0.501961" points="75,225 1,232 95,376" />
<polygon fill="#c4ae5e" fill-opacity="0.501961" points="436.342880,557.594092,812.145162,566.793704,835.920356,496.623926,817.585826,491.078853" />
<g transform="translate(1046.038964 255.732871) rotate(297.140951) scale(80.046845 43.997172)"><ellipse fill="#05050b" fill-opacity="0.501961" cx="0" cy="0" rx="1" ry="1" /></g>
</g>
</svg>