<svg xmlns="http://www.w3.org/2000/svg" version="1.1" width="1200" height="630">
<rect x="0" y="0" width="1200" height="630" fill="#212331" />
<g transform="scale(1.000000) translate(0.5 0.5)">
<rect fill="#9babfd" fill-opacity="0.501961" x="707" y="82" width="422" height="321" />
<rect fill="#000000" fill-opacity="0.501961" x="0" y="0" width="796" height="111" />
<rect fill="#000000" fill-opacity="0.501961" x="185" y="303" width="569" height="327" />
<rect fill="#7d8bd7" fill-opacity="0.501961" x="773" y="164" width="179" height="303" />
<rect fill="#000000" fill-opacity="0.501961" x="1009" y="364" width="191" height="266" />
<rect fill="#8c9cf1" fill-opacity="0.501961" x="663" y="153" width="110" height="110" />
<rect fill="#656c8f" fill-opacity="0.501961" x="845" y="28" width="355" height="252" />
<rect fill="#0a0902" fill-opacity="0.501961" x="254" y="369" width="518" height="261" />
<rect fill="#000000" fill-opacity="0.501961" x="904" y="447" width="105" height="183" />
<rect fill="#000000" fill-opacity="0.501961" x="429" y="123" width="219" height="186" />
<rect fill="#818fda" fill-opacity="0.501961" x="821" y="402" width="66" height="86" />
<rect fill="#444c76" fill-opacity="0.501961" x="116" y="539" width="144" height="91" />
<rect fill="#90a0f7" fill-opacity="0.501961" x="729" y="261" width="45" height="84" />
<rect fill="#6c77b5" fill-opacity="0.501961" x="792" y="138" width="195" height="293" />
<rect fill="#1b1d2a" fill-opacity="0.501961" x="1084" y="331" width="96" height="147" />
<rect fill="#000000" fill-opacity="0.501961" x="783" y="431" width="28" height="199" />
<rect fill="#575c7a" fill-opacity="0.501961" x="1046" y="82" width="116" height="234" />
<rect fill="#5370ff" fill-opacity="0.501961" x="415" y="181" width="11" height="184" />
<rect fill="#8897e5" fill-opacity="0.501961" x="646" y="170" width="63" height="41" />
<rect fill="#000000" fill-opacity="0.501961" x="647" y="231" width="34" height="80" />
<rect fill="#000000" fill-opacity="0.501961" x="0" y="0" width="414" height="551" />
<rect fill="#5f6aa1" fill-opacity="0.501961" x="118" y="503" width="59" height="48" />
<rect fill="#010000" fill-opacity="0.501961" x="414" y="0" width="465" height="51" />
<rect fill="#515778" fill-opacity="0.501961" x="816" y="61" width="314" height="60" />
<rect fill="#6771a6" fill-opacity="0.501961" x="895" y="163" width="171" height="219" />
<rect fill="#000000" fill-opacity="0.501961" x="0" y="0" width="111" height="630" />
<rect fill="#6f7bbc" fill-opacity="0.501961" x="690" y="143" width="112" height="138" />
<rect fill="#000000" fill-opacity="0.501961" x="1030" y="380" width="99" height="36" />
<rect fill="#000000" fill-opacity="0.501961" x="704" y="328" width="36" height="75" />
<rect fill="#576092" fill-opacity="0.501961" x="1151" y="363" width="35" height="35" />
<rect fill="#070500" fill-opacity="0.501961" x="414" y="51" width="355" height="58" />
<rect fill="#0e0e09" fill-opacity="0.501961" x="86" y="86" width="326" height="426" />
<rect fill="#3e57db" fill-opacity="0.501961" x="423" y="110" width="249" height="11" />
<rect fill="#6e7ab9" fill-opacity="0.501961" x="802" y="237" width="126" height="218" />
<rect fill="#505884" fill-opacity="0.501961" x="1117" y="397" width="36" height="43" />
<rect fill="#000000" fill-opacity="0.501961" x="1107" y="339" width="53" height="43" />
<rect fill="#000000" fill-opacity="0.501961" x="807" y="499" width="147" height="131" />
<rect fill="#2a2c35" fill-opacity="0.501961" x="1079" y="18" width="121" height="94" />
<rect fill="#4a527b" fill-opacity="0.501961" x="1062" y="465" width="35" height="42" />
<rect fill="#000000" fill-opacity="0.501961" x="646" y="122" width="80" height="15" />
<rect fill="#5b6498" fill-opacity="0.501961" x="1093" y="437" width="28" height="31" />
<rect fill="#4e546e" fill-opacity="0.501961" x="916" y="0" width="173" height="93" />
<rect fill="#040300" fill-opacity="0.501961" x="962" y="421" width="75" height="108" />
<rect fill="#3143a2" fill-opacity="0.501961" x="775" y="595" width="192" height="9" />
<rect fill="#454d73" fill-opacity="0.501961" x="1031" y="505" width="33" height="39" />
<rect fill="#435eee" fill-opacity="0.501961" x="416" y="111" width="9" height="70" />
<rect fill="#646b8e" fill-opacity="0.501961" x="1023" y="173" width="177" height="101" />
<rect fill="#5c67a2" fill-opacity="0.501961" x="760" y="97" width="153" height="95" />
<rect fill="#12110d" fill-opacity="0.501961" x="427" y="251" width="265" height="223" />
<rect fill="#000000" fill-opacity="0.501961" x="1158" y="277" width="42" height="68" />
<rect fill="#7683c8" fill-opacity="0.501961" x="834" y="465" width="24" height="36" />
<rect fill="#59639a" fill-opacity="0.501961" x="121" y="489" width="24" height="32" />
<rect fill="#0b0902" fill-opacity="0.501961" x="428" y="125" width="251" height="37" />
<rect fill="#000000" fill-opacity="0.501961" x="1107" y="455" width="93" height="175" />
<rect fill="#000000" fill-opacity="0.501961" x="224" y="538" width="36" height="40" />
<rect fill="#080803" fill-opacity="0.501961" x="872" y="480" width="120" height="112" />
<rect fill="#2d43bb" fill-opacity="0.501961" x="773" y="406" width="10" height="190" />
<rect fill="#464e76" fill-opacity="0.501961" x="152" y="534" width="54" height="56" />
<rect fill="#7885ca" fill-opacity="0.501961" x="719" y="248" width="97" height="70" />
<rect fill="#505a93" fill-opacity="0.501961" x="1020" y="239" width="97" height="116" />
<rect fill="#293ca4" fill-opacity="0.501961" x="653" y="111" width="101" height="11" />
<rect fill="#8594e0" fill-opacity="0.501961" x="675" y="210" width="35" height="35" />
<rect fill="#3f476b" fill-opacity="0.501961" x="185" y="591" width="88" height="31" />
<rect fill="#4a527c" fill-opacity="0.501961" x="1010" y="540" width="25" height="29" />
<rect fill="#7682c6" fill-opacity="0.501961" x="761" y="282" width="78" height="102" />
<rect fill="#050400" fill-opacity="0.501961" x="785" y="443" width="22" height="145" />
<rect fill="#020100" fill-opacity="0.501961" x="1140" y="421" width="60" height="209" />
<rect fill="#080701" fill-opacity="0.501961" x="934" y="440" width="142" height="41" />
<rect fill="#0f0f0a" fill-opacity="0.501961" x="427" y="196" width="228" height="82" />
<rect fill="#59628f" fill-opacity="0.501961" x="810" y="68" width="190" height="52" />
<rect fill="#707cbf" fill-opacity="0.501961" x="1009" y="364" width="27" height="27" />
<rect fill="#515b8c" fill-opacity="0.501961" x="1173" y="347" width="27" height="25" />
<rect fill="#5c679c" fill-opacity="0.501961" x="1140" y="387" width="22" height="25" />
<rect fill="#636ea8" fill-opacity="0.501961" x="875" y="349" width="123" height="64" />
<rect fill="#000000" fill-opacity="0.501961" x="1050" y="525" width="88" height="105" />
<rect fill="#4b558a" fill-opacity="0.501961" x="1087" y="254" width="67" height="65" />
<rect fill="#3d4467" fill-opacity="0.501961" x="986" y="566" width="27" height="30" />
<rect fill="#030100" fill-opacity="0.501961" x="1070" y="374" width="60" height="40" />
<rect fill="#7c8ad2" fill-opacity="0.501961" x="746" y="303" width="27" height="55" />
<rect fill="#0f0f0f" fill-opacity="0.501961" x="468" y="379" width="300" height="190" />
<rect fill="#0b0a02" fill-opacity="0.501961" x="685" y="293" width="30" height="77" />
<rect fill="#4c568a" fill-opacity="0.501961" x="856" y="40" width="68" height="106" />
<rect fill="#020100" fill-opacity="0.501961" x="783" y="0" width="43" height="72" />
<rect fill="#000000" fill-opacity="0.501961" x="705" y="81" width="75" height="19" />
<rect fill="#8290dc" fill-opacity="0.501961" x="641" y="176" width="22" height="15" />
<rect fill="#596296" fill-opacity="0.501961" x="1053" y="495" width="21" height="20" />
<rect fill="#040300" fill-opacity="0.501961" x="811" y="476" width="17" height="109" />
<rect fill="#010000" fill-opacity="0.501961" x="1140" y="312" width="45" height="44" />
<rect fill="#646fa8" fill-opacity="0.501961" x="819" y="414" width="79" height="60" />
<rect fill="#000000" fill-opacity="0.501961" x="826" y="0" width="82" height="21" />
<rect fill="#010100" fill-opacity="0.501961" x="782" y="419" width="11" height="43" />
<rect fill="#000000" fill-opacity="0.501961" x="0" y="545" width="107" height="85" />
<rect fill="#181920" fill-opacity="0.501961" x="1149" y="0" width="51" height="63" />
<rect fill="#000000" fill-opacity="0.501961" x="720" y="606" width="184" height="24" />
<rect fill="#7e8cd5" fill-opacity="0.501961" x="700" y="247" width="34" height="38" />
<rect fill="#5b659a" fill-opacity="0.501961" x="1110" y="425" width="20" height="23" />
<rect fill="#080701" fill-opacity="0.501961" x="1021" y="389" width="82" height="60" />
<rect fill="#070500" fill-opacity="0.501961" x="655" y="222" width="15" height="41" />
<rect fill="#4d5681" fill-opacity="0.501961" x="205" y="567" width="31" height="24" />
<rect fill="#4c5064" fill-opacity="0.501961" x="1068" y="70" width="99" height="84" />
</g>
</svg>