<svg xmlns="http://www.w3.org/2000/svg" version="1.1" width="1200" height="630">
<rect x="0" y="0" width="1200" height="630" fill="#67674b" />
<g transform="scale(1.000000) translate(0.5 0.5)">
<g transform="translate(446 291) rotate(281) scale(588 401)"><rect fill="#f8ffff" fill-opacity="0.501961" x="-0.5" y="-0.5" width="1" height="1" /></g>
<g transform="translate(967 515) rotate(248) scale(456 629)"><rect fill="#000000" fill-opacity="0.501961" x="-0.5" y="-0.5" width="1" height="1" /></g>
<g transform="translate(100 131) rotate(25) scale(288 417)"><rect fill="#000000" fill-opacity="0.501961" x="-0.5" y="-0.5" width="1" height="1" /></g>
<g transform="translate(881 200) rotate(1) scale(334 208)"><rect fill="#fca600" fill-opacity="0.501961" x="-0.5" y="-0.5" width="1" height="1" /></g>
<g transform="translate(1184 231) rotate(86) scale(519 189)"><rect fill="#000000" fill-opacity="0.501961" x="-0.5" y="-0.5" width="1" height="1" /></g>
<g transform="translate(362 296) rotate(24) scale(295 282)"><rect fill="#fae961" fill-opacity="0.501961" x="-0.5" y="-0.5" width="1" height="1" /></g>
<g transform="translate(602 276) rotate(366) scale(137 311)"><rect fill="#9bf8ff" fill-opacity="0.501961" x="-0.5" y="-0.5" width="1" height="1" /></g>
<g transform="translate(731 525) rotate(204) scale(266 437)"><rect fill="#000022" fill-opacity="0.501961" x="-0.5" y="-0.5" width="1" height="1" /></g>
<g transform="translate(980 525) rotate(150) scale(220 136)"><rect fill="#cd8f01" fill-opacity="0.501961" x="-0.5" y="-0.5" width="1" height="1" /></g>
<g transform="translate(696 144) rotate(180) scale(37 323)"><rect fill="#000000" fill-opacity="0.501961" x="-0.5" y="-0.5" width="1" height="1" /></g>
<g transform="translate(412 552) rotate(-14) scale(391 181)"><rect fill="#7cb4d4" fill-opacity="0.501961" x="-0.5" y="-0.5" width="1" height="1" /></g>
<g transform="translate(91 537) rotate(360) scale(231 262)"><rect fill="#663800" fill-opacity="0.501961" x="-0.5" y="-0.5" width="1" height="1" /></g>
<g transform="translate(78 200) rotate(181) scale(230 291)"><rect fill="#00000c" fill-opacity="0.501961" x="-0.5" y="-0.5" width="1" height="1" /></g>
<g transform="translate(114 47) rotate(178) scale(324 258)"><rect fill="#000008" fill-opacity="0.501961" x="-0.5" y="-0.5" width="1" height="1" /></g>
<g transform="translate(981 125) rotate(359) scale(219 357)"><rect fill="#926500" fill-opacity="0.501961" x="-0.5" y="-0.5" width="1" height="1" /></g>
<g transform="translate(580 182) rotate(-5) scale(191 163)"><rect fill="#e7fdff" fill-opacity="0.501961" x="-0.5" y="-0.5" width="1" height="1" /></g>
<g transform="translate(1168 123) rotate(157) scale(170 340)"><rect fill="#000002" fill-opacity="0.501961" x="-0.5" y="-0.5" width="1" height="1" /></g>
<g transform="translate(802 51) rotate(90) scale(155 175)"><rect fill="#9f6700" fill-opacity="0.501961" x="-0.5" y="-0.5" width="1" height="1" /></g>
<g transform="translate(576 387) rotate(113) scale(248 114)"><rect fill="#65c1ff" fill-opacity="0.501961" x="-0.5" y="-0.5" width="1" height="1" /></g>
<g transform="translate(908 369) rotate(269) scale(130 475)"><rect fill="#000521" fill-opacity="0.501961" x="-0.5" y="-0.5" width="1" height="1" /></g>
<g transform="translate(143 418) rotate(179) scale(122 149)"><rect fill="#a99433" fill-opacity="0.501961" x="-0.5" y="-0.5" width="1" height="1" /></g>
<g transform="translate(721 541) rotate(271) scale(10 210)"><rect fill="#ede673" fill-opacity="0.501961" x="-0.5" y="-0.5" width="1" height="1" /></g>
<g transform="translate(351 24) rotate(270) scale(119 147)"><rect fill="#628390" fill-opacity="0.501961" x="-0.5" y="-0.5" width="1" height="1" /></g>
<g transform="translate(649 267) rotate(1) scale(87 14)"><rect fill="#000000" fill-opacity="0.501961" x="-0.5" y="-0.5" width="1" height="1" /></g>
<g transform="translate(60 614) rotate(210) scale(257 143)"><rect fill="#241900" fill-opacity="0.501961" x="-0.5" y="-0.5" width="1" height="1" /></g>
<g transform="translate(546 0) rotate(165) scale(243 138)"><rect fill="#799eae" fill-opacity="0.501961" x="-0.5" y="-0.5" width="1" height="1" /></g>
<g transform="translate(1093 550) rotate(299) scale(145 116)"><rect fill="#775100" fill-opacity="0.501961" x="-0.5" y="-0.5" width="1" height="1" /></g>
<g transform="translate(222 249) rotate(293) scale(97 38)"><rect fill="#e8de8b" fill-opacity="0.501961" x="-0.5" y="-0.5" width="1" height="1" /></g>
<g transform="translate(696 143) rotate(90) scale(285 35)"><rect fill="#00001c" fill-opacity="0.501961" x="-0.5" y="-0.5" width="1" height="1" /></g>
<g transform="translate(634 589) rotate(182) scale(54 84)"><rect fill="#000000" fill-opacity="0.501961" x="-0.5" y="-0.5" width="1" height="1" /></g>
<g transform="translate(1001 70) rotate(0) scale(175 145)"><rect fill="#684b04" fill-opacity="0.501961" x="-0.5" y="-0.5" width="1" height="1" /></g>
<g transform="translate(503 348) rotate(16) scale(46 134)"><rect fill="#fffc81" fill-opacity="0.501961" x="-0.5" y="-0.5" width="1" height="1" /></g>
<g transform="translate(1056 257) rotate(89) scale(92 67)"><rect fill="#bf911b" fill-opacity="0.501961" x="-0.5" y="-0.5" width="1" height="1" /></g>
<g transform="translate(740 277) rotate(90) scale(53 50)"><rect fill="#ffc418" fill-opacity="0.501961" x="-0.5" y="-0.5" width="1" height="1" /></g>
<g transform="translate(1198 469) rotate(85) scale(342 71)"><rect fill="#00000e" fill-opacity="0.501961" x="-0.5" y="-0.5" width="1" height="1" /></g>
<g transform="translate(101 487) rotate(45) scale(236 122)"><rect fill="#7d5b00" fill-opacity="0.501961" x="-0.5" y="-0.5" width="1" height="1" /></g>
<g transform="translate(507 104) rotate(183) scale(341 78)"><rect fill="#a6cad1" fill-opacity="0.501961" x="-0.5" y="-0.5" width="1" height="1" /></g>
<g transform="translate(309 427) rotate(25) scale(181 64)"><rect fill="#ccbf5d" fill-opacity="0.501961" x="-0.5" y="-0.5" width="1" height="1" /></g>
<g transform="translate(866 253) rotate(91) scale(96 290)"><rect fill="#d4a21d" fill-opacity="0.501961" x="-0.5" y="-0.5" width="1" height="1" /></g>
<g transform="translate(219 439) rotate(39) scale(36 52)"><rect fill="#addaf2" fill-opacity="0.501961" x="-0.5" y="-0.5" width="1" height="1" /></g>
<g transform="translate(880 587) rotate(180) scale(33 158)"><rect fill="#a87a0a" fill-opacity="0.501961" x="-0.5" y="-0.5" width="1" height="1" /></g>
<g transform="translate(312 88) rotate(91) scale(182 66)"><rect fill="#869996" fill-opacity="0.501961" x="-0.5" y="-0.5" width="1" height="1" /></g>
<g transform="translate(586 503) rotate(180) scale(44 149)"><rect fill="#67b2e3" fill-opacity="0.501961" x="-0.5" y="-0.5" width="1" height="1" /></g>
<g transform="translate(93 81) rotate(378) scale(310 228)"><rect fill="#000615" fill-opacity="0.501961" x="-0.5" y="-0.5" width="1" height="1" /></g>
<g transform="translate(1076 435) rotate(390) scale(325 36)"><rect fill="#000419" fill-opacity="0.501961" x="-0.5" y="-0.5" width="1" height="1" /></g>
<g transform="translate(565 623) rotate(189) scale(67 33)"><rect fill="#000000" fill-opacity="0.501961" x="-0.5" y="-0.5" width="1" height="1" /></g>
<g transform="translate(480 213) rotate(148) scale(43 145)"><rect fill="#ebde71" fill-opacity="0.501961" x="-0.5" y="-0.5" width="1" height="1" /></g>
<g transform="translate(982 629) rotate(257) scale(138 185)"><rect fill="#634705" fill-opacity="0.501961" x="-0.5" y="-0.5" width="1" height="1" /></g>
<g transform="translate(642 429) rotate(310) scale(80 30)"><rect fill="#000113" fill-opacity="0.501961" x="-0.5" y="-0.5" width="1" height="1" /></g>
<g transform="translate(191 242) rotate(84) scale(11 33)"><rect fill="#9deeff" fill-opacity="0.501961" x="-0.5" y="-0.5" width="1" height="1" /></g>
<g transform="translate(1168 168) rotate(0) scale(157 346)"><rect fill="#000416" fill-opacity="0.501961" x="-0.5" y="-0.5" width="1" height="1" /></g>
<g transform="translate(445 513) rotate(365) scale(204 57)"><rect fill="#c4d9d3" fill-opacity="0.501961" x="-0.5" y="-0.5" width="1" height="1" /></g>
<g transform="translate(294 198) rotate(51) scale(88 114)"><rect fill="#c1b668" fill-opacity="0.501961" x="-0.5" y="-0.5" width="1" height="1" /></g>
<g transform="translate(649 328) rotate(188) scale(25 120)"><rect fill="#8dd9ff" fill-opacity="0.501961" x="-0.5" y="-0.5" width="1" height="1" /></g>
<g transform="translate(887 0) rotate(188) scale(335 85)"><rect fill="#573f03" fill-opacity="0.501961" x="-0.5" y="-0.5" width="1" height="1" /></g>
<g transform="translate(431 0) rotate(86) scale(68 266)"><rect fill="#6a7979" fill-opacity="0.501961" x="-0.5" y="-0.5" width="1" height="1" /></g>
<g transform="translate(246 332) rotate(166) scale(89 121)"><rect fill="#c8bf76" fill-opacity="0.501961" x="-0.5" y="-0.5" width="1" height="1" /></g>
<g transform="translate(905 459) rotate(329) scale(230 50)"><rect fill="#000c1e" fill-opacity="0.501961" x="-0.5" y="-0.5" width="1" height="1" /></g>
<g transform="translate(232 179) rotate(313) scale(128 19)"><rect fill="#00001b" fill-opacity="0.501961" x="-0.5" y="-0.5" width="1" height="1" /></g>
<g transform="translate(82 306) rotate(0) scale(218 72)"><rect fill="#00081e" fill-opacity="0.501961" x="-0.5" y="-0.5" width="1" height="1" /></g>
<g transform="translate(521 186) rotate(219) scale(213 39)"><rect fill="#d1f4fb" fill-opacity="0.501961" x="-0.5" y="-0.5" width="1" height="1" /></g>
<g transform="translate(206 397) rotate(175) scale(13 44)"><rect fill="#000010" fill-opacity="0.501961" x="-0.5" y="-0.5" width="1" height="1" /></g>
<g transform="translate(953 487) rotate(59) scale(42 188)"><rect fill="#ad8319" fill-opacity="0.501961" x="-0.5" y="-0.5" width="1" height="1" /></g>
<g transform="translate(575 550) rotate(361) scale(64 117)"><rect fill="#5b96ba" fill-opacity="0.501961" x="-0.5" y="-0.5" width="1" height="1" /></g>
<g transform="translate(686 297) rotate(266) scale(75 34)"><rect fill="#000c27" fill-opacity="0.501961" x="-0.5" y="-0.5" width="1" height="1" /></g>
<g transform="translate(480 450) rotate(318) scale(120 29)"><rect fill="#63baf8" fill-opacity="0.501961" x="-0.5" y="-0.5" width="1" height="1" /></g>
<g transform="translate(850 574) rotate(361) scale(26 121)"><rect fill="#000012" fill-opacity="0.501961" x="-0.5" y="-0.5" width="1" height="1" /></g>
<g transform="translate(240 587) rotate(269) scale(151 64)"><rect fill="#747d7f" fill-opacity="0.501961" x="-0.5" y="-0.5" width="1" height="1" /></g>
<g transform="translate(466 588) rotate(113) scale(71 144)"><rect fill="#96a29d" fill-opacity="0.501961" x="-0.5" y="-0.5" width="1" height="1" /></g>
<g transform="translate(313 543) rotate(104) scale(78 205)"><rect fill="#96a5a1" fill-opacity="0.501961" x="-0.5" y="-0.5" width="1" height="1" /></g>
<g transform="translate(386 161) rotate(-78) scale(51 102)"><rect fill="#c8bb5f" fill-opacity="0.501961" x="-0.5" y="-0.5" width="1" height="1" /></g>
<g transform="translate(459 303) rotate(-92) scale(152 132)"><rect fill="#f4e788" fill-opacity="0.501961" x="-0.5" y="-0.5" width="1" height="1" /></g>
<g transform="translate(847 98) rotate(109) scale(100 250)"><rect fill="#9e7912" fill-opacity="0.501961" x="-0.5" y="-0.5" width="1" height="1" /></g>
<g transform="translate(631 267) rotate(171) scale(48 12)"><rect fill="#00000a" fill-opacity="0.501961" x="-0.5" y="-0.5" width="1" height="1" /></g>
<g transform="translate(134 361) rotate(181) scale(141 35)"><rect fill="#8b8d5f" fill-opacity="0.501961" x="-0.5" y="-0.5" width="1" height="1" /></g>
<g transform="translate(734 591) rotate(181) scale(250 81)"><rect fill="#000813" fill-opacity="0.501961" x="-0.5" y="-0.5" width="1" height="1" /></g>
<g transform="translate(632 35) rotate(184) scale(90 80)"><rect fill="#90a9b0" fill-opacity="0.501961" x="-0.5" y="-0.5" width="1" height="1" /></g>
<g transform="translate(1148 613) rotate(-22) scale(165 75)"><rect fill="#1e1200" fill-opacity="0.501961" x="-0.5" y="-0.5" width="1" height="1" /></g>
<g transform="translate(284 629) rotate(102) scale(54 153)"><rect fill="#5b6262" fill-opacity="0.501961" x="-0.5" y="-0.5" width="1" height="1" /></g>
<g transform="translate(559 295) rotate(267) scale(69 49)"><rect fill="#79c8ff" fill-opacity="0.501961" x="-0.5" y="-0.5" width="1" height="1" /></g>
<g transform="translate(1040 188) rotate(270) scale(204 100)"><rect fill="#926f15" fill-opacity="0.501961" x="-0.5" y="-0.5" width="1" height="1" /></g>
<g transform="translate(660 233) rotate(91) scale(51 38)"><rect fill="#edffff" fill-opacity="0.501961" x="-0.5" y="-0.5" width="1" height="1" /></g>
<g transform="translate(838 314) rotate(269) scale(21 171)"><rect fill="#000d21" fill-opacity="0.501961" x="-0.5" y="-0.5" width="1" height="1" /></g>
<g transform="translate(1085 483) rotate(211) scale(123 34)"><rect fill="#906c13" fill-opacity="0.501961" x="-0.5" y="-0.5" width="1" height="1" /></g>
<g transform="translate(41 622) rotate(209) scale(146 63)"><rect fill="#191300" fill-opacity="0.501961" x="-0.5" y="-0.5" width="1" height="1" /></g>
<g transform="translate(435 447) rotate(62) scale(21 120)"><rect fill="#e3d46e" fill-opacity="0.501961" x="-0.5" y="-0.5" width="1" height="1" /></g>
<g transform="translate(78 228) rotate(172) scale(188 210)"><rect fill="#000f1c" fill-opacity="0.501961" x="-0.5" y="-0.5" width="1" height="1" /></g>
<g transform="translate(616 415) rotate(216) scale(24 96)"><rect fill="#87ccff" fill-opacity="0.501961" x="-0.5" y="-0.5" width="1" height="1" /></g>
<g transform="translate(1041 363) rotate(364) scale(154 111)"><rect fill="#00101d" fill-opacity="0.501961" x="-0.5" y="-0.5" width="1" height="1" /></g>
<g transform="translate(255 469) rotate(130) scale(47 131)"><rect fill="#a3c3c8" fill-opacity="0.501961" x="-0.5" y="-0.5" width="1" height="1" /></g>
<g transform="translate(664 398) rotate(294) scale(101 32)"><rect fill="#001625" fill-opacity="0.501961" x="-0.5" y="-0.5" width="1" height="1" /></g>
<g transform="translate(75 543) rotate(32) scale(280 61)"><rect fill="#564206" fill-opacity="0.501961" x="-0.5" y="-0.5" width="1" height="1" /></g>
<g transform="translate(324 117) rotate(252) scale(35 84)"><rect fill="#9dbed1" fill-opacity="0.501961" x="-0.5" y="-0.5" width="1" height="1" /></g>
<g transform="translate(856 186) rotate(290) scale(86 273)"><rect fill="#b88c18" fill-opacity="0.501961" x="-0.5" y="-0.5" width="1" height="1" /></g>
<g transform="translate(263 120) rotate(182) scale(31 76)"><rect fill="#00061c" fill-opacity="0.501961" x="-0.5" y="-0.5" width="1" height="1" /></g>
<g transform="translate(591 232) rotate(356) scale(132 52)"><rect fill="#e2feff" fill-opacity="0.501961" x="-0.5" y="-0.5" width="1" height="1" /></g>
<g transform="translate(1127 559) rotate(90) scale(94 92)"><rect fill="#584106" fill-opacity="0.501961" x="-0.5" y="-0.5" width="1" height="1" /></g>
<g transform="translate(117 441) rotate(120) scale(57 179)"><rect fill="#936a0d" fill-opacity="0.501961" x="-0.5" y="-0.5" width="1" height="1" /></g>
<g transform="translate(692 78) rotate(180) scale(24 173)"><rect fill="#000917" fill-opacity="0.501961" x="-0.5" y="-0.5" width="1" height="1" /></g>
<g transform="translate(833 542) rotate(87) scale(11 15)"><rect fill="#c8c464" fill-opacity="0.501961" x="-0.5" y="-0.5" width="1" height="1" /></g>
</g>
</svg>