<svg xmlns="http://www.w3.org/2000/svg" version="1.1" width="1200" height="630">
<rect x="0" y="0" width="1200" height="630" fill="#343a44" />
<g transform="scale(1.000000) translate(0.5 0.5)">
<polygon fill="#d6e9ef" fill-opacity="0.501961" points="956.730071,403.236764,972.981165,497.154206,587.139334,551.214332,826.763936,283.301138" />
<polygon fill="#ffffef" fill-opacity="0.501961" points="545.624935,164.741855,463.533868,63.895300,347.544200,94.584149,486.322993,290.465313" />
<polygon fill="#fff7c6" fill-opacity="0.501961" points="490.985045,563.786401,382.287367,412.477770,224.143969,527.085645,361.417790,645.000000" />
<polygon fill="#ffffc6" fill-opacity="0.501961" points="899.212213,312.392878,731.173950,204.808343,854.035860,134.462769,947.976211,232.378579" />
<polygon fill="#cbccce" fill-opacity="0.501961" points="287.811855,303.279514,481.226762,546.268965,334.727249,498.564886,385.296508,268.241483" />
<polygon fill="#000001" fill-opacity="0.501961" points="846.719497,148.207397,-1.304539,2.559728,1200.207644,-16.000000,1215.000000,310.347742" />
<polygon fill="#ffddb3" fill-opacity="0.501961" points="537.365370,246.155354,467.073147,275.221157,377.127482,69.866633,516.254816,107.658587" />
<polygon fill="#031230" fill-opacity="0.501961" points="498.888744,645.000000,839.496152,238.860295,869.853514,235.444508,475.889927,270.043580" />
<polygon fill="#71add8" fill-opacity="0.501961" points="800.248100,585.021359,674.431976,504.955919,747.587906,376.045079,883.722302,451.111099" />
<polygon fill="#00000b" fill-opacity="0.501961" points="254.296199,456.966642,-16.000000,354.703393,-16.000000,-3.009406,381.966059,-16.000000" />
<polygon fill="#668291" fill-opacity="0.501961" points="-16.000000,445.674603,137.501517,567.346003,298.705318,513.829562,228.345020,437.408315" />
<polygon fill="#ffdda6" fill-opacity="0.501961" points="820.604725,378.725176,908.044533,500.688769,974.696260,450.341912,864.695997,312.325777" />
<polygon fill="#010e29" fill-opacity="0.501961" points="772.474553,134.291406,485.031976,58.367041,574.353786,257.933067,748.311814,254.499400" />
<polygon fill="#24557f" fill-opacity="0.501961" points="629.234299,515.836665,701.607594,441.293386,700.784931,594.622199,469.725885,537.995903" />
<polygon fill="#3485c5" fill-opacity="0.501961" points="1075.398672,241.003708,1072.681683,382.561899,1024.781783,328.230357,938.540645,228.352906" />
<polygon fill="#cdaa82" fill-opacity="0.501961" points="899.659629,602.317955,912.114673,628.607826,764.678755,643.781154,818.420615,576.330670" />
<polygon fill="#c7a37b" fill-opacity="0.501961" points="64.324076,422.569197,28.799084,367.672821,-16.000000,362.830958,3.561863,488.744566" />
<polygon fill="#000001" fill-opacity="0.501961" points="-16.000000,479.454334,201.936376,584.619232,220.666911,630.096858,-15.885932,645.000000" />
<polygon fill="#eebd96" fill-opacity="0.501961" points="933.300352,222.194783,737.203552,248.667198,790.324415,158.167224,898.268952,154.288484" />
<polygon fill="#000318" fill-opacity="0.501961" points="970.118417,445.987478,896.765447,312.732826,944.562573,247.289993,1215.000000,525.324768" />
<polygon fill="#242d41" fill-opacity="0.501961" points="889.271454,301.799553,823.439634,346.746313,842.674556,440.522648,686.005149,278.633174" />
<polygon fill="#05060e" fill-opacity="0.501961" points="866.952024,477.958619,842.122792,509.057769,916.533825,634.752524,990.903988,530.752477" />
<polygon fill="#7dabcb" fill-opacity="0.501961" points="377.187486,352.028920,572.776071,218.836574,394.367859,314.914789,195.225548,514.219272" />
<polygon fill="#00030e" fill-opacity="0.501961" points="1215.000000,559.053767,961.096893,450.949744,1146.126886,639.027468,1213.464773,640.413027" />
<polygon fill="#9b7c51" fill-opacity="0.501961" points="928.135046,617.567425,971.381404,639.487774,1115.836881,585.532733,1005.298901,515.321162" />
<polygon fill="#cad9e1" fill-opacity="0.501961" points="815.521501,301.852019,752.906530,385.167492,852.467479,209.361096,795.686417,422.419097" />
<polygon fill="#cead8d" fill-opacity="0.501961" points="418.612075,64.426762,326.210762,109.211401,422.418420,172.937881,495.141054,90.818218" />
<polygon fill="#ecc494" fill-opacity="0.501961" points="856.116263,570.668435,860.384008,611.217779,906.569533,414.519667,872.240195,495.487974" />
<polygon fill="#00000f" fill-opacity="0.501961" points="1215.000000,486.026479,1169.753058,458.230309,1097.078409,258.586554,1196.181226,-16.000000" />
<polygon fill="#0d1b33" fill-opacity="0.501961" points="452.666040,238.979001,423.309176,180.207805,296.677331,79.624635,114.030200,354.770235" />
<polygon fill="#000316" fill-opacity="0.501961" points="657.341556,633.106648,705.086190,522.760532,812.332967,592.107940,739.666040,644.958826" />
<polygon fill="#d9b996" fill-opacity="0.501961" points="1085.271595,263.340962,1171.424921,485.545394,1138.501842,373.683474,1077.833616,220.697695" />
<polygon fill="#000009" fill-opacity="0.501961" points="633.238593,645.000000,397.965893,631.482589,504.321878,549.518734,602.994444,547.404951" />
<polygon fill="#3e91d3" fill-opacity="0.501961" points="395.640362,260.057777,363.134086,358.084582,282.474881,326.474096,303.692972,291.044238" />
<polygon fill="#896e60" fill-opacity="0.501961" points="330.987552,645.000000,372.373645,645.000000,452.760777,588.786930,227.724701,528.179449" />
<polygon fill="#000000" fill-opacity="0.501961" points="667.180745,511.319670,709.631558,439.972695,661.631257,485.224540,622.718430,524.227657" />
<polygon fill="#152846" fill-opacity="0.501961" points="845.157010,325.299818,923.844037,348.586317,841.810680,252.501909,811.303654,372.666322" />
<polygon fill="#040d1c" fill-opacity="0.501961" points="888.182323,-16.000000,1215.000000,-10.580737,1155.905332,238.020873,929.578377,232.605578" />
<polygon fill="#fdc688" fill-opacity="0.501961" points="268.184187,458.482220,246.646273,468.742345,312.966376,392.591748,369.905484,342.099733" />
<polygon fill="#f1be97" fill-opacity="0.501961" points="837.605529,228.453091,931.215150,224.979272,922.462945,284.501921,886.247168,317.175307" />
<polygon fill="#04060f" fill-opacity="0.501961" points="166.189376,423.371753,100.054141,470.056165,62.463839,430.665240,34.898452,368.245221" />
<polygon fill="#00000d" fill-opacity="0.501961" points="1081.737686,263.795866,1119.985863,354.310567,1167.407207,483.366978,1068.496589,378.063723" />
<polygon fill="#95c2e2" fill-opacity="0.501961" points="404.336772,245.765269,423.892864,179.020408,402.808202,205.764592,387.471854,280.797076" />
<polygon fill="#6c583e" fill-opacity="0.501961" points="-12.270019,467.758488,126.170456,587.414791,91.474027,457.175205,98.325112,417.062093" />
<polygon fill="#78a7c7" fill-opacity="0.501961" points="612.232772,533.390417,479.782918,533.912484,468.057604,546.914779,589.475130,546.349655" />
<polygon fill="#3b6c92" fill-opacity="0.501961" points="214.861786,606.699030,127.863142,439.626529,223.297968,436.354572,271.804571,602.441437" />
<polygon fill="#fcd2b0" fill-opacity="0.501961" points="954.819201,413.025135,904.560674,347.547532,841.839001,327.898868,816.654767,380.534824" />
<polygon fill="#a5d5fa" fill-opacity="0.501961" points="867.552264,334.798910,833.411504,230.100562,850.984998,255.546679,874.128676,325.773873" />
<polygon fill="#000b25" fill-opacity="0.501961" points="323.775760,381.565192,352.785766,352.917355,276.948490,323.912079,256.713782,450.289542" />
<polygon fill="#286698" fill-opacity="0.501961" points="624.236495,611.228285,655.357365,631.838268,718.930765,498.712431,599.413596,542.457547" />
<polygon fill="#03102b" fill-opacity="0.501961" points="476.827141,283.109963,368.128181,426.197717,364.144255,395.810814,493.008915,532.835333" />
<polygon fill="#beac9c" fill-opacity="0.501961" points="553.538234,380.117445,504.159062,362.338050,495.113186,353.902777,435.347245,311.883432" />
<polygon fill="#00000c" fill-opacity="0.501961" points="826.606282,387.661959,810.248104,376.338249,799.951735,406.729345,841.038119,424.599530" />
<polygon fill="#000413" fill-opacity="0.501961" points="1009.205315,507.764107,912.910124,626.641600,974.900438,461.854074,1060.030121,549.688729" />
<polygon fill="#101b30" fill-opacity="0.501961" points="588.731855,267.751910,528.146424,223.794563,542.063131,-15.920081,970.459193,71.595413" />
<polygon fill="#dcb191" fill-opacity="0.501961" points="384.833680,413.033718,439.665425,490.520208,484.086650,564.243450,241.428169,515.526637" />
<polygon fill="#030d23" fill-opacity="0.501961" points="258.876807,462.239851,272.848742,491.838291,352.376719,436.580802,348.259452,375.740733" />
<polygon fill="#000000" fill-opacity="0.501961" points="1111.335656,591.449838,1102.241576,576.010914,1215.000000,626.780950,1068.362961,645.000000" />
<polygon fill="#08111e" fill-opacity="0.501961" points="61.648594,19.565666,692.323970,-16.000000,368.427294,83.271001,-16.000000,381.305232" />
<polygon fill="#a0c5dd" fill-opacity="0.501961" points="838.684304,390.583042,781.127440,345.363752,641.826375,486.269050,785.257368,363.712904" />
<polygon fill="#060816" fill-opacity="0.501961" points="794.136824,340.842837,824.806565,283.744875,792.965603,395.169010,781.236013,395.595666" />
<polygon fill="#081935" fill-opacity="0.501961" points="752.139318,374.422047,645.165548,480.294947,826.985881,233.948128,781.210512,344.098703" />
<polygon fill="#ebbb7b" fill-opacity="0.501961" points="350.062981,372.072169,353.626604,436.535772,367.823750,446.975253,362.135004,342.763122" />
<polygon fill="#2d5065" fill-opacity="0.501961" points="1119.320451,529.124518,1146.373251,608.667090,1215.000000,458.406897,1126.533337,505.754775" />
<polygon fill="#000012" fill-opacity="0.501961" points="819.666199,555.753703,877.617243,465.715977,864.403508,525.872912,850.456355,588.428849" />
<polygon fill="#151d2e" fill-opacity="0.501961" points="79.526589,236.063337,246.168531,75.832537,417.096956,169.138577,382.047424,280.854561" />
<polygon fill="#3283c9" fill-opacity="0.501961" points="552.909654,236.523929,521.676735,222.687589,510.031218,245.180704,394.952610,336.684650" />
<polygon fill="#e7caae" fill-opacity="0.501961" points="347.960960,99.211778,339.571874,115.795008,406.002584,164.550527,553.946675,246.062527" />
<polygon fill="#ffdeaa" fill-opacity="0.501961" points="845.138611,216.986441,804.100499,361.510678,771.581387,353.913063,809.681245,377.132407" />
<polygon fill="#141e2f" fill-opacity="0.501961" points="952.865530,211.300355,1215.000000,264.571726,987.359378,72.068780,842.144193,127.969106" />
<polygon fill="#cda88c" fill-opacity="0.501961" points="833.502626,410.975017,921.517057,507.346997,960.425908,504.557939,970.269637,453.769537" />
<polygon fill="#2c4e6a" fill-opacity="0.501961" points="105.268692,483.786356,221.870584,520.700119,108.285998,597.056415,66.751845,557.378860" />
<polygon fill="#f4d3b3" fill-opacity="0.501961" points="490.564586,90.825235,526.205387,134.246799,528.206051,210.378244,463.030894,284.260032" />
<polygon fill="#000000" fill-opacity="0.501961" points="322.879750,645.000000,233.450697,645.000000,281.542187,583.688426,282.225883,585.651459" />
<polygon fill="#76aad0" fill-opacity="0.501961" points="599.141805,546.622231,605.872820,520.839872,682.746163,444.287619,703.046161,442.938034" />
<polygon fill="#d1c2b4" fill-opacity="0.501961" points="395.118541,245.974861,425.700835,294.277734,493.140939,351.919441,426.453576,303.675917" />
<polygon fill="#59482b" fill-opacity="0.501961" points="-16.000000,84.882075,0.805667,30.878789,81.053917,-16.000000,56.420053,65.521080" />
<polygon fill="#001130" fill-opacity="0.501961" points="391.313570,277.124453,366.836597,340.602482,402.484214,317.089793,428.524908,299.532866" />
<polygon fill="#000008" fill-opacity="0.501961" points="140.983156,577.320738,25.917043,645.000000,224.281817,638.548884,180.280307,546.383107" />
<polygon fill="#b49f8a" fill-opacity="0.501961" points="525.171411,144.130819,467.163747,76.779327,402.201475,69.242328,360.255994,88.689067" />
<polygon fill="#172236" fill-opacity="0.501961" points="838.371855,238.598365,750.208495,244.376028,772.579059,87.956811,602.220631,528.645146" />
<polygon fill="#708ea4" fill-opacity="0.501961" points="811.683973,587.639903,705.064243,527.138862,726.614299,489.982640,850.361481,454.280465" />
<polygon fill="#060f1e" fill-opacity="0.501961" points="866.093580,594.356068,890.896250,484.983452,946.062545,518.583077,935.761884,605.747210" />
<polygon fill="#7d6445" fill-opacity="0.501961" points="82.587674,465.904343,106.634360,406.080877,40.414465,474.246522,26.595411,581.396010" />
<polygon fill="#82b0d3" fill-opacity="0.501961" points="746.209001,382.119395,671.615386,504.212948,692.745691,509.079943,812.723458,304.988649" />
<polygon fill="#5284ab" fill-opacity="0.501961" points="1099.602373,501.940118,946.483380,431.876934,974.819260,455.727658,1028.814993,478.019343" />
<polygon fill="#03091c" fill-opacity="0.501961" points="831.957645,333.400706,860.209050,326.497560,843.045090,259.039564,811.704906,366.952517" />
<polygon fill="#d6b996" fill-opacity="0.501961" points="771.758564,177.463927,817.095964,148.665023,855.539459,241.239615,747.542364,238.592746" />
<polygon fill="#07101c" fill-opacity="0.501961" points="1165.334749,477.111279,1115.873652,355.563686,991.271043,451.960062,1131.136539,511.090408" />
<polygon fill="#000f2b" fill-opacity="0.501961" points="368.375590,424.296450,380.428453,414.865824,450.550046,312.699368,366.880947,356.694188" />
<polygon fill="#ab9e8f" fill-opacity="0.501961" points="1045.727146,235.576074,1074.609465,242.585644,1127.639453,355.066787,1087.738714,239.850490" />
<polygon fill="#00030a" fill-opacity="0.501961" points="8.338103,644.567604,67.407756,493.339378,80.208553,580.133996,144.715165,554.671062" />
<polygon fill="#121f32" fill-opacity="0.501961" points="1069.598443,381.270458,953.774064,243.097030,927.235598,246.222168,949.863593,414.378833" />
<polygon fill="#0b1730" fill-opacity="0.501961" points="401.988446,245.599039,428.436023,183.043132,463.496733,275.237884,424.854306,292.479833" />
<polygon fill="#eacaae" fill-opacity="0.501961" points="849.756571,438.553637,923.059138,425.365460,833.388978,330.145267,824.746813,381.011720" />
<polygon fill="#346284" fill-opacity="0.501961" points="788.365090,637.967765,758.377161,614.543037,589.801288,532.139170,636.386830,566.141387" />
<polygon fill="#1c263a" fill-opacity="0.501961" points="512.952401,275.185224,647.642548,110.635534,747.493424,91.067591,756.510714,371.773137" />
<polygon fill="#8f7c64" fill-opacity="0.501961" points="1052.772497,544.933418,945.229616,599.320199,978.805644,549.557578,1007.870457,509.503881" />
<polygon fill="#171f30" fill-opacity="0.501961" points="896.270427,134.644633,782.062188,161.484808,750.582458,217.454905,435.089276,62.748533" />
<polygon fill="#a48b77" fill-opacity="0.501961" points="265.533190,497.867690,232.536528,515.219068,311.786111,626.499203,478.309309,568.885677" />
</g>
</svg>