<svg xmlns="http://www.w3.org/2000/svg" version="1.1" width="1200" height="630">
<rect x="0" y="0" width="1200" height="630" fill="#3c3b3c" />
<g transform="scale(1.000000) translate(0.5 0.5)">
<rect fill="#efefef" fill-opacity="0.501961" x="741" y="36" width="215" height="356" />
<rect fill="#dfe0df" fill-opacity="0.501961" x="952" y="323" width="198" height="197" />
<rect fill="#e6e7e6" fill-opacity="0.501961" x="292" y="465" width="139" height="133" />
<rect fill="#000000" fill-opacity="0.501961" x="945" y="0" width="255" height="220" />
<rect fill="#080606" fill-opacity="0.501961" x="170" y="179" width="623" height="132" />
<rect fill="#8c8d8c" fill-opacity="0.501961" x="626" y="271" width="175" height="159" />
<rect fill="#ebeceb" fill-opacity="0.501961" x="956" y="223" width="44" height="100" />
<rect fill="#010000" fill-opacity="0.501961" x="409" y="349" width="218" height="164" />
<rect fill="#020101" fill-opacity="0.501961" x="149" y="310" width="180" height="170" />
<rect fill="#cdcecd" fill-opacity="0.501961" x="728" y="101" width="210" height="107" />
<rect fill="#888989" fill-opacity="0.501961" x="71" y="450" width="131" height="127" />
<rect fill="#110f0f" fill-opacity="0.501961" x="759" y="362" width="87" height="178" />
<rect fill="#787878" fill-opacity="0.501961" x="838" y="478" width="213" height="110" />
<rect fill="#b1b1b1" fill-opacity="0.501961" x="266" y="502" width="184" height="67" />
<rect fill="#000000" fill-opacity="0.501961" x="0" y="0" width="723" height="181" />
<rect fill="#6f6f6f" fill-opacity="0.501961" x="1090" y="368" width="110" height="185" />
<rect fill="#e7e8e7" fill-opacity="0.501961" x="342" y="443" width="47" height="59" />
<rect fill="#000000" fill-opacity="0.501961" x="412" y="584" width="788" height="46" />
<rect fill="#000000" fill-opacity="0.501961" x="915" y="0" width="285" height="61" />
<rect fill="#000000" fill-opacity="0.501961" x="728" y="188" width="42" height="88" />
<rect fill="#cbcbcb" fill-opacity="0.501961" x="996" y="332" width="127" height="112" />
<rect fill="#000000" fill-opacity="0.501961" x="0" y="338" width="54" height="292" />
<rect fill="#c7c8c7" fill-opacity="0.501961" x="799" y="170" width="116" height="182" />
<rect fill="#000000" fill-opacity="0.501961" x="197" y="558" width="105" height="72" />
<rect fill="#8d8e8d" fill-opacity="0.501961" x="775" y="12" width="127" height="61" />
<rect fill="#080607" fill-opacity="0.501961" x="460" y="453" width="366" height="98" />
<rect fill="#000000" fill-opacity="0.501961" x="996" y="270" width="61" height="60" />
<rect fill="#000000" fill-opacity="0.501961" x="760" y="223" width="37" height="64" />
<rect fill="#747474" fill-opacity="0.501961" x="660" y="263" width="142" height="178" />
<rect fill="#434343" fill-opacity="0.501961" x="1072" y="436" width="128" height="84" />
<rect fill="#8b8b8b" fill-opacity="0.501961" x="318" y="542" width="78" height="84" />
<rect fill="#989998" fill-opacity="0.501961" x="810" y="69" width="152" height="73" />
<rect fill="#000000" fill-opacity="0.501961" x="962" y="374" width="20" height="32" />
<rect fill="#060405" fill-opacity="0.501961" x="0" y="349" width="90" height="116" />
<rect fill="#100e0f" fill-opacity="0.501961" x="783" y="412" width="105" height="90" />
<rect fill="#6c6d6c" fill-opacity="0.501961" x="899" y="456" width="100" height="138" />
<rect fill="#b2b2b2" fill-opacity="0.501961" x="420" y="547" width="134" height="12" />
<rect fill="#c1c2c1" fill-opacity="0.501961" x="865" y="352" width="47" height="52" />
<rect fill="#000000" fill-opacity="0.501961" x="114" y="337" width="44" height="105" />
<rect fill="#a6a6a6" fill-opacity="0.501961" x="293" y="351" width="73" height="14" />
<rect fill="#060405" fill-opacity="0.501961" x="0" y="0" width="733" height="112" />
<rect fill="#090708" fill-opacity="0.501961" x="196" y="429" width="111" height="65" />
<rect fill="#a9a9a9" fill-opacity="0.501961" x="1121" y="371" width="79" height="38" />
<rect fill="#777877" fill-opacity="0.501961" x="808" y="530" width="98" height="56" />
<rect fill="#626362" fill-opacity="0.501961" x="1061" y="222" width="100" height="101" />
<rect fill="#bbbbbb" fill-opacity="0.501961" x="369" y="342" width="70" height="11" />
<rect fill="#565756" fill-opacity="0.501961" x="11" y="151" width="142" height="182" />
<rect fill="#a8a8a8" fill-opacity="0.501961" x="532" y="317" width="111" height="12" />
<rect fill="#050203" fill-opacity="0.501961" x="449" y="568" width="233" height="62" />
<rect fill="#eeeeee" fill-opacity="0.501961" x="758" y="170" width="41" height="30" />
<rect fill="#b2b2b2" fill-opacity="0.501961" x="449" y="329" width="88" height="11" />
<rect fill="#f9faf9" fill-opacity="0.501961" x="724" y="131" width="18" height="33" />
<rect fill="#b9bab9" fill-opacity="0.501961" x="253" y="512" width="39" height="31" />
<rect fill="#000000" fill-opacity="0.501961" x="209" y="522" width="47" height="108" />
<rect fill="#636362" fill-opacity="0.501961" x="39" y="476" width="166" height="110" />
<rect fill="#000000" fill-opacity="0.501961" x="329" y="361" width="82" height="77" />
<rect fill="#a6a7a6" fill-opacity="0.501961" x="614" y="562" width="111" height="9" />
<rect fill="#000000" fill-opacity="0.501961" x="723" y="0" width="84" height="21" />
<rect fill="#000000" fill-opacity="0.501961" x="991" y="316" width="11" height="38" />
<rect fill="#070506" fill-opacity="0.501961" x="847" y="407" width="109" height="35" />
<rect fill="#000000" fill-opacity="0.501961" x="328" y="311" width="150" height="22" />
<rect fill="#b3b4b3" fill-opacity="0.501961" x="200" y="504" width="53" height="13" />
<rect fill="#b7b7b7" fill-opacity="0.501961" x="977" y="397" width="117" height="67" />
<rect fill="#000000" fill-opacity="0.501961" x="1084" y="547" width="43" height="83" />
<rect fill="#000000" fill-opacity="0.501961" x="0" y="595" width="93" height="35" />
<rect fill="#000000" fill-opacity="0.501961" x="136" y="610" width="187" height="20" />
<rect fill="#000000" fill-opacity="0.501961" x="752" y="262" width="46" height="23" />
<rect fill="#d7d7d7" fill-opacity="0.501961" x="780" y="198" width="111" height="24" />
<rect fill="#7a7a7a" fill-opacity="0.501961" x="695" y="257" width="45" height="201" />
<rect fill="#b9b9b8" fill-opacity="0.501961" x="547" y="556" width="78" height="8" />
<rect fill="#000000" fill-opacity="0.501961" x="623" y="271" width="38" height="25" />
<rect fill="#d6d6d6" fill-opacity="0.501961" x="388" y="487" width="32" height="26" />
<rect fill="#000000" fill-opacity="0.501961" x="723" y="175" width="25" height="34" />
<rect fill="#929392" fill-opacity="0.501961" x="707" y="568" width="105" height="10" />
<rect fill="#939393" fill-opacity="0.501961" x="279" y="505" width="45" height="75" />
<rect fill="#090708" fill-opacity="0.501961" x="1006" y="61" width="54" height="190" />
<rect fill="#e6e6e6" fill-opacity="0.501961" x="360" y="435" width="16" height="33" />
<rect fill="#444444" fill-opacity="0.501961" x="1130" y="223" width="70" height="127" />
<rect fill="#1c1a1b" fill-opacity="0.501961" x="438" y="422" width="216" height="104" />
<rect fill="#b9b9b9" fill-opacity="0.501961" x="735" y="77" width="86" height="103" />
<rect fill="#747575" fill-opacity="0.501961" x="624" y="309" width="183" height="106" />
<rect fill="#c7c8c7" fill-opacity="0.501961" x="415" y="338" width="62" height="7" />
<rect fill="#7c7c7c" fill-opacity="0.501961" x="926" y="437" width="40" height="77" />
<rect fill="#4d4d4d" fill-opacity="0.501961" x="957" y="560" width="136" height="39" />
<rect fill="#000000" fill-opacity="0.501961" x="233" y="482" width="49" height="26" />
<rect fill="#888888" fill-opacity="0.501961" x="748" y="27" width="174" height="56" />
<rect fill="#b7b8b7" fill-opacity="0.501961" x="429" y="532" width="28" height="40" />
<rect fill="#000000" fill-opacity="0.501961" x="807" y="357" width="19" height="35" />
<rect fill="#171415" fill-opacity="0.501961" x="139" y="41" width="517" height="168" />
<rect fill="#b6b5b6" fill-opacity="0.501961" x="324" y="461" width="72" height="52" />
<rect fill="#0d0c0d" fill-opacity="0.501961" x="662" y="492" width="133" height="72" />
<rect fill="#a2a2a2" fill-opacity="0.501961" x="1061" y="316" width="59" height="129" />
<rect fill="#a1a1a1" fill-opacity="0.501961" x="988" y="217" width="17" height="61" />
<rect fill="#a6a6a6" fill-opacity="0.501961" x="831" y="238" width="143" height="139" />
<rect fill="#9fa09f" fill-opacity="0.501961" x="88" y="346" width="14" height="43" />
<rect fill="#050304" fill-opacity="0.501961" x="400" y="439" width="31" height="38" />
<rect fill="#040102" fill-opacity="0.501961" x="511" y="335" width="109" height="15" />
<rect fill="#000000" fill-opacity="0.501961" x="942" y="181" width="16" height="29" />
<rect fill="#000000" fill-opacity="0.501961" x="723" y="0" width="22" height="60" />
<rect fill="#797979" fill-opacity="0.501961" x="1109" y="508" width="49" height="52" />
</g>
</svg>