<svg xmlns="http://www.w3.org/2000/svg" version="1.1" width="1200" height="630">
<rect x="0" y="0" width="1200" height="630" fill="#4b4961" />
<g transform="scale(1.000000) translate(0.5 0.5)">
<rect fill="#ffffff" fill-opacity="0.501961" x="733" y="208" width="329" height="274" />
<rect fill="#000000" fill-opacity="0.501961" x="0" y="0" width="909" height="185" />
<rect fill="#cf7aff" fill-opacity="0.501961" x="382" y="212" width="351" height="195" />
<rect fill="#d7bcde" fill-opacity="0.501961" x="903" y="99" width="261" height="261" />
<rect fill="#000002" fill-opacity="0.501961" x="351" y="455" width="434" height="175" />
<rect fill="#000000" fill-opacity="0.501961" x="1004" y="406" width="196" height="224" />
<rect fill="#10112b" fill-opacity="0.501961" x="601" y="0" width="225" height="251" />
<rect fill="#f7e7ff" fill-opacity="0.501961" x="771" y="241" width="205" height="265" />
<rect fill="#ae6fff" fill-opacity="0.501961" x="437" y="197" width="133" height="272" />
<rect fill="#b26dff" fill-opacity="0.501961" x="336" y="160" width="124" height="87" />
<rect fill="#478c6b" fill-opacity="0.501961" x="96" y="317" width="330" height="226" />
<rect fill="#000002" fill-opacity="0.501961" x="1057" y="369" width="143" height="261" />
<rect fill="#220040" fill-opacity="0.501961" x="294" y="342" width="134" height="145" />
<rect fill="#000b00" fill-opacity="0.501961" x="0" y="0" width="111" height="630" />
<rect fill="#000f0d" fill-opacity="0.501961" x="648" y="369" width="82" height="88" />
<rect fill="#b379ff" fill-opacity="0.501961" x="537" y="228" width="150" height="156" />
<rect fill="#00050f" fill-opacity="0.501961" x="223" y="566" width="588" height="64" />
<rect fill="#000002" fill-opacity="0.501961" x="719" y="220" width="72" height="46" />
<rect fill="#001d14" fill-opacity="0.501961" x="190" y="185" width="156" height="114" />
<rect fill="#f8e7ff" fill-opacity="0.501961" x="732" y="278" width="147" height="144" />
<rect fill="#c2b6ce" fill-opacity="0.501961" x="901" y="158" width="141" height="296" />
<rect fill="#51a671" fill-opacity="0.501961" x="90" y="264" width="153" height="251" />
<rect fill="#000002" fill-opacity="0.501961" x="799" y="0" width="183" height="58" />
<rect fill="#a86bf4" fill-opacity="0.501961" x="315" y="147" width="60" height="49" />
<rect fill="#12132b" fill-opacity="0.501961" x="534" y="438" width="221" height="179" />
<rect fill="#000002" fill-opacity="0.501961" x="973" y="475" width="86" height="143" />
<rect fill="#916fa4" fill-opacity="0.501961" x="809" y="540" width="153" height="74" />
<rect fill="#4f4666" fill-opacity="0.501961" x="753" y="165" width="142" height="53" />
<rect fill="#000002" fill-opacity="0.501961" x="1133" y="337" width="67" height="69" />
<rect fill="#0e0f20" fill-opacity="0.501961" x="727" y="0" width="199" height="132" />
<rect fill="#000004" fill-opacity="0.501961" x="769" y="486" width="47" height="20" />
<rect fill="#9f6fea" fill-opacity="0.501961" x="458" y="189" width="43" height="298" />
<rect fill="#060a1c" fill-opacity="0.501961" x="544" y="185" width="160" height="33" />
<rect fill="#897690" fill-opacity="0.501961" x="1012" y="72" width="188" height="232" />
<rect fill="#c47ff7" fill-opacity="0.501961" x="290" y="319" width="66" height="30" />
<rect fill="#040214" fill-opacity="0.501961" x="0" y="0" width="138" height="292" />
<rect fill="#362c32" fill-opacity="0.501961" x="1112" y="0" width="88" height="140" />
<rect fill="#9b86a4" fill-opacity="0.501961" x="951" y="42" width="97" height="131" />
<rect fill="#000012" fill-opacity="0.501961" x="229" y="283" width="60" height="56" />
<rect fill="#84d5ab" fill-opacity="0.501961" x="391" y="484" width="72" height="22" />
<rect fill="#000000" fill-opacity="0.501961" x="846" y="512" width="43" height="48" />
<rect fill="#54a570" fill-opacity="0.501961" x="215" y="430" width="94" height="153" />
<rect fill="#0c0d25" fill-opacity="0.501961" x="402" y="0" width="195" height="173" />
<rect fill="#a16def" fill-opacity="0.501961" x="494" y="225" width="121" height="201" />
<rect fill="#b4a6c2" fill-opacity="0.501961" x="1001" y="193" width="102" height="181" />
<rect fill="#000006" fill-opacity="0.501961" x="770" y="207" width="82" height="17" />
<rect fill="#1b2e3a" fill-opacity="0.501961" x="621" y="395" width="118" height="80" />
<rect fill="#9b67e6" fill-opacity="0.501961" x="368" y="178" width="108" height="102" />
<rect fill="#050716" fill-opacity="0.501961" x="110" y="0" width="196" height="215" />
<rect fill="#f5d8ff" fill-opacity="0.501961" x="746" y="197" width="47" height="12" />
<rect fill="#aa6fff" fill-opacity="0.501961" x="657" y="262" width="89" height="84" />
<rect fill="#5ba77d" fill-opacity="0.501961" x="132" y="233" width="68" height="178" />
<rect fill="#f0e2fe" fill-opacity="0.501961" x="685" y="215" width="44" height="14" />
<rect fill="#00000d" fill-opacity="0.501961" x="371" y="323" width="34" height="43" />
<rect fill="#b19ac5" fill-opacity="0.501961" x="844" y="164" width="138" height="18" />
<rect fill="#ddd3e9" fill-opacity="0.501961" x="809" y="230" width="112" height="184" />
<rect fill="#090a18" fill-opacity="0.501961" x="1029" y="438" width="171" height="190" />
<rect fill="#e6dfe1" fill-opacity="0.501961" x="890" y="506" width="14" height="52" />
<rect fill="#fadeff" fill-opacity="0.501961" x="785" y="187" width="40" height="11" />
<rect fill="#bab0c2" fill-opacity="0.501961" x="799" y="442" width="190" height="51" />
<rect fill="#010a19" fill-opacity="0.501961" x="697" y="355" width="32" height="61" />
<rect fill="#ac6dff" fill-opacity="0.501961" x="411" y="248" width="27" height="112" />
<rect fill="#fef2ff" fill-opacity="0.501961" x="745" y="298" width="26" height="148" />
<rect fill="#c499e2" fill-opacity="0.501961" x="797" y="517" width="27" height="40" />
<rect fill="#352857" fill-opacity="0.501961" x="417" y="388" width="36" height="81" />
<rect fill="#08021f" fill-opacity="0.501961" x="322" y="232" width="37" height="86" />
<rect fill="#090f28" fill-opacity="0.501961" x="698" y="227" width="99" height="27" />
<rect fill="#00000c" fill-opacity="0.501961" x="832" y="187" width="69" height="24" />
<rect fill="#efd4ff" fill-opacity="0.501961" x="817" y="178" width="39" height="11" />
<rect fill="#c1bbc9" fill-opacity="0.501961" x="952" y="254" width="99" height="175" />
<rect fill="#b5b5d1" fill-opacity="0.501961" x="343" y="498" width="49" height="15" />
<rect fill="#a38fb2" fill-opacity="0.501961" x="941" y="429" width="30" height="122" />
<rect fill="#141328" fill-opacity="0.501961" x="722" y="473" width="67" height="144" />
<rect fill="#ffe7ff" fill-opacity="0.501961" x="355" y="314" width="28" height="11" />
<rect fill="#a168e0" fill-opacity="0.501961" x="352" y="352" width="30" height="27" />
<rect fill="#f9c9ff" fill-opacity="0.501961" x="251" y="344" width="39" height="10" />
<rect fill="#2a633a" fill-opacity="0.501961" x="68" y="487" width="171" height="143" />
<rect fill="#ffeeff" fill-opacity="0.501961" x="719" y="209" width="35" height="9" />
<rect fill="#000000" fill-opacity="0.501961" x="0" y="498" width="61" height="132" />
<rect fill="#090418" fill-opacity="0.501961" x="286" y="366" width="27" height="72" />
<rect fill="#b978ff" fill-opacity="0.501961" x="406" y="405" width="22" height="21" />
<rect fill="#000000" fill-opacity="0.501961" x="812" y="502" width="30" height="21" />
<rect fill="#67ae89" fill-opacity="0.501961" x="199" y="381" width="83" height="79" />
<rect fill="#110e31" fill-opacity="0.501961" x="738" y="215" width="38" height="54" />
<rect fill="#000000" fill-opacity="0.501961" x="909" y="0" width="101" height="23" />
<rect fill="#eddff7" fill-opacity="0.501961" x="845" y="215" width="64" height="26" />
<rect fill="#0c091b" fill-opacity="0.501961" x="348" y="410" width="65" height="82" />
<rect fill="#01020a" fill-opacity="0.501961" x="291" y="559" width="62" height="71" />
<rect fill="#9b64e2" fill-opacity="0.501961" x="303" y="139" width="31" height="21" />
<rect fill="#c6becf" fill-opacity="0.501961" x="836" y="379" width="92" height="130" />
<rect fill="#104a2b" fill-opacity="0.501961" x="0" y="301" width="100" height="189" />
<rect fill="#1e1e36" fill-opacity="0.501961" x="512" y="94" width="253" height="108" />
<rect fill="#c192ff" fill-opacity="0.501961" x="293" y="296" width="19" height="23" />
<rect fill="#50886b" fill-opacity="0.501961" x="168" y="462" width="155" height="108" />
<rect fill="#b4acbb" fill-opacity="0.501961" x="1022" y="302" width="45" height="94" />
<rect fill="#9d80b9" fill-opacity="0.501961" x="807" y="545" width="53" height="36" />
<rect fill="#915ccc" fill-opacity="0.501961" x="310" y="305" width="14" height="93" />
<rect fill="#1b1a2e" fill-opacity="0.501961" x="522" y="451" width="238" height="144" />
<rect fill="#121126" fill-opacity="0.501961" x="376" y="524" width="159" height="91" />
<rect fill="#000008" fill-opacity="0.501961" x="967" y="536" width="39" height="77" />
</g>
</svg>