<svg xmlns="http://www.w3.org/2000/svg" version="1.1" width="1200" height="630">
<rect x="0" y="0" width="1200" height="630" fill="#353541" />
<g transform="scale(1.000000) translate(0.5 0.5)">
<polygon fill="#ffffff" fill-opacity="0.501961" points="548,119 456,357 774,359" />
<polygon fill="#ffffff" fill-opacity="0.501961" points="1015,244 895,69 783,229" />
<polygon fill="#eeeeea" fill-opacity="0.501961" points="723,233 724,437 458,221" />
<polygon fill="#f5f5ed" fill-opacity="0.501961" points="502,136 423,-16 358,94" />
<polygon fill="#00000f" fill-opacity="0.501961" points="19,-16 505,360 -16,319" />
<polygon fill="#000000" fill-opacity="0.501961" points="1215,268 701,-16 1211,-1" />
<polygon fill="#9e9e9a" fill-opacity="0.501961" points="1073,158 903,428 1101,470" />
<polygon fill="#9b9b91" fill-opacity="0.501961" points="677,395 881,407 762,645" />
<polygon fill="#00000d" fill-opacity="0.501961" points="-16,2 328,-16 486,340" />
<polygon fill="#ffffff" fill-opacity="0.501961" points="481,358 629,357 483,204" />
<polygon fill="#edede8" fill-opacity="0.501961" points="981,119 810,130 899,277" />
<polygon fill="#000017" fill-opacity="0.501961" points="391,-16 821,-13 822,249" />
<polygon fill="#ffffff" fill-opacity="0.501961" points="503,210 603,128 601,252" />
<polygon fill="#000008" fill-opacity="0.501961" points="448,519 6,626 776,645" />
<polygon fill="#000000" fill-opacity="0.501961" points="1070,441 831,615 1212,645" />
<polygon fill="#9f9f9a" fill-opacity="0.501961" points="854,645 846,533 595,545" />
<polygon fill="#10102d" fill-opacity="0.501961" points="720,354 753,78 992,537" />
<polygon fill="#161634" fill-opacity="0.501961" points="483,80 480,592 131,402" />
<polygon fill="#000000" fill-opacity="0.501961" points="7,645 -16,503 226,540" />
<polygon fill="#0b0b26" fill-opacity="0.501961" points="1038,166 834,309 991,351" />
<polygon fill="#00000e" fill-opacity="0.501961" points="1015,-7 1215,-6 1206,645" />
<polygon fill="#ffffff" fill-opacity="0.501961" points="721,256 713,168 735,176" />
<polygon fill="#000021" fill-opacity="0.501961" points="717,226 604,81 605,234" />
<polygon fill="#7c7c77" fill-opacity="0.501961" points="186,512 372,442 240,604" />
<polygon fill="#8c8c81" fill-opacity="0.501961" points="603,399 453,548 604,539" />
<polygon fill="#00001a" fill-opacity="0.501961" points="536,162 463,93 657,111" />
<polygon fill="#f4f4f1" fill-opacity="0.501961" points="898,259 979,211 800,203" />
<polygon fill="#a4a49e" fill-opacity="0.501961" points="913,328 1072,383 913,401" />
<polygon fill="#ddddd6" fill-opacity="0.501961" points="472,124 474,32 441,16" />
<polygon fill="#fbfbf8" fill-opacity="0.501961" points="504,158 556,181 473,109" />
<polygon fill="#04040d" fill-opacity="0.501961" points="-3,216 -16,-7 462,-16" />
<polygon fill="#c7c7c5" fill-opacity="0.501961" points="365,24 407,130 474,94" />
<polygon fill="#c5c5bd" fill-opacity="0.501961" points="435,377 389,434 503,352" />
<polygon fill="#070726" fill-opacity="0.501961" points="699,415 622,338 693,632" />
<polygon fill="#0e0e20" fill-opacity="0.501961" points="1215,146 968,-16 971,212" />
<polygon fill="#eaeae6" fill-opacity="0.501961" points="875,101 824,220 823,134" />
<polygon fill="#07071d" fill-opacity="0.501961" points="1092,263 1116,345 1023,355" />
<polygon fill="#9f9f9c" fill-opacity="0.501961" points="1092,212 1070,350 1004,231" />
<polygon fill="#06061c" fill-opacity="0.501961" points="868,442 1099,484 861,597" />
<polygon fill="#c0c0bc" fill-opacity="0.501961" points="182,432 238,486 305,500" />
<polygon fill="#0f0f1f" fill-opacity="0.501961" points="823,129 1071,-5 353,-16" />
<polygon fill="#616157" fill-opacity="0.501961" points="186,442 125,311 -16,407" />
<polygon fill="#81817b" fill-opacity="0.501961" points="1168,529 1047,357 1102,348" />
<polygon fill="#7b7b77" fill-opacity="0.501961" points="711,633 696,465 816,639" />
<polygon fill="#b4b4b3" fill-opacity="0.501961" points="520,241 717,430 728,232" />
<polygon fill="#c2c2bf" fill-opacity="0.501961" points="969,133 895,87 969,221" />
<polygon fill="#080825" fill-opacity="0.501961" points="711,566 606,359 608,538" />
<polygon fill="#16162c" fill-opacity="0.501961" points="289,496 93,288 472,357" />
<polygon fill="#6d6d68" fill-opacity="0.501961" points="864,564 723,404 863,397" />
<polygon fill="#f2f2f0" fill-opacity="0.501961" points="607,140 528,170 475,369" />
<polygon fill="#e3e3dc" fill-opacity="0.501961" points="374,544 303,503 338,539" />
<polygon fill="#dfdfdb" fill-opacity="0.501961" points="604,549 673,551 715,583" />
<polygon fill="#000006" fill-opacity="0.501961" points="8,511 -16,630 302,632" />
<polygon fill="#202039" fill-opacity="0.501961" points="724,404 730,117 929,321" />
<polygon fill="#b3b3b4" fill-opacity="0.501961" points="556,455 486,361 510,422" />
<polygon fill="#b2b2aa" fill-opacity="0.501961" points="341,460 419,398 388,443" />
<polygon fill="#8c8c88" fill-opacity="0.501961" points="955,455 913,327 1053,468" />
<polygon fill="#040418" fill-opacity="0.501961" points="521,539 708,579 694,645" />
<polygon fill="#ffffff" fill-opacity="0.501961" points="715,227 733,243 725,167" />
<polygon fill="#101029" fill-opacity="0.501961" points="327,164 453,107 534,178" />
<polygon fill="#a8a8a2" fill-opacity="0.501961" points="964,258 922,225 983,307" />
<polygon fill="#aaaaa1" fill-opacity="0.501961" points="1083,456 1126,488 1148,545" />
<polygon fill="#aeaeaa" fill-opacity="0.501961" points="408,11 368,104 368,34" />
<polygon fill="#595951" fill-opacity="0.501961" points="1215,568 1152,507 1127,645" />
<polygon fill="#dadad8" fill-opacity="0.501961" points="182,428 206,456 146,421" />
<polygon fill="#6c6c68" fill-opacity="0.501961" points="316,583 189,564 239,479" />
<polygon fill="#87877d" fill-opacity="0.501961" points="707,239 823,198 771,235" />
<polygon fill="#202037" fill-opacity="0.501961" points="290,502 504,174 296,52" />
<polygon fill="#c1c1bf" fill-opacity="0.501961" points="1037,237 1009,290 1018,364" />
<polygon fill="#141428" fill-opacity="0.501961" points="539,163 642,100 464,20" />
<polygon fill="#ecece0" fill-opacity="0.501961" points="990,218 1018,244 953,212" />
<polygon fill="#000012" fill-opacity="0.501961" points="236,472 222,517 145,445" />
<polygon fill="#000018" fill-opacity="0.501961" points="1071,349 1027,303 1025,359" />
<polygon fill="#e7e7e5" fill-opacity="0.501961" points="484,346 483,222 639,358" />
<polygon fill="#10102a" fill-opacity="0.501961" points="479,365 416,588 542,459" />
<polygon fill="#07071e" fill-opacity="0.501961" points="940,231 1015,345 988,227" />
<polygon fill="#00000f" fill-opacity="0.501961" points="1061,302 1088,345 1085,273" />
<polygon fill="#151526" fill-opacity="0.501961" points="1161,250 1215,137 762,6" />
<polygon fill="#eeeeeb" fill-opacity="0.501961" points="601,536 644,550 603,552" />
<polygon fill="#1e1e34" fill-opacity="0.501961" points="605,228 599,-16 721,233" />
<polygon fill="#040412" fill-opacity="0.501961" points="1106,491 883,629 1146,645" />
<polygon fill="#e8e8e6" fill-opacity="0.501961" points="821,216 883,252 825,155" />
<polygon fill="#747473" fill-opacity="0.501961" points="1130,343 1112,426 911,374" />
<polygon fill="#0a0a18" fill-opacity="0.501961" points="1115,407 1215,581 1200,229" />
<polygon fill="#000014" fill-opacity="0.501961" points="302,516 275,550 373,555" />
<polygon fill="#929290" fill-opacity="0.501961" points="999,315 1048,176 1083,211" />
<polygon fill="#191930" fill-opacity="0.501961" points="913,262 820,242 905,558" />
<polygon fill="#53534d" fill-opacity="0.501961" points="156,326 149,532 -16,332" />
<polygon fill="#131328" fill-opacity="0.501961" points="414,586 477,370 317,493" />
<polygon fill="#0f0f32" fill-opacity="0.501961" points="492,359 647,364 547,446" />
<polygon fill="#c7c7c7" fill-opacity="0.501961" points="422,125 363,89 472,93" />
<polygon fill="#000003" fill-opacity="0.501961" points="1154,533 1079,429 1133,472" />
<polygon fill="#17172e" fill-opacity="0.501961" points="1015,364 937,242 855,276" />
<polygon fill="#f4f4f3" fill-opacity="0.501961" points="601,147 496,241 603,237" />
<polygon fill="#151528" fill-opacity="0.501961" points="408,-16 -16,156 163,328" />
<polygon fill="#16162d" fill-opacity="0.501961" points="522,165 510,216 365,101" />
<polygon fill="#bebebe" fill-opacity="0.501961" points="607,313 725,439 720,229" />
<polygon fill="#0f0f22" fill-opacity="0.501961" points="969,42 1030,238 974,211" />
<polygon fill="#b0b0af" fill-opacity="0.501961" points="943,113 833,122 967,219" />
<polygon fill="#1b1b35" fill-opacity="0.501961" points="864,397 732,400 723,243" />
</g>
</svg>