<svg xmlns="http://www.w3.org/2000/svg" version="1.1" width="1200" height="630">
<rect x="0" y="0" width="1200" height="630" fill="#3e3e42" />
<g transform="scale(1.000000) translate(0.5 0.5)">
<rect fill="#ffffff" fill-opacity="0.501961" x="386" y="273" width="196" height="179" />
<rect fill="#e0e0de" fill-opacity="0.501961" x="836" y="151" width="250" height="340" />
<rect fill="#f9f9f5" fill-opacity="0.501961" x="105" y="354" width="163" height="130" />
<rect fill="#000000" fill-opacity="0.501961" x="580" y="362" width="323" height="172" />
<rect fill="#c8c8c6" fill-opacity="0.501961" x="611" y="0" width="217" height="127" />
<rect fill="#000000" fill-opacity="0.501961" x="64" y="2" width="549" height="276" />
<rect fill="#ffffff" fill-opacity="0.501961" x="416" y="263" width="135" height="196" />
<rect fill="#ebebe8" fill-opacity="0.501961" x="296" y="479" width="138" height="113" />
<rect fill="#d3d3d0" fill-opacity="0.501961" x="647" y="528" width="146" height="102" />
<rect fill="#000000" fill-opacity="0.501961" x="433" y="468" width="212" height="162" />
<rect fill="#000000" fill-opacity="0.501961" x="584" y="149" width="196" height="363" />
<rect fill="#000000" fill-opacity="0.501961" x="1046" y="196" width="154" height="100" />
<rect fill="#d5d5d4" fill-opacity="0.501961" x="337" y="0" width="85" height="73" />
<rect fill="#000000" fill-opacity="0.501961" x="127" y="82" width="260" height="258" />
<rect fill="#000000" fill-opacity="0.501961" x="784" y="74" width="215" height="38" />
<rect fill="#ffffff" fill-opacity="0.501961" x="458" y="253" width="51" height="217" />
<rect fill="#000000" fill-opacity="0.501961" x="0" y="237" width="123" height="393" />
<rect fill="#9d9d99" fill-opacity="0.501961" x="1005" y="52" width="157" height="144" />
<rect fill="#ffffff" fill-opacity="0.501961" x="388" y="296" width="194" height="125" />
<rect fill="#ebebea" fill-opacity="0.501961" x="837" y="200" width="143" height="162" />
<rect fill="#b9b9b5" fill-opacity="0.501961" x="0" y="133" width="63" height="103" />
<rect fill="#000000" fill-opacity="0.501961" x="267" y="423" width="151" height="41" />
<rect fill="#000000" fill-opacity="0.501961" x="690" y="87" width="49" height="147" />
<rect fill="#040412" fill-opacity="0.501961" x="525" y="437" width="159" height="104" />
<rect fill="#8d8d8b" fill-opacity="0.501961" x="898" y="389" width="231" height="169" />
<rect fill="#e1e1e0" fill-opacity="0.501961" x="634" y="61" width="45" height="93" />
<rect fill="#000000" fill-opacity="0.501961" x="794" y="398" width="106" height="232" />
<rect fill="#000009" fill-opacity="0.501961" x="534" y="148" width="181" height="143" />
<rect fill="#000000" fill-opacity="0.501961" x="841" y="0" width="167" height="112" />
<rect fill="#000000" fill-opacity="0.501961" x="0" y="0" width="119" height="113" />
<rect fill="#000000" fill-opacity="0.501961" x="1090" y="198" width="110" height="210" />
<rect fill="#000000" fill-opacity="0.501961" x="386" y="58" width="49" height="231" />
<rect fill="#000000" fill-opacity="0.501961" x="243" y="273" width="141" height="103" />
<rect fill="#000000" fill-opacity="0.501961" x="890" y="363" width="56" height="33" />
<rect fill="#fffffe" fill-opacity="0.501961" x="159" y="333" width="55" height="21" />
<rect fill="#000000" fill-opacity="0.501961" x="0" y="501" width="294" height="129" />
<rect fill="#000000" fill-opacity="0.501961" x="1163" y="0" width="37" height="429" />
<rect fill="#b0b0af" fill-opacity="0.501961" x="150" y="346" width="75" height="162" />
<rect fill="#000000" fill-opacity="0.501961" x="916" y="0" width="284" height="39" />
<rect fill="#000000" fill-opacity="0.501961" x="0" y="505" width="294" height="125" />
<rect fill="#f3f3f3" fill-opacity="0.501961" x="324" y="381" width="112" height="13" />
<rect fill="#c2c2c2" fill-opacity="0.501961" x="341" y="468" width="74" height="72" />
<rect fill="#000000" fill-opacity="0.501961" x="801" y="586" width="399" height="44" />
<rect fill="#6a6a69" fill-opacity="0.501961" x="135" y="0" width="82" height="71" />
<rect fill="#d6d6d6" fill-opacity="0.501961" x="103" y="370" width="20" height="101" />
<rect fill="#cbcbcb" fill-opacity="0.501961" x="700" y="517" width="41" height="56" />
<rect fill="#9e9e9a" fill-opacity="0.501961" x="1128" y="434" width="59" height="51" />
<rect fill="#000000" fill-opacity="0.501961" x="282" y="406" width="50" height="84" />
<rect fill="#b1b1b1" fill-opacity="0.501961" x="606" y="31" width="96" height="75" />
<rect fill="#000009" fill-opacity="0.501961" x="761" y="397" width="57" height="151" />
<rect fill="#c8c8c8" fill-opacity="0.501961" x="804" y="114" width="39" height="37" />
<rect fill="#000000" fill-opacity="0.501961" x="800" y="534" width="121" height="96" />
<rect fill="#acacac" fill-opacity="0.501961" x="932" y="376" width="183" height="41" />
<rect fill="#000000" fill-opacity="0.501961" x="402" y="583" width="243" height="47" />
<rect fill="#000000" fill-opacity="0.501961" x="413" y="463" width="54" height="31" />
<rect fill="#ffffff" fill-opacity="0.501961" x="275" y="394" width="55" height="9" />
<rect fill="#8a8a8a" fill-opacity="0.501961" x="880" y="479" width="164" height="39" />
<rect fill="#00000e" fill-opacity="0.501961" x="109" y="146" width="296" height="153" />
<rect fill="#000000" fill-opacity="0.501961" x="846" y="123" width="158" height="28" />
<rect fill="#b4b4b2" fill-opacity="0.501961" x="812" y="31" width="28" height="52" />
<rect fill="#000000" fill-opacity="0.501961" x="48" y="584" width="283" height="46" />
<rect fill="#000000" fill-opacity="0.501961" x="1048" y="198" width="26" height="76" />
<rect fill="#000000" fill-opacity="0.501961" x="807" y="155" width="28" height="104" />
<rect fill="#717176" fill-opacity="0.501961" x="63" y="191" width="24" height="84" />
<rect fill="#bcbcbd" fill-opacity="0.501961" x="798" y="252" width="19" height="50" />
<rect fill="#cececd" fill-opacity="0.501961" x="979" y="283" width="100" height="96" />
<rect fill="#bcbcbc" fill-opacity="0.501961" x="328" y="44" width="67" height="26" />
<rect fill="#000003" fill-opacity="0.501961" x="433" y="0" width="173" height="251" />
<rect fill="#d1d1d1" fill-opacity="0.501961" x="732" y="61" width="50" height="43" />
<rect fill="#000000" fill-opacity="0.501961" x="313" y="398" width="71" height="62" />
<rect fill="#9e9e9e" fill-opacity="0.501961" x="321" y="482" width="92" height="122" />
<rect fill="#10101a" fill-opacity="0.501961" x="562" y="424" width="126" height="111" />
<rect fill="#040412" fill-opacity="0.501961" x="564" y="136" width="77" height="165" />
<rect fill="#727270" fill-opacity="0.501961" x="942" y="446" width="140" height="154" />
<rect fill="#000004" fill-opacity="0.501961" x="696" y="101" width="68" height="28" />
<rect fill="#fefefd" fill-opacity="0.501961" x="506" y="286" width="63" height="143" />
<rect fill="#d3d3d3" fill-opacity="0.501961" x="825" y="326" width="31" height="45" />
<rect fill="#f6f6f5" fill-opacity="0.501961" x="651" y="127" width="20" height="32" />
<rect fill="#000000" fill-opacity="0.501961" x="875" y="363" width="76" height="21" />
<rect fill="#d9d9d7" fill-opacity="0.501961" x="771" y="113" width="239" height="9" />
<rect fill="#000000" fill-opacity="0.501961" x="267" y="340" width="81" height="47" />
<rect fill="#000000" fill-opacity="0.501961" x="426" y="449" width="23" height="49" />
<rect fill="#a4a4aa" fill-opacity="0.501961" x="765" y="169" width="15" height="45" />
<rect fill="#ececeb" fill-opacity="0.501961" x="408" y="282" width="139" height="157" />
<rect fill="#d2d2d2" fill-opacity="0.501961" x="837" y="160" width="60" height="203" />
<rect fill="#000000" fill-opacity="0.501961" x="0" y="267" width="100" height="241" />
<rect fill="#c8c8c8" fill-opacity="0.501961" x="223" y="366" width="42" height="92" />
<rect fill="#000000" fill-opacity="0.501961" x="371" y="433" width="51" height="19" />
<rect fill="#ababb0" fill-opacity="0.501961" x="84" y="267" width="18" height="28" />
<rect fill="#000001" fill-opacity="0.501961" x="1132" y="268" width="68" height="159" />
<rect fill="#8d8d8c" fill-opacity="0.501961" x="38" y="94" width="27" height="140" />
<rect fill="#e3e3e1" fill-opacity="0.501961" x="812" y="288" width="13" height="35" />
<rect fill="#000000" fill-opacity="0.501961" x="782" y="280" width="23" height="51" />
<rect fill="#9a9a9a" fill-opacity="0.501961" x="169" y="424" width="32" height="91" />
<rect fill="#ffffff" fill-opacity="0.501961" x="471" y="250" width="25" height="44" />
<rect fill="#000000" fill-opacity="0.501961" x="280" y="4" width="69" height="28" />
<rect fill="#86868d" fill-opacity="0.501961" x="816" y="387" width="21" height="33" />
<rect fill="#000000" fill-opacity="0.501961" x="1143" y="555" width="57" height="75" />
<rect fill="#7f7f7f" fill-opacity="0.501961" x="922" y="200" width="59" height="55" />
<rect fill="#9c9ca0" fill-opacity="0.501961" x="102" y="295" width="19" height="30" />
</g>
</svg>