<svg xmlns="http://www.w3.org/2000/svg" version="1.1" width="1200" height="630">
<rect x="0" y="0" width="1200" height="630" fill="#171f23" />
<g transform="scale(1.000000) translate(0.5 0.5)">
<ellipse fill="#7ef9cc" fill-opacity="0.501961" cx="837" cy="195" rx="104" ry="104" />
<ellipse fill="#52b48e" fill-opacity="0.501961" cx="942" cy="629" rx="205" ry="205" />
<ellipse fill="#ff85c4" fill-opacity="0.501961" cx="1161" cy="341" rx="85" ry="85" />
<ellipse fill="#5d897b" fill-opacity="0.501961" cx="1062" cy="449" rx="70" ry="70" />
<ellipse fill="#70ecbe" fill-opacity="0.501961" cx="745" cy="539" rx="31" ry="31" />
<ellipse fill="#000000" fill-opacity="0.501961" cx="899" cy="393" rx="80" ry="80" />
<ellipse fill="#7dffd6" fill-opacity="0.501961" cx="628" cy="455" rx="24" ry="24" />
<ellipse fill="#7dffd6" fill-opacity="0.501961" cx="621" cy="497" rx="20" ry="20" />
<ellipse fill="#000000" fill-opacity="0.501961" cx="785" cy="285" rx="33" ry="33" />
<ellipse fill="#bbc1c9" fill-opacity="0.501961" cx="840" cy="316" rx="22" ry="22" />
<ellipse fill="#e1649f" fill-opacity="0.501961" cx="1100" cy="389" rx="37" ry="37" />
<ellipse fill="#9affde" fill-opacity="0.501961" cx="738" cy="261" rx="19" ry="19" />
<ellipse fill="#68e0b0" fill-opacity="0.501961" cx="725" cy="163" rx="25" ry="25" />
<ellipse fill="#62817b" fill-opacity="0.501961" cx="950" cy="182" rx="39" ry="39" />
<ellipse fill="#000000" fill-opacity="0.501961" cx="818" cy="445" rx="49" ry="49" />
<ellipse fill="#8bffec" fill-opacity="0.501961" cx="637" cy="420" rx="16" ry="16" />
<ellipse fill="#040806" fill-opacity="0.501961" cx="1154" cy="627" rx="101" ry="101" />
<ellipse fill="#4c001d" fill-opacity="0.501961" cx="877" cy="286" rx="30" ry="30" />
<ellipse fill="#6be9b5" fill-opacity="0.501961" cx="789" cy="85" rx="20" ry="20" />
<ellipse fill="#57af90" fill-opacity="0.501961" cx="841" cy="540" rx="56" ry="56" />
<ellipse fill="#000000" fill-opacity="0.501961" cx="742" cy="205" rx="21" ry="21" />
<ellipse fill="#6eebbd" fill-opacity="0.501961" cx="617" cy="535" rx="19" ry="19" />
<ellipse fill="#000000" fill-opacity="0.501961" cx="916" cy="124" rx="25" ry="25" />
<ellipse fill="#89ffdb" fill-opacity="0.501961" cx="929" cy="265" rx="15" ry="15" />
<ellipse fill="#62cda7" fill-opacity="0.501961" cx="835" cy="195" rx="69" ry="69" />
<ellipse fill="#59b494" fill-opacity="0.501961" cx="924" cy="503" rx="43" ry="43" />
<ellipse fill="#000000" fill-opacity="0.501961" cx="1039" cy="406" rx="23" ry="23" />
<ellipse fill="#64d8ab" fill-opacity="0.501961" cx="885" cy="90" rx="18" ry="18" />
<ellipse fill="#b65b84" fill-opacity="0.501961" cx="1183" cy="268" rx="32" ry="32" />
<ellipse fill="#000000" fill-opacity="0.501961" cx="838" cy="91" rx="20" ry="20" />
<ellipse fill="#68e0b3" fill-opacity="0.501961" cx="613" cy="569" rx="16" ry="16" />
<ellipse fill="#196049" fill-opacity="0.501961" cx="1082" cy="274" rx="34" ry="34" />
<ellipse fill="#7cffd5" fill-opacity="0.501961" cx="644" cy="393" rx="12" ry="12" />
<ellipse fill="#000000" fill-opacity="0.501961" cx="1084" cy="296" rx="21" ry="21" />
<ellipse fill="#000000" fill-opacity="0.501961" cx="964" cy="411" rx="40" ry="40" />
<ellipse fill="#000000" fill-opacity="0.501961" cx="120" cy="224" rx="541" ry="541" />
<ellipse fill="#4e9e81" fill-opacity="0.501961" cx="756" cy="577" rx="32" ry="32" />
<ellipse fill="#af6a9a" fill-opacity="0.501961" cx="431" cy="119" rx="14" ry="14" />
<ellipse fill="#ff60b9" fill-opacity="0.501961" cx="818" cy="359" rx="11" ry="11" />
<ellipse fill="#ff5fb7" fill-opacity="0.501961" cx="783" cy="399" rx="11" ry="11" />
<ellipse fill="#ff5eb7" fill-opacity="0.501961" cx="798" cy="382" rx="11" ry="11" />
<ellipse fill="#000000" fill-opacity="0.501961" cx="1119" cy="438" rx="18" ry="18" />
<ellipse fill="#ae6a99" fill-opacity="0.501961" cx="460" cy="109" rx="14" ry="14" />
<ellipse fill="#ff5eb4" fill-opacity="0.501961" cx="768" cy="418" rx="11" ry="11" />
<ellipse fill="#ab6896" fill-opacity="0.501961" cx="488" cy="100" rx="14" ry="14" />
<ellipse fill="#a86593" fill-opacity="0.501961" cx="516" cy="90" rx="14" ry="14" />
<ellipse fill="#000000" fill-opacity="0.501961" cx="675" cy="464" rx="34" ry="34" />
<ellipse fill="#ff5ab0" fill-opacity="0.501961" cx="749" cy="438" rx="11" ry="11" />
<ellipse fill="#000000" fill-opacity="0.501961" cx="1126" cy="68" rx="172" ry="172" />
<ellipse fill="#c175a7" fill-opacity="0.501961" cx="542" cy="81" rx="12" ry="12" />
<ellipse fill="#5dc99f" fill-opacity="0.501961" cx="611" cy="595" rx="14" ry="14" />
<ellipse fill="#ff60ba" fill-opacity="0.501961" cx="734" cy="456" rx="10" ry="10" />
<ellipse fill="#020003" fill-opacity="0.501961" cx="742" cy="110" rx="35" ry="35" />
<ellipse fill="#ff5fb6" fill-opacity="0.501961" cx="719" cy="473" rx="10" ry="10" />
<ellipse fill="#48a281" fill-opacity="0.501961" cx="1072" cy="451" rx="33" ry="33" />
<ellipse fill="#bc72a3" fill-opacity="0.501961" cx="565" cy="73" rx="12" ry="12" />
<ellipse fill="#9e5f8a" fill-opacity="0.501961" cx="591" cy="65" rx="14" ry="14" />
<ellipse fill="#c28dad" fill-opacity="0.501961" cx="988" cy="158" rx="11" ry="11" />
<ellipse fill="#ff5cb1" fill-opacity="0.501961" cx="703" cy="493" rx="10" ry="10" />
<ellipse fill="#000001" fill-opacity="0.501961" cx="1045" cy="28" rx="138" ry="138" />
<ellipse fill="#e591c1" fill-opacity="0.501961" cx="831" cy="342" rx="11" ry="11" />
<ellipse fill="#000000" fill-opacity="0.501961" cx="841" cy="28" rx="60" ry="60" />
<ellipse fill="#813460" fill-opacity="0.501961" cx="1009" cy="137" rx="18" ry="18" />
<ellipse fill="#000003" fill-opacity="0.501961" cx="863" cy="446" rx="34" ry="34" />
<ellipse fill="#56ad8f" fill-opacity="0.501961" cx="780" cy="532" rx="29" ry="29" />
<ellipse fill="#b26b9a" fill-opacity="0.501961" cx="618" cy="55" rx="12" ry="12" />
<ellipse fill="#000000" fill-opacity="0.501961" cx="676" cy="602" rx="57" ry="57" />
<ellipse fill="#4da284" fill-opacity="0.501961" cx="990" cy="484" rx="40" ry="40" />
<ellipse fill="#000000" fill-opacity="0.501961" cx="1173" cy="512" rx="49" ry="49" />
<ellipse fill="#000000" fill-opacity="0.501961" cx="871" cy="265" rx="16" ry="16" />
<ellipse fill="#ff56a8" fill-opacity="0.501961" cx="686" cy="512" rx="10" ry="10" />
<ellipse fill="#ff73ca" fill-opacity="0.501961" cx="866" cy="300" rx="9" ry="9" />
<ellipse fill="#015d31" fill-opacity="0.501961" cx="1167" cy="441" rx="27" ry="27" />
<ellipse fill="#000000" fill-opacity="0.501961" cx="1012" cy="274" rx="46" ry="46" />
<ellipse fill="#000000" fill-opacity="0.501961" cx="940" cy="191" rx="12" ry="12" />
<ellipse fill="#6ce3b9" fill-opacity="0.501961" cx="833" cy="269" rx="22" ry="22" />
<ellipse fill="#9decd2" fill-opacity="0.501961" cx="945" cy="280" rx="9" ry="9" />
<ellipse fill="#000000" fill-opacity="0.501961" cx="694" cy="87" rx="51" ry="51" />
<ellipse fill="#70ebbf" fill-opacity="0.501961" cx="763" cy="238" rx="21" ry="21" />
<ellipse fill="#000008" fill-opacity="0.501961" cx="781" cy="300" rx="38" ry="38" />
<ellipse fill="#45bb90" fill-opacity="0.501961" cx="1080" cy="246" rx="15" ry="15" />
<ellipse fill="#f552a1" fill-opacity="0.501961" cx="672" cy="529" rx="10" ry="10" />
<ellipse fill="#ff85f3" fill-opacity="0.501961" cx="807" cy="371" rx="7" ry="7" />
<ellipse fill="#24483b" fill-opacity="0.501961" cx="1065" cy="629" rx="88" ry="88" />
<ellipse fill="#49bd95" fill-opacity="0.501961" cx="1023" cy="228" rx="12" ry="12" />
<ellipse fill="#0b000c" fill-opacity="0.501961" cx="531" cy="569" rx="71" ry="71" />
<ellipse fill="#878893" fill-opacity="0.501961" cx="719" cy="279" rx="14" ry="14" />
<ellipse fill="#626b75" fill-opacity="0.501961" cx="645" cy="368" rx="17" ry="17" />
<ellipse fill="#4fdda9" fill-opacity="0.501961" cx="988" cy="218" rx="10" ry="10" />
<ellipse fill="#78fdcd" fill-opacity="0.501961" cx="699" cy="148" rx="9" ry="9" />
<ellipse fill="#000000" fill-opacity="0.501961" cx="991" cy="192" rx="21" ry="21" />
<ellipse fill="#62cba4" fill-opacity="0.501961" cx="748" cy="163" rx="24" ry="24" />
<ellipse fill="#140000" fill-opacity="0.501961" cx="922" cy="218" rx="10" ry="10" />
<ellipse fill="#000000" fill-opacity="0.501961" cx="1072" cy="320" rx="17" ry="17" />
<ellipse fill="#000004" fill-opacity="0.501961" cx="712" cy="387" rx="58" ry="58" />
<ellipse fill="#000004" fill-opacity="0.501961" cx="911" cy="432" rx="33" ry="33" />
<ellipse fill="#52b38d" fill-opacity="0.501961" cx="608" cy="617" rx="13" ry="13" />
<ellipse fill="#5fc1a1" fill-opacity="0.501961" cx="1101" cy="264" rx="13" ry="13" />
<ellipse fill="#6adeb1" fill-opacity="0.501961" cx="624" cy="472" rx="17" ry="17" />
<ellipse fill="#c26691" fill-opacity="0.501961" cx="1123" cy="324" rx="32" ry="32" />
</g>
</svg>