<svg xmlns="http://www.w3.org/2000/svg" version="1.1" width="1200" height="630">
<rect x="0" y="0" width="1200" height="630" fill="#5d4b24" />
<g transform="scale(1.000000) translate(0.5 0.5)">
<polygon fill="#ffffaf" fill-opacity="0.501961" points="1037,296 649,303 658,633" />
<polygon fill="#ffdf1f" fill-opacity="0.501961" points="213,417 636,416 403,645" />
<polygon fill="#000000" fill-opacity="0.501961" points="1215,631 1195,-16 928,645" />
<polygon fill="#000013" fill-opacity="0.501961" points="754,277 200,450 -16,-16" />
<polygon fill="#ffc62d" fill-opacity="0.501961" points="893,435 781,35 1141,138" />
<polygon fill="#ffc51a" fill-opacity="0.501961" points="501,208 282,71 694,-16" />
<polygon fill="#dde7dc" fill-opacity="0.501961" points="-16,308 47,495 192,284" />
<polygon fill="#f0a707" fill-opacity="0.501961" points="753,645 646,479 1078,484" />
<polygon fill="#000000" fill-opacity="0.501961" points="291,645 -16,626 122,411" />
<polygon fill="#000001" fill-opacity="0.501961" points="-14,299 360,5 1,-16" />
<polygon fill="#00001b" fill-opacity="0.501961" points="887,302 670,-16 610,298" />
<polygon fill="#000009" fill-opacity="0.501961" points="416,635 648,412 655,628" />
<polygon fill="#ffef99" fill-opacity="0.501961" points="647,297 659,513 1026,319" />
<polygon fill="#000014" fill-opacity="0.501961" points="831,474 1215,490 1134,229" />
<polygon fill="#eaf0dd" fill-opacity="0.501961" points="112,433 99,368 252,415" />
<polygon fill="#eca11f" fill-opacity="0.501961" points="240,645 634,421 236,414" />
<polygon fill="#020a1d" fill-opacity="0.501961" points="240,416 595,417 593,124" />
<polygon fill="#000004" fill-opacity="0.501961" points="772,116 613,-16 834,-16" />
<polygon fill="#d9e2d5" fill-opacity="0.501961" points="56,188 88,294 24,308" />
<polygon fill="#da9e1e" fill-opacity="0.501961" points="479,198 289,-16 684,78" />
<polygon fill="#000009" fill-opacity="0.501961" points="-7,420 274,630 -1,645" />
<polygon fill="#000007" fill-opacity="0.501961" points="1094,-14 1194,434 1215,-16" />
<polygon fill="#000410" fill-opacity="0.501961" points="-16,4 317,419 310,-16" />
<polygon fill="#fab51f" fill-opacity="0.501961" points="1070,256 828,237 773,103" />
<polygon fill="#00000f" fill-opacity="0.501961" points="237,451 234,644 78,426" />
<polygon fill="#b7881b" fill-opacity="0.501961" points="646,486 888,645 1068,478" />
<polygon fill="#ffcf2e" fill-opacity="0.501961" points="604,207 608,371 582,286" />
<polygon fill="#f9cb7c" fill-opacity="0.501961" points="1007,253 808,504 620,399" />
<polygon fill="#fff4bb" fill-opacity="0.501961" points="649,112 716,131 784,112" />
<polygon fill="#986c08" fill-opacity="0.501961" points="1129,205 1043,-16 795,33" />
<polygon fill="#00000d" fill-opacity="0.501961" points="-16,2 199,276 95,303" />
<polygon fill="#00000a" fill-opacity="0.501961" points="1215,635 1178,315 933,643" />
<polygon fill="#00000f" fill-opacity="0.501961" points="1153,212 1049,330 993,290" />
<polygon fill="#a37003" fill-opacity="0.501961" points="657,645 886,645 661,498" />
<polygon fill="#ffe762" fill-opacity="0.501961" points="937,504 916,437 865,393" />
<polygon fill="#9a7114" fill-opacity="0.501961" points="714,-16 304,10 340,114" />
<polygon fill="#bbbaa1" fill-opacity="0.501961" points="73,310 80,419 208,450" />
<polygon fill="#fffbd2" fill-opacity="0.501961" points="601,363 692,429 694,480" />
<polygon fill="#e2ddb6" fill-opacity="0.501961" points="104,303 206,278 110,373" />
<polygon fill="#93917c" fill-opacity="0.501961" points="-16,287 107,371 57,534" />
<polygon fill="#000415" fill-opacity="0.501961" points="608,255 607,124 738,122" />
<polygon fill="#e6b130" fill-opacity="0.501961" points="658,120 657,28 558,139" />
<polygon fill="#000017" fill-opacity="0.501961" points="804,228 887,306 891,273" />
<polygon fill="#866110" fill-opacity="0.501961" points="454,645 227,624 346,491" />
<polygon fill="#000515" fill-opacity="0.501961" points="410,640 656,645 652,439" />
<polygon fill="#040914" fill-opacity="0.501961" points="263,417 229,254 124,366" />
<polygon fill="#ffc72c" fill-opacity="0.501961" points="602,498 605,341 576,440" />
<polygon fill="#1c1b1e" fill-opacity="0.501961" points="595,416 594,239 140,381" />
<polygon fill="#000003" fill-opacity="0.501961" points="236,472 156,399 235,426" />
<polygon fill="#d8b875" fill-opacity="0.501961" points="1014,325 880,435 894,236" />
<polygon fill="#9d7416" fill-opacity="0.501961" points="1154,115 811,-16 1068,260" />
<polygon fill="#00041d" fill-opacity="0.501961" points="646,229 650,399 602,357" />
<polygon fill="#000213" fill-opacity="0.501961" points="635,110 811,-16 786,111" />
<polygon fill="#1c1b1e" fill-opacity="0.501961" points="595,144 144,340 592,415" />
<polygon fill="#00000c" fill-opacity="0.501961" points="12,323 -16,-10 66,168" />
<polygon fill="#000000" fill-opacity="0.501961" points="1082,-14 1215,-1 1158,114" />
<polygon fill="#eaae28" fill-opacity="0.501961" points="314,97 484,194 603,128" />
<polygon fill="#e6a91f" fill-opacity="0.501961" points="792,177 910,298 1061,261" />
<polygon fill="#f7b42a" fill-opacity="0.501961" points="326,420 632,418 512,540" />
<polygon fill="#ffdd87" fill-opacity="0.501961" points="652,467 897,302 653,303" />
<polygon fill="#ffdf25" fill-opacity="0.501961" points="605,219 605,128 592,175" />
<polygon fill="#0e1219" fill-opacity="0.501961" points="604,124 789,122 810,302" />
<polygon fill="#000002" fill-opacity="0.501961" points="3,429 120,645 -16,629" />
<polygon fill="#020610" fill-opacity="0.501961" points="657,-16 657,93 869,-16" />
<polygon fill="#0f1014" fill-opacity="0.501961" points="953,401 1215,638 1201,91" />
<polygon fill="#9d9b85" fill-opacity="0.501961" points="7,300 -10,437 156,333" />
<polygon fill="#c6911b" fill-opacity="0.501961" points="1032,277 1117,198 779,101" />
<polygon fill="#0f121a" fill-opacity="0.501961" points="251,61 334,336 488,198" />
<polygon fill="#5c4305" fill-opacity="0.501961" points="894,-16 1141,112 1100,6" />
<polygon fill="#050810" fill-opacity="0.501961" points="239,463 91,422 36,645" />
<polygon fill="#ffffdc" fill-opacity="0.501961" points="625,118 659,112 687,124" />
<polygon fill="#000310" fill-opacity="0.501961" points="914,477 875,434 824,482" />
<polygon fill="#040409" fill-opacity="0.501961" points="312,-16 309,102 -14,1" />
<polygon fill="#1a1b1e" fill-opacity="0.501961" points="895,301 607,301 736,121" />
<polygon fill="#000019" fill-opacity="0.501961" points="609,374 644,417 605,416" />
<polygon fill="#978f72" fill-opacity="0.501961" points="1126,122 1215,122 1173,109" />
<polygon fill="#ffcd2b" fill-opacity="0.501961" points="590,234 604,193 604,286" />
<polygon fill="#bf8e1e" fill-opacity="0.501961" points="647,645 725,481 954,483" />
<polygon fill="#f4b726" fill-opacity="0.501961" points="797,175 792,83 847,245" />
<polygon fill="#181718" fill-opacity="0.501961" points="28,77 496,199 91,304" />
<polygon fill="#8c6b1a" fill-opacity="0.501961" points="1063,479 892,645 650,614" />
<polygon fill="#201e1e" fill-opacity="0.501961" points="176,269 595,167 593,416" />
<polygon fill="#936e16" fill-opacity="0.501961" points="312,-16 312,82 664,6" />
<polygon fill="#03050b" fill-opacity="0.501961" points="1215,641 1081,461 927,617" />
<polygon fill="#8b6214" fill-opacity="0.501961" points="500,555 232,606 406,645" />
<polygon fill="#d5bc7e" fill-opacity="0.501961" points="1005,294 889,436 894,278" />
<polygon fill="#eae1b3" fill-opacity="0.501961" points="220,402 166,396 252,431" />
<polygon fill="#ffd62b" fill-opacity="0.501961" points="608,340 593,385 597,297" />
<polygon fill="#ffe28e" fill-opacity="0.501961" points="748,345 649,291 654,398" />
<polygon fill="#f1e4b6" fill-opacity="0.501961" points="796,122 726,120 760,111" />
<polygon fill="#cecfb6" fill-opacity="0.501961" points="175,419 132,431 204,447" />
<polygon fill="#000011" fill-opacity="0.501961" points="1024,311 1063,267 993,285" />
<polygon fill="#7e5f14" fill-opacity="0.501961" points="1123,181 1130,71 839,-16" />
<polygon fill="#bf8920" fill-opacity="0.501961" points="461,589 233,481 554,497" />
<polygon fill="#af7f17" fill-opacity="0.501961" points="828,6 1106,206 788,97" />
<polygon fill="#0c0f14" fill-opacity="0.501961" points="898,413 939,482 1162,475" />
<polygon fill="#060810" fill-opacity="0.501961" points="1136,121 1215,126 1104,248" />
<polygon fill="#888671" fill-opacity="0.501961" points="89,429 -16,292 55,529" />
<polygon fill="#d59c1d" fill-opacity="0.501961" points="661,481 905,484 658,568" />
<polygon fill="#07090e" fill-opacity="0.501961" points="54,645 233,621 235,433" />
</g>
</svg>