<svg xmlns="http://www.w3.org/2000/svg" version="1.1" width="1200" height="630">
<rect x="0" y="0" width="1200" height="630" fill="#2e312f" />
<g transform="scale(1.000000) translate(0.5 0.5)">
<rect fill="#d0fce9" fill-opacity="0.501961" x="390" y="212" width="452" height="209" />
<rect fill="#2fffff" fill-opacity="0.501961" x="847" y="75" width="218" height="218" />
<rect fill="#000000" fill-opacity="0.501961" x="566" y="86" width="153" height="207" />
<rect fill="#ff5f2d" fill-opacity="0.501961" x="690" y="181" width="153" height="271" />
<rect fill="#000000" fill-opacity="0.501961" x="0" y="385" width="437" height="245" />
<rect fill="#ffecc3" fill-opacity="0.501961" x="600" y="362" width="126" height="124" />
<rect fill="#e29e7b" fill-opacity="0.501961" x="1050" y="286" width="150" height="160" />
<rect fill="#ff8246" fill-opacity="0.501961" x="151" y="299" width="91" height="112" />
<rect fill="#e58b63" fill-opacity="0.501961" x="705" y="7" width="140" height="107" />
<rect fill="#000000" fill-opacity="0.501961" x="725" y="393" width="73" height="237" />
<rect fill="#54ffff" fill-opacity="0.501961" x="391" y="292" width="277" height="97" />
<rect fill="#000000" fill-opacity="0.501961" x="565" y="101" width="153" height="192" />
<rect fill="#37b4ba" fill-opacity="0.501961" x="1037" y="396" width="93" height="97" />
<rect fill="#ffb48d" fill-opacity="0.501961" x="739" y="175" width="81" height="115" />
<rect fill="#825d4e" fill-opacity="0.501961" x="424" y="386" width="49" height="202" />
<rect fill="#4bf3ff" fill-opacity="0.501961" x="774" y="73" width="43" height="58" />
<rect fill="#46ffff" fill-opacity="0.501961" x="389" y="213" width="176" height="108" />
<rect fill="#d34e21" fill-opacity="0.501961" x="1135" y="118" width="65" height="126" />
<rect fill="#000000" fill-opacity="0.501961" x="844" y="291" width="172" height="339" />
<rect fill="#000000" fill-opacity="0.501961" x="0" y="347" width="177" height="283" />
<rect fill="#67f2f8" fill-opacity="0.501961" x="472" y="292" width="196" height="128" />
<rect fill="#ff5f40" fill-opacity="0.501961" x="1005" y="434" width="33" height="96" />
<rect fill="#000000" fill-opacity="0.501961" x="669" y="322" width="37" height="40" />
<rect fill="#fd6d41" fill-opacity="0.501961" x="123" y="300" width="118" height="59" />
<rect fill="#ff763e" fill-opacity="0.501961" x="770" y="299" width="71" height="131" />
<rect fill="#96210d" fill-opacity="0.501961" x="1039" y="486" width="109" height="144" />
<rect fill="#000005" fill-opacity="0.501961" x="244" y="388" width="200" height="82" />
<rect fill="#000000" fill-opacity="0.501961" x="0" y="0" width="393" height="301" />
<rect fill="#72e9ea" fill-opacity="0.501961" x="678" y="31" width="30" height="50" />
<rect fill="#ff764a" fill-opacity="0.501961" x="209" y="356" width="33" height="83" />
<rect fill="#ff8d61" fill-opacity="0.501961" x="601" y="422" width="126" height="66" />
<rect fill="#000000" fill-opacity="0.501961" x="855" y="0" width="345" height="78" />
<rect fill="#000005" fill-opacity="0.501961" x="726" y="378" width="32" height="252" />
<rect fill="#000000" fill-opacity="0.501961" x="1063" y="0" width="69" height="275" />
<rect fill="#000001" fill-opacity="0.501961" x="0" y="143" width="113" height="487" />
<rect fill="#eca17b" fill-opacity="0.501961" x="438" y="421" width="16" height="105" />
<rect fill="#000000" fill-opacity="0.501961" x="1150" y="436" width="50" height="119" />
<rect fill="#fc7448" fill-opacity="0.501961" x="699" y="276" width="103" height="107" />
<rect fill="#6f1c10" fill-opacity="0.501961" x="4" y="0" width="99" height="127" />
<rect fill="#000000" fill-opacity="0.501961" x="121" y="0" width="541" height="211" />
<rect fill="#000000" fill-opacity="0.501961" x="711" y="286" width="44" height="13" />
<rect fill="#c18564" fill-opacity="0.501961" x="416" y="517" width="23" height="84" />
<rect fill="#000001" fill-opacity="0.501961" x="456" y="486" width="547" height="144" />
<rect fill="#000005" fill-opacity="0.501961" x="686" y="120" width="73" height="69" />
<rect fill="#c06547" fill-opacity="0.501961" x="1103" y="268" width="69" height="104" />
<rect fill="#33767c" fill-opacity="0.501961" x="834" y="541" width="94" height="23" />
<rect fill="#e54c39" fill-opacity="0.501961" x="541" y="485" width="38" height="26" />
<rect fill="#000006" fill-opacity="0.501961" x="848" y="294" width="200" height="132" />
<rect fill="#08dad9" fill-opacity="0.501961" x="823" y="283" width="32" height="18" />
<rect fill="#ff844f" fill-opacity="0.501961" x="819" y="421" width="23" height="51" />
<rect fill="#ffa07a" fill-opacity="0.501961" x="720" y="197" width="126" height="79" />
<rect fill="#6dfcff" fill-opacity="0.501961" x="464" y="422" width="14" height="36" />
<rect fill="#a13a19" fill-opacity="0.501961" x="724" y="0" width="131" height="75" />
<rect fill="#000000" fill-opacity="0.501961" x="853" y="0" width="347" height="74" />
<rect fill="#000000" fill-opacity="0.501961" x="1066" y="0" width="134" height="115" />
<rect fill="#ca4332" fill-opacity="0.501961" x="503" y="510" width="41" height="28" />
<rect fill="#000001" fill-opacity="0.501961" x="243" y="205" width="145" height="183" />
<rect fill="#ff8562" fill-opacity="0.501961" x="670" y="360" width="57" height="121" />
<rect fill="#00000d" fill-opacity="0.501961" x="160" y="0" width="507" height="209" />
<rect fill="#000000" fill-opacity="0.501961" x="668" y="343" width="48" height="18" />
<rect fill="#34787c" fill-opacity="0.501961" x="917" y="561" width="75" height="18" />
<rect fill="#e96a3d" fill-opacity="0.501961" x="101" y="299" width="54" height="24" />
<rect fill="#df4a35" fill-opacity="0.501961" x="474" y="537" width="32" height="23" />
<rect fill="#000011" fill-opacity="0.501961" x="568" y="136" width="151" height="145" />
<rect fill="#000008" fill-opacity="0.501961" x="112" y="392" width="85" height="238" />
<rect fill="#000000" fill-opacity="0.501961" x="813" y="111" width="33" height="80" />
<rect fill="#001825" fill-opacity="0.501961" x="482" y="419" width="80" height="75" />
<rect fill="#000114" fill-opacity="0.501961" x="726" y="413" width="59" height="118" />
<rect fill="#000006" fill-opacity="0.501961" x="1048" y="286" width="33" height="20" />
<rect fill="#2fd7c8" fill-opacity="0.501961" x="1061" y="177" width="63" height="8" />
<rect fill="#ff6a38" fill-opacity="0.501961" x="670" y="289" width="44" height="36" />
<rect fill="#4a9b9a" fill-opacity="0.501961" x="1033" y="421" width="51" height="76" />
<rect fill="#1e7563" fill-opacity="0.501961" x="926" y="74" width="138" height="57" />
<rect fill="#3ad7be" fill-opacity="0.501961" x="848" y="160" width="150" height="133" />
<rect fill="#ff5035" fill-opacity="0.501961" x="575" y="468" width="26" height="22" />
<rect fill="#000005" fill-opacity="0.501961" x="384" y="387" width="65" height="50" />
<rect fill="#65ffff" fill-opacity="0.501961" x="453" y="460" width="11" height="34" />
<rect fill="#000008" fill-opacity="0.501961" x="0" y="335" width="140" height="50" />
<rect fill="#000002" fill-opacity="0.501961" x="745" y="106" width="34" height="62" />
<rect fill="#000005" fill-opacity="0.501961" x="176" y="434" width="234" height="196" />
<rect fill="#51afb2" fill-opacity="0.501961" x="764" y="71" width="62" height="41" />
<rect fill="#000000" fill-opacity="0.501961" x="463" y="389" width="8" height="44" />
<rect fill="#300600" fill-opacity="0.501961" x="1104" y="534" width="96" height="96" />
<rect fill="#000001" fill-opacity="0.501961" x="434" y="590" width="609" height="40" />
<rect fill="#7b2517" fill-opacity="0.501961" x="103" y="0" width="44" height="47" />
<rect fill="#2a9296" fill-opacity="0.501961" x="1078" y="379" width="40" height="96" />
<rect fill="#ffa079" fill-opacity="0.501961" x="767" y="168" width="31" height="30" />
<rect fill="#5cdbdb" fill-opacity="0.501961" x="540" y="223" width="16" height="215" />
<rect fill="#00525c" fill-opacity="0.501961" x="441" y="509" width="46" height="39" />
<rect fill="#000000" fill-opacity="0.501961" x="1178" y="243" width="22" height="53" />
<rect fill="#00000a" fill-opacity="0.501961" x="62" y="88" width="184" height="210" />
<rect fill="#000006" fill-opacity="0.501961" x="785" y="462" width="45" height="164" />
<rect fill="#000000" fill-opacity="0.501961" x="553" y="425" width="41" height="46" />
<rect fill="#ff794b" fill-opacity="0.501961" x="749" y="300" width="87" height="101" />
<rect fill="#a0533c" fill-opacity="0.501961" x="1126" y="361" width="44" height="95" />
<rect fill="#ff6329" fill-opacity="0.501961" x="446" y="391" width="15" height="47" />
<rect fill="#000000" fill-opacity="0.501961" x="805" y="291" width="26" height="9" />
<rect fill="#eb885e" fill-opacity="0.501961" x="430" y="473" width="15" height="66" />
<rect fill="#db7857" fill-opacity="0.501961" x="1051" y="304" width="50" height="81" />
<rect fill="#d0643c" fill-opacity="0.501961" x="711" y="38" width="38" height="79" />
</g>
</svg>