<svg xmlns="http://www.w3.org/2000/svg" version="1.1" width="1200" height="630">
<rect x="0" y="0" width="1200" height="630" fill="#433935" />
<g transform="scale(1.000000) translate(0.5 0.5)">
<polygon fill="#d4c0b9" fill-opacity="0.501961" points="531,326 -16,191 416,607" />
<polygon fill="#000000" fill-opacity="0.501961" points="804,621 1215,645 1198,-16" />
<polygon fill="#d1cdcb" fill-opacity="0.501961" points="117,43 388,197 558,40" />
<polygon fill="#000000" fill-opacity="0.501961" points="668,548 368,202 676,-16" />
<polygon fill="#dcd8d6" fill-opacity="0.501961" points="875,645 628,645 529,467" />
<polygon fill="#000000" fill-opacity="0.501961" points="170,381 410,177 185,153" />
<polygon fill="#000000" fill-opacity="0.501961" points="837,156 376,-3 1117,-16" />
<polygon fill="#b5a5a1" fill-opacity="0.501961" points="526,471 156,615 389,236" />
<polygon fill="#8d5a48" fill-opacity="0.501961" points="625,366 990,90 1000,473" />
<polygon fill="#000000" fill-opacity="0.501961" points="521,461 1215,460 812,609" />
<polygon fill="#000000" fill-opacity="0.501961" points="532,477 626,645 289,645" />
<polygon fill="#9e9795" fill-opacity="0.501961" points="-1,170 182,58 177,313" />
<polygon fill="#8e5d4b" fill-opacity="0.501961" points="910,131 671,474 672,136" />
<polygon fill="#552c1d" fill-opacity="0.501961" points="242,455 240,302 6,307" />
<polygon fill="#000000" fill-opacity="0.501961" points="1047,2 560,-8 437,249" />
<polygon fill="#a9a2a0" fill-opacity="0.501961" points="309,-16 439,169 547,53" />
<polygon fill="#000204" fill-opacity="0.501961" points="627,7 490,504 675,388" />
<polygon fill="#c0aca6" fill-opacity="0.501961" points="521,440 425,255 203,286" />
<polygon fill="#000000" fill-opacity="0.501961" points="68,492 4,645 -16,413" />
<polygon fill="#000001" fill-opacity="0.501961" points="1198,645 930,550 1212,59" />
<polygon fill="#000001" fill-opacity="0.501961" points="439,282 480,146 221,220" />
<polygon fill="#716865" fill-opacity="0.501961" points="419,498 20,518 279,645" />
<polygon fill="#c6bdba" fill-opacity="0.501961" points="230,121 504,117 329,176" />
<polygon fill="#595351" fill-opacity="0.501961" points="399,6 31,55 -16,237" />
<polygon fill="#000000" fill-opacity="0.501961" points="326,242 190,57 250,306" />
<polygon fill="#000000" fill-opacity="0.501961" points="-15,307 87,303 -16,201" />
<polygon fill="#ccbab5" fill-opacity="0.501961" points="494,492 510,385 435,550" />
<polygon fill="#000000" fill-opacity="0.501961" points="204,43 357,-7 201,-5" />
<polygon fill="#000000" fill-opacity="0.501961" points="469,285 518,417 559,241" />
<polygon fill="#b4988f" fill-opacity="0.501961" points="230,279 193,141 230,203" />
<polygon fill="#bfb9b7" fill-opacity="0.501961" points="434,577 533,593 485,600" />
<polygon fill="#685f5b" fill-opacity="0.501961" points="941,586 1042,534 1155,540" />
<polygon fill="#000000" fill-opacity="0.501961" points="332,645 328,572 601,613" />
<polygon fill="#000000" fill-opacity="0.501961" points="974,133 654,130 897,62" />
<polygon fill="#000000" fill-opacity="0.501961" points="1208,525 764,629 1215,645" />
<polygon fill="#ac8678" fill-opacity="0.501961" points="533,238 470,266 397,256" />
<polygon fill="#7b5547" fill-opacity="0.501961" points="671,169 943,458 684,459" />
<polygon fill="#000000" fill-opacity="0.501961" points="178,277 191,149 235,307" />
<polygon fill="#998c88" fill-opacity="0.501961" points="949,570 897,600 832,597" />
<polygon fill="#aea8a6" fill-opacity="0.501961" points="179,163 98,207 175,304" />
<polygon fill="#beb4b1" fill-opacity="0.501961" points="583,552 525,462 724,567" />
<polygon fill="#7f7a79" fill-opacity="0.501961" points="529,70 343,-1 203,46" />
<polygon fill="#000000" fill-opacity="0.501961" points="998,381 1051,178 1159,205" />
<polygon fill="#9e9c9b" fill-opacity="0.501961" points="14,228 200,296 90,304" />
<polygon fill="#8f827d" fill-opacity="0.501961" points="262,298 229,554 409,583" />
<polygon fill="#000000" fill-opacity="0.501961" points="6,398 -16,629 50,645" />
<polygon fill="#5b3c31" fill-opacity="0.501961" points="242,533 243,304 -16,305" />
<polygon fill="#45322c" fill-opacity="0.501961" points="815,217 1137,-16 1215,111" />
<polygon fill="#cdc3bf" fill-opacity="0.501961" points="437,161 344,174 510,102" />
<polygon fill="#c4b3ad" fill-opacity="0.501961" points="332,264 510,401 462,301" />
<polygon fill="#050809" fill-opacity="0.501961" points="244,279 199,105 433,250" />
<polygon fill="#000103" fill-opacity="0.501961" points="827,620 828,486 492,424" />
<polygon fill="#7d645c" fill-opacity="0.501961" points="831,489 829,607 860,604" />
<polygon fill="#8a7c77" fill-opacity="0.501961" points="195,49 212,168 169,146" />
<polygon fill="#000000" fill-opacity="0.501961" points="544,503 388,569 600,598" />
<polygon fill="#080a0b" fill-opacity="0.501961" points="767,133 552,-16 516,94" />
<polygon fill="#514a48" fill-opacity="0.501961" points="207,645 298,542 17,530" />
<polygon fill="#b0a09a" fill-opacity="0.501961" points="239,305 249,418 517,431" />
<polygon fill="#6c6665" fill-opacity="0.501961" points="572,645 869,641 740,575" />
<polygon fill="#a37d70" fill-opacity="0.501961" points="826,465 844,454 842,529" />
<polygon fill="#6a6562" fill-opacity="0.501961" points="1098,545 1159,539 1215,493" />
<polygon fill="#060808" fill-opacity="0.501961" points="997,228 1009,557 1215,494" />
<polygon fill="#020608" fill-opacity="0.501961" points="533,368 504,252 414,267" />
<polygon fill="#b9b2b0" fill-opacity="0.501961" points="437,575 476,593 410,582" />
<polygon fill="#111314" fill-opacity="0.501961" points="-16,78 161,-16 -1,-4" />
<polygon fill="#101010" fill-opacity="0.501961" points="1052,-16 1215,2 1135,64" />
<polygon fill="#000001" fill-opacity="0.501961" points="464,549 526,407 567,422" />
<polygon fill="#000000" fill-opacity="0.501961" points="353,-8 562,-1 546,51" />
<polygon fill="#524a47" fill-opacity="0.501961" points="218,61 -16,190 164,-2" />
<polygon fill="#48403d" fill-opacity="0.501961" points="1215,95 987,-16 1132,145" />
<polygon fill="#897d79" fill-opacity="0.501961" points="960,563 915,590 1019,565" />
<polygon fill="#a69e9b" fill-opacity="0.501961" points="298,163 513,92 224,108" />
<polygon fill="#b68d7f" fill-opacity="0.501961" points="498,252 544,232 556,244" />
<polygon fill="#726764" fill-opacity="0.501961" points="330,640 321,516 103,512" />
<polygon fill="#0d0f0f" fill-opacity="0.501961" points="810,595 510,457 503,279" />
<polygon fill="#afa8a5" fill-opacity="0.501961" points="547,592 496,593 541,605" />
<polygon fill="#53352a" fill-opacity="0.501961" points="1039,222 894,49 1083,94" />
<polygon fill="#694538" fill-opacity="0.501961" points="1157,200 1100,145 1074,181" />
<polygon fill="#000000" fill-opacity="0.501961" points="82,301 -5,304 -16,201" />
<polygon fill="#070909" fill-opacity="0.501961" points="1160,521 845,593 843,455" />
<polygon fill="#000000" fill-opacity="0.501961" points="205,-16 201,42 383,-16" />
<polygon fill="#000000" fill-opacity="0.501961" points="86,512 -16,511 -16,417" />
<polygon fill="#000000" fill-opacity="0.501961" points="1197,234 1215,180 1059,103" />
<polygon fill="#000102" fill-opacity="0.501961" points="1013,-15 992,70 717,4" />
<polygon fill="#635a57" fill-opacity="0.501961" points="-16,202 57,258 169,32" />
<polygon fill="#aaa19e" fill-opacity="0.501961" points="294,86 467,141 510,95" />
<polygon fill="#0e0f0f" fill-opacity="0.501961" points="254,152 254,275 580,230" />
<polygon fill="#936555" fill-opacity="0.501961" points="672,132 731,132 673,153" />
<polygon fill="#47291e" fill-opacity="0.501961" points="-16,433 189,516 8,298" />
<polygon fill="#b19388" fill-opacity="0.501961" points="231,231 230,283 244,281" />
<polygon fill="#0a0d0e" fill-opacity="0.501961" points="546,40 586,280 471,153" />
<polygon fill="#000304" fill-opacity="0.501961" points="181,291 226,274 179,157" />
<polygon fill="#6d4c40" fill-opacity="0.501961" points="668,460 1001,453 865,131" />
<polygon fill="#564a46" fill-opacity="0.501961" points="1147,142 1007,69 1009,6" />
<polygon fill="#b09d97" fill-opacity="0.501961" points="315,269 415,256 295,346" />
<polygon fill="#000203" fill-opacity="0.501961" points="606,624 333,571 325,645" />
<polygon fill="#938581" fill-opacity="0.501961" points="473,520 242,383 414,562" />
<polygon fill="#2b2a2a" fill-opacity="0.501961" points="37,645 27,537 163,644" />
<polygon fill="#47413f" fill-opacity="0.501961" points="317,641 30,506 30,590" />
<polygon fill="#000102" fill-opacity="0.501961" points="415,170 486,131 450,171" />
</g>
</svg>