<svg xmlns="http://www.w3.org/2000/svg" version="1.1" width="1200" height="630">
<rect x="0" y="0" width="1200" height="630" fill="#342a27" />
<g transform="scale(1.000000) translate(0.5 0.5)">
<g transform="translate(442 539) rotate(319) scale(322 244)"><rect fill="#e0cec6" fill-opacity="0.501961" x="-0.5" y="-0.5" width="1" height="1" /></g>
<g transform="translate(1096 339) rotate(90) scale(327 173)"><rect fill="#91796f" fill-opacity="0.501961" x="-0.5" y="-0.5" width="1" height="1" /></g>
<g transform="translate(664 190) rotate(181) scale(699 385)"><rect fill="#000000" fill-opacity="0.501961" x="-0.5" y="-0.5" width="1" height="1" /></g>
<g transform="translate(178 325) rotate(179) scale(131 290)"><rect fill="#8a6355" fill-opacity="0.501961" x="-0.5" y="-0.5" width="1" height="1" /></g>
<g transform="translate(753 447) rotate(226) scale(296 94)"><rect fill="#956452" fill-opacity="0.501961" x="-0.5" y="-0.5" width="1" height="1" /></g>
<g transform="translate(531 8) rotate(366) scale(1109 226)"><rect fill="#000000" fill-opacity="0.501961" x="-0.5" y="-0.5" width="1" height="1" /></g>
<g transform="translate(35 516) rotate(335) scale(153 327)"><rect fill="#000000" fill-opacity="0.501961" x="-0.5" y="-0.5" width="1" height="1" /></g>
<g transform="translate(603 490) rotate(35) scale(368 98)"><rect fill="#7a5345" fill-opacity="0.501961" x="-0.5" y="-0.5" width="1" height="1" /></g>
<g transform="translate(425 508) rotate(10) scale(215 109)"><rect fill="#bfbab7" fill-opacity="0.501961" x="-0.5" y="-0.5" width="1" height="1" /></g>
<g transform="translate(941 445) rotate(266) scale(281 125)"><rect fill="#000000" fill-opacity="0.501961" x="-0.5" y="-0.5" width="1" height="1" /></g>
<g transform="translate(1150 35) rotate(309) scale(109 248)"><rect fill="#000000" fill-opacity="0.501961" x="-0.5" y="-0.5" width="1" height="1" /></g>
<g transform="translate(273 188) rotate(87) scale(175 80)"><rect fill="#835646" fill-opacity="0.501961" x="-0.5" y="-0.5" width="1" height="1" /></g>
<g transform="translate(29 75) rotate(124) scale(206 113)"><rect fill="#000000" fill-opacity="0.501961" x="-0.5" y="-0.5" width="1" height="1" /></g>
<g transform="translate(83 323) rotate(-44) scale(107 292)"><rect fill="#70564c" fill-opacity="0.501961" x="-0.5" y="-0.5" width="1" height="1" /></g>
<g transform="translate(1022 202) rotate(304) scale(25 92)"><rect fill="#afa4a1" fill-opacity="0.501961" x="-0.5" y="-0.5" width="1" height="1" /></g>
<g transform="translate(593 536) rotate(187) scale(72 207)"><rect fill="#71554b" fill-opacity="0.501961" x="-0.5" y="-0.5" width="1" height="1" /></g>
<g transform="translate(280 391) rotate(271) scale(186 72)"><rect fill="#000000" fill-opacity="0.501961" x="-0.5" y="-0.5" width="1" height="1" /></g>
<g transform="translate(253 543) rotate(143) scale(70 272)"><rect fill="#634f47" fill-opacity="0.501961" x="-0.5" y="-0.5" width="1" height="1" /></g>
<g transform="translate(631 378) rotate(0) scale(52 109)"><rect fill="#000000" fill-opacity="0.501961" x="-0.5" y="-0.5" width="1" height="1" /></g>
<g transform="translate(885 441) rotate(225) scale(279 97)"><rect fill="#000204" fill-opacity="0.501961" x="-0.5" y="-0.5" width="1" height="1" /></g>
<g transform="translate(1067 538) rotate(89) scale(99 114)"><rect fill="#645651" fill-opacity="0.501961" x="-0.5" y="-0.5" width="1" height="1" /></g>
<g transform="translate(1044 318) rotate(182) scale(61 278)"><rect fill="#8b7c76" fill-opacity="0.501961" x="-0.5" y="-0.5" width="1" height="1" /></g>
<g transform="translate(98 444) rotate(134) scale(37 118)"><rect fill="#000000" fill-opacity="0.501961" x="-0.5" y="-0.5" width="1" height="1" /></g>
<g transform="translate(203 113) rotate(210) scale(141 124)"><rect fill="#5c3d31" fill-opacity="0.501961" x="-0.5" y="-0.5" width="1" height="1" /></g>
<g transform="translate(1102 629) rotate(179) scale(227 34)"><rect fill="#000000" fill-opacity="0.501961" x="-0.5" y="-0.5" width="1" height="1" /></g>
<g transform="translate(1159 223) rotate(159) scale(91 283)"><rect fill="#503c35" fill-opacity="0.501961" x="-0.5" y="-0.5" width="1" height="1" /></g>
<g transform="translate(422 408) rotate(420) scale(31 165)"><rect fill="#8e6759" fill-opacity="0.501961" x="-0.5" y="-0.5" width="1" height="1" /></g>
<g transform="translate(690 409) rotate(359) scale(61 214)"><rect fill="#835b4d" fill-opacity="0.501961" x="-0.5" y="-0.5" width="1" height="1" /></g>
<g transform="translate(337 397) rotate(57) scale(71 172)"><rect fill="#000204" fill-opacity="0.501961" x="-0.5" y="-0.5" width="1" height="1" /></g>
<g transform="translate(567 430) rotate(210) scale(150 39)"><rect fill="#98796d" fill-opacity="0.501961" x="-0.5" y="-0.5" width="1" height="1" /></g>
<g transform="translate(892 559) rotate(225) scale(125 58)"><rect fill="#5f3f33" fill-opacity="0.501961" x="-0.5" y="-0.5" width="1" height="1" /></g>
<g transform="translate(647 496) rotate(360) scale(21 76)"><rect fill="#000000" fill-opacity="0.501961" x="-0.5" y="-0.5" width="1" height="1" /></g>
<g transform="translate(1149 353) rotate(174) scale(111 405)"><rect fill="#4f3e38" fill-opacity="0.501961" x="-0.5" y="-0.5" width="1" height="1" /></g>
<g transform="translate(38 578) rotate(226) scale(286 123)"><rect fill="#000000" fill-opacity="0.501961" x="-0.5" y="-0.5" width="1" height="1" /></g>
<g transform="translate(542 576) rotate(84) scale(114 42)"><rect fill="#a1a09f" fill-opacity="0.501961" x="-0.5" y="-0.5" width="1" height="1" /></g>
<g transform="translate(558 387) rotate(120) scale(23 232)"><rect fill="#000204" fill-opacity="0.501961" x="-0.5" y="-0.5" width="1" height="1" /></g>
<g transform="translate(605 592) rotate(168) scale(69 124)"><rect fill="#4b2e23" fill-opacity="0.501961" x="-0.5" y="-0.5" width="1" height="1" /></g>
<g transform="translate(246 559) rotate(109) scale(114 47)"><rect fill="#3c2217" fill-opacity="0.501961" x="-0.5" y="-0.5" width="1" height="1" /></g>
<g transform="translate(111 529) rotate(-46) scale(47 115)"><rect fill="#53372c" fill-opacity="0.501961" x="-0.5" y="-0.5" width="1" height="1" /></g>
<g transform="translate(226 0) rotate(292) scale(101 223)"><rect fill="#000000" fill-opacity="0.501961" x="-0.5" y="-0.5" width="1" height="1" /></g>
<g transform="translate(778 576) rotate(283) scale(147 252)"><rect fill="#54382e" fill-opacity="0.501961" x="-0.5" y="-0.5" width="1" height="1" /></g>
<g transform="translate(441 472) rotate(281) scale(45 92)"><rect fill="#cac1be" fill-opacity="0.501961" x="-0.5" y="-0.5" width="1" height="1" /></g>
<g transform="translate(1092 19) rotate(372) scale(359 85)"><rect fill="#000000" fill-opacity="0.501961" x="-0.5" y="-0.5" width="1" height="1" /></g>
<g transform="translate(712 313) rotate(225) scale(68 34)"><rect fill="#000205" fill-opacity="0.501961" x="-0.5" y="-0.5" width="1" height="1" /></g>
<g transform="translate(296 588) rotate(-83) scale(118 54)"><rect fill="#7d8081" fill-opacity="0.501961" x="-0.5" y="-0.5" width="1" height="1" /></g>
<g transform="translate(544 498) rotate(141) scale(21 124)"><rect fill="#684b40" fill-opacity="0.501961" x="-0.5" y="-0.5" width="1" height="1" /></g>
<g transform="translate(999 451) rotate(173) scale(24 10)"><rect fill="#c3bebb" fill-opacity="0.501961" x="-0.5" y="-0.5" width="1" height="1" /></g>
<g transform="translate(984 578) rotate(351) scale(44 85)"><rect fill="#000000" fill-opacity="0.501961" x="-0.5" y="-0.5" width="1" height="1" /></g>
<g transform="translate(115 208) rotate(466) scale(191 170)"><rect fill="#51352b" fill-opacity="0.501961" x="-0.5" y="-0.5" width="1" height="1" /></g>
<g transform="translate(38 409) rotate(48) scale(170 65)"><rect fill="#000001" fill-opacity="0.501961" x="-0.5" y="-0.5" width="1" height="1" /></g>
<g transform="translate(1013 220) rotate(307) scale(13 45)"><rect fill="#000000" fill-opacity="0.501961" x="-0.5" y="-0.5" width="1" height="1" /></g>
<g transform="translate(218 384) rotate(178) scale(49 135)"><rect fill="#7c635a" fill-opacity="0.501961" x="-0.5" y="-0.5" width="1" height="1" /></g>
<g transform="translate(17 72) rotate(103) scale(215 91)"><rect fill="#000000" fill-opacity="0.501961" x="-0.5" y="-0.5" width="1" height="1" /></g>
<g transform="translate(416 622) rotate(186) scale(259 48)"><rect fill="#646565" fill-opacity="0.501961" x="-0.5" y="-0.5" width="1" height="1" /></g>
<g transform="translate(309 288) rotate(327) scale(129 38)"><rect fill="#000607" fill-opacity="0.501961" x="-0.5" y="-0.5" width="1" height="1" /></g>
<g transform="translate(1027 100) rotate(266) scale(153 96)"><rect fill="#000404" fill-opacity="0.501961" x="-0.5" y="-0.5" width="1" height="1" /></g>
<g transform="translate(717 479) rotate(180) scale(120 126)"><rect fill="#6e4d41" fill-opacity="0.501961" x="-0.5" y="-0.5" width="1" height="1" /></g>
<g transform="translate(389 431) rotate(249) scale(28 140)"><rect fill="#75564b" fill-opacity="0.501961" x="-0.5" y="-0.5" width="1" height="1" /></g>
<g transform="translate(376 548) rotate(25) scale(182 59)"><rect fill="#8f8b8a" fill-opacity="0.501961" x="-0.5" y="-0.5" width="1" height="1" /></g>
<g transform="translate(712 361) rotate(316) scale(30 168)"><rect fill="#805a4d" fill-opacity="0.501961" x="-0.5" y="-0.5" width="1" height="1" /></g>
<g transform="translate(267 268) rotate(149) scale(94 36)"><rect fill="#765144" fill-opacity="0.501961" x="-0.5" y="-0.5" width="1" height="1" /></g>
<g transform="translate(617 373) rotate(91) scale(83 78)"><rect fill="#050c0d" fill-opacity="0.501961" x="-0.5" y="-0.5" width="1" height="1" /></g>
<g transform="translate(1190 111) rotate(250) scale(94 48)"><rect fill="#000000" fill-opacity="0.501961" x="-0.5" y="-0.5" width="1" height="1" /></g>
<g transform="translate(126 503) rotate(91) scale(38 147)"><rect fill="#4e3429" fill-opacity="0.501961" x="-0.5" y="-0.5" width="1" height="1" /></g>
<g transform="translate(104 92) rotate(-31) scale(144 35)"><rect fill="#3e2a22" fill-opacity="0.501961" x="-0.5" y="-0.5" width="1" height="1" /></g>
<g transform="translate(1124 629) rotate(265) scale(40 240)"><rect fill="#000000" fill-opacity="0.501961" x="-0.5" y="-0.5" width="1" height="1" /></g>
<g transform="translate(1149 97) rotate(72) scale(71 16)"><rect fill="#585452" fill-opacity="0.501961" x="-0.5" y="-0.5" width="1" height="1" /></g>
<g transform="translate(97 339) rotate(27) scale(122 81)"><rect fill="#644e47" fill-opacity="0.501961" x="-0.5" y="-0.5" width="1" height="1" /></g>
<g transform="translate(994 187) rotate(293) scale(9 44)"><rect fill="#a5958e" fill-opacity="0.501961" x="-0.5" y="-0.5" width="1" height="1" /></g>
<g transform="translate(432 210) rotate(97) scale(283 224)"><rect fill="#070c0d" fill-opacity="0.501961" x="-0.5" y="-0.5" width="1" height="1" /></g>
<g transform="translate(1061 329) rotate(106) scale(81 18)"><rect fill="#978d8a" fill-opacity="0.501961" x="-0.5" y="-0.5" width="1" height="1" /></g>
<g transform="translate(886 233) rotate(219) scale(201 191)"><rect fill="#060b0c" fill-opacity="0.501961" x="-0.5" y="-0.5" width="1" height="1" /></g>
<g transform="translate(275 498) rotate(182) scale(42 30)"><rect fill="#704a3c" fill-opacity="0.501961" x="-0.5" y="-0.5" width="1" height="1" /></g>
<g transform="translate(515 502) rotate(315) scale(24 76)"><rect fill="#c1b8b5" fill-opacity="0.501961" x="-0.5" y="-0.5" width="1" height="1" /></g>
<g transform="translate(501 590) rotate(386) scale(130 56)"><rect fill="#878381" fill-opacity="0.501961" x="-0.5" y="-0.5" width="1" height="1" /></g>
<g transform="translate(647 489) rotate(271) scale(86 18)"><rect fill="#000003" fill-opacity="0.501961" x="-0.5" y="-0.5" width="1" height="1" /></g>
<g transform="translate(1044 481) rotate(91) scale(118 64)"><rect fill="#675751" fill-opacity="0.501961" x="-0.5" y="-0.5" width="1" height="1" /></g>
<g transform="translate(1082 111) rotate(270) scale(127 15)"><rect fill="#59453d" fill-opacity="0.501961" x="-0.5" y="-0.5" width="1" height="1" /></g>
<g transform="translate(161 208) rotate(435) scale(117 169)"><rect fill="#553c32" fill-opacity="0.501961" x="-0.5" y="-0.5" width="1" height="1" /></g>
<g transform="translate(679 186) rotate(214) scale(369 191)"><rect fill="#0a0e0e" fill-opacity="0.501961" x="-0.5" y="-0.5" width="1" height="1" /></g>
<g transform="translate(539 450) rotate(217) scale(200 81)"><rect fill="#7f6359" fill-opacity="0.501961" x="-0.5" y="-0.5" width="1" height="1" /></g>
<g transform="translate(225 523) rotate(212) scale(99 87)"><rect fill="#50352c" fill-opacity="0.501961" x="-0.5" y="-0.5" width="1" height="1" /></g>
<g transform="translate(986 438) rotate(147) scale(51 27)"><rect fill="#000304" fill-opacity="0.501961" x="-0.5" y="-0.5" width="1" height="1" /></g>
<g transform="translate(1164 452) rotate(218) scale(81 190)"><rect fill="#4f4440" fill-opacity="0.501961" x="-0.5" y="-0.5" width="1" height="1" /></g>
<g transform="translate(657 603) rotate(280) scale(85 177)"><rect fill="#4a342b" fill-opacity="0.501961" x="-0.5" y="-0.5" width="1" height="1" /></g>
<g transform="translate(121 461) rotate(46) scale(46 26)"><rect fill="#000000" fill-opacity="0.501961" x="-0.5" y="-0.5" width="1" height="1" /></g>
<g transform="translate(102 36) rotate(60) scale(58 269)"><rect fill="#000101" fill-opacity="0.501961" x="-0.5" y="-0.5" width="1" height="1" /></g>
<g transform="translate(419 408) rotate(150) scale(163 27)"><rect fill="#85695f" fill-opacity="0.501961" x="-0.5" y="-0.5" width="1" height="1" /></g>
<g transform="translate(646 538) rotate(359) scale(22 7)"><rect fill="#b2aba7" fill-opacity="0.501961" x="-0.5" y="-0.5" width="1" height="1" /></g>
<g transform="translate(640 306) rotate(3) scale(34 36)"><rect fill="#000809" fill-opacity="0.501961" x="-0.5" y="-0.5" width="1" height="1" /></g>
<g transform="translate(1150 589) rotate(180) scale(158 50)"><rect fill="#2a2522" fill-opacity="0.501961" x="-0.5" y="-0.5" width="1" height="1" /></g>
<g transform="translate(338 417) rotate(330) scale(203 32)"><rect fill="#080b0b" fill-opacity="0.501961" x="-0.5" y="-0.5" width="1" height="1" /></g>
<g transform="translate(870 428) rotate(46) scale(251 91)"><rect fill="#0c0e0e" fill-opacity="0.501961" x="-0.5" y="-0.5" width="1" height="1" /></g>
<g transform="translate(964 412) rotate(89) scale(58 91)"><rect fill="#040809" fill-opacity="0.501961" x="-0.5" y="-0.5" width="1" height="1" /></g>
<g transform="translate(940 620) rotate(134) scale(75 119)"><rect fill="#3b271f" fill-opacity="0.501961" x="-0.5" y="-0.5" width="1" height="1" /></g>
<g transform="translate(422 431) rotate(89) scale(30 92)"><rect fill="#7b5d52" fill-opacity="0.501961" x="-0.5" y="-0.5" width="1" height="1" /></g>
<g transform="translate(206 466) rotate(360) scale(76 31)"><rect fill="#6c564e" fill-opacity="0.501961" x="-0.5" y="-0.5" width="1" height="1" /></g>
<g transform="translate(1023 283) rotate(179) scale(25 101)"><rect fill="#846e66" fill-opacity="0.501961" x="-0.5" y="-0.5" width="1" height="1" /></g>
<g transform="translate(375 469) rotate(72) scale(33 53)"><rect fill="#bbb3b1" fill-opacity="0.501961" x="-0.5" y="-0.5" width="1" height="1" /></g>
<g transform="translate(50 596) rotate(408) scale(227 122)"><rect fill="#000101" fill-opacity="0.501961" x="-0.5" y="-0.5" width="1" height="1" /></g>
</g>
</svg>