<svg xmlns="http://www.w3.org/2000/svg" version="1.1" width="1200" height="630">
<rect x="0" y="0" width="1200" height="630" fill="#434453" />
<g transform="scale(1.000000) translate(0.5 0.5)">
<path stroke="#fbf1f2" stroke-opacity="0.501961" fill="none" d="M 120.104799 189.431439 Q 660.783372 452.835210, 827.800072 244.228237" stroke-width="0.500000" />
<path stroke="#faeef0" stroke-opacity="0.501961" fill="none" d="M 843.095397 247.045944 Q 596.200020 428.116479, 115.551220 184.318947" stroke-width="0.500000" />
<path stroke="#fce1da" stroke-opacity="0.501961" fill="none" d="M 195.520687 235.544896 Q 943.171628 375.326799, 979.649886 87.913218" stroke-width="0.500000" />
<path stroke="#dae2ec" stroke-opacity="0.501961" fill="none" d="M 164.210270 162.332779 Q 373.227180 431.103101, 1081.653778 168.666917" stroke-width="0.500000" />
<path stroke="#ebe1e2" stroke-opacity="0.501961" fill="none" d="M 206.043891 153.478270 Q 561.401914 567.888963, 1008.547752 104.674738" stroke-width="0.500000" />
<path stroke="#f6e0dc" stroke-opacity="0.501961" fill="none" d="M 963.528556 82.894460 Q 591.817959 610.115067, 257.863673 142.136923" stroke-width="0.500000" />
<path stroke="#f2e6e7" stroke-opacity="0.501961" fill="none" d="M 183.391347 222.514586 Q 269.715566 314.071230, 1040.663499 222.636765" stroke-width="0.500000" />
<path stroke="#ebe3e5" stroke-opacity="0.501961" fill="none" d="M 1058.245277 158.842961 Q 631.503812 381.453702, 202.676738 187.944522" stroke-width="0.500000" />
<path stroke="#e8e2e6" stroke-opacity="0.501961" fill="none" d="M 1025.242670 133.844298 Q 450.627688 535.483680, 241.569624 142.390909" stroke-width="0.500000" />
<path stroke="#ede6e9" stroke-opacity="0.501961" fill="none" d="M 214.845320 194.372283 Q 315.397638 374.637407, 1045.801070 201.401971" stroke-width="0.500000" />
<path stroke="#fdf1f3" stroke-opacity="0.501961" fill="none" d="M 835.194712 248.626305 Q 505.247818 412.317692, 193.010501 170.474352" stroke-width="0.500000" />
<path stroke="#f5dcd6" stroke-opacity="0.501961" fill="none" d="M 178.728355 193.002322 Q 908.629872 400.326168, 935.649522 96.850414" stroke-width="0.500000" />
<path stroke="#f5e0dd" stroke-opacity="0.501961" fill="none" d="M 977.241757 136.276187 Q 932.436959 336.565199, 199.818857 218.076089" stroke-width="0.500000" />
<path stroke="#e3e4eb" stroke-opacity="0.501961" fill="none" d="M 967.335734 186.945410 Q 411.352854 469.868145, 176.729751 160.786758" stroke-width="0.500000" />
<path stroke="#e7dcdd" stroke-opacity="0.501961" fill="none" d="M 173.712136 212.381765 Q 970.805663 297.166395, 1066.147234 174.697616" stroke-width="0.500000" />
<path stroke="#fff2f1" stroke-opacity="0.501961" fill="none" d="M 236.543509 143.347495 Q 420.262420 472.913199, 843.333939 247.961180" stroke-width="0.500000" />
<path stroke="#f4dbd5" stroke-opacity="0.501961" fill="none" d="M 1009.036961 117.588949 Q 999.302904 318.432711, 251.566563 224.124755" stroke-width="0.500000" />
<path stroke="#fff4f2" stroke-opacity="0.501961" fill="none" d="M 808.474456 236.684236 Q 575.699322 552.132941, 275.489251 137.232303" stroke-width="0.500000" />
<path stroke="#f6ebed" stroke-opacity="0.501961" fill="none" d="M 129.649451 202.071776 Q 697.910339 455.372691, 820.203766 238.332760" stroke-width="0.500000" />
<path stroke="#ffe5dd" stroke-opacity="0.501961" fill="none" d="M 821.530252 241.080863 Q 398.214536 242.670502, 118.174780 203.287795" stroke-width="0.500000" />
<path stroke="#fde2dc" stroke-opacity="0.501961" fill="none" d="M 835.047581 239.848019 Q 371.311747 238.140369, 139.634355 170.427186" stroke-width="0.500000" />
<path stroke="#fee9e5" stroke-opacity="0.501961" fill="none" d="M 816.854895 266.923744 Q 305.105322 264.196315, 128.782541 209.446373" stroke-width="0.500000" />
<path stroke="#fff2f1" stroke-opacity="0.501961" fill="none" d="M 235.504598 179.614853 Q 668.726185 514.371554, 782.966346 231.738396" stroke-width="0.500000" />
<path stroke="#fff3f2" stroke-opacity="0.501961" fill="none" d="M 815.144631 262.044999 Q 472.184657 481.900839, 299.100732 131.014133" stroke-width="0.500000" />
<path stroke="#fff4f3" stroke-opacity="0.501961" fill="none" d="M 795.322359 235.185455 Q 576.589395 548.219221, 280.206899 138.716641" stroke-width="0.500000" />
<path stroke="#f0ecf1" stroke-opacity="0.501961" fill="none" d="M 811.876300 257.450290 Q 528.574324 422.372438, 153.067172 165.886546" stroke-width="0.500000" />
<path stroke="#f3dbd7" stroke-opacity="0.501961" fill="none" d="M 197.223362 160.739855 Q 836.294495 436.616340, 919.652074 125.642701" stroke-width="0.500000" />
<path stroke="#f5dad6" stroke-opacity="0.501961" fill="none" d="M 982.685818 258.151226 Q 258.309654 178.740338, 226.353738 252.271029" stroke-width="0.500000" />
<path stroke="#fff2f0" stroke-opacity="0.501961" fill="none" d="M 305.895405 127.601928 Q 559.709776 544.110205, 788.868708 230.652044" stroke-width="0.500000" />
<path stroke="#f0cdcd" stroke-opacity="0.501961" fill="none" d="M 1027.248382 251.753419 Q 262.103835 204.395567, 200.855162 415.705663" stroke-width="0.500000" />
<path stroke="#f9f0f4" stroke-opacity="0.501961" fill="none" d="M 275.154867 133.317450 Q 373.816948 404.604615, 811.948003 255.411862" stroke-width="0.500000" />
<path stroke="#ffedec" stroke-opacity="0.501961" fill="none" d="M 806.415779 248.088299 Q 352.917124 334.583352, 171.540512 195.599273" stroke-width="0.500000" />
<path stroke="#ffe8e2" stroke-opacity="0.501961" fill="none" d="M 161.086741 211.299528 Q 677.568497 332.955691, 827.321581 251.217034" stroke-width="0.500000" />
<path stroke="#e7ebf3" stroke-opacity="0.501961" fill="none" d="M 786.405206 277.730776 Q 568.425757 420.751338, 127.095062 183.574272" stroke-width="0.500000" />
<path stroke="#dcd3d5" stroke-opacity="0.501961" fill="none" d="M 183.184994 200.032308 Q 1061.169191 314.896885, 1084.330553 150.656737" stroke-width="0.500000" />
<path stroke="#d2d4da" stroke-opacity="0.501961" fill="none" d="M 1093.938719 164.065301 Q 341.174730 400.501688, 176.878079 154.391372" stroke-width="0.500000" />
<path stroke="#fdf0f2" stroke-opacity="0.501961" fill="none" d="M 808.313012 251.940226 Q 380.354926 404.755670, 317.951242 128.178278" stroke-width="0.500000" />
<path stroke="#dac8c6" stroke-opacity="0.501961" fill="none" d="M 165.566573 159.909674 Q 743.042990 570.576442, 998.401148 14.925755" stroke-width="0.500000" />
<path stroke="#fff1f1" stroke-opacity="0.501961" fill="none" d="M 315.121257 123.383674 Q 540.189161 531.755976, 771.727891 236.060295" stroke-width="0.500000" />
<path stroke="#fde0d9" stroke-opacity="0.501961" fill="none" d="M 809.711792 238.499801 Q 292.533728 195.048823, 120.795804 200.138705" stroke-width="0.500000" />
<path stroke="#ffdacf" stroke-opacity="0.501961" fill="none" d="M 839.108020 252.680463 Q 824.430595 211.659242, 137.581146 197.280192" stroke-width="0.500000" />
<path stroke="#e5e6ee" stroke-opacity="0.501961" fill="none" d="M 763.409175 225.374890 Q 629.417221 458.460675, 112.956422 187.167878" stroke-width="0.500000" />
<path stroke="#fff0f1" stroke-opacity="0.501961" fill="none" d="M 318.782225 125.573185 Q 468.807112 425.888146, 799.722248 262.110045" stroke-width="0.500000" />
<path stroke="#ffeee9" stroke-opacity="0.501961" fill="none" d="M 789.552751 241.309513 Q 615.306647 523.869271, 319.524261 211.069274" stroke-width="0.500000" />
<path stroke="#f8e9e9" stroke-opacity="0.501961" fill="none" d="M 248.609573 142.226136 Q 475.057032 498.989647, 832.679058 256.012770" stroke-width="0.500000" />
<path stroke="#f7dcd6" stroke-opacity="0.501961" fill="none" d="M 847.253540 243.675116 Q 149.827567 290.237257, 151.257804 149.667875" stroke-width="0.500000" />
<path stroke="#e9dbda" stroke-opacity="0.501961" fill="none" d="M 225.401845 148.942403 Q 258.122177 302.919313, 1004.053919 235.210474" stroke-width="0.500000" />
<path stroke="#fff1f1" stroke-opacity="0.501961" fill="none" d="M 328.543930 124.957801 Q 523.886962 505.434467, 776.462527 229.265982" stroke-width="0.500000" />
<path stroke="#cad3de" stroke-opacity="0.501961" fill="none" d="M 165.894143 149.584963 Q 333.328664 430.247768, 1085.357867 173.166306" stroke-width="0.500000" />
<path stroke="#ffdfd7" stroke-opacity="0.501961" fill="none" d="M 798.458059 236.323340 Q 615.791073 204.879384, 141.294855 205.512937" stroke-width="0.500000" />
<path stroke="#e1d9dc" stroke-opacity="0.501961" fill="none" d="M 322.835614 125.701864 Q 556.072735 512.459711, 994.764528 136.432282" stroke-width="0.500000" />
<path stroke="#ffe7e2" stroke-opacity="0.501961" fill="none" d="M 785.567831 239.844308 Q 407.119095 204.670737, 197.689701 237.997267" stroke-width="0.500000" />
<path stroke="#fff2f3" stroke-opacity="0.501961" fill="none" d="M 357.490269 119.302418 Q 488.032743 516.139748, 771.422693 280.447061" stroke-width="0.500000" />
<path stroke="#ddd8dd" stroke-opacity="0.501961" fill="none" d="M 977.316411 143.799111 Q 484.688077 566.075560, 266.046559 132.580723" stroke-width="0.500000" />
<path stroke="#ffeeed" stroke-opacity="0.501961" fill="none" d="M 779.541592 249.571438 Q 580.673326 514.040225, 335.430897 127.181983" stroke-width="0.500000" />
<path stroke="#e9c0c0" stroke-opacity="0.501961" fill="none" d="M 1012.408387 250.993221 Q 269.960083 246.182802, 115.766204 417.896768" stroke-width="0.500000" />
<path stroke="#f5e0dc" stroke-opacity="0.501961" fill="none" d="M 836.297126 252.499895 Q 231.188639 309.907291, 143.976392 169.894521" stroke-width="0.500000" />
<path stroke="#f4e6e6" stroke-opacity="0.501961" fill="none" d="M 779.962507 230.972962 Q 485.628259 304.654251, 140.223740 215.363279" stroke-width="0.500000" />
<path stroke="#d7c4c0" stroke-opacity="0.501961" fill="none" d="M 220.147986 150.935548 Q 971.580629 372.827067, 1087.412683 74.497097" stroke-width="0.500000" />
<path stroke="#edd7d3" stroke-opacity="0.501961" fill="none" d="M 1039.314374 239.326375 Q 285.257140 270.643603, 234.784259 212.625844" stroke-width="0.500000" />
<path stroke="#d9e0eb" stroke-opacity="0.501961" fill="none" d="M 75.648998 188.451495 Q 688.769191 433.464270, 762.420291 252.992603" stroke-width="0.500000" />
<path stroke="#ead6d4" stroke-opacity="0.501961" fill="none" d="M 971.148349 110.255348 Q 552.861944 593.242655, 331.743462 154.559127" stroke-width="0.500000" />
<path stroke="#ffedea" stroke-opacity="0.501961" fill="none" d="M 381.046417 125.964503 Q 522.517353 533.414818, 796.052338 263.842882" stroke-width="0.500000" />
<path stroke="#fdebea" stroke-opacity="0.501961" fill="none" d="M 340.653950 123.699909 Q 499.864734 430.488385, 811.140634 250.281004" stroke-width="0.500000" />
<path stroke="#ffe5da" stroke-opacity="0.501961" fill="none" d="M 816.095927 242.912481 Q 424.667212 210.540361, 242.217727 239.723267" stroke-width="0.500000" />
<path stroke="#e7d5d3" stroke-opacity="0.501961" fill="none" d="M 218.897086 167.606157 Q 812.339835 372.631226, 939.376891 154.786585" stroke-width="0.500000" />
<path stroke="#eceaf1" stroke-opacity="0.501961" fill="none" d="M 790.337336 274.913397 Q 354.523703 385.105260, 252.040553 152.744629" stroke-width="0.500000" />
<path stroke="#95e3ff" stroke-opacity="0.501961" fill="none" d="M 85.316832 193.612611 Q 558.092024 51.950893, 565.596871 458.377371" stroke-width="0.500000" />
<path stroke="#f9d6cd" stroke-opacity="0.501961" fill="none" d="M 155.391856 194.921296 Q 784.135454 196.831643, 809.572970 255.761522" stroke-width="0.500000" />
<path stroke="#fbedef" stroke-opacity="0.501961" fill="none" d="M 764.882791 258.705248 Q 444.919597 482.709477, 375.069049 118.473867" stroke-width="0.500000" />
<path stroke="#d4d7e0" stroke-opacity="0.501961" fill="none" d="M 998.218075 206.412215 Q 309.515588 400.875414, 207.930582 165.131797" stroke-width="0.500000" />
<path stroke="#f1b2a8" stroke-opacity="0.501961" fill="none" d="M 831.626187 258.480706 Q 151.259792 34.609638, 133.161242 457.384105" stroke-width="0.500000" />
<path stroke="#f3eff6" stroke-opacity="0.501961" fill="none" d="M 749.768213 268.585776 Q 429.651784 379.301015, 365.697543 115.018904" stroke-width="0.500000" />
<path stroke="#dbd3d6" stroke-opacity="0.501961" fill="none" d="M 202.663351 171.443313 Q 221.460347 329.534848, 1035.177789 226.190305" stroke-width="0.500000" />
<path stroke="#e0d2d2" stroke-opacity="0.501961" fill="none" d="M 979.203107 228.035407 Q 250.592813 318.796783, 206.333953 168.462322" stroke-width="0.500000" />
<path stroke="#ced1da" stroke-opacity="0.501961" fill="none" d="M 1036.344767 150.811391 Q 394.190643 521.765429, 233.553945 141.433281" stroke-width="0.500000" />
<path stroke="#e1d4d6" stroke-opacity="0.501961" fill="none" d="M 385.033251 131.871475 Q 511.255613 515.758876, 996.281030 145.975094" stroke-width="0.500000" />
<path stroke="#ffbeb7" stroke-opacity="0.501961" fill="none" d="M 763.873067 304.823882 Q 589.717871 41.152949, 119.188609 445.740104" stroke-width="0.500000" />
<path stroke="#fbddd6" stroke-opacity="0.501961" fill="none" d="M 197.764719 159.442924 Q 531.190380 250.835800, 791.443415 233.482231" stroke-width="0.500000" />
<path stroke="#ffdad0" stroke-opacity="0.501961" fill="none" d="M 142.687874 212.399030 Q 794.391786 211.669587, 815.470968 249.495346" stroke-width="0.500000" />
<path stroke="#ece7ed" stroke-opacity="0.501961" fill="none" d="M 787.510406 272.568152 Q 328.193344 344.219438, 218.689450 227.424393" stroke-width="0.500000" />
<path stroke="#89d7ff" stroke-opacity="0.501961" fill="none" d="M 99.955433 197.681273 Q 588.992682 -16.000000, 555.009312 531.982382" stroke-width="0.500000" />
<path stroke="#8ee1ff" stroke-opacity="0.501961" fill="none" d="M 550.231545 536.339335 Q 593.759150 40.137976, 177.557445 193.728444" stroke-width="0.500000" />
<path stroke="#ffe7e4" stroke-opacity="0.501961" fill="none" d="M 794.571588 247.195217 Q 532.648936 512.810836, 386.658590 113.440943" stroke-width="0.500000" />
<path stroke="#fcb6ae" stroke-opacity="0.501961" fill="none" d="M 814.808877 270.506289 Q 777.914514 144.175682, 42.323038 411.145677" stroke-width="0.500000" />
<path stroke="#8ee0ff" stroke-opacity="0.501961" fill="none" d="M 129.762353 210.588806 Q 604.010971 55.085789, 544.002024 519.451618" stroke-width="0.500000" />
<path stroke="#fce7e4" stroke-opacity="0.501961" fill="none" d="M 742.712018 238.239061 Q 274.232314 270.882247, 247.967850 168.063702" stroke-width="0.500000" />
<path stroke="#e4e1e8" stroke-opacity="0.501961" fill="none" d="M 765.719553 233.455517 Q 713.372597 381.632668, 161.204377 214.856257" stroke-width="0.500000" />
<path stroke="#fdb8b0" stroke-opacity="0.501961" fill="none" d="M 50.194960 377.652621 Q 614.712554 254.333267, 844.449142 247.084572" stroke-width="0.500000" />
<path stroke="#eedfde" stroke-opacity="0.501961" fill="none" d="M 167.523425 179.165367 Q 315.131016 232.017011, 761.781431 240.761351" stroke-width="0.500000" />
<path stroke="#fcd4c9" stroke-opacity="0.501961" fill="none" d="M 253.102515 257.076358 Q 321.883073 123.533512, 827.777319 244.165367" stroke-width="0.500000" />
<path stroke="#ffe4da" stroke-opacity="0.501961" fill="none" d="M 819.161447 257.443612 Q 743.731300 316.740384, 249.401082 251.533694" stroke-width="0.500000" />
<path stroke="#83d1ff" stroke-opacity="0.501961" fill="none" d="M 535.859617 565.088888 Q 615.402723 2.132765, 82.191779 187.754071" stroke-width="0.500000" />
<path stroke="#eee5e9" stroke-opacity="0.501961" fill="none" d="M 766.831288 228.085721 Q 462.596971 502.971408, 296.946825 133.366965" stroke-width="0.500000" />
<path stroke="#f3d5ce" stroke-opacity="0.501961" fill="none" d="M 160.798537 213.428898 Q 814.893853 276.699587, 836.003817 233.378035" stroke-width="0.500000" />
<path stroke="#d2cacd" stroke-opacity="0.501961" fill="none" d="M 1044.808531 228.647377 Q 773.060987 272.649718, 134.544466 168.277871" stroke-width="0.500000" />
<path stroke="#eddedf" stroke-opacity="0.501961" fill="none" d="M 291.588993 124.368992 Q 444.427992 500.722286, 810.908366 250.549531" stroke-width="0.500000" />
<path stroke="#f7e9eb" stroke-opacity="0.501961" fill="none" d="M 386.484643 116.020079 Q 502.396202 507.356568, 774.344339 291.820294" stroke-width="0.500000" />
<path stroke="#ffe0d4" stroke-opacity="0.501961" fill="none" d="M 254.470542 238.825499 Q 774.603515 300.488982, 813.522434 238.434601" stroke-width="0.500000" />
<path stroke="#fce6e4" stroke-opacity="0.501961" fill="none" d="M 778.093156 231.436387 Q 546.750327 529.180864, 327.596811 162.286893" stroke-width="0.500000" />
</g>
</svg>