<svg xmlns="http://www.w3.org/2000/svg" version="1.1" width="1200" height="630">
<rect x="0" y="0" width="1200" height="630" fill="#28222a" />
<g transform="scale(1.000000) translate(0.5 0.5)">
<ellipse fill="#ff37bd" fill-opacity="0.501961" cx="231" cy="295" rx="153" ry="153" />
<ellipse fill="#f0bed3" fill-opacity="0.501961" cx="777" cy="597" rx="75" ry="75" />
<ellipse fill="#4fe79b" fill-opacity="0.501961" cx="1022" cy="294" rx="129" ry="129" />
<ellipse fill="#3ba56c" fill-opacity="0.501961" cx="0" cy="290" rx="129" ry="129" />
<ellipse fill="#ff2b9c" fill-opacity="0.501961" cx="313" cy="386" rx="59" ry="59" />
<ellipse fill="#33ac6c" fill-opacity="0.501961" cx="206" cy="114" rx="66" ry="66" />
<ellipse fill="#ff237f" fill-opacity="0.501961" cx="236" cy="301" rx="135" ry="135" />
<ellipse fill="#ff2d9e" fill-opacity="0.501961" cx="340" cy="212" rx="41" ry="41" />
<ellipse fill="#2b7c52" fill-opacity="0.501961" cx="82" cy="115" rx="83" ry="83" />
<ellipse fill="#000000" fill-opacity="0.501961" cx="276" cy="554" rx="124" ry="124" />
<ellipse fill="#448d68" fill-opacity="0.501961" cx="62" cy="427" rx="64" ry="64" />
<ellipse fill="#000000" fill-opacity="0.501961" cx="643" cy="260" rx="273" ry="273" />
<ellipse fill="#ffd1eb" fill-opacity="0.501961" cx="776" cy="506" rx="17" ry="17" />
<ellipse fill="#000000" fill-opacity="0.501961" cx="968" cy="534" rx="108" ry="108" />
<ellipse fill="#c06d92" fill-opacity="0.501961" cx="1178" cy="177" rx="28" ry="28" />
<ellipse fill="#7e003a" fill-opacity="0.501961" cx="1131" cy="574" rx="63" ry="63" />
<ellipse fill="#000000" fill-opacity="0.501961" cx="394" cy="26" rx="151" ry="151" />
<ellipse fill="#ffdaf3" fill-opacity="0.501961" cx="709" cy="551" rx="16" ry="16" />
<ellipse fill="#ffdbf3" fill-opacity="0.501961" cx="842" cy="539" rx="15" ry="15" />
<ellipse fill="#000000" fill-opacity="0.501961" cx="1012" cy="0" rx="179" ry="179" />
<ellipse fill="#439c72" fill-opacity="0.501961" cx="1000" cy="211" rx="70" ry="70" />
<ellipse fill="#3a865b" fill-opacity="0.501961" cx="102" cy="548" rx="48" ry="48" />
<ellipse fill="#3f996e" fill-opacity="0.501961" cx="1029" cy="392" rx="58" ry="58" />
<ellipse fill="#ca1e6e" fill-opacity="0.501961" cx="135" cy="397" rx="40" ry="40" />
<ellipse fill="#000000" fill-opacity="0.501961" cx="293" cy="147" rx="29" ry="29" />
<ellipse fill="#000000" fill-opacity="0.501961" cx="1174" cy="436" rx="77" ry="77" />
<ellipse fill="#000001" fill-opacity="0.501961" cx="507" cy="539" rx="180" ry="180" />
<ellipse fill="#000000" fill-opacity="0.501961" cx="816" cy="506" rx="33" ry="33" />
<ellipse fill="#000000" fill-opacity="0.501961" cx="232" cy="0" rx="67" ry="67" />
<ellipse fill="#000000" fill-opacity="0.501961" cx="695" cy="585" rx="23" ry="23" />
<ellipse fill="#000100" fill-opacity="0.501961" cx="193" cy="470" rx="42" ry="42" />
<ellipse fill="#000000" fill-opacity="0.501961" cx="1173" cy="336" rx="42" ry="42" />
<ellipse fill="#000006" fill-opacity="0.501961" cx="863" cy="425" rx="82" ry="82" />
<ellipse fill="#ff2e99" fill-opacity="0.501961" cx="338" cy="414" rx="29" ry="29" />
<ellipse fill="#52b788" fill-opacity="0.501961" cx="936" cy="278" rx="40" ry="40" />
<ellipse fill="#000000" fill-opacity="0.501961" cx="1110" cy="472" rx="51" ry="51" />
<ellipse fill="#b31f61" fill-opacity="0.501961" cx="146" cy="197" rx="42" ry="42" />
<ellipse fill="#000000" fill-opacity="0.501961" cx="735" cy="527" rx="22" ry="22" />
<ellipse fill="#000000" fill-opacity="0.501961" cx="852" cy="575" rx="18" ry="18" />
<ellipse fill="#000007" fill-opacity="0.501961" cx="804" cy="32" rx="198" ry="198" />
<ellipse fill="#d3a7b9" fill-opacity="0.501961" cx="697" cy="629" rx="20" ry="20" />
<ellipse fill="#89767d" fill-opacity="0.501961" cx="860" cy="629" rx="33" ry="33" />
<ellipse fill="#429b72" fill-opacity="0.501961" cx="259" cy="102" rx="27" ry="27" />
<ellipse fill="#ffd1eb" fill-opacity="0.501961" cx="689" cy="536" rx="10" ry="10" />
<ellipse fill="#1d312a" fill-opacity="0.501961" cx="1151" cy="236" rx="46" ry="46" />
<ellipse fill="#ff2c92" fill-opacity="0.501961" cx="354" cy="198" rx="25" ry="25" />
<ellipse fill="#ffe7ff" fill-opacity="0.501961" cx="772" cy="485" rx="8" ry="8" />
<ellipse fill="#f6c3da" fill-opacity="0.501961" cx="773" cy="526" rx="17" ry="17" />
<ellipse fill="#000005" fill-opacity="0.501961" cx="394" cy="337" rx="27" ry="27" />
<ellipse fill="#37805e" fill-opacity="0.501961" cx="1073" cy="383" rx="46" ry="46" />
<ellipse fill="#d878a4" fill-opacity="0.501961" cx="1140" cy="175" rx="13" ry="13" />
<ellipse fill="#ffd2eb" fill-opacity="0.501961" cx="856" cy="526" rx="9" ry="9" />
<ellipse fill="#bf99aa" fill-opacity="0.501961" cx="777" cy="573" rx="36" ry="36" />
<ellipse fill="#fb3296" fill-opacity="0.501961" cx="323" cy="280" rx="50" ry="50" />
<ellipse fill="#000000" fill-opacity="0.501961" cx="1128" cy="205" rx="23" ry="23" />
<ellipse fill="#469f76" fill-opacity="0.501961" cx="939" cy="232" rx="36" ry="36" />
<ellipse fill="#36b577" fill-opacity="0.501961" cx="135" cy="441" rx="16" ry="16" />
<ellipse fill="#268a58" fill-opacity="0.501961" cx="243" cy="141" rx="30" ry="30" />
<ellipse fill="#000000" fill-opacity="0.501961" cx="156" cy="483" rx="35" ry="35" />
<ellipse fill="#278357" fill-opacity="0.501961" cx="70" cy="291" rx="38" ry="38" />
<ellipse fill="#d877a4" fill-opacity="0.501961" cx="1199" cy="282" rx="15" ry="15" />
<ellipse fill="#052f19" fill-opacity="0.501961" cx="53" cy="0" rx="95" ry="95" />
<ellipse fill="#000008" fill-opacity="0.501961" cx="397" cy="391" rx="33" ry="33" />
<ellipse fill="#000000" fill-opacity="0.501961" cx="805" cy="531" rx="14" ry="14" />
<ellipse fill="#439871" fill-opacity="0.501961" cx="990" cy="392" rx="41" ry="41" />
<ellipse fill="#000000" fill-opacity="0.501961" cx="47" cy="519" rx="24" ry="24" />
<ellipse fill="#357859" fill-opacity="0.501961" cx="1043" cy="192" rx="40" ry="40" />
<ellipse fill="#000000" fill-opacity="0.501961" cx="276" cy="157" rx="16" ry="16" />
<ellipse fill="#c59cae" fill-opacity="0.501961" cx="826" cy="555" rx="20" ry="20" />
<ellipse fill="#000f11" fill-opacity="0.501961" cx="226" cy="464" rx="32" ry="32" />
<ellipse fill="#295a3f" fill-opacity="0.501961" cx="125" cy="591" rx="38" ry="38" />
<ellipse fill="#d3a6ba" fill-opacity="0.501961" cx="723" cy="559" rx="18" ry="18" />
<ellipse fill="#800941" fill-opacity="0.501961" cx="1187" cy="530" rx="25" ry="25" />
<ellipse fill="#e92e87" fill-opacity="0.501961" cx="345" cy="238" rx="31" ry="31" />
<ellipse fill="#000000" fill-opacity="0.501961" cx="1100" cy="80" rx="90" ry="90" />
<ellipse fill="#000003" fill-opacity="0.501961" cx="681" cy="584" rx="31" ry="31" />
<ellipse fill="#235e42" fill-opacity="0.501961" cx="147" cy="67" rx="41" ry="41" />
<ellipse fill="#d22e80" fill-opacity="0.501961" cx="289" cy="405" rx="35" ry="35" />
<ellipse fill="#2f7e59" fill-opacity="0.501961" cx="80" cy="204" rx="32" ry="32" />
<ellipse fill="#000000" fill-opacity="0.501961" cx="172" cy="0" rx="39" ry="39" />
<ellipse fill="#000000" fill-opacity="0.501961" cx="869" cy="570" rx="29" ry="29" />
<ellipse fill="#40926c" fill-opacity="0.501961" cx="963" cy="202" rx="40" ry="40" />
<ellipse fill="#4ba87c" fill-opacity="0.501961" cx="944" cy="313" rx="42" ry="42" />
<ellipse fill="#000000" fill-opacity="0.501961" cx="1018" cy="595" rx="42" ry="42" />
<ellipse fill="#00050f" fill-opacity="0.501961" cx="401" cy="312" rx="32" ry="32" />
<ellipse fill="#ae1b65" fill-opacity="0.501961" cx="132" cy="348" rx="34" ry="34" />
<ellipse fill="#488666" fill-opacity="0.501961" cx="106" cy="508" rx="21" ry="21" />
<ellipse fill="#260212" fill-opacity="0.501961" cx="1170" cy="629" rx="54" ry="54" />
<ellipse fill="#f1c0d9" fill-opacity="0.501961" cx="866" cy="517" rx="6" ry="6" />
<ellipse fill="#698173" fill-opacity="0.501961" cx="1154" cy="238" rx="14" ry="14" />
<ellipse fill="#02020f" fill-opacity="0.501961" cx="884" cy="362" rx="33" ry="33" />
<ellipse fill="#000003" fill-opacity="0.501961" cx="1046" cy="479" rx="38" ry="38" />
<ellipse fill="#f62a8d" fill-opacity="0.501961" cx="349" cy="430" rx="15" ry="15" />
<ellipse fill="#9a7b89" fill-opacity="0.501961" cx="1122" cy="172" rx="11" ry="11" />
<ellipse fill="#00010c" fill-opacity="0.501961" cx="806" cy="485" rx="30" ry="30" />
<ellipse fill="#bc1b6a" fill-opacity="0.501961" cx="127" cy="402" rx="29" ry="29" />
<ellipse fill="#ab1b63" fill-opacity="0.501961" cx="138" cy="244" rx="34" ry="34" />
<ellipse fill="#000009" fill-opacity="0.501961" cx="311" cy="142" rx="31" ry="31" />
<ellipse fill="#000000" fill-opacity="0.501961" cx="742" cy="533" rx="15" ry="15" />
<ellipse fill="#b51b68" fill-opacity="0.501961" cx="195" cy="192" rx="29" ry="29" />
</g>
</svg>