<svg xmlns="http://www.w3.org/2000/svg" version="1.1" width="1200" height="630">
<rect x="0" y="0" width="1200" height="630" fill="#474643" />
<g transform="scale(1.000000) translate(0.5 0.5)">
<polygon fill="#ffff92" fill-opacity="0.501961" points="508.158246,98.015679,940.885438,150.324468,899.798959,518.304259,508.942266,327.659725" />
<polygon fill="#ad2cd6" fill-opacity="0.501961" points="313.853547,645.000000,1016.439885,602.046549,957.859676,380.231681,315.023655,517.043596" />
<polygon fill="#c4ff5d" fill-opacity="0.501961" points="497.264330,324.160834,634.420098,55.716949,817.276671,158.513856,948.669062,400.560568" />
<polygon fill="#000001" fill-opacity="0.501961" points="1192.872231,645.000000,1215.000000,-16.000000,-16.000000,7.206885,916.273436,120.161262" />
<polygon fill="#000218" fill-opacity="0.501961" points="746.491670,-4.948083,499.532444,162.278240,294.286727,584.954293,-16.000000,-0.050763" />
<polygon fill="#a0ed43" fill-opacity="0.501961" points="171.191387,170.644894,182.065516,543.970859,56.197398,508.603210,-16.000000,368.717263" />
<polygon fill="#000007" fill-opacity="0.501961" points="764.575737,391.220933,769.619215,339.399920,487.367013,491.824794,674.301080,482.362908" />
<polygon fill="#000018" fill-opacity="0.501961" points="1215.000000,277.538597,901.154414,285.868775,917.763605,349.731225,1151.917536,645.000000" />
<polygon fill="#abff5b" fill-opacity="0.501961" points="569.942812,302.076568,992.692883,111.781733,923.766977,220.815748,1039.849021,281.214274" />
<polygon fill="#d5ff73" fill-opacity="0.501961" points="659.504544,406.564516,510.031345,320.997106,510.495331,136.849289,855.178523,277.108755" />
<polygon fill="#000005" fill-opacity="0.501961" points="304.212320,-16.000000,74.147480,271.276306,-14.995868,367.011654,-7.652554,-4.542041" />
<polygon fill="#a03bc4" fill-opacity="0.501961" points="982.003498,445.626242,809.308333,344.925711,587.127486,574.335660,887.422684,525.382340" />
<polygon fill="#000000" fill-opacity="0.501961" points="150.465427,633.068559,395.869481,632.324817,168.523459,541.032393,71.172310,544.446075" />
<polygon fill="#92db4e" fill-opacity="0.501961" points="802.729148,165.821834,840.019309,37.099948,859.599663,106.855274,924.342992,405.138236" />
<polygon fill="#000001" fill-opacity="0.501961" points="1020.226549,645.000000,973.348801,590.259370,1212.170977,386.099800,1215.000000,630.318281" />
<polygon fill="#a8ff1d" fill-opacity="0.501961" points="679.279359,137.055374,348.263806,81.898218,111.827594,52.701023,476.117819,114.719352" />
<polygon fill="#b04dc5" fill-opacity="0.501961" points="782.525976,504.547801,392.160281,484.823724,316.192664,479.165065,319.315743,552.687452" />
<polygon fill="#96eb13" fill-opacity="0.501961" points="971.876182,437.455116,1023.451031,605.425901,1014.582992,448.401016,928.633894,365.294204" />
<polygon fill="#000016" fill-opacity="0.501961" points="872.682238,166.582569,942.085218,136.616321,1215.000000,6.340772,835.284206,-16.000000" />
<polygon fill="#03041f" fill-opacity="0.501961" points="1215.000000,305.840044,1201.929686,-16.000000,930.184170,197.766680,917.278687,224.510730" />
<polygon fill="#d6ff3e" fill-opacity="0.501961" points="606.885878,491.376699,593.168707,498.390022,625.448993,361.304916,633.147057,348.849275" />
<polygon fill="#000013" fill-opacity="0.501961" points="182.216737,536.650806,310.577799,584.555440,315.416176,551.708846,180.050956,371.909583" />
<polygon fill="#b0ee61" fill-opacity="0.501961" points="897.595830,347.759899,501.280292,156.880744,653.033523,64.480030,760.461720,126.818078" />
<polygon fill="#4d9c09" fill-opacity="0.501961" points="851.630542,331.492259,963.712806,407.721640,793.038426,365.615224,832.113003,329.203841" />
<polygon fill="#00002b" fill-opacity="0.501961" points="502.395751,144.708293,344.925941,481.725510,591.326699,493.501807,511.325985,314.100574" />
<polygon fill="#050627" fill-opacity="0.501961" points="807.971957,157.209095,851.675828,-16.000000,625.409556,44.759788,797.679249,148.120083" />
<polygon fill="#edff81" fill-opacity="0.501961" points="432.397549,294.831874,357.705452,295.596703,360.073718,307.139968,416.038910,305.280879" />
<polygon fill="#3e6013" fill-opacity="0.501961" points="23.350339,322.534779,-16.000000,370.897418,-14.724030,645.000000,137.813004,641.392446" />
<polygon fill="#040a3a" fill-opacity="0.501961" points="771.643773,336.647735,755.599038,404.616695,669.092702,487.029870,622.074219,428.247668" />
<polygon fill="#93c456" fill-opacity="0.501961" points="110.547713,226.808456,173.950206,189.101547,180.799589,443.105248,121.575770,378.785181" />
<polygon fill="#ad84a6" fill-opacity="0.501961" points="700.301949,634.782601,677.964943,645.000000,596.158494,480.863921,670.404653,482.715646" />
<polygon fill="#16172d" fill-opacity="0.501961" points="915.672901,361.468565,910.497576,288.416301,1206.560124,266.498747,1168.496766,555.631538" />
<polygon fill="#00000f" fill-opacity="0.501961" points="1029.304949,645.000000,1024.723532,502.177754,994.963036,421.442039,1215.000000,627.182701" />
<polygon fill="#040832" fill-opacity="0.501961" points="504.865176,320.096332,590.849868,490.804403,618.157794,385.950583,614.793669,380.638856" />
<polygon fill="#5f256b" fill-opacity="0.501961" points="256.580126,625.826484,969.758560,645.000000,1008.329893,536.294170,759.306003,591.722669" />
<polygon fill="#00003e" fill-opacity="0.501961" points="818.178190,344.336142,832.289053,327.479305,832.814806,378.056156,799.916322,367.218164" />
<polygon fill="#c6ff6e" fill-opacity="0.501961" points="657.414781,405.082099,829.173163,300.117280,508.583927,158.263244,508.250629,320.415183" />
<polygon fill="#a844c5" fill-opacity="0.501961" points="784.082911,503.608134,942.019796,403.947874,791.050626,364.745670,661.669477,498.679036" />
<polygon fill="#00003d" fill-opacity="0.501961" points="871.991689,350.129388,857.266387,352.717370,849.905893,385.273678,846.980073,322.810123" />
<polygon fill="#08091b" fill-opacity="0.501961" points="-0.387370,-16.000000,-16.000000,367.407210,173.754065,166.413625,182.504782,47.178271" />
<polygon fill="#a7fe1b" fill-opacity="0.501961" points="983.620634,415.119895,946.659411,382.277104,859.875648,350.399312,851.618620,378.392885" />
<polygon fill="#141330" fill-opacity="0.501961" points="112.259929,59.932428,264.780751,356.535278,545.775251,124.292779,545.849312,123.911801" />
<polygon fill="#5f7f37" fill-opacity="0.501961" points="201.137946,545.930565,9.938204,537.248876,-16.000000,364.145953,20.312453,331.144966" />
<polygon fill="#151529" fill-opacity="0.501961" points="565.373439,117.910129,197.362167,58.808431,546.005096,-16.000000,713.397428,30.487303" />
<polygon fill="#93ca57" fill-opacity="0.501961" points="835.596749,46.995244,900.889589,232.568739,795.974401,374.990505,807.652784,175.117659" />
<polygon fill="#913fa5" fill-opacity="0.501961" points="655.280222,583.977317,653.359415,496.392482,313.767579,481.669578,321.559460,549.337839" />
<polygon fill="#000017" fill-opacity="0.501961" points="178.543761,645.000000,320.666359,624.061067,197.454317,553.250183,65.731654,543.076640" />
<polygon fill="#161d06" fill-opacity="0.501961" points="-13.463593,554.882384,98.728903,615.116351,206.986240,626.464222,-16.000000,645.000000" />
<polygon fill="#7aad42" fill-opacity="0.501961" points="963.009234,185.907624,940.371798,134.006419,858.399056,175.222622,897.356814,207.540329" />
<polygon fill="#6d3179" fill-opacity="0.501961" points="310.878217,606.601057,309.827321,629.596941,721.711491,641.890746,315.742830,512.870086" />
<polygon fill="#8d429d" fill-opacity="0.501961" points="890.342752,394.108973,963.777157,411.236551,996.152383,507.461511,670.354802,575.381017" />
<polygon fill="#9dd458" fill-opacity="0.501961" points="820.959671,291.146531,1031.776253,277.942949,957.047807,240.502942,887.529109,199.706524" />
<polygon fill="#5f8a16" fill-opacity="0.501961" points="987.931496,629.909318,1002.550468,638.497334,1026.465343,562.877964,1022.955863,480.044811" />
<polygon fill="#74b806" fill-opacity="0.501961" points="186.215336,546.304613,219.862479,551.973634,310.904422,588.719348,306.670700,595.734843" />
<polygon fill="#5e256d" fill-opacity="0.501961" points="683.481617,628.366390,952.326864,645.000000,1017.520653,577.499248,1004.715279,553.341295" />
<polygon fill="#dfff88" fill-opacity="0.501961" points="833.363213,374.371999,847.410263,378.354249,848.609417,331.895481,834.468890,325.168258" />
<polygon fill="#17192d" fill-opacity="0.501961" points="892.277813,156.378757,874.785659,166.889777,839.863920,39.256255,1045.713315,90.086993" />
<polygon fill="#639515" fill-opacity="0.501961" points="279.214796,81.830901,185.240296,68.865214,179.334963,54.422961,287.380008,73.040555" />
<polygon fill="#cebab5" fill-opacity="0.501961" points="677.408252,495.235854,599.093310,476.746857,591.942943,486.500373,583.590198,499.043173" />
<polygon fill="#05050a" fill-opacity="0.501961" points="954.262156,-2.763747,970.281114,-5.740363,1215.000000,186.571465,1215.000000,-4.477072" />
<polygon fill="#1e2834" fill-opacity="0.501961" points="675.147488,486.166564,605.692168,478.354685,631.647359,388.424724,716.360468,443.332202" />
<polygon fill="#1a1b32" fill-opacity="0.501961" points="1210.912162,249.184983,943.575359,184.780502,918.030753,218.633750,1032.320301,277.121251" />
<polygon fill="#14132f" fill-opacity="0.501961" points="358.914750,398.846707,172.831988,190.087662,186.929093,537.396624,279.360218,572.960162" />
<polygon fill="#a3cf59" fill-opacity="0.501961" points="542.016791,132.464071,868.132190,191.363191,658.493934,70.149369,649.617451,68.384967" />
<polygon fill="#a6ff25" fill-opacity="0.501961" points="619.206169,378.184161,615.601957,402.023015,599.218621,496.241810,628.234305,387.007675" />
<polygon fill="#95df27" fill-opacity="0.501961" points="496.275392,116.059795,613.789133,135.082135,482.103602,102.896864,314.236819,83.884314" />
<polygon fill="#18192c" fill-opacity="0.501961" points="809.841642,157.141766,784.174955,135.944201,635.475063,57.879120,831.510378,42.662485" />
<polygon fill="#9d8195" fill-opacity="0.501961" points="706.408120,636.514646,659.991848,480.649497,652.890126,549.098599,650.563132,631.607715" />
<polygon fill="#080913" fill-opacity="0.501961" points="1201.592643,462.063503,1027.747713,563.489014,1002.108155,633.919408,1200.424766,645.000000" />
<polygon fill="#1d1e37" fill-opacity="0.501961" points="308.796481,477.185774,586.642515,496.061668,618.447519,382.880017,201.526601,259.172514" />
<polygon fill="#c7ff6f" fill-opacity="0.501961" points="785.780072,189.401444,508.135492,216.309673,550.049265,344.773570,670.868120,397.485631" />
<polygon fill="#20203b" fill-opacity="0.501961" points="180.463485,310.104223,496.262855,115.153516,519.928946,460.261580,420.200629,294.155626" />
<polygon fill="#a8fb63" fill-opacity="0.501961" points="360.704877,308.447412,403.739812,306.800056,436.895317,299.358248,354.229345,296.977249" />
<polygon fill="#81c818" fill-opacity="0.501961" points="1021.086719,485.486154,1027.546036,545.700894,966.851149,408.024972,984.431674,416.986449" />
<polygon fill="#b2f367" fill-opacity="0.501961" points="760.072835,395.151535,788.137047,368.630031,817.362363,346.760099,790.468492,219.594047" />
<polygon fill="#1a1b2f" fill-opacity="0.501961" points="903.657152,286.689223,920.726911,368.994670,1080.897165,467.521208,1145.911369,272.789264" />
<polygon fill="#a748c2" fill-opacity="0.501961" points="966.647229,408.472360,787.273954,366.777714,729.137424,431.740850,969.537366,432.687661" />
<polygon fill="#53004f" fill-opacity="0.501961" points="98.679050,574.511902,92.591352,562.512656,179.094858,537.140023,171.968211,553.022517" />
<polygon fill="#141422" fill-opacity="0.501961" points="973.030629,406.212237,1215.000000,406.614918,1089.591008,607.600466,994.692645,431.751251" />
<polygon fill="#8ab74e" fill-opacity="0.501961" points="989.873824,121.068743,843.167322,178.478862,962.945794,188.552436,950.516373,174.608306" />
<polygon fill="#98d257" fill-opacity="0.501961" points="924.009090,394.801154,907.863544,301.936662,869.952416,144.632322,844.624979,322.113559" />
<polygon fill="#427100" fill-opacity="0.501961" points="1017.938051,598.079069,1022.305527,576.680112,958.279365,637.155493,995.290867,645.000000" />
<polygon fill="#090030" fill-opacity="0.501961" points="833.307831,331.345732,831.710336,372.653017,803.678123,366.901141,828.245680,336.106789" />
<polygon fill="#060509" fill-opacity="0.501961" points="-10.202675,191.053422,142.763759,-16.000000,17.522639,-14.692955,-16.000000,11.055357" />
<polygon fill="#873e99" fill-opacity="0.501961" points="691.390543,588.983868,968.223479,416.515557,987.423076,496.772030,1001.426368,476.698848" />
<polygon fill="#111122" fill-opacity="0.501961" points="1028.076473,73.734055,1015.030030,7.094980,1215.000000,153.645909,945.991923,178.615335" />
<polygon fill="#181726" fill-opacity="0.501961" points="256.831455,87.432771,158.796374,183.100759,55.522885,288.886355,57.701821,108.905108" />
<polygon fill="#171729" fill-opacity="0.501961" points="274.340671,63.970773,766.149336,-3.700167,565.546828,116.177062,535.326047,111.721519" />
<polygon fill="#893e9c" fill-opacity="0.501961" points="537.422589,593.392387,312.479848,554.129804,328.311257,479.351839,435.036806,486.069814" />
<polygon fill="#9b47b0" fill-opacity="0.501961" points="664.338016,497.418502,423.316369,488.087417,315.454005,485.145136,607.059608,559.668767" />
<polygon fill="#b7ea65" fill-opacity="0.501961" points="509.321105,244.360182,805.232745,203.555994,569.172403,118.444757,506.609080,153.333708" />
<polygon fill="#86b24e" fill-opacity="0.501961" points="142.987714,198.888417,173.224258,166.683706,177.818439,458.552860,131.086288,211.387293" />
<polygon fill="#1e1d37" fill-opacity="0.501961" points="760.810593,344.948932,619.650770,427.073051,625.517866,484.274636,680.059254,481.685493" />
<polygon fill="#5d2a6a" fill-opacity="0.501961" points="332.099180,582.067128,549.085784,630.241878,311.821522,645.000000,312.156371,571.830067" />
<polygon fill="#5a7933" fill-opacity="0.501961" points="-1.314716,454.433816,91.720348,542.951801,183.427921,537.596598,-1.900319,399.938467" />
<polygon fill="#c488c7" fill-opacity="0.501961" points="671.348212,483.457438,663.288845,554.324405,653.793211,501.324180,595.864635,488.628787" />
<polygon fill="#6a8d3f" fill-opacity="0.501961" points="83.369870,406.747455,73.138080,486.440274,-10.347821,364.633240,61.464764,284.534833" />
<polygon fill="#92f029" fill-opacity="0.501961" points="610.198251,472.885975,614.160880,432.030750,590.702972,497.074614,601.254908,488.238856" />
<polygon fill="#a04db3" fill-opacity="0.501961" points="804.941857,513.322524,663.969932,495.897815,712.409200,443.794347,897.884423,389.915671" />
<polygon fill="#6e347c" fill-opacity="0.501961" points="726.344123,586.681732,1005.531638,526.179007,841.462717,624.001139,649.166633,645.000000" />
</g>
</svg>