<svg xmlns="http://www.w3.org/2000/svg" version="1.1" width="1200" height="630">
<rect x="0" y="0" width="1200" height="630" fill="#3a302d" />
<g transform="scale(1.000000) translate(0.5 0.5)">
<polygon fill="#fcf2ee" fill-opacity="0.501961" points="949.172139,403.217733,1017.308146,117.538522,682.269372,452.599581,722.421074,586.599602" />
<polygon fill="#82655a" fill-opacity="0.501961" points="1215.000000,377.081244,1057.666960,577.005427,312.775508,68.980776,1124.129864,76.739710" />
<polygon fill="#000000" fill-opacity="0.501961" points="829.077289,442.651834,792.911900,370.152848,-16.000000,319.104998,848.629443,281.438475" />
<polygon fill="#e1e1e0" fill-opacity="0.501961" points="951.027770,377.089283,841.033121,484.958011,853.248010,261.703877,952.856454,186.376168" />
<polygon fill="#000000" fill-opacity="0.501961" points="717.955482,501.006395,11.516950,-16.000000,-16.000000,598.963102,682.072411,597.788498" />
<polygon fill="#000000" fill-opacity="0.501961" points="334.669657,-11.761999,505.372231,301.753823,-16.000000,283.210487,-3.895726,-16.000000" />
<polygon fill="#000000" fill-opacity="0.501961" points="886.588256,228.462648,974.840446,179.235499,976.193093,-1.678126,890.099521,-16.000000" />
<polygon fill="#dad1cd" fill-opacity="0.501961" points="791.240307,550.253047,652.876661,453.386461,621.588377,427.505543,868.019054,427.167222" />
<polygon fill="#000000" fill-opacity="0.501961" points="1190.547830,461.882144,994.955658,600.468287,323.554864,626.956849,1210.905030,645.000000" />
<polygon fill="#fffaf7" fill-opacity="0.501961" points="773.205379,327.082917,778.231419,314.711731,812.464076,423.712208,738.411723,435.116430" />
<polygon fill="#88665a" fill-opacity="0.501961" points="645.594954,301.855332,383.595688,145.585743,386.014385,18.006177,713.680586,8.904874" />
<polygon fill="#000304" fill-opacity="0.501961" points="745.610534,424.816132,582.315898,429.767040,385.706825,277.165712,770.136606,295.196742" />
<polygon fill="#7e6258" fill-opacity="0.501961" points="895.509889,612.166032,1092.323344,234.290921,888.603605,439.035950,719.474922,607.629257" />
<polygon fill="#b6b3b2" fill-opacity="0.501961" points="719.952602,610.764258,716.327593,498.005667,687.105109,594.636065,563.216080,607.653912" />
<polygon fill="#9e8075" fill-opacity="0.501961" points="229.737410,172.140776,289.617482,467.801071,298.193486,620.642056,310.579802,490.791439" />
<polygon fill="#6b493c" fill-opacity="0.501961" points="-16.000000,293.294261,-11.198499,417.304525,63.233903,518.588931,91.427250,288.905258" />
<polygon fill="#000000" fill-opacity="0.501961" points="778.587482,304.759194,813.613076,425.321827,847.880292,428.318719,824.058329,288.610701" />
<polygon fill="#000000" fill-opacity="0.501961" points="382.447033,139.339331,634.483876,350.964099,-16.000000,5.487976,384.606532,-15.917863" />
<polygon fill="#a0887e" fill-opacity="0.501961" points="319.800892,488.093201,288.982391,477.216601,92.745970,474.663983,126.831614,489.746584" />
<polygon fill="#000000" fill-opacity="0.501961" points="975.214674,-16.000000,893.122375,-16.000000,888.230809,215.256830,973.535117,184.283577" />
<polygon fill="#a2a09e" fill-opacity="0.501961" points="788.376080,602.552395,479.126401,611.430246,228.379537,601.764831,519.346636,598.411758" />
<polygon fill="#6e6b6a" fill-opacity="0.501961" points="1002.975679,10.477731,975.333481,24.547413,975.514290,179.634663,1155.981423,83.162466" />
<polygon fill="#010607" fill-opacity="0.501961" points="718.315780,497.317066,677.977840,599.516299,338.157803,594.974146,250.962965,239.663063" />
<polygon fill="#705c54" fill-opacity="0.501961" points="16.222743,463.857557,158.687686,520.671805,331.314301,611.727219,291.958576,608.195731" />
<polygon fill="#8c685b" fill-opacity="0.501961" points="238.724608,257.765749,95.952105,431.389612,243.945022,226.744194,279.844493,362.605564" />
<polygon fill="#000000" fill-opacity="0.501961" points="591.424333,609.420929,296.420540,610.851614,299.006748,645.000000,1215.000000,620.727944" />
<polygon fill="#f1e6e3" fill-opacity="0.501961" points="701.734367,428.003730,625.412686,429.372502,683.193255,472.875579,685.905234,476.127767" />
<polygon fill="#805343" fill-opacity="0.501961" points="687.584806,108.522760,539.717759,288.336521,844.507621,286.918656,881.091993,243.342450" />
<polygon fill="#6e544b" fill-opacity="0.501961" points="962.340588,235.961813,1013.092063,147.988025,1100.872039,437.866242,947.405240,332.210459" />
<polygon fill="#000000" fill-opacity="0.501961" points="1204.382325,541.065959,1099.686274,541.616998,1062.538832,645.000000,1215.000000,637.365475" />
<polygon fill="#d8d1ce" fill-opacity="0.501961" points="844.474720,409.892550,887.348971,230.322473,840.523263,320.500525,837.396908,357.283202" />
<polygon fill="#000000" fill-opacity="0.501961" points="107.057289,514.884876,270.183001,595.185261,70.053725,597.303040,67.823518,495.951686" />
<polygon fill="#886c63" fill-opacity="0.501961" points="500.133018,213.700412,546.591427,236.037641,704.159304,143.672729,352.818479,124.873576" />
<polygon fill="#101112" fill-opacity="0.501961" points="556.194020,532.615034,557.959986,240.012670,191.424730,75.939618,284.406034,353.891175" />
<polygon fill="#000000" fill-opacity="0.501961" points="738.904574,598.795379,773.150287,548.076946,771.562633,547.368517,696.241334,599.544055" />
<polygon fill="#503d37" fill-opacity="0.501961" points="777.559179,598.732577,1022.769517,595.412877,1090.148950,591.582440,1071.389500,453.470097" />
<polygon fill="#4c3b35" fill-opacity="0.501961" points="1215.000000,479.180723,1156.294881,-16.000000,1070.185005,483.668885,1156.056916,492.842758" />
<polygon fill="#000000" fill-opacity="0.501961" points="53.123192,468.901002,-16.000000,481.880029,-2.695244,645.000000,54.215543,637.577829" />
<polygon fill="#050708" fill-opacity="0.501961" points="613.305686,380.453268,705.402840,428.183424,738.576803,425.569451,774.154284,322.722188" />
<polygon fill="#777676" fill-opacity="0.501961" points="65.916747,572.429711,54.358550,599.925114,55.945119,482.380153,64.696788,489.492621" />
<polygon fill="#938782" fill-opacity="0.501961" points="573.207379,312.560763,618.449939,389.214543,562.409477,306.304394,512.665074,235.912493" />
<polygon fill="#000405" fill-opacity="0.501961" points="845.833005,304.304998,860.654962,267.267478,788.370184,345.570882,819.141119,431.792089" />
<polygon fill="#888b8d" fill-opacity="0.501961" points="740.154918,597.577827,911.141496,606.828120,760.273040,610.675492,678.343781,606.482651" />
<polygon fill="#000102" fill-opacity="0.501961" points="90.897049,489.526924,282.995611,580.141934,301.617322,491.005705,160.001521,487.255933" />
<polygon fill="#b5afad" fill-opacity="0.501961" points="988.745667,181.728746,931.588390,306.090886,879.413353,236.291629,930.612194,201.476795" />
<polygon fill="#cec3bf" fill-opacity="0.501961" points="727.855182,454.449732,803.664223,387.860070,775.324829,319.631281,755.583133,381.587415" />
<polygon fill="#000405" fill-opacity="0.501961" points="79.847098,472.617724,236.315984,252.851022,294.192075,476.085042,148.377504,474.139375" />
<polygon fill="#605c5a" fill-opacity="0.501961" points="131.868816,600.088358,298.984422,598.731148,293.335803,645.000000,231.178155,642.620798" />
<polygon fill="#000000" fill-opacity="0.501961" points="1215.000000,608.023619,986.250851,595.841608,890.174457,595.256554,960.930259,645.000000" />
<polygon fill="#5e3c2f" fill-opacity="0.501961" points="625.818249,-16.000000,891.957014,60.746273,857.190718,277.463946,882.879608,310.840804" />
<polygon fill="#a39b98" fill-opacity="0.501961" points="715.061507,497.350937,927.803837,398.745466,787.330623,539.763473,685.123016,602.647027" />
<polygon fill="#83888a" fill-opacity="0.501961" points="1114.465763,511.181361,1135.491223,493.195716,1075.650873,484.030947,1078.190457,525.481062" />
<polygon fill="#4b3e39" fill-opacity="0.501961" points="1098.430543,185.403670,1215.000000,470.400143,1199.496143,86.002813,1012.057660,-16.000000" />
<polygon fill="#6d574f" fill-opacity="0.501961" points="61.515583,473.757061,121.410740,404.996834,59.825752,493.773738,184.339349,480.236886" />
<polygon fill="#000002" fill-opacity="0.501961" points="853.642789,428.534188,813.837067,420.307645,836.649868,354.993874,832.707855,382.714993" />
<polygon fill="#6a5148" fill-opacity="0.501961" points="781.612867,547.090133,948.945487,565.761622,999.770114,552.964953,956.353060,373.753342" />
<polygon fill="#5b4e49" fill-opacity="0.501961" points="1179.558572,531.116863,1077.261585,532.033090,1081.213075,542.388908,1215.000000,538.181969" />
<polygon fill="#000304" fill-opacity="0.501961" points="193.193518,294.029497,100.998683,266.788063,78.710485,373.788819,65.773630,464.692116" />
<polygon fill="#000000" fill-opacity="0.501961" points="1138.210104,493.323217,1194.173072,489.177855,1193.865020,532.630066,1094.043920,525.576183" />
<polygon fill="#56433d" fill-opacity="0.501961" points="729.319669,14.179253,388.096910,123.538555,384.035605,-13.332225,566.772236,-15.258790" />
<polygon fill="#80665d" fill-opacity="0.501961" points="292.701897,436.973034,252.236470,246.564268,237.891834,237.306794,261.835693,343.675853" />
<polygon fill="#101313" fill-opacity="0.501961" points="950.309485,4.066498,1087.916826,-2.927851,1214.264423,65.651150,1197.274960,-16.000000" />
<polygon fill="#7e7470" fill-opacity="0.501961" points="1052.097090,130.089683,979.847054,55.753673,974.588927,182.173754,996.862177,178.476572" />
<polygon fill="#5b4138" fill-opacity="0.501961" points="178.601043,315.742872,191.562104,316.153071,67.000623,480.109077,84.111886,442.189681" />
<polygon fill="#625b58" fill-opacity="0.501961" points="135.867701,194.086062,62.653934,268.369760,137.482479,187.015722,194.739061,145.695736" />
<polygon fill="#897e7a" fill-opacity="0.501961" points="670.385499,488.713477,640.187879,433.377314,574.750000,318.790597,641.330762,425.041248" />
<polygon fill="#6c534b" fill-opacity="0.501961" points="974.728409,476.503921,1156.909030,343.851134,996.145466,175.666151,949.898254,284.291721" />
<polygon fill="#c0b7b4" fill-opacity="0.501961" points="838.997352,388.210629,963.529032,373.855408,916.373639,207.121225,841.150273,312.690475" />
<polygon fill="#030506" fill-opacity="0.501961" points="383.027120,-16.000000,383.483458,43.514661,385.296664,134.915788,38.668921,1.969416" />
<polygon fill="#0d0f10" fill-opacity="0.501961" points="852.767375,290.033448,623.871951,287.098590,635.558795,423.265328,775.825026,319.684059" />
<polygon fill="#0f1010" fill-opacity="0.501961" points="563.062866,305.384162,476.583739,201.740766,281.714840,85.248020,309.691240,551.192784" />
<polygon fill="#554d4b" fill-opacity="0.501961" points="294.703156,114.523319,183.736300,150.302512,257.584888,118.417017,313.651344,117.898124" />
<polygon fill="#040506" fill-opacity="0.501961" points="-10.265592,-2.027719,216.257819,1.138865,233.501886,109.019376,-5.463383,307.431844" />
<polygon fill="#6c4b3e" fill-opacity="0.501961" points="890.573315,217.642893,849.270656,293.902876,685.223709,124.495464,890.087481,154.193118" />
<polygon fill="#020506" fill-opacity="0.501961" points="914.949420,215.524692,977.009881,21.651351,1033.939690,-15.290892,886.153718,-0.429636" />
<polygon fill="#8a6051" fill-opacity="0.501961" points="556.847157,239.892579,560.024744,288.171348,611.782102,287.001076,628.053896,286.038600" />
<polygon fill="#836f68" fill-opacity="0.501961" points="176.882027,479.039972,310.897255,491.299498,293.611846,530.076556,297.310345,479.063275" />
<polygon fill="#000000" fill-opacity="0.501961" points="374.272500,611.228649,302.683169,610.112775,292.384681,645.000000,592.916308,613.853824" />
<polygon fill="#85807e" fill-opacity="0.501961" points="291.564688,606.971084,344.073085,610.034325,585.005641,604.963118,335.302725,598.090794" />
<polygon fill="#7c655c" fill-opacity="0.501961" points="483.379164,202.469086,587.439300,265.193994,427.053400,150.571399,555.925491,287.477108" />
<polygon fill="#bfb5b1" fill-opacity="0.501961" points="814.994008,424.678609,890.832058,433.537098,716.155711,496.531530,777.887801,317.505166" />
<polygon fill="#584f4c" fill-opacity="0.501961" points="465.428464,126.672715,284.191958,114.593214,368.718124,128.946526,356.343780,119.727344" />
<polygon fill="#40332e" fill-opacity="0.501961" points="1097.421634,524.640659,1081.737995,600.124379,997.074723,587.772808,1018.822159,516.529693" />
<polygon fill="#000203" fill-opacity="0.501961" points="551.442719,281.633708,559.472594,231.052897,543.583542,237.770860,507.806338,224.181526" />
<polygon fill="#040606" fill-opacity="0.501961" points="307.833086,490.162131,304.212670,592.175194,305.135609,597.056928,452.468188,598.111034" />
<polygon fill="#4a3128" fill-opacity="0.501961" points="665.972743,11.531951,890.101445,144.682384,886.845320,32.513931,830.248576,-16.000000" />
<polygon fill="#7e7d7c" fill-opacity="0.501961" points="859.017991,598.222627,685.302445,608.062312,902.329848,608.819784,899.197237,600.234239" />
<polygon fill="#060808" fill-opacity="0.501961" points="736.199279,587.321339,778.666991,543.276272,703.218346,597.005714,754.553914,599.151587" />
<polygon fill="#554d4b" fill-opacity="0.501961" points="76.426841,251.588127,122.613150,203.207388,63.534489,275.373259,44.886522,296.816775" />
<polygon fill="#121212" fill-opacity="0.501961" points="780.206918,308.774029,738.865004,426.836514,636.457968,421.530081,569.214137,292.010700" />
<polygon fill="#422f28" fill-opacity="0.501961" points="37.360694,455.609600,142.404001,514.289557,-16.000000,461.957880,-14.218366,232.920069" />
<polygon fill="#735b52" fill-opacity="0.501961" points="384.194782,148.963051,428.444710,172.900907,724.691224,135.996059,385.355818,86.683663" />
<polygon fill="#06090a" fill-opacity="0.501961" points="972.023547,179.472072,973.678198,53.164243,878.946037,241.507321,916.935251,207.703908" />
<polygon fill="#42322c" fill-opacity="0.501961" points="1215.000000,172.268256,1155.527729,108.000338,1056.112384,132.551679,1061.733057,166.663343" />
<polygon fill="#533930" fill-opacity="0.501961" points="84.700497,286.800554,94.820047,289.777195,65.758192,450.977103,22.039326,290.380458" />
<polygon fill="#000000" fill-opacity="0.501961" points="1082.334227,593.319420,1196.600382,645.000000,1215.000000,541.646582,1093.027849,543.917714" />
<polygon fill="#5c5654" fill-opacity="0.501961" points="1076.329038,119.100804,1176.074206,113.695340,1215.000000,116.479557,971.205107,40.721393" />
<polygon fill="#16191b" fill-opacity="0.501961" points="760.390469,594.697818,937.086391,597.752313,801.662731,598.632578,727.410484,600.169949" />
<polygon fill="#675853" fill-opacity="0.501961" points="300.958969,448.585845,305.797441,575.923374,289.723812,645.000000,294.958765,505.759293" />
<polygon fill="#86807d" fill-opacity="0.501961" points="606.019207,610.434769,655.277188,598.537690,466.103346,600.787557,518.112941,609.018056" />
</g>
</svg>