<svg xmlns="http://www.w3.org/2000/svg" version="1.1" width="1200" height="630">
<rect x="0" y="0" width="1200" height="630" fill="#3b3c45" />
<g transform="scale(1.000000) translate(0.5 0.5)">
<ellipse fill="#fff8cc" fill-opacity="0.501961" cx="1081" cy="379" rx="176" ry="176" />
<ellipse fill="#7f8897" fill-opacity="0.501961" cx="368" cy="335" rx="177" ry="177" />
<ellipse fill="#c7b187" fill-opacity="0.501961" cx="957" cy="569" rx="96" ry="96" />
<ellipse fill="#00001b" fill-opacity="0.501961" cx="552" cy="95" rx="204" ry="204" />
<ellipse fill="#000000" fill-opacity="0.501961" cx="54" cy="613" rx="268" ry="268" />
<ellipse fill="#000000" fill-opacity="0.501961" cx="56" cy="70" rx="216" ry="216" />
<ellipse fill="#b3afa7" fill-opacity="0.501961" cx="288" cy="232" rx="89" ry="89" />
<ellipse fill="#000000" fill-opacity="0.501961" cx="1001" cy="13" rx="202" ry="202" />
<ellipse fill="#6b8292" fill-opacity="0.501961" cx="432" cy="468" rx="114" ry="114" />
<ellipse fill="#f7dfc4" fill-opacity="0.501961" cx="995" cy="325" rx="72" ry="72" />
<ellipse fill="#00000a" fill-opacity="0.501961" cx="200" cy="317" rx="40" ry="40" />
<ellipse fill="#615647" fill-opacity="0.501961" cx="1190" cy="617" rx="186" ry="186" />
<ellipse fill="#03031c" fill-opacity="0.501961" cx="72" cy="342" rx="98" ry="98" />
<ellipse fill="#00000e" fill-opacity="0.501961" cx="394" cy="328" rx="35" ry="35" />
<ellipse fill="#d0cec0" fill-opacity="0.501961" cx="381" cy="170" rx="23" ry="23" />
<ellipse fill="#aeaeaf" fill-opacity="0.501961" cx="208" cy="168" rx="22" ry="22" />
<ellipse fill="#00030f" fill-opacity="0.501961" cx="767" cy="606" rx="95" ry="95" />
<ellipse fill="#030220" fill-opacity="0.501961" cx="510" cy="296" rx="39" ry="39" />
<ellipse fill="#00000c" fill-opacity="0.501961" cx="343" cy="20" rx="88" ry="88" />
<ellipse fill="#000012" fill-opacity="0.501961" cx="305" cy="629" rx="97" ry="97" />
<ellipse fill="#fff4e0" fill-opacity="0.501961" cx="671" cy="267" rx="15" ry="15" />
<ellipse fill="#00001a" fill-opacity="0.501961" cx="600" cy="543" rx="69" ry="69" />
<ellipse fill="#ffffeb" fill-opacity="0.501961" cx="607" cy="311" rx="14" ry="14" />
<ellipse fill="#073c38" fill-opacity="0.501961" cx="890" cy="393" rx="37" ry="37" />
<ellipse fill="#fffff7" fill-opacity="0.501961" cx="576" cy="332" rx="13" ry="13" />
<ellipse fill="#dbd1c1" fill-opacity="0.501961" cx="395" cy="265" rx="25" ry="25" />
<ellipse fill="#0d0f2a" fill-opacity="0.501961" cx="850" cy="130" rx="164" ry="164" />
<ellipse fill="#ffffec" fill-opacity="0.501961" cx="636" cy="292" rx="14" ry="14" />
<ellipse fill="#fffff0" fill-opacity="0.501961" cx="696" cy="253" rx="13" ry="13" />
<ellipse fill="#ffffff" fill-opacity="0.501961" cx="556" cy="346" rx="12" ry="12" />
<ellipse fill="#d2bfab" fill-opacity="0.501961" cx="1043" cy="241" rx="41" ry="41" />
<ellipse fill="#bab9b4" fill-opacity="0.501961" cx="187" cy="263" rx="20" ry="20" />
<ellipse fill="#d2b695" fill-opacity="0.501961" cx="978" cy="448" rx="61" ry="61" />
<ellipse fill="#00000b" fill-opacity="0.501961" cx="295" cy="340" rx="22" ry="22" />
<ellipse fill="#ffffff" fill-opacity="0.501961" cx="712" cy="242" rx="10" ry="10" />
<ellipse fill="#cbc7bd" fill-opacity="0.501961" cx="338" cy="325" rx="23" ry="23" />
<ellipse fill="#ad936e" fill-opacity="0.501961" cx="1186" cy="157" rx="31" ry="31" />
<ellipse fill="#000016" fill-opacity="0.501961" cx="444" cy="338" rx="22" ry="22" />
<ellipse fill="#113a3d" fill-opacity="0.501961" cx="886" cy="338" rx="39" ry="39" />
<ellipse fill="#000008" fill-opacity="0.501961" cx="1124" cy="57" rx="87" ry="87" />
<ellipse fill="#b8a78e" fill-opacity="0.501961" cx="944" cy="535" rx="45" ry="45" />
<ellipse fill="#000002" fill-opacity="0.501961" cx="1196" cy="222" rx="31" ry="31" />
<ellipse fill="#07062c" fill-opacity="0.501961" cx="589" cy="423" rx="52" ry="52" />
<ellipse fill="#c6c6bd" fill-opacity="0.501961" cx="407" cy="149" rx="13" ry="13" />
<ellipse fill="#ffffff" fill-opacity="0.501961" cx="593" cy="321" rx="9" ry="9" />
<ellipse fill="#a9a9a2" fill-opacity="0.501961" cx="296" cy="128" rx="20" ry="20" />
<ellipse fill="#02322e" fill-opacity="0.501961" cx="890" cy="485" rx="32" ry="32" />
<ellipse fill="#000002" fill-opacity="0.501961" cx="256" cy="156" rx="16" ry="16" />
<ellipse fill="#000011" fill-opacity="0.501961" cx="338" cy="150" rx="21" ry="21" />
<ellipse fill="#010112" fill-opacity="0.501961" cx="583" cy="610" rx="45" ry="45" />
<ellipse fill="#596773" fill-opacity="0.501961" cx="479" cy="543" rx="66" ry="66" />
<ellipse fill="#b5b2a9" fill-opacity="0.501961" cx="254" cy="325" rx="23" ry="23" />
<ellipse fill="#ffffea" fill-opacity="0.501961" cx="651" cy="281" rx="10" ry="10" />
<ellipse fill="#00000e" fill-opacity="0.501961" cx="56" cy="0" rx="174" ry="174" />
<ellipse fill="#000004" fill-opacity="0.501961" cx="1142" cy="190" rx="26" ry="26" />
<ellipse fill="#ffffff" fill-opacity="0.501961" cx="622" cy="301" rx="9" ry="9" />
<ellipse fill="#000010" fill-opacity="0.501961" cx="69" cy="582" rx="144" ry="144" />
<ellipse fill="#000013" fill-opacity="0.501961" cx="461" cy="294" rx="18" ry="18" />
<ellipse fill="#00001a" fill-opacity="0.501961" cx="203" cy="215" rx="19" ry="19" />
<ellipse fill="#181936" fill-opacity="0.501961" cx="540" cy="305" rx="38" ry="38" />
<ellipse fill="#c8a778" fill-opacity="0.501961" cx="880" cy="553" rx="27" ry="27" />
<ellipse fill="#0f0c2b" fill-opacity="0.501961" cx="900" cy="293" rx="33" ry="33" />
<ellipse fill="#120f28" fill-opacity="0.501961" cx="411" cy="211" rx="34" ry="34" />
<ellipse fill="#ffffe5" fill-opacity="0.501961" cx="540" cy="355" rx="9" ry="9" />
<ellipse fill="#ecd2af" fill-opacity="0.501961" cx="952" cy="385" rx="30" ry="30" />
<ellipse fill="#1d1b13" fill-opacity="0.501961" cx="1175" cy="629" rx="50" ry="50" />
<ellipse fill="#143d38" fill-opacity="0.501961" cx="899" cy="435" rx="27" ry="27" />
<ellipse fill="#1d5048" fill-opacity="0.501961" cx="779" cy="420" rx="144" ry="144" />
<ellipse fill="#8c8378" fill-opacity="0.501961" cx="1049" cy="526" rx="70" ry="70" />
<ellipse fill="#9d9d9e" fill-opacity="0.501961" cx="183" cy="149" rx="12" ry="12" />
<ellipse fill="#0e1937" fill-opacity="0.501961" cx="626" cy="347" rx="34" ry="34" />
<ellipse fill="#000012" fill-opacity="0.501961" cx="367" cy="295" rx="15" ry="15" />
<ellipse fill="#c2b09b" fill-opacity="0.501961" cx="1049" cy="345" rx="82" ry="82" />
<ellipse fill="#8f8072" fill-opacity="0.501961" cx="1199" cy="347" rx="95" ry="95" />
<ellipse fill="#9fa7aa" fill-opacity="0.501961" cx="349" cy="367" rx="22" ry="22" />
<ellipse fill="#0d0c19" fill-opacity="0.501961" cx="772" cy="34" rx="63" ry="63" />
<ellipse fill="#d3c5b1" fill-opacity="0.501961" cx="997" cy="265" rx="39" ry="39" />
<ellipse fill="#000016" fill-opacity="0.501961" cx="477" cy="346" rx="14" ry="14" />
<ellipse fill="#687985" fill-opacity="0.501961" cx="247" cy="391" rx="41" ry="41" />
<ellipse fill="#748899" fill-opacity="0.501961" cx="502" cy="396" rx="40" ry="40" />
<ellipse fill="#000016" fill-opacity="0.501961" cx="226" cy="294" rx="14" ry="14" />
<ellipse fill="#101b36" fill-opacity="0.501961" cx="723" cy="275" rx="28" ry="28" />
<ellipse fill="#a9a8a4" fill-opacity="0.501961" cx="159" cy="269" rx="12" ry="12" />
<ellipse fill="#171535" fill-opacity="0.501961" cx="588" cy="368" rx="31" ry="31" />
<ellipse fill="#d5d0c7" fill-opacity="0.501961" cx="428" cy="269" rx="12" ry="12" />
<ellipse fill="#dec0a5" fill-opacity="0.501961" cx="691" cy="541" rx="9" ry="9" />
<ellipse fill="#20203e" fill-opacity="0.501961" cx="652" cy="238" rx="30" ry="30" />
<ellipse fill="#ffffff" fill-opacity="0.501961" cx="683" cy="261" rx="8" ry="8" />
<ellipse fill="#222542" fill-opacity="0.501961" cx="588" cy="275" rx="35" ry="35" />
<ellipse fill="#111028" fill-opacity="0.501961" cx="348" cy="128" rx="36" ry="36" />
<ellipse fill="#070a2f" fill-opacity="0.501961" cx="652" cy="311" rx="18" ry="18" />
<ellipse fill="#ffffbc" fill-opacity="0.501961" cx="491" cy="333" rx="7" ry="7" />
<ellipse fill="#5d574c" fill-opacity="0.501961" cx="1161" cy="539" rx="57" ry="57" />
<ellipse fill="#040215" fill-opacity="0.501961" cx="688" cy="629" rx="44" ry="44" />
<ellipse fill="#ffffef" fill-opacity="0.501961" cx="566" cy="337" rx="9" ry="9" />
<ellipse fill="#969591" fill-opacity="0.501961" cx="296" cy="96" rx="12" ry="12" />
<ellipse fill="#00000e" fill-opacity="0.501961" cx="435" cy="288" rx="11" ry="11" />
<ellipse fill="#a09f9c" fill-opacity="0.501961" cx="365" cy="183" rx="24" ry="24" />
<ellipse fill="#b2a391" fill-opacity="0.501961" cx="1076" cy="229" rx="32" ry="32" />
<ellipse fill="#070e30" fill-opacity="0.501961" cx="686" cy="288" rx="18" ry="18" />
</g>
</svg>