<svg xmlns="http://www.w3.org/2000/svg" version="1.1" width="1200" height="630">
<rect x="0" y="0" width="1200" height="630" fill="#3d2f24" />
<g transform="scale(1.000000) translate(0.5 0.5)">
<polygon fill="#90d8ff" fill-opacity="0.501961" points="661,20 330,-15 277,292" />
<polygon fill="#ffa41c" fill-opacity="0.501961" points="951,645 669,498 907,142" />
<polygon fill="#ffbaac" fill-opacity="0.501961" points="1029,293 844,418 798,199" />
<polygon fill="#ffb8cf" fill-opacity="0.501961" points="741,-16 874,140 579,36" />
<polygon fill="#ff9975" fill-opacity="0.501961" points="375,645 492,488 223,505" />
<polygon fill="#000001" fill-opacity="0.501961" points="-16,637 320,638 8,-16" />
<polygon fill="#000b19" fill-opacity="0.501961" points="146,342 745,85 706,645" />
<polygon fill="#d96a00" fill-opacity="0.501961" points="1215,138 1060,143 1148,493" />
<polygon fill="#000002" fill-opacity="0.501961" points="750,-9 1043,343 1127,-16" />
<polygon fill="#000003" fill-opacity="0.501961" points="12,-9 334,-4 233,450" />
<polygon fill="#d76500" fill-opacity="0.501961" points="743,322 753,645 1051,596" />
<polygon fill="#000321" fill-opacity="0.501961" points="880,370 1215,445 895,476" />
<polygon fill="#000000" fill-opacity="0.501961" points="1175,645 1215,483 916,486" />
<polygon fill="#000314" fill-opacity="0.501961" points="900,127 591,202 939,225" />
<polygon fill="#8ebbdb" fill-opacity="0.501961" points="676,483 514,354 616,397" />
<polygon fill="#00050b" fill-opacity="0.501961" points="378,644 551,424 819,644" />
<polygon fill="#ff925c" fill-opacity="0.501961" points="922,223 765,465 1012,308" />
<polygon fill="#ff8d00" fill-opacity="0.501961" points="718,408 742,585 859,263" />
<polygon fill="#ffdbef" fill-opacity="0.501961" points="788,343 788,226 771,283" />
<polygon fill="#f69773" fill-opacity="0.501961" points="289,493 450,552 403,479" />
<polygon fill="#b56100" fill-opacity="0.501961" points="1072,300 1185,437 1215,209" />
<polygon fill="#4e4e60" fill-opacity="0.501961" points="687,-16 309,2 619,70" />
<polygon fill="#84b0d7" fill-opacity="0.501961" points="282,287 305,135 573,80" />
<polygon fill="#000000" fill-opacity="0.501961" points="786,4 1215,97 1199,-16" />
<polygon fill="#000207" fill-opacity="0.501961" points="1063,332 968,424 1215,497" />
<polygon fill="#9e4b00" fill-opacity="0.501961" points="1077,139 1199,146 1124,42" />
<polygon fill="#000511" fill-opacity="0.501961" points="359,243 739,94 600,63" />
<polygon fill="#000001" fill-opacity="0.501961" points="1215,372 1215,640 1007,645" />
<polygon fill="#733d00" fill-opacity="0.501961" points="904,510 772,645 1041,621" />
<polygon fill="#b57055" fill-opacity="0.501961" points="236,526 452,500 343,637" />
<polygon fill="#040910" fill-opacity="0.501961" points="362,459 74,308 15,645" />
<polygon fill="#599ac7" fill-opacity="0.501961" points="911,476 957,400 1031,362" />
<polygon fill="#00020e" fill-opacity="0.501961" points="901,468 1054,320 910,369" />
<polygon fill="#030d19" fill-opacity="0.501961" points="780,287 702,474 749,100" />
<polygon fill="#89c3f5" fill-opacity="0.501961" points="732,516 655,449 670,486" />
<polygon fill="#090508" fill-opacity="0.501961" points="554,370 713,496 717,438" />
<polygon fill="#f9927c" fill-opacity="0.501961" points="851,425 919,227 801,219" />
<polygon fill="#a86a54" fill-opacity="0.501961" points="78,249 55,330 53,163" />
<polygon fill="#ef8100" fill-opacity="0.501961" points="779,303 765,524 911,474" />
<polygon fill="#e3a1bb" fill-opacity="0.501961" points="1038,471 917,473 978,489" />
<polygon fill="#af767d" fill-opacity="0.501961" points="843,60 599,66 631,-16" />
<polygon fill="#000000" fill-opacity="0.501961" points="647,-16 583,35 551,-16" />
<polygon fill="#000018" fill-opacity="0.501961" points="820,308 790,323 794,203" />
<polygon fill="#0a0f14" fill-opacity="0.501961" points="796,177 1179,-16 969,254" />
<polygon fill="#4c90c7" fill-opacity="0.501961" points="1065,337 1003,373 1099,276" />
<polygon fill="#161619" fill-opacity="0.501961" points="67,379 573,539 64,108" />
<polygon fill="#ba6500" fill-opacity="0.501961" points="1118,406 1143,148 1079,251" />
<polygon fill="#02070b" fill-opacity="0.501961" points="66,293 67,-16 343,-16" />
<polygon fill="#bf869c" fill-opacity="0.501961" points="1009,482 1134,482 1071,465" />
<polygon fill="#000000" fill-opacity="0.501961" points="1138,-14 1215,227 1215,-3" />
<polygon fill="#0c131b" fill-opacity="0.501961" points="1079,274 904,473 873,397" />
<polygon fill="#0f1111" fill-opacity="0.501961" points="1088,307 920,469 1144,473" />
<polygon fill="#e9906f" fill-opacity="0.501961" points="50,358 66,366 63,301" />
<polygon fill="#111013" fill-opacity="0.501961" points="799,645 368,636 676,478" />
<polygon fill="#101215" fill-opacity="0.501961" points="855,135 640,63 793,246" />
<polygon fill="#456279" fill-opacity="0.501961" points="310,97 329,-16 584,-7" />
<polygon fill="#b87156" fill-opacity="0.501961" points="64,102 50,148 64,197" />
<polygon fill="#010407" fill-opacity="0.501961" points="3,422 334,629 -16,630" />
<polygon fill="#080e15" fill-opacity="0.501961" points="991,369 1085,296 1074,71" />
<polygon fill="#b36200" fill-opacity="0.501961" points="765,604 975,523 715,511" />
<polygon fill="#d1929c" fill-opacity="0.501961" points="874,139 805,67 636,54" />
<polygon fill="#05090e" fill-opacity="0.501961" points="923,483 1127,645 1199,486" />
<polygon fill="#a8dfff" fill-opacity="0.501961" points="556,391 603,410 530,354" />
<polygon fill="#e28c72" fill-opacity="0.501961" points="882,393 986,269 913,228" />
<polygon fill="#000106" fill-opacity="0.501961" points="12,322 72,-14 -16,3" />
<polygon fill="#6195cc" fill-opacity="0.501961" points="899,470 917,481 944,430" />
<polygon fill="#ffc3e9" fill-opacity="0.501961" points="778,261 778,338 791,308" />
<polygon fill="#d58566" fill-opacity="0.501961" points="415,574 475,518 411,486" />
<polygon fill="#201c1c" fill-opacity="0.501961" points="437,585 541,375 741,536" />
<polygon fill="#000000" fill-opacity="0.501961" points="602,57 585,39 640,57" />
<polygon fill="#8c4c00" fill-opacity="0.501961" points="1215,423 1079,148 1161,69" />
<polygon fill="#f57e00" fill-opacity="0.501961" points="735,558 762,348 714,463" />
<polygon fill="#885541" fill-opacity="0.501961" points="418,591 349,645 238,527" />
<polygon fill="#de8969" fill-opacity="0.501961" points="434,500 277,502 354,479" />
<polygon fill="#1d1b1b" fill-opacity="0.501961" points="1022,214 697,79 533,222" />
<polygon fill="#93c1e2" fill-opacity="0.501961" points="571,400 620,416 655,461" />
<polygon fill="#201d1e" fill-opacity="0.501961" points="701,485 812,135 573,387" />
<polygon fill="#ca8ea2" fill-opacity="0.501961" points="1102,472 1149,472 1142,483" />
<polygon fill="#07101c" fill-opacity="0.501961" points="777,260 777,332 726,395" />
<polygon fill="#f88500" fill-opacity="0.501961" points="854,450 736,385 817,305" />
<polygon fill="#6b3900" fill-opacity="0.501961" points="821,597 1063,580 995,645" />
<polygon fill="#f29673" fill-opacity="0.501961" points="831,343 877,217 803,219" />
<polygon fill="#ffb3bd" fill-opacity="0.501961" points="778,226 790,266 778,301" />
<polygon fill="#985400" fill-opacity="0.501961" points="932,494 771,615 1040,579" />
<polygon fill="#c86d00" fill-opacity="0.501961" points="871,405 718,510 940,542" />
<polygon fill="#6286a2" fill-opacity="0.501961" points="544,-16 294,167 603,61" />
<polygon fill="#090c11" fill-opacity="0.501961" points="-16,337 56,580 53,137" />
<polygon fill="#b05f00" fill-opacity="0.501961" points="1177,428 1131,416 1091,324" />
<polygon fill="#191718" fill-opacity="0.501961" points="134,615 374,422 52,46" />
<polygon fill="#905640" fill-opacity="0.501961" points="53,52 68,81 56,126" />
<polygon fill="#e38f71" fill-opacity="0.501961" points="844,417 806,224 955,343" />
<polygon fill="#699fcf" fill-opacity="0.501961" points="667,470 721,519 717,495" />
<polygon fill="#d69ba8" fill-opacity="0.501961" points="811,59 837,50 845,58" />
<polygon fill="#5690be" fill-opacity="0.501961" points="1052,326 1034,360 992,381" />
<polygon fill="#171618" fill-opacity="0.501961" points="1091,106 1040,331 859,145" />
<polygon fill="#000103" fill-opacity="0.501961" points="967,645 1215,533 1215,628" />
<polygon fill="#8a6168" fill-opacity="0.501961" points="749,-16 778,43 607,14" />
<polygon fill="#663800" fill-opacity="0.501961" points="1159,64 1092,85 1215,224" />
<polygon fill="#090b0f" fill-opacity="0.501961" points="935,107 725,-16 1215,33" />
<polygon fill="#a25900" fill-opacity="0.501961" points="1094,94 1079,242 1215,392" />
</g>
</svg>