<svg xmlns="http://www.w3.org/2000/svg" version="1.1" width="1200" height="630">
<rect x="0" y="0" width="1200" height="630" fill="#3d3635" />
<g transform="scale(1.000000) translate(0.5 0.5)">
<rect fill="#c0b1ab" fill-opacity="0.501961" x="423" y="474" width="616" height="148" />
<rect fill="#d7d0cc" fill-opacity="0.501961" x="698" y="0" width="141" height="194" />
<rect fill="#b5978b" fill-opacity="0.501961" x="183" y="35" width="234" height="383" />
<rect fill="#010407" fill-opacity="0.501961" x="423" y="126" width="323" height="263" />
<rect fill="#d3bfb8" fill-opacity="0.501961" x="582" y="411" width="126" height="115" />
<rect fill="#000000" fill-opacity="0.501961" x="0" y="0" width="181" height="630" />
<rect fill="#000000" fill-opacity="0.501961" x="181" y="0" width="56" height="175" />
<rect fill="#c0bab7" fill-opacity="0.501961" x="635" y="0" width="63" height="84" />
<rect fill="#e2d7d3" fill-opacity="0.501961" x="790" y="108" width="48" height="127" />
<rect fill="#000305" fill-opacity="0.501961" x="403" y="57" width="253" height="100" />
<rect fill="#000000" fill-opacity="0.501961" x="321" y="484" width="157" height="36" />
<rect fill="#000003" fill-opacity="0.501961" x="460" y="389" width="166" height="49" />
<rect fill="#beada7" fill-opacity="0.501961" x="668" y="382" width="53" height="73" />
<rect fill="#080302" fill-opacity="0.501961" x="840" y="0" width="360" height="476" />
<rect fill="#a0918b" fill-opacity="0.501961" x="354" y="547" width="69" height="63" />
<rect fill="#000000" fill-opacity="0.501961" x="1075" y="387" width="125" height="243" />
<rect fill="#a79690" fill-opacity="0.501961" x="538" y="454" width="158" height="104" />
<rect fill="#766e6b" fill-opacity="0.501961" x="243" y="2" width="209" height="75" />
<rect fill="#000000" fill-opacity="0.501961" x="333" y="151" width="55" height="29" />
<rect fill="#c8beb9" fill-opacity="0.501961" x="720" y="79" width="71" height="75" />
<rect fill="#000000" fill-opacity="0.501961" x="0" y="485" width="337" height="145" />
<rect fill="#625a57" fill-opacity="0.501961" x="463" y="576" width="614" height="54" />
<rect fill="#000205" fill-opacity="0.501961" x="745" y="215" width="64" height="96" />
<rect fill="#c4b1aa" fill-opacity="0.501961" x="57" y="473" width="361" height="9" />
<rect fill="#a68b82" fill-opacity="0.501961" x="261" y="373" width="185" height="44" />
<rect fill="#0f0000" fill-opacity="0.501961" x="838" y="496" width="13" height="134" />
<rect fill="#000000" fill-opacity="0.501961" x="480" y="0" width="118" height="57" />
<rect fill="#010002" fill-opacity="0.501961" x="696" y="170" width="69" height="44" />
<rect fill="#b9b1ad" fill-opacity="0.501961" x="676" y="55" width="46" height="51" />
<rect fill="#000000" fill-opacity="0.501961" x="206" y="420" width="240" height="51" />
<rect fill="#a0908b" fill-opacity="0.501961" x="493" y="476" width="340" height="66" />
<rect fill="#b1aca9" fill-opacity="0.501961" x="605" y="0" width="30" height="34" />
<rect fill="#e8deda" fill-opacity="0.501961" x="818" y="193" width="21" height="53" />
<rect fill="#c3b0aa" fill-opacity="0.501961" x="607" y="426" width="85" height="47" />
<rect fill="#938681" fill-opacity="0.501961" x="308" y="577" width="49" height="25" />
<rect fill="#97837d" fill-opacity="0.501961" x="238" y="94" width="99" height="281" />
<rect fill="#000000" fill-opacity="0.501961" x="334" y="519" width="45" height="40" />
<rect fill="#887f7d" fill-opacity="0.501961" x="843" y="254" width="28" height="35" />
<rect fill="#000000" fill-opacity="0.501961" x="857" y="487" width="32" height="14" />
<rect fill="#050102" fill-opacity="0.501961" x="388" y="104" width="32" height="43" />
<rect fill="#89807d" fill-opacity="0.501961" x="870" y="224" width="28" height="30" />
<rect fill="#8e8b88" fill-opacity="0.501961" x="1039" y="525" width="25" height="52" />
<rect fill="#5b3d31" fill-opacity="0.501961" x="948" y="47" width="196" height="136" />
<rect fill="#000104" fill-opacity="0.501961" x="752" y="395" width="89" height="80" />
<rect fill="#9f9b9a" fill-opacity="0.501961" x="881" y="477" width="121" height="65" />
<rect fill="#040608" fill-opacity="0.501961" x="445" y="427" width="104" height="42" />
<rect fill="#000000" fill-opacity="0.501961" x="698" y="141" width="34" height="29" />
<rect fill="#ccc2be" fill-opacity="0.501961" x="777" y="154" width="43" height="51" />
<rect fill="#c2a093" fill-opacity="0.501961" x="779" y="338" width="25" height="25" />
<rect fill="#000001" fill-opacity="0.501961" x="1024" y="487" width="124" height="19" />
<rect fill="#8a7c77" fill-opacity="0.501961" x="398" y="533" width="363" height="59" />
<rect fill="#686261" fill-opacity="0.501961" x="895" y="184" width="36" height="40" />
<rect fill="#f8dfd6" fill-opacity="0.501961" x="711" y="376" width="15" height="15" />
<rect fill="#000000" fill-opacity="0.501961" x="425" y="485" width="73" height="14" />
<rect fill="#b4a29c" fill-opacity="0.501961" x="453" y="507" width="43" height="25" />
<rect fill="#000000" fill-opacity="0.501961" x="324" y="167" width="76" height="12" />
<rect fill="#d9ccc7" fill-opacity="0.501961" x="406" y="168" width="20" height="18" />
<rect fill="#000205" fill-opacity="0.501961" x="627" y="382" width="62" height="15" />
<rect fill="#d9c4bd" fill-opacity="0.501961" x="681" y="391" width="33" height="26" />
<rect fill="#dfd4cf" fill-opacity="0.501961" x="756" y="151" width="25" height="28" />
<rect fill="#000000" fill-opacity="0.501961" x="841" y="506" width="19" height="23" />
<rect fill="#6e645f" fill-opacity="0.501961" x="66" y="52" width="132" height="10" />
<rect fill="#0a0c0d" fill-opacity="0.501961" x="579" y="397" width="64" height="23" />
<rect fill="#7f6a63" fill-opacity="0.501961" x="180" y="147" width="29" height="270" />
<rect fill="#222122" fill-opacity="0.501961" x="702" y="422" width="53" height="54" />
<rect fill="#c4b3ad" fill-opacity="0.501961" x="744" y="389" width="16" height="19" />
<rect fill="#c4b4ae" fill-opacity="0.501961" x="831" y="287" width="16" height="17" />
<rect fill="#8d6e63" fill-opacity="0.501961" x="720" y="296" width="28" height="23" />
<rect fill="#9c7f74" fill-opacity="0.501961" x="302" y="294" width="118" height="106" />
<rect fill="#171516" fill-opacity="0.501961" x="437" y="47" width="202" height="124" />
<rect fill="#000000" fill-opacity="0.501961" x="376" y="618" width="82" height="12" />
<rect fill="#c5b3ac" fill-opacity="0.501961" x="721" y="418" width="15" height="19" />
<rect fill="#8a807d" fill-opacity="0.501961" x="927" y="161" width="20" height="26" />
<rect fill="#0f1113" fill-opacity="0.501961" x="918" y="201" width="245" height="255" />
<rect fill="#bfada7" fill-opacity="0.501961" x="564" y="449" width="44" height="31" />
<rect fill="#756964" fill-opacity="0.501961" x="340" y="3" width="133" height="36" />
<rect fill="#000102" fill-opacity="0.501961" x="1060" y="502" width="83" height="43" />
<rect fill="#b7a8a2" fill-opacity="0.501961" x="764" y="364" width="18" height="18" />
<rect fill="#c0ada7" fill-opacity="0.501961" x="652" y="405" width="55" height="29" />
<rect fill="#07090a" fill-opacity="0.501961" x="463" y="25" width="151" height="32" />
<rect fill="#000204" fill-opacity="0.501961" x="808" y="238" width="17" height="62" />
<rect fill="#000000" fill-opacity="0.501961" x="654" y="97" width="31" height="30" />
<rect fill="#c3b2ac" fill-opacity="0.501961" x="807" y="314" width="14" height="19" />
<rect fill="#e3d8d4" fill-opacity="0.501961" x="800" y="195" width="19" height="27" />
<rect fill="#101112" fill-opacity="0.501961" x="239" y="486" width="199" height="42" />
<rect fill="#62504b" fill-opacity="0.501961" x="839" y="391" width="40" height="31" />
<rect fill="#7f5a4e" fill-opacity="0.501961" x="303" y="180" width="117" height="104" />
<rect fill="#4f4e4e" fill-opacity="0.501961" x="968" y="558" width="108" height="69" />
<rect fill="#000000" fill-opacity="0.501961" x="349" y="144" width="26" height="25" />
<rect fill="#9e837a" fill-opacity="0.501961" x="403" y="370" width="18" height="63" />
<rect fill="#dbd9d9" fill-opacity="0.501961" x="380" y="142" width="16" height="15" />
<rect fill="#b3968b" fill-opacity="0.501961" x="416" y="399" width="38" height="19" />
<rect fill="#000102" fill-opacity="0.501961" x="0" y="62" width="197" height="82" />
<rect fill="#645f5c" fill-opacity="0.501961" x="698" y="0" width="141" height="33" />
<rect fill="#a9a4a0" fill-opacity="0.501961" x="590" y="0" width="15" height="15" />
<rect fill="#000000" fill-opacity="0.501961" x="0" y="0" width="118" height="44" />
<rect fill="#decac2" fill-opacity="0.501961" x="819" y="304" width="12" height="14" />
<rect fill="#a59c99" fill-opacity="0.501961" x="737" y="70" width="101" height="91" />
<rect fill="#887c77" fill-opacity="0.501961" x="1013" y="477" width="76" height="10" />
<rect fill="#563b30" fill-opacity="0.501961" x="1155" y="347" width="12" height="127" />
</g>
</svg>