<svg xmlns="http://www.w3.org/2000/svg" version="1.1" width="1200" height="630">
<rect x="0" y="0" width="1200" height="630" fill="#344b51" />
<g transform="scale(1.000000) translate(0.5 0.5)">
<g transform="translate(855.469817 308.936503) rotate(340.351063) scale(201.823387 298.790610)"><ellipse fill="#a1e4da" fill-opacity="0.501961" cx="0" cy="0" rx="1" ry="1" /></g>
<g transform="translate(1133.599163 211.740477) rotate(85.313827) scale(578.094399 89.376985)"><ellipse fill="#000000" fill-opacity="0.501961" cx="0" cy="0" rx="1" ry="1" /></g>
<g transform="translate(86.032904 435.654742) rotate(204.431809) scale(1148.392876 226.345721)"><ellipse fill="#000004" fill-opacity="0.501961" cx="0" cy="0" rx="1" ry="1" /></g>
<g transform="translate(371.945372 176.457357) rotate(167.399049) scale(170.593671 119.515780)"><ellipse fill="#7cb6ad" fill-opacity="0.501961" cx="0" cy="0" rx="1" ry="1" /></g>
<g transform="translate(84.147902 81.236012) rotate(100.647968) scale(266.165164 100.341290)"><ellipse fill="#000000" fill-opacity="0.501961" cx="0" cy="0" rx="1" ry="1" /></g>
<g transform="translate(1118.078638 596.083799) rotate(160.666136) scale(253.514677 77.766834)"><ellipse fill="#000000" fill-opacity="0.501961" cx="0" cy="0" rx="1" ry="1" /></g>
<g transform="translate(653.688296 386.694691) rotate(288.439981) scale(77.798126 42.132570)"><ellipse fill="#88c8c2" fill-opacity="0.501961" cx="0" cy="0" rx="1" ry="1" /></g>
<g transform="translate(912.307541 269.071227) rotate(28.163404) scale(192.841244 45.879727)"><ellipse fill="#96c9c9" fill-opacity="0.501961" cx="0" cy="0" rx="1" ry="1" /></g>
<g transform="translate(684.580094 117.014955) rotate(180.388912) scale(38.924988 221.957851)"><ellipse fill="#79beb3" fill-opacity="0.501961" cx="0" cy="0" rx="1" ry="1" /></g>
<g transform="translate(513.225773 267.746870) rotate(140.363132) scale(9.701347 54.709731)"><ellipse fill="#d1ffff" fill-opacity="0.501961" cx="0" cy="0" rx="1" ry="1" /></g>
<g transform="translate(593.556249 136.328853) rotate(242.079758) scale(84.485353 41.236385)"><ellipse fill="#000016" fill-opacity="0.501961" cx="0" cy="0" rx="1" ry="1" /></g>
<g transform="translate(890.849163 500.348813) rotate(58.273679) scale(124.674281 58.987450)"><ellipse fill="#4d6a6a" fill-opacity="0.501961" cx="0" cy="0" rx="1" ry="1" /></g>
<g transform="translate(580.130888 321.231879) rotate(27.664845) scale(60.129257 6.219485)"><ellipse fill="#d2ffff" fill-opacity="0.501961" cx="0" cy="0" rx="1" ry="1" /></g>
<g transform="translate(1045.814987 255.376641) rotate(179.611842) scale(11.789681 53.814102)"><ellipse fill="#000000" fill-opacity="0.501961" cx="0" cy="0" rx="1" ry="1" /></g>
<g transform="translate(1068.972677 396.322728) rotate(87.845384) scale(81.227026 8.699267)"><ellipse fill="#9ec8ca" fill-opacity="0.501961" cx="0" cy="0" rx="1" ry="1" /></g>
<g transform="translate(599.769918 20.213552) rotate(56.089718) scale(76.616414 28.977758)"><ellipse fill="#000001" fill-opacity="0.501961" cx="0" cy="0" rx="1" ry="1" /></g>
<g transform="translate(868.152057 63.573110) rotate(298.982025) scale(82.783560 190.217831)"><ellipse fill="#4e7d73" fill-opacity="0.501961" cx="0" cy="0" rx="1" ry="1" /></g>
<g transform="translate(705.217223 470.279923) rotate(23.144179) scale(24.093592 36.835775)"><ellipse fill="#00031a" fill-opacity="0.501961" cx="0" cy="0" rx="1" ry="1" /></g>
<g transform="translate(427.162952 451.570477) rotate(35.406151) scale(7.486777 135.496176)"><ellipse fill="#5fa09b" fill-opacity="0.501961" cx="0" cy="0" rx="1" ry="1" /></g>
<g transform="translate(766.607044 478.662525) rotate(281.266131) scale(57.849049 36.320080)"><ellipse fill="#a8d1d5" fill-opacity="0.501961" cx="0" cy="0" rx="1" ry="1" /></g>
<g transform="translate(587.678676 262.633342) rotate(9.938491) scale(60.092763 49.669162)"><ellipse fill="#050628" fill-opacity="0.501961" cx="0" cy="0" rx="1" ry="1" /></g>
<g transform="translate(79.018393 52.461095) rotate(-63.926897) scale(125.744339 99.403892)"><ellipse fill="#000006" fill-opacity="0.501961" cx="0" cy="0" rx="1" ry="1" /></g>
<g transform="translate(1160.119249 217.638010) rotate(350.954169) scale(106.276296 399.421348)"><ellipse fill="#030315" fill-opacity="0.501961" cx="0" cy="0" rx="1" ry="1" /></g>
<g transform="translate(555.309138 389.081136) rotate(88.744230) scale(71.866306 55.146038)"><ellipse fill="#090b2d" fill-opacity="0.501961" cx="0" cy="0" rx="1" ry="1" /></g>
<g transform="translate(132.349273 557.340228) rotate(174.665389) scale(136.847084 476.935894)"><ellipse fill="#0a0c20" fill-opacity="0.501961" cx="0" cy="0" rx="1" ry="1" /></g>
<g transform="translate(465.614623 318.905233) rotate(309.703486) scale(60.831598 42.759304)"><ellipse fill="#050527" fill-opacity="0.501961" cx="0" cy="0" rx="1" ry="1" /></g>
<g transform="translate(964.718973 341.156275) rotate(155.278137) scale(42.276903 115.438240)"><ellipse fill="#9abdc2" fill-opacity="0.501961" cx="0" cy="0" rx="1" ry="1" /></g>
<g transform="translate(306.285158 91.225830) rotate(161.710838) scale(144.661437 69.963357)"><ellipse fill="#466762" fill-opacity="0.501961" cx="0" cy="0" rx="1" ry="1" /></g>
<g transform="translate(1031.863976 503.311691) rotate(127.542414) scale(60.337998 36.582250)"><ellipse fill="#6e8587" fill-opacity="0.501961" cx="0" cy="0" rx="1" ry="1" /></g>
<g transform="translate(489.028535 63.805002) rotate(153.796986) scale(41.453418 84.035341)"><ellipse fill="#567e79" fill-opacity="0.501961" cx="0" cy="0" rx="1" ry="1" /></g>
<g transform="translate(529.628960 189.864166) rotate(115.607771) scale(12.610141 57.524053)"><ellipse fill="#78b1ad" fill-opacity="0.501961" cx="0" cy="0" rx="1" ry="1" /></g>
<g transform="translate(726.058565 216.323417) rotate(-17.951155) scale(80.774830 54.551207)"><ellipse fill="#7ec5bc" fill-opacity="0.501961" cx="0" cy="0" rx="1" ry="1" /></g>
<g transform="translate(441.461624 230.351386) rotate(323.230987) scale(103.944717 40.002656)"><ellipse fill="#6ea1a0" fill-opacity="0.501961" cx="0" cy="0" rx="1" ry="1" /></g>
<g transform="translate(852.055459 51.777101) rotate(12.550948) scale(189.036252 39.097175)"><ellipse fill="#4a706b" fill-opacity="0.501961" cx="0" cy="0" rx="1" ry="1" /></g>
<g transform="translate(585.036985 506.444130) rotate(259.135550) scale(5.796701 188.764910)"><ellipse fill="#488e84" fill-opacity="0.501961" cx="0" cy="0" rx="1" ry="1" /></g>
<g transform="translate(1008.474754 167.040021) rotate(264.913333) scale(85.258622 27.043228)"><ellipse fill="#5e9089" fill-opacity="0.501961" cx="0" cy="0" rx="1" ry="1" /></g>
<g transform="translate(95.611632 608.219865) rotate(307.235703) scale(79.226311 237.714303)"><ellipse fill="#030507" fill-opacity="0.501961" cx="0" cy="0" rx="1" ry="1" /></g>
<g transform="translate(670.382081 382.882669) rotate(304.012511) scale(75.733522 53.751225)"><ellipse fill="#6a9b99" fill-opacity="0.501961" cx="0" cy="0" rx="1" ry="1" /></g>
<g transform="translate(1058.567726 594.826604) rotate(71.589576) scale(51.512492 98.820315)"><ellipse fill="#030411" fill-opacity="0.501961" cx="0" cy="0" rx="1" ry="1" /></g>
<g transform="translate(665.465328 463.730350) rotate(256.453984) scale(15.146836 71.545208)"><ellipse fill="#121732" fill-opacity="0.501961" cx="0" cy="0" rx="1" ry="1" /></g>
<g transform="translate(525.336489 15.705131) rotate(137.398780) scale(15.145028 24.813260)"><ellipse fill="#000005" fill-opacity="0.501961" cx="0" cy="0" rx="1" ry="1" /></g>
<g transform="translate(974.337282 556.622049) rotate(240.505240) scale(21.549090 106.517642)"><ellipse fill="#5d7375" fill-opacity="0.501961" cx="0" cy="0" rx="1" ry="1" /></g>
<g transform="translate(358.625009 338.486348) rotate(95.015724) scale(37.583504 135.870229)"><ellipse fill="#161e3c" fill-opacity="0.501961" cx="0" cy="0" rx="1" ry="1" /></g>
<g transform="translate(523.397448 228.509479) rotate(296.003288) scale(21.520147 19.246332)"><ellipse fill="#050626" fill-opacity="0.501961" cx="0" cy="0" rx="1" ry="1" /></g>
<g transform="translate(551.237236 612.403521) rotate(87.728343) scale(67.885575 300.090338)"><ellipse fill="#090b20" fill-opacity="0.501961" cx="0" cy="0" rx="1" ry="1" /></g>
<g transform="translate(622.037124 253.002831) rotate(275.705768) scale(81.077413 23.791184)"><ellipse fill="#17253a" fill-opacity="0.501961" cx="0" cy="0" rx="1" ry="1" /></g>
<g transform="translate(707.095165 76.400945) rotate(193.342049) scale(63.421743 46.273782)"><ellipse fill="#5a8983" fill-opacity="0.501961" cx="0" cy="0" rx="1" ry="1" /></g>
<g transform="translate(971.910377 456.678983) rotate(210.666914) scale(24.461026 120.645502)"><ellipse fill="#82a1a5" fill-opacity="0.501961" cx="0" cy="0" rx="1" ry="1" /></g>
<g transform="translate(908.687795 391.071281) rotate(165.490734) scale(28.790712 86.225760)"><ellipse fill="#507978" fill-opacity="0.501961" cx="0" cy="0" rx="1" ry="1" /></g>
<g transform="translate(613.489943 18.129114) rotate(86.604421) scale(47.483685 33.863242)"><ellipse fill="#06071d" fill-opacity="0.501961" cx="0" cy="0" rx="1" ry="1" /></g>
<g transform="translate(779.985276 510.233180) rotate(286.255625) scale(35.687598 52.664374)"><ellipse fill="#8baeb2" fill-opacity="0.501961" cx="0" cy="0" rx="1" ry="1" /></g>
<g transform="translate(557.921738 170.447499) rotate(57.415347) scale(37.056105 12.434469)"><ellipse fill="#060824" fill-opacity="0.501961" cx="0" cy="0" rx="1" ry="1" /></g>
<g transform="translate(210.788414 273.376309) rotate(214.733963) scale(144.500512 30.973314)"><ellipse fill="#171f34" fill-opacity="0.501961" cx="0" cy="0" rx="1" ry="1" /></g>
<g transform="translate(1047.134052 334.295213) rotate(263.390808) scale(26.028117 31.377045)"><ellipse fill="#7e9ea1" fill-opacity="0.501961" cx="0" cy="0" rx="1" ry="1" /></g>
<g transform="translate(515.710722 266.640207) rotate(240.540915) scale(38.109092 6.973952)"><ellipse fill="#acefee" fill-opacity="0.501961" cx="0" cy="0" rx="1" ry="1" /></g>
<g transform="translate(826.660516 171.454391) rotate(98.458025) scale(62.931665 116.769189)"><ellipse fill="#6aa79f" fill-opacity="0.501961" cx="0" cy="0" rx="1" ry="1" /></g>
<g transform="translate(1067.640407 267.743485) rotate(457.451649) scale(43.106603 31.418477)"><ellipse fill="#10162e" fill-opacity="0.501961" cx="0" cy="0" rx="1" ry="1" /></g>
<g transform="translate(1152.713199 39.994945) rotate(116.064826) scale(62.850838 126.338517)"><ellipse fill="#020306" fill-opacity="0.501961" cx="0" cy="0" rx="1" ry="1" /></g>
<g transform="translate(196.756964 166.165467) rotate(162.375096) scale(17.242470 57.711805)"><ellipse fill="#527975" fill-opacity="0.501961" cx="0" cy="0" rx="1" ry="1" /></g>
<g transform="translate(515.154880 330.922985) rotate(306.608949) scale(46.715418 6.291620)"><ellipse fill="#69b0a6" fill-opacity="0.501961" cx="0" cy="0" rx="1" ry="1" /></g>
<g transform="translate(873.764176 629.000000) rotate(121.459381) scale(21.868100 85.722985)"><ellipse fill="#050613" fill-opacity="0.501961" cx="0" cy="0" rx="1" ry="1" /></g>
<g transform="translate(615.058435 454.636651) rotate(135.256729) scale(6.181708 9.037375)"><ellipse fill="#83bfbf" fill-opacity="0.501961" cx="0" cy="0" rx="1" ry="1" /></g>
<g transform="translate(882.852113 533.100037) rotate(9.194292) scale(33.391361 71.298596)"><ellipse fill="#516f6f" fill-opacity="0.501961" cx="0" cy="0" rx="1" ry="1" /></g>
<g transform="translate(198.044722 0.000000) rotate(298.200154) scale(46.761703 13.584893)"><ellipse fill="#000003" fill-opacity="0.501961" cx="0" cy="0" rx="1" ry="1" /></g>
<g transform="translate(1055.831903 571.758677) rotate(317.715816) scale(5.508178 40.492002)"><ellipse fill="#43625d" fill-opacity="0.501961" cx="0" cy="0" rx="1" ry="1" /></g>
<g transform="translate(756.813453 450.788259) rotate(224.865637) scale(26.133490 28.773681)"><ellipse fill="#9ecacd" fill-opacity="0.501961" cx="0" cy="0" rx="1" ry="1" /></g>
<g transform="translate(603.244367 210.502639) rotate(97.027794) scale(5.481192 45.131181)"><ellipse fill="#489685" fill-opacity="0.501961" cx="0" cy="0" rx="1" ry="1" /></g>
<g transform="translate(814.604677 414.071063) rotate(368.437428) scale(35.696766 46.783350)"><ellipse fill="#5c8c8a" fill-opacity="0.501961" cx="0" cy="0" rx="1" ry="1" /></g>
<g transform="translate(380.570826 545.127861) rotate(348.729926) scale(184.815831 5.272623)"><ellipse fill="#2e6159" fill-opacity="0.501961" cx="0" cy="0" rx="1" ry="1" /></g>
<g transform="translate(346.242238 253.827262) rotate(193.669495) scale(61.451105 46.876034)"><ellipse fill="#679795" fill-opacity="0.501961" cx="0" cy="0" rx="1" ry="1" /></g>
<g transform="translate(163.611559 342.464002) rotate(496.796068) scale(113.324381 249.603160)"><ellipse fill="#151e30" fill-opacity="0.501961" cx="0" cy="0" rx="1" ry="1" /></g>
<g transform="translate(713.331418 499.572635) rotate(4.030255) scale(17.390038 54.557414)"><ellipse fill="#131d31" fill-opacity="0.501961" cx="0" cy="0" rx="1" ry="1" /></g>
<g transform="translate(531.270912 437.459929) rotate(339.638486) scale(73.178951 69.682119)"><ellipse fill="#19223d" fill-opacity="0.501961" cx="0" cy="0" rx="1" ry="1" /></g>
<g transform="translate(614.615776 87.497862) rotate(228.328122) scale(67.891016 4.592120)"><ellipse fill="#699a94" fill-opacity="0.501961" cx="0" cy="0" rx="1" ry="1" /></g>
<g transform="translate(530.205354 59.986625) rotate(145.839581) scale(55.671348 12.933092)"><ellipse fill="#557d79" fill-opacity="0.501961" cx="0" cy="0" rx="1" ry="1" /></g>
<g transform="translate(889.609111 263.160145) rotate(188.767078) scale(36.916117 28.959749)"><ellipse fill="#a0cbce" fill-opacity="0.501961" cx="0" cy="0" rx="1" ry="1" /></g>
<g transform="translate(1055.701953 415.093209) rotate(180.114872) scale(21.575144 102.902559)"><ellipse fill="#78979a" fill-opacity="0.501961" cx="0" cy="0" rx="1" ry="1" /></g>
<g transform="translate(660.477569 268.266741) rotate(98.364248) scale(42.459673 12.749108)"><ellipse fill="#8bd3cb" fill-opacity="0.501961" cx="0" cy="0" rx="1" ry="1" /></g>
<g transform="translate(840.350598 293.975480) rotate(205.717744) scale(61.930218 22.918874)"><ellipse fill="#5c8b89" fill-opacity="0.501961" cx="0" cy="0" rx="1" ry="1" /></g>
<g transform="translate(199.945836 105.043311) rotate(348.852709) scale(23.283245 57.857797)"><ellipse fill="#456562" fill-opacity="0.501961" cx="0" cy="0" rx="1" ry="1" /></g>
<g transform="translate(661.815954 334.059031) rotate(399.379817) scale(24.523948 65.007664)"><ellipse fill="#6a9a99" fill-opacity="0.501961" cx="0" cy="0" rx="1" ry="1" /></g>
<g transform="translate(374.921663 77.165886) rotate(169.387965) scale(169.985871 35.150255)"><ellipse fill="#476767" fill-opacity="0.501961" cx="0" cy="0" rx="1" ry="1" /></g>
<g transform="translate(1097.017316 484.305203) rotate(183.655621) scale(19.571970 82.175212)"><ellipse fill="#090c1e" fill-opacity="0.501961" cx="0" cy="0" rx="1" ry="1" /></g>
<g transform="translate(511.248943 136.465538) rotate(109.335853) scale(56.558067 24.746631)"><ellipse fill="#5e8a88" fill-opacity="0.501961" cx="0" cy="0" rx="1" ry="1" /></g>
<g transform="translate(566.497322 314.317978) rotate(31.487518) scale(25.659527 3.325667)"><ellipse fill="#c1ffff" fill-opacity="0.501961" cx="0" cy="0" rx="1" ry="1" /></g>
<g transform="translate(412.569240 284.860308) rotate(257.054888) scale(27.717534 6.591642)"><ellipse fill="#71a5a2" fill-opacity="0.501961" cx="0" cy="0" rx="1" ry="1" /></g>
<g transform="translate(951.892106 376.997907) rotate(355.449756) scale(12.987927 88.283736)"><ellipse fill="#92bbbd" fill-opacity="0.501961" cx="0" cy="0" rx="1" ry="1" /></g>
<g transform="translate(180.622655 585.720095) rotate(258.800272) scale(6.756396 66.070447)"><ellipse fill="#20433a" fill-opacity="0.501961" cx="0" cy="0" rx="1" ry="1" /></g>
<g transform="translate(91.314321 11.100892) rotate(340.009175) scale(235.500361 43.551242)"><ellipse fill="#03030a" fill-opacity="0.501961" cx="0" cy="0" rx="1" ry="1" /></g>
<g transform="translate(662.609589 115.018611) rotate(278.627721) scale(46.895100 14.500462)"><ellipse fill="#71a9a3" fill-opacity="0.501961" cx="0" cy="0" rx="1" ry="1" /></g>
<g transform="translate(1064.896487 236.782537) rotate(-2.373454) scale(28.773520 77.040793)"><ellipse fill="#131b2c" fill-opacity="0.501961" cx="0" cy="0" rx="1" ry="1" /></g>
<g transform="translate(466.165263 397.720739) rotate(306.044614) scale(81.446536 5.806137)"><ellipse fill="#558c87" fill-opacity="0.501961" cx="0" cy="0" rx="1" ry="1" /></g>
<g transform="translate(941.128940 622.280149) rotate(365.678359) scale(16.694822 21.664519)"><ellipse fill="#000009" fill-opacity="0.501961" cx="0" cy="0" rx="1" ry="1" /></g>
<g transform="translate(624.217135 287.278608) rotate(273.025781) scale(48.497956 23.361526)"><ellipse fill="#192139" fill-opacity="0.501961" cx="0" cy="0" rx="1" ry="1" /></g>
<g transform="translate(489.348718 247.374438) rotate(144.306386) scale(6.517874 40.197237)"><ellipse fill="#70b2ab" fill-opacity="0.501961" cx="0" cy="0" rx="1" ry="1" /></g>
<g transform="translate(682.939319 417.590154) rotate(76.850698) scale(27.350928 77.705868)"><ellipse fill="#669693" fill-opacity="0.501961" cx="0" cy="0" rx="1" ry="1" /></g>
<g transform="translate(387.731116 326.986876) rotate(399.501318) scale(26.904228 32.513436)"><ellipse fill="#141b32" fill-opacity="0.501961" cx="0" cy="0" rx="1" ry="1" /></g>
<g transform="translate(561.261312 3.452226) rotate(50.095781) scale(28.209584 13.927690)"><ellipse fill="#040416" fill-opacity="0.501961" cx="0" cy="0" rx="1" ry="1" /></g>
<g transform="translate(954.534460 595.068402) rotate(236.138576) scale(19.456714 9.629780)"><ellipse fill="#5d7878" fill-opacity="0.501961" cx="0" cy="0" rx="1" ry="1" /></g>
<g transform="translate(440.185011 194.335040) rotate(-8.992577) scale(104.977587 40.921419)"><ellipse fill="#63908e" fill-opacity="0.501961" cx="0" cy="0" rx="1" ry="1" /></g>
</g>
</svg>