<svg xmlns="http://www.w3.org/2000/svg" version="1.1" width="1200" height="630">
<rect x="0" y="0" width="1200" height="630" fill="#593754" />
<g transform="scale(1.000000) translate(0.5 0.5)">
<polygon fill="#ff92de" fill-opacity="0.501961" points="942.744653,68.638512,913.029614,567.994959,757.670571,603.820907,599.867608,-16.000000" />
<polygon fill="#f49ccb" fill-opacity="0.501961" points="-16.000000,388.985498,18.930717,184.580712,232.094794,42.187115,239.264636,606.474758" />
<polygon fill="#000000" fill-opacity="0.501961" points="932.650424,425.051662,1048.406212,-15.830486,1215.000000,0.185209,1196.502153,645.000000" />
<polygon fill="#000c19" fill-opacity="0.501961" points="715.167966,304.396356,718.747358,399.914382,695.535701,645.000000,200.792922,313.564363" />
<polygon fill="#ffbcf0" fill-opacity="0.501961" points="809.828903,111.445641,1014.560163,304.277063,663.202274,299.359512,661.170605,94.850304" />
<polygon fill="#000000" fill-opacity="0.501961" points="33.387184,435.426416,260.095999,645.000000,-13.954034,632.068859,-16.000000,388.281145" />
<polygon fill="#000000" fill-opacity="0.501961" points="957.702712,304.888650,818.920362,305.268536,934.617076,421.593402,961.104617,316.339180" />
<polygon fill="#000a18" fill-opacity="0.501961" points="241.024875,645.000000,684.300110,181.904623,556.269239,74.335842,236.765915,51.073691" />
<polygon fill="#ff549d" fill-opacity="0.501961" points="715.796350,209.823100,716.910668,487.555396,718.542213,610.362311,1025.559131,511.482098" />
<polygon fill="#000000" fill-opacity="0.501961" points="1191.471834,601.511666,523.518787,606.754733,489.902511,643.743177,1215.000000,630.044743" />
<polygon fill="#000000" fill-opacity="0.501961" points="117.139927,64.393768,-16.000000,225.681466,-3.857290,-1.815435,91.287679,-0.758155" />
<polygon fill="#e797c2" fill-opacity="0.501961" points="472.738229,645.000000,418.992184,459.029678,385.898858,580.575227,229.877411,529.572689" />
<polygon fill="#000a18" fill-opacity="0.501961" points="1199.976541,-16.000000,1200.577973,645.000000,1012.946852,304.487018,905.947127,199.218164" />
<polygon fill="#b9356a" fill-opacity="0.501961" points="990.779540,142.312072,911.172882,197.495124,681.395832,-16.000000,1042.961989,35.629701" />
<polygon fill="#ff569f" fill-opacity="0.501961" points="675.454590,135.021326,591.993643,-4.875447,541.265237,66.220829,652.261817,150.202162" />
<polygon fill="#000000" fill-opacity="0.501961" points="595.484387,-9.098702,541.759751,58.102303,415.385886,51.981865,417.355599,-4.158374" />
<polygon fill="#eb97c5" fill-opacity="0.501961" points="470.556730,645.000000,458.615103,582.503071,574.737282,531.405633,508.151140,623.515915" />
<polygon fill="#a83c6c" fill-opacity="0.501961" points="730.879138,543.785603,934.783464,420.626952,1094.242438,585.905668,761.778865,607.297552" />
<polygon fill="#dc8cbe" fill-opacity="0.501961" points="231.108297,132.827064,236.175184,286.298192,238.492109,489.247780,95.360532,322.858102" />
<polygon fill="#000b1a" fill-opacity="0.501961" points="473.548227,573.991373,451.844672,583.037471,425.467004,466.209513,627.338345,506.016869" />
<polygon fill="#041425" fill-opacity="0.501961" points="497.748653,627.375994,544.147667,581.091621,714.249491,300.330738,717.455506,605.079698" />
<polygon fill="#000d1d" fill-opacity="0.501961" points="995.648006,309.504150,822.021020,304.104494,1153.595523,645.000000,1215.000000,594.558485" />
<polygon fill="#152237" fill-opacity="0.501961" points="235.904280,474.541045,241.633075,54.720340,661.483640,164.377836,660.498323,446.026654" />
<polygon fill="#ffa1d7" fill-opacity="0.501961" points="663.524693,141.178622,1010.490047,304.426267,801.517653,304.786648,660.586035,305.468748" />
<polygon fill="#b26381" fill-opacity="0.501961" points="146.841542,60.852996,465.727668,56.353931,417.369330,69.544717,414.985483,-16.000000" />
<polygon fill="#48ee8b" fill-opacity="0.501961" points="539.705211,197.657700,555.013394,374.358157,625.958927,352.005446,534.846061,364.031781" />
<polygon fill="#000c19" fill-opacity="0.501961" points="232.087215,511.578577,388.386427,587.152659,400.663048,519.552696,420.515311,448.036181" />
<polygon fill="#000206" fill-opacity="0.501961" points="345.989766,645.000000,238.709256,496.778350,245.265667,580.577515,-16.000000,620.812883" />
<polygon fill="#b37295" fill-opacity="0.501961" points="333.825502,561.013915,262.852552,530.281753,334.869626,627.251341,456.982996,645.000000" />
<polygon fill="#885572" fill-opacity="0.501961" points="-16.000000,421.148192,-8.425297,221.275853,112.609958,64.436878,276.761226,-5.033647" />
<polygon fill="#000107" fill-opacity="0.501961" points="-16.000000,634.821993,186.741472,637.393689,209.911823,600.471675,-12.855040,395.105647" />
<polygon fill="#855572" fill-opacity="0.501961" points="-16.000000,386.978267,237.078822,520.749299,241.313906,628.835478,223.308583,611.942288" />
<polygon fill="#5dd292" fill-opacity="0.501961" points="724.861302,598.218189,561.954214,626.493776,503.422770,645.000000,716.985389,609.048023" />
<polygon fill="#42e58a" fill-opacity="0.501961" points="410.305597,51.652402,544.967147,58.810664,542.044297,69.928228,418.897706,64.302002" />
<polygon fill="#000308" fill-opacity="0.501961" points="618.597923,623.267675,1200.273430,645.000000,1204.616785,426.051543,1081.886729,601.672390" />
<polygon fill="#000206" fill-opacity="0.501961" points="1029.350756,90.201861,1046.500190,-5.465150,1204.034862,-4.303107,1202.905706,143.628179" />
<polygon fill="#8d395e" fill-opacity="0.501961" points="666.141289,34.702751,1041.075238,91.378956,594.546054,-16.000000,636.572737,112.761843" />
<polygon fill="#ff67b3" fill-opacity="0.501961" points="719.742253,299.789777,819.397922,306.165690,874.087139,376.290793,717.170566,512.412452" />
<polygon fill="#000207" fill-opacity="0.501961" points="84.695972,97.756191,37.687989,-3.210287,-1.498289,-16.000000,-16.000000,230.161043" />
<polygon fill="#c96295" fill-opacity="0.501961" points="1017.273302,102.816519,969.822648,159.858847,906.532024,195.682685,571.474191,89.948336" />
<polygon fill="#70394e" fill-opacity="0.501961" points="61.087938,18.050090,388.257479,-10.296371,231.263777,59.368683,14.641987,59.348784" />
<polygon fill="#161b2e" fill-opacity="0.501961" points="1097.143783,112.374242,901.139258,194.428387,963.899672,255.101393,1155.803760,460.187931" />
<polygon fill="#9a3f6c" fill-opacity="0.501961" points="713.946858,610.326060,979.662714,582.283478,1024.078637,509.237973,751.964066,548.152167" />
<polygon fill="#dd88b9" fill-opacity="0.501961" points="1004.601447,299.276181,943.204045,237.823623,793.271981,88.030872,819.825356,304.313390" />
<polygon fill="#111324" fill-opacity="0.501961" points="234.554634,136.880429,233.516063,56.746167,563.697933,72.290399,237.610291,300.361282" />
<polygon fill="#d15593" fill-opacity="0.501961" points="923.548226,410.216617,718.544526,438.254798,718.523953,545.011299,992.201317,481.758887" />
<polygon fill="#40c879" fill-opacity="0.501961" points="548.985776,354.616882,623.408146,365.087335,538.420579,368.782600,546.959859,201.427210" />
<polygon fill="#d187b6" fill-opacity="0.501961" points="399.828288,544.529335,420.069641,448.765718,420.485875,454.990169,453.230818,581.552767" />
<polygon fill="#f9a5dc" fill-opacity="0.501961" points="816.260697,305.168512,694.500818,303.526891,661.990985,304.423838,664.146870,154.563579" />
<polygon fill="#1d203a" fill-opacity="0.501961" points="668.090507,304.962594,425.931328,95.515264,716.714199,445.464620,717.649546,309.527445" />
<polygon fill="#000e1e" fill-opacity="0.501961" points="587.823084,-2.738972,417.045257,-16.000000,419.315349,53.201313,545.844518,54.113761" />
<polygon fill="#9b3d6d" fill-opacity="0.501961" points="1036.885757,67.983594,982.295001,144.301006,842.872236,109.330473,720.971329,10.114663" />
<polygon fill="#8b5979" fill-opacity="0.501961" points="83.930954,401.279253,247.492845,628.992530,-16.000000,387.663253,6.145787,199.787417" />
<polygon fill="#0a0e1b" fill-opacity="0.501961" points="559.935706,557.716222,562.118100,551.954966,498.614558,637.079462,724.015614,594.491899" />
<polygon fill="#181c32" fill-opacity="0.501961" points="557.005234,83.799922,379.073119,57.212222,661.700014,333.904896,660.990959,158.173585" />
<polygon fill="#b77fa0" fill-opacity="0.501961" points="704.976587,-1.185359,864.619655,157.085732,662.713237,96.568520,674.913770,-9.228932" />
<polygon fill="#d788ba" fill-opacity="0.501961" points="177.323781,315.116046,238.551128,441.250538,233.601428,268.620665,234.303516,202.205290" />
<polygon fill="#722647" fill-opacity="0.501961" points="1027.633822,87.569659,919.542954,25.913379,740.191254,-9.706700,1048.329201,-14.473039" />
<polygon fill="#b4729b" fill-opacity="0.501961" points="127.936775,423.463356,46.666947,261.091548,153.457285,137.210395,228.412527,141.533422" />
<polygon fill="#845270" fill-opacity="0.501961" points="113.795023,148.647714,347.631514,-16.000000,90.160219,96.966920,-16.000000,234.812246" />
<polygon fill="#d0508e" fill-opacity="0.501961" points="650.308470,151.475513,658.802280,157.450668,662.215068,55.645980,538.934944,61.968773" />
<polygon fill="#6c2341" fill-opacity="0.501961" points="951.196612,604.464746,1052.999010,605.000625,1111.820829,602.631058,1057.179502,543.210181" />
<polygon fill="#8c5978" fill-opacity="0.501961" points="318.512616,602.630319,504.717882,645.000000,513.383172,602.760725,285.259841,562.074868" />
<polygon fill="#171c32" fill-opacity="0.501961" points="455.887345,580.943905,540.754422,545.879837,707.467305,442.393521,421.074216,462.669388" />
<polygon fill="#17192b" fill-opacity="0.501961" points="1087.581842,377.072959,1049.250507,52.301088,991.310687,137.859222,914.784376,205.072353" />
<polygon fill="#06101f" fill-opacity="0.501961" points="385.541420,583.808827,407.900953,476.507502,415.904490,464.419194,327.168560,554.762833" />
<polygon fill="#27233d" fill-opacity="0.501961" points="255.264213,318.739878,533.991212,265.441892,539.013047,375.850945,367.111980,495.936017" />
<polygon fill="#0a090f" fill-opacity="0.501961" points="1215.000000,538.835542,1195.724526,645.000000,1114.937850,601.370634,1010.304418,496.338827" />
<polygon fill="#893d63" fill-opacity="0.501961" points="942.132740,5.048646,823.510046,22.598187,571.166822,33.831785,592.326722,-16.000000" />
<polygon fill="#010b16" fill-opacity="0.501961" points="244.293653,510.550683,285.046884,599.765337,197.177152,644.352297,336.087590,629.368982" />
<polygon fill="#000000" fill-opacity="0.501961" points="93.150806,-16.000000,25.716130,46.001513,5.264169,105.750067,-12.851695,-2.376694" />
<polygon fill="#42222f" fill-opacity="0.501961" points="34.277371,41.749319,89.294086,-16.000000,203.854225,0.412795,129.614362,33.706853" />
<polygon fill="#17182b" fill-opacity="0.501961" points="422.622554,454.590227,239.600429,548.154728,239.299607,488.541251,240.941909,342.948569" />
<polygon fill="#21213a" fill-opacity="0.501961" points="715.151610,594.816304,591.659825,337.568613,549.448147,277.270275,714.166228,316.932993" />
<polygon fill="#1d1f36" fill-opacity="0.501961" points="1038.532556,521.052155,900.657769,388.908247,891.104735,304.638196,1066.889549,305.734074" />
<polygon fill="#d888b7" fill-opacity="0.501961" points="661.606158,184.489477,812.527702,223.871296,781.297948,90.971412,660.894926,78.974207" />
<polygon fill="#bf7aa5" fill-opacity="0.501961" points="576.626484,530.147706,559.076976,537.092746,466.001431,582.033101,543.798186,575.183411" />
<polygon fill="#030a14" fill-opacity="0.501961" points="13.736169,57.782275,117.517007,59.537416,75.296719,112.860156,-13.162943,141.446156" />
<polygon fill="#a3577e" fill-opacity="0.501961" points="236.307994,57.670084,409.100565,21.236044,417.663515,59.111630,314.744557,57.308627" />
<polygon fill="#050d1a" fill-opacity="0.501961" points="1198.009220,628.556251,994.369500,606.721526,782.955711,603.273916,568.169085,635.111261" />
<polygon fill="#01070d" fill-opacity="0.501961" points="-16.000000,645.000000,85.318092,645.000000,145.009790,588.353962,-16.000000,489.438904" />
<polygon fill="#23253d" fill-opacity="0.501961" points="687.301999,353.416248,579.336225,142.748113,547.303884,291.283875,547.632060,357.642036" />
<polygon fill="#3bb471" fill-opacity="0.501961" points="534.472930,242.885494,545.877932,232.033044,550.290278,255.254473,542.923924,376.462363" />
<polygon fill="#3db973" fill-opacity="0.501961" points="605.534487,367.725512,546.398294,366.343641,538.912831,355.358469,607.565683,357.025621" />
<polygon fill="#b8759f" fill-opacity="0.501961" points="237.804739,458.151109,239.038539,515.930418,131.534096,423.689530,99.324389,278.071291" />
<polygon fill="#a1668b" fill-opacity="0.501961" points="315.515085,598.540379,346.817483,569.354986,262.780517,530.169043,286.183633,559.908462" />
<polygon fill="#010509" fill-opacity="0.501961" points="1199.447417,52.298299,1052.471947,43.319217,1030.684232,-16.000000,1215.000000,-12.254797" />
<polygon fill="#0f111d" fill-opacity="0.501961" points="1215.000000,156.778265,1063.037683,-10.434727,1021.875025,92.942723,976.402098,167.021901" />
<polygon fill="#202038" fill-opacity="0.501961" points="714.744960,383.211351,560.618288,365.702758,324.416782,413.166929,622.030004,556.243974" />
<polygon fill="#12121f" fill-opacity="0.501961" points="235.648271,147.864905,232.616399,62.443312,229.264058,60.254298,411.725259,59.299204" />
<polygon fill="#996788" fill-opacity="0.501961" points="688.641639,-16.000000,768.113365,59.187615,662.370053,59.596486,662.238738,1.760703" />
<polygon fill="#943965" fill-opacity="0.501961" points="708.842720,601.861048,898.371917,544.640007,999.951859,602.418703,834.677228,603.563196" />
<polygon fill="#418e67" fill-opacity="0.501961" points="693.912127,603.226112,788.198353,603.321241,730.559296,609.444662,676.027291,610.958228" />
<polygon fill="#b94e85" fill-opacity="0.501961" points="716.192663,583.959507,717.066210,496.692517,973.220804,476.534314,993.928211,498.635092" />
<polygon fill="#7f516d" fill-opacity="0.501961" points="238.504163,559.330833,223.568467,548.801438,117.007357,510.495170,238.290752,623.500236" />
<polygon fill="#fd67b1" fill-opacity="0.501961" points="818.594477,303.744420,779.983948,390.780245,716.581228,399.370951,717.574914,307.090769" />
<polygon fill="#bd4883" fill-opacity="0.501961" points="919.655139,188.369295,765.849656,62.561110,989.588695,126.382249,972.855330,154.609418" />
<polygon fill="#1d2038" fill-opacity="0.501961" points="854.400641,341.493397,939.107822,423.485018,908.068471,304.506176,814.445729,303.298994" />
<polygon fill="#a39aa3" fill-opacity="0.501961" points="774.914022,212.828972,766.461439,218.286891,647.559411,279.113539,778.450098,206.403311" />
<polygon fill="#d686b7" fill-opacity="0.501961" points="1005.136169,304.429324,1002.883515,299.475112,865.824309,159.390016,898.029267,303.969460" />
</g>
</svg>