<svg xmlns="http://www.w3.org/2000/svg" version="1.1" width="1200" height="630">
<rect x="0" y="0" width="1200" height="630" fill="#342338" />
<g transform="scale(1.000000) translate(0.5 0.5)">
<g transform="translate(767 308) rotate(173) scale(220 127)"><rect fill="#ff8ee8" fill-opacity="0.501961" x="-0.5" y="-0.5" width="1" height="1" /></g>
<g transform="translate(602 84) rotate(91) scale(133 182)"><rect fill="#ff2aa5" fill-opacity="0.501961" x="-0.5" y="-0.5" width="1" height="1" /></g>
<g transform="translate(301 246) rotate(288) scale(106 95)"><rect fill="#ff7dce" fill-opacity="0.501961" x="-0.5" y="-0.5" width="1" height="1" /></g>
<g transform="translate(72 467) rotate(270) scale(163 160)"><rect fill="#dc0035" fill-opacity="0.501961" x="-0.5" y="-0.5" width="1" height="1" /></g>
<g transform="translate(718 425) rotate(268) scale(106 114)"><rect fill="#4fffa5" fill-opacity="0.501961" x="-0.5" y="-0.5" width="1" height="1" /></g>
<g transform="translate(899 483) rotate(332) scale(86 83)"><rect fill="#9ffec2" fill-opacity="0.501961" x="-0.5" y="-0.5" width="1" height="1" /></g>
<g transform="translate(723 304) rotate(211) scale(111 129)"><rect fill="#ff189e" fill-opacity="0.501961" x="-0.5" y="-0.5" width="1" height="1" /></g>
<g transform="translate(846 294) rotate(209) scale(77 74)"><rect fill="#ffffff" fill-opacity="0.501961" x="-0.5" y="-0.5" width="1" height="1" /></g>
<g transform="translate(426 19) rotate(41) scale(112 109)"><rect fill="#e5003d" fill-opacity="0.501961" x="-0.5" y="-0.5" width="1" height="1" /></g>
<g transform="translate(518 258) rotate(250) scale(11 288)"><rect fill="#c1fff4" fill-opacity="0.501961" x="-0.5" y="-0.5" width="1" height="1" /></g>
<g transform="translate(112 279) rotate(278) scale(206 41)"><rect fill="#b8507d" fill-opacity="0.501961" x="-0.5" y="-0.5" width="1" height="1" /></g>
<g transform="translate(975 587) rotate(273) scale(114 501)"><rect fill="#00090c" fill-opacity="0.501961" x="-0.5" y="-0.5" width="1" height="1" /></g>
<g transform="translate(333 324) rotate(250) scale(9 242)"><rect fill="#b2ffdc" fill-opacity="0.501961" x="-0.5" y="-0.5" width="1" height="1" /></g>
<g transform="translate(1072 173) rotate(52) scale(714 439)"><rect fill="#000f16" fill-opacity="0.501961" x="-0.5" y="-0.5" width="1" height="1" /></g>
<g transform="translate(196 508) rotate(358) scale(86 53)"><rect fill="#75d095" fill-opacity="0.501961" x="-0.5" y="-0.5" width="1" height="1" /></g>
<g transform="translate(58 126) rotate(464) scale(277 138)"><rect fill="#000000" fill-opacity="0.501961" x="-0.5" y="-0.5" width="1" height="1" /></g>
<g transform="translate(216 337) rotate(136) scale(162 24)"><rect fill="#73d29f" fill-opacity="0.501961" x="-0.5" y="-0.5" width="1" height="1" /></g>
<g transform="translate(281 607) rotate(264) scale(111 596)"><rect fill="#00050a" fill-opacity="0.501961" x="-0.5" y="-0.5" width="1" height="1" /></g>
<g transform="translate(721 185) rotate(251) scale(10 246)"><rect fill="#afffd7" fill-opacity="0.501961" x="-0.5" y="-0.5" width="1" height="1" /></g>
<g transform="translate(832 454) rotate(384) scale(64 24)"><rect fill="#ff6ecc" fill-opacity="0.501961" x="-0.5" y="-0.5" width="1" height="1" /></g>
<g transform="translate(620 33) rotate(182) scale(145 231)"><rect fill="#e22374" fill-opacity="0.501961" x="-0.5" y="-0.5" width="1" height="1" /></g>
<g transform="translate(432 493) rotate(192) scale(231 9)"><rect fill="#ff76d1" fill-opacity="0.501961" x="-0.5" y="-0.5" width="1" height="1" /></g>
<g transform="translate(644 540) rotate(283) scale(9 436)"><rect fill="#ff62af" fill-opacity="0.501961" x="-0.5" y="-0.5" width="1" height="1" /></g>
<g transform="translate(260 157) rotate(153) scale(13 159)"><rect fill="#ffd0e1" fill-opacity="0.501961" x="-0.5" y="-0.5" width="1" height="1" /></g>
<g transform="translate(798 248) rotate(288) scale(40 55)"><rect fill="#000000" fill-opacity="0.501961" x="-0.5" y="-0.5" width="1" height="1" /></g>
<g transform="translate(228 215) rotate(194) scale(238 20)"><rect fill="#ff1874" fill-opacity="0.501961" x="-0.5" y="-0.5" width="1" height="1" /></g>
<g transform="translate(814 378) rotate(64) scale(54 107)"><rect fill="#055238" fill-opacity="0.501961" x="-0.5" y="-0.5" width="1" height="1" /></g>
<g transform="translate(916 116) rotate(160) scale(217 10)"><rect fill="#98e1b0" fill-opacity="0.501961" x="-0.5" y="-0.5" width="1" height="1" /></g>
<g transform="translate(298 63) rotate(-27) scale(137 182)"><rect fill="#000912" fill-opacity="0.501961" x="-0.5" y="-0.5" width="1" height="1" /></g>
<g transform="translate(892 281) rotate(88) scale(19 39)"><rect fill="#ffe7ff" fill-opacity="0.501961" x="-0.5" y="-0.5" width="1" height="1" /></g>
<g transform="translate(330 259) rotate(302) scale(19 89)"><rect fill="#ff6fc1" fill-opacity="0.501961" x="-0.5" y="-0.5" width="1" height="1" /></g>
<g transform="translate(519 22) rotate(205) scale(44 62)"><rect fill="#005616" fill-opacity="0.501961" x="-0.5" y="-0.5" width="1" height="1" /></g>
<g transform="translate(819 331) rotate(143) scale(68 19)"><rect fill="#fffbf5" fill-opacity="0.501961" x="-0.5" y="-0.5" width="1" height="1" /></g>
<g transform="translate(253 453) rotate(373) scale(175 8)"><rect fill="#ff6cc1" fill-opacity="0.501961" x="-0.5" y="-0.5" width="1" height="1" /></g>
<g transform="translate(698 271) rotate(240) scale(52 86)"><rect fill="#ff2998" fill-opacity="0.501961" x="-0.5" y="-0.5" width="1" height="1" /></g>
<g transform="translate(88 338) rotate(102) scale(101 13)"><rect fill="#dacdd0" fill-opacity="0.501961" x="-0.5" y="-0.5" width="1" height="1" /></g>
<g transform="translate(333 296) rotate(197) scale(35 37)"><rect fill="#000a14" fill-opacity="0.501961" x="-0.5" y="-0.5" width="1" height="1" /></g>
<g transform="translate(163 558) rotate(44) scale(28 100)"><rect fill="#679270" fill-opacity="0.501961" x="-0.5" y="-0.5" width="1" height="1" /></g>
<g transform="translate(40 521) rotate(180) scale(223 97)"><rect fill="#710026" fill-opacity="0.501961" x="-0.5" y="-0.5" width="1" height="1" /></g>
<g transform="translate(748 372) rotate(332) scale(109 17)"><rect fill="#1fc46b" fill-opacity="0.501961" x="-0.5" y="-0.5" width="1" height="1" /></g>
<g transform="translate(106 341) rotate(9) scale(17 90)"><rect fill="#000006" fill-opacity="0.501961" x="-0.5" y="-0.5" width="1" height="1" /></g>
<g transform="translate(302 245) rotate(116) scale(78 61)"><rect fill="#ff60a7" fill-opacity="0.501961" x="-0.5" y="-0.5" width="1" height="1" /></g>
<g transform="translate(798 283) rotate(90) scale(23 29)"><rect fill="#ffffff" fill-opacity="0.501961" x="-0.5" y="-0.5" width="1" height="1" /></g>
<g transform="translate(13 314) rotate(372) scale(141 121)"><rect fill="#000711" fill-opacity="0.501961" x="-0.5" y="-0.5" width="1" height="1" /></g>
<g transform="translate(1055 515) rotate(101) scale(13 231)"><rect fill="#52ae75" fill-opacity="0.501961" x="-0.5" y="-0.5" width="1" height="1" /></g>
<g transform="translate(913 413) rotate(302) scale(54 223)"><rect fill="#08192a" fill-opacity="0.501961" x="-0.5" y="-0.5" width="1" height="1" /></g>
<g transform="translate(258 532) rotate(46) scale(68 136)"><rect fill="#00141a" fill-opacity="0.501961" x="-0.5" y="-0.5" width="1" height="1" /></g>
<g transform="translate(794 325) rotate(195) scale(15 43)"><rect fill="#000600" fill-opacity="0.501961" x="-0.5" y="-0.5" width="1" height="1" /></g>
<g transform="translate(122 203) rotate(219) scale(41 61)"><rect fill="#c10043" fill-opacity="0.501961" x="-0.5" y="-0.5" width="1" height="1" /></g>
<g transform="translate(220 350) rotate(316) scale(194 19)"><rect fill="#133534" fill-opacity="0.501961" x="-0.5" y="-0.5" width="1" height="1" /></g>
<g transform="translate(107 257) rotate(284) scale(65 13)"><rect fill="#cecacd" fill-opacity="0.501961" x="-0.5" y="-0.5" width="1" height="1" /></g>
<g transform="translate(651 596) rotate(97) scale(85 146)"><rect fill="#000915" fill-opacity="0.501961" x="-0.5" y="-0.5" width="1" height="1" /></g>
<g transform="translate(660 478) rotate(44) scale(163 45)"><rect fill="#07122c" fill-opacity="0.501961" x="-0.5" y="-0.5" width="1" height="1" /></g>
<g transform="translate(1144 54) rotate(131) scale(168 348)"><rect fill="#020307" fill-opacity="0.501961" x="-0.5" y="-0.5" width="1" height="1" /></g>
<g transform="translate(178 133) rotate(377) scale(62 113)"><rect fill="#000712" fill-opacity="0.501961" x="-0.5" y="-0.5" width="1" height="1" /></g>
<g transform="translate(156 271) rotate(359) scale(58 101)"><rect fill="#000d1d" fill-opacity="0.501961" x="-0.5" y="-0.5" width="1" height="1" /></g>
<g transform="translate(553 119) rotate(90) scale(62 89)"><rect fill="#f02d89" fill-opacity="0.501961" x="-0.5" y="-0.5" width="1" height="1" /></g>
<g transform="translate(839 241) rotate(260) scale(39 15)"><rect fill="#ffe4f1" fill-opacity="0.501961" x="-0.5" y="-0.5" width="1" height="1" /></g>
<g transform="translate(664 366) rotate(33) scale(25 35)"><rect fill="#000b16" fill-opacity="0.501961" x="-0.5" y="-0.5" width="1" height="1" /></g>
<g transform="translate(740 317) rotate(165) scale(83 76)"><rect fill="#ff2992" fill-opacity="0.501961" x="-0.5" y="-0.5" width="1" height="1" /></g>
<g transform="translate(775 420) rotate(70) scale(64 65)"><rect fill="#246c45" fill-opacity="0.501961" x="-0.5" y="-0.5" width="1" height="1" /></g>
<g transform="translate(144 108) rotate(198) scale(11 142)"><rect fill="#ca0033" fill-opacity="0.501961" x="-0.5" y="-0.5" width="1" height="1" /></g>
<g transform="translate(860 249) rotate(166) scale(17 48)"><rect fill="#00000f" fill-opacity="0.501961" x="-0.5" y="-0.5" width="1" height="1" /></g>
<g transform="translate(208 56) rotate(64) scale(72 11)"><rect fill="#ba9199" fill-opacity="0.501961" x="-0.5" y="-0.5" width="1" height="1" /></g>
<g transform="translate(437 109) rotate(174) scale(132 74)"><rect fill="#011f28" fill-opacity="0.501961" x="-0.5" y="-0.5" width="1" height="1" /></g>
<g transform="translate(898 308) rotate(54) scale(31 50)"><rect fill="#0b3733" fill-opacity="0.501961" x="-0.5" y="-0.5" width="1" height="1" /></g>
<g transform="translate(122 320) rotate(89) scale(193 10)"><rect fill="#e94793" fill-opacity="0.501961" x="-0.5" y="-0.5" width="1" height="1" /></g>
<g transform="translate(246 251) rotate(42) scale(25 38)"><rect fill="#000614" fill-opacity="0.501961" x="-0.5" y="-0.5" width="1" height="1" /></g>
<g transform="translate(882 594) rotate(195) scale(55 10)"><rect fill="#dd4f8e" fill-opacity="0.501961" x="-0.5" y="-0.5" width="1" height="1" /></g>
<g transform="translate(113 440) rotate(90) scale(108 79)"><rect fill="#b40049" fill-opacity="0.501961" x="-0.5" y="-0.5" width="1" height="1" /></g>
<g transform="translate(303 307) rotate(79) scale(36 13)"><rect fill="#ff6cc4" fill-opacity="0.501961" x="-0.5" y="-0.5" width="1" height="1" /></g>
<g transform="translate(304 185) rotate(254) scale(32 15)"><rect fill="#ff63b3" fill-opacity="0.501961" x="-0.5" y="-0.5" width="1" height="1" /></g>
<g transform="translate(40 52) rotate(129) scale(188 175)"><rect fill="#00060d" fill-opacity="0.501961" x="-0.5" y="-0.5" width="1" height="1" /></g>
<g transform="translate(1045 70) rotate(250) scale(10 81)"><rect fill="#649473" fill-opacity="0.501961" x="-0.5" y="-0.5" width="1" height="1" /></g>
<g transform="translate(336 201) rotate(79) scale(20 35)"><rect fill="#002717" fill-opacity="0.501961" x="-0.5" y="-0.5" width="1" height="1" /></g>
<g transform="translate(869 392) rotate(71) scale(117 7)"><rect fill="#54c083" fill-opacity="0.501961" x="-0.5" y="-0.5" width="1" height="1" /></g>
<g transform="translate(540 483) rotate(192) scale(233 57)"><rect fill="#0a1e30" fill-opacity="0.501961" x="-0.5" y="-0.5" width="1" height="1" /></g>
<g transform="translate(480 361) rotate(74) scale(138 355)"><rect fill="#0e1e38" fill-opacity="0.501961" x="-0.5" y="-0.5" width="1" height="1" /></g>
<g transform="translate(693 398) rotate(120) scale(59 57)"><rect fill="#51c78d" fill-opacity="0.501961" x="-0.5" y="-0.5" width="1" height="1" /></g>
<g transform="translate(181 11) rotate(65) scale(43 64)"><rect fill="#7f0015" fill-opacity="0.501961" x="-0.5" y="-0.5" width="1" height="1" /></g>
<g transform="translate(387 238) rotate(44) scale(61 80)"><rect fill="#071a31" fill-opacity="0.501961" x="-0.5" y="-0.5" width="1" height="1" /></g>
<g transform="translate(187 376) rotate(251) scale(9 85)"><rect fill="#86c49b" fill-opacity="0.501961" x="-0.5" y="-0.5" width="1" height="1" /></g>
<g transform="translate(56 610) rotate(3) scale(130 85)"><rect fill="#000000" fill-opacity="0.501961" x="-0.5" y="-0.5" width="1" height="1" /></g>
<g transform="translate(1190 431) rotate(252) scale(13 31)"><rect fill="#c297a3" fill-opacity="0.501961" x="-0.5" y="-0.5" width="1" height="1" /></g>
<g transform="translate(866 332) rotate(153) scale(11 67)"><rect fill="#ffdce4" fill-opacity="0.501961" x="-0.5" y="-0.5" width="1" height="1" /></g>
<g transform="translate(692 323) rotate(117) scale(66 57)"><rect fill="#ff3097" fill-opacity="0.501961" x="-0.5" y="-0.5" width="1" height="1" /></g>
<g transform="translate(783 504) rotate(413) scale(80 83)"><rect fill="#09152b" fill-opacity="0.501961" x="-0.5" y="-0.5" width="1" height="1" /></g>
<g transform="translate(580 411) rotate(342) scale(254 11)"><rect fill="#24925b" fill-opacity="0.501961" x="-0.5" y="-0.5" width="1" height="1" /></g>
<g transform="translate(978 541) rotate(217) scale(142 8)"><rect fill="#3ca16a" fill-opacity="0.501961" x="-0.5" y="-0.5" width="1" height="1" /></g>
<g transform="translate(828 302) rotate(346) scale(53 64)"><rect fill="#ffc7dd" fill-opacity="0.501961" x="-0.5" y="-0.5" width="1" height="1" /></g>
<g transform="translate(727 429) rotate(89) scale(108 35)"><rect fill="#54ba88" fill-opacity="0.501961" x="-0.5" y="-0.5" width="1" height="1" /></g>
<g transform="translate(970 289) rotate(72) scale(10 207)"><rect fill="#2c7f51" fill-opacity="0.501961" x="-0.5" y="-0.5" width="1" height="1" /></g>
<g transform="translate(187 245) rotate(380) scale(82 64)"><rect fill="#081426" fill-opacity="0.501961" x="-0.5" y="-0.5" width="1" height="1" /></g>
<g transform="translate(615 33) rotate(95) scale(59 140)"><rect fill="#921c57" fill-opacity="0.501961" x="-0.5" y="-0.5" width="1" height="1" /></g>
<g transform="translate(420 160) rotate(304) scale(116 215)"><rect fill="#111d31" fill-opacity="0.501961" x="-0.5" y="-0.5" width="1" height="1" /></g>
<g transform="translate(784 253) rotate(297) scale(16 62)"><rect fill="#001429" fill-opacity="0.501961" x="-0.5" y="-0.5" width="1" height="1" /></g>
<g transform="translate(378 526) rotate(5) scale(179 57)"><rect fill="#091727" fill-opacity="0.501961" x="-0.5" y="-0.5" width="1" height="1" /></g>
<g transform="translate(227 319) rotate(136) scale(114 11)"><rect fill="#9bd8b1" fill-opacity="0.501961" x="-0.5" y="-0.5" width="1" height="1" /></g>
<g transform="translate(711 215) rotate(68) scale(33 187)"><rect fill="#0b1e36" fill-opacity="0.501961" x="-0.5" y="-0.5" width="1" height="1" /></g>
<g transform="translate(359 215) rotate(235) scale(9 34)"><rect fill="#ff66ba" fill-opacity="0.501961" x="-0.5" y="-0.5" width="1" height="1" /></g>
</g>
</svg>