<svg xmlns="http://www.w3.org/2000/svg" version="1.1" width="1200" height="630">
<rect x="0" y="0" width="1200" height="630" fill="#343b45" />
<g transform="scale(1.000000) translate(0.5 0.5)">
<g transform="translate(611 139) rotate(322) scale(198 134)"><rect fill="#ffeec2" fill-opacity="0.501961" x="-0.5" y="-0.5" width="1" height="1" /></g>
<g transform="translate(374 564) rotate(301) scale(161 190)"><rect fill="#ffdcae" fill-opacity="0.501961" x="-0.5" y="-0.5" width="1" height="1" /></g>
<g transform="translate(194 249) rotate(271) scale(231 456)"><rect fill="#7ca3ba" fill-opacity="0.501961" x="-0.5" y="-0.5" width="1" height="1" /></g>
<g transform="translate(1007 510) rotate(450) scale(128 155)"><rect fill="#cba065" fill-opacity="0.501961" x="-0.5" y="-0.5" width="1" height="1" /></g>
<g transform="translate(1007 337) rotate(178) scale(556 214)"><rect fill="#000921" fill-opacity="0.501961" x="-0.5" y="-0.5" width="1" height="1" /></g>
<g transform="translate(244 60) rotate(181) scale(595 111)"><rect fill="#000000" fill-opacity="0.501961" x="-0.5" y="-0.5" width="1" height="1" /></g>
<g transform="translate(75 247) rotate(76) scale(194 182)"><rect fill="#be864a" fill-opacity="0.501961" x="-0.5" y="-0.5" width="1" height="1" /></g>
<g transform="translate(62 503) rotate(190) scale(183 267)"><rect fill="#000003" fill-opacity="0.501961" x="-0.5" y="-0.5" width="1" height="1" /></g>
<g transform="translate(1163 535) rotate(271) scale(209 102)"><rect fill="#000000" fill-opacity="0.501961" x="-0.5" y="-0.5" width="1" height="1" /></g>
<g transform="translate(914 87) rotate(270) scale(206 257)"><rect fill="#000008" fill-opacity="0.501961" x="-0.5" y="-0.5" width="1" height="1" /></g>
<g transform="translate(557 323) rotate(11) scale(9 219)"><rect fill="#ffffff" fill-opacity="0.501961" x="-0.5" y="-0.5" width="1" height="1" /></g>
<g transform="translate(664 42) rotate(105) scale(103 160)"><rect fill="#286290" fill-opacity="0.501961" x="-0.5" y="-0.5" width="1" height="1" /></g>
<g transform="translate(1104 150) rotate(361) scale(126 121)"><rect fill="#ae8753" fill-opacity="0.501961" x="-0.5" y="-0.5" width="1" height="1" /></g>
<g transform="translate(336 459) rotate(60) scale(34 237)"><rect fill="#000017" fill-opacity="0.501961" x="-0.5" y="-0.5" width="1" height="1" /></g>
<g transform="translate(711 211) rotate(87) scale(9 176)"><rect fill="#ffffb6" fill-opacity="0.501961" x="-0.5" y="-0.5" width="1" height="1" /></g>
<g transform="translate(639 512) rotate(28) scale(204 328)"><rect fill="#00051d" fill-opacity="0.501961" x="-0.5" y="-0.5" width="1" height="1" /></g>
<g transform="translate(236 430) rotate(-92) scale(118 201)"><rect fill="#00061d" fill-opacity="0.501961" x="-0.5" y="-0.5" width="1" height="1" /></g>
<g transform="translate(644 300) rotate(360) scale(158 10)"><rect fill="#d7ffff" fill-opacity="0.501961" x="-0.5" y="-0.5" width="1" height="1" /></g>
<g transform="translate(286 543) rotate(63) scale(62 106)"><rect fill="#baa48c" fill-opacity="0.501961" x="-0.5" y="-0.5" width="1" height="1" /></g>
<g transform="translate(141 359) rotate(50) scale(42 97)"><rect fill="#000010" fill-opacity="0.501961" x="-0.5" y="-0.5" width="1" height="1" /></g>
<g transform="translate(517 300) rotate(180) scale(192 10)"><rect fill="#c0ffff" fill-opacity="0.501961" x="-0.5" y="-0.5" width="1" height="1" /></g>
<g transform="translate(839 493) rotate(283) scale(13 133)"><rect fill="#91cdf6" fill-opacity="0.501961" x="-0.5" y="-0.5" width="1" height="1" /></g>
<g transform="translate(137 125) rotate(42) scale(122 39)"><rect fill="#00000b" fill-opacity="0.501961" x="-0.5" y="-0.5" width="1" height="1" /></g>
<g transform="translate(901 202) rotate(358) scale(200 12)"><rect fill="#f9ca8d" fill-opacity="0.501961" x="-0.5" y="-0.5" width="1" height="1" /></g>
<g transform="translate(605 148) rotate(265) scale(81 152)"><rect fill="#eec497" fill-opacity="0.501961" x="-0.5" y="-0.5" width="1" height="1" /></g>
<g transform="translate(1120 0) rotate(276) scale(59 167)"><rect fill="#000000" fill-opacity="0.501961" x="-0.5" y="-0.5" width="1" height="1" /></g>
<g transform="translate(298 242) rotate(90) scale(252 248)"><rect fill="#1f6cae" fill-opacity="0.501961" x="-0.5" y="-0.5" width="1" height="1" /></g>
<g transform="translate(785 624) rotate(0) scale(142 41)"><rect fill="#bd9969" fill-opacity="0.501961" x="-0.5" y="-0.5" width="1" height="1" /></g>
<g transform="translate(488 222) rotate(358) scale(145 11)"><rect fill="#fff3af" fill-opacity="0.501961" x="-0.5" y="-0.5" width="1" height="1" /></g>
<g transform="translate(767 74) rotate(377) scale(57 258)"><rect fill="#00051a" fill-opacity="0.501961" x="-0.5" y="-0.5" width="1" height="1" /></g>
<g transform="translate(710 102) rotate(381) scale(39 70)"><rect fill="#ebbc87" fill-opacity="0.501961" x="-0.5" y="-0.5" width="1" height="1" /></g>
<g transform="translate(1183 241) rotate(301) scale(57 77)"><rect fill="#5885a0" fill-opacity="0.501961" x="-0.5" y="-0.5" width="1" height="1" /></g>
<g transform="translate(503 475) rotate(173) scale(64 333)"><rect fill="#020d24" fill-opacity="0.501961" x="-0.5" y="-0.5" width="1" height="1" /></g>
<g transform="translate(466 601) rotate(90) scale(147 32)"><rect fill="#d0b293" fill-opacity="0.501961" x="-0.5" y="-0.5" width="1" height="1" /></g>
<g transform="translate(546 201) rotate(292) scale(17 48)"><rect fill="#000002" fill-opacity="0.501961" x="-0.5" y="-0.5" width="1" height="1" /></g>
<g transform="translate(162 550) rotate(70) scale(82 155)"><rect fill="#235277" fill-opacity="0.501961" x="-0.5" y="-0.5" width="1" height="1" /></g>
<g transform="translate(396 523) rotate(115) scale(63 126)"><rect fill="#dabea3" fill-opacity="0.501961" x="-0.5" y="-0.5" width="1" height="1" /></g>
<g transform="translate(996 584) rotate(235) scale(81 284)"><rect fill="#6e5739" fill-opacity="0.501961" x="-0.5" y="-0.5" width="1" height="1" /></g>
<g transform="translate(720 267) rotate(270) scale(64 10)"><rect fill="#cfffff" fill-opacity="0.501961" x="-0.5" y="-0.5" width="1" height="1" /></g>
<g transform="translate(839 552) rotate(115) scale(65 151)"><rect fill="#000b1f" fill-opacity="0.501961" x="-0.5" y="-0.5" width="1" height="1" /></g>
<g transform="translate(311 613) rotate(123) scale(87 135)"><rect fill="#806d5b" fill-opacity="0.501961" x="-0.5" y="-0.5" width="1" height="1" /></g>
<g transform="translate(601 257) rotate(83) scale(69 36)"><rect fill="#000326" fill-opacity="0.501961" x="-0.5" y="-0.5" width="1" height="1" /></g>
<g transform="translate(1144 115) rotate(224) scale(210 88)"><rect fill="#6a5333" fill-opacity="0.501961" x="-0.5" y="-0.5" width="1" height="1" /></g>
<g transform="translate(753 535) rotate(118) scale(113 11)"><rect fill="#6cacdb" fill-opacity="0.501961" x="-0.5" y="-0.5" width="1" height="1" /></g>
<g transform="translate(131 270) rotate(297) scale(145 71)"><rect fill="#b99e7e" fill-opacity="0.501961" x="-0.5" y="-0.5" width="1" height="1" /></g>
<g transform="translate(626 204) rotate(173) scale(80 8)"><rect fill="#00000b" fill-opacity="0.501961" x="-0.5" y="-0.5" width="1" height="1" /></g>
<g transform="translate(406 445) rotate(298) scale(75 188)"><rect fill="#06122a" fill-opacity="0.501961" x="-0.5" y="-0.5" width="1" height="1" /></g>
<g transform="translate(457 154) rotate(268) scale(123 74)"><rect fill="#020e28" fill-opacity="0.501961" x="-0.5" y="-0.5" width="1" height="1" /></g>
<g transform="translate(56 40) rotate(244) scale(123 249)"><rect fill="#000002" fill-opacity="0.501961" x="-0.5" y="-0.5" width="1" height="1" /></g>
<g transform="translate(651 53) rotate(120) scale(74 86)"><rect fill="#144978" fill-opacity="0.501961" x="-0.5" y="-0.5" width="1" height="1" /></g>
<g transform="translate(37 169) rotate(176) scale(119 91)"><rect fill="#745b3f" fill-opacity="0.501961" x="-0.5" y="-0.5" width="1" height="1" /></g>
<g transform="translate(901 284) rotate(223) scale(97 4)"><rect fill="#dec5ab" fill-opacity="0.501961" x="-0.5" y="-0.5" width="1" height="1" /></g>
<g transform="translate(1171 584) rotate(264) scale(185 103)"><rect fill="#000004" fill-opacity="0.501961" x="-0.5" y="-0.5" width="1" height="1" /></g>
<g transform="translate(1038 221) rotate(182) scale(211 29)"><rect fill="#000416" fill-opacity="0.501961" x="-0.5" y="-0.5" width="1" height="1" /></g>
<g transform="translate(875 471) rotate(193) scale(100 46)"><rect fill="#00071e" fill-opacity="0.501961" x="-0.5" y="-0.5" width="1" height="1" /></g>
<g transform="translate(493 259) rotate(178) scale(135 62)"><rect fill="#02102e" fill-opacity="0.501961" x="-0.5" y="-0.5" width="1" height="1" /></g>
<g transform="translate(37 542) rotate(100) scale(247 115)"><rect fill="#00030d" fill-opacity="0.501961" x="-0.5" y="-0.5" width="1" height="1" /></g>
<g transform="translate(557 43) rotate(350) scale(36 77)"><rect fill="#00000d" fill-opacity="0.501961" x="-0.5" y="-0.5" width="1" height="1" /></g>
<g transform="translate(1098 474) rotate(270) scale(59 27)"><rect fill="#af8b5b" fill-opacity="0.501961" x="-0.5" y="-0.5" width="1" height="1" /></g>
<g transform="translate(511 156) rotate(397) scale(33 26)"><rect fill="#f9cc9c" fill-opacity="0.501961" x="-0.5" y="-0.5" width="1" height="1" /></g>
<g transform="translate(959 349) rotate(234) scale(80 4)"><rect fill="#bdad9a" fill-opacity="0.501961" x="-0.5" y="-0.5" width="1" height="1" /></g>
<g transform="translate(77 351) rotate(169) scale(78 23)"><rect fill="#bc905f" fill-opacity="0.501961" x="-0.5" y="-0.5" width="1" height="1" /></g>
<g transform="translate(498 1) rotate(89) scale(12 93)"><rect fill="#d0ad85" fill-opacity="0.501961" x="-0.5" y="-0.5" width="1" height="1" /></g>
<g transform="translate(919 604) rotate(89) scale(76 21)"><rect fill="#00000c" fill-opacity="0.501961" x="-0.5" y="-0.5" width="1" height="1" /></g>
<g transform="translate(863 571) rotate(347) scale(152 8)"><rect fill="#7ba0b5" fill-opacity="0.501961" x="-0.5" y="-0.5" width="1" height="1" /></g>
<g transform="translate(543 388) rotate(14) scale(7 73)"><rect fill="#ffffc8" fill-opacity="0.501961" x="-0.5" y="-0.5" width="1" height="1" /></g>
<g transform="translate(304 518) rotate(59) scale(33 123)"><rect fill="#c2aa90" fill-opacity="0.501961" x="-0.5" y="-0.5" width="1" height="1" /></g>
<g transform="translate(1020 196) rotate(268) scale(11 127)"><rect fill="#b3956d" fill-opacity="0.501961" x="-0.5" y="-0.5" width="1" height="1" /></g>
<g transform="translate(620 330) rotate(127) scale(85 5)"><rect fill="#d1c3b8" fill-opacity="0.501961" x="-0.5" y="-0.5" width="1" height="1" /></g>
<g transform="translate(554 334) rotate(193) scale(8 108)"><rect fill="#fff0c1" fill-opacity="0.501961" x="-0.5" y="-0.5" width="1" height="1" /></g>
<g transform="translate(361 625) rotate(361) scale(235 82)"><rect fill="#837362" fill-opacity="0.501961" x="-0.5" y="-0.5" width="1" height="1" /></g>
<g transform="translate(734 392) rotate(191) scale(206 139)"><rect fill="#17253c" fill-opacity="0.501961" x="-0.5" y="-0.5" width="1" height="1" /></g>
<g transform="translate(861 518) rotate(386) scale(144 10)"><rect fill="#3078b0" fill-opacity="0.501961" x="-0.5" y="-0.5" width="1" height="1" /></g>
<g transform="translate(881 613) rotate(88) scale(16 71)"><rect fill="#99805f" fill-opacity="0.501961" x="-0.5" y="-0.5" width="1" height="1" /></g>
<g transform="translate(643 244) rotate(265) scale(40 131)"><rect fill="#0c1a35" fill-opacity="0.501961" x="-0.5" y="-0.5" width="1" height="1" /></g>
<g transform="translate(202 186) rotate(265) scale(137 56)"><rect fill="#2a5171" fill-opacity="0.501961" x="-0.5" y="-0.5" width="1" height="1" /></g>
<g transform="translate(1126 0) rotate(181) scale(150 47)"><rect fill="#000000" fill-opacity="0.501961" x="-0.5" y="-0.5" width="1" height="1" /></g>
<g transform="translate(366 2) rotate(270) scale(12 172)"><rect fill="#ad8f6e" fill-opacity="0.501961" x="-0.5" y="-0.5" width="1" height="1" /></g>
<g transform="translate(1068 592) rotate(1) scale(89 72)"><rect fill="#574124" fill-opacity="0.501961" x="-0.5" y="-0.5" width="1" height="1" /></g>
<g transform="translate(444 369) rotate(-2) scale(43 123)"><rect fill="#081631" fill-opacity="0.501961" x="-0.5" y="-0.5" width="1" height="1" /></g>
<g transform="translate(154 333) rotate(303) scale(75 15)"><rect fill="#000723" fill-opacity="0.501961" x="-0.5" y="-0.5" width="1" height="1" /></g>
<g transform="translate(843 242) rotate(116) scale(4 51)"><rect fill="#f7dabc" fill-opacity="0.501961" x="-0.5" y="-0.5" width="1" height="1" /></g>
<g transform="translate(658 289) rotate(315) scale(90 3)"><rect fill="#f9dec6" fill-opacity="0.501961" x="-0.5" y="-0.5" width="1" height="1" /></g>
<g transform="translate(862 590) rotate(83) scale(19 131)"><rect fill="#00040f" fill-opacity="0.501961" x="-0.5" y="-0.5" width="1" height="1" /></g>
<g transform="translate(968 466) rotate(181) scale(76 45)"><rect fill="#ad9473" fill-opacity="0.501961" x="-0.5" y="-0.5" width="1" height="1" /></g>
<g transform="translate(882 220) rotate(266) scale(23 103)"><rect fill="#000922" fill-opacity="0.501961" x="-0.5" y="-0.5" width="1" height="1" /></g>
<g transform="translate(372 306) rotate(359) scale(96 119)"><rect fill="#4683b6" fill-opacity="0.501961" x="-0.5" y="-0.5" width="1" height="1" /></g>
<g transform="translate(562 237) rotate(280) scale(26 14)"><rect fill="#000222" fill-opacity="0.501961" x="-0.5" y="-0.5" width="1" height="1" /></g>
<g transform="translate(611 186) rotate(81) scale(28 77)"><rect fill="#f0cba2" fill-opacity="0.501961" x="-0.5" y="-0.5" width="1" height="1" /></g>
<g transform="translate(182 614) rotate(118) scale(78 108)"><rect fill="#072b45" fill-opacity="0.501961" x="-0.5" y="-0.5" width="1" height="1" /></g>
<g transform="translate(729 239) rotate(157) scale(74 5)"><rect fill="#cdbaab" fill-opacity="0.501961" x="-0.5" y="-0.5" width="1" height="1" /></g>
<g transform="translate(568 266) rotate(282) scale(159 8)"><rect fill="#ffe4ba" fill-opacity="0.501961" x="-0.5" y="-0.5" width="1" height="1" /></g>
<g transform="translate(765 593) rotate(168) scale(115 7)"><rect fill="#6187a0" fill-opacity="0.501961" x="-0.5" y="-0.5" width="1" height="1" /></g>
<g transform="translate(573 402) rotate(299) scale(85 1)"><rect fill="#ffe7c9" fill-opacity="0.501961" x="-0.5" y="-0.5" width="1" height="1" /></g>
<g transform="translate(516 188) rotate(117) scale(15 99)"><rect fill="#01102f" fill-opacity="0.501961" x="-0.5" y="-0.5" width="1" height="1" /></g>
<g transform="translate(776 574) rotate(168) scale(88 26)"><rect fill="#00091b" fill-opacity="0.501961" x="-0.5" y="-0.5" width="1" height="1" /></g>
<g transform="translate(1148 365) rotate(303) scale(182 220)"><rect fill="#0a111c" fill-opacity="0.501961" x="-0.5" y="-0.5" width="1" height="1" /></g>
<g transform="translate(914 511) rotate(282) scale(13 33)"><rect fill="#83afcb" fill-opacity="0.501961" x="-0.5" y="-0.5" width="1" height="1" /></g>
<g transform="translate(216 496) rotate(287) scale(22 42)"><rect fill="#000003" fill-opacity="0.501961" x="-0.5" y="-0.5" width="1" height="1" /></g>
<g transform="translate(1161 56) rotate(273) scale(62 102)"><rect fill="#443218" fill-opacity="0.501961" x="-0.5" y="-0.5" width="1" height="1" /></g>
</g>
</svg>