<svg xmlns="http://www.w3.org/2000/svg" version="1.1" width="1200" height="630">
<rect x="0" y="0" width="1200" height="630" fill="#444459" />
<g transform="scale(1.000000) translate(0.5 0.5)">
<polygon fill="#ff8c84" fill-opacity="0.501961" points="1154,109 647,137 891,522" />
<polygon fill="#3c94cc" fill-opacity="0.501961" points="482,23 606,645 -16,263" />
<polygon fill="#000000" fill-opacity="0.501961" points="1198,645 1215,312 531,625" />
<polygon fill="#000116" fill-opacity="0.501961" points="1153,634 485,217 680,645" />
<polygon fill="#74b5d1" fill-opacity="0.501961" points="769,266 1006,111 733,27" />
<polygon fill="#160000" fill-opacity="0.501961" points="1215,1 1041,-14 1181,645" />
<polygon fill="#0f0e27" fill-opacity="0.501961" points="472,336 632,-16 808,553" />
<polygon fill="#811501" fill-opacity="0.501961" points="255,645 -16,621 123,252" />
<polygon fill="#000000" fill-opacity="0.501961" points="256,-16 -16,4 294,139" />
<polygon fill="#e7665f" fill-opacity="0.501961" points="694,395 1048,420 1057,141" />
<polygon fill="#a54d44" fill-opacity="0.501961" points="1135,262 1133,19 870,64" />
<polygon fill="#649dc7" fill-opacity="0.501961" points="601,645 611,441 281,206" />
<polygon fill="#27719b" fill-opacity="0.501961" points="239,585 166,376 626,645" />
<polygon fill="#ff847f" fill-opacity="0.501961" points="749,386 747,242 920,479" />
<polygon fill="#030716" fill-opacity="0.501961" points="577,209 846,-16 563,-7" />
<polygon fill="#030416" fill-opacity="0.501961" points="1059,645 1053,233 1215,253" />
<polygon fill="#0e0000" fill-opacity="0.501961" points="101,636 -16,627 5,334" />
<polygon fill="#6496b1" fill-opacity="0.501961" points="707,23 914,289 914,51" />
<polygon fill="#22618a" fill-opacity="0.501961" points="257,41 584,-16 510,256" />
<polygon fill="#964240" fill-opacity="0.501961" points="222,550 128,258 -16,479" />
<polygon fill="#d96a68" fill-opacity="0.501961" points="896,475 682,229 1055,381" />
<polygon fill="#67c1e8" fill-opacity="0.501961" points="822,169 754,109 654,161" />
<polygon fill="#255774" fill-opacity="0.501961" points="406,136 -16,63 8,377" />
<polygon fill="#000000" fill-opacity="0.501961" points="872,47 854,-16 1012,-5" />
<polygon fill="#0a0d1d" fill-opacity="0.501961" points="1215,289 839,511 1199,645" />
<polygon fill="#3d7caf" fill-opacity="0.501961" points="420,489 546,140 205,195" />
<polygon fill="#041621" fill-opacity="0.501961" points="-16,-14 -4,149 450,-16" />
<polygon fill="#000007" fill-opacity="0.501961" points="1215,-7 1114,-1 1183,373" />
<polygon fill="#1f2038" fill-opacity="0.501961" points="746,645 485,297 746,288" />
<polygon fill="#d03b34" fill-opacity="0.501961" points="694,176 750,303 779,163" />
<polygon fill="#4691ca" fill-opacity="0.501961" points="618,229 538,184 660,304" />
<polygon fill="#944e4d" fill-opacity="0.501961" points="1013,-16 1146,238 908,295" />
<polygon fill="#191c35" fill-opacity="0.501961" points="698,101 705,354 507,108" />
<polygon fill="#cd4743" fill-opacity="0.501961" points="839,198 942,318 746,302" />
<polygon fill="#438fb0" fill-opacity="0.501961" points="1026,162 922,109 887,165" />
<polygon fill="#6d98bb" fill-opacity="0.501961" points="607,461 391,575 474,343" />
<polygon fill="#000000" fill-opacity="0.501961" points="69,337 -16,448 -16,356" />
<polygon fill="#d53828" fill-opacity="0.501961" points="694,137 765,103 735,70" />
<polygon fill="#74bde5" fill-opacity="0.501961" points="782,160 755,297 843,181" />
<polygon fill="#1b1b2f" fill-opacity="0.501961" points="605,642 974,554 643,302" />
<polygon fill="#05080b" fill-opacity="0.501961" points="-4,632 -16,546 260,640" />
<polygon fill="#000003" fill-opacity="0.501961" points="819,-14 681,-7 806,51" />
<polygon fill="#4d6c83" fill-opacity="0.501961" points="620,506 361,558 599,645" />
<polygon fill="#133e59" fill-opacity="0.501961" points="249,634 212,505 469,645" />
<polygon fill="#5a2b26" fill-opacity="0.501961" points="934,14 1137,123 1133,-16" />
<polygon fill="#204967" fill-opacity="0.501961" points="620,-16 294,136 256,3" />
<polygon fill="#70b9dd" fill-opacity="0.501961" points="836,191 899,180 920,286" />
<polygon fill="#a5e1ff" fill-opacity="0.501961" points="654,161 707,162 696,141" />
<polygon fill="#fe5d53" fill-opacity="0.501961" points="701,265 742,285 702,201" />
<polygon fill="#23213a" fill-opacity="0.501961" points="535,184 471,347 816,456" />
<polygon fill="#07010d" fill-opacity="0.501961" points="57,-16 153,98 318,114" />
<polygon fill="#d7615c" fill-opacity="0.501961" points="1010,170 898,166 917,256" />
<polygon fill="#3b6283" fill-opacity="0.501961" points="47,161 -16,365 576,49" />
<polygon fill="#687f93" fill-opacity="0.501961" points="775,115 1023,157 685,-4" />
<polygon fill="#110e1f" fill-opacity="0.501961" points="616,-16 747,80 514,142" />
<polygon fill="#652926" fill-opacity="0.501961" points="72,326 -16,469 97,645" />
<polygon fill="#4c778a" fill-opacity="0.501961" points="910,104 987,1 803,86" />
<polygon fill="#fd8382" fill-opacity="0.501961" points="749,280 835,434 750,385" />
<polygon fill="#030205" fill-opacity="0.501961" points="1215,639 960,634 1202,484" />
<polygon fill="#c16765" fill-opacity="0.501961" points="896,472 1053,382 1050,197" />
<polygon fill="#000014" fill-opacity="0.501961" points="135,286 77,334 150,305" />
<polygon fill="#2c4e67" fill-opacity="0.501961" points="-16,139 100,38 221,188" />
<polygon fill="#509bd3" fill-opacity="0.501961" points="617,251 650,302 680,307" />
<polygon fill="#9b4444" fill-opacity="0.501961" points="38,372 142,309 211,512" />
<polygon fill="#18192a" fill-opacity="0.501961" points="793,604 1211,242 1184,442" />
<polygon fill="#5c7788" fill-opacity="0.501961" points="828,-16 801,63 933,118" />
<polygon fill="#904543" fill-opacity="0.501961" points="912,106 978,22 1138,181" />
<polygon fill="#699fca" fill-opacity="0.501961" points="489,350 616,543 576,412" />
<polygon fill="#080109" fill-opacity="0.501961" points="262,75 260,-16 -16,1" />
<polygon fill="#33668f" fill-opacity="0.501961" points="493,585 123,239 191,451" />
<polygon fill="#12111f" fill-opacity="0.501961" points="638,520 867,620 586,645" />
<polygon fill="#376891" fill-opacity="0.501961" points="161,358 544,103 330,67" />
<polygon fill="#1d1d32" fill-opacity="0.501961" points="649,598 974,484 573,386" />
<polygon fill="#1d1c33" fill-opacity="0.501961" points="706,166 648,278 539,165" />
<polygon fill="#000009" fill-opacity="0.501961" points="-16,536 23,638 5,421" />
<polygon fill="#19192b" fill-opacity="0.501961" points="692,-16 500,136 703,141" />
<polygon fill="#4782b3" fill-opacity="0.501961" points="471,350 546,142 356,256" />
<polygon fill="#7397b2" fill-opacity="0.501961" points="813,77 908,210 691,141" />
<polygon fill="#4c2322" fill-opacity="0.501961" points="-14,462 284,645 51,597" />
<polygon fill="#4899d3" fill-opacity="0.501961" points="520,165 582,224 559,186" />
<polygon fill="#d17273" fill-opacity="0.501961" points="902,471 762,391 1018,244" />
<polygon fill="#141424" fill-opacity="0.501961" points="1063,634 1215,216 1053,264" />
<polygon fill="#b04c4e" fill-opacity="0.501961" points="745,288 942,283 842,345" />
<polygon fill="#000710" fill-opacity="0.501961" points="1135,-14 1215,4 1137,273" />
<polygon fill="#a65858" fill-opacity="0.501961" points="1135,234 1028,233 1131,145" />
<polygon fill="#506e85" fill-opacity="0.501961" points="44,345 84,157 141,285" />
<polygon fill="#00000d" fill-opacity="0.501961" points="876,45 854,-16 997,-3" />
<polygon fill="#000015" fill-opacity="0.501961" points="1098,237 1055,250 1054,235" />
<polygon fill="#3f5e74" fill-opacity="0.501961" points="340,618 615,558 591,645" />
<polygon fill="#21213a" fill-opacity="0.501961" points="796,423 529,192 476,347" />
<polygon fill="#f3817e" fill-opacity="0.501961" points="806,233 868,235 843,197" />
<polygon fill="#557f9f" fill-opacity="0.501961" points="609,474 389,522 615,569" />
<polygon fill="#bb4e4a" fill-opacity="0.501961" points="702,134 758,103 701,95" />
<polygon fill="#000209" fill-opacity="0.501961" points="115,645 -6,539 -16,632" />
<polygon fill="#764142" fill-opacity="0.501961" points="946,39 1134,180 1135,72" />
<polygon fill="#121221" fill-opacity="0.501961" points="245,26 310,121 78,35" />
<polygon fill="#3c74a2" fill-opacity="0.501961" points="360,132 448,425 226,404" />
<polygon fill="#386f99" fill-opacity="0.501961" points="556,78 480,163 500,63" />
<polygon fill="#21223b" fill-opacity="0.501961" points="743,285 751,469 486,350" />
<polygon fill="#29567b" fill-opacity="0.501961" points="161,99 341,119 109,232" />
</g>
</svg>