<svg xmlns="http://www.w3.org/2000/svg" version="1.1" width="1200" height="630">
<rect x="0" y="0" width="1200" height="630" fill="#253133" />
<g transform="scale(1.000000) translate(0.5 0.5)">
<rect fill="#ff8558" fill-opacity="0.501961" x="532" y="0" width="355" height="267" />
<rect fill="#32ffef" fill-opacity="0.501961" x="562" y="297" width="194" height="174" />
<rect fill="#03aca2" fill-opacity="0.501961" x="0" y="128" width="302" height="220" />
<rect fill="#ff6243" fill-opacity="0.501961" x="621" y="52" width="71" height="292" />
<rect fill="#00000c" fill-opacity="0.501961" x="820" y="181" width="380" height="323" />
<rect fill="#000009" fill-opacity="0.501961" x="0" y="454" width="803" height="176" />
<rect fill="#ff7f5f" fill-opacity="0.501961" x="691" y="60" width="159" height="163" />
<rect fill="#409b78" fill-opacity="0.501961" x="821" y="517" width="217" height="113" />
<rect fill="#ff573d" fill-opacity="0.501961" x="557" y="97" width="232" height="161" />
<rect fill="#0de0d7" fill-opacity="0.501961" x="498" y="298" width="139" height="54" />
<rect fill="#000002" fill-opacity="0.501961" x="0" y="0" width="178" height="159" />
<rect fill="#00081b" fill-opacity="0.501961" x="241" y="279" width="272" height="351" />
<rect fill="#0cd6ce" fill-opacity="0.501961" x="676" y="298" width="151" height="51" />
<rect fill="#000016" fill-opacity="0.501961" x="307" y="139" width="255" height="81" />
<rect fill="#1eded3" fill-opacity="0.501961" x="555" y="454" width="55" height="44" />
<rect fill="#21ccc2" fill-opacity="0.501961" x="707" y="454" width="58" height="48" />
<rect fill="#f38056" fill-opacity="0.501961" x="887" y="0" width="20" height="130" />
<rect fill="#16a098" fill-opacity="0.501961" x="191" y="76" width="96" height="228" />
<rect fill="#001024" fill-opacity="0.501961" x="742" y="375" width="134" height="174" />
<rect fill="#ff6241" fill-opacity="0.501961" x="642" y="200" width="30" height="166" />
<rect fill="#ff6445" fill-opacity="0.501961" x="505" y="236" width="52" height="36" />
<rect fill="#000007" fill-opacity="0.501961" x="0" y="365" width="241" height="265" />
<rect fill="#000d21" fill-opacity="0.501961" x="807" y="210" width="322" height="57" />
<rect fill="#4ea486" fill-opacity="0.501961" x="916" y="493" width="72" height="67" />
<rect fill="#000000" fill-opacity="0.501961" x="910" y="0" width="290" height="181" />
<rect fill="#000017" fill-opacity="0.501961" x="508" y="374" width="69" height="70" />
<rect fill="#f16347" fill-opacity="0.501961" x="504" y="89" width="115" height="35" />
<rect fill="#26d8cc" fill-opacity="0.501961" x="478" y="298" width="83" height="26" />
<rect fill="#168f88" fill-opacity="0.501961" x="72" y="209" width="121" height="157" />
<rect fill="#061424" fill-opacity="0.501961" x="280" y="222" width="207" height="324" />
<rect fill="#ff6346" fill-opacity="0.501961" x="631" y="184" width="51" height="132" />
<rect fill="#e7a881" fill-opacity="0.501961" x="755" y="144" width="79" height="74" />
<rect fill="#020f1d" fill-opacity="0.501961" x="872" y="158" width="326" height="338" />
<rect fill="#081221" fill-opacity="0.501961" x="790" y="329" width="102" height="204" />
<rect fill="#ff6446" fill-opacity="0.501961" x="544" y="205" width="95" height="49" />
<rect fill="#12bcb4" fill-opacity="0.501961" x="685" y="272" width="21" height="190" />
<rect fill="#24b3a5" fill-opacity="0.501961" x="742" y="459" width="27" height="55" />
<rect fill="#48180a" fill-opacity="0.501961" x="1107" y="502" width="93" height="128" />
<rect fill="#1db5ac" fill-opacity="0.501961" x="679" y="300" width="102" height="64" />
<rect fill="#000003" fill-opacity="0.501961" x="23" y="0" width="212" height="88" />
<rect fill="#d76f53" fill-opacity="0.501961" x="541" y="31" width="84" height="126" />
<rect fill="#ff5d40" fill-opacity="0.501961" x="771" y="257" width="45" height="18" />
<rect fill="#000006" fill-opacity="0.501961" x="295" y="0" width="220" height="141" />
<rect fill="#00020e" fill-opacity="0.501961" x="178" y="0" width="356" height="59" />
<rect fill="#000523" fill-opacity="0.501961" x="571" y="255" width="47" height="39" />
<rect fill="#0d5954" fill-opacity="0.501961" x="0" y="75" width="65" height="274" />
<rect fill="#00001a" fill-opacity="0.501961" x="698" y="256" width="40" height="30" />
<rect fill="#b36b51" fill-opacity="0.501961" x="683" y="37" width="212" height="107" />
<rect fill="#17bcb4" fill-opacity="0.501961" x="541" y="327" width="102" height="39" />
<rect fill="#000621" fill-opacity="0.501961" x="531" y="167" width="41" height="31" />
<rect fill="#8d5339" fill-opacity="0.501961" x="1182" y="459" width="18" height="98" />
<rect fill="#11bdb5" fill-opacity="0.501961" x="612" y="277" width="15" height="186" />
<rect fill="#000008" fill-opacity="0.501961" x="1025" y="483" width="144" height="65" />
<rect fill="#1a9992" fill-opacity="0.501961" x="262" y="111" width="42" height="141" />
<rect fill="#ff6646" fill-opacity="0.501961" x="496" y="258" width="35" height="19" />
<rect fill="#010d1c" fill-opacity="0.501961" x="587" y="483" width="146" height="147" />
<rect fill="#4bb189" fill-opacity="0.501961" x="802" y="571" width="19" height="59" />
<rect fill="#dd8e6d" fill-opacity="0.501961" x="791" y="117" width="73" height="72" />
<rect fill="#1abbb3" fill-opacity="0.501961" x="547" y="483" width="24" height="31" />
<rect fill="#0f7a73" fill-opacity="0.501961" x="218" y="51" width="51" height="125" />
<rect fill="#1a8b84" fill-opacity="0.501961" x="158" y="118" width="96" height="203" />
<rect fill="#0a1b29" fill-opacity="0.501961" x="827" y="203" width="196" height="242" />
<rect fill="#07101d" fill-opacity="0.501961" x="213" y="329" width="86" height="254" />
<rect fill="#23c2b7" fill-opacity="0.501961" x="747" y="299" width="95" height="17" />
<rect fill="#2c5d4a" fill-opacity="0.501961" x="948" y="540" width="142" height="90" />
<rect fill="#ce442f" fill-opacity="0.501961" x="526" y="103" width="267" height="38" />
<rect fill="#ff6043" fill-opacity="0.501961" x="494" y="86" width="21" height="19" />
<rect fill="#051424" fill-opacity="0.501961" x="308" y="116" width="212" height="135" />
<rect fill="#00010e" fill-opacity="0.501961" x="914" y="0" width="286" height="159" />
<rect fill="#0d0003" fill-opacity="0.501961" x="642" y="445" width="33" height="26" />
<rect fill="#000a21" fill-opacity="0.501961" x="795" y="228" width="69" height="25" />
<rect fill="#000007" fill-opacity="0.501961" x="99" y="87" width="36" height="84" />
<rect fill="#ff5c3d" fill-opacity="0.501961" x="650" y="268" width="13" height="107" />
<rect fill="#00000b" fill-opacity="0.501961" x="0" y="334" width="33" height="122" />
<rect fill="#40816b" fill-opacity="0.501961" x="856" y="531" width="193" height="54" />
<rect fill="#15b2aa" fill-opacity="0.501961" x="666" y="335" width="70" height="115" />
<rect fill="#ff6346" fill-opacity="0.501961" x="524" y="231" width="63" height="30" />
<rect fill="#ff6447" fill-opacity="0.501961" x="675" y="214" width="113" height="39" />
<rect fill="#704b36" fill-opacity="0.501961" x="1085" y="551" width="95" height="37" />
<rect fill="#1cb3a8" fill-opacity="0.501961" x="720" y="432" width="33" height="58" />
<rect fill="#0c1927" fill-opacity="0.501961" x="386" y="338" width="145" height="214" />
<rect fill="#18b4aa" fill-opacity="0.501961" x="570" y="415" width="51" height="59" />
<rect fill="#ff6a4c" fill-opacity="0.501961" x="626" y="254" width="62" height="38" />
<rect fill="#16b4ad" fill-opacity="0.501961" x="581" y="353" width="70" height="99" />
<rect fill="#010000" fill-opacity="0.501961" x="738" y="379" width="18" height="33" />
<rect fill="#001325" fill-opacity="0.501961" x="520" y="149" width="32" height="65" />
<rect fill="#0f0313" fill-opacity="0.501961" x="264" y="285" width="38" height="63" />
<rect fill="#aa3727" fill-opacity="0.501961" x="635" y="0" width="44" height="106" />
<rect fill="#09141f" fill-opacity="0.501961" x="900" y="105" width="215" height="162" />
<rect fill="#ca8263" fill-opacity="0.501961" x="816" y="94" width="64" height="73" />
<rect fill="#52ab89" fill-opacity="0.501961" x="938" y="488" width="29" height="30" />
<rect fill="#20b0a8" fill-opacity="0.501961" x="675" y="311" width="130" height="30" />
<rect fill="#000a24" fill-opacity="0.501961" x="521" y="269" width="52" height="30" />
<rect fill="#a26a51" fill-opacity="0.501961" x="680" y="34" width="231" height="56" />
<rect fill="#091521" fill-opacity="0.501961" x="160" y="357" width="188" height="189" />
<rect fill="#fe593f" fill-opacity="0.501961" x="569" y="137" width="55" height="114" />
<rect fill="#06101c" fill-opacity="0.501961" x="735" y="509" width="107" height="52" />
<rect fill="#ff5d42" fill-opacity="0.501961" x="762" y="245" width="37" height="24" />
<rect fill="#00070f" fill-opacity="0.501961" x="46" y="0" width="155" height="104" />
<rect fill="#ff5f43" fill-opacity="0.501961" x="799" y="269" width="26" height="10" />
</g>
</svg>