<svg xmlns="http://www.w3.org/2000/svg" version="1.1" width="1200" height="630">
<rect x="0" y="0" width="1200" height="630" fill="#3d5054" />
<g transform="scale(1.000000) translate(0.5 0.5)">
<ellipse fill="#abdada" fill-opacity="0.501961" cx="1003" cy="370" rx="198" ry="198" />
<g transform="translate(216.732722 164.734516) rotate(228.230861) scale(94.665543 132.750294)"><ellipse fill="#e7ffff" fill-opacity="0.501961" cx="0" cy="0" rx="1" ry="1" /></g>
<ellipse fill="#81ef8f" fill-opacity="0.501961" cx="899" cy="117" rx="140" ry="140" />
<ellipse fill="#000003" fill-opacity="0.501961" cx="278" cy="584" rx="326" ry="326" />
<ellipse fill="#0d0327" fill-opacity="0.501961" cx="565" cy="293" rx="259" ry="259" />
<ellipse fill="#a9e198" fill-opacity="0.501961" cx="778" cy="582" rx="187" ry="46" />
<polygon fill="#000008" fill-opacity="0.501961" points="925,337 619,329 908,243" />
<ellipse fill="#a2ffff" fill-opacity="0.501961" cx="357" cy="251" rx="6" ry="249" />
<ellipse fill="#000000" fill-opacity="0.501961" cx="1199" cy="0" rx="147" ry="147" />
<ellipse fill="#b2e2e4" fill-opacity="0.501961" cx="859" cy="459" rx="44" ry="123" />
<g transform="translate(697.672998 9.248392) rotate(87.186639) scale(41.423902 215.020595)"><ellipse fill="#000000" fill-opacity="0.501961" cx="0" cy="0" rx="1" ry="1" /></g>
<g transform="translate(314.798861 37.716914) rotate(85.362793) scale(36.231745 176.504863)"><ellipse fill="#859a9d" fill-opacity="0.501961" cx="0" cy="0" rx="1" ry="1" /></g>
<ellipse fill="#070018" fill-opacity="0.501961" cx="83" cy="383" rx="131" ry="131" />
<g transform="translate(84.452348 173.079452) rotate(221.135830) scale(53.150555 122.075178)"><ellipse fill="#45b687" fill-opacity="0.501961" cx="0" cy="0" rx="1" ry="1" /></g>
<ellipse fill="#90ed7e" fill-opacity="0.501961" cx="839" cy="170" rx="64" ry="64" />
<ellipse fill="#65a1a7" fill-opacity="0.501961" cx="1027" cy="137" rx="101" ry="64" />
<polygon fill="#cce6e5" fill-opacity="0.501961" points="338.359619,197.177056,305.447040,109.375513,133.279725,250.618687,178.123268,292.120832" />
<ellipse fill="#9ec8d0" fill-opacity="0.501961" cx="981" cy="380" rx="89" ry="89" />
<g transform="translate(1111.894783 491.455731) rotate(145.600507) scale(210.778318 59.125334)"><ellipse fill="#53686c" fill-opacity="0.501961" cx="0" cy="0" rx="1" ry="1" /></g>
<g transform="translate(1185.635140 206.299356) rotate(65.807953) scale(62.325550 54.924078)"><ellipse fill="#000000" fill-opacity="0.501961" cx="0" cy="0" rx="1" ry="1" /></g>
<ellipse fill="#010014" fill-opacity="0.501961" cx="765" cy="493" rx="53" ry="53" />
<ellipse fill="#10052a" fill-opacity="0.501961" cx="845" cy="295" rx="72" ry="43" />
<ellipse fill="#79fbc8" fill-opacity="0.501961" cx="574" cy="58" rx="208" ry="6" />
<ellipse fill="#090117" fill-opacity="0.501961" cx="185" cy="629" rx="224" ry="224" />
<g transform="translate(935.902448 39.446502) rotate(290.189572) scale(50.354854 158.532806)"><ellipse fill="#35735d" fill-opacity="0.501961" cx="0" cy="0" rx="1" ry="1" /></g>
<rect fill="#90c189" fill-opacity="0.501961" x="606" y="542" width="310" height="39" />
<polygon fill="#19162f" fill-opacity="0.501961" points="770,67 576,645 324,60" />
<g transform="translate(1109.005097 7.744879) rotate(97.792915) scale(47.570494 101.960290)"><ellipse fill="#000000" fill-opacity="0.501961" cx="0" cy="0" rx="1" ry="1" /></g>
<g transform="translate(1160.954724 606.308620) rotate(346.080014) scale(109.575702 33.024167)"><ellipse fill="#091f00" fill-opacity="0.501961" cx="0" cy="0" rx="1" ry="1" /></g>
<polygon fill="#1d1a34" fill-opacity="0.501961" points="327,534 816,229 817,542" />
<rect fill="#00000c" fill-opacity="0.501961" x="329" y="73" width="22" height="128" />
<ellipse fill="#012d14" fill-opacity="0.501961" cx="19" cy="11" rx="89" ry="56" />
<polygon fill="#71cf81" fill-opacity="0.501961" points="827.771061,241.928876,928.353446,75.177417,974.981767,249.931544,893.590694,263.000968" />
<g transform="translate(816.736910 596.979520) rotate(256.677118) scale(41.942395 253.905432)"><ellipse fill="#68896f" fill-opacity="0.501961" cx="0" cy="0" rx="1" ry="1" /></g>
<polygon fill="#000000" fill-opacity="0.501961" points="960,273 932,261 963,248" />
<g transform="translate(1126.111248 159.409746) rotate(196.191846) scale(46.559041 19.022171)"><ellipse fill="#47b283" fill-opacity="0.501961" cx="0" cy="0" rx="1" ry="1" /></g>
<g transform="translate(123.789899 110.176314) rotate(232.349707) scale(55.551289 198.712603)"><ellipse fill="#528271" fill-opacity="0.501961" cx="0" cy="0" rx="1" ry="1" /></g>
<g transform="translate(1001.936049 248.174057) rotate(-7.935358) scale(38.853445 106.155967)"><ellipse fill="#91aac1" fill-opacity="0.501961" cx="0" cy="0" rx="1" ry="1" /></g>
<g transform="translate(283.272736 257.273642) rotate(155.792292) scale(67.229430 21.763198)"><ellipse fill="#0f0528" fill-opacity="0.501961" cx="0" cy="0" rx="1" ry="1" /></g>
<g transform="translate(775.990766 145.642958) rotate(258.034524) scale(43.476144 12.514381)"><ellipse fill="#90f084" fill-opacity="0.501961" cx="0" cy="0" rx="1" ry="1" /></g>
<rect fill="#000000" fill-opacity="0.501961" x="879" y="614" width="82" height="16" />
<g transform="translate(869.997182 359.534858) rotate(95.245645) scale(22.646725 53.974208)"><ellipse fill="#b0e0e8" fill-opacity="0.501961" cx="0" cy="0" rx="1" ry="1" /></g>
<g transform="translate(1176.445417 107.487635) rotate(201.224835) scale(74.336910 40.509188)"><ellipse fill="#000007" fill-opacity="0.501961" cx="0" cy="0" rx="1" ry="1" /></g>
<rect fill="#89b786" fill-opacity="0.501961" x="602" y="543" width="123" height="87" />
<g transform="translate(357.053093 342.112717) rotate(271.116446) scale(149.486795 5.203942)"><ellipse fill="#76ffca" fill-opacity="0.501961" cx="0" cy="0" rx="1" ry="1" /></g>
<polygon fill="#d2efef" fill-opacity="0.501961" points="323,175 260,240 333,204" />
<g transform="translate(1172.794462 292.143976) rotate(134.753799) scale(20.611384 244.708268)"><ellipse fill="#6e8290" fill-opacity="0.501961" cx="0" cy="0" rx="1" ry="1" /></g>
<polygon fill="#a1b3b1" fill-opacity="0.501961" points="328,33 329,187 273,33" />
<polygon fill="#6e8d98" fill-opacity="0.501961" points="485.333984,52.310671,482.434557,-16.000000,300.761731,60.585255,485.357132,64.870089" />
<ellipse fill="#272842" fill-opacity="0.501961" cx="467" cy="358" rx="106" ry="106" />
<ellipse fill="#629d4f" fill-opacity="0.501961" cx="838" cy="66" rx="61" ry="65" />
<ellipse fill="#87acb1" fill-opacity="0.501961" cx="880" cy="492" rx="66" ry="61" />
<g transform="translate(99.958222 610.078335) rotate(28.627899) scale(318.096176 66.196014)"><ellipse fill="#040307" fill-opacity="0.501961" cx="0" cy="0" rx="1" ry="1" /></g>
<ellipse fill="#070211" fill-opacity="0.501961" cx="6" cy="330" rx="58" ry="58" />
<g transform="translate(1153.250269 207.328939) rotate(25.907638) scale(52.941011 23.321849)"><ellipse fill="#040014" fill-opacity="0.501961" cx="0" cy="0" rx="1" ry="1" /></g>
<ellipse fill="#000004" fill-opacity="0.501961" cx="913" cy="326" rx="12" ry="12" />
<ellipse fill="#110b23" fill-opacity="0.501961" cx="505" cy="604" rx="100" ry="100" />
<g transform="translate(198.124093 420.507392) rotate(9.567254) scale(152.583767 132.358225)"><ellipse fill="#1c1a32" fill-opacity="0.501961" cx="0" cy="0" rx="1" ry="1" /></g>
<ellipse fill="#68fab5" fill-opacity="0.501961" cx="357" cy="127" rx="5" ry="80" />
<polygon fill="#4ea085" fill-opacity="0.501961" points="178,57 -16,277 107,239" />
<g transform="translate(929.419740 121.729522) rotate(271.346960) scale(62.513026 30.045876)"><ellipse fill="#4eb5a6" fill-opacity="0.501961" cx="0" cy="0" rx="1" ry="1" /></g>
<polygon fill="#9cc6cc" fill-opacity="0.501961" points="1011,334 820,540 817,339" />
<rect fill="#22223a" fill-opacity="0.501961" x="362" y="229" width="454" height="243" />
<ellipse fill="#607a7e" fill-opacity="0.501961" cx="1199" cy="348" rx="77" ry="77" />
<g transform="translate(1050.140264 425.764632) rotate(220.057520) scale(55.569769 149.072365)"><ellipse fill="#76959b" fill-opacity="0.501961" cx="0" cy="0" rx="1" ry="1" /></g>
<ellipse fill="#070017" fill-opacity="0.501961" cx="514" cy="20" rx="31" ry="34" />
<rect fill="#a1ced2" fill-opacity="0.501961" x="933" y="273" width="55" height="63" />
<ellipse fill="#09001a" fill-opacity="0.501961" cx="738" cy="13" rx="58" ry="40" />
<g transform="translate(226.288350 72.443326) rotate(246.412728) scale(41.931007 85.493801)"><ellipse fill="#83868b" fill-opacity="0.501961" cx="0" cy="0" rx="1" ry="1" /></g>
<ellipse fill="#0c071a" fill-opacity="0.501961" cx="95" cy="281" rx="38" ry="37" />
<polygon fill="#61d1a3" fill-opacity="0.501961" points="57.023477,299.155455,40.736405,265.337874,47.645703,256.520083,63.132618,298.390328" />
<ellipse fill="#255b53" fill-opacity="0.501961" cx="961" cy="14" rx="55" ry="26" />
<g transform="translate(348 235) rotate(151) scale(3 141)"><rect fill="#9ec9d3" fill-opacity="0.501961" x="-0.5" y="-0.5" width="1" height="1" /></g>
<g transform="translate(1107.731703 512.636457) rotate(144.856325) scale(173.065997 25.232892)"><ellipse fill="#51676c" fill-opacity="0.501961" cx="0" cy="0" rx="1" ry="1" /></g>
<polygon fill="#a5bbba" fill-opacity="0.501961" points="330,74 183,290 95,238" />
<g transform="translate(57.760041 91.773359) rotate(50.655503) scale(43.116678 94.907593)"><ellipse fill="#266d50" fill-opacity="0.501961" cx="0" cy="0" rx="1" ry="1" /></g>
<polygon fill="#202038" fill-opacity="0.501961" points="555,123 860,253 704,543" />
<polygon fill="#69e3b4" fill-opacity="0.501961" points="363.748144,442.522799,362.731158,365.253663,352.781110,480.776898,363.462777,485.068178" />
<rect fill="#121222" fill-opacity="0.501961" x="512" y="63" width="250" height="49" />
<ellipse fill="#110d23" fill-opacity="0.501961" cx="636" cy="23" rx="152" ry="31" />
<g transform="translate(1009.433060 149.330746) rotate(149.157408) scale(29.420470 86.731841)"><ellipse fill="#7a849c" fill-opacity="0.501961" cx="0" cy="0" rx="1" ry="1" /></g>
<polygon fill="#121122" fill-opacity="0.501961" points="363.648349,91.798879,365.718530,197.065178,537.524989,65.875533,366.080374,63.529869" />
<ellipse fill="#88afb3" fill-opacity="0.501961" cx="1026" cy="300" rx="70" ry="70" />
<polygon fill="#88df83" fill-opacity="0.501961" points="780.047072,190.072908,760.510996,128.960667,933.400306,267.060603,837.744898,246.828799" />
<g transform="translate(1087.308163 119.409597) rotate(132.161456) scale(27.152863 85.928486)"><ellipse fill="#3c8f6b" fill-opacity="0.501961" cx="0" cy="0" rx="1" ry="1" /></g>
<polygon fill="#02000a" fill-opacity="0.501961" points="1215,3 991,-16 1065,57" />
<rect fill="#53696f" fill-opacity="0.501961" x="881" y="576" width="111" height="40" />
<polygon fill="#99a4a8" fill-opacity="0.501961" points="232,81 133,228 156,114" />
<g transform="translate(1079.691718 59.710591) rotate(88.407079) scale(5.180684 107.142965)"><ellipse fill="#377d67" fill-opacity="0.501961" cx="0" cy="0" rx="1" ry="1" /></g>
<polygon fill="#bbd5d6" fill-opacity="0.501961" points="196.014612,283.739565,182.244834,289.017381,163.766334,276.594111,293.400442,219.953180" />
<g transform="translate(874.883415 515.559220) rotate(171.564616) scale(60.069952 39.931547)"><ellipse fill="#7a9c99" fill-opacity="0.501961" cx="0" cy="0" rx="1" ry="1" /></g>
<g transform="translate(926.305607 219.648783) rotate(214.392602) scale(36.223941 45.008264)"><ellipse fill="#77c066" fill-opacity="0.501961" cx="0" cy="0" rx="1" ry="1" /></g>
<polygon fill="#19182c" fill-opacity="0.501961" points="816.213553,341.107069,580.129116,539.328528,750.847880,541.899337,813.836582,541.834500" />
<g transform="translate(1074.058574 608.199687) rotate(67.573198) scale(15.478808 147.060404)"><ellipse fill="#334f33" fill-opacity="0.501961" cx="0" cy="0" rx="1" ry="1" /></g>
<rect fill="#030501" fill-opacity="0.501961" x="1176" y="574" width="24" height="56" />
<g transform="translate(835.826043 121.216468) rotate(298.570826) scale(38.223454 75.248060)"><ellipse fill="#6db46c" fill-opacity="0.501961" cx="0" cy="0" rx="1" ry="1" /></g>
<ellipse fill="#090616" fill-opacity="0.501961" cx="1194" cy="161" rx="20" ry="113" />
<rect fill="#150f27" fill-opacity="0.501961" x="328" y="59" width="23" height="92" />
<polygon fill="#18142e" fill-opacity="0.501961" points="828,253 743,137 718,190" />
<ellipse fill="#211f3a" fill-opacity="0.501961" cx="303" cy="318" rx="50" ry="93" />
</g>
</svg>