<svg xmlns="http://www.w3.org/2000/svg" version="1.1" width="1200" height="630">
<rect x="0" y="0" width="1200" height="630" fill="#2d2422" />
<g transform="scale(1.000000) translate(0.5 0.5)">
<polygon fill="#b38774" fill-opacity="0.501961" points="423,139 486,-16 -16,152" />
<polygon fill="#e96449" fill-opacity="0.501961" points="786,585 643,174 672,589" />
<polygon fill="#ff6b45" fill-opacity="0.501961" points="121,422 123,275 272,417" />
<polygon fill="#f8755a" fill-opacity="0.501961" points="976,287 961,113 1165,251" />
<polygon fill="#349da0" fill-opacity="0.501961" points="67,242 -16,68 287,80" />
<polygon fill="#d27b5f" fill-opacity="0.501961" points="557,79 859,-16 575,183" />
<polygon fill="#ff7a5a" fill-opacity="0.501961" points="691,381 608,291 741,212" />
<polygon fill="#0bc4b7" fill-opacity="0.501961" points="481,81 379,-16 557,3" />
<polygon fill="#051416" fill-opacity="0.501961" points="664,466 1215,645 826,26" />
<polygon fill="#73b199" fill-opacity="0.501961" points="730,223 758,36 835,6" />
<polygon fill="#ff5b3a" fill-opacity="0.501961" points="149,239 63,236 68,322" />
<polygon fill="#071214" fill-opacity="0.501961" points="252,645 249,44 684,633" />
<polygon fill="#cd2c14" fill-opacity="0.501961" points="422,159 230,56 407,-16" />
<polygon fill="#34aa9f" fill-opacity="0.501961" points="654,475 890,393 777,470" />
<polygon fill="#000002" fill-opacity="0.501961" points="1211,287 1201,634 661,645" />
<polygon fill="#000a11" fill-opacity="0.501961" points="596,201 706,290 761,99" />
<polygon fill="#75e7e5" fill-opacity="0.501961" points="115,478 182,468 156,524" />
<polygon fill="#000000" fill-opacity="0.501961" points="1002,-16 1215,3 1086,295" />
<polygon fill="#e86837" fill-opacity="0.501961" points="813,-4 656,-13 671,51" />
<polygon fill="#f2593d" fill-opacity="0.501961" points="624,485 767,593 775,488" />
<polygon fill="#000001" fill-opacity="0.501961" points="81,645 490,627 33,484" />
<polygon fill="#35b8ac" fill-opacity="0.501961" points="946,354 1059,347 861,414" />
<polygon fill="#3fb9bd" fill-opacity="0.501961" points="1075,198 1166,221 1136,279" />
<polygon fill="#31a599" fill-opacity="0.501961" points="584,534 685,465 459,541" />
<polygon fill="#ff5335" fill-opacity="0.501961" points="633,175 539,130 634,83" />
<polygon fill="#0bb1aa" fill-opacity="0.501961" points="814,102 783,11 723,80" />
<polygon fill="#5cbfc1" fill-opacity="0.501961" points="245,142 176,176 179,53" />
<polygon fill="#0c1318" fill-opacity="0.501961" points="472,428 649,473 696,322" />
<polygon fill="#25847b" fill-opacity="0.501961" points="288,613 385,544 493,540" />
<polygon fill="#000003" fill-opacity="0.501961" points="897,162 817,-16 1215,0" />
<polygon fill="#000000" fill-opacity="0.501961" points="129,86 -16,2 326,-16" />
<polygon fill="#0e1317" fill-opacity="0.501961" points="593,496 346,179 521,43" />
<polygon fill="#d88362" fill-opacity="0.501961" points="659,492 614,640 613,565" />
<polygon fill="#110000" fill-opacity="0.501961" points="854,419 658,486 759,485" />
<polygon fill="#e1462b" fill-opacity="0.501961" points="968,123 964,209 1056,125" />
<polygon fill="#ff6b4a" fill-opacity="0.501961" points="641,258 618,325 716,321" />
<polygon fill="#0c0105" fill-opacity="0.501961" points="604,634 644,491 504,539" />
<polygon fill="#008290" fill-opacity="0.501961" points="736,82 683,49 635,114" />
<polygon fill="#000002" fill-opacity="0.501961" points="672,41 518,-16 625,87" />
<polygon fill="#ab5534" fill-opacity="0.501961" points="-16,500 -3,447 130,480" />
<polygon fill="#f04c30" fill-opacity="0.501961" points="972,152 973,282 1075,282" />
<polygon fill="#e54c36" fill-opacity="0.501961" points="276,423 123,278 123,413" />
<polygon fill="#ffc697" fill-opacity="0.501961" points="638,525 668,477 667,424" />
<polygon fill="#df472e" fill-opacity="0.501961" points="283,111 461,55 378,152" />
<polygon fill="#0e0b0d" fill-opacity="0.501961" points="283,602 497,528 123,412" />
<polygon fill="#09080b" fill-opacity="0.501961" points="885,394 1104,246 1176,296" />
<polygon fill="#000002" fill-opacity="0.501961" points="74,238 154,158 239,235" />
<polygon fill="#f05237" fill-opacity="0.501961" points="236,263 257,204 241,135" />
<polygon fill="#4db1a1" fill-opacity="0.501961" points="470,36 579,86 497,5" />
<polygon fill="#000103" fill-opacity="0.501961" points="1197,-16 1082,71 1215,325" />
<polygon fill="#1c8f86" fill-opacity="0.501961" points="1010,364 1100,302 1200,298" />
<polygon fill="#000003" fill-opacity="0.501961" points="119,416 2,146 -14,452" />
<polygon fill="#f75238" fill-opacity="0.501961" points="681,135 538,69 604,139" />
<polygon fill="#ff7f5c" fill-opacity="0.501961" points="674,406 683,359 706,469" />
<polygon fill="#010000" fill-opacity="0.501961" points="779,84 803,106 751,181" />
<polygon fill="#ff9b70" fill-opacity="0.501961" points="729,191 730,251 759,147" />
<polygon fill="#081313" fill-opacity="0.501961" points="189,48 252,-16 302,158" />
<polygon fill="#000000" fill-opacity="0.501961" points="689,67 639,101 753,64" />
<polygon fill="#100000" fill-opacity="0.501961" points="81,211 140,148 -12,234" />
<polygon fill="#00060b" fill-opacity="0.501961" points="699,147 639,114 761,73" />
<polygon fill="#005a65" fill-opacity="0.501961" points="993,186 1024,153 1067,185" />
<polygon fill="#447876" fill-opacity="0.501961" points="-16,137 100,48 68,207" />
<polygon fill="#9d3a28" fill-opacity="0.501961" points="296,-16 264,62 411,12" />
<polygon fill="#1b1b1e" fill-opacity="0.501961" points="607,146 633,390 387,411" />
<polygon fill="#000f13" fill-opacity="0.501961" points="623,611 671,448 669,583" />
<polygon fill="#eb553c" fill-opacity="0.501961" points="638,188 603,39 586,130" />
<polygon fill="#d87d5a" fill-opacity="0.501961" points="56,449 128,430 123,410" />
<polygon fill="#4d9290" fill-opacity="0.501961" points="170,61 120,184 268,90" />
<polygon fill="#000000" fill-opacity="0.501961" points="-16,96 124,-4 -7,-16" />
<polygon fill="#1ba69b" fill-opacity="0.501961" points="784,86 837,41 723,43" />
<polygon fill="#110000" fill-opacity="0.501961" points="1163,300 1102,298 1035,343" />
<polygon fill="#ffcd9d" fill-opacity="0.501961" points="717,258 715,309 689,348" />
<polygon fill="#ff6345" fill-opacity="0.501961" points="618,277 698,272 671,348" />
<polygon fill="#4ba6a7" fill-opacity="0.501961" points="1102,258 1137,203 1169,258" />
<polygon fill="#090e11" fill-opacity="0.501961" points="135,284 226,153 266,414" />
<polygon fill="#000000" fill-opacity="0.501961" points="18,508 213,589 -16,576" />
<polygon fill="#45fff7" fill-opacity="0.501961" points="769,444 799,423 837,422" />
<polygon fill="#ff895e" fill-opacity="0.501961" points="743,166 767,94 765,136" />
<polygon fill="#03090b" fill-opacity="0.501961" points="527,37 589,92 615,1" />
<polygon fill="#6ec0be" fill-opacity="0.501961" points="181,176 138,145 233,145" />
<polygon fill="#1a857d" fill-opacity="0.501961" points="571,-16 400,13 453,68" />
<polygon fill="#41f7e4" fill-opacity="0.501961" points="839,421 878,395 916,396" />
<polygon fill="#7ae0df" fill-opacity="0.501961" points="669,64 701,55 643,99" />
<polygon fill="#ca452d" fill-opacity="0.501961" points="1068,288 1067,186 965,191" />
<polygon fill="#d04831" fill-opacity="0.501961" points="759,589 704,464 667,583" />
<polygon fill="#0c0b0e" fill-opacity="0.501961" points="248,226 344,144 254,106" />
<polygon fill="#5ed6c2" fill-opacity="0.501961" points="649,471 617,498 706,467" />
<polygon fill="#1a1b1c" fill-opacity="0.501961" points="579,213 758,118 707,282" />
<polygon fill="#3f6c69" fill-opacity="0.501961" points="24,58 81,50 66,265" />
<polygon fill="#42ffef" fill-opacity="0.501961" points="726,454 789,429 764,451" />
<polygon fill="#3ceedd" fill-opacity="0.501961" points="569,501 609,498 535,526" />
<polygon fill="#ffbc8f" fill-opacity="0.501961" points="728,260 729,214 705,294" />
<polygon fill="#db5138" fill-opacity="0.501961" points="1112,228 1044,237 1118,247" />
<polygon fill="#70b3b0" fill-opacity="0.501961" points="1100,221 1067,181 1018,163" />
<polygon fill="#1a1717" fill-opacity="0.501961" points="1095,539 753,570 1094,334" />
<polygon fill="#cf3922" fill-opacity="0.501961" points="449,82 406,16 417,128" />
<polygon fill="#010000" fill-opacity="0.501961" points="58,188 54,267 12,171" />
<polygon fill="#000000" fill-opacity="0.501961" points="130,121 108,178 133,154" />
<polygon fill="#000002" fill-opacity="0.501961" points="118,471 37,470 117,430" />
<polygon fill="#ba5f3d" fill-opacity="0.501961" points="106,486 126,410 128,486" />
</g>
</svg>