<svg xmlns="http://www.w3.org/2000/svg" version="1.1" width="1200" height="630">
<rect x="0" y="0" width="1200" height="630" fill="#3c5256" />
<g transform="scale(1.000000) translate(0.5 0.5)">
<g transform="translate(616.240693 336.794277) rotate(362.761504) scale(325.559862 152.957667)"><ellipse fill="#f8ffff" fill-opacity="0.501961" cx="0" cy="0" rx="1" ry="1" /></g>
<g transform="translate(771.713388 376.830634) rotate(45.870156) scale(151.333971 109.118817)"><ellipse fill="#ffffff" fill-opacity="0.501961" cx="0" cy="0" rx="1" ry="1" /></g>
<g transform="translate(609.323305 207.411218) rotate(316.588124) scale(40.940308 59.554178)"><ellipse fill="#000000" fill-opacity="0.501961" cx="0" cy="0" rx="1" ry="1" /></g>
<g transform="translate(449.709078 325.402157) rotate(130.499089) scale(163.672767 147.321018)"><ellipse fill="#77f9ff" fill-opacity="0.501961" cx="0" cy="0" rx="1" ry="1" /></g>
<g transform="translate(349.412139 109.578524) rotate(340.830708) scale(111.373548 86.403286)"><ellipse fill="#00b5d1" fill-opacity="0.501961" cx="0" cy="0" rx="1" ry="1" /></g>
<g transform="translate(577.907973 540.239766) rotate(289.435752) scale(100.265289 76.234350)"><ellipse fill="#000000" fill-opacity="0.501961" cx="0" cy="0" rx="1" ry="1" /></g>
<g transform="translate(991.567018 458.913114) rotate(98.371223) scale(232.068289 91.733022)"><ellipse fill="#000000" fill-opacity="0.501961" cx="0" cy="0" rx="1" ry="1" /></g>
<g transform="translate(110.604435 478.459013) rotate(136.287797) scale(182.062588 641.151966)"><ellipse fill="#000000" fill-opacity="0.501961" cx="0" cy="0" rx="1" ry="1" /></g>
<g transform="translate(188.405059 189.608580) rotate(83.091033) scale(128.895693 52.504531)"><ellipse fill="#71dae6" fill-opacity="0.501961" cx="0" cy="0" rx="1" ry="1" /></g>
<g transform="translate(1152.090372 373.635901) rotate(126.352555) scale(101.195102 53.683312)"><ellipse fill="#c8cdcd" fill-opacity="0.501961" cx="0" cy="0" rx="1" ry="1" /></g>
<g transform="translate(884.380439 41.819912) rotate(98.525495) scale(151.528943 470.153338)"><ellipse fill="#000000" fill-opacity="0.501961" cx="0" cy="0" rx="1" ry="1" /></g>
<g transform="translate(1101.441762 555.963360) rotate(103.904016) scale(102.431511 145.965845)"><ellipse fill="#000000" fill-opacity="0.501961" cx="0" cy="0" rx="1" ry="1" /></g>
<g transform="translate(890.854573 295.395281) rotate(214.445064) scale(47.360951 53.884797)"><ellipse fill="#ffffff" fill-opacity="0.501961" cx="0" cy="0" rx="1" ry="1" /></g>
<g transform="translate(739.988291 561.503192) rotate(377.178162) scale(237.424937 70.770602)"><ellipse fill="#000000" fill-opacity="0.501961" cx="0" cy="0" rx="1" ry="1" /></g>
<g transform="translate(306.537898 431.541774) rotate(205.540775) scale(23.236299 40.374725)"><ellipse fill="#ffffff" fill-opacity="0.501961" cx="0" cy="0" rx="1" ry="1" /></g>
<g transform="translate(478.010430 455.132682) rotate(253.390932) scale(89.354337 23.648309)"><ellipse fill="#ffffff" fill-opacity="0.501961" cx="0" cy="0" rx="1" ry="1" /></g>
<g transform="translate(466.738069 584.313482) rotate(57.458150) scale(128.344386 50.045502)"><ellipse fill="#000000" fill-opacity="0.501961" cx="0" cy="0" rx="1" ry="1" /></g>
<g transform="translate(92.110207 482.515723) rotate(-20.042978) scale(134.099430 436.026678)"><ellipse fill="#040000" fill-opacity="0.501961" cx="0" cy="0" rx="1" ry="1" /></g>
<g transform="translate(633.421085 301.084899) rotate(12.492487) scale(18.029218 80.779129)"><ellipse fill="#000d12" fill-opacity="0.501961" cx="0" cy="0" rx="1" ry="1" /></g>
<g transform="translate(501.767671 400.518672) rotate(202.314317) scale(106.592827 42.118311)"><ellipse fill="#effcff" fill-opacity="0.501961" cx="0" cy="0" rx="1" ry="1" /></g>
<g transform="translate(266.329368 270.384916) rotate(271.509471) scale(108.370937 32.511468)"><ellipse fill="#000000" fill-opacity="0.501961" cx="0" cy="0" rx="1" ry="1" /></g>
<g transform="translate(772.720656 249.765038) rotate(7.716157) scale(121.223885 35.776559)"><ellipse fill="#f1ffff" fill-opacity="0.501961" cx="0" cy="0" rx="1" ry="1" /></g>
<g transform="translate(423.332992 186.844131) rotate(299.275746) scale(12.898366 39.587066)"><ellipse fill="#000000" fill-opacity="0.501961" cx="0" cy="0" rx="1" ry="1" /></g>
<g transform="translate(611.347047 207.589200) rotate(216.576069) scale(43.135023 46.780142)"><ellipse fill="#000000" fill-opacity="0.501961" cx="0" cy="0" rx="1" ry="1" /></g>
<g transform="translate(380.170818 213.243868) rotate(-97.870445) scale(27.507328 32.786489)"><ellipse fill="#ffffff" fill-opacity="0.501961" cx="0" cy="0" rx="1" ry="1" /></g>
<g transform="translate(765.519547 179.861282) rotate(8.998460) scale(159.835121 7.680687)"><ellipse fill="#ffffff" fill-opacity="0.501961" cx="0" cy="0" rx="1" ry="1" /></g>
<g transform="translate(513.393333 174.808055) rotate(299.173159) scale(19.529977 39.942613)"><ellipse fill="#8cffff" fill-opacity="0.501961" cx="0" cy="0" rx="1" ry="1" /></g>
<g transform="translate(434.944627 56.533822) rotate(375.779209) scale(40.318984 91.422653)"><ellipse fill="#0092a7" fill-opacity="0.501961" cx="0" cy="0" rx="1" ry="1" /></g>
<g transform="translate(349.225671 333.909162) rotate(266.410828) scale(89.624592 53.077584)"><ellipse fill="#10aac3" fill-opacity="0.501961" cx="0" cy="0" rx="1" ry="1" /></g>
<g transform="translate(675.654320 406.597394) rotate(13.942803) scale(52.625284 66.754612)"><ellipse fill="#edffff" fill-opacity="0.501961" cx="0" cy="0" rx="1" ry="1" /></g>
<g transform="translate(538.452709 104.671523) rotate(13.886080) scale(77.158988 31.896693)"><ellipse fill="#030000" fill-opacity="0.501961" cx="0" cy="0" rx="1" ry="1" /></g>
<g transform="translate(1142.979044 278.957111) rotate(45.632133) scale(50.146327 38.509230)"><ellipse fill="#73bac2" fill-opacity="0.501961" cx="0" cy="0" rx="1" ry="1" /></g>
<g transform="translate(851.939737 485.404544) rotate(280.336352) scale(34.944742 39.397168)"><ellipse fill="#d3eaed" fill-opacity="0.501961" cx="0" cy="0" rx="1" ry="1" /></g>
<g transform="translate(52.029901 0.000000) rotate(134.694371) scale(365.336413 39.533305)"><ellipse fill="#000000" fill-opacity="0.501961" cx="0" cy="0" rx="1" ry="1" /></g>
<g transform="translate(951.517401 237.946736) rotate(192.126988) scale(155.945480 19.609885)"><ellipse fill="#040000" fill-opacity="0.501961" cx="0" cy="0" rx="1" ry="1" /></g>
<g transform="translate(132.944789 189.001935) rotate(321.874219) scale(31.479934 111.931535)"><ellipse fill="#5baab3" fill-opacity="0.501961" cx="0" cy="0" rx="1" ry="1" /></g>
<g transform="translate(314.080232 237.351051) rotate(306.630004) scale(45.111349 24.163300)"><ellipse fill="#050000" fill-opacity="0.501961" cx="0" cy="0" rx="1" ry="1" /></g>
<g transform="translate(571.269043 600.314833) rotate(271.586821) scale(58.367041 405.011455)"><ellipse fill="#0e0403" fill-opacity="0.501961" cx="0" cy="0" rx="1" ry="1" /></g>
<g transform="translate(848.174358 120.359132) rotate(17.304019) scale(247.392730 5.084760)"><ellipse fill="#84eaf7" fill-opacity="0.501961" cx="0" cy="0" rx="1" ry="1" /></g>
<g transform="translate(430.943233 298.306333) rotate(50.241712) scale(71.283751 34.934580)"><ellipse fill="#0fbed9" fill-opacity="0.501961" cx="0" cy="0" rx="1" ry="1" /></g>
<g transform="translate(532.555506 141.915975) rotate(9.221615) scale(84.482534 6.273484)"><ellipse fill="#ffffff" fill-opacity="0.501961" cx="0" cy="0" rx="1" ry="1" /></g>
<g transform="translate(1053.299132 24.110735) rotate(-174.931883) scale(414.840170 121.655184)"><ellipse fill="#060000" fill-opacity="0.501961" cx="0" cy="0" rx="1" ry="1" /></g>
<g transform="translate(1001.254676 218.634031) rotate(279.147756) scale(5.892772 136.463101)"><ellipse fill="#e7f1f2" fill-opacity="0.501961" cx="0" cy="0" rx="1" ry="1" /></g>
<g transform="translate(660.892542 533.804725) rotate(88.694848) scale(66.966517 7.007445)"><ellipse fill="#bbf6fd" fill-opacity="0.501961" cx="0" cy="0" rx="1" ry="1" /></g>
<g transform="translate(612.225746 275.062115) rotate(258.070020) scale(13.633303 35.407710)"><ellipse fill="#ffffff" fill-opacity="0.501961" cx="0" cy="0" rx="1" ry="1" /></g>
<g transform="translate(423.766085 445.483790) rotate(-117.425837) scale(18.795491 64.798134)"><ellipse fill="#fae9eb" fill-opacity="0.501961" cx="0" cy="0" rx="1" ry="1" /></g>
<g transform="translate(538.417716 466.297276) rotate(75.189059) scale(14.858328 25.301621)"><ellipse fill="#000000" fill-opacity="0.501961" cx="0" cy="0" rx="1" ry="1" /></g>
<g transform="translate(350.503748 458.594956) rotate(-24.946430) scale(26.884207 19.779378)"><ellipse fill="#040000" fill-opacity="0.501961" cx="0" cy="0" rx="1" ry="1" /></g>
<g transform="translate(325.277707 65.132333) rotate(175.824249) scale(114.370922 134.704664)"><ellipse fill="#008293" fill-opacity="0.501961" cx="0" cy="0" rx="1" ry="1" /></g>
<g transform="translate(1079.447774 309.232507) rotate(83.250149) scale(72.715830 29.722980)"><ellipse fill="#050000" fill-opacity="0.501961" cx="0" cy="0" rx="1" ry="1" /></g>
<g transform="translate(208.563184 302.304503) rotate(71.558394) scale(44.930067 15.546917)"><ellipse fill="#80e2ee" fill-opacity="0.501961" cx="0" cy="0" rx="1" ry="1" /></g>
<g transform="translate(313.494211 422.300718) rotate(88.321517) scale(32.970718 26.446219)"><ellipse fill="#cde9ed" fill-opacity="0.501961" cx="0" cy="0" rx="1" ry="1" /></g>
<g transform="translate(578.037643 33.430056) rotate(69.774374) scale(115.692622 84.386638)"><ellipse fill="#110504" fill-opacity="0.501961" cx="0" cy="0" rx="1" ry="1" /></g>
<g transform="translate(929.995684 538.871382) rotate(53.794811) scale(101.572466 6.405172)"><ellipse fill="#42afbd" fill-opacity="0.501961" cx="0" cy="0" rx="1" ry="1" /></g>
<g transform="translate(763.090319 197.967570) rotate(283.694782) scale(11.620361 74.386385)"><ellipse fill="#010000" fill-opacity="0.501961" cx="0" cy="0" rx="1" ry="1" /></g>
<g transform="translate(1119.099642 589.735147) rotate(160.797970) scale(81.140970 141.689756)"><ellipse fill="#000000" fill-opacity="0.501961" cx="0" cy="0" rx="1" ry="1" /></g>
<g transform="translate(1107.142829 219.659943) rotate(282.040452) scale(10.738290 146.644469)"><ellipse fill="#000000" fill-opacity="0.501961" cx="0" cy="0" rx="1" ry="1" /></g>
<g transform="translate(1087.978112 192.868130) rotate(108.100921) scale(5.380200 88.913314)"><ellipse fill="#60afb9" fill-opacity="0.501961" cx="0" cy="0" rx="1" ry="1" /></g>
<g transform="translate(919.739250 270.607600) rotate(352.618890) scale(27.062478 19.545458)"><ellipse fill="#e4feff" fill-opacity="0.501961" cx="0" cy="0" rx="1" ry="1" /></g>
<g transform="translate(1089.982001 415.347166) rotate(307.642083) scale(37.914569 14.090640)"><ellipse fill="#b3c4c6" fill-opacity="0.501961" cx="0" cy="0" rx="1" ry="1" /></g>
<g transform="translate(660.863019 150.172244) rotate(180.386505) scale(5.737804 35.300431)"><ellipse fill="#dfffff" fill-opacity="0.501961" cx="0" cy="0" rx="1" ry="1" /></g>
<g transform="translate(586.090561 388.905162) rotate(361.378501) scale(25.224958 68.888581)"><ellipse fill="#76f1ff" fill-opacity="0.501961" cx="0" cy="0" rx="1" ry="1" /></g>
<g transform="translate(626.301341 301.845270) rotate(354.087092) scale(24.764309 13.124410)"><ellipse fill="#000000" fill-opacity="0.501961" cx="0" cy="0" rx="1" ry="1" /></g>
<g transform="translate(708.245390 304.250711) rotate(175.744585) scale(52.587632 112.056389)"><ellipse fill="#e0ffff" fill-opacity="0.501961" cx="0" cy="0" rx="1" ry="1" /></g>
<g transform="translate(509.345245 360.838692) rotate(290.654893) scale(63.386047 20.286422)"><ellipse fill="#ffffff" fill-opacity="0.501961" cx="0" cy="0" rx="1" ry="1" /></g>
<g transform="translate(157.836919 97.981907) rotate(420.066151) scale(61.870707 109.171512)"><ellipse fill="#41767c" fill-opacity="0.501961" cx="0" cy="0" rx="1" ry="1" /></g>
<g transform="translate(438.994150 168.572064) rotate(146.882716) scale(7.687191 22.644853)"><ellipse fill="#ffffff" fill-opacity="0.501961" cx="0" cy="0" rx="1" ry="1" /></g>
<g transform="translate(959.509421 314.535941) rotate(199.014995) scale(24.756036 96.643565)"><ellipse fill="#110303" fill-opacity="0.501961" cx="0" cy="0" rx="1" ry="1" /></g>
<g transform="translate(426.919523 224.751808) rotate(288.380008) scale(22.064180 40.842802)"><ellipse fill="#fff2f5" fill-opacity="0.501961" cx="0" cy="0" rx="1" ry="1" /></g>
<g transform="translate(399.991497 511.935471) rotate(244.334171) scale(31.256599 70.084262)"><ellipse fill="#130404" fill-opacity="0.501961" cx="0" cy="0" rx="1" ry="1" /></g>
<g transform="translate(1187.441549 498.396532) rotate(-29.638787) scale(26.734009 62.440141)"><ellipse fill="#007383" fill-opacity="0.501961" cx="0" cy="0" rx="1" ry="1" /></g>
<g transform="translate(616.161513 414.398606) rotate(105.090113) scale(20.361392 6.912006)"><ellipse fill="#000000" fill-opacity="0.501961" cx="0" cy="0" rx="1" ry="1" /></g>
<g transform="translate(672.507404 196.602007) rotate(190.734415) scale(4.833879 39.649762)"><ellipse fill="#020103" fill-opacity="0.501961" cx="0" cy="0" rx="1" ry="1" /></g>
<g transform="translate(1199.000000 108.425486) rotate(263.801665) scale(81.472495 17.025037)"><ellipse fill="#3e767c" fill-opacity="0.501961" cx="0" cy="0" rx="1" ry="1" /></g>
<g transform="translate(275.370530 394.830149) rotate(279.080229) scale(73.117585 19.036234)"><ellipse fill="#0e0202" fill-opacity="0.501961" cx="0" cy="0" rx="1" ry="1" /></g>
<g transform="translate(621.762466 322.246670) rotate(192.689586) scale(40.370970 8.148325)"><ellipse fill="#67ffff" fill-opacity="0.501961" cx="0" cy="0" rx="1" ry="1" /></g>
<g transform="translate(461.296692 163.033910) rotate(261.142959) scale(21.446107 12.636716)"><ellipse fill="#070000" fill-opacity="0.501961" cx="0" cy="0" rx="1" ry="1" /></g>
<g transform="translate(290.683016 457.898375) rotate(223.560088) scale(9.237130 19.897661)"><ellipse fill="#dff9fc" fill-opacity="0.501961" cx="0" cy="0" rx="1" ry="1" /></g>
<g transform="translate(838.386984 538.909854) rotate(375.885624) scale(106.838290 23.236893)"><ellipse fill="#0e0100" fill-opacity="0.501961" cx="0" cy="0" rx="1" ry="1" /></g>
<g transform="translate(414.663891 182.850201) rotate(263.792827) scale(18.862756 23.341715)"><ellipse fill="#1c0000" fill-opacity="0.501961" cx="0" cy="0" rx="1" ry="1" /></g>
<g transform="translate(731.872202 502.036039) rotate(288.049390) scale(43.769134 6.514237)"><ellipse fill="#32d4e8" fill-opacity="0.501961" cx="0" cy="0" rx="1" ry="1" /></g>
<g transform="translate(888.853178 342.619212) rotate(271.257645) scale(100.360862 29.589519)"><ellipse fill="#c5e4e8" fill-opacity="0.501961" cx="0" cy="0" rx="1" ry="1" /></g>
<g transform="translate(1145.052148 175.000782) rotate(125.094226) scale(22.689437 66.394192)"><ellipse fill="#040000" fill-opacity="0.501961" cx="0" cy="0" rx="1" ry="1" /></g>
<g transform="translate(753.535814 330.708705) rotate(179.487676) scale(108.216518 103.808583)"><ellipse fill="#d7f5fa" fill-opacity="0.501961" cx="0" cy="0" rx="1" ry="1" /></g>
<g transform="translate(339.104339 34.706678) rotate(-24.132847) scale(99.689074 57.644795)"><ellipse fill="#005d6a" fill-opacity="0.501961" cx="0" cy="0" rx="1" ry="1" /></g>
<g transform="translate(210.259675 198.494291) rotate(185.654621) scale(33.564581 115.074165)"><ellipse fill="#67afb8" fill-opacity="0.501961" cx="0" cy="0" rx="1" ry="1" /></g>
<g transform="translate(407.079736 349.919093) rotate(135.214998) scale(12.557275 33.333353)"><ellipse fill="#fffafb" fill-opacity="0.501961" cx="0" cy="0" rx="1" ry="1" /></g>
<g transform="translate(624.371272 357.676061) rotate(185.121098) scale(9.974087 24.205804)"><ellipse fill="#000000" fill-opacity="0.501961" cx="0" cy="0" rx="1" ry="1" /></g>
<g transform="translate(354.631771 165.957183) rotate(339.919220) scale(66.982376 27.714606)"><ellipse fill="#00afc5" fill-opacity="0.501961" cx="0" cy="0" rx="1" ry="1" /></g>
<g transform="translate(660.716602 588.432779) rotate(89.814070) scale(131.778029 4.419614)"><ellipse fill="#9cd0d6" fill-opacity="0.501961" cx="0" cy="0" rx="1" ry="1" /></g>
<g transform="translate(1158.606901 427.438821) rotate(264.337484) scale(27.241835 93.786435)"><ellipse fill="#8b9697" fill-opacity="0.501961" cx="0" cy="0" rx="1" ry="1" /></g>
<g transform="translate(486.281666 497.733001) rotate(74.352528) scale(55.210072 11.333424)"><ellipse fill="#cee3e6" fill-opacity="0.501961" cx="0" cy="0" rx="1" ry="1" /></g>
<g transform="translate(570.471846 184.303341) rotate(45.808541) scale(44.802828 17.747577)"><ellipse fill="#0d0101" fill-opacity="0.501961" cx="0" cy="0" rx="1" ry="1" /></g>
<g transform="translate(386.330828 415.748007) rotate(224.639788) scale(21.184817 35.572915)"><ellipse fill="#17afc7" fill-opacity="0.501961" cx="0" cy="0" rx="1" ry="1" /></g>
<g transform="translate(635.049145 428.085642) rotate(295.950571) scale(36.034027 18.027438)"><ellipse fill="#e8ffff" fill-opacity="0.501961" cx="0" cy="0" rx="1" ry="1" /></g>
<g transform="translate(638.731648 159.337815) rotate(369.335598) scale(115.697891 5.433772)"><ellipse fill="#e2fbfe" fill-opacity="0.501961" cx="0" cy="0" rx="1" ry="1" /></g>
<g transform="translate(886.825760 265.005948) rotate(114.596916) scale(21.825210 57.160839)"><ellipse fill="#c9dfe3" fill-opacity="0.501961" cx="0" cy="0" rx="1" ry="1" /></g>
<g transform="translate(745.165987 460.701103) rotate(277.456854) scale(28.444777 85.784402)"><ellipse fill="#c7e2e6" fill-opacity="0.501961" cx="0" cy="0" rx="1" ry="1" /></g>
<g transform="translate(291.401188 525.312546) rotate(129.888562) scale(108.760754 33.392517)"><ellipse fill="#120909" fill-opacity="0.501961" cx="0" cy="0" rx="1" ry="1" /></g>
<g transform="translate(27.114952 9.889985) rotate(51.485881) scale(22.850831 103.851699)"><ellipse fill="#000000" fill-opacity="0.501961" cx="0" cy="0" rx="1" ry="1" /></g>
</g>
</svg>