<svg xmlns="http://www.w3.org/2000/svg" version="1.1" width="1200" height="630">
<rect x="0" y="0" width="1200" height="630" fill="#592f32" />
<g transform="scale(1.000000) translate(0.5 0.5)">
<g transform="translate(662.707227 473.862011) rotate(360.565781) scale(326.925860 199.314032)"><ellipse fill="#ff8d86" fill-opacity="0.501961" cx="0" cy="0" rx="1" ry="1" /></g>
<g transform="translate(934.420735 264.544357) rotate(124.778825) scale(111.258049 238.958231)"><ellipse fill="#ff3b25" fill-opacity="0.501961" cx="0" cy="0" rx="1" ry="1" /></g>
<g transform="translate(449.332998 430.256703) rotate(106.460360) scale(154.280665 78.053785)"><ellipse fill="#fec6cd" fill-opacity="0.501961" cx="0" cy="0" rx="1" ry="1" /></g>
<g transform="translate(391.408595 69.744406) rotate(246.323969) scale(232.244267 982.427460)"><ellipse fill="#00000a" fill-opacity="0.501961" cx="0" cy="0" rx="1" ry="1" /></g>
<g transform="translate(1106.242599 554.347966) rotate(144.519526) scale(130.184036 149.139299)"><ellipse fill="#000000" fill-opacity="0.501961" cx="0" cy="0" rx="1" ry="1" /></g>
<g transform="translate(322.985035 593.696579) rotate(39.101080) scale(108.525163 68.459972)"><ellipse fill="#000005" fill-opacity="0.501961" cx="0" cy="0" rx="1" ry="1" /></g>
<g transform="translate(612.416240 33.038978) rotate(85.437976) scale(89.692057 1187.420872)"><ellipse fill="#00060f" fill-opacity="0.501961" cx="0" cy="0" rx="1" ry="1" /></g>
<g transform="translate(351.867750 376.164841) rotate(130.204370) scale(61.510410 45.018269)"><ellipse fill="#000014" fill-opacity="0.501961" cx="0" cy="0" rx="1" ry="1" /></g>
<g transform="translate(349.624557 481.360353) rotate(161.862820) scale(39.517183 36.168804)"><ellipse fill="#efe1e8" fill-opacity="0.501961" cx="0" cy="0" rx="1" ry="1" /></g>
<g transform="translate(853.839703 375.297653) rotate(22.899551) scale(113.117293 247.855442)"><ellipse fill="#e32313" fill-opacity="0.501961" cx="0" cy="0" rx="1" ry="1" /></g>
<g transform="translate(1082.386219 184.127617) rotate(139.543550) scale(66.198818 147.716341)"><ellipse fill="#648b89" fill-opacity="0.501961" cx="0" cy="0" rx="1" ry="1" /></g>
<g transform="translate(203.647554 402.567758) rotate(233.391698) scale(108.158099 79.437626)"><ellipse fill="#000617" fill-opacity="0.501961" cx="0" cy="0" rx="1" ry="1" /></g>
<g transform="translate(761.112170 141.435410) rotate(128.418409) scale(38.622886 50.875999)"><ellipse fill="#ff4836" fill-opacity="0.501961" cx="0" cy="0" rx="1" ry="1" /></g>
<g transform="translate(672.561350 241.209636) rotate(175.087121) scale(81.539978 44.996657)"><ellipse fill="#00051f" fill-opacity="0.501961" cx="0" cy="0" rx="1" ry="1" /></g>
<g transform="translate(1117.086538 43.093430) rotate(119.441162) scale(59.149193 289.154198)"><ellipse fill="#000000" fill-opacity="0.501961" cx="0" cy="0" rx="1" ry="1" /></g>
<g transform="translate(432.476603 312.670422) rotate(109.871532) scale(32.495275 35.716749)"><ellipse fill="#ff7d79" fill-opacity="0.501961" cx="0" cy="0" rx="1" ry="1" /></g>
<g transform="translate(601.980087 353.593288) rotate(274.573392) scale(69.628701 201.369567)"><ellipse fill="#ff706e" fill-opacity="0.501961" cx="0" cy="0" rx="1" ry="1" /></g>
<g transform="translate(871.766385 93.620950) rotate(240.201014) scale(57.803817 27.073635)"><ellipse fill="#ef3826" fill-opacity="0.501961" cx="0" cy="0" rx="1" ry="1" /></g>
<g transform="translate(633.864238 610.059564) rotate(80.053522) scale(56.657067 220.296275)"><ellipse fill="#762826" fill-opacity="0.501961" cx="0" cy="0" rx="1" ry="1" /></g>
<g transform="translate(602.168509 207.846163) rotate(268.721478) scale(78.016167 133.335126)"><ellipse fill="#00182b" fill-opacity="0.501961" cx="0" cy="0" rx="1" ry="1" /></g>
<g transform="translate(926.393796 578.648380) rotate(287.002226) scale(96.818294 45.368663)"><ellipse fill="#92989e" fill-opacity="0.501961" cx="0" cy="0" rx="1" ry="1" /></g>
<g transform="translate(1120.004047 498.854529) rotate(283.514039) scale(72.008911 150.300354)"><ellipse fill="#000514" fill-opacity="0.501961" cx="0" cy="0" rx="1" ry="1" /></g>
<g transform="translate(435.429948 442.079255) rotate(184.081287) scale(51.754238 78.943998)"><ellipse fill="#ebd6dc" fill-opacity="0.501961" cx="0" cy="0" rx="1" ry="1" /></g>
<g transform="translate(158.944890 510.324515) rotate(30.968643) scale(76.771200 40.036442)"><ellipse fill="#b83029" fill-opacity="0.501961" cx="0" cy="0" rx="1" ry="1" /></g>
<g transform="translate(296.334520 279.175807) rotate(360.427142) scale(6.039566 120.342352)"><ellipse fill="#ff625c" fill-opacity="0.501961" cx="0" cy="0" rx="1" ry="1" /></g>
<g transform="translate(800.325762 281.338897) rotate(27.907792) scale(42.196008 10.961095)"><ellipse fill="#001f3b" fill-opacity="0.501961" cx="0" cy="0" rx="1" ry="1" /></g>
<g transform="translate(78.957325 614.112187) rotate(285.598465) scale(56.218718 357.595735)"><ellipse fill="#350300" fill-opacity="0.501961" cx="0" cy="0" rx="1" ry="1" /></g>
<g transform="translate(933.157282 442.130031) rotate(314.366111) scale(216.009342 35.126307)"><ellipse fill="#b7271c" fill-opacity="0.501961" cx="0" cy="0" rx="1" ry="1" /></g>
<g transform="translate(1124.042831 551.550285) rotate(154.173978) scale(155.270057 123.612584)"><ellipse fill="#00050e" fill-opacity="0.501961" cx="0" cy="0" rx="1" ry="1" /></g>
<g transform="translate(533.090276 414.805404) rotate(59.441192) scale(153.322297 45.085599)"><ellipse fill="#dd6566" fill-opacity="0.501961" cx="0" cy="0" rx="1" ry="1" /></g>
<g transform="translate(1194.680424 238.999866) rotate(-0.001752) scale(10.056178 153.708228)"><ellipse fill="#000006" fill-opacity="0.501961" cx="0" cy="0" rx="1" ry="1" /></g>
<g transform="translate(763.102437 359.404997) rotate(83.615973) scale(91.048326 38.591767)"><ellipse fill="#f63626" fill-opacity="0.501961" cx="0" cy="0" rx="1" ry="1" /></g>
<g transform="translate(63.669219 455.988362) rotate(275.090739) scale(36.598309 53.759976)"><ellipse fill="#ad2f29" fill-opacity="0.501961" cx="0" cy="0" rx="1" ry="1" /></g>
<g transform="translate(373.065990 372.760512) rotate(23.441481) scale(24.079851 50.655748)"><ellipse fill="#001020" fill-opacity="0.501961" cx="0" cy="0" rx="1" ry="1" /></g>
<g transform="translate(1155.771304 383.511005) rotate(128.254258) scale(31.307561 52.109276)"><ellipse fill="#af1d0f" fill-opacity="0.501961" cx="0" cy="0" rx="1" ry="1" /></g>
<g transform="translate(799.789160 220.690484) rotate(222.739000) scale(98.950552 37.004465)"><ellipse fill="#f94539" fill-opacity="0.501961" cx="0" cy="0" rx="1" ry="1" /></g>
<g transform="translate(378.759438 530.351645) rotate(36.170580) scale(99.342791 20.257261)"><ellipse fill="#aa9ca1" fill-opacity="0.501961" cx="0" cy="0" rx="1" ry="1" /></g>
<g transform="translate(310.737753 607.467461) rotate(352.277934) scale(90.882092 67.614350)"><ellipse fill="#000613" fill-opacity="0.501961" cx="0" cy="0" rx="1" ry="1" /></g>
<g transform="translate(127.959620 252.919453) rotate(423.599716) scale(228.201405 144.211764)"><ellipse fill="#000f1a" fill-opacity="0.501961" cx="0" cy="0" rx="1" ry="1" /></g>
<g transform="translate(632.684462 391.671307) rotate(52.903787) scale(121.615019 81.853133)"><ellipse fill="#eb7678" fill-opacity="0.501961" cx="0" cy="0" rx="1" ry="1" /></g>
<g transform="translate(981.162731 136.301494) rotate(218.537016) scale(56.731773 21.522802)"><ellipse fill="#778583" fill-opacity="0.501961" cx="0" cy="0" rx="1" ry="1" /></g>
<g transform="translate(364.611600 438.171940) rotate(135.686286) scale(76.516045 12.573613)"><ellipse fill="#edc9ce" fill-opacity="0.501961" cx="0" cy="0" rx="1" ry="1" /></g>
<g transform="translate(1133.040530 59.658638) rotate(29.334098) scale(95.087960 53.671377)"><ellipse fill="#00030b" fill-opacity="0.501961" cx="0" cy="0" rx="1" ry="1" /></g>
<g transform="translate(755.008367 271.055494) rotate(200.906663) scale(7.711935 31.191981)"><ellipse fill="#ff9f9f" fill-opacity="0.501961" cx="0" cy="0" rx="1" ry="1" /></g>
<g transform="translate(328.003904 435.862203) rotate(313.622917) scale(42.095522 13.562262)"><ellipse fill="#00091b" fill-opacity="0.501961" cx="0" cy="0" rx="1" ry="1" /></g>
<g transform="translate(402.432025 191.973136) rotate(228.190476) scale(89.864090 111.842797)"><ellipse fill="#00192c" fill-opacity="0.501961" cx="0" cy="0" rx="1" ry="1" /></g>
<g transform="translate(800.073139 123.619489) rotate(11.605605) scale(89.741406 16.383760)"><ellipse fill="#da372b" fill-opacity="0.501961" cx="0" cy="0" rx="1" ry="1" /></g>
<g transform="translate(972.293762 56.556744) rotate(144.683206) scale(74.277462 27.286421)"><ellipse fill="#000610" fill-opacity="0.501961" cx="0" cy="0" rx="1" ry="1" /></g>
<g transform="translate(900.257154 119.077543) rotate(129.175550) scale(25.519489 75.137736)"><ellipse fill="#b83025" fill-opacity="0.501961" cx="0" cy="0" rx="1" ry="1" /></g>
<g transform="translate(876.714370 600.940628) rotate(-32.377725) scale(75.699405 36.288771)"><ellipse fill="#777378" fill-opacity="0.501961" cx="0" cy="0" rx="1" ry="1" /></g>
<g transform="translate(1157.633424 310.403008) rotate(324.485243) scale(26.366800 38.190840)"><ellipse fill="#697875" fill-opacity="0.501961" cx="0" cy="0" rx="1" ry="1" /></g>
<g transform="translate(335.877781 350.416880) rotate(99.855918) scale(103.898898 31.107910)"><ellipse fill="#001a2a" fill-opacity="0.501961" cx="0" cy="0" rx="1" ry="1" /></g>
<g transform="translate(785.788352 574.022003) rotate(126.367348) scale(87.943631 45.364984)"><ellipse fill="#972015" fill-opacity="0.501961" cx="0" cy="0" rx="1" ry="1" /></g>
<g transform="translate(427.603304 315.582039) rotate(147.699633) scale(20.290175 39.417438)"><ellipse fill="#e77575" fill-opacity="0.501961" cx="0" cy="0" rx="1" ry="1" /></g>
<g transform="translate(448.087879 560.891008) rotate(207.710485) scale(30.313269 78.087584)"><ellipse fill="#a69196" fill-opacity="0.501961" cx="0" cy="0" rx="1" ry="1" /></g>
<g transform="translate(172.614353 152.142699) rotate(124.996844) scale(323.336917 115.167204)"><ellipse fill="#001019" fill-opacity="0.501961" cx="0" cy="0" rx="1" ry="1" /></g>
<g transform="translate(324.966057 535.715054) rotate(180.818563) scale(35.476344 4.351618)"><ellipse fill="#ff5852" fill-opacity="0.501961" cx="0" cy="0" rx="1" ry="1" /></g>
<g transform="translate(1097.557361 411.424686) rotate(179.368813) scale(80.560601 12.564626)"><ellipse fill="#b22a20" fill-opacity="0.501961" cx="0" cy="0" rx="1" ry="1" /></g>
<g transform="translate(912.819668 288.440095) rotate(-29.998326) scale(72.925283 162.217918)"><ellipse fill="#d54036" fill-opacity="0.501961" cx="0" cy="0" rx="1" ry="1" /></g>
<g transform="translate(296.034169 442.908839) rotate(270.440749) scale(108.512442 4.955545)"><ellipse fill="#fe524c" fill-opacity="0.501961" cx="0" cy="0" rx="1" ry="1" /></g>
<g transform="translate(714.166211 242.178846) rotate(-123.618892) scale(43.945182 40.081078)"><ellipse fill="#001827" fill-opacity="0.501961" cx="0" cy="0" rx="1" ry="1" /></g>
<g transform="translate(1078.423717 279.281157) rotate(224.324638) scale(141.410504 13.628235)"><ellipse fill="#b0261d" fill-opacity="0.501961" cx="0" cy="0" rx="1" ry="1" /></g>
<g transform="translate(113.480258 540.573147) rotate(34.347958) scale(139.083653 48.087809)"><ellipse fill="#79221f" fill-opacity="0.501961" cx="0" cy="0" rx="1" ry="1" /></g>
<g transform="translate(510.168841 255.439858) rotate(85.463919) scale(27.166190 99.353719)"><ellipse fill="#001a2c" fill-opacity="0.501961" cx="0" cy="0" rx="1" ry="1" /></g>
<g transform="translate(421.315151 515.840149) rotate(112.408270) scale(58.554083 72.096850)"><ellipse fill="#bf9da0" fill-opacity="0.501961" cx="0" cy="0" rx="1" ry="1" /></g>
<g transform="translate(515.411198 465.216010) rotate(179.634587) scale(20.965704 80.512796)"><ellipse fill="#cb5a5a" fill-opacity="0.501961" cx="0" cy="0" rx="1" ry="1" /></g>
<g transform="translate(813.944592 388.402914) rotate(321.177135) scale(99.367997 82.083170)"><ellipse fill="#e6382b" fill-opacity="0.501961" cx="0" cy="0" rx="1" ry="1" /></g>
<g transform="translate(660.222762 526.692626) rotate(324.376226) scale(73.342699 61.159904)"><ellipse fill="#b95c5d" fill-opacity="0.501961" cx="0" cy="0" rx="1" ry="1" /></g>
<g transform="translate(227.622824 466.150825) rotate(274.542365) scale(27.732520 64.019907)"><ellipse fill="#000f1a" fill-opacity="0.501961" cx="0" cy="0" rx="1" ry="1" /></g>
<g transform="translate(960.146344 482.888163) rotate(295.635809) scale(27.587233 12.790231)"><ellipse fill="#bfafb6" fill-opacity="0.501961" cx="0" cy="0" rx="1" ry="1" /></g>
<g transform="translate(723.718503 294.177209) rotate(267.313629) scale(11.458626 76.135825)"><ellipse fill="#f57f82" fill-opacity="0.501961" cx="0" cy="0" rx="1" ry="1" /></g>
<g transform="translate(997.965304 453.199200) rotate(126.382504) scale(27.498178 20.331616)"><ellipse fill="#000c19" fill-opacity="0.501961" cx="0" cy="0" rx="1" ry="1" /></g>
<g transform="translate(776.703258 276.003062) rotate(80.167758) scale(8.018364 19.648471)"><ellipse fill="#00152b" fill-opacity="0.501961" cx="0" cy="0" rx="1" ry="1" /></g>
<g transform="translate(1154.861185 167.916230) rotate(239.961165) scale(51.014165 25.091617)"><ellipse fill="#445c5a" fill-opacity="0.501961" cx="0" cy="0" rx="1" ry="1" /></g>
<g transform="translate(678.566990 127.028721) rotate(245.907457) scale(106.936569 29.156276)"><ellipse fill="#001827" fill-opacity="0.501961" cx="0" cy="0" rx="1" ry="1" /></g>
<g transform="translate(258.356904 539.646048) rotate(126.552794) scale(48.467961 21.395241)"><ellipse fill="#000b19" fill-opacity="0.501961" cx="0" cy="0" rx="1" ry="1" /></g>
<g transform="translate(1133.094048 586.350896) rotate(203.070956) scale(157.387030 164.118711)"><ellipse fill="#000c12" fill-opacity="0.501961" cx="0" cy="0" rx="1" ry="1" /></g>
<g transform="translate(556.248658 86.814167) rotate(157.061553) scale(151.687333 203.294357)"><ellipse fill="#011824" fill-opacity="0.501961" cx="0" cy="0" rx="1" ry="1" /></g>
<g transform="translate(262.069198 500.235191) rotate(151.086882) scale(46.949572 5.794740)"><ellipse fill="#d74541" fill-opacity="0.501961" cx="0" cy="0" rx="1" ry="1" /></g>
<g transform="translate(54.658614 20.959718) rotate(339.829114) scale(216.323947 86.346418)"><ellipse fill="#000305" fill-opacity="0.501961" cx="0" cy="0" rx="1" ry="1" /></g>
<g transform="translate(380.845317 376.488801) rotate(203.590755) scale(22.518615 24.212934)"><ellipse fill="#001421" fill-opacity="0.501961" cx="0" cy="0" rx="1" ry="1" /></g>
<g transform="translate(446.359878 391.020043) rotate(348.818489) scale(22.194805 39.141686)"><ellipse fill="#fad1d6" fill-opacity="0.501961" cx="0" cy="0" rx="1" ry="1" /></g>
<g transform="translate(424.708319 623.910888) rotate(148.848723) scale(17.248132 38.606688)"><ellipse fill="#7d2927" fill-opacity="0.501961" cx="0" cy="0" rx="1" ry="1" /></g>
<g transform="translate(384.266989 309.653620) rotate(90.761488) scale(80.881219 17.998380)"><ellipse fill="#001b2b" fill-opacity="0.501961" cx="0" cy="0" rx="1" ry="1" /></g>
<g transform="translate(919.060668 533.897155) rotate(51.416764) scale(19.533890 71.812666)"><ellipse fill="#ad9195" fill-opacity="0.501961" cx="0" cy="0" rx="1" ry="1" /></g>
<g transform="translate(740.974944 152.415949) rotate(165.594447) scale(21.604640 57.424234)"><ellipse fill="#d9392d" fill-opacity="0.501961" cx="0" cy="0" rx="1" ry="1" /></g>
<g transform="translate(1082.031859 222.249089) rotate(55.348270) scale(109.654388 25.170390)"><ellipse fill="#6d7171" fill-opacity="0.501961" cx="0" cy="0" rx="1" ry="1" /></g>
<g transform="translate(1155.451479 47.269658) rotate(103.917220) scale(63.383422 150.661856)"><ellipse fill="#00080d" fill-opacity="0.501961" cx="0" cy="0" rx="1" ry="1" /></g>
<g transform="translate(439.689839 320.841660) rotate(44.932403) scale(33.858393 41.207541)"><ellipse fill="#de7171" fill-opacity="0.501961" cx="0" cy="0" rx="1" ry="1" /></g>
<g transform="translate(1195.187076 358.134794) rotate(296.649551) scale(13.461805 26.609201)"><ellipse fill="#00010c" fill-opacity="0.501961" cx="0" cy="0" rx="1" ry="1" /></g>
<g transform="translate(104.599061 462.754172) rotate(124.547740) scale(24.457868 76.427992)"><ellipse fill="#973432" fill-opacity="0.501961" cx="0" cy="0" rx="1" ry="1" /></g>
<g transform="translate(313.862035 511.405925) rotate(44.029954) scale(16.908499 10.908203)"><ellipse fill="#000818" fill-opacity="0.501961" cx="0" cy="0" rx="1" ry="1" /></g>
<g transform="translate(820.742416 291.823779) rotate(372.542066) scale(20.549340 6.285107)"><ellipse fill="#001225" fill-opacity="0.501961" cx="0" cy="0" rx="1" ry="1" /></g>
<g transform="translate(290.148256 570.063148) rotate(217.623527) scale(77.726315 31.106123)"><ellipse fill="#001018" fill-opacity="0.501961" cx="0" cy="0" rx="1" ry="1" /></g>
<g transform="translate(759.856990 248.385098) rotate(288.235720) scale(12.724152 4.401082)"><ellipse fill="#ffe7ef" fill-opacity="0.501961" cx="0" cy="0" rx="1" ry="1" /></g>
<g transform="translate(20.630042 615.965106) rotate(206.393770) scale(162.667657 29.028484)"><ellipse fill="#1a0808" fill-opacity="0.501961" cx="0" cy="0" rx="1" ry="1" /></g>
<g transform="translate(260.033730 395.929036) rotate(361.318072) scale(30.794046 62.338161)"><ellipse fill="#001826" fill-opacity="0.501961" cx="0" cy="0" rx="1" ry="1" /></g>
<g transform="translate(933.713685 151.456642) rotate(405.642822) scale(131.631478 24.946328)"><ellipse fill="#b0332a" fill-opacity="0.501961" cx="0" cy="0" rx="1" ry="1" /></g>
<g transform="translate(993.784880 488.526131) rotate(96.804186) scale(61.426050 18.265836)"><ellipse fill="#00131f" fill-opacity="0.501961" cx="0" cy="0" rx="1" ry="1" /></g>
<g transform="translate(1011.556678 151.807923) rotate(142.850287) scale(29.621027 80.901255)"><ellipse fill="#686c6c" fill-opacity="0.501961" cx="0" cy="0" rx="1" ry="1" /></g>
</g>
</svg>