<svg xmlns="http://www.w3.org/2000/svg" version="1.1" width="1200" height="630">
<rect x="0" y="0" width="1200" height="630" fill="#253940" />
<g transform="scale(1.000000) translate(0.5 0.5)">
<rect fill="#ffffff" fill-opacity="0.501961" x="248" y="160" width="206" height="176" />
<rect fill="#dbffff" fill-opacity="0.501961" x="627" y="37" width="185" height="185" />
<rect fill="#61ffff" fill-opacity="0.501961" x="581" y="253" width="152" height="127" />
<rect fill="#a4b8b9" fill-opacity="0.501961" x="890" y="0" width="148" height="294" />
<rect fill="#88f5ff" fill-opacity="0.501961" x="350" y="472" width="139" height="132" />
<rect fill="#faffff" fill-opacity="0.501961" x="316" y="129" width="80" height="231" />
<rect fill="#000000" fill-opacity="0.501961" x="0" y="0" width="265" height="239" />
<rect fill="#000000" fill-opacity="0.501961" x="984" y="229" width="174" height="278" />
<rect fill="#000000" fill-opacity="0.501961" x="415" y="291" width="161" height="191" />
<rect fill="#ecffff" fill-opacity="0.501961" x="238" y="214" width="242" height="60" />
<rect fill="#bdcdcd" fill-opacity="0.501961" x="812" y="56" width="191" height="72" />
<rect fill="#00f2ff" fill-opacity="0.501961" x="839" y="323" width="64" height="75" />
<rect fill="#7ce8f4" fill-opacity="0.501961" x="517" y="107" width="300" height="63" />
<rect fill="#000000" fill-opacity="0.501961" x="357" y="0" width="291" height="81" />
<rect fill="#000000" fill-opacity="0.501961" x="793" y="151" width="145" height="130" />
<rect fill="#02000a" fill-opacity="0.501961" x="486" y="186" width="179" height="92" />
<rect fill="#00ceeb" fill-opacity="0.501961" x="206" y="314" width="68" height="81" />
<rect fill="#a6eaf3" fill-opacity="0.501961" x="669" y="140" width="105" height="107" />
<rect fill="#f6ffff" fill-opacity="0.501961" x="926" y="234" width="38" height="88" />
<rect fill="#000000" fill-opacity="0.501961" x="408" y="106" width="67" height="74" />
<rect fill="#5af9ff" fill-opacity="0.501961" x="572" y="285" width="166" height="61" />
<rect fill="#000000" fill-opacity="0.501961" x="513" y="385" width="201" height="245" />
<rect fill="#eeffff" fill-opacity="0.501961" x="956" y="205" width="50" height="57" />
<rect fill="#40a7b2" fill-opacity="0.501961" x="406" y="585" width="138" height="45" />
<rect fill="#65b6bd" fill-opacity="0.501961" x="0" y="343" width="70" height="69" />
<rect fill="#00b0cc" fill-opacity="0.501961" x="484" y="85" width="89" height="59" />
<rect fill="#000000" fill-opacity="0.501961" x="20" y="407" width="320" height="223" />
<rect fill="#0094a9" fill-opacity="0.501961" x="240" y="30" width="127" height="83" />
<rect fill="#000000" fill-opacity="0.501961" x="907" y="163" width="66" height="50" />
<rect fill="#d3f1f4" fill-opacity="0.501961" x="282" y="184" width="150" height="129" />
<rect fill="#000000" fill-opacity="0.501961" x="0" y="72" width="270" height="152" />
<rect fill="#97c3c7" fill-opacity="0.501961" x="662" y="6" width="88" height="191" />
<rect fill="#000002" fill-opacity="0.501961" x="278" y="323" width="55" height="78" />
<rect fill="#9ab9bd" fill-opacity="0.501961" x="980" y="134" width="96" height="65" />
<rect fill="#000001" fill-opacity="0.501961" x="0" y="35" width="197" height="320" />
<rect fill="#82e2f0" fill-opacity="0.501961" x="484" y="267" width="77" height="18" />
<rect fill="#00e4ff" fill-opacity="0.501961" x="892" y="142" width="13" height="180" />
<rect fill="#ffffff" fill-opacity="0.501961" x="917" y="299" width="19" height="46" />
<rect fill="#000003" fill-opacity="0.501961" x="441" y="278" width="80" height="206" />
<rect fill="#000000" fill-opacity="0.501961" x="902" y="340" width="217" height="168" />
<rect fill="#010007" fill-opacity="0.501961" x="497" y="359" width="110" height="216" />
<rect fill="#3097a1" fill-opacity="0.501961" x="1134" y="428" width="66" height="66" />
<rect fill="#daffff" fill-opacity="0.501961" x="715" y="294" width="181" height="8" />
<rect fill="#bdc6c5" fill-opacity="0.501961" x="861" y="17" width="29" height="104" />
<rect fill="#000000" fill-opacity="0.501961" x="727" y="304" width="133" height="326" />
<rect fill="#4ce4ff" fill-opacity="0.501961" x="661" y="244" width="62" height="128" />
<rect fill="#000000" fill-opacity="0.501961" x="1069" y="0" width="131" height="382" />
<rect fill="#00d2f4" fill-opacity="0.501961" x="825" y="344" width="78" height="40" />
<rect fill="#000000" fill-opacity="0.501961" x="375" y="99" width="71" height="49" />
<rect fill="#606261" fill-opacity="0.501961" x="15" y="533" width="72" height="97" />
<rect fill="#000000" fill-opacity="0.501961" x="612" y="198" width="69" height="23" />
<rect fill="#efffff" fill-opacity="0.501961" x="351" y="311" width="33" height="57" />
<rect fill="#2e404c" fill-opacity="0.501961" x="581" y="183" width="57" height="105" />
<rect fill="#00030e" fill-opacity="0.501961" x="40" y="288" width="237" height="31" />
<rect fill="#000000" fill-opacity="0.501961" x="907" y="147" width="26" height="124" />
<rect fill="#000003" fill-opacity="0.501961" x="782" y="198" width="110" height="92" />
<rect fill="#000000" fill-opacity="0.501961" x="776" y="0" width="88" height="47" />
<rect fill="#000000" fill-opacity="0.501961" x="858" y="559" width="342" height="71" />
<rect fill="#a3cbd0" fill-opacity="0.501961" x="615" y="96" width="193" height="82" />
<rect fill="#000000" fill-opacity="0.501961" x="827" y="117" width="46" height="75" />
<rect fill="#50ffff" fill-opacity="0.501961" x="715" y="375" width="11" height="225" />
<rect fill="#000000" fill-opacity="0.501961" x="994" y="249" width="75" height="91" />
<rect fill="#000000" fill-opacity="0.501961" x="103" y="596" width="292" height="34" />
<rect fill="#000000" fill-opacity="0.501961" x="946" y="306" width="49" height="287" />
<rect fill="#000410" fill-opacity="0.501961" x="568" y="0" width="33" height="148" />
<rect fill="#000000" fill-opacity="0.501961" x="401" y="326" width="52" height="137" />
<rect fill="#52f5ff" fill-opacity="0.501961" x="621" y="344" width="54" height="42" />
<rect fill="#000000" fill-opacity="0.501961" x="711" y="230" width="31" height="18" />
<rect fill="#e9ffff" fill-opacity="0.501961" x="417" y="209" width="52" height="61" />
<rect fill="#74cbd5" fill-opacity="0.501961" x="360" y="490" width="139" height="34" />
<rect fill="#288d97" fill-opacity="0.501961" x="1015" y="506" width="114" height="68" />
<rect fill="#90faff" fill-opacity="0.501961" x="606" y="225" width="18" height="28" />
<rect fill="#6abac3" fill-opacity="0.501961" x="0" y="332" width="45" height="24" />
<rect fill="#c3cece" fill-opacity="0.501961" x="922" y="127" width="90" height="29" />
<rect fill="#000000" fill-opacity="0.501961" x="532" y="243" width="83" height="33" />
<rect fill="#a9b2b4" fill-opacity="0.501961" x="1070" y="118" width="24" height="30" />
<rect fill="#000000" fill-opacity="0.501961" x="96" y="390" width="175" height="240" />
<rect fill="#81e9f5" fill-opacity="0.501961" x="365" y="461" width="41" height="28" />
<rect fill="#000000" fill-opacity="0.501961" x="325" y="0" width="327" height="52" />
<rect fill="#93ffff" fill-opacity="0.501961" x="588" y="198" width="17" height="26" />
<rect fill="#000000" fill-opacity="0.501961" x="330" y="372" width="51" height="84" />
<rect fill="#00c3d8" fill-opacity="0.501961" x="243" y="288" width="18" height="98" />
<rect fill="#000000" fill-opacity="0.501961" x="282" y="152" width="17" height="27" />
<rect fill="#cae2e5" fill-opacity="0.501961" x="319" y="207" width="85" height="134" />
<rect fill="#a8ffff" fill-opacity="0.501961" x="545" y="279" width="39" height="11" />
<rect fill="#b7f1f7" fill-opacity="0.501961" x="729" y="173" width="49" height="62" />
<rect fill="#000000" fill-opacity="0.501961" x="729" y="402" width="258" height="190" />
<rect fill="#5ea0af" fill-opacity="0.501961" x="310" y="431" width="29" height="31" />
<rect fill="#010006" fill-opacity="0.501961" x="1023" y="211" width="168" height="172" />
<rect fill="#38acbb" fill-opacity="0.501961" x="722" y="593" width="319" height="11" />
<rect fill="#000000" fill-opacity="0.501961" x="737" y="242" width="68" height="53" />
<rect fill="#f2ffff" fill-opacity="0.501961" x="911" y="331" width="13" height="26" />
<rect fill="#000000" fill-opacity="0.501961" x="930" y="175" width="56" height="22" />
<rect fill="#c9dee1" fill-opacity="0.501961" x="263" y="195" width="181" height="98" />
<rect fill="#91ffff" fill-opacity="0.501961" x="574" y="175" width="16" height="24" />
<rect fill="#717474" fill-opacity="0.501961" x="873" y="0" width="188" height="89" />
<rect fill="#b2cbce" fill-opacity="0.501961" x="314" y="119" width="48" height="124" />
<rect fill="#0092a8" fill-opacity="0.501961" x="520" y="71" width="57" height="101" />
<rect fill="#00ecff" fill-opacity="0.501961" x="268" y="340" width="30" height="15" />
<rect fill="#69b5c5" fill-opacity="0.501961" x="284" y="407" width="27" height="24" />
</g>
</svg>