<svg xmlns="http://www.w3.org/2000/svg" version="1.1" width="1200" height="630">
<rect x="0" y="0" width="1200" height="630" fill="#57514e" />
<g transform="scale(1.000000) translate(0.5 0.5)">
<polygon fill="#ffffdd" fill-opacity="0.501961" points="641.504013,500.123120,1033.023119,498.652600,1032.228902,107.426086,639.616340,104.840322" />
<polygon fill="#fff5cd" fill-opacity="0.501961" points="1034.281970,466.371362,264.826837,127.369438,303.722030,59.346704,448.132121,-2.439293" />
<polygon fill="#000013" fill-opacity="0.501961" points="213.178713,633.827627,776.619401,645.000000,468.022680,208.196832,-16.000000,-16.000000" />
<polygon fill="#000004" fill-opacity="0.501961" points="626.704271,206.877772,644.614599,112.789413,1208.081981,7.868185,502.635241,-16.000000" />
<polygon fill="#00000c" fill-opacity="0.501961" points="1215.000000,629.852143,825.724566,444.664251,813.020176,493.149296,254.785735,630.073392" />
<polygon fill="#ffe1a7" fill-opacity="0.501961" points="642.122674,96.985673,640.023098,504.798965,765.849673,489.918096,1065.155460,241.748268" />
<polygon fill="#000210" fill-opacity="0.501961" points="-9.080706,-16.000000,306.528445,-2.176658,204.121477,360.511878,-7.995737,306.037566" />
<polygon fill="#000000" fill-opacity="0.501961" points="952.252626,645.000000,1156.871421,179.732040,1215.000000,140.734028,1203.801689,645.000000" />
<polygon fill="#fff8e0" fill-opacity="0.501961" points="574.711488,89.515068,562.762626,289.702672,413.258113,172.050229,215.031811,147.743978" />
<polygon fill="#d0b796" fill-opacity="0.501961" points="11.269037,302.258103,-16.000000,485.680167,175.136931,519.406016,150.195520,376.522814" />
<polygon fill="#000019" fill-opacity="0.501961" points="588.601563,212.475302,538.322640,317.652839,616.003257,414.670167,645.150115,250.779693" />
<polygon fill="#fffff3" fill-opacity="0.501961" points="204.476342,184.024488,364.311746,415.331630,356.851169,428.479474,279.771203,313.842869" />
<polygon fill="#00031c" fill-opacity="0.501961" points="561.503156,645.000000,243.075036,303.182002,135.210168,579.670791,-16.000000,629.311115" />
<polygon fill="#deb27f" fill-opacity="0.501961" points="839.345746,101.572964,1034.699890,267.447552,1036.906860,500.379137,859.081712,501.618624" />
<polygon fill="#96866c" fill-opacity="0.501961" points="1097.489715,335.205969,982.316611,225.272798,980.131664,-16.000000,1156.561657,99.352599" />
<polygon fill="#00001b" fill-opacity="0.501961" points="746.760129,105.409168,930.750827,103.148935,1009.789157,-15.996853,484.525339,10.647637" />
<polygon fill="#ffe0c0" fill-opacity="0.501961" points="631.428301,337.498032,622.509770,363.589939,833.932453,420.562626,718.056597,75.991160" />
<polygon fill="#000021" fill-opacity="0.501961" points="641.292666,185.942757,641.440141,136.397138,584.645842,68.087327,589.302853,189.574943" />
<polygon fill="#151b3c" fill-opacity="0.501961" points="125.811987,133.317016,667.970816,629.129028,615.396081,348.709786,426.696829,174.157606" />
<polygon fill="#00050b" fill-opacity="0.501961" points="-16.000000,0.027222,258.015069,106.952347,348.188849,21.552094,337.884640,-16.000000" />
<polygon fill="#000018" fill-opacity="0.501961" points="1201.250232,288.744658,1207.475543,632.386403,1032.525431,645.000000,1037.700954,349.861075" />
<polygon fill="#fff0d6" fill-opacity="0.501961" points="759.298241,220.596051,412.107471,144.343048,553.004106,289.342363,585.821556,218.521413" />
<polygon fill="#cfb9a1" fill-opacity="0.501961" points="523.112049,37.483297,574.237833,95.647324,593.334370,182.476635,231.615380,138.398254" />
<polygon fill="#083431" fill-opacity="0.501961" points="829.746723,433.109678,776.735126,645.000000,901.765753,624.888576,839.131185,405.885209" />
<polygon fill="#9b7c54" fill-opacity="0.501961" points="331.793680,87.634218,503.117492,73.594095,488.386004,-16.000000,364.301939,-16.000000" />
<polygon fill="#16232e" fill-opacity="0.501961" points="-16.000000,135.371568,204.612547,3.787507,267.699335,122.483312,177.491159,447.471382" />
<polygon fill="#00012c" fill-opacity="0.501961" points="543.444568,288.918116,640.385885,295.130355,639.697303,244.587891,600.552138,219.932842" />
<polygon fill="#b3a088" fill-opacity="0.501961" points="132.867358,578.807737,47.147425,313.121780,124.160466,359.937991,170.578628,448.413521" />
<polygon fill="#00051b" fill-opacity="0.501961" points="1016.298701,160.096850,1140.850393,170.977659,1191.378207,406.851762,1200.874923,157.778906" />
<polygon fill="#120f10" fill-opacity="0.501961" points="594.973762,600.428339,3.207818,645.000000,-16.000000,546.142952,50.517257,586.338879" />
<polygon fill="#cea97b" fill-opacity="0.501961" points="637.733479,110.852636,905.501645,104.562726,947.147513,87.826224,1035.143893,258.171183" />
<polygon fill="#697382" fill-opacity="0.501961" points="1079.970742,373.205492,1007.114205,171.629331,1153.667038,175.648418,1103.757969,306.838005" />
<polygon fill="#fff0ce" fill-opacity="0.501961" points="233.137233,230.025692,238.101842,249.881087,349.276329,402.217612,244.650151,237.103889" />
<polygon fill="#4f4025" fill-opacity="0.501961" points="1215.000000,94.085712,1205.571904,-2.392404,954.350148,-16.000000,1137.030950,107.550519" />
<polygon fill="#060d17" fill-opacity="0.501961" points="105.984913,326.773549,81.678841,149.097564,2.603149,-10.492624,-14.831413,309.025198" />
<polygon fill="#06121a" fill-opacity="0.501961" points="943.872269,499.562056,871.439950,645.000000,1215.000000,596.661502,1045.754471,501.276534" />
<polygon fill="#7b6d59" fill-opacity="0.501961" points="3.909805,371.485031,-16.000000,468.029023,92.485161,618.989680,164.841167,523.065972" />
<polygon fill="#fddab5" fill-opacity="0.501961" points="638.918564,247.959352,645.709418,505.077348,884.504397,190.706208,563.118899,187.316717" />
<polygon fill="#000318" fill-opacity="0.501961" points="978.865445,71.727830,900.783122,106.145191,725.006357,100.001353,982.653321,45.089733" />
<polygon fill="#080b27" fill-opacity="0.501961" points="525.056437,-16.000000,485.551835,19.929138,610.734506,95.066218,673.660276,109.921405" />
<polygon fill="#f0c896" fill-opacity="0.501961" points="778.880247,500.929885,808.635111,498.781465,913.792107,184.525142,637.250078,498.095316" />
<polygon fill="#122c37" fill-opacity="0.501961" points="623.586469,500.112329,765.318782,645.000000,825.941490,507.635455,772.879624,501.581864" />
<polygon fill="#16172e" fill-opacity="0.501961" points="779.982827,601.362002,325.169693,645.000000,367.318539,427.028042,323.514595,357.164580" />
<polygon fill="#e1c398" fill-opacity="0.501961" points="912.544276,499.538632,865.228280,498.042668,804.933110,286.815285,1003.070721,304.102965" />
<polygon fill="#000008" fill-opacity="0.501961" points="146.956570,561.658734,58.384033,645.000000,215.240269,645.000000,174.169947,486.161077" />
<polygon fill="#0d152b" fill-opacity="0.501961" points="1035.524008,254.130169,1036.922081,293.954717,1037.550164,596.824209,1068.386521,323.763844" />
<polygon fill="#1b1b30" fill-opacity="0.501961" points="293.279329,330.296823,432.424970,631.781013,59.840121,309.571285,109.635238,52.339744" />
<polygon fill="#c7baa5" fill-opacity="0.501961" points="262.112325,148.760488,263.655861,130.674603,281.578824,87.912885,393.994561,172.115460" />
<polygon fill="#a1865e" fill-opacity="0.501961" points="999.732058,56.241322,946.631481,173.012385,1074.671488,155.404109,1214.155015,159.475463" />
<polygon fill="#1f3a32" fill-opacity="0.501961" points="79.827035,129.295888,209.300513,42.548038,267.028721,122.171759,251.604248,198.721511" />
<polygon fill="#efdec7" fill-opacity="0.501961" points="591.319107,192.821622,570.199174,256.164627,404.625909,167.490464,581.114164,121.775458" />
<polygon fill="#ad9572" fill-opacity="0.501961" points="932.113052,406.613314,896.556250,499.780171,1036.744109,498.226562,1032.690826,409.058497" />
<polygon fill="#00062d" fill-opacity="0.501961" points="640.440311,357.137535,619.929434,371.884898,626.317685,434.152296,639.202287,448.983564" />
<polygon fill="#0f1130" fill-opacity="0.501961" points="561.009894,58.545999,643.587299,177.704394,590.897824,190.485158,590.261628,157.525350" />
<polygon fill="#938166" fill-opacity="0.501961" points="420.427043,-16.000000,305.268319,57.046457,409.726369,50.558010,524.260231,42.198162" />
<polygon fill="#1c1913" fill-opacity="0.501961" points="1070.045144,0.893196,1113.639136,5.182204,1199.663049,70.273860,1201.059994,-11.385717" />
<polygon fill="#716148" fill-opacity="0.501961" points="1099.595818,13.548335,979.922597,-16.000000,983.193052,62.035982,1215.000000,167.306840" />
<polygon fill="#ffeace" fill-opacity="0.501961" points="633.750874,333.520181,620.561004,372.738085,737.761680,278.072126,661.538644,242.414135" />
<polygon fill="#33655a" fill-opacity="0.501961" points="638.749190,412.448500,608.359958,415.329754,291.137500,319.776625,317.578075,317.926176" />
<polygon fill="#161530" fill-opacity="0.501961" points="555.783286,289.141537,347.579844,164.458894,413.120166,174.035895,439.430026,188.053788" />
<polygon fill="#fff2d8" fill-opacity="0.501961" points="484.544211,226.316691,534.294009,270.272726,552.148572,281.041289,589.878814,205.105146" />
<polygon fill="#04031b" fill-opacity="0.501961" points="236.430017,157.770922,311.093061,48.292381,361.792775,18.196267,302.187762,-16.000000" />
<polygon fill="#233d3c" fill-opacity="0.501961" points="776.889912,605.740720,834.805375,423.861300,837.586097,405.602725,882.431401,548.209794" />
<polygon fill="#ffeccb" fill-opacity="0.501961" points="355.399837,422.202817,362.492517,424.906057,301.017223,326.147544,260.044416,279.650540" />
<polygon fill="#747478" fill-opacity="0.501961" points="571.379311,89.244249,554.272692,135.119219,601.888938,45.377027,633.996108,-16.000000" />
<polygon fill="#504636" fill-opacity="0.501961" points="-16.000000,519.214720,129.313283,584.118740,82.049797,618.727739,39.190594,631.920545" />
<polygon fill="#b8a58d" fill-opacity="0.501961" points="100.382487,342.183185,145.262256,390.723491,168.564959,468.798884,39.203437,313.056375" />
<polygon fill="#b5a083" fill-opacity="0.501961" points="985.470177,83.133815,984.347990,69.412699,916.215883,102.638508,861.477645,137.867110" />
<polygon fill="#918270" fill-opacity="0.501961" points="-16.000000,294.185986,168.027442,488.928646,148.811151,557.192581,59.467803,522.595112" />
<polygon fill="#000009" fill-opacity="0.501961" points="982.949058,103.725939,967.586015,105.678566,945.930757,103.352896,977.504516,86.348095" />
<polygon fill="#121329" fill-opacity="0.501961" points="1152.323924,187.941568,1096.887743,322.178186,1039.715556,471.393998,1215.000000,379.919028" />
<polygon fill="#20213f" fill-opacity="0.501961" points="575.946236,243.678187,502.288723,366.625745,642.809483,306.842470,586.856035,208.767651" />
<polygon fill="#baa584" fill-opacity="0.501961" points="480.013265,14.813049,525.965558,133.518470,386.623393,61.058423,552.386595,66.869925" />
<polygon fill="#d2b793" fill-opacity="0.501961" points="1055.796687,316.000847,838.820778,115.562555,655.277783,104.845040,639.766640,135.435946" />
<polygon fill="#767c7d" fill-opacity="0.501961" points="1064.993203,327.511836,1030.207355,294.097947,1084.719051,370.954635,1102.246116,216.746275" />
<polygon fill="#111028" fill-opacity="0.501961" points="224.184639,344.973462,143.345375,382.414831,169.276258,451.588954,164.131191,522.217261" />
<polygon fill="#162f33" fill-opacity="0.501961" points="902.228914,621.195745,976.317290,541.861888,1022.937898,501.383675,845.304902,500.325632" />
<polygon fill="#090c18" fill-opacity="0.501961" points="1082.436414,157.369223,1191.472690,187.559423,1204.820663,157.742332,1015.423113,167.704001" />
<polygon fill="#ac926f" fill-opacity="0.501961" points="820.351317,106.196629,1001.947638,181.514528,1086.492813,137.756037,971.067781,104.581032" />
<polygon fill="#06060a" fill-opacity="0.501961" points="915.087555,627.449872,1200.072222,645.000000,1215.000000,420.764201,1095.159368,600.626289" />
<polygon fill="#edd5bd" fill-opacity="0.501961" points="613.910152,186.296966,592.930107,206.346252,716.347057,310.034462,860.917306,188.774147" />
<polygon fill="#19162b" fill-opacity="0.501961" points="201.678085,241.090182,437.283275,185.733531,260.735879,155.254233,274.789139,42.384625" />
<polygon fill="#bfb6a6" fill-opacity="0.501961" points="513.530002,110.464044,587.529583,133.828752,557.712499,75.257317,509.498808,31.933315" />
<polygon fill="#0e0525" fill-opacity="0.501961" points="674.214914,506.881360,616.656449,501.661592,770.462502,501.950522,719.473124,518.556676" />
<polygon fill="#8b795c" fill-opacity="0.501961" points="325.799575,-6.433510,522.222232,-16.000000,471.572505,32.826016,379.740824,33.964437" />
<polygon fill="#141123" fill-opacity="0.501961" points="100.976413,100.232111,157.195329,398.999049,89.768471,329.979118,-16.000000,301.812664" />
<polygon fill="#726558" fill-opacity="0.501961" points="-13.310060,479.555122,2.075991,424.056699,149.219955,547.981868,132.707010,577.618668" />
<polygon fill="#c4aa84" fill-opacity="0.501961" points="1035.423158,265.567164,991.289537,142.119779,887.527873,142.518497,1035.478524,418.825157" />
<polygon fill="#15172d" fill-opacity="0.501961" points="747.402840,43.856781,633.790225,-16.000000,591.370382,107.715969,696.582804,103.978868" />
<polygon fill="#fbd9a4" fill-opacity="0.501961" points="630.573832,342.699254,693.806610,461.466619,817.785379,338.724836,638.336295,327.620334" />
<polygon fill="#a8957c" fill-opacity="0.501961" points="341.956659,30.134755,396.913491,82.421418,309.401836,142.576107,283.064094,84.900215" />
<polygon fill="#d3b68c" fill-opacity="0.501961" points="833.437508,424.521431,810.660153,501.322389,773.537447,499.118714,639.136777,497.084856" />
<polygon fill="#ddc7af" fill-opacity="0.501961" points="765.535367,214.657128,671.398052,220.373075,715.602332,78.170604,719.430588,87.441579" />
<polygon fill="#10111f" fill-opacity="0.501961" points="494.521197,18.289424,518.750242,-16.000000,627.597460,-0.557591,546.863780,62.212365" />
<polygon fill="#1e1e38" fill-opacity="0.501961" points="297.720251,526.100996,640.239430,423.502721,302.341418,327.001524,362.185037,416.448764" />
<polygon fill="#7a7a7a" fill-opacity="0.501961" points="1003.339546,175.547194,1043.171648,174.837194,1103.072127,271.853950,1083.920754,361.541923" />
<polygon fill="#1b1b33" fill-opacity="0.501961" points="588.637360,187.008035,639.974760,186.355017,640.001158,53.350881,601.228751,68.760676" />
<polygon fill="#212039" fill-opacity="0.501961" points="603.423902,219.915055,578.682574,230.566500,642.470887,310.872760,639.962821,245.729908" />
<polygon fill="#ebcc9f" fill-opacity="0.501961" points="836.803689,208.299407,924.992397,267.271608,856.879022,453.804219,777.571763,267.215937" />
<polygon fill="#c2b6a3" fill-opacity="0.501961" points="491.978389,98.252903,358.204754,166.403438,265.421410,151.658653,267.998519,116.916151" />
</g>
</svg>