<svg xmlns="http://www.w3.org/2000/svg" version="1.1" width="1200" height="630">
<rect x="0" y="0" width="1200" height="630" fill="#544837" />
<g transform="scale(1.000000) translate(0.5 0.5)">
<rect fill="#ffed71" fill-opacity="0.501961" x="93" y="182" width="459" height="389" />
<rect fill="#00002a" fill-opacity="0.501961" x="470" y="0" width="428" height="345" />
<rect fill="#fff15c" fill-opacity="0.501961" x="787" y="298" width="177" height="186" />
<rect fill="#e4bd6e" fill-opacity="0.501961" x="10" y="129" width="336" height="328" />
<rect fill="#000122" fill-opacity="0.501961" x="416" y="0" width="701" height="230" />
<rect fill="#000000" fill-opacity="0.501961" x="0" y="468" width="193" height="162" />
<rect fill="#ffffdf" fill-opacity="0.501961" x="472" y="382" width="102" height="164" />
<rect fill="#ffd459" fill-opacity="0.501961" x="284" y="211" width="192" height="272" />
<rect fill="#c68403" fill-opacity="0.501961" x="162" y="400" width="309" height="197" />
<rect fill="#181c3e" fill-opacity="0.501961" x="525" y="85" width="310" height="304" />
<rect fill="#ffc550" fill-opacity="0.501961" x="735" y="410" width="208" height="73" />
<rect fill="#ffc952" fill-opacity="0.501961" x="886" y="259" width="78" height="153" />
<rect fill="#00000d" fill-opacity="0.501961" x="965" y="256" width="235" height="374" />
<rect fill="#000015" fill-opacity="0.501961" x="572" y="486" width="628" height="144" />
<rect fill="#00000a" fill-opacity="0.501961" x="0" y="0" width="429" height="130" />
<rect fill="#c2ba8d" fill-opacity="0.501961" x="364" y="571" width="154" height="52" />
<rect fill="#000439" fill-opacity="0.501961" x="565" y="347" width="194" height="96" />
<rect fill="#fff8bd" fill-opacity="0.501961" x="409" y="338" width="102" height="48" />
<rect fill="#010723" fill-opacity="0.501961" x="561" y="532" width="404" height="98" />
<rect fill="#1f1f35" fill-opacity="0.501961" x="480" y="60" width="382" height="282" />
<rect fill="#b18b25" fill-opacity="0.501961" x="1116" y="104" width="84" height="153" />
<rect fill="#f3d495" fill-opacity="0.501961" x="242" y="200" width="199" height="156" />
<rect fill="#ffd757" fill-opacity="0.501961" x="806" y="359" width="82" height="51" />
<rect fill="#030839" fill-opacity="0.501961" x="454" y="181" width="69" height="72" />
<rect fill="#fffcb4" fill-opacity="0.501961" x="552" y="430" width="26" height="90" />
<rect fill="#9d7215" fill-opacity="0.501961" x="136" y="469" width="216" height="102" />
<rect fill="#00000c" fill-opacity="0.501961" x="0" y="497" width="129" height="133" />
<rect fill="#ffdd58" fill-opacity="0.501961" x="716" y="452" width="73" height="32" />
<rect fill="#fff3bc" fill-opacity="0.501961" x="478" y="365" width="63" height="94" />
<rect fill="#dbc280" fill-opacity="0.501961" x="310" y="109" width="34" height="167" />
<rect fill="#ffd653" fill-opacity="0.501961" x="932" y="236" width="32" height="63" />
<rect fill="#191f3d" fill-opacity="0.501961" x="345" y="27" width="135" height="158" />
<rect fill="#000737" fill-opacity="0.501961" x="606" y="439" width="99" height="89" />
<rect fill="#c1b7a0" fill-opacity="0.501961" x="446" y="546" width="97" height="46" />
<rect fill="#ffffef" fill-opacity="0.501961" x="576" y="473" width="31" height="12" />
<rect fill="#090e28" fill-opacity="0.501961" x="884" y="0" width="34" height="278" />
<rect fill="#ffe293" fill-opacity="0.501961" x="366" y="275" width="112" height="76" />
<rect fill="#ffd858" fill-opacity="0.501961" x="847" y="324" width="53" height="35" />
<rect fill="#000010" fill-opacity="0.501961" x="495" y="605" width="77" height="25" />
<rect fill="#090d25" fill-opacity="0.501961" x="967" y="0" width="149" height="536" />
<rect fill="#00000d" fill-opacity="0.501961" x="0" y="584" width="225" height="46" />
<rect fill="#000032" fill-opacity="0.501961" x="785" y="298" width="35" height="73" />
<rect fill="#e3a418" fill-opacity="0.501961" x="273" y="372" width="177" height="144" />
<rect fill="#957b47" fill-opacity="0.501961" x="1021" y="256" width="32" height="45" />
<rect fill="#ffe35a" fill-opacity="0.501961" x="746" y="427" width="41" height="29" />
<rect fill="#a6a38e" fill-opacity="0.501961" x="344" y="83" width="30" height="25" />
<rect fill="#0d0f3b" fill-opacity="0.501961" x="503" y="280" width="52" height="75" />
<rect fill="#ad9764" fill-opacity="0.501961" x="85" y="148" width="148" height="332" />
<rect fill="#0a0802" fill-opacity="0.501961" x="901" y="0" width="299" height="60" />
<rect fill="#d5b972" fill-opacity="0.501961" x="190" y="132" width="121" height="253" />
<rect fill="#11112a" fill-opacity="0.501961" x="434" y="42" width="43" height="179" />
<rect fill="#999581" fill-opacity="0.501961" x="374" y="58" width="32" height="25" />
<rect fill="#b38314" fill-opacity="0.501961" x="109" y="465" width="196" height="45" />
<rect fill="#000009" fill-opacity="0.501961" x="302" y="605" width="42" height="25" />
<rect fill="#99957a" fill-opacity="0.501961" x="408" y="33" width="29" height="24" />
<rect fill="#25243a" fill-opacity="0.501961" x="472" y="150" width="322" height="140" />
<rect fill="#1c1d39" fill-opacity="0.501961" x="575" y="339" width="152" height="124" />
<rect fill="#836006" fill-opacity="0.501961" x="220" y="539" width="81" height="91" />
<rect fill="#000013" fill-opacity="0.501961" x="555" y="380" width="20" height="25" />
<rect fill="#fbd685" fill-opacity="0.501961" x="382" y="237" width="81" height="131" />
<rect fill="#000032" fill-opacity="0.501961" x="820" y="298" width="53" height="19" />
<rect fill="#000015" fill-opacity="0.501961" x="0" y="0" width="325" height="123" />
<rect fill="#8b7135" fill-opacity="0.501961" x="1074" y="189" width="28" height="39" />
<rect fill="#000117" fill-opacity="0.501961" x="0" y="545" width="150" height="40" />
<rect fill="#0d0e2a" fill-opacity="0.501961" x="395" y="70" width="39" height="122" />
<rect fill="#c3ae84" fill-opacity="0.501961" x="470" y="504" width="95" height="55" />
<rect fill="#49432b" fill-opacity="0.501961" x="0" y="129" width="62" height="66" />
<rect fill="#181a2c" fill-opacity="0.501961" x="785" y="45" width="159" height="201" />
<rect fill="#a07716" fill-opacity="0.501961" x="335" y="533" width="69" height="78" />
<rect fill="#fed688" fill-opacity="0.501961" x="344" y="181" width="44" height="29" />
<rect fill="#fdc555" fill-opacity="0.501961" x="776" y="397" width="67" height="38" />
<rect fill="#00001e" fill-opacity="0.501961" x="535" y="581" width="38" height="49" />
<rect fill="#ffe3a0" fill-opacity="0.501961" x="436" y="350" width="81" height="51" />
<rect fill="#bf9942" fill-opacity="0.501961" x="1052" y="234" width="16" height="29" />
<rect fill="#a08135" fill-opacity="0.501961" x="1099" y="169" width="53" height="27" />
<rect fill="#ffd856" fill-opacity="0.501961" x="908" y="267" width="26" height="31" />
<rect fill="#000333" fill-opacity="0.501961" x="532" y="344" width="33" height="30" />
<rect fill="#8e8f75" fill-opacity="0.501961" x="454" y="0" width="27" height="19" />
<rect fill="#21223b" fill-opacity="0.501961" x="562" y="245" width="208" height="173" />
<rect fill="#00000a" fill-opacity="0.501961" x="0" y="0" width="9" height="408" />
<rect fill="#acaa89" fill-opacity="0.501961" x="434" y="18" width="19" height="18" />
<rect fill="#fbc64f" fill-opacity="0.501961" x="951" y="222" width="13" height="37" />
<rect fill="#988f70" fill-opacity="0.501961" x="379" y="585" width="96" height="45" />
<rect fill="#6f5e2f" fill-opacity="0.501961" x="162" y="527" width="61" height="64" />
<rect fill="#efaa15" fill-opacity="0.501961" x="324" y="350" width="66" height="62" />
<rect fill="#ffcf53" fill-opacity="0.501961" x="702" y="471" width="37" height="12" />
<rect fill="#00011b" fill-opacity="0.501961" x="323" y="0" width="94" height="45" />
<rect fill="#ffedb0" fill-opacity="0.501961" x="540" y="412" width="28" height="53" />
<rect fill="#1f1f37" fill-opacity="0.501961" x="780" y="140" width="122" height="148" />
<rect fill="#080b18" fill-opacity="0.501961" x="9" y="0" width="347" height="94" />
<rect fill="#fbbd52" fill-opacity="0.501961" x="818" y="354" width="68" height="45" />
<rect fill="#cab274" fill-opacity="0.501961" x="164" y="247" width="77" height="219" />
<rect fill="#070927" fill-opacity="0.501961" x="360" y="98" width="35" height="85" />
<rect fill="#d7a648" fill-opacity="0.501961" x="866" y="310" width="97" height="173" />
<rect fill="#5e4a14" fill-opacity="0.501961" x="1116" y="26" width="84" height="117" />
<rect fill="#e5e5c8" fill-opacity="0.501961" x="335" y="102" width="16" height="12" />
<rect fill="#ffcb47" fill-opacity="0.501961" x="1066" y="225" width="11" height="15" />
<rect fill="#c9c5a1" fill-opacity="0.501961" x="398" y="50" width="18" height="13" />
<rect fill="#8b7a4a" fill-opacity="0.501961" x="9" y="391" width="134" height="75" />
<rect fill="#000421" fill-opacity="0.501961" x="1116" y="258" width="84" height="228" />
</g>
</svg>