<svg xmlns="http://www.w3.org/2000/svg" version="1.1" width="1200" height="630">
<rect x="0" y="0" width="1200" height="630" fill="#3b5b57" />
<g transform="scale(1.000000) translate(0.5 0.5)">
<rect fill="#7bffd6" fill-opacity="0.501961" x="401" y="224" width="622" height="319" />
<rect fill="#ff98f4" fill-opacity="0.501961" x="146" y="171" width="185" height="174" />
<rect fill="#f657a3" fill-opacity="0.501961" x="784" y="0" width="202" height="229" />
<rect fill="#000000" fill-opacity="0.501961" x="0" y="336" width="399" height="294" />
<rect fill="#000000" fill-opacity="0.501961" x="264" y="0" width="464" height="173" />
<rect fill="#ff86c0" fill-opacity="0.501961" x="203" y="110" width="74" height="208" />
<rect fill="#000000" fill-opacity="0.501961" x="680" y="140" width="148" height="66" />
<rect fill="#000000" fill-opacity="0.501961" x="1069" y="0" width="131" height="134" />
<rect fill="#ff7fef" fill-opacity="0.501961" x="799" y="200" width="30" height="312" />
<rect fill="#000000" fill-opacity="0.501961" x="0" y="0" width="217" height="172" />
<rect fill="#00a655" fill-opacity="0.501961" x="932" y="231" width="268" height="325" />
<rect fill="#ff5ba9" fill-opacity="0.501961" x="722" y="0" width="62" height="117" />
<rect fill="#000000" fill-opacity="0.501961" x="0" y="0" width="132" height="630" />
<rect fill="#ff94dd" fill-opacity="0.501961" x="274" y="172" width="118" height="54" />
<rect fill="#000000" fill-opacity="0.501961" x="797" y="604" width="403" height="26" />
<rect fill="#ffb9ff" fill-opacity="0.501961" x="291" y="333" width="51" height="43" />
<rect fill="#ff86ce" fill-opacity="0.501961" x="85" y="173" width="61" height="52" />
<rect fill="#000000" fill-opacity="0.501961" x="323" y="241" width="77" height="95" />
<rect fill="#000017" fill-opacity="0.501961" x="403" y="0" width="318" height="224" />
<rect fill="#000001" fill-opacity="0.501961" x="0" y="0" width="412" height="85" />
<rect fill="#ff9be3" fill-opacity="0.501961" x="129" y="336" width="52" height="37" />
<rect fill="#00000c" fill-opacity="0.501961" x="132" y="366" width="190" height="264" />
<rect fill="#000000" fill-opacity="0.501961" x="799" y="511" width="29" height="119" />
<rect fill="#000000" fill-opacity="0.501961" x="947" y="148" width="77" height="47" />
<rect fill="#ffb0ec" fill-opacity="0.501961" x="822" y="190" width="141" height="37" />
<rect fill="#000009" fill-opacity="0.501961" x="0" y="245" width="153" height="81" />
<rect fill="#ff9ed8" fill-opacity="0.501961" x="274" y="225" width="42" height="126" />
<rect fill="#c670a3" fill-opacity="0.501961" x="209" y="69" width="45" height="156" />
<rect fill="#94365f" fill-opacity="0.501961" x="903" y="0" width="163" height="119" />
<rect fill="#000000" fill-opacity="0.501961" x="212" y="323" width="45" height="44" />
<rect fill="#000013" fill-opacity="0.501961" x="721" y="108" width="46" height="115" />
<rect fill="#000019" fill-opacity="0.501961" x="362" y="209" width="36" height="408" />
<rect fill="#00040f" fill-opacity="0.501961" x="764" y="161" width="87" height="32" />
<rect fill="#cb6c9c" fill-opacity="0.501961" x="776" y="80" width="232" height="63" />
<rect fill="#ff98db" fill-opacity="0.501961" x="329" y="173" width="86" height="22" />
<rect fill="#583e5c" fill-opacity="0.501961" x="539" y="116" width="93" height="57" />
<rect fill="#071d16" fill-opacity="0.501961" x="1085" y="514" width="115" height="116" />
<rect fill="#00a968" fill-opacity="0.501961" x="905" y="377" width="245" height="166" />
<rect fill="#d083af" fill-opacity="0.501961" x="192" y="142" width="87" height="184" />
<rect fill="#ffa0dd" fill-opacity="0.501961" x="124" y="366" width="24" height="21" />
<rect fill="#ffa3ee" fill-opacity="0.501961" x="328" y="360" width="20" height="30" />
<rect fill="#000014" fill-opacity="0.501961" x="268" y="75" width="141" height="77" />
<rect fill="#4aa982" fill-opacity="0.501961" x="399" y="476" width="398" height="144" />
<rect fill="#e77db2" fill-opacity="0.501961" x="820" y="138" width="141" height="26" />
<rect fill="#ffa6e5" fill-opacity="0.501961" x="308" y="314" width="25" height="58" />
<rect fill="#ec85b6" fill-opacity="0.501961" x="142" y="299" width="56" height="52" />
<rect fill="#75a89d" fill-opacity="0.501961" x="905" y="216" width="101" height="213" />
<rect fill="#00000c" fill-opacity="0.501961" x="0" y="207" width="105" height="61" />
<rect fill="#ff94d1" fill-opacity="0.501961" x="314" y="195" width="36" height="49" />
<rect fill="#da72ac" fill-opacity="0.501961" x="673" y="199" width="32" height="21" />
<rect fill="#bc7098" fill-opacity="0.501961" x="62" y="173" width="259" height="24" />
<rect fill="#001324" fill-opacity="0.501961" x="697" y="134" width="105" height="79" />
<rect fill="#000000" fill-opacity="0.501961" x="1104" y="0" width="96" height="86" />
<rect fill="#000c1b" fill-opacity="0.501961" x="423" y="150" width="173" height="75" />
<rect fill="#000012" fill-opacity="0.501961" x="315" y="253" width="47" height="36" />
<rect fill="#c7669d" fill-opacity="0.501961" x="631" y="171" width="33" height="23" />
<rect fill="#f08cc3" fill-opacity="0.501961" x="796" y="207" width="200" height="21" />
<rect fill="#00010e" fill-opacity="0.501961" x="0" y="0" width="196" height="165" />
<rect fill="#000006" fill-opacity="0.501961" x="932" y="168" width="68" height="19" />
<rect fill="#cc74a0" fill-opacity="0.501961" x="120" y="196" width="109" height="45" />
<rect fill="#ff8fc8" fill-opacity="0.501961" x="800" y="214" width="27" height="292" />
<rect fill="#1e6c34" fill-opacity="0.501961" x="1041" y="103" width="159" height="256" />
<rect fill="#020c1b" fill-opacity="0.501961" x="164" y="359" width="141" height="271" />
<rect fill="#3c926f" fill-opacity="0.501961" x="828" y="446" width="103" height="161" />
<rect fill="#f688c0" fill-opacity="0.501961" x="861" y="162" width="64" height="28" />
<rect fill="#000005" fill-opacity="0.501961" x="802" y="518" width="25" height="88" />
<rect fill="#ca6d9b" fill-opacity="0.501961" x="751" y="63" width="89" height="59" />
<rect fill="#69deb1" fill-opacity="0.501961" x="399" y="231" width="400" height="206" />
<rect fill="#000f1a" fill-opacity="0.501961" x="1000" y="130" width="25" height="91" />
<rect fill="#000000" fill-opacity="0.501961" x="373" y="624" width="827" height="6" />
<rect fill="#5f3148" fill-opacity="0.501961" x="803" y="0" width="267" height="41" />
<rect fill="#00be72" fill-opacity="0.501961" x="986" y="363" width="116" height="111" />
<rect fill="#ff97e0" fill-opacity="0.501961" x="659" y="191" width="20" height="12" />
<rect fill="#ff8cc7" fill-opacity="0.501961" x="612" y="160" width="22" height="14" />
<rect fill="#ff8cc6" fill-opacity="0.501961" x="587" y="145" width="22" height="14" />
<rect fill="#000003" fill-opacity="0.501961" x="225" y="319" width="23" height="27" />
<rect fill="#021126" fill-opacity="0.501961" x="337" y="234" width="45" height="119" />
<rect fill="#b26794" fill-opacity="0.501961" x="227" y="49" width="18" height="106" />
<rect fill="#df7aae" fill-opacity="0.501961" x="536" y="111" width="24" height="15" />
<rect fill="#ffa4e5" fill-opacity="0.501961" x="349" y="193" width="25" height="25" />
<rect fill="#59b894" fill-opacity="0.501961" x="828" y="234" width="129" height="230" />
<rect fill="#000000" fill-opacity="0.501961" x="1161" y="0" width="39" height="124" />
<rect fill="#1b6f3f" fill-opacity="0.501961" x="1069" y="58" width="71" height="172" />
<rect fill="#03090f" fill-opacity="0.501961" x="35" y="0" width="187" height="100" />
<rect fill="#000712" fill-opacity="0.501961" x="196" y="0" width="523" height="55" />
<rect fill="#010b1a" fill-opacity="0.501961" x="0" y="234" width="134" height="120" />
<rect fill="#010815" fill-opacity="0.501961" x="0" y="397" width="362" height="233" />
<rect fill="#ec80b6" fill-opacity="0.501961" x="557" y="127" width="24" height="13" />
<rect fill="#ffa7e9" fill-opacity="0.501961" x="695" y="215" width="19" height="10" />
<rect fill="#000009" fill-opacity="0.501961" x="382" y="202" width="37" height="23" />
<rect fill="#008f55" fill-opacity="0.501961" x="916" y="480" width="174" height="80" />
<rect fill="#000000" fill-opacity="0.501961" x="132" y="255" width="25" height="28" />
<rect fill="#955375" fill-opacity="0.501961" x="915" y="53" width="133" height="69" />
<rect fill="#298656" fill-opacity="0.501961" x="997" y="168" width="75" height="27" />
<rect fill="#007c4b" fill-opacity="0.501961" x="1084" y="392" width="116" height="122" />
<rect fill="#071824" fill-opacity="0.501961" x="649" y="101" width="90" height="80" />
<rect fill="#bc79a6" fill-opacity="0.501961" x="200" y="130" width="72" height="81" />
<rect fill="#000d16" fill-opacity="0.501961" x="957" y="157" width="32" height="41" />
<rect fill="#000f16" fill-opacity="0.501961" x="792" y="174" width="73" height="11" />
<rect fill="#2a4a42" fill-opacity="0.501961" x="1125" y="486" width="75" height="75" />
</g>
</svg>