<svg xmlns="http://www.w3.org/2000/svg" version="1.1" width="1200" height="630">
<rect x="0" y="0" width="1200" height="630" fill="#4e4246" />
<g transform="scale(1.000000) translate(0.5 0.5)">
<g transform="translate(675 352) rotate(83) scale(454 386)"><rect fill="#f3d8e3" fill-opacity="0.501961" x="-0.5" y="-0.5" width="1" height="1" /></g>
<g transform="translate(510 273) rotate(92) scale(278 285)"><rect fill="#ff139e" fill-opacity="0.501961" x="-0.5" y="-0.5" width="1" height="1" /></g>
<g transform="translate(154 316) rotate(-1) scale(419 629)"><rect fill="#000000" fill-opacity="0.501961" x="-0.5" y="-0.5" width="1" height="1" /></g>
<g transform="translate(929 314) rotate(155) scale(214 144)"><rect fill="#ff0883" fill-opacity="0.501961" x="-0.5" y="-0.5" width="1" height="1" /></g>
<g transform="translate(1138 219) rotate(245) scale(319 240)"><rect fill="#000000" fill-opacity="0.501961" x="-0.5" y="-0.5" width="1" height="1" /></g>
<g transform="translate(778 127) rotate(309) scale(247 251)"><rect fill="#36b778" fill-opacity="0.501961" x="-0.5" y="-0.5" width="1" height="1" /></g>
<g transform="translate(516 52) rotate(99) scale(155 276)"><rect fill="#000000" fill-opacity="0.501961" x="-0.5" y="-0.5" width="1" height="1" /></g>
<g transform="translate(414 307) rotate(184) scale(103 321)"><rect fill="#ff004b" fill-opacity="0.501961" x="-0.5" y="-0.5" width="1" height="1" /></g>
<g transform="translate(688 507) rotate(329) scale(365 302)"><rect fill="#5cd897" fill-opacity="0.501961" x="-0.5" y="-0.5" width="1" height="1" /></g>
<g transform="translate(433 593) rotate(329) scale(158 219)"><rect fill="#000000" fill-opacity="0.501961" x="-0.5" y="-0.5" width="1" height="1" /></g>
<g transform="translate(1015 594) rotate(63) scale(296 239)"><rect fill="#004c27" fill-opacity="0.501961" x="-0.5" y="-0.5" width="1" height="1" /></g>
<g transform="translate(661 281) rotate(58) scale(118 154)"><rect fill="#ff5cc4" fill-opacity="0.501961" x="-0.5" y="-0.5" width="1" height="1" /></g>
<g transform="translate(1150 454) rotate(276) scale(117 93)"><rect fill="#b291a3" fill-opacity="0.501961" x="-0.5" y="-0.5" width="1" height="1" /></g>
<g transform="translate(797 267) rotate(80) scale(35 96)"><rect fill="#000000" fill-opacity="0.501961" x="-0.5" y="-0.5" width="1" height="1" /></g>
<g transform="translate(1169 146) rotate(277) scale(488 166)"><rect fill="#000200" fill-opacity="0.501961" x="-0.5" y="-0.5" width="1" height="1" /></g>
<g transform="translate(77 165) rotate(36) scale(345 627)"><rect fill="#000201" fill-opacity="0.501961" x="-0.5" y="-0.5" width="1" height="1" /></g>
<g transform="translate(981 293) rotate(234) scale(193 63)"><rect fill="#df7daf" fill-opacity="0.501961" x="-0.5" y="-0.5" width="1" height="1" /></g>
<g transform="translate(874 317) rotate(330) scale(117 117)"><rect fill="#fd003f" fill-opacity="0.501961" x="-0.5" y="-0.5" width="1" height="1" /></g>
<g transform="translate(486 417) rotate(45) scale(67 40)"><rect fill="#000000" fill-opacity="0.501961" x="-0.5" y="-0.5" width="1" height="1" /></g>
<g transform="translate(935 404) rotate(97) scale(90 75)"><rect fill="#02b060" fill-opacity="0.501961" x="-0.5" y="-0.5" width="1" height="1" /></g>
<g transform="translate(557 277) rotate(185) scale(163 213)"><rect fill="#ff75bb" fill-opacity="0.501961" x="-0.5" y="-0.5" width="1" height="1" /></g>
<g transform="translate(987 45) rotate(259) scale(128 247)"><rect fill="#2a7953" fill-opacity="0.501961" x="-0.5" y="-0.5" width="1" height="1" /></g>
<g transform="translate(1091 621) rotate(324) scale(124 94)"><rect fill="#000000" fill-opacity="0.501961" x="-0.5" y="-0.5" width="1" height="1" /></g>
<g transform="translate(371 109) rotate(75) scale(110 13)"><rect fill="#f3dfeb" fill-opacity="0.501961" x="-0.5" y="-0.5" width="1" height="1" /></g>
<g transform="translate(992 194) rotate(207) scale(80 63)"><rect fill="#000400" fill-opacity="0.501961" x="-0.5" y="-0.5" width="1" height="1" /></g>
<g transform="translate(378 516) rotate(343) scale(36 293)"><rect fill="#000c08" fill-opacity="0.501961" x="-0.5" y="-0.5" width="1" height="1" /></g>
<g transform="translate(695 376) rotate(149) scale(248 81)"><rect fill="#9aebbe" fill-opacity="0.501961" x="-0.5" y="-0.5" width="1" height="1" /></g>
<g transform="translate(418 441) rotate(116) scale(83 47)"><rect fill="#ff0068" fill-opacity="0.501961" x="-0.5" y="-0.5" width="1" height="1" /></g>
<g transform="translate(190 566) rotate(333) scale(440 331)"><rect fill="#040707" fill-opacity="0.501961" x="-0.5" y="-0.5" width="1" height="1" /></g>
<g transform="translate(889 232) rotate(111) scale(62 39)"><rect fill="#000e00" fill-opacity="0.501961" x="-0.5" y="-0.5" width="1" height="1" /></g>
<g transform="translate(879 180) rotate(61) scale(56 52)"><rect fill="#76cea3" fill-opacity="0.501961" x="-0.5" y="-0.5" width="1" height="1" /></g>
<g transform="translate(989 462) rotate(151) scale(207 120)"><rect fill="#2a805a" fill-opacity="0.501961" x="-0.5" y="-0.5" width="1" height="1" /></g>
<g transform="translate(936 188) rotate(113) scale(141 14)"><rect fill="#ff5ab4" fill-opacity="0.501961" x="-0.5" y="-0.5" width="1" height="1" /></g>
<g transform="translate(482 129) rotate(66) scale(30 56)"><rect fill="#000700" fill-opacity="0.501961" x="-0.5" y="-0.5" width="1" height="1" /></g>
<g transform="translate(673 95) rotate(360) scale(51 130)"><rect fill="#61b38a" fill-opacity="0.501961" x="-0.5" y="-0.5" width="1" height="1" /></g>
<g transform="translate(429 133) rotate(326) scale(40 41)"><rect fill="#ff0048" fill-opacity="0.501961" x="-0.5" y="-0.5" width="1" height="1" /></g>
<g transform="translate(463 434) rotate(-65) scale(90 26)"><rect fill="#001305" fill-opacity="0.501961" x="-0.5" y="-0.5" width="1" height="1" /></g>
<g transform="translate(454 316) rotate(278) scale(186 37)"><rect fill="#ff0063" fill-opacity="0.501961" x="-0.5" y="-0.5" width="1" height="1" /></g>
<g transform="translate(1120 8) rotate(108) scale(71 236)"><rect fill="#000100" fill-opacity="0.501961" x="-0.5" y="-0.5" width="1" height="1" /></g>
<g transform="translate(771 562) rotate(278) scale(145 202)"><rect fill="#628974" fill-opacity="0.501961" x="-0.5" y="-0.5" width="1" height="1" /></g>
<g transform="translate(1032 131) rotate(352) scale(216 9)"><rect fill="#80bc9c" fill-opacity="0.501961" x="-0.5" y="-0.5" width="1" height="1" /></g>
<g transform="translate(928 247) rotate(288) scale(53 16)"><rect fill="#00a546" fill-opacity="0.501961" x="-0.5" y="-0.5" width="1" height="1" /></g>
<g transform="translate(875 406) rotate(61) scale(83 24)"><rect fill="#f8004b" fill-opacity="0.501961" x="-0.5" y="-0.5" width="1" height="1" /></g>
<g transform="translate(813 268) rotate(328) scale(64 33)"><rect fill="#030000" fill-opacity="0.501961" x="-0.5" y="-0.5" width="1" height="1" /></g>
<g transform="translate(599 567) rotate(2) scale(153 66)"><rect fill="#5b816c" fill-opacity="0.501961" x="-0.5" y="-0.5" width="1" height="1" /></g>
<g transform="translate(679 282) rotate(147) scale(110 93)"><rect fill="#ff5aaf" fill-opacity="0.501961" x="-0.5" y="-0.5" width="1" height="1" /></g>
<g transform="translate(624 20) rotate(62) scale(52 209)"><rect fill="#000302" fill-opacity="0.501961" x="-0.5" y="-0.5" width="1" height="1" /></g>
<g transform="translate(343 191) rotate(282) scale(86 65)"><rect fill="#08261a" fill-opacity="0.501961" x="-0.5" y="-0.5" width="1" height="1" /></g>
<g transform="translate(779 145) rotate(188) scale(181 168)"><rect fill="#5fab85" fill-opacity="0.501961" x="-0.5" y="-0.5" width="1" height="1" /></g>
<g transform="translate(392 347) rotate(177) scale(59 187)"><rect fill="#ff0061" fill-opacity="0.501961" x="-0.5" y="-0.5" width="1" height="1" /></g>
<g transform="translate(1024 291) rotate(152) scale(33 75)"><rect fill="#dd619f" fill-opacity="0.501961" x="-0.5" y="-0.5" width="1" height="1" /></g>
<g transform="translate(550 143) rotate(274) scale(22 65)"><rect fill="#ff68ab" fill-opacity="0.501961" x="-0.5" y="-0.5" width="1" height="1" /></g>
<g transform="translate(619 128) rotate(-55) scale(32 70)"><rect fill="#080104" fill-opacity="0.501961" x="-0.5" y="-0.5" width="1" height="1" /></g>
<g transform="translate(493 474) rotate(418) scale(43 61)"><rect fill="#9ad3b4" fill-opacity="0.501961" x="-0.5" y="-0.5" width="1" height="1" /></g>
<g transform="translate(1133 627) rotate(357) scale(252 73)"><rect fill="#090005" fill-opacity="0.501961" x="-0.5" y="-0.5" width="1" height="1" /></g>
<g transform="translate(1012 386) rotate(278) scale(29 222)"><rect fill="#1c8153" fill-opacity="0.501961" x="-0.5" y="-0.5" width="1" height="1" /></g>
<g transform="translate(840 414) rotate(239) scale(141 42)"><rect fill="#7ccfa3" fill-opacity="0.501961" x="-0.5" y="-0.5" width="1" height="1" /></g>
<g transform="translate(923 154) rotate(277) scale(109 21)"><rect fill="#1c0511" fill-opacity="0.501961" x="-0.5" y="-0.5" width="1" height="1" /></g>
<g transform="translate(753 265) rotate(139) scale(14 47)"><rect fill="#010000" fill-opacity="0.501961" x="-0.5" y="-0.5" width="1" height="1" /></g>
<g transform="translate(849 329) rotate(241) scale(108 57)"><rect fill="#f0005a" fill-opacity="0.501961" x="-0.5" y="-0.5" width="1" height="1" /></g>
<g transform="translate(778 243) rotate(62) scale(42 38)"><rect fill="#79deac" fill-opacity="0.501961" x="-0.5" y="-0.5" width="1" height="1" /></g>
<g transform="translate(428 271) rotate(270) scale(210 92)"><rect fill="#fd005f" fill-opacity="0.501961" x="-0.5" y="-0.5" width="1" height="1" /></g>
<g transform="translate(1031 359) rotate(189) scale(52 30)"><rect fill="#ea3d93" fill-opacity="0.501961" x="-0.5" y="-0.5" width="1" height="1" /></g>
<g transform="translate(518 386) rotate(135) scale(47 83)"><rect fill="#ff69b7" fill-opacity="0.501961" x="-0.5" y="-0.5" width="1" height="1" /></g>
<g transform="translate(302 262) rotate(34) scale(8 194)"><rect fill="#2a8d61" fill-opacity="0.501961" x="-0.5" y="-0.5" width="1" height="1" /></g>
<g transform="translate(1148 526) rotate(67) scale(59 67)"><rect fill="#7d5e6e" fill-opacity="0.501961" x="-0.5" y="-0.5" width="1" height="1" /></g>
<g transform="translate(875 239) rotate(328) scale(39 46)"><rect fill="#000d0f" fill-opacity="0.501961" x="-0.5" y="-0.5" width="1" height="1" /></g>
<g transform="translate(1028 217) rotate(42) scale(147 65)"><rect fill="#0c1010" fill-opacity="0.501961" x="-0.5" y="-0.5" width="1" height="1" /></g>
<g transform="translate(716 210) rotate(302) scale(37 152)"><rect fill="#66ca97" fill-opacity="0.501961" x="-0.5" y="-0.5" width="1" height="1" /></g>
<g transform="translate(458 570) rotate(-36) scale(79 191)"><rect fill="#0b0d0c" fill-opacity="0.501961" x="-0.5" y="-0.5" width="1" height="1" /></g>
<g transform="translate(942 320) rotate(329) scale(36 88)"><rect fill="#f50059" fill-opacity="0.501961" x="-0.5" y="-0.5" width="1" height="1" /></g>
<g transform="translate(727 414) rotate(232) scale(152 221)"><rect fill="#8dc9a8" fill-opacity="0.501961" x="-0.5" y="-0.5" width="1" height="1" /></g>
<g transform="translate(502 49) rotate(217) scale(79 184)"><rect fill="#080b0a" fill-opacity="0.501961" x="-0.5" y="-0.5" width="1" height="1" /></g>
<g transform="translate(482 436) rotate(238) scale(32 68)"><rect fill="#030707" fill-opacity="0.501961" x="-0.5" y="-0.5" width="1" height="1" /></g>
<g transform="translate(942 206) rotate(379) scale(9 107)"><rect fill="#25b876" fill-opacity="0.501961" x="-0.5" y="-0.5" width="1" height="1" /></g>
<g transform="translate(851 251) rotate(61) scale(43 14)"><rect fill="#ff30a7" fill-opacity="0.501961" x="-0.5" y="-0.5" width="1" height="1" /></g>
<g transform="translate(384 36) rotate(227) scale(99 61)"><rect fill="#040606" fill-opacity="0.501961" x="-0.5" y="-0.5" width="1" height="1" /></g>
<g transform="translate(865 140) rotate(358) scale(88 102)"><rect fill="#5f9a7c" fill-opacity="0.501961" x="-0.5" y="-0.5" width="1" height="1" /></g>
<g transform="translate(615 168) rotate(23) scale(61 36)"><rect fill="#fb5aa2" fill-opacity="0.501961" x="-0.5" y="-0.5" width="1" height="1" /></g>
<g transform="translate(867 63) rotate(285) scale(83 233)"><rect fill="#4b7560" fill-opacity="0.501961" x="-0.5" y="-0.5" width="1" height="1" /></g>
<g transform="translate(643 240) rotate(301) scale(87 159)"><rect fill="#ff60aa" fill-opacity="0.501961" x="-0.5" y="-0.5" width="1" height="1" /></g>
<g transform="translate(890 385) rotate(191) scale(19 102)"><rect fill="#f50059" fill-opacity="0.501961" x="-0.5" y="-0.5" width="1" height="1" /></g>
<g transform="translate(864 506) rotate(99) scale(120 37)"><rect fill="#759c86" fill-opacity="0.501961" x="-0.5" y="-0.5" width="1" height="1" /></g>
<g transform="translate(392 129) rotate(272) scale(38 11)"><rect fill="#00350e" fill-opacity="0.501961" x="-0.5" y="-0.5" width="1" height="1" /></g>
<g transform="translate(469 385) rotate(372) scale(10 27)"><rect fill="#001900" fill-opacity="0.501961" x="-0.5" y="-0.5" width="1" height="1" /></g>
<g transform="translate(1068 33) rotate(229) scale(132 63)"><rect fill="#2a4b3b" fill-opacity="0.501961" x="-0.5" y="-0.5" width="1" height="1" /></g>
<g transform="translate(353 109) rotate(76) scale(98 22)"><rect fill="#0a0d0d" fill-opacity="0.501961" x="-0.5" y="-0.5" width="1" height="1" /></g>
<g transform="translate(1187 396) rotate(211) scale(68 16)"><rect fill="#001406" fill-opacity="0.501961" x="-0.5" y="-0.5" width="1" height="1" /></g>
<g transform="translate(540 305) rotate(282) scale(160 121)"><rect fill="#ff66b1" fill-opacity="0.501961" x="-0.5" y="-0.5" width="1" height="1" /></g>
<g transform="translate(413 149) rotate(124) scale(77 33)"><rect fill="#d70051" fill-opacity="0.501961" x="-0.5" y="-0.5" width="1" height="1" /></g>
<g transform="translate(344 436) rotate(349) scale(54 230)"><rect fill="#212021" fill-opacity="0.501961" x="-0.5" y="-0.5" width="1" height="1" /></g>
<g transform="translate(908 577) rotate(369) scale(71 129)"><rect fill="#1c523b" fill-opacity="0.501961" x="-0.5" y="-0.5" width="1" height="1" /></g>
<g transform="translate(699 626) rotate(174) scale(306 49)"><rect fill="#4f6c5c" fill-opacity="0.501961" x="-0.5" y="-0.5" width="1" height="1" /></g>
<g transform="translate(989 242) rotate(309) scale(18 60)"><rect fill="#dd6aa4" fill-opacity="0.501961" x="-0.5" y="-0.5" width="1" height="1" /></g>
<g transform="translate(886 307) rotate(-6) scale(68 86)"><rect fill="#ec0061" fill-opacity="0.501961" x="-0.5" y="-0.5" width="1" height="1" /></g>
<g transform="translate(545 457) rotate(61) scale(61 175)"><rect fill="#89c6a4" fill-opacity="0.501961" x="-0.5" y="-0.5" width="1" height="1" /></g>
<g transform="translate(906 441) rotate(369) scale(28 153)"><rect fill="#2f7b59" fill-opacity="0.501961" x="-0.5" y="-0.5" width="1" height="1" /></g>
<g transform="translate(919 226) rotate(112) scale(90 11)"><rect fill="#e05b9d" fill-opacity="0.501961" x="-0.5" y="-0.5" width="1" height="1" /></g>
<g transform="translate(90 10) rotate(241) scale(161 286)"><rect fill="#030303" fill-opacity="0.501961" x="-0.5" y="-0.5" width="1" height="1" /></g>
<g transform="translate(1074 471) rotate(-7) scale(55 128)"><rect fill="#1d583e" fill-opacity="0.501961" x="-0.5" y="-0.5" width="1" height="1" /></g>
</g>
</svg>