<svg xmlns="http://www.w3.org/2000/svg" version="1.1" width="1200" height="630">
<rect x="0" y="0" width="1200" height="630" fill="#2a3f40" />
<g transform="scale(1.000000) translate(0.5 0.5)">
<polygon fill="#d7fff9" fill-opacity="0.501961" points="490.956913,79.213258,339.943655,256.472914,589.254507,444.730298,742.344962,233.661874" />
<polygon fill="#000008" fill-opacity="0.501961" points="-16.000000,-16.000000,6.474087,645.000000,431.449640,120.252918,1215.000000,5.792389" />
<polygon fill="#bbcaae" fill-opacity="0.501961" points="1187.332098,534.937307,1213.820133,361.344455,1095.527710,378.309560,968.772818,511.293913" />
<polygon fill="#8fc99e" fill-opacity="0.501961" points="294.288137,438.279134,146.492570,553.475690,441.707273,645.000000,430.077399,543.381698" />
<polygon fill="#96f6b6" fill-opacity="0.501961" points="704.472719,313.126731,462.038526,440.363071,527.592537,96.656976,652.187942,155.600223" />
<polygon fill="#fffffc" fill-opacity="0.501961" points="887.623891,243.505585,637.642523,239.695451,790.253146,228.508200,1074.492683,233.970958" />
<polygon fill="#45ac72" fill-opacity="0.501961" points="1077.740111,485.543805,966.481601,597.170160,739.581186,613.289412,829.089303,456.266101" />
<polygon fill="#fffffd" fill-opacity="0.501961" points="420.120495,544.614576,418.722223,559.399723,604.262308,483.508415,591.845924,472.577176" />
<polygon fill="#05121c" fill-opacity="0.501961" points="703.379611,295.388395,738.013172,237.282033,1215.000000,43.842705,640.205490,-16.000000" />
<polygon fill="#000000" fill-opacity="0.501961" points="1197.522501,385.001606,1064.873455,210.198313,1029.931426,-2.292918,1215.000000,-0.386095" />
<polygon fill="#000013" fill-opacity="0.501961" points="384.644756,269.830865,373.899511,196.332395,-16.000000,625.410834,89.823058,645.000000" />
<polygon fill="#287d4f" fill-opacity="0.501961" points="521.122118,391.325859,764.664014,321.870901,908.182978,429.989486,597.155203,477.137533" />
<polygon fill="#97e5b2" fill-opacity="0.501961" points="633.419307,375.467900,433.427206,342.260357,377.910633,174.748396,448.198445,112.895049" />
<polygon fill="#000015" fill-opacity="0.501961" points="808.681257,440.930444,433.581654,553.452924,445.120517,645.000000,737.128276,645.000000" />
<polygon fill="#02001d" fill-opacity="0.501961" points="948.672099,483.662463,891.031829,244.763493,1211.095040,239.615313,1215.000000,311.242578" />
<polygon fill="#121633" fill-opacity="0.501961" points="130.461383,441.864044,87.152323,99.075019,459.883809,350.448124,470.364453,492.662063" />
<polygon fill="#040126" fill-opacity="0.501961" points="565.447766,384.366917,588.498600,472.255365,414.404272,542.110636,535.212832,379.077813" />
<polygon fill="#eefff2" fill-opacity="0.501961" points="564.197862,371.426111,582.171993,381.408126,600.100686,482.707557,592.481250,487.411662" />
<polygon fill="#5a8167" fill-opacity="0.501961" points="408.176226,645.000000,155.623664,610.809918,170.838869,513.361424,240.815869,465.058789" />
<polygon fill="#000006" fill-opacity="0.501961" points="-9.217570,631.149919,2.918534,417.664682,153.723380,536.676799,162.567767,645.000000" />
<polygon fill="#08082d" fill-opacity="0.501961" points="869.813594,241.926511,896.860630,419.792526,697.926289,269.233570,701.590812,243.681058" />
<polygon fill="#0c0e24" fill-opacity="0.501961" points="1215.000000,266.377521,554.216106,-16.000000,-16.000000,13.731247,564.607053,115.531513" />
<polygon fill="#81e8ae" fill-opacity="0.501961" points="902.100861,478.850207,905.801881,337.419757,896.240801,299.550756,894.568408,471.757582" />
<polygon fill="#ebffe7" fill-opacity="0.501961" points="295.236320,499.399116,294.150413,417.910457,303.147052,417.207544,307.076659,440.391800" />
<polygon fill="#cfe3c8" fill-opacity="0.501961" points="1093.221015,232.334511,1015.606800,230.027811,975.443003,239.764582,1080.055648,241.812028" />
<polygon fill="#fafffa" fill-opacity="0.501961" points="840.704561,236.101477,707.155205,243.069940,675.105134,235.819878,704.031412,231.442437" />
<polygon fill="#5a6254" fill-opacity="0.501961" points="1210.494169,548.138789,1215.000000,441.499878,1054.353706,508.834727,1145.741239,600.259925" />
<polygon fill="#141a32" fill-opacity="0.501961" points="577.957605,-16.000000,969.131996,230.799905,710.299825,231.691332,693.225148,230.855694" />
<polygon fill="#a3a99f" fill-opacity="0.501961" points="1170.462944,360.137672,1030.188283,539.653766,1003.249407,487.569346,1047.094388,421.747957" />
<polygon fill="#1b502e" fill-opacity="0.501961" points="1028.905185,26.236287,829.060550,-8.374314,913.834385,164.531608,1073.796859,184.167850" />
<polygon fill="#79ae91" fill-opacity="0.501961" points="252.785018,464.686736,361.978640,482.583094,436.588090,558.932120,178.975131,504.592372" />
<polygon fill="#97d7b4" fill-opacity="0.501961" points="678.075971,343.488171,576.473723,389.837762,417.724004,318.955055,692.079868,206.801155" />
<polygon fill="#0a391a" fill-opacity="0.501961" points="1130.153212,641.680584,922.567137,644.600825,1071.491659,496.601001,1092.881830,522.127573" />
<polygon fill="#45c58b" fill-opacity="0.501961" points="541.350352,379.107858,465.256780,460.971657,463.188245,459.841777,472.573124,356.468081" />
<polygon fill="#82c19a" fill-opacity="0.501961" points="377.331897,196.807591,390.394611,295.196354,612.496544,125.333538,414.400094,134.111291" />
<polygon fill="#296d4d" fill-opacity="0.501961" points="865.933725,415.191474,584.969184,414.254553,685.995949,323.315132,702.141241,268.306967" />
<polygon fill="#4aa177" fill-opacity="0.501961" points="815.786226,422.859203,838.067390,460.687208,999.921946,472.355237,828.696176,535.364001" />
<polygon fill="#162035" fill-opacity="0.501961" points="414.596260,314.729558,427.353730,546.194854,209.534544,324.633393,245.682474,88.658046" />
<polygon fill="#04040e" fill-opacity="0.501961" points="345.956874,-14.405027,-4.098297,-16.000000,3.108321,277.136018,126.121690,148.013486" />
<polygon fill="#255f43" fill-opacity="0.501961" points="1002.815113,486.407173,1017.127808,464.103002,745.671554,645.000000,1048.030547,594.124669" />
<polygon fill="#f0fff0" fill-opacity="0.501961" points="388.248218,236.939078,365.515155,232.050960,354.944364,241.017128,374.406285,244.915630" />
<polygon fill="#8bc7a6" fill-opacity="0.501961" points="656.627272,166.880004,576.527688,114.437815,362.516685,283.514957,703.561897,245.960416" />
<polygon fill="#134b32" fill-opacity="0.501961" points="643.749298,367.073513,574.571525,384.015817,581.597095,385.302136,598.169626,438.386423" />
<polygon fill="#0b1025" fill-opacity="0.501961" points="958.109914,228.360667,1137.942942,231.207676,1215.000000,134.922435,766.423159,232.215702" />
<polygon fill="#92d2af" fill-opacity="0.501961" points="461.550048,357.428289,535.780266,380.573387,684.057982,205.373825,379.234984,279.551891" />
<polygon fill="#030210" fill-opacity="0.501961" points="1052.402750,-0.956591,1100.765479,134.625893,1212.675219,242.547736,1215.000000,-1.613325" />
<polygon fill="#161e30" fill-opacity="0.501961" points="867.105088,50.483887,459.156065,35.005516,633.845879,149.215601,723.564436,232.941749" />
<polygon fill="#fffff4" fill-opacity="0.501961" points="827.731261,465.521452,815.631902,446.710173,825.553763,445.244511,835.235688,459.515941" />
<polygon fill="#0d102c" fill-opacity="0.501961" points="771.000431,453.967747,413.709384,564.860229,605.767737,480.215192,646.083156,470.641833" />
<polygon fill="#c1e3c1" fill-opacity="0.501961" points="483.619361,527.189580,613.484702,478.183774,589.743504,471.577653,444.866540,537.246677" />
<polygon fill="#7cb393" fill-opacity="0.501961" points="538.918812,106.319664,678.077973,188.800877,385.775802,176.335609,458.176875,111.932275" />
<polygon fill="#c6e7c8" fill-opacity="0.501961" points="942.381000,240.868063,1001.157037,241.596183,1018.936631,229.882371,690.401745,237.312623" />
<polygon fill="#131930" fill-opacity="0.501961" points="342.469092,252.387780,409.101533,139.320910,563.854130,64.243315,75.876531,96.660509" />
<polygon fill="#080a27" fill-opacity="0.501961" points="906.279269,464.727851,905.415050,454.582679,906.361766,308.507787,955.340815,462.082722" />
<polygon fill="#7b887d" fill-opacity="0.501961" points="1070.110274,472.854333,1165.243525,364.180347,1215.000000,367.878042,1115.548004,568.809787" />
<polygon fill="#486654" fill-opacity="0.501961" points="438.487839,604.393089,442.901364,645.000000,186.373631,627.949769,162.275975,535.093327" />
<polygon fill="#0e1223" fill-opacity="0.501961" points="200.700356,489.206714,134.413001,570.485800,-16.000000,520.217166,17.713939,82.676531" />
<polygon fill="#2c6d4b" fill-opacity="0.501961" points="970.479758,622.643293,769.504555,645.000000,744.051986,593.680570,764.200749,553.726287" />
<polygon fill="#101724" fill-opacity="0.501961" points="1125.833807,38.293409,1057.215074,405.614517,1143.690779,365.799620,1215.000000,365.743014" />
<polygon fill="#070624" fill-opacity="0.501961" points="782.497591,530.685739,765.257805,557.925944,810.275702,439.162766,827.795928,469.721009" />
<polygon fill="#0d112e" fill-opacity="0.501961" points="892.356511,308.558444,894.721576,389.355248,859.749492,242.097619,912.469067,240.880410" />
<polygon fill="#05021b" fill-opacity="0.501961" points="1000.677468,487.611669,1044.277065,422.261521,970.277525,464.493676,994.011751,471.017703" />
<polygon fill="#12182d" fill-opacity="0.501961" points="458.585397,526.782991,418.772823,547.881937,355.315765,441.084540,468.669042,370.519034" />
<polygon fill="#6dbb96" fill-opacity="0.501961" points="906.159362,333.712929,898.181364,414.761142,893.694727,293.803606,904.421401,296.616895" />
<polygon fill="#090d21" fill-opacity="0.501961" points="225.756894,468.784332,291.374095,390.558773,292.124618,449.546759,295.062039,462.152722" />
<polygon fill="#97d9b4" fill-opacity="0.501961" points="559.692148,387.897199,654.507639,356.277835,688.374857,318.597046,698.546536,243.139354" />
<polygon fill="#5d665d" fill-opacity="0.501961" points="1211.634518,503.768340,1115.850045,606.883011,1105.760529,525.391190,1198.881627,401.189099" />
<polygon fill="#0d0f1f" fill-opacity="0.501961" points="437.209298,645.000000,451.720751,571.356710,732.498348,569.810282,768.022055,645.000000" />
<polygon fill="#3b8764" fill-opacity="0.501961" points="777.193416,542.170425,834.460085,462.194228,1016.767538,513.225446,738.993989,597.338716" />
<polygon fill="#0c0829" fill-opacity="0.501961" points="574.541584,433.984630,559.719104,388.998207,550.513557,378.383987,522.504693,399.079800" />
<polygon fill="#1f1e16" fill-opacity="0.501961" points="971.149976,622.360111,1195.723921,645.000000,1215.000000,572.766824,1149.533389,609.855174" />
<polygon fill="#659079" fill-opacity="0.501961" points="441.148256,551.542217,216.600392,475.752175,171.106849,525.683883,397.527551,578.909959" />
<polygon fill="#060e24" fill-opacity="0.501961" points="892.681502,466.144325,892.758361,415.309258,904.811676,435.177524,833.026537,445.666961" />
<polygon fill="#75a88c" fill-opacity="0.501961" points="302.050421,459.683493,234.149218,474.736121,421.968089,546.476729,386.290210,501.565382" />
<polygon fill="#95a999" fill-opacity="0.501961" points="1161.761993,366.516260,1136.615135,370.013465,1071.274617,402.395957,1020.833959,451.233405" />
<polygon fill="#182234" fill-opacity="0.501961" points="390.169335,268.572679,60.664643,364.717815,430.967639,84.315694,356.123014,238.181319" />
<polygon fill="#3ab779" fill-opacity="0.501961" points="384.391069,271.700958,388.340070,274.365391,405.283650,299.944727,354.877182,275.623762" />
<polygon fill="#05050b" fill-opacity="0.501961" points="156.375568,645.000000,-16.000000,629.072114,167.931442,532.514089,156.589365,568.999582" />
<polygon fill="#171f32" fill-opacity="0.501961" points="887.638946,117.029548,519.354951,41.067863,723.212279,230.652124,1047.808046,228.846269" />
<polygon fill="#0c1126" fill-opacity="0.501961" points="318.068793,467.557737,305.150241,467.208447,307.235530,425.549422,375.028477,489.573312" />
<polygon fill="#141e2a" fill-opacity="0.501961" points="674.065816,115.259289,491.256400,106.517884,427.685982,121.832853,735.110743,-16.000000" />
<polygon fill="#77ab8d" fill-opacity="0.501961" points="568.879474,114.021517,502.878701,104.639899,419.592897,132.464872,634.949209,145.285125" />
<polygon fill="#c5e3ca" fill-opacity="0.501961" points="784.037593,231.155532,737.992537,242.524962,829.388512,240.367897,959.896311,237.613783" />
<polygon fill="#9dd8b2" fill-opacity="0.501961" points="551.464987,349.513069,591.158659,481.052386,595.956446,448.720098,581.075632,385.190896" />
<polygon fill="#2c6e50" fill-opacity="0.501961" points="703.873891,274.832465,702.860350,278.203710,670.640737,352.253278,803.933111,353.575859" />
<polygon fill="#8bcba6" fill-opacity="0.501961" points="376.805547,244.169809,379.061644,205.341430,400.509245,153.408133,427.883682,330.445006" />
<polygon fill="#020406" fill-opacity="0.501961" points="61.751848,61.295362,200.540749,-16.000000,-2.634628,-16.000000,2.867031,116.668644" />
<polygon fill="#98ac9c" fill-opacity="0.501961" points="1085.577383,228.963565,977.590678,233.782944,1004.128626,240.953461,1092.330515,236.993525" />
<polygon fill="#c7dec4" fill-opacity="0.501961" points="305.142404,464.874475,304.422998,420.216196,294.638107,423.541001,297.031353,464.408637" />
<polygon fill="#214e39" fill-opacity="0.501961" points="951.185357,166.733867,879.037671,111.216440,851.486567,38.721948,1014.223388,121.060863" />
<polygon fill="#4aab7e" fill-opacity="0.501961" points="538.360741,382.727882,473.696096,452.142254,464.263089,459.534650,473.357228,362.196225" />
<polygon fill="#1a2435" fill-opacity="0.501961" points="124.576638,478.636791,401.547574,294.547169,431.770232,340.120950,299.429491,220.523448" />
<polygon fill="#43443b" fill-opacity="0.501961" points="1121.216517,583.528979,1188.269493,509.628630,1212.018921,581.140305,1107.794919,645.000000" />
<polygon fill="#172134" fill-opacity="0.501961" points="316.712357,257.855084,471.332867,359.426530,440.333061,523.240794,305.427030,459.773872" />
<polygon fill="#1f4835" fill-opacity="0.501961" points="1079.397735,502.443966,1111.957498,564.147355,895.314598,645.000000,926.724993,602.440408" />
<polygon fill="#265c44" fill-opacity="0.501961" points="724.863834,460.414501,757.939796,429.697036,813.993201,364.141177,913.113760,432.228892" />
<polygon fill="#d1f6d4" fill-opacity="0.501961" points="698.533296,232.715346,690.744170,242.387403,748.580597,239.714616,794.206355,233.120126" />
<polygon fill="#8bc8a6" fill-opacity="0.501961" points="693.274183,228.472534,660.742943,170.917470,459.842778,159.737052,698.835920,271.484541" />
<polygon fill="#111323" fill-opacity="0.501961" points="572.661993,-8.864059,842.475282,-16.000000,859.727072,67.215274,896.695384,133.227847" />
<polygon fill="#151b2e" fill-opacity="0.501961" points="440.706338,594.701687,752.821659,580.878709,635.206255,469.611993,426.065023,558.305295" />
</g>
</svg>