<svg xmlns="http://www.w3.org/2000/svg" version="1.1" width="1200" height="630">
<rect x="0" y="0" width="1200" height="630" fill="#516146" />
<g transform="scale(1.000000) translate(0.5 0.5)">
<ellipse fill="#ffffff" fill-opacity="0.501961" cx="621" cy="306" rx="185" ry="160" />
<ellipse fill="#c9ff49" fill-opacity="0.501961" cx="395" cy="245" rx="225" ry="185" />
<ellipse fill="#000010" fill-opacity="0.501961" cx="1046" cy="373" rx="257" ry="629" />
<ellipse fill="#ffffff" fill-opacity="0.501961" cx="656" cy="297" rx="143" ry="140" />
<ellipse fill="#000000" fill-opacity="0.501961" cx="48" cy="0" rx="430" ry="98" />
<ellipse fill="#000000" fill-opacity="0.501961" cx="72" cy="588" rx="157" ry="87" />
<ellipse fill="#d9ac90" fill-opacity="0.501961" cx="1183" cy="191" rx="69" ry="111" />
<ellipse fill="#e1a599" fill-opacity="0.501961" cx="366" cy="585" rx="115" ry="73" />
<ellipse fill="#94e509" fill-opacity="0.501961" cx="937" cy="572" rx="59" ry="75" />
<ellipse fill="#000017" fill-opacity="0.501961" cx="832" cy="27" rx="285" ry="144" />
<ellipse fill="#00000a" fill-opacity="0.501961" cx="646" cy="606" rx="140" ry="59" />
<ellipse fill="#a1d4a0" fill-opacity="0.501961" cx="654" cy="474" rx="124" ry="65" />
<ellipse fill="#00001f" fill-opacity="0.501961" cx="476" cy="477" rx="68" ry="74" />
<ellipse fill="#709e90" fill-opacity="0.501961" cx="203" cy="334" rx="156" ry="162" />
<ellipse fill="#a6ff0b" fill-opacity="0.501961" cx="437" cy="273" rx="84" ry="151" />
<ellipse fill="#93f601" fill-opacity="0.501961" cx="515" cy="108" rx="53" ry="93" />
<ellipse fill="#000014" fill-opacity="0.501961" cx="614" cy="135" rx="40" ry="30" />
<ellipse fill="#000013" fill-opacity="0.501961" cx="244" cy="519" rx="61" ry="31" />
<ellipse fill="#fff4cf" fill-opacity="0.501961" cx="758" cy="264" rx="73" ry="26" />
<ellipse fill="#00002a" fill-opacity="0.501961" cx="416" cy="472" rx="116" ry="31" />
<ellipse fill="#eeff38" fill-opacity="0.501961" cx="854" cy="359" rx="110" ry="6" />
<ellipse fill="#000002" fill-opacity="0.501961" cx="0" cy="24" rx="106" ry="110" />
<ellipse fill="#00001c" fill-opacity="0.501961" cx="546" cy="551" rx="64" ry="32" />
<ellipse fill="#000023" fill-opacity="0.501961" cx="822" cy="535" rx="62" ry="61" />
<ellipse fill="#acff0e" fill-opacity="0.501961" cx="356" cy="409" rx="42" ry="38" />
<ellipse fill="#ffecc7" fill-opacity="0.501961" cx="693" cy="181" rx="34" ry="38" />
<ellipse fill="#00000d" fill-opacity="0.501961" cx="512" cy="422" rx="19" ry="25" />
<ellipse fill="#e6bfa4" fill-opacity="0.501961" cx="366" cy="525" rx="37" ry="29" />
<ellipse fill="#000003" fill-opacity="0.501961" cx="0" cy="609" rx="77" ry="138" />
<ellipse fill="#5a7b63" fill-opacity="0.501961" cx="142" cy="193" rx="116" ry="135" />
<ellipse fill="#00000f" fill-opacity="0.501961" cx="527" cy="14" rx="1197" ry="21" />
<ellipse fill="#7ac50e" fill-opacity="0.501961" cx="443" cy="91" rx="119" ry="48" />
<ellipse fill="#c4e7b7" fill-opacity="0.501961" cx="766" cy="422" rx="20" ry="47" />
<ellipse fill="#00000f" fill-opacity="0.501961" cx="1117" cy="512" rx="122" ry="153" />
<ellipse fill="#d9a494" fill-opacity="0.501961" cx="490" cy="598" rx="21" ry="33" />
<ellipse fill="#00000e" fill-opacity="0.501961" cx="132" cy="599" rx="88" ry="55" />
<ellipse fill="#7fd50a" fill-opacity="0.501961" cx="335" cy="147" rx="62" ry="78" />
<ellipse fill="#fff1d3" fill-opacity="0.501961" cx="651" cy="312" rx="141" ry="123" />
<ellipse fill="#00002f" fill-opacity="0.501961" cx="784" cy="174" rx="36" ry="44" />
<ellipse fill="#00001c" fill-opacity="0.501961" cx="299" cy="495" rx="46" ry="23" />
<ellipse fill="#587a60" fill-opacity="0.501961" cx="95" cy="512" rx="51" ry="33" />
<ellipse fill="#7fa4b0" fill-opacity="0.501961" cx="355" cy="323" rx="33" ry="33" />
<ellipse fill="#7db67f" fill-opacity="0.501961" cx="550" cy="441" rx="23" ry="70" />
<ellipse fill="#eac7bd" fill-opacity="0.501961" cx="850" cy="271" rx="21" ry="9" />
<ellipse fill="#000002" fill-opacity="0.501961" cx="1126" cy="31" rx="76" ry="53" />
<ellipse fill="#debdb4" fill-opacity="0.501961" cx="880" cy="284" rx="23" ry="9" />
<ellipse fill="#f3cdbf" fill-opacity="0.501961" cx="911" cy="296" rx="20" ry="8" />
<ellipse fill="#78a37f" fill-opacity="0.501961" cx="667" cy="532" rx="37" ry="32" />
<ellipse fill="#d1b1aa" fill-opacity="0.501961" cx="940" cy="308" rx="23" ry="9" />
<ellipse fill="#e1bdb0" fill-opacity="0.501961" cx="974" cy="321" rx="20" ry="8" />
<ellipse fill="#000022" fill-opacity="0.501961" cx="723" cy="574" rx="32" ry="40" />
<ellipse fill="#bc9f87" fill-opacity="0.501961" cx="1136" cy="239" rx="18" ry="40" />
<ellipse fill="#ffecd0" fill-opacity="0.501961" cx="782" cy="268" rx="25" ry="37" />
<ellipse fill="#9cff0b" fill-opacity="0.501961" cx="494" cy="370" rx="30" ry="36" />
<ellipse fill="#625245" fill-opacity="0.501961" cx="1179" cy="116" rx="65" ry="42" />
<ellipse fill="#00001d" fill-opacity="0.501961" cx="205" cy="539" rx="59" ry="27" />
<ellipse fill="#00001f" fill-opacity="0.501961" cx="262" cy="49" rx="82" ry="32" />
<ellipse fill="#d7b4a8" fill-opacity="0.501961" cx="1005" cy="333" rx="20" ry="8" />
<ellipse fill="#000120" fill-opacity="0.501961" cx="1133" cy="324" rx="63" ry="38" />
<ellipse fill="#82655a" fill-opacity="0.501961" cx="267" cy="609" rx="50" ry="58" />
<ellipse fill="#7cb61a" fill-opacity="0.501961" cx="501" cy="44" rx="54" ry="23" />
<ellipse fill="#558306" fill-opacity="0.501961" cx="994" cy="607" rx="25" ry="48" />
<ellipse fill="#010720" fill-opacity="0.501961" cx="1064" cy="164" rx="55" ry="186" />
<ellipse fill="#00001b" fill-opacity="0.501961" cx="600" cy="153" rx="18" ry="15" />
<ellipse fill="#9af817" fill-opacity="0.501961" cx="505" cy="214" rx="28" ry="61" />
<ellipse fill="#c9a89c" fill-opacity="0.501961" cx="1037" cy="345" rx="21" ry="8" />
<ellipse fill="#092621" fill-opacity="0.501961" cx="790" cy="373" rx="8" ry="41" />
<ellipse fill="#67a90a" fill-opacity="0.501961" cx="280" cy="114" rx="50" ry="30" />
<ellipse fill="#000321" fill-opacity="0.501961" cx="656" cy="609" rx="136" ry="44" />
<ellipse fill="#061034" fill-opacity="0.501961" cx="924" cy="432" rx="138" ry="67" />
<ellipse fill="#97f80b" fill-opacity="0.501961" cx="568" cy="146" rx="14" ry="31" />
<ellipse fill="#e0b8a6" fill-opacity="0.501961" cx="1066" cy="357" rx="16" ry="7" />
<ellipse fill="#8abc6c" fill-opacity="0.501961" cx="295" cy="434" rx="48" ry="30" />
<ellipse fill="#0a1637" fill-opacity="0.501961" cx="632" cy="129" rx="54" ry="28" />
<ellipse fill="#00002d" fill-opacity="0.501961" cx="820" cy="282" rx="16" ry="16" />
<ellipse fill="#ffece8" fill-opacity="0.501961" cx="539" cy="330" rx="37" ry="26" />
<ellipse fill="#a7ff29" fill-opacity="0.501961" cx="444" cy="307" rx="61" ry="112" />
<ellipse fill="#76a57b" fill-opacity="0.501961" cx="712" cy="459" rx="80" ry="30" />
<ellipse fill="#000022" fill-opacity="0.501961" cx="768" cy="522" rx="24" ry="22" />
<ellipse fill="#a1f726" fill-opacity="0.501961" cx="361" cy="220" rx="40" ry="47" />
<ellipse fill="#ffd9db" fill-opacity="0.501961" cx="574" cy="207" rx="35" ry="34" />
<ellipse fill="#83b087" fill-opacity="0.501961" cx="615" cy="101" rx="26" ry="7" />
<ellipse fill="#030e35" fill-opacity="0.501961" cx="959" cy="274" rx="51" ry="31" />
<ellipse fill="#74977a" fill-opacity="0.501961" cx="237" cy="327" rx="97" ry="163" />
<ellipse fill="#86c623" fill-opacity="0.501961" cx="927" cy="525" rx="34" ry="28" />
<ellipse fill="#010923" fill-opacity="0.501961" cx="689" cy="44" rx="138" ry="23" />
<ellipse fill="#0d172e" fill-opacity="0.501961" cx="906" cy="141" rx="159" ry="136" />
<ellipse fill="#736152" fill-opacity="0.501961" cx="351" cy="629" rx="133" ry="33" />
<ellipse fill="#5f7f5a" fill-opacity="0.501961" cx="188" cy="481" rx="52" ry="29" />
<ellipse fill="#c5a88e" fill-opacity="0.501961" cx="421" cy="558" rx="37" ry="28" />
<ellipse fill="#f3ddc8" fill-opacity="0.501961" cx="690" cy="161" rx="27" ry="16" />
<ellipse fill="#81b089" fill-opacity="0.501961" cx="658" cy="91" rx="26" ry="6" />
<ellipse fill="#7ca77e" fill-opacity="0.501961" cx="608" cy="469" rx="78" ry="26" />
<ellipse fill="#0d1930" fill-opacity="0.501961" cx="404" cy="465" rx="70" ry="28" />
<ellipse fill="#99ff27" fill-opacity="0.501961" cx="869" cy="360" rx="94" ry="6" />
<ellipse fill="#06123b" fill-opacity="0.501961" cx="894" cy="328" rx="53" ry="27" />
<ellipse fill="#7fbd1b" fill-opacity="0.501961" cx="529" cy="28" rx="21" ry="17" />
<ellipse fill="#ffe8ce" fill-opacity="0.501961" cx="623" cy="409" rx="35" ry="38" />
<ellipse fill="#000116" fill-opacity="0.501961" cx="846" cy="607" rx="32" ry="38" />
<ellipse fill="#9df425" fill-opacity="0.501961" cx="377" cy="406" rx="53" ry="31" />
</g>
</svg>