<svg xmlns="http://www.w3.org/2000/svg" version="1.1" width="1200" height="630">
<rect x="0" y="0" width="1200" height="630" fill="#493c57" />
<g transform="scale(1.000000) translate(0.5 0.5)">
<rect fill="#ffdfff" fill-opacity="0.501961" x="376" y="42" width="330" height="287" />
<rect fill="#000000" fill-opacity="0.501961" x="645" y="262" width="555" height="368" />
<rect fill="#cca7f5" fill-opacity="0.501961" x="59" y="84" width="290" height="261" />
<rect fill="#cca8f0" fill-opacity="0.501961" x="823" y="42" width="240" height="189" />
<rect fill="#deb0ff" fill-opacity="0.501961" x="387" y="129" width="328" height="176" />
<rect fill="#000400" fill-opacity="0.501961" x="728" y="231" width="472" height="399" />
<rect fill="#e9bfff" fill-opacity="0.501961" x="489" y="208" width="126" height="151" />
<rect fill="#000000" fill-opacity="0.501961" x="199" y="372" width="446" height="258" />
<rect fill="#d9b2fe" fill-opacity="0.501961" x="890" y="161" width="72" height="115" />
<rect fill="#000000" fill-opacity="0.501961" x="316" y="265" width="79" height="67" />
<rect fill="#f8e3ff" fill-opacity="0.501961" x="189" y="221" width="198" height="39" />
<rect fill="#eecdff" fill-opacity="0.501961" x="532" y="306" width="54" height="101" />
<rect fill="#000000" fill-opacity="0.501961" x="718" y="0" width="63" height="231" />
<rect fill="#000000" fill-opacity="0.501961" x="1106" y="0" width="94" height="630" />
<rect fill="#7a648e" fill-opacity="0.501961" x="771" y="14" width="362" height="115" />
<rect fill="#000000" fill-opacity="0.501961" x="225" y="327" width="72" height="303" />
<rect fill="#000000" fill-opacity="0.501961" x="728" y="170" width="111" height="92" />
<rect fill="#ddd4e4" fill-opacity="0.501961" x="598" y="412" width="83" height="23" />
<rect fill="#000000" fill-opacity="0.501961" x="665" y="282" width="64" height="144" />
<rect fill="#c4a1f5" fill-opacity="0.501961" x="372" y="166" width="351" height="100" />
<rect fill="#000000" fill-opacity="0.501961" x="651" y="0" width="113" height="52" />
<rect fill="#7a4db4" fill-opacity="0.501961" x="0" y="208" width="192" height="325" />
<rect fill="#000000" fill-opacity="0.501961" x="369" y="313" width="73" height="32" />
<rect fill="#97919a" fill-opacity="0.501961" x="729" y="446" width="93" height="26" />
<rect fill="#dcd8e1" fill-opacity="0.501961" x="468" y="374" width="60" height="17" />
<rect fill="#969099" fill-opacity="0.501961" x="818" y="471" width="84" height="23" />
<rect fill="#8e67c2" fill-opacity="0.501961" x="263" y="11" width="353" height="166" />
<rect fill="#ffeeff" fill-opacity="0.501961" x="280" y="295" width="39" height="45" />
<rect fill="#e9e4ef" fill-opacity="0.501961" x="682" y="433" width="51" height="15" />
<rect fill="#000000" fill-opacity="0.501961" x="1079" y="161" width="121" height="101" />
<rect fill="#d5adff" fill-opacity="0.501961" x="460" y="263" width="167" height="74" />
<rect fill="#fff4ff" fill-opacity="0.501961" x="309" y="327" width="24" height="37" />
<rect fill="#000000" fill-opacity="0.501961" x="714" y="93" width="83" height="86" />
<rect fill="#000000" fill-opacity="0.501961" x="461" y="346" width="57" height="25" />
<rect fill="#d2bde1" fill-opacity="0.501961" x="218" y="152" width="93" height="169" />
<rect fill="#9a7fb5" fill-opacity="0.501961" x="790" y="0" width="98" height="139" />
<rect fill="#ffffff" fill-opacity="0.501961" x="574" y="403" width="39" height="11" />
<rect fill="#000000" fill-opacity="0.501961" x="203" y="420" width="411" height="210" />
<rect fill="#7348ad" fill-opacity="0.501961" x="51" y="249" width="163" height="148" />
<rect fill="#000000" fill-opacity="0.501961" x="601" y="344" width="64" height="63" />
<rect fill="#000000" fill-opacity="0.501961" x="314" y="267" width="68" height="51" />
<rect fill="#a29ba6" fill-opacity="0.501961" x="898" y="493" width="64" height="18" />
<rect fill="#ffffff" fill-opacity="0.501961" x="437" y="365" width="39" height="12" />
<rect fill="#f2c8ff" fill-opacity="0.501961" x="627" y="259" width="55" height="38" />
<rect fill="#aa8cc9" fill-opacity="0.501961" x="830" y="106" width="146" height="97" />
<rect fill="#a387c0" fill-opacity="0.501961" x="1062" y="120" width="31" height="64" />
<rect fill="#000300" fill-opacity="0.501961" x="780" y="222" width="95" height="42" />
<rect fill="#dab2ff" fill-opacity="0.501961" x="922" y="230" width="29" height="51" />
<rect fill="#000000" fill-opacity="0.501961" x="701" y="41" width="60" height="54" />
<rect fill="#b0a9b6" fill-opacity="0.501961" x="963" y="513" width="51" height="12" />
<rect fill="#ffffff" fill-opacity="0.501961" x="392" y="353" width="41" height="10" />
<rect fill="#897a92" fill-opacity="0.501961" x="728" y="512" width="36" height="29" />
<rect fill="#ffffff" fill-opacity="0.501961" x="352" y="342" width="40" height="10" />
<rect fill="#d7b0ff" fill-opacity="0.501961" x="384" y="265" width="86" height="37" />
<rect fill="#000000" fill-opacity="0.501961" x="596" y="0" width="182" height="20" />
<rect fill="#060b02" fill-opacity="0.501961" x="634" y="319" width="74" height="99" />
<rect fill="#d4c0e2" fill-opacity="0.501961" x="633" y="439" width="23" height="19" />
<rect fill="#000000" fill-opacity="0.501961" x="415" y="327" width="53" height="30" />
<rect fill="#000000" fill-opacity="0.501961" x="242" y="322" width="32" height="51" />
<rect fill="#573c7a" fill-opacity="0.501961" x="60" y="13" width="371" height="102" />
<rect fill="#000000" fill-opacity="0.501961" x="344" y="359" width="67" height="64" />
<rect fill="#070904" fill-opacity="0.501961" x="1053" y="207" width="145" height="325" />
<rect fill="#9e83bb" fill-opacity="0.501961" x="450" y="31" width="219" height="98" />
<rect fill="#000000" fill-opacity="0.501961" x="692" y="272" width="25" height="48" />
<rect fill="#271a34" fill-opacity="0.501961" x="0" y="496" width="76" height="134" />
<rect fill="#b6a6c2" fill-opacity="0.501961" x="663" y="460" width="26" height="22" />
<rect fill="#fff5ff" fill-opacity="0.501961" x="601" y="411" width="41" height="14" />
<rect fill="#000000" fill-opacity="0.501961" x="377" y="307" width="38" height="38" />
<rect fill="#040900" fill-opacity="0.501961" x="719" y="122" width="87" height="75" />
<rect fill="#91819b" fill-opacity="0.501961" x="763" y="539" width="30" height="24" />
<rect fill="#88828b" fill-opacity="0.501961" x="1012" y="524" width="55" height="16" />
<rect fill="#b696d7" fill-opacity="0.501961" x="882" y="201" width="85" height="46" />
<rect fill="#000000" fill-opacity="0.501961" x="176" y="411" width="51" height="32" />
<rect fill="#69577c" fill-opacity="0.501961" x="763" y="26" width="300" height="47" />
<rect fill="#000000" fill-opacity="0.501961" x="342" y="200" width="32" height="24" />
<rect fill="#000000" fill-opacity="0.501961" x="860" y="256" width="50" height="20" />
<rect fill="#ffffff" fill-opacity="0.501961" x="511" y="385" width="30" height="10" />
<rect fill="#000000" fill-opacity="0.501961" x="1144" y="0" width="56" height="207" />
<rect fill="#8655c5" fill-opacity="0.501961" x="165" y="272" width="69" height="89" />
<rect fill="#fef2ff" fill-opacity="0.501961" x="801" y="466" width="35" height="10" />
<rect fill="#000000" fill-opacity="0.501961" x="574" y="367" width="61" height="23" />
<rect fill="#634c7d" fill-opacity="0.501961" x="0" y="79" width="110" height="272" />
<rect fill="#f2c8ff" fill-opacity="0.501961" x="706" y="208" width="20" height="45" />
<rect fill="#cfbcde" fill-opacity="0.501961" x="689" y="482" width="22" height="17" />
<rect fill="#b0a4b5" fill-opacity="0.501961" x="139" y="140" width="113" height="103" />
<rect fill="#000100" fill-opacity="0.501961" x="410" y="384" width="87" height="37" />
<rect fill="#000000" fill-opacity="0.501961" x="501" y="356" width="35" height="26" />
<rect fill="#cda8f6" fill-opacity="0.501961" x="425" y="228" width="224" height="92" />
<rect fill="#090b05" fill-opacity="0.501961" x="207" y="400" width="348" height="230" />
<rect fill="#fff6ff" fill-opacity="0.501961" x="721" y="444" width="36" height="10" />
<rect fill="#ccb8db" fill-opacity="0.501961" x="710" y="499" width="23" height="15" />
<rect fill="#ffffff" fill-opacity="0.501961" x="548" y="395" width="46" height="10" />
<rect fill="#e7bcff" fill-opacity="0.501961" x="500" y="329" width="111" height="20" />
<rect fill="#b292d5" fill-opacity="0.501961" x="310" y="101" width="399" height="83" />
<rect fill="#000000" fill-opacity="0.501961" x="702" y="460" width="68" height="28" />
<rect fill="#090a08" fill-opacity="0.501961" x="954" y="249" width="237" height="255" />
<rect fill="#ffffff" fill-opacity="0.501961" x="761" y="455" width="30" height="9" />
<rect fill="#463952" fill-opacity="0.501961" x="999" y="13" width="151" height="77" />
<rect fill="#85768e" fill-opacity="0.501961" x="792" y="560" width="28" height="24" />
<rect fill="#0e0f0a" fill-opacity="0.501961" x="727" y="193" width="116" height="248" />
</g>
</svg>