<svg xmlns="http://www.w3.org/2000/svg" version="1.1" width="1200" height="630">
<rect x="0" y="0" width="1200" height="630" fill="#48364a" />
<g transform="scale(1.000000) translate(0.5 0.5)">
<g transform="translate(725.092875 320.125647) rotate(139.702571) scale(147.459834 211.199491)"><ellipse fill="#ff8fe0" fill-opacity="0.501961" cx="0" cy="0" rx="1" ry="1" /></g>
<ellipse fill="#ffa7e3" fill-opacity="0.501961" cx="422" cy="83" rx="99" ry="83" />
<ellipse fill="#009f42" fill-opacity="0.501961" cx="865" cy="272" rx="94" ry="94" />
<g transform="translate(749.834998 176.306126) rotate(233.415701) scale(56.669824 100.300874)"><ellipse fill="#ff64bf" fill-opacity="0.501961" cx="0" cy="0" rx="1" ry="1" /></g>
<ellipse fill="#ff69c7" fill-opacity="0.501961" cx="656" cy="299" rx="114" ry="114" />
<ellipse fill="#000010" fill-opacity="0.501961" cx="536" cy="581" rx="199" ry="199" />
<g transform="translate(165.622221 133.717104) rotate(195.032096) scale(110.715636 49.641949)"><ellipse fill="#e087b7" fill-opacity="0.501961" cx="0" cy="0" rx="1" ry="1" /></g>
<g transform="translate(300.414934 474.491116) rotate(87.818861) scale(51.127970 56.230797)"><ellipse fill="#ffaae5" fill-opacity="0.501961" cx="0" cy="0" rx="1" ry="1" /></g>
<polygon fill="#000000" fill-opacity="0.501961" points="1,630 -3,418 536,634" />
<g transform="translate(1167.910950 535.910275) rotate(-44.855679) scale(132.431982 256.331636)"><ellipse fill="#000602" fill-opacity="0.501961" cx="0" cy="0" rx="1" ry="1" /></g>
<g transform="translate(1149.759590 269.721156) rotate(338.096748) scale(65.581152 90.189616)"><ellipse fill="#e46ea8" fill-opacity="0.501961" cx="0" cy="0" rx="1" ry="1" /></g>
<ellipse fill="#000000" fill-opacity="0.501961" cx="1090" cy="63" rx="124" ry="124" />
<polygon fill="#eb8ec1" fill-opacity="0.501961" points="-16,318 99,459 133,303" />
<g transform="translate(957.369768 473.370095) rotate(-43.224518) scale(56.389810 87.023738)"><ellipse fill="#23c664" fill-opacity="0.501961" cx="0" cy="0" rx="1" ry="1" /></g>
<ellipse fill="#000000" fill-opacity="0.501961" cx="14" cy="118" rx="45" ry="191" />
<ellipse fill="#ff60ae" fill-opacity="0.501961" cx="815" cy="424" rx="85" ry="85" />
<ellipse fill="#24c560" fill-opacity="0.501961" cx="897" cy="62" rx="74" ry="74" />
<g transform="translate(733.817877 16.509769) rotate(113.695115) scale(97.429196 100.530840)"><ellipse fill="#000004" fill-opacity="0.501961" cx="0" cy="0" rx="1" ry="1" /></g>
<g transform="translate(251.903155 43.893378) rotate(235.046056) scale(100.618890 61.846209)"><ellipse fill="#000000" fill-opacity="0.501961" cx="0" cy="0" rx="1" ry="1" /></g>
<ellipse fill="#00051b" fill-opacity="0.501961" cx="249" cy="296" rx="117" ry="117" />
<ellipse fill="#000008" fill-opacity="0.501961" cx="794" cy="590" rx="89" ry="89" />
<ellipse fill="#000001" fill-opacity="0.501961" cx="583" cy="167" rx="32" ry="42" />
<g transform="translate(870.892014 489.219939) rotate(445.133063) scale(58.676728 28.600034)"><ellipse fill="#f280b4" fill-opacity="0.501961" cx="0" cy="0" rx="1" ry="1" /></g>
<g transform="translate(1019.169600 232.418810) rotate(89.487591) scale(226.492025 63.822127)"><ellipse fill="#00071b" fill-opacity="0.501961" cx="0" cy="0" rx="1" ry="1" /></g>
<ellipse fill="#000c27" fill-opacity="0.501961" cx="434" cy="260" rx="107" ry="107" />
<ellipse fill="#38c774" fill-opacity="0.501961" cx="922" cy="333" rx="37" ry="118" />
<g transform="translate(675.437010 443.450898) rotate(307.763204) scale(35.727473 22.978651)"><ellipse fill="#000008" fill-opacity="0.501961" cx="0" cy="0" rx="1" ry="1" /></g>
<rect fill="#fd9ad1" fill-opacity="0.501961" x="327" y="104" width="188" height="55" />
<g transform="translate(892.195427 195.078381) rotate(43.070014) scale(32.804930 99.327428)"><ellipse fill="#02001a" fill-opacity="0.501961" cx="0" cy="0" rx="1" ry="1" /></g>
<ellipse fill="#000009" fill-opacity="0.501961" cx="112" cy="242" rx="47" ry="60" />
<g transform="translate(588.203667 22.420755) rotate(361.860385) scale(75.772069 37.887358)"><ellipse fill="#000007" fill-opacity="0.501961" cx="0" cy="0" rx="1" ry="1" /></g>
<rect fill="#d684b4" fill-opacity="0.501961" x="59" y="155" width="236" height="29" />
<g transform="translate(930.955131 606.971621) rotate(148.014087) scale(71.875749 37.123334)"><ellipse fill="#ae5378" fill-opacity="0.501961" cx="0" cy="0" rx="1" ry="1" /></g>
<ellipse fill="#ff5aa0" fill-opacity="0.501961" cx="723" cy="160" rx="109" ry="35" />
<g transform="translate(168 469) rotate(205) scale(111 80)"><rect fill="#000212" fill-opacity="0.501961" x="-0.5" y="-0.5" width="1" height="1" /></g>
<polygon fill="#d98db9" fill-opacity="0.501961" points="175,383 44,332 153,418" />
<ellipse fill="#161b34" fill-opacity="0.501961" cx="416" cy="286" rx="131" ry="131" />
<g transform="translate(33.281389 418.483799) rotate(21.062982) scale(15.019237 42.622474)"><ellipse fill="#c879a5" fill-opacity="0.501961" cx="0" cy="0" rx="1" ry="1" /></g>
<g transform="translate(248.882022 443.492978) rotate(287.805297) scale(11.862611 94.469583)"><ellipse fill="#d997ba" fill-opacity="0.501961" cx="0" cy="0" rx="1" ry="1" /></g>
<rect fill="#e78cbf" fill-opacity="0.501961" x="216" y="484" width="168" height="16" />
<g transform="translate(802.000757 309.663137) rotate(196.288873) scale(18.314013 34.000494)"><ellipse fill="#000017" fill-opacity="0.501961" cx="0" cy="0" rx="1" ry="1" /></g>
<rect fill="#c684af" fill-opacity="0.501961" x="1081" y="178" width="28" height="155" />
<g transform="translate(734.875446 432.422802) rotate(191.746332) scale(31.401653 78.048397)"><ellipse fill="#ff5caa" fill-opacity="0.501961" cx="0" cy="0" rx="1" ry="1" /></g>
<ellipse fill="#ff6bb9" fill-opacity="0.501961" cx="600" cy="320" rx="57" ry="67" />
<rect fill="#ffa8e5" fill-opacity="0.501961" x="290" y="390" width="17" height="60" />
<ellipse fill="#ff66af" fill-opacity="0.501961" cx="652" cy="301" rx="106" ry="106" />
<ellipse fill="#000002" fill-opacity="0.501961" cx="1166" cy="607" rx="112" ry="112" />
<g transform="translate(541.714553 183.655363) rotate(133.523470) scale(6.262921 52.209932)"><ellipse fill="#58ffa5" fill-opacity="0.501961" cx="0" cy="0" rx="1" ry="1" /></g>
<polygon fill="#ff9dd7" fill-opacity="0.501961" points="280.714314,535.544887,257.515270,561.376474,266.686002,520.356467,294.907850,521.911696" />
<polygon fill="#ffa5e0" fill-opacity="0.501961" points="360.708889,423.972251,301.107064,446.791003,336.209740,468.095419,376.363960,415.267566" />
<g transform="translate(565.975862 140.459554) rotate(322.214006) scale(34.859323 74.312904)"><ellipse fill="#031e2d" fill-opacity="0.501961" cx="0" cy="0" rx="1" ry="1" /></g>
<polygon fill="#248c51" fill-opacity="0.501961" points="899,346 892,539 1092,537" />
<polygon fill="#c376a1" fill-opacity="0.501961" points="16,415 61,232 80,308" />
<polygon fill="#070c22" fill-opacity="0.501961" points="1001.664089,457.731576,1215.000000,482.464070,1127.232493,340.797908,1123.526129,296.511173" />
<ellipse fill="#080f1e" fill-opacity="0.501961" cx="1184" cy="155" rx="353" ry="27" />
<ellipse fill="#a36083" fill-opacity="0.501961" cx="437" cy="13" rx="79" ry="79" />
<polygon fill="#000412" fill-opacity="0.501961" points="108,-16 336,-16 274,146" />
<rect fill="#85516f" fill-opacity="0.501961" x="60" y="48" width="125" height="124" />
<ellipse fill="#000003" fill-opacity="0.501961" cx="1120" cy="19" rx="82" ry="82" />
<polygon fill="#00020c" fill-opacity="0.501961" points="-14,645 426,641 -16,454" />
<g transform="translate(1189.686111 109.455841) rotate(414.600755) scale(41.358397 22.358545)"><ellipse fill="#984d6e" fill-opacity="0.501961" cx="0" cy="0" rx="1" ry="1" /></g>
<ellipse fill="#00020d" fill-opacity="0.501961" cx="25" cy="79" rx="35" ry="234" />
<g transform="translate(125.562820 311.175216) rotate(146.484035) scale(32.545480 9.747053)"><ellipse fill="#ec93c6" fill-opacity="0.501961" cx="0" cy="0" rx="1" ry="1" /></g>
<g transform="translate(338.999704 403.854413) rotate(214.750313) scale(20.829101 39.726729)"><ellipse fill="#000a20" fill-opacity="0.501961" cx="0" cy="0" rx="1" ry="1" /></g>
<g transform="translate(606.362291 102.278769) rotate(73.692660) scale(49.220650 5.355081)"><ellipse fill="#77ffb5" fill-opacity="0.501961" cx="0" cy="0" rx="1" ry="1" /></g>
<g transform="translate(293.982843 145.520065) rotate(491.515947) scale(16.818276 92.938286)"><ellipse fill="#030d21" fill-opacity="0.501961" cx="0" cy="0" rx="1" ry="1" /></g>
<g transform="translate(680.125491 105.559704) rotate(117.207611) scale(6.364398 84.168218)"><ellipse fill="#d6689c" fill-opacity="0.501961" cx="0" cy="0" rx="1" ry="1" /></g>
<polygon fill="#000911" fill-opacity="0.501961" points="219.001122,393.276961,210.023619,393.206748,239.092236,442.248002,146.278527,395.390062" />
<polygon fill="#9c3162" fill-opacity="0.501961" points="1131,347 1215,398 1206,162" />
<g transform="translate(851.604536 315.102536) rotate(153.820778) scale(61.141180 20.558764)"><ellipse fill="#25bd66" fill-opacity="0.501961" cx="0" cy="0" rx="1" ry="1" /></g>
<g transform="translate(555.690947 65.073222) rotate(87.609860) scale(6.060541 45.249070)"><ellipse fill="#e25496" fill-opacity="0.501961" cx="0" cy="0" rx="1" ry="1" /></g>
<g transform="translate(24.605926 375.514656) rotate(87.074522) scale(19.175404 114.284436)"><ellipse fill="#a8688e" fill-opacity="0.501961" cx="0" cy="0" rx="1" ry="1" /></g>
<polygon fill="#e5a1cb" fill-opacity="0.501961" points="968.355587,387.151803,951.871814,415.505537,952.683024,359.538202,961.270203,367.941005" />
<g transform="translate(324 528) rotate(247) scale(41 18)"><rect fill="#e68bbe" fill-opacity="0.501961" x="-0.5" y="-0.5" width="1" height="1" /></g>
<rect fill="#985f81" fill-opacity="0.501961" x="327" y="0" width="187" height="66" />
<ellipse fill="#ec5897" fill-opacity="0.501961" cx="811" cy="122" rx="27" ry="28" />
<ellipse fill="#040d1e" fill-opacity="0.501961" cx="164" cy="202" rx="100" ry="20" />
<polygon fill="#0c1322" fill-opacity="0.501961" points="886.211654,625.363452,113.018083,645.000000,340.153156,555.618208,328.249648,498.441665" />
<polygon fill="#fe63aa" fill-opacity="0.501961" points="702,502 707,324 900,364" />
<polygon fill="#000d21" fill-opacity="0.501961" points="571,216 537,236 499,159" />
<rect fill="#131f36" fill-opacity="0.501961" x="556" y="422" width="146" height="105" />
<polygon fill="#0b0825" fill-opacity="0.501961" points="928,167 851,114 814,203" />
<g transform="translate(617.267573 102.450287) rotate(11.774437) scale(105.152082 5.047420)"><ellipse fill="#49f68d" fill-opacity="0.501961" cx="0" cy="0" rx="1" ry="1" /></g>
<rect fill="#ff67b2" fill-opacity="0.501961" x="547" y="229" width="222" height="135" />
<g transform="translate(1006 553) rotate(288) scale(27 74)"><rect fill="#000008" fill-opacity="0.501961" x="-0.5" y="-0.5" width="1" height="1" /></g>
<ellipse fill="#1ab95e" fill-opacity="0.501961" cx="800" cy="246" rx="31" ry="31" />
<polygon fill="#13192d" fill-opacity="0.501961" points="282,442 348,157 107,351" />
<polygon fill="#071020" fill-opacity="0.501961" points="132,550 256,465 101,392" />
<g transform="translate(1119.585909 495.917200) rotate(350.711257) scale(76.854454 5.759160)"><ellipse fill="#b04478" fill-opacity="0.501961" cx="0" cy="0" rx="1" ry="1" /></g>
<polygon fill="#34ad69" fill-opacity="0.501961" points="957,177 790,347 958,263" />
<ellipse fill="#001e05" fill-opacity="0.501961" cx="349" cy="464" rx="10" ry="11" />
<g transform="translate(907.909517 4.858809) rotate(2.849782) scale(149.389989 14.073070)"><ellipse fill="#051f17" fill-opacity="0.501961" cx="0" cy="0" rx="1" ry="1" /></g>
<polygon fill="#1fdd71" fill-opacity="0.501961" points="424.162711,412.770201,362.391115,440.001980,344.530361,459.621375,427.122729,424.375508" />
<g transform="translate(854 239) rotate(316) scale(58 53)"><rect fill="#1f002f" fill-opacity="0.501961" x="-0.5" y="-0.5" width="1" height="1" /></g>
<polygon fill="#b8749e" fill-opacity="0.501961" points="306,183 127,183 182,57" />
<rect fill="#d36da1" fill-opacity="0.501961" x="844" y="362" width="53" height="182" />
<g transform="translate(545.085182 400.239624) rotate(21.595690) scale(117.006488 31.832905)"><ellipse fill="#18203a" fill-opacity="0.501961" cx="0" cy="0" rx="1" ry="1" /></g>
<rect fill="#976887" fill-opacity="0.501961" x="1087" y="183" width="113" height="70" />
<ellipse fill="#c24c84" fill-opacity="0.501961" cx="59" cy="226" rx="8" ry="56" />
<polygon fill="#11c85e" fill-opacity="0.501961" points="771,344 791,292 771,253" />
</g>
</svg>