<svg xmlns="http://www.w3.org/2000/svg" version="1.1" width="1200" height="630">
<rect x="0" y="0" width="1200" height="630" fill="#1b202f" />
<g transform="scale(1.000000) translate(0.5 0.5)">
<path stroke="#ffffff" stroke-opacity="0.501961" fill="none" d="M 461.691945 189.155997 Q 526.271953 425.365594, 711.811546 424.491963" stroke-width="0.500000" />
<path stroke="#ffffff" stroke-opacity="0.501961" fill="none" d="M 484.985837 204.821453 Q 478.633768 400.202472, 747.123111 433.126966" stroke-width="0.500000" />
<path stroke="#ffffff" stroke-opacity="0.501961" fill="none" d="M 998.231062 303.539363 Q 867.119221 286.444606, 896.253329 545.418116" stroke-width="0.500000" />
<path stroke="#ffeefa" stroke-opacity="0.501961" fill="none" d="M 799.635120 388.342235 Q 594.133146 498.088082, 465.670245 227.421310" stroke-width="0.500000" />
<path stroke="#fffeff" stroke-opacity="0.501961" fill="none" d="M 952.510108 313.159865 Q 858.456132 326.752914, 903.747005 605.232985" stroke-width="0.500000" />
<path stroke="#ffffff" stroke-opacity="0.501961" fill="none" d="M 476.617355 224.383457 Q 531.696750 407.096172, 707.468319 421.140001" stroke-width="0.500000" />
<path stroke="#fff2fc" stroke-opacity="0.501961" fill="none" d="M 887.386140 346.057557 Q 913.714675 420.319055, 886.204737 613.665619" stroke-width="0.500000" />
<path stroke="#fff7ff" stroke-opacity="0.501961" fill="none" d="M 752.358414 429.788808 Q 476.460362 430.017442, 486.953007 163.679945" stroke-width="0.500000" />
<path stroke="#fff9ff" stroke-opacity="0.501961" fill="none" d="M 891.812875 604.127309 Q 893.831886 384.018480, 903.661583 344.166656" stroke-width="0.500000" />
<path stroke="#ffffff" stroke-opacity="0.501961" fill="none" d="M 467.821765 213.686319 Q 519.769415 413.213484, 733.105155 426.056127" stroke-width="0.500000" />
<path stroke="#d5d0d8" stroke-opacity="0.501961" fill="none" d="M 797.050788 499.921846 Q 760.685545 413.538507, 320.412977 324.330883" stroke-width="0.500000" />
<path stroke="#ffc7d8" stroke-opacity="0.501961" fill="none" d="M 906.398304 600.618193 Q 866.584871 566.513196, 699.566432 403.276512" stroke-width="0.500000" />
<path stroke="#ffffff" stroke-opacity="0.501961" fill="none" d="M 899.188274 513.228894 Q 864.506816 330.365119, 972.436512 297.248745" stroke-width="0.500000" />
<path stroke="#fff1fd" stroke-opacity="0.501961" fill="none" d="M 943.079921 293.227435 Q 1062.581035 324.794875, 1138.037242 362.312388" stroke-width="0.500000" />
<path stroke="#fff7ff" stroke-opacity="0.501961" fill="none" d="M 889.637328 352.296118 Q 902.113830 456.847370, 899.516890 604.858984" stroke-width="0.500000" />
<path stroke="#ffc4d9" stroke-opacity="0.501961" fill="none" d="M 149.941149 147.282762 Q 373.341536 397.213534, 416.576264 355.489593" stroke-width="0.500000" />
<path stroke="#ffedff" stroke-opacity="0.501961" fill="none" d="M 444.205765 213.757428 Q 488.418183 199.843878, 534.748061 383.035339" stroke-width="0.500000" />
<path stroke="#ffe7ee" stroke-opacity="0.501961" fill="none" d="M 901.998487 605.792921 Q 901.917889 410.285747, 900.588068 334.878515" stroke-width="0.500000" />
<path stroke="#fff9ff" stroke-opacity="0.501961" fill="none" d="M 917.422912 340.549363 Q 944.121860 275.911300, 1131.082834 359.925712" stroke-width="0.500000" />
<path stroke="#ffb8ce" stroke-opacity="0.501961" fill="none" d="M 372.050772 366.661185 Q 246.088414 258.890112, 108.252487 112.089629" stroke-width="0.500000" />
<path stroke="#ffeaf8" stroke-opacity="0.501961" fill="none" d="M 721.510840 416.561058 Q 577.889833 466.749690, 441.569983 178.144306" stroke-width="0.500000" />
<path stroke="#d3ffff" stroke-opacity="0.501961" fill="none" d="M 662.426494 428.972701 Q 583.085716 349.047435, 343.173862 354.358355" stroke-width="0.500000" />
<path stroke="#e0dfe4" stroke-opacity="0.501961" fill="none" d="M 408.137496 351.256113 Q 806.621217 422.326749, 794.375187 517.176542" stroke-width="0.500000" />
<path stroke="#fff1fa" stroke-opacity="0.501961" fill="none" d="M 890.839062 350.776335 Q 910.053784 506.064454, 892.567988 604.237534" stroke-width="0.500000" />
<path stroke="#ffffff" stroke-opacity="0.501961" fill="none" d="M 630.371391 409.270790 Q 475.574046 353.280878, 497.592522 215.620409" stroke-width="0.500000" />
<path stroke="#ffdde9" stroke-opacity="0.501961" fill="none" d="M 918.292628 486.860249 Q 830.711822 355.359271, 1002.666131 293.140646" stroke-width="0.500000" />
<path stroke="#ffb3cb" stroke-opacity="0.501961" fill="none" d="M 105.423669 121.031468 Q 216.987121 199.029578, 371.213430 376.213005" stroke-width="0.500000" />
<path stroke="#ffb9d4" stroke-opacity="0.501961" fill="none" d="M 163.376062 160.551553 Q 286.434074 278.169656, 371.520015 363.883129" stroke-width="0.500000" />
<path stroke="#ffeff9" stroke-opacity="0.501961" fill="none" d="M 933.285760 323.107323 Q 871.081375 376.598593, 904.442500 570.942137" stroke-width="0.500000" />
<path stroke="#ffadc9" stroke-opacity="0.501961" fill="none" d="M 127.785285 142.992705 Q 197.889907 184.226384, 361.872043 367.039523" stroke-width="0.500000" />
<path stroke="#fff2ff" stroke-opacity="0.501961" fill="none" d="M 496.676470 200.786759 Q 499.025629 390.040187, 602.046101 386.418563" stroke-width="0.500000" />
<path stroke="#ebfef6" stroke-opacity="0.501961" fill="none" d="M 352.654256 366.328309 Q 493.491173 218.629342, 503.634625 208.823002" stroke-width="0.500000" />
<path stroke="#ffc8d9" stroke-opacity="0.501961" fill="none" d="M 903.925459 602.395672 Q 745.103181 450.726343, 706.549586 412.153122" stroke-width="0.500000" />
<path stroke="#ffffff" stroke-opacity="0.501961" fill="none" d="M 502.858566 197.627704 Q 452.048878 338.334612, 661.348834 422.972747" stroke-width="0.500000" />
<path stroke="#ffb3ce" stroke-opacity="0.501961" fill="none" d="M 365.179219 372.062586 Q 351.284580 331.909332, 155.931029 165.132661" stroke-width="0.500000" />
<path stroke="#ffffff" stroke-opacity="0.501961" fill="none" d="M 493.030465 206.505457 Q 493.972400 378.794119, 623.243940 403.150085" stroke-width="0.500000" />
<path stroke="#ffe9f2" stroke-opacity="0.501961" fill="none" d="M 894.860125 608.102923 Q 891.335157 500.597722, 903.796231 337.622715" stroke-width="0.500000" />
<path stroke="#f6d6e3" stroke-opacity="0.501961" fill="none" d="M 528.390188 158.770130 Q 405.754039 370.751150, 740.706894 438.698156" stroke-width="0.500000" />
<path stroke="#fffbff" stroke-opacity="0.501961" fill="none" d="M 889.592787 395.156457 Q 911.779521 252.924092, 1099.241657 343.659062" stroke-width="0.500000" />
<path stroke="#fcfffc" stroke-opacity="0.501961" fill="none" d="M 364.603404 346.704075 Q 471.484091 240.858037, 497.984517 210.660171" stroke-width="0.500000" />
<path stroke="#ffdfed" stroke-opacity="0.501961" fill="none" d="M 1147.570589 355.046087 Q 1043.387160 335.565647, 946.963185 295.155986" stroke-width="0.500000" />
<path stroke="#b0b8c0" stroke-opacity="0.501961" fill="none" d="M 297.574754 309.725402 Q 761.988917 426.098134, 758.475284 461.213938" stroke-width="0.500000" />
<path stroke="#ffeaf4" stroke-opacity="0.501961" fill="none" d="M 1123.463651 350.751965 Q 941.315427 271.162297, 888.174014 367.732052" stroke-width="0.500000" />
<path stroke="#ffd7e4" stroke-opacity="0.501961" fill="none" d="M 938.705466 291.745204 Q 1005.824554 314.218314, 1144.664912 365.439098" stroke-width="0.500000" />
<path stroke="#e8e1e1" stroke-opacity="0.501961" fill="none" d="M 548.748212 352.458481 Q 359.351627 391.742158, 291.207150 291.899155" stroke-width="0.500000" />
<path stroke="#ffeaf6" stroke-opacity="0.501961" fill="none" d="M 489.576876 207.983043 Q 492.830104 406.752124, 746.491348 425.911930" stroke-width="0.500000" />
<path stroke="#fff3ff" stroke-opacity="0.501961" fill="none" d="M 889.270648 406.248580 Q 907.317591 271.754727, 1028.248299 319.872249" stroke-width="0.500000" />
<path stroke="#ffdfee" stroke-opacity="0.501961" fill="none" d="M 697.188511 425.869193 Q 560.328783 435.175798, 447.286695 196.789669" stroke-width="0.500000" />
<path stroke="#ffa7bd" stroke-opacity="0.501961" fill="none" d="M 1155.701961 434.196999 Q 958.382015 276.097171, 936.924776 304.316535" stroke-width="0.500000" />
<path stroke="#ff9cb1" stroke-opacity="0.501961" fill="none" d="M 1167.806518 432.147355 Q 1039.910469 361.970571, 935.312111 280.637506" stroke-width="0.500000" />
<path stroke="#ffa6bb" stroke-opacity="0.501961" fill="none" d="M 1156.842675 440.853496 Q 1024.599139 326.125939, 942.846607 295.182863" stroke-width="0.500000" />
<path stroke="#ffe2eb" stroke-opacity="0.501961" fill="none" d="M 901.041876 336.922424 Q 892.327094 410.191713, 890.098651 610.787740" stroke-width="0.500000" />
<path stroke="#ffc7d3" stroke-opacity="0.501961" fill="none" d="M 510.861212 356.775410 Q 373.581893 400.515277, 231.477781 227.980324" stroke-width="0.500000" />
<path stroke="#ffdef3" stroke-opacity="0.501961" fill="none" d="M 447.924412 213.737283 Q 505.746174 245.632199, 540.448328 385.731611" stroke-width="0.500000" />
<path stroke="#ffc6d8" stroke-opacity="0.501961" fill="none" d="M 709.013662 416.663489 Q 862.271130 566.294357, 900.627005 601.448327" stroke-width="0.500000" />
<path stroke="#fff5ff" stroke-opacity="0.501961" fill="none" d="M 900.183532 510.458390 Q 862.854113 293.020766, 1006.944400 305.651038" stroke-width="0.500000" />
<path stroke="#ffdeeb" stroke-opacity="0.501961" fill="none" d="M 940.841641 290.778460 Q 1048.042172 319.627283, 1137.447769 359.586914" stroke-width="0.500000" />
<path stroke="#9cd7c4" stroke-opacity="0.501961" fill="none" d="M 185.281997 504.354276 Q 102.312786 318.846637, 37.320331 209.388363" stroke-width="0.500000" />
<path stroke="#e5f3ee" stroke-opacity="0.501961" fill="none" d="M 359.438436 362.545560 Q 477.502284 239.131234, 504.378654 210.401432" stroke-width="0.500000" />
<path stroke="#ffffff" stroke-opacity="0.501961" fill="none" d="M 733.039292 428.432378 Q 525.120532 405.664651, 509.552083 308.961196" stroke-width="0.500000" />
<path stroke="#ffe0e9" stroke-opacity="0.501961" fill="none" d="M 887.322621 353.741290 Q 902.447939 491.429216, 896.617885 614.320547" stroke-width="0.500000" />
<path stroke="#ffd5e2" stroke-opacity="0.501961" fill="none" d="M 1140.996674 351.062210 Q 1139.250927 356.911079, 944.872005 293.472453" stroke-width="0.500000" />
<path stroke="#ffc4d7" stroke-opacity="0.501961" fill="none" d="M 896.493405 590.538248 Q 802.225772 501.108400, 706.779737 408.604530" stroke-width="0.500000" />
<path stroke="#ffa8bf" stroke-opacity="0.501961" fill="none" d="M 370.946744 357.218001 Q 198.098153 216.732974, 113.006705 106.903501" stroke-width="0.500000" />
<path stroke="#eef1ed" stroke-opacity="0.501961" fill="none" d="M 380.179508 335.430752 Q 448.315252 264.655693, 504.332023 205.792223" stroke-width="0.500000" />
<path stroke="#ffd2ec" stroke-opacity="0.501961" fill="none" d="M 446.342983 215.830983 Q 552.500201 316.471695, 515.818035 375.543482" stroke-width="0.500000" />
<path stroke="#ffbfcd" stroke-opacity="0.501961" fill="none" d="M 468.782377 362.711737 Q 335.617685 368.410104, 237.927025 238.349110" stroke-width="0.500000" />
<path stroke="#ffc0cd" stroke-opacity="0.501961" fill="none" d="M 1142.277040 366.068910 Q 952.582474 293.830257, 937.530524 311.540903" stroke-width="0.500000" />
<path stroke="#dae9e4" stroke-opacity="0.501961" fill="none" d="M 351.031976 358.935497 Q 460.017759 249.372104, 497.836767 206.836871" stroke-width="0.500000" />
<path stroke="#ffabc0" stroke-opacity="0.501961" fill="none" d="M 902.577712 605.439711 Q 761.932864 471.089818, 730.190537 439.404862" stroke-width="0.500000" />
<path stroke="#ffecfa" stroke-opacity="0.501961" fill="none" d="M 477.704399 200.702235 Q 511.041439 391.746665, 624.530592 400.129951" stroke-width="0.500000" />
<path stroke="#ff9caf" stroke-opacity="0.501961" fill="none" d="M 936.565150 292.902273 Q 1042.549844 342.417798, 1168.231136 446.603724" stroke-width="0.500000" />
<path stroke="#ffffff" stroke-opacity="0.501961" fill="none" d="M 456.214524 209.671528 Q 440.712846 274.139458, 503.277982 256.385823" stroke-width="0.500000" />
<path stroke="#ffd7e4" stroke-opacity="0.501961" fill="none" d="M 892.294147 580.318395 Q 912.320182 452.958741, 894.143825 346.661606" stroke-width="0.500000" />
<path stroke="#ffa7c0" stroke-opacity="0.501961" fill="none" d="M 390.347500 363.662371 Q 375.256932 370.366495, 191.337113 184.902247" stroke-width="0.500000" />
<path stroke="#ff95ad" stroke-opacity="0.501961" fill="none" d="M 952.590364 299.053563 Q 1006.074051 332.103058, 1127.118227 416.418391" stroke-width="0.500000" />
<path stroke="#fffbff" stroke-opacity="0.501961" fill="none" d="M 900.710636 477.704400 Q 869.210424 339.234530, 936.818493 322.930085" stroke-width="0.500000" />
<path stroke="#e5ffff" stroke-opacity="0.501961" fill="none" d="M 728.411485 415.467262 Q 667.986584 443.974700, 522.599165 358.921950" stroke-width="0.500000" />
<path stroke="#ffdbfc" stroke-opacity="0.501961" fill="none" d="M 531.664297 336.699492 Q 489.329203 254.979163, 447.977674 221.283308" stroke-width="0.500000" />
<path stroke="#ffadbd" stroke-opacity="0.501961" fill="none" d="M 709.818227 412.817136 Q 832.999095 517.265361, 901.573862 613.094064" stroke-width="0.500000" />
<path stroke="#ffdbea" stroke-opacity="0.501961" fill="none" d="M 687.104752 426.096372 Q 441.339666 338.056055, 503.484652 205.091904" stroke-width="0.500000" />
<path stroke="#ffd1dc" stroke-opacity="0.501961" fill="none" d="M 1146.833105 357.934133 Q 1092.363954 333.502349, 967.338566 296.920374" stroke-width="0.500000" />
<path stroke="#ffd8f8" stroke-opacity="0.501961" fill="none" d="M 444.153048 212.168926 Q 506.386689 262.112259, 523.313246 334.791824" stroke-width="0.500000" />
<path stroke="#ffffff" stroke-opacity="0.501961" fill="none" d="M 501.805747 263.763283 Q 514.631760 197.362987, 447.044540 217.726331" stroke-width="0.500000" />
<path stroke="#ff9ab0" stroke-opacity="0.501961" fill="none" d="M 110.064266 117.408498 Q 162.338190 175.593964, 292.122451 295.779283" stroke-width="0.500000" />
<path stroke="#fbacbd" stroke-opacity="0.501961" fill="none" d="M 617.848649 415.560933 Q 717.278124 376.620081, 897.313686 607.467766" stroke-width="0.500000" />
<path stroke="#ffb1c2" stroke-opacity="0.501961" fill="none" d="M 905.780363 600.719279 Q 745.040702 434.472097, 686.188926 418.391657" stroke-width="0.500000" />
<path stroke="#ff9eb3" stroke-opacity="0.501961" fill="none" d="M 111.780490 110.504800 Q 249.266288 247.302838, 381.792051 375.133897" stroke-width="0.500000" />
<path stroke="#bcfff8" stroke-opacity="0.501961" fill="none" d="M 371.620909 355.070038 Q 591.192443 357.533731, 675.215563 431.121759" stroke-width="0.500000" />
<path stroke="#ffa1bf" stroke-opacity="0.501961" fill="none" d="M 165.532548 168.190958 Q 280.303831 279.112726, 355.569517 351.106782" stroke-width="0.500000" />
<path stroke="#d6e9e2" stroke-opacity="0.501961" fill="none" d="M 500.625756 207.730588 Q 455.111322 252.195258, 355.865318 361.984809" stroke-width="0.500000" />
<path stroke="#ffafbd" stroke-opacity="0.501961" fill="none" d="M 708.659393 412.635146 Q 811.737084 518.528013, 904.296794 603.028818" stroke-width="0.500000" />
<path stroke="#ffa5b7" stroke-opacity="0.501961" fill="none" d="M 705.403882 400.027530 Q 877.730577 587.362841, 905.606250 584.839541" stroke-width="0.500000" />
<path stroke="#e5eae7" stroke-opacity="0.501961" fill="none" d="M 376.233334 343.669969 Q 465.757763 248.980466, 503.623798 210.306142" stroke-width="0.500000" />
<path stroke="#ffe5f1" stroke-opacity="0.501961" fill="none" d="M 697.299315 430.710338 Q 500.347106 396.820080, 483.447674 204.922625" stroke-width="0.500000" />
<path stroke="#ff97ad" stroke-opacity="0.501961" fill="none" d="M 1163.652823 429.950163 Q 1059.196080 358.348545, 958.905596 290.483684" stroke-width="0.500000" />
<path stroke="#ff98ac" stroke-opacity="0.501961" fill="none" d="M 1163.314492 432.013940 Q 1070.272362 376.765213, 947.922226 289.520061" stroke-width="0.500000" />
<path stroke="#fff5ff" stroke-opacity="0.501961" fill="none" d="M 490.864698 281.532012 Q 527.374547 211.866344, 447.114538 210.812519" stroke-width="0.500000" />
<path stroke="#ffb5c4" stroke-opacity="0.501961" fill="none" d="M 914.599112 293.900043 Q 1127.172999 343.862799, 1142.735006 375.488374" stroke-width="0.500000" />
<path stroke="#ffe6f3" stroke-opacity="0.501961" fill="none" d="M 463.498264 208.438224 Q 534.662009 403.286449, 635.363012 404.859741" stroke-width="0.500000" />
</g>
</svg>