<svg xmlns="http://www.w3.org/2000/svg" version="1.1" width="1200" height="630">
<rect x="0" y="0" width="1200" height="630" fill="#22272f" />
<g transform="scale(1.000000) translate(0.5 0.5)">
<g transform="translate(1079.794310 438.697379) rotate(200.778159) scale(148.110114 88.965989)"><ellipse fill="#ff57a8" fill-opacity="0.501961" cx="0" cy="0" rx="1" ry="1" /></g>
<g transform="translate(1016.360630 131.926766) rotate(108.608213) scale(86.536772 104.767354)"><ellipse fill="#93dcaa" fill-opacity="0.501961" cx="0" cy="0" rx="1" ry="1" /></g>
<g transform="translate(799.588748 292.056550) rotate(185.417375) scale(187.533938 84.210551)"><ellipse fill="#70937e" fill-opacity="0.501961" cx="0" cy="0" rx="1" ry="1" /></g>
<g transform="translate(58.699139 298.844779) rotate(180.313581) scale(61.112517 54.202389)"><ellipse fill="#ff53a7" fill-opacity="0.501961" cx="0" cy="0" rx="1" ry="1" /></g>
<g transform="translate(724.560628 526.573921) rotate(463.844107) scale(51.008487 33.211559)"><ellipse fill="#b9ffd6" fill-opacity="0.501961" cx="0" cy="0" rx="1" ry="1" /></g>
<g transform="translate(715.026181 28.327638) rotate(173.422192) scale(84.214528 57.570377)"><ellipse fill="#bb8f9b" fill-opacity="0.501961" cx="0" cy="0" rx="1" ry="1" /></g>
<g transform="translate(760.440748 332.181714) rotate(351.685018) scale(62.209517 34.793082)"><ellipse fill="#ff0069" fill-opacity="0.501961" cx="0" cy="0" rx="1" ry="1" /></g>
<g transform="translate(697.417531 230.969853) rotate(260.563704) scale(99.581876 54.190414)"><ellipse fill="#3bbf7f" fill-opacity="0.501961" cx="0" cy="0" rx="1" ry="1" /></g>
<g transform="translate(234.161366 259.444988) rotate(130.749063) scale(37.263060 66.821210)"><ellipse fill="#3eb376" fill-opacity="0.501961" cx="0" cy="0" rx="1" ry="1" /></g>
<g transform="translate(809.273874 216.664003) rotate(110.783893) scale(77.476044 41.390268)"><ellipse fill="#00000b" fill-opacity="0.501961" cx="0" cy="0" rx="1" ry="1" /></g>
<g transform="translate(662.178132 103.183310) rotate(1.693758) scale(8.124269 41.875052)"><ellipse fill="#ffe4f9" fill-opacity="0.501961" cx="0" cy="0" rx="1" ry="1" /></g>
<g transform="translate(777.952517 323.555508) rotate(132.494599) scale(31.132956 48.525159)"><ellipse fill="#ff0063" fill-opacity="0.501961" cx="0" cy="0" rx="1" ry="1" /></g>
<g transform="translate(1002.645651 403.797856) rotate(212.774252) scale(46.026287 81.097064)"><ellipse fill="#ee599f" fill-opacity="0.501961" cx="0" cy="0" rx="1" ry="1" /></g>
<g transform="translate(1105.885025 337.910332) rotate(288.726703) scale(33.206396 55.690762)"><ellipse fill="#000000" fill-opacity="0.501961" cx="0" cy="0" rx="1" ry="1" /></g>
<g transform="translate(1129.929979 536.943522) rotate(-10.234101) scale(94.010785 41.651217)"><ellipse fill="#83234b" fill-opacity="0.501961" cx="0" cy="0" rx="1" ry="1" /></g>
<g transform="translate(814.991710 508.005619) rotate(136.619243) scale(46.593248 8.914942)"><ellipse fill="#ff1f9a" fill-opacity="0.501961" cx="0" cy="0" rx="1" ry="1" /></g>
<g transform="translate(99.652297 79.869752) rotate(317.091410) scale(172.892249 147.769700)"><ellipse fill="#000000" fill-opacity="0.501961" cx="0" cy="0" rx="1" ry="1" /></g>
<g transform="translate(705.603737 348.625510) rotate(352.234522) scale(59.283538 10.168400)"><ellipse fill="#ff0079" fill-opacity="0.501961" cx="0" cy="0" rx="1" ry="1" /></g>
<g transform="translate(1166.186764 164.473879) rotate(93.326886) scale(197.329315 45.955293)"><ellipse fill="#000000" fill-opacity="0.501961" cx="0" cy="0" rx="1" ry="1" /></g>
<g transform="translate(1196.706101 381.499051) rotate(170.420312) scale(66.209318 27.059664)"><ellipse fill="#c77c9a" fill-opacity="0.501961" cx="0" cy="0" rx="1" ry="1" /></g>
<g transform="translate(935.850094 579.856562) rotate(204.112745) scale(132.207984 106.896471)"><ellipse fill="#000003" fill-opacity="0.501961" cx="0" cy="0" rx="1" ry="1" /></g>
<g transform="translate(897.541736 303.063113) rotate(470.179991) scale(81.906097 82.727697)"><ellipse fill="#289f67" fill-opacity="0.501961" cx="0" cy="0" rx="1" ry="1" /></g>
<g transform="translate(671.215247 24.254304) rotate(159.830414) scale(52.011029 30.123764)"><ellipse fill="#bf0054" fill-opacity="0.501961" cx="0" cy="0" rx="1" ry="1" /></g>
<g transform="translate(337.473792 494.644355) rotate(94.475244) scale(189.909381 349.639965)"><ellipse fill="#000713" fill-opacity="0.501961" cx="0" cy="0" rx="1" ry="1" /></g>
<g transform="translate(1116.969455 620.239959) rotate(89.224473) scale(43.397697 173.037150)"><ellipse fill="#000000" fill-opacity="0.501961" cx="0" cy="0" rx="1" ry="1" /></g>
<g transform="translate(652.380088 322.465673) rotate(87.218166) scale(28.403176 43.740147)"><ellipse fill="#41c084" fill-opacity="0.501961" cx="0" cy="0" rx="1" ry="1" /></g>
<g transform="translate(59.848614 434.253641) rotate(178.968840) scale(7.483758 89.065823)"><ellipse fill="#eb5293" fill-opacity="0.501961" cx="0" cy="0" rx="1" ry="1" /></g>
<g transform="translate(798.705588 381.119574) rotate(184.079639) scale(81.773841 23.549863)"><ellipse fill="#00051c" fill-opacity="0.501961" cx="0" cy="0" rx="1" ry="1" /></g>
<g transform="translate(459.337801 180.540713) rotate(63.565606) scale(211.800352 186.591756)"><ellipse fill="#000b1a" fill-opacity="0.501961" cx="0" cy="0" rx="1" ry="1" /></g>
<g transform="translate(1040.022359 62.277495) rotate(21.542746) scale(88.366435 41.438644)"><ellipse fill="#476951" fill-opacity="0.501961" cx="0" cy="0" rx="1" ry="1" /></g>
<g transform="translate(841.166465 88.434439) rotate(140.031722) scale(105.454014 63.787075)"><ellipse fill="#00010c" fill-opacity="0.501961" cx="0" cy="0" rx="1" ry="1" /></g>
<g transform="translate(981.604388 184.499526) rotate(302.176904) scale(27.767441 62.809313)"><ellipse fill="#80b899" fill-opacity="0.501961" cx="0" cy="0" rx="1" ry="1" /></g>
<g transform="translate(751.132536 39.000206) rotate(141.384236) scale(57.595467 33.539043)"><ellipse fill="#4bac78" fill-opacity="0.501961" cx="0" cy="0" rx="1" ry="1" /></g>
<g transform="translate(147.819918 302.573822) rotate(180.444474) scale(39.812630 7.668037)"><ellipse fill="#ff2890" fill-opacity="0.501961" cx="0" cy="0" rx="1" ry="1" /></g>
<g transform="translate(1137.460476 26.698976) rotate(307.168543) scale(41.032770 121.036224)"><ellipse fill="#000000" fill-opacity="0.501961" cx="0" cy="0" rx="1" ry="1" /></g>
<g transform="translate(758.966051 540.551878) rotate(309.736084) scale(19.239604 10.913399)"><ellipse fill="#95e1b1" fill-opacity="0.501961" cx="0" cy="0" rx="1" ry="1" /></g>
<g transform="translate(1067.541929 264.763287) rotate(151.499898) scale(105.030864 49.741677)"><ellipse fill="#000412" fill-opacity="0.501961" cx="0" cy="0" rx="1" ry="1" /></g>
<g transform="translate(799.133567 271.186729) rotate(253.125415) scale(48.742849 16.720642)"><ellipse fill="#000015" fill-opacity="0.501961" cx="0" cy="0" rx="1" ry="1" /></g>
<g transform="translate(732.074781 595.055289) rotate(69.430759) scale(26.143388 141.542082)"><ellipse fill="#00010d" fill-opacity="0.501961" cx="0" cy="0" rx="1" ry="1" /></g>
<g transform="translate(759.218392 330.659693) rotate(251.452257) scale(24.146933 48.087617)"><ellipse fill="#ff0063" fill-opacity="0.501961" cx="0" cy="0" rx="1" ry="1" /></g>
<g transform="translate(923.547960 422.751891) rotate(282.246126) scale(51.162420 21.641319)"><ellipse fill="#000412" fill-opacity="0.501961" cx="0" cy="0" rx="1" ry="1" /></g>
<g transform="translate(138.631355 626.270295) rotate(55.300265) scale(144.002739 44.082285)"><ellipse fill="#23492b" fill-opacity="0.501961" cx="0" cy="0" rx="1" ry="1" /></g>
<g transform="translate(846.082975 208.429455) rotate(150.888703) scale(90.595124 29.198663)"><ellipse fill="#000a1d" fill-opacity="0.501961" cx="0" cy="0" rx="1" ry="1" /></g>
<g transform="translate(706.748065 112.575434) rotate(131.149563) scale(31.676930 46.434847)"><ellipse fill="#000614" fill-opacity="0.501961" cx="0" cy="0" rx="1" ry="1" /></g>
<g transform="translate(950.981499 69.808068) rotate(214.845148) scale(21.025308 53.060779)"><ellipse fill="#5d876e" fill-opacity="0.501961" cx="0" cy="0" rx="1" ry="1" /></g>
<g transform="translate(1179.248269 505.625277) rotate(130.447111) scale(81.399214 61.883088)"><ellipse fill="#612441" fill-opacity="0.501961" cx="0" cy="0" rx="1" ry="1" /></g>
<g transform="translate(311.977754 21.448237) rotate(248.998680) scale(56.237936 76.267239)"><ellipse fill="#17502b" fill-opacity="0.501961" cx="0" cy="0" rx="1" ry="1" /></g>
<g transform="translate(777.862957 472.385225) rotate(154.190725) scale(37.469863 46.793421)"><ellipse fill="#000618" fill-opacity="0.501961" cx="0" cy="0" rx="1" ry="1" /></g>
<g transform="translate(11.971608 528.990806) rotate(449.016837) scale(195.730291 45.708524)"><ellipse fill="#000c06" fill-opacity="0.501961" cx="0" cy="0" rx="1" ry="1" /></g>
<g transform="translate(149.503073 249.832340) rotate(390.093253) scale(31.519788 50.059727)"><ellipse fill="#000311" fill-opacity="0.501961" cx="0" cy="0" rx="1" ry="1" /></g>
<g transform="translate(1034.573048 523.516008) rotate(18.645181) scale(10.962311 26.704493)"><ellipse fill="#000000" fill-opacity="0.501961" cx="0" cy="0" rx="1" ry="1" /></g>
<g transform="translate(206.756104 204.604372) rotate(53.264405) scale(43.767605 14.038563)"><ellipse fill="#358860" fill-opacity="0.501961" cx="0" cy="0" rx="1" ry="1" /></g>
<g transform="translate(766.754643 295.598127) rotate(346.629501) scale(12.176860 22.795887)"><ellipse fill="#ff0064" fill-opacity="0.501961" cx="0" cy="0" rx="1" ry="1" /></g>
<g transform="translate(835.354928 434.174698) rotate(177.393185) scale(112.689297 44.898930)"><ellipse fill="#000e1e" fill-opacity="0.501961" cx="0" cy="0" rx="1" ry="1" /></g>
<g transform="translate(287.984802 287.299674) rotate(208.180047) scale(34.698398 14.064883)"><ellipse fill="#40a071" fill-opacity="0.501961" cx="0" cy="0" rx="1" ry="1" /></g>
<g transform="translate(1057.841447 338.780590) rotate(301.333293) scale(8.689087 76.949384)"><ellipse fill="#000f16" fill-opacity="0.501961" cx="0" cy="0" rx="1" ry="1" /></g>
<g transform="translate(1068.405009 545.725157) rotate(20.880174) scale(21.898682 33.246122)"><ellipse fill="#9a3b6a" fill-opacity="0.501961" cx="0" cy="0" rx="1" ry="1" /></g>
<g transform="translate(539.187329 36.436200) rotate(329.441890) scale(191.243237 35.706163)"><ellipse fill="#000a14" fill-opacity="0.501961" cx="0" cy="0" rx="1" ry="1" /></g>
<g transform="translate(191.083946 284.366147) rotate(22.032882) scale(7.303272 128.649926)"><ellipse fill="#307c55" fill-opacity="0.501961" cx="0" cy="0" rx="1" ry="1" /></g>
<g transform="translate(854.875386 585.943615) rotate(79.781885) scale(59.755249 159.120858)"><ellipse fill="#020c18" fill-opacity="0.501961" cx="0" cy="0" rx="1" ry="1" /></g>
<g transform="translate(1099.117086 117.893027) rotate(174.386579) scale(28.791262 50.478373)"><ellipse fill="#486957" fill-opacity="0.501961" cx="0" cy="0" rx="1" ry="1" /></g>
<g transform="translate(706.232396 303.501657) rotate(233.010402) scale(26.880812 57.010906)"><ellipse fill="#329468" fill-opacity="0.501961" cx="0" cy="0" rx="1" ry="1" /></g>
<g transform="translate(723.446535 391.317192) rotate(227.759057) scale(2.644976 53.856013)"><ellipse fill="#b46f9d" fill-opacity="0.501961" cx="0" cy="0" rx="1" ry="1" /></g>
<g transform="translate(728.884886 203.031183) rotate(421.161761) scale(62.288015 25.264004)"><ellipse fill="#3b8f68" fill-opacity="0.501961" cx="0" cy="0" rx="1" ry="1" /></g>
<g transform="translate(626.081095 65.808709) rotate(8.176913) scale(28.754792 19.329053)"><ellipse fill="#00000d" fill-opacity="0.501961" cx="0" cy="0" rx="1" ry="1" /></g>
<g transform="translate(658.574420 156.315652) rotate(343.140561) scale(17.380907 24.706560)"><ellipse fill="#429a6d" fill-opacity="0.501961" cx="0" cy="0" rx="1" ry="1" /></g>
<g transform="translate(213.730208 275.382255) rotate(234.132272) scale(30.544779 33.235778)"><ellipse fill="#378660" fill-opacity="0.501961" cx="0" cy="0" rx="1" ry="1" /></g>
<g transform="translate(1046.979236 418.593658) rotate(391.824191) scale(56.902168 68.128543)"><ellipse fill="#bc487f" fill-opacity="0.501961" cx="0" cy="0" rx="1" ry="1" /></g>
<g transform="translate(786.472234 336.864435) rotate(26.415267) scale(49.092654 10.535215)"><ellipse fill="#ff0068" fill-opacity="0.501961" cx="0" cy="0" rx="1" ry="1" /></g>
<g transform="translate(269.459890 193.700714) rotate(174.519383) scale(27.979394 57.991029)"><ellipse fill="#000a18" fill-opacity="0.501961" cx="0" cy="0" rx="1" ry="1" /></g>
<g transform="translate(712.449244 63.579422) rotate(2.052371) scale(32.913508 18.709698)"><ellipse fill="#6ead8b" fill-opacity="0.501961" cx="0" cy="0" rx="1" ry="1" /></g>
<g transform="translate(722.924449 500.096783) rotate(14.416124) scale(15.860465 31.716235)"><ellipse fill="#87cca2" fill-opacity="0.501961" cx="0" cy="0" rx="1" ry="1" /></g>
<g transform="translate(664.923617 408.380840) rotate(123.613929) scale(57.011931 30.230508)"><ellipse fill="#001024" fill-opacity="0.501961" cx="0" cy="0" rx="1" ry="1" /></g>
<g transform="translate(682.376972 446.653807) rotate(202.575220) scale(3.057708 37.599589)"><ellipse fill="#9e638d" fill-opacity="0.501961" cx="0" cy="0" rx="1" ry="1" /></g>
<g transform="translate(782.074523 541.629014) rotate(338.195912) scale(12.872554 5.807333)"><ellipse fill="#e94f95" fill-opacity="0.501961" cx="0" cy="0" rx="1" ry="1" /></g>
<g transform="translate(1120.780999 349.077551) rotate(115.452447) scale(36.939987 21.909171)"><ellipse fill="#00131d" fill-opacity="0.501961" cx="0" cy="0" rx="1" ry="1" /></g>
<g transform="translate(661.377871 354.598104) rotate(141.952049) scale(10.879005 8.483477)"><ellipse fill="#ff63ac" fill-opacity="0.501961" cx="0" cy="0" rx="1" ry="1" /></g>
<g transform="translate(677.883651 502.651206) rotate(75.952295) scale(32.088633 5.102893)"><ellipse fill="#7d5374" fill-opacity="0.501961" cx="0" cy="0" rx="1" ry="1" /></g>
<g transform="translate(75.644313 288.746844) rotate(61.879316) scale(57.508143 26.288204)"><ellipse fill="#b9467b" fill-opacity="0.501961" cx="0" cy="0" rx="1" ry="1" /></g>
<g transform="translate(304.655097 576.106449) rotate(394.520865) scale(215.498934 114.010707)"><ellipse fill="#010c14" fill-opacity="0.501961" cx="0" cy="0" rx="1" ry="1" /></g>
<g transform="translate(720.522412 341.321886) rotate(342.346214) scale(51.438355 10.278394)"><ellipse fill="#ff0061" fill-opacity="0.501961" cx="0" cy="0" rx="1" ry="1" /></g>
<g transform="translate(931.508237 207.468970) rotate(32.145274) scale(165.323475 18.499114)"><ellipse fill="#00101d" fill-opacity="0.501961" cx="0" cy="0" rx="1" ry="1" /></g>
<g transform="translate(0.000000 82.347649) rotate(58.726471) scale(163.632013 229.225848)"><ellipse fill="#00040d" fill-opacity="0.501961" cx="0" cy="0" rx="1" ry="1" /></g>
<g transform="translate(163.179637 619.431908) rotate(147.322071) scale(46.383093 10.192571)"><ellipse fill="#516b57" fill-opacity="0.501961" cx="0" cy="0" rx="1" ry="1" /></g>
<g transform="translate(964.911859 400.158995) rotate(178.628680) scale(16.802721 44.638911)"><ellipse fill="#dc5b9a" fill-opacity="0.501961" cx="0" cy="0" rx="1" ry="1" /></g>
<g transform="translate(652.859321 230.176019) rotate(87.476709) scale(17.258500 3.712141)"><ellipse fill="#ffabe0" fill-opacity="0.501961" cx="0" cy="0" rx="1" ry="1" /></g>
<g transform="translate(630.579632 257.781365) rotate(300.521789) scale(28.514518 16.747103)"><ellipse fill="#00061e" fill-opacity="0.501961" cx="0" cy="0" rx="1" ry="1" /></g>
<g transform="translate(776.007949 210.368964) rotate(253.640254) scale(108.585387 18.919354)"><ellipse fill="#011425" fill-opacity="0.501961" cx="0" cy="0" rx="1" ry="1" /></g>
<g transform="translate(120.845667 611.218225) rotate(271.140863) scale(58.051361 13.945014)"><ellipse fill="#445a4c" fill-opacity="0.501961" cx="0" cy="0" rx="1" ry="1" /></g>
<g transform="translate(819.095525 3.851653) rotate(359.336007) scale(135.937816 5.033046)"><ellipse fill="#4e6d58" fill-opacity="0.501961" cx="0" cy="0" rx="1" ry="1" /></g>
<g transform="translate(660.863493 96.887330) rotate(356.178192) scale(5.212155 36.727521)"><ellipse fill="#f5b4cd" fill-opacity="0.501961" cx="0" cy="0" rx="1" ry="1" /></g>
<g transform="translate(1158.877668 605.236495) rotate(88.868469) scale(27.633323 142.788696)"><ellipse fill="#000002" fill-opacity="0.501961" cx="0" cy="0" rx="1" ry="1" /></g>
<g transform="translate(1183.141080 394.779609) rotate(271.077713) scale(30.813255 72.787365)"><ellipse fill="#925974" fill-opacity="0.501961" cx="0" cy="0" rx="1" ry="1" /></g>
<g transform="translate(737.765106 587.455334) rotate(216.039051) scale(62.651654 2.472150)"><ellipse fill="#8a6475" fill-opacity="0.501961" cx="0" cy="0" rx="1" ry="1" /></g>
<g transform="translate(926.977635 24.770839) rotate(88.404362) scale(17.775527 35.870817)"><ellipse fill="#000002" fill-opacity="0.501961" cx="0" cy="0" rx="1" ry="1" /></g>
<g transform="translate(712.261473 442.833435) rotate(31.340584) scale(22.284231 63.437726)"><ellipse fill="#000d1f" fill-opacity="0.501961" cx="0" cy="0" rx="1" ry="1" /></g>
<g transform="translate(699.757270 552.370815) rotate(171.114469) scale(9.473986 31.289816)"><ellipse fill="#7ca089" fill-opacity="0.501961" cx="0" cy="0" rx="1" ry="1" /></g>
<g transform="translate(59.268452 359.433597) rotate(-1.962491) scale(7.894954 70.131735)"><ellipse fill="#ad4275" fill-opacity="0.501961" cx="0" cy="0" rx="1" ry="1" /></g>
<g transform="translate(1040.051588 54.277954) rotate(283.012909) scale(39.714990 61.592272)"><ellipse fill="#415f4e" fill-opacity="0.501961" cx="0" cy="0" rx="1" ry="1" /></g>
<g transform="translate(0.000000 286.165248) rotate(-0.251859) scale(4.775991 64.393861)"><ellipse fill="#00040a" fill-opacity="0.501961" cx="0" cy="0" rx="1" ry="1" /></g>
</g>
</svg>