<svg xmlns="http://www.w3.org/2000/svg" version="1.1" width="1200" height="630">
<rect x="0" y="0" width="1200" height="630" fill="#2d3a41" />
<g transform="scale(1.000000) translate(0.5 0.5)">
<rect fill="#f3ffff" fill-opacity="0.501961" x="408" y="177" width="145" height="201" />
<rect fill="#d8ffec" fill-opacity="0.501961" x="159" y="287" width="156" height="198" />
<rect fill="#98ffff" fill-opacity="0.501961" x="752" y="197" width="121" height="94" />
<rect fill="#a2ffe2" fill-opacity="0.501961" x="472" y="185" width="67" height="303" />
<rect fill="#a6cfd4" fill-opacity="0.501961" x="25" y="185" width="174" height="91" />
<rect fill="#daf1ef" fill-opacity="0.501961" x="993" y="154" width="125" height="66" />
<rect fill="#9bffbe" fill-opacity="0.501961" x="412" y="260" width="393" height="49" />
<rect fill="#09001d" fill-opacity="0.501961" x="538" y="0" width="198" height="241" />
<rect fill="#a4ced1" fill-opacity="0.501961" x="617" y="552" width="77" height="78" />
<rect fill="#a2c8d3" fill-opacity="0.501961" x="1100" y="326" width="79" height="77" />
<rect fill="#92f5a3" fill-opacity="0.501961" x="188" y="278" width="93" height="223" />
<rect fill="#060018" fill-opacity="0.501961" x="319" y="365" width="148" height="265" />
<rect fill="#0a011b" fill-opacity="0.501961" x="268" y="0" width="143" height="298" />
<rect fill="#a4ffcc" fill-opacity="0.501961" x="403" y="203" width="141" height="156" />
<rect fill="#050015" fill-opacity="0.501961" x="817" y="50" width="156" height="169" />
<rect fill="#8df77c" fill-opacity="0.501961" x="199" y="98" width="101" height="40" />
<rect fill="#83ffe5" fill-opacity="0.501961" x="761" y="232" width="143" height="37" />
<rect fill="#00000c" fill-opacity="0.501961" x="679" y="251" width="85" height="34" />
<rect fill="#87ffea" fill-opacity="0.501961" x="740" y="176" width="51" height="55" />
<rect fill="#5ebf95" fill-opacity="0.501961" x="1051" y="47" width="47" height="107" />
<rect fill="#b5dbc8" fill-opacity="0.501961" x="744" y="293" width="29" height="88" />
<rect fill="#040014" fill-opacity="0.501961" x="409" y="0" width="129" height="160" />
<rect fill="#050015" fill-opacity="0.501961" x="785" y="286" width="322" height="344" />
<rect fill="#00000a" fill-opacity="0.501961" x="570" y="278" width="89" height="19" />
<rect fill="#00000a" fill-opacity="0.501961" x="122" y="264" width="59" height="49" />
<rect fill="#cfffb2" fill-opacity="0.501961" x="444" y="166" width="56" height="138" />
<rect fill="#60ffdf" fill-opacity="0.501961" x="394" y="308" width="164" height="43" />
<rect fill="#b4c9c5" fill-opacity="0.501961" x="1084" y="203" width="57" height="36" />
<rect fill="#79ffd1" fill-opacity="0.501961" x="768" y="207" width="67" height="90" />
<rect fill="#a3b3ae" fill-opacity="0.501961" x="875" y="0" width="39" height="54" />
<rect fill="#09001d" fill-opacity="0.501961" x="918" y="211" width="127" height="78" />
<rect fill="#8effff" fill-opacity="0.501961" x="539" y="247" width="33" height="61" />
<rect fill="#000000" fill-opacity="0.501961" x="469" y="383" width="34" height="29" />
<rect fill="#c3dddb" fill-opacity="0.501961" x="964" y="181" width="101" height="21" />
<rect fill="#000009" fill-opacity="0.501961" x="970" y="82" width="50" height="85" />
<rect fill="#030012" fill-opacity="0.501961" x="498" y="471" width="34" height="159" />
<rect fill="#000000" fill-opacity="0.501961" x="1110" y="92" width="90" height="100" />
<rect fill="#e5ffff" fill-opacity="0.501961" x="575" y="298" width="166" height="9" />
<rect fill="#81ffe2" fill-opacity="0.501961" x="476" y="414" width="57" height="51" />
<rect fill="#9cd08a" fill-opacity="0.501961" x="1187" y="248" width="13" height="117" />
<rect fill="#d4e6f5" fill-opacity="0.501961" x="729" y="381" width="17" height="40" />
<rect fill="#000000" fill-opacity="0.501961" x="0" y="466" width="216" height="164" />
<rect fill="#94ceac" fill-opacity="0.501961" x="47" y="276" width="41" height="31" />
<rect fill="#0b0020" fill-opacity="0.501961" x="756" y="358" width="31" height="258" />
<rect fill="#43c09d" fill-opacity="0.501961" x="162" y="423" width="156" height="65" />
<rect fill="#7cffe3" fill-opacity="0.501961" x="469" y="466" width="22" height="44" />
<rect fill="#12062f" fill-opacity="0.501961" x="544" y="336" width="86" height="72" />
<rect fill="#ccdeec" fill-opacity="0.501961" x="714" y="417" width="16" height="42" />
<rect fill="#c7efcc" fill-opacity="0.501961" x="535" y="465" width="20" height="34" />
<rect fill="#1c1237" fill-opacity="0.501961" x="629" y="213" width="120" height="56" />
<rect fill="#00000e" fill-opacity="0.501961" x="407" y="160" width="29" height="34" />
<rect fill="#000000" fill-opacity="0.501961" x="1040" y="414" width="160" height="216" />
<rect fill="#c8dae5" fill-opacity="0.501961" x="697" y="466" width="15" height="38" />
<rect fill="#000000" fill-opacity="0.501961" x="22" y="0" width="189" height="170" />
<rect fill="#b3f0a9" fill-opacity="0.501961" x="223" y="305" width="89" height="134" />
<rect fill="#8eb3bb" fill-opacity="0.501961" x="1091" y="352" width="28" height="44" />
<rect fill="#01000a" fill-opacity="0.501961" x="0" y="510" width="322" height="120" />
<rect fill="#000000" fill-opacity="0.501961" x="522" y="394" width="17" height="25" />
<rect fill="#81ffdc" fill-opacity="0.501961" x="732" y="166" width="27" height="29" />
<rect fill="#30785a" fill-opacity="0.501961" x="1051" y="25" width="89" height="85" />
<rect fill="#779c9e" fill-opacity="0.501961" x="610" y="578" width="103" height="40" />
<rect fill="#6b858d" fill-opacity="0.501961" x="0" y="167" width="97" height="76" />
<rect fill="#b0e1b5" fill-opacity="0.501961" x="691" y="346" width="28" height="21" />
<rect fill="#6ab069" fill-opacity="0.501961" x="184" y="103" width="123" height="28" />
<rect fill="#000000" fill-opacity="0.501961" x="968" y="5" width="84" height="44" />
<rect fill="#b3ffa4" fill-opacity="0.501961" x="634" y="276" width="72" height="9" />
<rect fill="#000009" fill-opacity="0.501961" x="0" y="327" width="155" height="140" />
<rect fill="#bdf3bf" fill-opacity="0.501961" x="719" y="327" width="25" height="19" />
<rect fill="#c9dbe3" fill-opacity="0.501961" x="683" y="503" width="13" height="34" />
<rect fill="#010011" fill-opacity="0.501961" x="1045" y="232" width="60" height="56" />
<rect fill="#bcf3be" fill-opacity="0.501961" x="646" y="382" width="26" height="18" />
<rect fill="#1d1a38" fill-opacity="0.501961" x="294" y="237" width="117" height="67" />
<rect fill="#c5fec5" fill-opacity="0.501961" x="669" y="366" width="23" height="18" />
<rect fill="#b8ffbc" fill-opacity="0.501961" x="487" y="253" width="116" height="16" />
<rect fill="#05000e" fill-opacity="0.501961" x="58" y="0" width="339" height="94" />
<rect fill="#b9efba" fill-opacity="0.501961" x="613" y="406" width="25" height="19" />
<rect fill="#070018" fill-opacity="0.501961" x="708" y="482" width="50" height="126" />
<rect fill="#030019" fill-opacity="0.501961" x="738" y="267" width="31" height="24" />
<rect fill="#141023" fill-opacity="0.501961" x="291" y="473" width="172" height="157" />
<rect fill="#1f1d38" fill-opacity="0.501961" x="333" y="356" width="101" height="176" />
<rect fill="#e9fffe" fill-opacity="0.501961" x="761" y="299" width="17" height="30" />
<rect fill="#1d1b33" fill-opacity="0.501961" x="826" y="280" width="267" height="247" />
<rect fill="#caffc8" fill-opacity="0.501961" x="583" y="431" width="22" height="15" />
<rect fill="#a1c897" fill-opacity="0.501961" x="186" y="273" width="65" height="158" />
<rect fill="#aadbab" fill-opacity="0.501961" x="557" y="447" width="26" height="19" />
<rect fill="#04000f" fill-opacity="0.501961" x="1145" y="75" width="45" height="243" />
<rect fill="#070017" fill-opacity="0.501961" x="736" y="0" width="133" height="167" />
<rect fill="#9bb1b0" fill-opacity="0.501961" x="1056" y="182" width="69" height="43" />
<rect fill="#75ffd4" fill-opacity="0.501961" x="448" y="302" width="92" height="70" />
<rect fill="#000000" fill-opacity="0.501961" x="1109" y="0" width="91" height="26" />
<rect fill="#c1feb1" fill-opacity="0.501961" x="423" y="189" width="113" height="102" />
<rect fill="#12072b" fill-opacity="0.501961" x="311" y="304" width="80" height="54" />
<rect fill="#ffffff" fill-opacity="0.501961" x="709" y="450" width="9" height="19" />
<rect fill="#19162a" fill-opacity="0.501961" x="850" y="48" width="119" height="179" />
<rect fill="#060014" fill-opacity="0.501961" x="464" y="541" width="136" height="89" />
<rect fill="#000002" fill-opacity="0.501961" x="7" y="257" width="31" height="38" />
<rect fill="#97acab" fill-opacity="0.501961" x="1036" y="142" width="60" height="77" />
<rect fill="#9bc7cb" fill-opacity="0.501961" x="167" y="196" width="29" height="72" />
<rect fill="#7affcc" fill-opacity="0.501961" x="833" y="248" width="85" height="13" />
<rect fill="#51656a" fill-opacity="0.501961" x="21" y="47" width="32" height="48" />
</g>
</svg>