<svg xmlns="http://www.w3.org/2000/svg" version="1.1" width="1200" height="630">
<rect x="0" y="0" width="1200" height="630" fill="#414846" />
<g transform="scale(1.000000) translate(0.5 0.5)">
<polygon fill="#f7ddbf" fill-opacity="0.501961" points="1071.568563,66.292532,1180.144680,139.962022,906.397945,238.167067,819.288565,-15.562847" />
<polygon fill="#cccfa1" fill-opacity="0.501961" points="661.315469,-16.000000,214.940931,377.726666,96.929896,320.234896,39.122705,170.288599" />
<polygon fill="#000024" fill-opacity="0.501961" points="1215.000000,418.470874,762.462441,110.143337,366.687251,128.950305,585.059165,391.863486" />
<polygon fill="#99d794" fill-opacity="0.501961" points="992.363713,420.949169,963.233718,552.274124,692.026850,610.954550,714.675515,387.656257" />
<polygon fill="#00001f" fill-opacity="0.501961" points="250.429489,269.534604,201.953175,645.000000,702.834300,482.396078,710.782441,404.370874" />
<polygon fill="#e7ccb8" fill-opacity="0.501961" points="412.818322,123.723291,326.207906,-16.000000,628.062869,-5.733777,559.730457,123.271843" />
<polygon fill="#daaa88" fill-opacity="0.501961" points="193.890205,629.349623,-16.000000,422.582026,79.995943,376.009882,212.007451,472.284583" />
<polygon fill="#bcffbb" fill-opacity="0.501961" points="376.469590,303.562843,303.241259,289.593823,419.205759,195.115591,480.048237,262.896404" />
<polygon fill="#000000" fill-opacity="0.501961" points="1215.000000,126.464749,1215.000000,635.963291,974.569883,639.393532,992.276017,209.009122" />
<polygon fill="#000003" fill-opacity="0.501961" points="333.033146,-4.203632,131.224734,-16.000000,289.296251,68.450229,459.410155,210.959604" />
<polygon fill="#000013" fill-opacity="0.501961" points="556.933210,123.794217,628.886685,-2.306528,820.009384,-7.418359,887.448806,185.207487" />
<polygon fill="#7cb077" fill-opacity="0.501961" points="523.350162,505.391575,797.318397,645.000000,505.191946,618.095482,434.096307,528.502416" />
<polygon fill="#00000e" fill-opacity="0.501961" points="423.765904,485.237118,-16.000000,365.315053,-13.019092,97.553378,102.786412,326.007611" />
<polygon fill="#fcce9f" fill-opacity="0.501961" points="239.979078,260.189011,173.500931,159.400230,92.667949,310.129360,247.995148,374.740093" />
<polygon fill="#000313" fill-opacity="0.501961" points="201.327498,418.710193,221.176737,639.287272,531.338089,640.411716,391.315868,506.098874" />
<polygon fill="#e2d3bc" fill-opacity="0.501961" points="854.744329,81.952707,905.276489,228.814146,904.708428,239.791558,1055.224613,182.799352" />
<polygon fill="#ab9279" fill-opacity="0.501961" points="118.862608,136.810593,122.062058,34.737812,-1.955268,116.179649,165.911151,364.752965" />
<polygon fill="#03060f" fill-opacity="0.501961" points="202.978607,-11.224728,125.463681,60.645881,116.245082,147.452113,187.566136,167.773089" />
<polygon fill="#776a5c" fill-opacity="0.501961" points="1124.130899,163.811712,814.048276,2.045954,1033.170737,-16.000000,1215.000000,120.931617" />
<polygon fill="#5c9166" fill-opacity="0.501961" points="338.168365,310.696485,201.948122,166.168409,115.346797,61.631725,338.928931,94.726181" />
<polygon fill="#00001e" fill-opacity="0.501961" points="496.637716,508.678790,704.797763,488.371000,689.581767,580.837456,585.410622,536.999659" />
<polygon fill="#00052e" fill-opacity="0.501961" points="474.624860,257.117535,437.326476,292.844627,354.900361,301.907484,556.453787,358.236266" />
<polygon fill="#000719" fill-opacity="0.501961" points="133.711858,341.767745,-0.280323,411.883074,-16.000000,92.991073,78.622993,289.195386" />
<polygon fill="#7b644a" fill-opacity="0.501961" points="184.947381,645.000000,224.324687,574.832009,-16.000000,412.880303,-16.000000,528.108097" />
<polygon fill="#00011f" fill-opacity="0.501961" points="239.587978,247.030308,250.096626,369.291523,302.781787,295.339269,239.337715,252.407578" />
<polygon fill="#537251" fill-opacity="0.501961" points="960.869703,623.018176,475.323665,645.000000,597.493868,601.503389,986.990367,476.113500" />
<polygon fill="#0d1a2f" fill-opacity="0.501961" points="203.636882,468.035028,54.651692,358.815269,221.745630,368.711489,558.003187,523.568047" />
<polygon fill="#08142b" fill-opacity="0.501961" points="801.188827,281.933091,1030.797099,193.971285,1205.302986,134.564117,1210.502064,596.022696" />
<polygon fill="#e0d2bb" fill-opacity="0.501961" points="551.112841,124.766237,416.075215,120.401366,595.027989,53.796797,556.816218,123.667893" />
<polygon fill="#b59b83" fill-opacity="0.501961" points="23.344048,401.934204,79.527971,374.318110,209.703791,475.778440,201.828762,524.513348" />
<polygon fill="#00031a" fill-opacity="0.501961" points="387.019443,89.155841,353.632134,116.892369,187.796661,-1.291706,337.099437,-1.001382" />
<polygon fill="#8cb88c" fill-opacity="0.501961" points="949.543541,417.102757,707.093470,516.715477,713.015765,392.648733,723.619969,392.218445" />
<polygon fill="#00102a" fill-opacity="0.501961" points="527.763920,125.945617,392.742910,123.191606,390.667683,160.982999,437.710084,202.906373" />
<polygon fill="#82b686" fill-opacity="0.501961" points="269.194847,276.630223,420.534020,53.926258,351.901330,122.146019,477.349899,260.724954" />
<polygon fill="#7fa57c" fill-opacity="0.501961" points="465.012482,515.327397,448.321375,562.231981,634.923484,558.984097,529.300648,516.188455" />
<polygon fill="#c8ac86" fill-opacity="0.501961" points="69.155690,278.820858,156.308562,354.948726,236.475504,372.293631,54.999232,224.049156" />
<polygon fill="#00000e" fill-opacity="0.501961" points="129.018628,56.701443,186.660736,120.256316,186.894464,79.778700,233.910495,-16.000000" />
<polygon fill="#000014" fill-opacity="0.501961" points="126.233021,81.147045,117.853954,143.819524,193.968611,169.952025,182.020728,138.416452" />
<polygon fill="#213400" fill-opacity="0.501961" points="1202.665077,643.674822,1215.000000,548.391636,962.965799,575.748050,968.615202,645.000000" />
<polygon fill="#5a7d5b" fill-opacity="0.501961" points="214.122330,21.046639,360.873530,121.887937,203.191471,206.900792,181.241338,123.942839" />
<polygon fill="#182435" fill-opacity="0.501961" points="866.847922,406.755051,743.001522,197.636512,1097.654796,280.486196,1125.084162,427.614116" />
<polygon fill="#31190d" fill-opacity="0.501961" points="-16.000000,545.791916,23.862434,575.225289,143.353054,635.152831,-7.898135,645.000000" />
<polygon fill="#8c8374" fill-opacity="0.501961" points="627.868073,-2.487175,316.854419,-10.048843,442.308542,56.836551,602.153959,46.354073" />
<polygon fill="#bb8c71" fill-opacity="0.501961" points="183.739116,139.389526,120.080126,71.395878,138.891660,71.549996,192.543764,127.611424" />
<polygon fill="#000008" fill-opacity="0.501961" points="47.458542,222.370013,55.720464,186.525999,24.147535,162.610286,4.418276,140.443208" />
<polygon fill="#07101c" fill-opacity="0.501961" points="469.181534,497.432226,176.876294,626.398731,517.024536,645.000000,442.429630,546.705312" />
<polygon fill="#261910" fill-opacity="0.501961" points="-16.000000,1.739273,150.450659,-16.000000,56.981758,26.287033,-5.280892,61.789012" />
<polygon fill="#0b192c" fill-opacity="0.501961" points="899.154185,210.056674,542.008331,156.115989,637.364838,-16.000000,820.707706,-0.547882" />
<polygon fill="#577256" fill-opacity="0.501961" points="972.426933,557.335625,979.931851,505.125951,560.335652,645.000000,1031.137474,570.354658" />
<polygon fill="#64584d" fill-opacity="0.501961" points="107.498434,20.348851,210.467766,-16.000000,12.157114,156.236369,-16.000000,89.574845" />
<polygon fill="#dacdb6" fill-opacity="0.501961" points="878.070355,147.072948,908.694604,238.867835,915.438160,236.678938,982.701812,210.823168" />
<polygon fill="#030919" fill-opacity="0.501961" points="1215.000000,555.995008,1201.110482,411.460045,982.845640,481.285948,974.258584,561.169077" />
<polygon fill="#d7c199" fill-opacity="0.501961" points="139.611677,345.560381,210.610975,368.596405,249.414223,370.058128,237.323499,235.634457" />
<polygon fill="#271a11" fill-opacity="0.501961" points="1089.361813,-0.613333,1202.104651,58.653017,1215.000000,-6.528298,998.477397,-0.006713" />
<polygon fill="#ae997a" fill-opacity="0.501961" points="75.826568,130.544685,101.479789,314.650024,127.988813,332.253596,192.106959,169.811610" />
<polygon fill="#15253b" fill-opacity="0.501961" points="864.521691,111.109310,470.871165,125.686360,476.609823,513.765894,641.629762,522.087639" />
<polygon fill="#746d61" fill-opacity="0.501961" points="1166.496089,146.246890,806.875649,-16.000000,947.674885,-16.000000,1215.000000,126.408428" />
<polygon fill="#151e2f" fill-opacity="0.501961" points="275.353348,373.862339,516.916284,631.695178,209.752550,470.827371,44.214890,352.494559" />
<polygon fill="#76a57b" fill-opacity="0.501961" points="210.344965,226.035564,288.435770,287.159436,357.215869,303.666037,372.419148,130.055164" />
<polygon fill="#cfa598" fill-opacity="0.501961" points="360.441440,116.312819,360.587099,130.108310,378.383103,115.009283,451.745470,23.311296" />
<polygon fill="#584a35" fill-opacity="0.501961" points="221.215382,577.154701,-16.000000,552.848249,120.461470,645.000000,195.466023,634.220363" />
<polygon fill="#7e6b5e" fill-opacity="0.501961" points="-16.000000,475.939673,1.636816,407.151491,206.941964,584.586845,133.744717,592.727792" />
<polygon fill="#8bb78a" fill-opacity="0.501961" points="427.701105,201.111470,474.253264,260.539986,430.726910,288.061502,377.202488,300.892483" />
<polygon fill="#ada290" fill-opacity="0.501961" points="1084.195751,171.106600,850.265863,54.137685,858.242822,103.657101,1018.252246,197.238493" />
<polygon fill="#908474" fill-opacity="0.501961" points="121.577397,94.215947,77.234954,282.610014,54.489589,227.753650,43.285989,139.434396" />
<polygon fill="#111928" fill-opacity="0.501961" points="63.958622,258.371638,50.111732,355.713216,362.925551,578.140834,88.339535,299.043053" />
<polygon fill="#478c00" fill-opacity="0.501961" points="203.838828,556.835747,222.149675,575.733692,193.215126,639.461590,204.519099,549.513698" />
<polygon fill="#34440b" fill-opacity="0.501961" points="1095.156119,564.279317,1215.000000,547.499429,1022.392579,623.736820,952.447212,577.892848" />
<polygon fill="#121b30" fill-opacity="0.501961" points="394.914165,97.135832,361.515346,132.743817,498.011430,123.893371,442.683414,219.022972" />
<polygon fill="#729471" fill-opacity="0.501961" points="990.127691,416.913179,979.840800,499.947497,700.137324,512.608374,884.185223,413.213839" />
<polygon fill="#152236" fill-opacity="0.501961" points="307.761986,612.337809,241.748173,264.578001,308.330659,292.085940,675.645484,390.879642" />
<polygon fill="#00001b" fill-opacity="0.501961" points="964.682388,644.427885,1034.057540,638.046771,976.055202,593.852299,971.845947,589.613059" />
<polygon fill="#0b192b" fill-opacity="0.501961" points="704.766302,470.633879,696.243719,560.875659,667.207153,580.502844,579.766705,523.450496" />
<polygon fill="#a89d8d" fill-opacity="0.501961" points="528.084187,15.965870,360.402220,39.979422,388.805472,90.268793,600.764427,52.001637" />
<polygon fill="#5e6251" fill-opacity="0.501961" points="151.653245,16.019082,82.147586,60.928492,284.814750,104.576438,133.382017,61.893505" />
<polygon fill="#6f9772" fill-opacity="0.501961" points="403.183951,171.766578,340.571435,108.969486,198.150287,197.324766,242.166810,256.391458" />
<polygon fill="#0f1521" fill-opacity="0.501961" points="220.715715,457.097623,201.885417,550.692109,260.906190,626.407158,554.904486,644.453357" />
<polygon fill="#4f684f" fill-opacity="0.501961" points="540.487151,645.000000,458.719892,575.355850,536.208747,597.853191,919.809205,614.927971" />
<polygon fill="#162439" fill-opacity="0.501961" points="833.746024,402.791068,893.291134,194.488230,842.182891,149.920686,700.285557,388.887680" />
<polygon fill="#b19881" fill-opacity="0.501961" points="70.754902,378.341569,208.708832,499.431158,213.387434,474.034882,153.116704,430.143966" />
<polygon fill="#0b0f1a" fill-opacity="0.501961" points="621.076505,48.560764,841.954995,59.199153,814.187577,-16.000000,624.347703,-16.000000" />
<polygon fill="#0d1100" fill-opacity="0.501961" points="1199.377631,645.000000,1051.565383,645.000000,1179.110985,580.009940,1215.000000,569.747771" />
<polygon fill="#1b263c" fill-opacity="0.501961" points="709.079830,437.754757,309.840042,361.698864,423.539573,287.761777,733.537839,197.564074" />
<polygon fill="#474646" fill-opacity="0.501961" points="985.933620,421.336473,996.328249,399.553160,1099.383518,331.197154,1044.753265,355.280122" />
<polygon fill="#55473b" fill-opacity="0.501961" points="1013.434988,-0.025512,1065.389050,-16.000000,1215.000000,57.450273,1209.146338,112.235162" />
<polygon fill="#766f61" fill-opacity="0.501961" points="334.751370,-7.297594,540.547197,-2.075749,381.208384,15.572267,357.533622,40.078642" />
<polygon fill="#7f786b" fill-opacity="0.501961" points="835.135999,36.619811,918.019654,65.271752,1001.795438,29.712039,817.721171,-16.000000" />
<polygon fill="#0a0f1c" fill-opacity="0.501961" points="1215.000000,128.069949,1107.441627,165.163276,1102.622918,220.280045,1215.000000,357.451513" />
<polygon fill="#c7bba7" fill-opacity="0.501961" points="569.545982,62.966366,396.555327,107.556380,549.121865,124.526015,570.053960,99.816230" />
<polygon fill="#6c8e6c" fill-opacity="0.501961" points="649.455159,569.285916,487.887479,512.641008,453.877301,522.983424,461.934541,576.103786" />
<polygon fill="#907c69" fill-opacity="0.501961" points="-1.977711,413.601747,149.033637,546.947194,80.082050,376.423039,24.002337,400.053785" />
<polygon fill="#01091a" fill-opacity="0.501961" points="49.074568,184.073042,21.832767,161.140507,41.210814,214.920119,53.479657,231.680643" />
<polygon fill="#010514" fill-opacity="0.501961" points="-16.000000,373.043433,-8.757227,412.554131,56.503957,385.714476,-16.000000,364.505611" />
<polygon fill="#131b2d" fill-opacity="0.501961" points="1017.050007,382.681234,941.291302,227.620137,1009.701640,202.656794,1170.065012,258.885239" />
<polygon fill="#151d2d" fill-opacity="0.501961" points="424.987086,441.445028,137.127847,346.907070,266.535308,567.496181,455.646744,569.407335" />
<polygon fill="#84ae83" fill-opacity="0.501961" points="427.439491,288.686842,313.466874,294.939032,278.100898,276.885768,412.616329,185.237035" />
<polygon fill="#0f1626" fill-opacity="0.501961" points="1061.242470,570.836624,1215.000000,334.285643,988.328389,428.005665,976.131804,557.613146" />
<polygon fill="#948b7d" fill-opacity="0.501961" points="1065.349607,104.094309,1114.328216,162.917226,859.363172,51.103340,861.940332,23.931420" />
<polygon fill="#b3a07d" fill-opacity="0.501961" points="194.945767,172.347401,59.524850,239.675408,84.397809,294.564185,140.011640,345.187920" />
<polygon fill="#5a765a" fill-opacity="0.501961" points="187.248704,161.792366,184.828297,103.962614,270.454301,59.959879,329.760496,101.301723" />
</g>
</svg>