<svg xmlns="http://www.w3.org/2000/svg" version="1.1" width="1200" height="630">
<rect x="0" y="0" width="1200" height="630" fill="#342931" />
<g transform="scale(1.000000) translate(0.5 0.5)">
<ellipse fill="#f9cad5" fill-opacity="0.501961" cx="757" cy="157" rx="171" ry="107" />
<ellipse fill="#ffdeed" fill-opacity="0.501961" cx="115" cy="302" rx="107" ry="98" />
<ellipse fill="#ffffff" fill-opacity="0.501961" cx="840" cy="425" rx="57" ry="56" />
<ellipse fill="#ffd3f5" fill-opacity="0.501961" cx="303" cy="358" rx="65" ry="70" />
<ellipse fill="#000000" fill-opacity="0.501961" cx="782" cy="231" rx="69" ry="47" />
<ellipse fill="#ffdcfa" fill-opacity="0.501961" cx="494" cy="436" rx="52" ry="43" />
<ellipse fill="#ffffff" fill-opacity="0.501961" cx="473" cy="296" rx="587" ry="6" />
<ellipse fill="#fff0ff" fill-opacity="0.501961" cx="348" cy="159" rx="39" ry="44" />
<ellipse fill="#ffebfc" fill-opacity="0.501961" cx="397" cy="224" rx="32" ry="47" />
<ellipse fill="#fff2ef" fill-opacity="0.501961" cx="697" cy="134" rx="59" ry="87" />
<ellipse fill="#cd8494" fill-opacity="0.501961" cx="886" cy="36" rx="104" ry="40" />
<ellipse fill="#cf929f" fill-opacity="0.501961" cx="242" cy="56" rx="55" ry="54" />
<ellipse fill="#fff3ff" fill-opacity="0.501961" cx="440" cy="264" rx="21" ry="40" />
<ellipse fill="#000000" fill-opacity="0.501961" cx="613" cy="79" rx="38" ry="72" />
<ellipse fill="#fff2ff" fill-opacity="0.501961" cx="626" cy="202" rx="25" ry="56" />
<ellipse fill="#ffb1cf" fill-opacity="0.501961" cx="878" cy="218" rx="35" ry="46" />
<ellipse fill="#bf909a" fill-opacity="0.501961" cx="28" cy="217" rx="54" ry="59" />
<ellipse fill="#ffc1db" fill-opacity="0.501961" cx="522" cy="416" rx="18" ry="63" />
<ellipse fill="#000000" fill-opacity="0.501961" cx="811" cy="182" rx="23" ry="87" />
<ellipse fill="#fadbe4" fill-opacity="0.501961" cx="693" cy="239" rx="18" ry="98" />
<ellipse fill="#ffe6eb" fill-opacity="0.501961" cx="713" cy="395" rx="11" ry="48" />
<ellipse fill="#000000" fill-opacity="0.501961" cx="472" cy="85" rx="113" ry="131" />
<ellipse fill="#fff3ff" fill-opacity="0.501961" cx="768" cy="423" rx="68" ry="7" />
<ellipse fill="#ffbbd4" fill-opacity="0.501961" cx="841" cy="422" rx="54" ry="51" />
<ellipse fill="#000000" fill-opacity="0.501961" cx="362" cy="250" rx="28" ry="30" />
<ellipse fill="#000000" fill-opacity="0.501961" cx="62" cy="65" rx="93" ry="99" />
<ellipse fill="#000000" fill-opacity="0.501961" cx="771" cy="233" rx="57" ry="46" />
<ellipse fill="#000000" fill-opacity="0.501961" cx="276" cy="226" rx="77" ry="67" />
<ellipse fill="#000000" fill-opacity="0.501961" cx="451" cy="390" rx="35" ry="34" />
<ellipse fill="#000000" fill-opacity="0.501961" cx="1088" cy="465" rx="194" ry="496" />
<ellipse fill="#d397a7" fill-opacity="0.501961" cx="996" cy="63" rx="25" ry="46" />
<ellipse fill="#000000" fill-opacity="0.501961" cx="151" cy="538" rx="331" ry="135" />
<ellipse fill="#87686f" fill-opacity="0.501961" cx="124" cy="609" rx="61" ry="33" />
<ellipse fill="#ffffff" fill-opacity="0.501961" cx="958" cy="297" rx="74" ry="6" />
<ellipse fill="#ff9cb0" fill-opacity="0.501961" cx="228" cy="340" rx="139" ry="14" />
<ellipse fill="#ffaec6" fill-opacity="0.501961" cx="461" cy="461" rx="43" ry="16" />
<ellipse fill="#ffffff" fill-opacity="0.501961" cx="481" cy="309" rx="15" ry="18" />
<ellipse fill="#000000" fill-opacity="0.501961" cx="765" cy="569" rx="156" ry="103" />
<ellipse fill="#f4bcc9" fill-opacity="0.501961" cx="756" cy="173" rx="173" ry="15" />
<ellipse fill="#ffe3f2" fill-opacity="0.501961" cx="372" cy="184" rx="24" ry="32" />
<ellipse fill="#ff849c" fill-opacity="0.501961" cx="305" cy="390" rx="63" ry="34" />
<ellipse fill="#000000" fill-opacity="0.501961" cx="338" cy="35" rx="46" ry="78" />
<ellipse fill="#ffffff" fill-opacity="0.501961" cx="703" cy="343" rx="7" ry="25" />
<ellipse fill="#000000" fill-opacity="0.501961" cx="934" cy="102" rx="40" ry="38" />
<ellipse fill="#b27f8b" fill-opacity="0.501961" cx="49" cy="301" rx="173" ry="61" />
<ellipse fill="#d48597" fill-opacity="0.501961" cx="486" cy="629" rx="23" ry="58" />
<ellipse fill="#f3c4d0" fill-opacity="0.501961" cx="331" cy="143" rx="36" ry="23" />
<ellipse fill="#000000" fill-opacity="0.501961" cx="783" cy="340" rx="75" ry="39" />
<ellipse fill="#000003" fill-opacity="0.501961" cx="565" cy="420" rx="28" ry="118" />
<ellipse fill="#ea94a9" fill-opacity="0.501961" cx="536" cy="466" rx="55" ry="11" />
<ellipse fill="#e9dbd6" fill-opacity="0.501961" cx="766" cy="121" rx="26" ry="53" />
<ellipse fill="#ffffff" fill-opacity="0.501961" cx="428" cy="422" rx="18" ry="9" />
<ellipse fill="#000000" fill-opacity="0.501961" cx="670" cy="397" rx="41" ry="36" />
<ellipse fill="#e688a0" fill-opacity="0.501961" cx="894" cy="179" rx="36" ry="65" />
<ellipse fill="#000000" fill-opacity="0.501961" cx="27" cy="399" rx="45" ry="41" />
<ellipse fill="#fff7ff" fill-opacity="0.501961" cx="593" cy="157" rx="30" ry="10" />
<ellipse fill="#ffffff" fill-opacity="0.501961" cx="461" cy="289" rx="12" ry="17" />
<ellipse fill="#ffffff" fill-opacity="0.501961" cx="389" cy="404" rx="19" ry="9" />
<ellipse fill="#000000" fill-opacity="0.501961" cx="721" cy="212" rx="15" ry="15" />
<ellipse fill="#ff98bc" fill-opacity="0.501961" cx="508" cy="216" rx="33" ry="7" />
<ellipse fill="#000000" fill-opacity="0.501961" cx="670" cy="12" rx="129" ry="35" />
<ellipse fill="#000000" fill-opacity="0.501961" cx="405" cy="357" rx="41" ry="45" />
<ellipse fill="#c15b78" fill-opacity="0.501961" cx="574" cy="204" rx="50" ry="9" />
<ellipse fill="#000000" fill-opacity="0.501961" cx="602" cy="116" rx="38" ry="33" />
<ellipse fill="#000000" fill-opacity="0.501961" cx="248" cy="156" rx="47" ry="46" />
<ellipse fill="#000000" fill-opacity="0.501961" cx="700" cy="273" rx="11" ry="18" />
<ellipse fill="#000000" fill-opacity="0.501961" cx="535" cy="253" rx="67" ry="35" />
<ellipse fill="#ffebfb" fill-opacity="0.501961" cx="417" cy="240" rx="23" ry="22" />
<ellipse fill="#ffffff" fill-opacity="0.501961" cx="613" cy="250" rx="12" ry="15" />
<ellipse fill="#ffe0f2" fill-opacity="0.501961" cx="377" cy="284" rx="11" ry="18" />
<ellipse fill="#000007" fill-opacity="0.501961" cx="908" cy="334" rx="200" ry="33" />
<ellipse fill="#e2a0b4" fill-opacity="0.501961" cx="685" cy="437" rx="32" ry="10" />
<ellipse fill="#ffa5bb" fill-opacity="0.501961" cx="512" cy="418" rx="26" ry="40" />
<ellipse fill="#ffadc5" fill-opacity="0.501961" cx="532" cy="487" rx="9" ry="30" />
<ellipse fill="#ffeff3" fill-opacity="0.501961" cx="580" cy="297" rx="441" ry="5" />
<ellipse fill="#ffdcee" fill-opacity="0.501961" cx="660" cy="205" rx="43" ry="27" />
<ellipse fill="#000006" fill-opacity="0.501961" cx="600" cy="335" rx="94" ry="34" />
<ellipse fill="#000000" fill-opacity="0.501961" cx="1127" cy="419" rx="153" ry="480" />
<ellipse fill="#000000" fill-opacity="0.501961" cx="813" cy="137" rx="19" ry="30" />
<ellipse fill="#000000" fill-opacity="0.501961" cx="610" cy="606" rx="47" ry="49" />
<ellipse fill="#ffa4c9" fill-opacity="0.501961" cx="468" cy="224" rx="24" ry="7" />
<ellipse fill="#ffffff" fill-opacity="0.501961" cx="495" cy="328" rx="10" ry="10" />
<ellipse fill="#000000" fill-opacity="0.501961" cx="595" cy="218" rx="20" ry="17" />
<ellipse fill="#000000" fill-opacity="0.501961" cx="774" cy="37" rx="12" ry="38" />
<ellipse fill="#00000a" fill-opacity="0.501961" cx="636" cy="406" rx="77" ry="30" />
<ellipse fill="#ffffff" fill-opacity="0.501961" cx="405" cy="413" rx="14" ry="7" />
<ellipse fill="#000000" fill-opacity="0.501961" cx="214" cy="387" rx="29" ry="37" />
<ellipse fill="#000002" fill-opacity="0.501961" cx="822" cy="238" rx="26" ry="53" />
<ellipse fill="#000000" fill-opacity="0.501961" cx="484" cy="505" rx="37" ry="33" />
<ellipse fill="#f08197" fill-opacity="0.501961" cx="315" cy="328" rx="51" ry="38" />
<ellipse fill="#000000" fill-opacity="0.501961" cx="647" cy="267" rx="30" ry="22" />
<ellipse fill="#000000" fill-opacity="0.501961" cx="472" cy="247" rx="26" ry="18" />
<ellipse fill="#ffb2cc" fill-opacity="0.501961" cx="603" cy="456" rx="22" ry="7" />
<ellipse fill="#000000" fill-opacity="0.501961" cx="365" cy="428" rx="40" ry="22" />
<ellipse fill="#bb8894" fill-opacity="0.501961" cx="120" cy="224" rx="61" ry="25" />
<ellipse fill="#ff9ab7" fill-opacity="0.501961" cx="521" cy="528" rx="7" ry="24" />
<ellipse fill="#000000" fill-opacity="0.501961" cx="144" cy="172" rx="32" ry="29" />
<ellipse fill="#fff7fa" fill-opacity="0.501961" cx="1003" cy="296" rx="26" ry="6" />
<ellipse fill="#ffbbd7" fill-opacity="0.501961" cx="637" cy="447" rx="20" ry="6" />
<ellipse fill="#b1a09f" fill-opacity="0.501961" cx="716" cy="64" rx="44" ry="21" />
</g>
</svg>