<svg xmlns="http://www.w3.org/2000/svg" version="1.1" width="1200" height="630">
<rect x="0" y="0" width="1200" height="630" fill="#455d60" />
<g transform="scale(1.000000) translate(0.5 0.5)">
<g transform="translate(602.868240 412.784156) rotate(138.487230) scale(238.568082 265.081873)"><ellipse fill="#f3ffff" fill-opacity="0.501961" cx="0" cy="0" rx="1" ry="1" /></g>
<ellipse fill="#000000" fill-opacity="0.501961" cx="1146" cy="337" rx="341" ry="341" />
<g transform="translate(190.671707 304.192199) rotate(344.689609) scale(157.871589 138.410056)"><ellipse fill="#bce4f6" fill-opacity="0.501961" cx="0" cy="0" rx="1" ry="1" /></g>
<ellipse fill="#000000" fill-opacity="0.501961" cx="332" cy="0" rx="207" ry="207" />
<g transform="translate(105 543) rotate(201) scale(310 215)"><rect fill="#000000" fill-opacity="0.501961" x="-0.5" y="-0.5" width="1" height="1" /></g>
<polygon fill="#bbf6ff" fill-opacity="0.501961" points="920,492 484,113 303,499" />
<polygon fill="#000000" fill-opacity="0.501961" points="-16,2 797,-16 679,181" />
<ellipse fill="#000000" fill-opacity="0.501961" cx="948" cy="567" rx="96" ry="96" />
<polygon fill="#b7f5ff" fill-opacity="0.501961" points="830.002518,221.841408,786.209145,375.770522,516.837278,141.541479,774.139258,205.093815" />
<ellipse fill="#75d360" fill-opacity="0.501961" cx="902" cy="76" rx="103" ry="54" />
<ellipse fill="#000000" fill-opacity="0.501961" cx="789" cy="152" rx="58" ry="58" />
<ellipse fill="#59b166" fill-opacity="0.501961" cx="433" cy="629" rx="173" ry="173" />
<polygon fill="#fdffff" fill-opacity="0.501961" points="544,308 464,437 275,311" />
<g transform="translate(150.565275 94.313657) rotate(200.291302) scale(206.185485 43.582209)"><ellipse fill="#000003" fill-opacity="0.501961" cx="0" cy="0" rx="1" ry="1" /></g>
<g transform="translate(0.000000 247.841323) rotate(14.658153) scale(50.736170 106.568908)"><ellipse fill="#000000" fill-opacity="0.501961" cx="0" cy="0" rx="1" ry="1" /></g>
<ellipse fill="#00000f" fill-opacity="0.501961" cx="1166" cy="335" rx="308" ry="308" />
<g transform="translate(372.655020 270.411278) rotate(121.749411) scale(46.759246 26.456096)"><ellipse fill="#000000" fill-opacity="0.501961" cx="0" cy="0" rx="1" ry="1" /></g>
<g transform="translate(317.791304 408.911777) rotate(107.566060) scale(60.790596 26.308778)"><ellipse fill="#000000" fill-opacity="0.501961" cx="0" cy="0" rx="1" ry="1" /></g>
<polygon fill="#a7d0de" fill-opacity="0.501961" points="365,223 203,159 251,507" />
<ellipse fill="#b2cacb" fill-opacity="0.501961" cx="819" cy="538" rx="40" ry="78" />
<g transform="translate(70.416094 533.277829) rotate(98.227680) scale(110.041909 159.649585)"><ellipse fill="#000000" fill-opacity="0.501961" cx="0" cy="0" rx="1" ry="1" /></g>
<ellipse fill="#e1ffff" fill-opacity="0.501961" cx="918" cy="416" rx="116" ry="6" />
<ellipse fill="#000002" fill-opacity="0.501961" cx="829" cy="356" rx="38" ry="38" />
<polygon fill="#000007" fill-opacity="0.501961" points="439,246 294,194 447,188" />
<ellipse fill="#000000" fill-opacity="0.501961" cx="1130" cy="59" rx="117" ry="117" />
<g transform="translate(1116.270675 347.388805) rotate(127.468445) scale(172.101597 6.625183)"><ellipse fill="#9ac2cb" fill-opacity="0.501961" cx="0" cy="0" rx="1" ry="1" /></g>
<polygon fill="#5b9b47" fill-opacity="0.501961" points="373,456 172,628 535,645" />
<ellipse fill="#00000f" fill-opacity="0.501961" cx="633" cy="65" rx="103" ry="103" />
<ellipse fill="#b5ffb5" fill-opacity="0.501961" cx="356" cy="181" rx="134" ry="6" />
<ellipse fill="#000000" fill-opacity="0.501961" cx="287" cy="491" rx="24" ry="39" />
<ellipse fill="#aac0e4" fill-opacity="0.501961" cx="475" cy="494" rx="58" ry="58" />
<polygon fill="#ebffff" fill-opacity="0.501961" points="420,210 482,397 380,328" />
<polygon fill="#00001b" fill-opacity="0.501961" points="622.908404,645.000000,586.598619,589.733276,545.232680,645.000000,606.758579,645.000000" />
<ellipse fill="#000000" fill-opacity="0.501961" cx="881" cy="629" rx="44" ry="69" />
<polygon fill="#000010" fill-opacity="0.501961" points="366,374 243,561 315,342" />
<polygon fill="#738f99" fill-opacity="0.501961" points="-5,396 95,119 308,200" />
<ellipse fill="#9ac5ce" fill-opacity="0.501961" cx="684" cy="469" rx="179" ry="106" />
<ellipse fill="#9dc0cf" fill-opacity="0.501961" cx="231" cy="446" rx="46" ry="25" />
<ellipse fill="#5aa24a" fill-opacity="0.501961" cx="824" cy="19" rx="67" ry="67" />
<g transform="translate(819 171) rotate(104) scale(85 175)"><rect fill="#000016" fill-opacity="0.501961" x="-0.5" y="-0.5" width="1" height="1" /></g>
<g transform="translate(701 162) rotate(-63) scale(108 12)"><rect fill="#c3f1ff" fill-opacity="0.501961" x="-0.5" y="-0.5" width="1" height="1" /></g>
<polygon fill="#000005" fill-opacity="0.501961" points="710,120 785,68 720,4" />
<ellipse fill="#829390" fill-opacity="0.501961" cx="745" cy="629" rx="81" ry="81" />
<g transform="translate(756 100) rotate(324) scale(82 13)"><rect fill="#b7ddef" fill-opacity="0.501961" x="-0.5" y="-0.5" width="1" height="1" /></g>
<g transform="translate(342.673904 449.987684) rotate(295.131177) scale(51.678382 16.428837)"><ellipse fill="#e4efea" fill-opacity="0.501961" cx="0" cy="0" rx="1" ry="1" /></g>
<ellipse fill="#4e8548" fill-opacity="0.501961" cx="952" cy="56" rx="63" ry="63" />
<g transform="translate(472 154) rotate(194) scale(26 39)"><rect fill="#bde5f8" fill-opacity="0.501961" x="-0.5" y="-0.5" width="1" height="1" /></g>
<polygon fill="#000012" fill-opacity="0.501961" points="379,309 329,306 435,177" />
<rect fill="#000515" fill-opacity="0.501961" x="83" y="48" width="363" height="86" />
<g transform="translate(81.545229 32.251442) rotate(51.473785) scale(34.963139 163.507984)"><ellipse fill="#28694d" fill-opacity="0.501961" cx="0" cy="0" rx="1" ry="1" /></g>
<g transform="translate(9.373941 247.237081) rotate(131.064652) scale(81.637058 30.218293)"><ellipse fill="#000000" fill-opacity="0.501961" cx="0" cy="0" rx="1" ry="1" /></g>
<polygon fill="#000312" fill-opacity="0.501961" points="142,645 -16,404 320,501" />
<ellipse fill="#afd6ea" fill-opacity="0.501961" cx="773" cy="248" rx="45" ry="45" />
<g transform="translate(539.263174 536.629027) rotate(301.823548) scale(68.197030 34.922218)"><ellipse fill="#45caa5" fill-opacity="0.501961" cx="0" cy="0" rx="1" ry="1" /></g>
<polygon fill="#6a848d" fill-opacity="0.501961" points="75,186 -1,384 189,458" />
<rect fill="#ddffff" fill-opacity="0.501961" x="336" y="310" width="55" height="47" />
<ellipse fill="#000207" fill-opacity="0.501961" cx="1132" cy="551" rx="110" ry="166" />
<ellipse fill="#cbdfd9" fill-opacity="0.501961" cx="683" cy="515" rx="106" ry="24" />
<rect fill="#041625" fill-opacity="0.501961" x="825" y="145" width="234" height="267" />
<polygon fill="#71bd70" fill-opacity="0.501961" points="865.329630,142.948478,1013.231319,90.719629,802.980065,87.700680,856.536524,147.511102" />
<polygon fill="#000000" fill-opacity="0.501961" points="703,171 733,122 745,181" />
<polygon fill="#061425" fill-opacity="0.501961" points="807,299 793,375 1075,301" />
<g transform="translate(366.717266 522.211242) rotate(179.438327) scale(55.329879 44.517184)"><ellipse fill="#77c277" fill-opacity="0.501961" cx="0" cy="0" rx="1" ry="1" /></g>
<g transform="translate(284.504245 629.000000) rotate(177.163687) scale(114.346065 34.737736)"><ellipse fill="#375b38" fill-opacity="0.501961" cx="0" cy="0" rx="1" ry="1" /></g>
<ellipse fill="#00081d" fill-opacity="0.501961" cx="378" cy="254" rx="19" ry="56" />
<ellipse fill="#000004" fill-opacity="0.501961" cx="6" cy="598" rx="114" ry="114" />
<polygon fill="#00000d" fill-opacity="0.501961" points="1,371 0,186 66,195" />
<g transform="translate(941.184060 629.000000) rotate(257.525761) scale(63.981727 122.199350)"><ellipse fill="#00020d" fill-opacity="0.501961" cx="0" cy="0" rx="1" ry="1" /></g>
<polygon fill="#a1c7d2" fill-opacity="0.501961" points="351.422577,256.986671,307.136910,370.283625,252.242384,181.531512,363.604141,222.336707" />
<polygon fill="#91b3c5" fill-opacity="0.501961" points="527,490 805,384 911,493" />
<ellipse fill="#9adfba" fill-opacity="0.501961" cx="683" cy="183" rx="43" ry="9" />
<g transform="translate(56.806401 130.225977) rotate(167.760886) scale(28.327146 58.712835)"><ellipse fill="#368d66" fill-opacity="0.501961" cx="0" cy="0" rx="1" ry="1" /></g>
<rect fill="#768788" fill-opacity="0.501961" x="611" y="597" width="216" height="33" />
<ellipse fill="#386430" fill-opacity="0.501961" cx="953" cy="16" rx="71" ry="40" />
<g transform="translate(379.992842 147.372600) rotate(183.877370) scale(78.839360 27.368233)"><ellipse fill="#00071c" fill-opacity="0.501961" cx="0" cy="0" rx="1" ry="1" /></g>
<ellipse fill="#00081e" fill-opacity="0.501961" cx="509" cy="101" rx="39" ry="39" />
<g transform="translate(1120.868738 1.376014) rotate(-7.607548) scale(100.842434 52.149050)"><ellipse fill="#000001" fill-opacity="0.501961" cx="0" cy="0" rx="1" ry="1" /></g>
<polygon fill="#000010" fill-opacity="0.501961" points="452.097804,187.158487,422.064220,188.613510,433.500231,254.824057,436.313341,240.680809" />
<g transform="translate(573 629) rotate(261) scale(12 68)"><rect fill="#000000" fill-opacity="0.501961" x="-0.5" y="-0.5" width="1" height="1" /></g>
<ellipse fill="#a7bab7" fill-opacity="0.501961" cx="810" cy="532" rx="50" ry="50" />
<g transform="translate(380.391494 405.012273) rotate(297.481511) scale(72.104640 27.771257)"><ellipse fill="#d3ede9" fill-opacity="0.501961" cx="0" cy="0" rx="1" ry="1" /></g>
<ellipse fill="#00000b" fill-opacity="0.501961" cx="793" cy="103" rx="19" ry="18" />
<ellipse fill="#8aacb8" fill-opacity="0.501961" cx="215" cy="317" rx="77" ry="149" />
<rect fill="#a6d1e5" fill-opacity="0.501961" x="482" y="344" width="312" height="90" />
<g transform="translate(496.090736 177.551459) rotate(135.219172) scale(37.801578 45.559417)"><ellipse fill="#98bed0" fill-opacity="0.501961" cx="0" cy="0" rx="1" ry="1" /></g>
<polygon fill="#000000" fill-opacity="0.501961" points="56.575142,175.055989,27.263954,152.005383,-8.604004,132.088199,-16.000000,173.686205" />
<g transform="translate(427.660709 468.635813) rotate(136.866722) scale(38.063387 48.427175)"><ellipse fill="#8faec4" fill-opacity="0.501961" cx="0" cy="0" rx="1" ry="1" /></g>
<polygon fill="#85a7b1" fill-opacity="0.501961" points="1027.030920,474.608307,1017.197028,478.973717,1010.450645,476.601405,1061.280927,408.539673" />
<ellipse fill="#9ed6de" fill-opacity="0.501961" cx="899" cy="416" rx="125" ry="4" />
<rect fill="#020d19" fill-opacity="0.501961" x="166" y="0" width="590" height="93" />
<g transform="translate(27.223956 0.000000) rotate(174.898588) scale(106.428240 22.255420)"><ellipse fill="#071c12" fill-opacity="0.501961" cx="0" cy="0" rx="1" ry="1" /></g>
<g transform="translate(126.321858 171.891056) rotate(151.652824) scale(28.517001 51.156203)"><ellipse fill="#708b94" fill-opacity="0.501961" cx="0" cy="0" rx="1" ry="1" /></g>
<ellipse fill="#8b8ca4" fill-opacity="0.501961" cx="565" cy="613" rx="61" ry="7" />
<polygon fill="#061727" fill-opacity="0.501961" points="428.078390,184.329220,362.822216,226.580120,330.544643,312.309380,381.137262,306.535242" />
<g transform="translate(470.451784 623.865231) rotate(118.917089) scale(33.150732 56.617215)"><ellipse fill="#49794a" fill-opacity="0.501961" cx="0" cy="0" rx="1" ry="1" /></g>
<polygon fill="#d2f5f2" fill-opacity="0.501961" points="456,297 506,475 297,320" />
<g transform="translate(474.851771 544.814343) rotate(67.515533) scale(31.808192 16.860159)"><ellipse fill="#c0c3d0" fill-opacity="0.501961" cx="0" cy="0" rx="1" ry="1" /></g>
<polygon fill="#030e18" fill-opacity="0.501961" points="1029,99 1215,236 835,147" />
<ellipse fill="#e6ffff" fill-opacity="0.501961" cx="419" cy="238" rx="7" ry="23" />
<g transform="translate(831.390970 380.831385) rotate(126.185611) scale(19.734336 41.423649)"><ellipse fill="#000b1f" fill-opacity="0.501961" cx="0" cy="0" rx="1" ry="1" /></g>
</g>
</svg>