<svg xmlns="http://www.w3.org/2000/svg" version="1.1" width="1200" height="630">
<rect x="0" y="0" width="1200" height="630" fill="#31333c" />
<g transform="scale(1.000000) translate(0.5 0.5)">
<rect fill="#a0afad" fill-opacity="0.501961" x="364" y="12" width="478" height="224" />
<rect fill="#0081ff" fill-opacity="0.501961" x="114" y="114" width="195" height="146" />
<rect fill="#508bf0" fill-opacity="0.501961" x="964" y="309" width="215" height="199" />
<rect fill="#ab6f54" fill-opacity="0.501961" x="477" y="175" width="250" height="399" />
<rect fill="#1d0000" fill-opacity="0.501961" x="323" y="119" width="260" height="117" />
<rect fill="#000000" fill-opacity="0.501961" x="0" y="254" width="466" height="376" />
<rect fill="#a9c3c8" fill-opacity="0.501961" x="582" y="65" width="394" height="87" />
<rect fill="#000000" fill-opacity="0.501961" x="0" y="0" width="178" height="168" />
<rect fill="#000000" fill-opacity="0.501961" x="741" y="224" width="222" height="406" />
<rect fill="#b9f2ff" fill-opacity="0.501961" x="751" y="141" width="57" height="99" />
<rect fill="#846350" fill-opacity="0.501961" x="912" y="37" width="198" height="184" />
<rect fill="#000000" fill-opacity="0.501961" x="542" y="0" width="74" height="51" />
<rect fill="#825341" fill-opacity="0.501961" x="406" y="177" width="349" height="125" />
<rect fill="#c8b2ae" fill-opacity="0.501961" x="249" y="343" width="219" height="13" />
<rect fill="#d4bdb8" fill-opacity="0.501961" x="740" y="318" width="208" height="12" />
<rect fill="#0f72d1" fill-opacity="0.501961" x="97" y="154" width="151" height="112" />
<rect fill="#80b2c0" fill-opacity="0.501961" x="361" y="0" width="171" height="118" />
<rect fill="#000000" fill-opacity="0.501961" x="264" y="220" width="106" height="127" />
<rect fill="#000000" fill-opacity="0.501961" x="816" y="194" width="126" height="118" />
<rect fill="#000005" fill-opacity="0.501961" x="684" y="336" width="277" height="60" />
<rect fill="#000001" fill-opacity="0.501961" x="327" y="120" width="255" height="56" />
<rect fill="#000000" fill-opacity="0.501961" x="703" y="528" width="497" height="102" />
<rect fill="#000000" fill-opacity="0.501961" x="0" y="0" width="126" height="630" />
<rect fill="#1183f0" fill-opacity="0.501961" x="75" y="182" width="51" height="63" />
<rect fill="#000000" fill-opacity="0.501961" x="1061" y="212" width="121" height="76" />
<rect fill="#5f3324" fill-opacity="0.501961" x="605" y="138" width="105" height="98" />
<rect fill="#000000" fill-opacity="0.501961" x="0" y="0" width="360" height="96" />
<rect fill="#7faab8" fill-opacity="0.501961" x="403" y="46" width="430" height="72" />
<rect fill="#0a7de8" fill-opacity="0.501961" x="249" y="101" width="76" height="83" />
<rect fill="#000000" fill-opacity="0.501961" x="822" y="0" width="52" height="78" />
<rect fill="#000003" fill-opacity="0.501961" x="362" y="351" width="140" height="61" />
<rect fill="#01000a" fill-opacity="0.501961" x="781" y="233" width="265" height="78" />
<rect fill="#93776c" fill-opacity="0.501961" x="493" y="372" width="215" height="129" />
<rect fill="#877269" fill-opacity="0.501961" x="978" y="134" width="89" height="113" />
<rect fill="#000000" fill-opacity="0.501961" x="566" y="0" width="33" height="67" />
<rect fill="#98c8d9" fill-opacity="0.501961" x="738" y="118" width="95" height="82" />
<rect fill="#345590" fill-opacity="0.501961" x="1033" y="454" width="100" height="92" />
<rect fill="#000004" fill-opacity="0.501961" x="743" y="494" width="257" height="136" />
<rect fill="#4d78c3" fill-opacity="0.501961" x="1050" y="283" width="57" height="119" />
<rect fill="#7298a3" fill-opacity="0.501961" x="638" y="0" width="156" height="85" />
<rect fill="#b69d90" fill-opacity="0.501961" x="879" y="29" width="33" height="122" />
<rect fill="#000000" fill-opacity="0.501961" x="873" y="324" width="121" height="18" />
<rect fill="#efd7cd" fill-opacity="0.501961" x="395" y="340" width="88" height="9" />
<rect fill="#000005" fill-opacity="0.501961" x="1138" y="117" width="62" height="83" />
<rect fill="#150600" fill-opacity="0.501961" x="1148" y="235" width="52" height="97" />
<rect fill="#000002" fill-opacity="0.501961" x="0" y="361" width="464" height="269" />
<rect fill="#2244ad" fill-opacity="0.501961" x="414" y="607" width="126" height="23" />
<rect fill="#ccab92" fill-opacity="0.501961" x="882" y="313" width="141" height="9" />
<rect fill="#ecd8d0" fill-opacity="0.501961" x="700" y="325" width="95" height="9" />
<rect fill="#335085" fill-opacity="0.501961" x="1095" y="342" width="105" height="159" />
<rect fill="#000000" fill-opacity="0.501961" x="522" y="0" width="107" height="25" />
<rect fill="#000000" fill-opacity="0.501961" x="845" y="154" width="66" height="70" />
<rect fill="#000000" fill-opacity="0.501961" x="810" y="0" width="80" height="37" />
<rect fill="#808b92" fill-opacity="0.501961" x="320" y="83" width="82" height="43" />
<rect fill="#735245" fill-opacity="0.501961" x="343" y="177" width="406" height="64" />
<rect fill="#000000" fill-opacity="0.501961" x="536" y="615" width="207" height="15" />
<rect fill="#000000" fill-opacity="0.501961" x="290" y="204" width="69" height="57" />
<rect fill="#6b5750" fill-opacity="0.501961" x="910" y="0" width="71" height="200" />
<rect fill="#d8c2b9" fill-opacity="0.501961" x="234" y="350" width="70" height="9" />
<rect fill="#000000" fill-opacity="0.501961" x="1123" y="500" width="77" height="130" />
<rect fill="#84a8b4" fill-opacity="0.501961" x="724" y="59" width="122" height="110" />
<rect fill="#7d5743" fill-opacity="0.501961" x="511" y="573" width="165" height="36" />
<rect fill="#7c6258" fill-opacity="0.501961" x="470" y="428" width="269" height="112" />
<rect fill="#000000" fill-opacity="0.501961" x="653" y="338" width="91" height="21" />
<rect fill="#997b70" fill-opacity="0.501961" x="531" y="332" width="113" height="69" />
<rect fill="#1771c6" fill-opacity="0.501961" x="152" y="133" width="128" height="101" />
<rect fill="#537dca" fill-opacity="0.501961" x="962" y="338" width="87" height="132" />
<rect fill="#385587" fill-opacity="0.501961" x="1011" y="448" width="151" height="77" />
<rect fill="#000006" fill-opacity="0.501961" x="236" y="248" width="56" height="101" />
<rect fill="#070711" fill-opacity="0.501961" x="798" y="216" width="188" height="94" />
<rect fill="#946451" fill-opacity="0.501961" x="441" y="238" width="37" height="80" />
<rect fill="#998f8c" fill-opacity="0.501961" x="303" y="61" width="23" height="22" />
<rect fill="#000009" fill-opacity="0.501961" x="736" y="287" width="81" height="35" />
<rect fill="#6f4c40" fill-opacity="0.501961" x="522" y="157" width="209" height="80" />
<rect fill="#000000" fill-opacity="0.501961" x="213" y="45" width="66" height="60" />
<rect fill="#2b1d12" fill-opacity="0.501961" x="1029" y="0" width="171" height="82" />
<rect fill="#000010" fill-opacity="0.501961" x="427" y="349" width="81" height="38" />
<rect fill="#000000" fill-opacity="0.501961" x="86" y="0" width="80" height="139" />
<rect fill="#00000a" fill-opacity="0.501961" x="104" y="533" width="390" height="44" />
<rect fill="#d0bcb4" fill-opacity="0.501961" x="326" y="344" width="98" height="8" />
<rect fill="#000007" fill-opacity="0.501961" x="744" y="396" width="217" height="132" />
<rect fill="#bcb0a9" fill-opacity="0.501961" x="845" y="97" width="42" height="49" />
<rect fill="#000000" fill-opacity="0.501961" x="848" y="0" width="14" height="93" />
<rect fill="#1988f4" fill-opacity="0.501961" x="150" y="253" width="59" height="15" />
<rect fill="#000000" fill-opacity="0.501961" x="661" y="594" width="80" height="36" />
<rect fill="#bae9fa" fill-opacity="0.501961" x="759" y="202" width="17" height="42" />
<rect fill="#000008" fill-opacity="0.501961" x="370" y="278" width="59" height="63" />
<rect fill="#000002" fill-opacity="0.501961" x="1060" y="226" width="110" height="60" />
<rect fill="#00000a" fill-opacity="0.501961" x="829" y="186" width="89" height="37" />
<rect fill="#73c6e3" fill-opacity="0.501961" x="1049" y="247" width="9" height="36" />
<rect fill="#968c88" fill-opacity="0.501961" x="285" y="43" width="21" height="19" />
<rect fill="#000008" fill-opacity="0.501961" x="0" y="0" width="80" height="366" />
<rect fill="#136cc2" fill-opacity="0.501961" x="63" y="197" width="44" height="28" />
<rect fill="#786760" fill-opacity="0.501961" x="958" y="156" width="125" height="73" />
<rect fill="#92b9c5" fill-opacity="0.501961" x="528" y="59" width="51" height="60" />
<rect fill="#75939d" fill-opacity="0.501961" x="605" y="31" width="225" height="60" />
<rect fill="#002757" fill-opacity="0.501961" x="186" y="43" width="33" height="73" />
<rect fill="#637a82" fill-opacity="0.501961" x="361" y="17" width="185" height="49" />
<rect fill="#6d5443" fill-opacity="0.501961" x="1110" y="67" width="27" height="130" />
<rect fill="#1c48c5" fill-opacity="0.501961" x="470" y="564" width="16" height="46" />
</g>
</svg>