<svg xmlns="http://www.w3.org/2000/svg" version="1.1" width="1200" height="630">
<rect x="0" y="0" width="1200" height="630" fill="#294046" />
<g transform="scale(1.000000) translate(0.5 0.5)">
<g transform="translate(753.971790 241.746768) rotate(82.048400) scale(182.434845 328.806597)"><ellipse fill="#83ccc0" fill-opacity="0.501961" cx="0" cy="0" rx="1" ry="1" /></g>
<g transform="translate(213.580169 67.672398) rotate(262.015048) scale(160.318211 359.186415)"><ellipse fill="#000001" fill-opacity="0.501961" cx="0" cy="0" rx="1" ry="1" /></g>
<g transform="translate(909.393617 555.915320) rotate(82.874249) scale(140.775609 468.764160)"><ellipse fill="#000005" fill-opacity="0.501961" cx="0" cy="0" rx="1" ry="1" /></g>
<g transform="translate(657.056096 363.977567) rotate(-2.253437) scale(114.380074 54.981670)"><ellipse fill="#a1efe5" fill-opacity="0.501961" cx="0" cy="0" rx="1" ry="1" /></g>
<g transform="translate(1180.957251 116.346709) rotate(184.420109) scale(97.210235 317.974507)"><ellipse fill="#000000" fill-opacity="0.501961" cx="0" cy="0" rx="1" ry="1" /></g>
<g transform="translate(476.291319 291.439252) rotate(301.712505) scale(171.823059 103.030572)"><ellipse fill="#2d6c64" fill-opacity="0.501961" cx="0" cy="0" rx="1" ry="1" /></g>
<g transform="translate(204.584886 608.296375) rotate(174.931766) scale(253.407541 150.982799)"><ellipse fill="#071015" fill-opacity="0.501961" cx="0" cy="0" rx="1" ry="1" /></g>
<g transform="translate(594.879801 126.987242) rotate(531.963781) scale(56.862435 60.197579)"><ellipse fill="#8bccc2" fill-opacity="0.501961" cx="0" cy="0" rx="1" ry="1" /></g>
<g transform="translate(940.331472 379.906604) rotate(94.460625) scale(27.661098 52.089566)"><ellipse fill="#00000b" fill-opacity="0.501961" cx="0" cy="0" rx="1" ry="1" /></g>
<g transform="translate(840.383597 387.272361) rotate(280.161204) scale(31.584606 52.363313)"><ellipse fill="#94ddd3" fill-opacity="0.501961" cx="0" cy="0" rx="1" ry="1" /></g>
<g transform="translate(490.990264 140.769202) rotate(50.041937) scale(52.914571 52.600498)"><ellipse fill="#0a0323" fill-opacity="0.501961" cx="0" cy="0" rx="1" ry="1" /></g>
<g transform="translate(534.034196 509.563509) rotate(243.601678) scale(6.571217 213.332270)"><ellipse fill="#b4e1e6" fill-opacity="0.501961" cx="0" cy="0" rx="1" ry="1" /></g>
<g transform="translate(641.858914 283.795418) rotate(227.190104) scale(18.594731 86.603146)"><ellipse fill="#9dece2" fill-opacity="0.501961" cx="0" cy="0" rx="1" ry="1" /></g>
<g transform="translate(642.517349 24.365958) rotate(89.522890) scale(43.768834 88.255906)"><ellipse fill="#000007" fill-opacity="0.501961" cx="0" cy="0" rx="1" ry="1" /></g>
<g transform="translate(908.293893 100.425182) rotate(206.738100) scale(199.367753 89.329145)"><ellipse fill="#47615e" fill-opacity="0.501961" cx="0" cy="0" rx="1" ry="1" /></g>
<g transform="translate(1039.056818 310.635086) rotate(-51.093277) scale(49.762627 42.559207)"><ellipse fill="#66908b" fill-opacity="0.501961" cx="0" cy="0" rx="1" ry="1" /></g>
<g transform="translate(279.743375 328.113763) rotate(179.098412) scale(77.873972 325.310410)"><ellipse fill="#0a0923" fill-opacity="0.501961" cx="0" cy="0" rx="1" ry="1" /></g>
<g transform="translate(403.609920 329.238423) rotate(447.374738) scale(157.927924 48.785575)"><ellipse fill="#408076" fill-opacity="0.501961" cx="0" cy="0" rx="1" ry="1" /></g>
<g transform="translate(150.506077 407.817470) rotate(86.282614) scale(176.437638 56.762151)"><ellipse fill="#2d6356" fill-opacity="0.501961" cx="0" cy="0" rx="1" ry="1" /></g>
<g transform="translate(480.305904 498.532493) rotate(334.004584) scale(173.428094 30.407499)"><ellipse fill="#090823" fill-opacity="0.501961" cx="0" cy="0" rx="1" ry="1" /></g>
<g transform="translate(672.835430 116.189603) rotate(28.034596) scale(76.852880 38.232664)"><ellipse fill="#76afa7" fill-opacity="0.501961" cx="0" cy="0" rx="1" ry="1" /></g>
<g transform="translate(628.379594 220.596169) rotate(64.341656) scale(31.334834 110.461220)"><ellipse fill="#266059" fill-opacity="0.501961" cx="0" cy="0" rx="1" ry="1" /></g>
<g transform="translate(1148.727396 45.297590) rotate(346.253613) scale(69.274734 188.997513)"><ellipse fill="#02010d" fill-opacity="0.501961" cx="0" cy="0" rx="1" ry="1" /></g>
<g transform="translate(566.964854 395.501863) rotate(239.560155) scale(21.927729 27.483585)"><ellipse fill="#94ddd5" fill-opacity="0.501961" cx="0" cy="0" rx="1" ry="1" /></g>
<g transform="translate(797.108604 306.530522) rotate(282.658835) scale(114.170551 76.645322)"><ellipse fill="#72a4a2" fill-opacity="0.501961" cx="0" cy="0" rx="1" ry="1" /></g>
<g transform="translate(1087.303252 586.703004) rotate(164.076424) scale(417.929427 75.998634)"><ellipse fill="#02010d" fill-opacity="0.501961" cx="0" cy="0" rx="1" ry="1" /></g>
<g transform="translate(1017.323968 383.403906) rotate(-2.410722) scale(127.513442 27.210251)"><ellipse fill="#0d0f26" fill-opacity="0.501961" cx="0" cy="0" rx="1" ry="1" /></g>
<g transform="translate(94.681951 57.805940) rotate(126.882321) scale(200.184345 122.360614)"><ellipse fill="#040312" fill-opacity="0.501961" cx="0" cy="0" rx="1" ry="1" /></g>
<g transform="translate(517.204730 414.801436) rotate(26.301664) scale(18.571461 47.053587)"><ellipse fill="#080224" fill-opacity="0.501961" cx="0" cy="0" rx="1" ry="1" /></g>
<g transform="translate(563.270857 90.847470) rotate(228.738443) scale(26.000900 24.169968)"><ellipse fill="#74afa7" fill-opacity="0.501961" cx="0" cy="0" rx="1" ry="1" /></g>
<g transform="translate(732.001878 436.939449) rotate(74.818611) scale(15.401528 55.493227)"><ellipse fill="#0c0c2b" fill-opacity="0.501961" cx="0" cy="0" rx="1" ry="1" /></g>
<g transform="translate(412.733759 428.818974) rotate(297.066583) scale(115.859386 33.951202)"><ellipse fill="#386f68" fill-opacity="0.501961" cx="0" cy="0" rx="1" ry="1" /></g>
<g transform="translate(685.341947 296.751320) rotate(153.130042) scale(51.621491 13.241511)"><ellipse fill="#205e56" fill-opacity="0.501961" cx="0" cy="0" rx="1" ry="1" /></g>
<g transform="translate(299.794939 629.000000) rotate(149.495819) scale(78.156314 6.285919)"><ellipse fill="#708d89" fill-opacity="0.501961" cx="0" cy="0" rx="1" ry="1" /></g>
<g transform="translate(1060.823466 233.126812) rotate(0.012199) scale(22.733124 137.664492)"><ellipse fill="#4b6c6a" fill-opacity="0.501961" cx="0" cy="0" rx="1" ry="1" /></g>
<g transform="translate(56.727932 465.649993) rotate(45.418090) scale(202.676118 65.079860)"><ellipse fill="#1a3c33" fill-opacity="0.501961" cx="0" cy="0" rx="1" ry="1" /></g>
<g transform="translate(698.610831 467.673450) rotate(130.277936) scale(5.549488 34.059331)"><ellipse fill="#489188" fill-opacity="0.501961" cx="0" cy="0" rx="1" ry="1" /></g>
<g transform="translate(669.343499 422.881975) rotate(93.355778) scale(6.997141 21.000257)"><ellipse fill="#000014" fill-opacity="0.501961" cx="0" cy="0" rx="1" ry="1" /></g>
<g transform="translate(733.544273 400.756574) rotate(172.861704) scale(45.406732 18.190446)"><ellipse fill="#88cbc4" fill-opacity="0.501961" cx="0" cy="0" rx="1" ry="1" /></g>
<g transform="translate(681.706117 435.172536) rotate(62.823142) scale(5.191806 79.545154)"><ellipse fill="#a5d9da" fill-opacity="0.501961" cx="0" cy="0" rx="1" ry="1" /></g>
<g transform="translate(488.945452 146.413922) rotate(116.401138) scale(31.697664 57.560708)"><ellipse fill="#151b2f" fill-opacity="0.501961" cx="0" cy="0" rx="1" ry="1" /></g>
<g transform="translate(1116.151739 410.792957) rotate(220.105455) scale(105.865347 6.467341)"><ellipse fill="#436f66" fill-opacity="0.501961" cx="0" cy="0" rx="1" ry="1" /></g>
<g transform="translate(453.300689 472.227668) rotate(136.678482) scale(119.900891 16.493992)"><ellipse fill="#11152c" fill-opacity="0.501961" cx="0" cy="0" rx="1" ry="1" /></g>
<g transform="translate(781.455926 372.390072) rotate(351.817249) scale(12.282473 26.927568)"><ellipse fill="#235d54" fill-opacity="0.501961" cx="0" cy="0" rx="1" ry="1" /></g>
<g transform="translate(30.616358 590.342138) rotate(55.959706) scale(262.543653 52.294317)"><ellipse fill="#0b1b14" fill-opacity="0.501961" cx="0" cy="0" rx="1" ry="1" /></g>
<g transform="translate(561.343218 164.578404) rotate(212.729749) scale(20.659543 22.676372)"><ellipse fill="#86bfba" fill-opacity="0.501961" cx="0" cy="0" rx="1" ry="1" /></g>
<g transform="translate(485.868487 216.066259) rotate(352.260764) scale(125.898791 31.022608)"><ellipse fill="#336862" fill-opacity="0.501961" cx="0" cy="0" rx="1" ry="1" /></g>
<g transform="translate(989.098616 92.900399) rotate(24.187851) scale(101.949625 59.216411)"><ellipse fill="#3d5956" fill-opacity="0.501961" cx="0" cy="0" rx="1" ry="1" /></g>
<g transform="translate(355.822850 145.717293) rotate(163.152163) scale(193.446325 52.796859)"><ellipse fill="#182338" fill-opacity="0.501961" cx="0" cy="0" rx="1" ry="1" /></g>
<g transform="translate(501.253571 348.666087) rotate(323.512171) scale(177.713146 27.893660)"><ellipse fill="#356e68" fill-opacity="0.501961" cx="0" cy="0" rx="1" ry="1" /></g>
<g transform="translate(1014.708846 330.171513) rotate(88.831768) scale(25.766820 68.858338)"><ellipse fill="#5b8280" fill-opacity="0.501961" cx="0" cy="0" rx="1" ry="1" /></g>
<g transform="translate(709.377360 61.580492) rotate(269.467202) scale(7.359900 24.907299)"><ellipse fill="#040014" fill-opacity="0.501961" cx="0" cy="0" rx="1" ry="1" /></g>
<g transform="translate(245.307848 624.640050) rotate(344.798162) scale(36.246771 84.065976)"><ellipse fill="#05050e" fill-opacity="0.501961" cx="0" cy="0" rx="1" ry="1" /></g>
<g transform="translate(380.191519 207.376724) rotate(-34.645125) scale(19.419096 32.510401)"><ellipse fill="#3a756c" fill-opacity="0.501961" cx="0" cy="0" rx="1" ry="1" /></g>
<g transform="translate(716.696950 241.730245) rotate(178.191817) scale(12.261322 63.612444)"><ellipse fill="#2a655e" fill-opacity="0.501961" cx="0" cy="0" rx="1" ry="1" /></g>
<g transform="translate(377.718373 629.000000) rotate(250.214634) scale(30.005894 112.910643)"><ellipse fill="#080618" fill-opacity="0.501961" cx="0" cy="0" rx="1" ry="1" /></g>
<g transform="translate(866.807187 400.389407) rotate(301.883803) scale(11.777216 29.606874)"><ellipse fill="#7bb8b1" fill-opacity="0.501961" cx="0" cy="0" rx="1" ry="1" /></g>
<g transform="translate(846.474109 195.414397) rotate(-65.862237) scale(72.280137 130.616475)"><ellipse fill="#608887" fill-opacity="0.501961" cx="0" cy="0" rx="1" ry="1" /></g>
<g transform="translate(579.987455 413.156293) rotate(87.868821) scale(5.381557 39.835477)"><ellipse fill="#85c7c2" fill-opacity="0.501961" cx="0" cy="0" rx="1" ry="1" /></g>
<g transform="translate(799.088943 59.798792) rotate(273.697394) scale(46.167278 73.482207)"><ellipse fill="#486a68" fill-opacity="0.501961" cx="0" cy="0" rx="1" ry="1" /></g>
<g transform="translate(1027.657544 283.596536) rotate(198.146120) scale(52.567717 74.222058)"><ellipse fill="#517473" fill-opacity="0.501961" cx="0" cy="0" rx="1" ry="1" /></g>
<g transform="translate(927.154880 389.172426) rotate(313.679587) scale(23.918770 47.101271)"><ellipse fill="#151b33" fill-opacity="0.501961" cx="0" cy="0" rx="1" ry="1" /></g>
<g transform="translate(789.529377 424.265365) rotate(272.884656) scale(6.551427 65.742609)"><ellipse fill="#11142e" fill-opacity="0.501961" cx="0" cy="0" rx="1" ry="1" /></g>
<g transform="translate(623.750500 99.488910) rotate(170.077500) scale(81.554863 28.790261)"><ellipse fill="#649791" fill-opacity="0.501961" cx="0" cy="0" rx="1" ry="1" /></g>
<g transform="translate(566.855249 378.386998) rotate(4.518212) scale(26.840588 35.223102)"><ellipse fill="#83c4bd" fill-opacity="0.501961" cx="0" cy="0" rx="1" ry="1" /></g>
<g transform="translate(686.972672 240.725787) rotate(37.565284) scale(20.075420 24.898151)"><ellipse fill="#7ec1b9" fill-opacity="0.501961" cx="0" cy="0" rx="1" ry="1" /></g>
<g transform="translate(1112.646569 349.563652) rotate(251.222916) scale(65.845491 24.075598)"><ellipse fill="#0d1126" fill-opacity="0.501961" cx="0" cy="0" rx="1" ry="1" /></g>
<g transform="translate(669.045819 165.984123) rotate(110.972355) scale(7.823452 36.860807)"><ellipse fill="#20544d" fill-opacity="0.501961" cx="0" cy="0" rx="1" ry="1" /></g>
<g transform="translate(634.541085 172.241133) rotate(108.601886) scale(10.045936 22.812066)"><ellipse fill="#85c7bf" fill-opacity="0.501961" cx="0" cy="0" rx="1" ry="1" /></g>
<g transform="translate(478.729121 397.811079) rotate(128.662287) scale(77.910142 16.938665)"><ellipse fill="#3d7770" fill-opacity="0.501961" cx="0" cy="0" rx="1" ry="1" /></g>
<g transform="translate(876.655439 368.750256) rotate(261.033270) scale(33.399385 14.251050)"><ellipse fill="#78afaa" fill-opacity="0.501961" cx="0" cy="0" rx="1" ry="1" /></g>
<g transform="translate(198.170674 479.914851) rotate(89.874677) scale(132.156850 5.948905)"><ellipse fill="#436965" fill-opacity="0.501961" cx="0" cy="0" rx="1" ry="1" /></g>
<g transform="translate(463.132644 560.562995) rotate(60.401521) scale(9.382008 75.535829)"><ellipse fill="#0f1127" fill-opacity="0.501961" cx="0" cy="0" rx="1" ry="1" /></g>
<g transform="translate(585.341546 483.416973) rotate(62.857785) scale(4.002730 55.684697)"><ellipse fill="#a5d6d7" fill-opacity="0.501961" cx="0" cy="0" rx="1" ry="1" /></g>
<g transform="translate(774.462266 460.114652) rotate(467.460828) scale(38.240801 73.398781)"><ellipse fill="#19213c" fill-opacity="0.501961" cx="0" cy="0" rx="1" ry="1" /></g>
<g transform="translate(478.179941 273.001340) rotate(59.882100) scale(84.661675 106.845362)"><ellipse fill="#386f69" fill-opacity="0.501961" cx="0" cy="0" rx="1" ry="1" /></g>
<g transform="translate(72.631940 0.000000) rotate(-29.215460) scale(266.348096 58.899993)"><ellipse fill="#020306" fill-opacity="0.501961" cx="0" cy="0" rx="1" ry="1" /></g>
<g transform="translate(759.259820 264.344037) rotate(354.774172) scale(32.053597 96.346101)"><ellipse fill="#6b9a98" fill-opacity="0.501961" cx="0" cy="0" rx="1" ry="1" /></g>
<g transform="translate(637.917013 496.867667) rotate(171.485526) scale(74.018631 21.651531)"><ellipse fill="#1a223f" fill-opacity="0.501961" cx="0" cy="0" rx="1" ry="1" /></g>
<g transform="translate(577.758316 37.767403) rotate(90.613549) scale(30.598976 109.420098)"><ellipse fill="#0e1126" fill-opacity="0.501961" cx="0" cy="0" rx="1" ry="1" /></g>
<g transform="translate(564.774204 90.027780) rotate(222.661316) scale(30.321221 13.892797)"><ellipse fill="#699d97" fill-opacity="0.501961" cx="0" cy="0" rx="1" ry="1" /></g>
<g transform="translate(453.678225 168.234798) rotate(274.949547) scale(14.308508 90.442588)"><ellipse fill="#161b31" fill-opacity="0.501961" cx="0" cy="0" rx="1" ry="1" /></g>
<g transform="translate(1118.479888 96.113550) rotate(54.039661) scale(6.527110 67.858972)"><ellipse fill="#23453f" fill-opacity="0.501961" cx="0" cy="0" rx="1" ry="1" /></g>
<g transform="translate(1014.667882 384.706439) rotate(288.081441) scale(20.636401 74.425036)"><ellipse fill="#101628" fill-opacity="0.501961" cx="0" cy="0" rx="1" ry="1" /></g>
<g transform="translate(383.496803 0.000000) rotate(174.866270) scale(152.728482 56.584688)"><ellipse fill="#0a0c1d" fill-opacity="0.501961" cx="0" cy="0" rx="1" ry="1" /></g>
<g transform="translate(1135.258337 618.257246) rotate(62.158178) scale(50.498113 147.222251)"><ellipse fill="#030407" fill-opacity="0.501961" cx="0" cy="0" rx="1" ry="1" /></g>
<g transform="translate(570.730134 436.372337) rotate(92.518468) scale(19.203627 83.048789)"><ellipse fill="#161d36" fill-opacity="0.501961" cx="0" cy="0" rx="1" ry="1" /></g>
<g transform="translate(907.419977 307.880451) rotate(127.365397) scale(41.294804 58.732688)"><ellipse fill="#668f8e" fill-opacity="0.501961" cx="0" cy="0" rx="1" ry="1" /></g>
<g transform="translate(590.438953 357.327235) rotate(229.444208) scale(32.430461 57.023770)"><ellipse fill="#81c3bc" fill-opacity="0.501961" cx="0" cy="0" rx="1" ry="1" /></g>
<g transform="translate(200.529939 260.292750) rotate(91.741356) scale(79.677761 5.508760)"><ellipse fill="#0b0d23" fill-opacity="0.501961" cx="0" cy="0" rx="1" ry="1" /></g>
<g transform="translate(708.187031 328.117773) rotate(131.669991) scale(26.842742 18.061661)"><ellipse fill="#87cbc4" fill-opacity="0.501961" cx="0" cy="0" rx="1" ry="1" /></g>
<g transform="translate(939.464381 429.308894) rotate(-9.968487) scale(49.362101 76.289345)"><ellipse fill="#161d34" fill-opacity="0.501961" cx="0" cy="0" rx="1" ry="1" /></g>
<g transform="translate(1145.055070 286.136391) rotate(172.551031) scale(60.009699 147.436268)"><ellipse fill="#0e1226" fill-opacity="0.501961" cx="0" cy="0" rx="1" ry="1" /></g>
<g transform="translate(134.351828 155.443179) rotate(325.954494) scale(119.436135 50.949845)"><ellipse fill="#12192a" fill-opacity="0.501961" cx="0" cy="0" rx="1" ry="1" /></g>
<g transform="translate(696.879148 279.599677) rotate(29.465134) scale(16.766844 38.160208)"><ellipse fill="#326d66" fill-opacity="0.501961" cx="0" cy="0" rx="1" ry="1" /></g>
<g transform="translate(1142.568886 6.334208) rotate(58.125604) scale(51.467293 64.504856)"><ellipse fill="#010205" fill-opacity="0.501961" cx="0" cy="0" rx="1" ry="1" /></g>
<g transform="translate(170.684494 298.084361) rotate(5.853350) scale(23.329329 69.047718)"><ellipse fill="#2f635b" fill-opacity="0.501961" cx="0" cy="0" rx="1" ry="1" /></g>
<g transform="translate(607.759666 189.475160) rotate(271.584385) scale(6.803831 38.209254)"><ellipse fill="#2b615b" fill-opacity="0.501961" cx="0" cy="0" rx="1" ry="1" /></g>
<g transform="translate(852.332201 447.827377) rotate(270.206078) scale(30.976528 96.934048)"><ellipse fill="#172037" fill-opacity="0.501961" cx="0" cy="0" rx="1" ry="1" /></g>
<g transform="translate(88.893887 375.588524) rotate(344.206189) scale(57.483560 149.239880)"><ellipse fill="#244e46" fill-opacity="0.501961" cx="0" cy="0" rx="1" ry="1" /></g>
</g>
</svg>