<svg xmlns="http://www.w3.org/2000/svg" version="1.1" width="1200" height="630">
<rect x="0" y="0" width="1200" height="630" fill="#472933" />
<g transform="scale(1.000000) translate(0.5 0.5)">
<g transform="translate(767 421) rotate(-20) scale(381 193)"><rect fill="#cb82c6" fill-opacity="0.501961" x="-0.5" y="-0.5" width="1" height="1" /></g>
<g transform="translate(663 100) rotate(70) scale(186 296)"><rect fill="#ff6737" fill-opacity="0.501961" x="-0.5" y="-0.5" width="1" height="1" /></g>
<g transform="translate(1119 308) rotate(172) scale(197 481)"><rect fill="#c85123" fill-opacity="0.501961" x="-0.5" y="-0.5" width="1" height="1" /></g>
<g transform="translate(665 450) rotate(47) scale(274 122)"><rect fill="#3b4deb" fill-opacity="0.501961" x="-0.5" y="-0.5" width="1" height="1" /></g>
<g transform="translate(238 331) rotate(281) scale(757 498)"><rect fill="#00061d" fill-opacity="0.501961" x="-0.5" y="-0.5" width="1" height="1" /></g>
<g transform="translate(820 360) rotate(260) scale(94 234)"><rect fill="#ff8215" fill-opacity="0.501961" x="-0.5" y="-0.5" width="1" height="1" /></g>
<g transform="translate(927 260) rotate(26) scale(306 122)"><rect fill="#000c2e" fill-opacity="0.501961" x="-0.5" y="-0.5" width="1" height="1" /></g>
<g transform="translate(976 448) rotate(45) scale(227 80)"><rect fill="#e35c22" fill-opacity="0.501961" x="-0.5" y="-0.5" width="1" height="1" /></g>
<g transform="translate(878 0) rotate(210) scale(250 153)"><rect fill="#000008" fill-opacity="0.501961" x="-0.5" y="-0.5" width="1" height="1" /></g>
<g transform="translate(602 183) rotate(69) scale(71 197)"><rect fill="#ff6949" fill-opacity="0.501961" x="-0.5" y="-0.5" width="1" height="1" /></g>
<g transform="translate(801 480) rotate(171) scale(133 138)"><rect fill="#3541c0" fill-opacity="0.501961" x="-0.5" y="-0.5" width="1" height="1" /></g>
<g transform="translate(506 444) rotate(91) scale(392 130)"><rect fill="#001633" fill-opacity="0.501961" x="-0.5" y="-0.5" width="1" height="1" /></g>
<g transform="translate(726 600) rotate(269) scale(54 112)"><rect fill="#d72700" fill-opacity="0.501961" x="-0.5" y="-0.5" width="1" height="1" /></g>
<g transform="translate(903 509) rotate(290) scale(123 110)"><rect fill="#0f0705" fill-opacity="0.501961" x="-0.5" y="-0.5" width="1" height="1" /></g>
<g transform="translate(766 116) rotate(-17) scale(235 76)"><rect fill="#f15436" fill-opacity="0.501961" x="-0.5" y="-0.5" width="1" height="1" /></g>
<g transform="translate(687 267) rotate(258) scale(179 13)"><rect fill="#ff9d76" fill-opacity="0.501961" x="-0.5" y="-0.5" width="1" height="1" /></g>
<g transform="translate(719 334) rotate(219) scale(51 121)"><rect fill="#0b1435" fill-opacity="0.501961" x="-0.5" y="-0.5" width="1" height="1" /></g>
<g transform="translate(995 584) rotate(48) scale(99 177)"><rect fill="#9e3113" fill-opacity="0.501961" x="-0.5" y="-0.5" width="1" height="1" /></g>
<g transform="translate(576 101) rotate(96) scale(207 79)"><rect fill="#ec5133" fill-opacity="0.501961" x="-0.5" y="-0.5" width="1" height="1" /></g>
<g transform="translate(48 81) rotate(308) scale(254 56)"><rect fill="#852906" fill-opacity="0.501961" x="-0.5" y="-0.5" width="1" height="1" /></g>
<g transform="translate(907 506) rotate(323) scale(14 135)"><rect fill="#ff4000" fill-opacity="0.501961" x="-0.5" y="-0.5" width="1" height="1" /></g>
<g transform="translate(1110 373) rotate(28) scale(101 236)"><rect fill="#bc6139" fill-opacity="0.501961" x="-0.5" y="-0.5" width="1" height="1" /></g>
<g transform="translate(632 571) rotate(207) scale(71 37)"><rect fill="#c42300" fill-opacity="0.501961" x="-0.5" y="-0.5" width="1" height="1" /></g>
<g transform="translate(826 325) rotate(261) scale(52 116)"><rect fill="#ff7e3e" fill-opacity="0.501961" x="-0.5" y="-0.5" width="1" height="1" /></g>
<g transform="translate(1138 46) rotate(-61) scale(167 255)"><rect fill="#591704" fill-opacity="0.501961" x="-0.5" y="-0.5" width="1" height="1" /></g>
<g transform="translate(855 613) rotate(264) scale(67 106)"><rect fill="#00000c" fill-opacity="0.501961" x="-0.5" y="-0.5" width="1" height="1" /></g>
<g transform="translate(611 493) rotate(154) scale(48 107)"><rect fill="#3944c7" fill-opacity="0.501961" x="-0.5" y="-0.5" width="1" height="1" /></g>
<g transform="translate(507 143) rotate(277) scale(236 44)"><rect fill="#031a38" fill-opacity="0.501961" x="-0.5" y="-0.5" width="1" height="1" /></g>
<g transform="translate(700 330) rotate(349) scale(11 155)"><rect fill="#ff8963" fill-opacity="0.501961" x="-0.5" y="-0.5" width="1" height="1" /></g>
<g transform="translate(816 567) rotate(-3) scale(71 27)"><rect fill="#f13000" fill-opacity="0.501961" x="-0.5" y="-0.5" width="1" height="1" /></g>
<g transform="translate(197 593) rotate(210) scale(663 395)"><rect fill="#05101c" fill-opacity="0.501961" x="-0.5" y="-0.5" width="1" height="1" /></g>
<g transform="translate(1006 401) rotate(366) scale(59 57)"><rect fill="#00072a" fill-opacity="0.501961" x="-0.5" y="-0.5" width="1" height="1" /></g>
<g transform="translate(936 159) rotate(357) scale(107 96)"><rect fill="#000e26" fill-opacity="0.501961" x="-0.5" y="-0.5" width="1" height="1" /></g>
<g transform="translate(607 367) rotate(119) scale(86 50)"><rect fill="#826df5" fill-opacity="0.501961" x="-0.5" y="-0.5" width="1" height="1" /></g>
<g transform="translate(927 80) rotate(102) scale(9 127)"><rect fill="#ea3600" fill-opacity="0.501961" x="-0.5" y="-0.5" width="1" height="1" /></g>
<g transform="translate(1137 574) rotate(175) scale(166 143)"><rect fill="#541f06" fill-opacity="0.501961" x="-0.5" y="-0.5" width="1" height="1" /></g>
<g transform="translate(1025 182) rotate(272) scale(83 69)"><rect fill="#da4c34" fill-opacity="0.501961" x="-0.5" y="-0.5" width="1" height="1" /></g>
<g transform="translate(1039 279) rotate(121) scale(63 105)"><rect fill="#00122c" fill-opacity="0.501961" x="-0.5" y="-0.5" width="1" height="1" /></g>
<g transform="translate(13 14) rotate(220) scale(64 92)"><rect fill="#000000" fill-opacity="0.501961" x="-0.5" y="-0.5" width="1" height="1" /></g>
<g transform="translate(822 262) rotate(280) scale(54 250)"><rect fill="#091b37" fill-opacity="0.501961" x="-0.5" y="-0.5" width="1" height="1" /></g>
<g transform="translate(751 194) rotate(158) scale(132 50)"><rect fill="#001737" fill-opacity="0.501961" x="-0.5" y="-0.5" width="1" height="1" /></g>
<g transform="translate(577 326) rotate(304) scale(231 42)"><rect fill="#0f1e3b" fill-opacity="0.501961" x="-0.5" y="-0.5" width="1" height="1" /></g>
<g transform="translate(759 557) rotate(-17) scale(82 25)"><rect fill="#5049b1" fill-opacity="0.501961" x="-0.5" y="-0.5" width="1" height="1" /></g>
<g transform="translate(809 24) rotate(202) scale(165 34)"><rect fill="#000d22" fill-opacity="0.501961" x="-0.5" y="-0.5" width="1" height="1" /></g>
<g transform="translate(806 370) rotate(169) scale(133 74)"><rect fill="#ff7c4b" fill-opacity="0.501961" x="-0.5" y="-0.5" width="1" height="1" /></g>
<g transform="translate(916 388) rotate(249) scale(88 94)"><rect fill="#f0773e" fill-opacity="0.501961" x="-0.5" y="-0.5" width="1" height="1" /></g>
<g transform="translate(1045 95) rotate(259) scale(138 92)"><rect fill="#953525" fill-opacity="0.501961" x="-0.5" y="-0.5" width="1" height="1" /></g>
<g transform="translate(664 538) rotate(292) scale(49 103)"><rect fill="#403c9a" fill-opacity="0.501961" x="-0.5" y="-0.5" width="1" height="1" /></g>
<g transform="translate(581 544) rotate(61) scale(43 64)"><rect fill="#000e24" fill-opacity="0.501961" x="-0.5" y="-0.5" width="1" height="1" /></g>
<g transform="translate(535 212) rotate(277) scale(76 25)"><rect fill="#ff6948" fill-opacity="0.501961" x="-0.5" y="-0.5" width="1" height="1" /></g>
<g transform="translate(1084 222) rotate(28) scale(119 75)"><rect fill="#c04331" fill-opacity="0.501961" x="-0.5" y="-0.5" width="1" height="1" /></g>
<g transform="translate(1067 339) rotate(304) scale(79 16)"><rect fill="#df7244" fill-opacity="0.501961" x="-0.5" y="-0.5" width="1" height="1" /></g>
<g transform="translate(615 146) rotate(230) scale(82 173)"><rect fill="#ec583f" fill-opacity="0.501961" x="-0.5" y="-0.5" width="1" height="1" /></g>
<g transform="translate(144 113) rotate(38) scale(134 391)"><rect fill="#020d18" fill-opacity="0.501961" x="-0.5" y="-0.5" width="1" height="1" /></g>
<g transform="translate(667 325) rotate(65) scale(118 27)"><rect fill="#00193b" fill-opacity="0.501961" x="-0.5" y="-0.5" width="1" height="1" /></g>
<g transform="translate(1063 501) rotate(-76) scale(120 159)"><rect fill="#96422f" fill-opacity="0.501961" x="-0.5" y="-0.5" width="1" height="1" /></g>
<g transform="translate(539 272) rotate(69) scale(50 205)"><rect fill="#1d2442" fill-opacity="0.501961" x="-0.5" y="-0.5" width="1" height="1" /></g>
<g transform="translate(897 317) rotate(206) scale(60 18)"><rect fill="#ff7d48" fill-opacity="0.501961" x="-0.5" y="-0.5" width="1" height="1" /></g>
<g transform="translate(774 297) rotate(50) scale(26 156)"><rect fill="#111c3a" fill-opacity="0.501961" x="-0.5" y="-0.5" width="1" height="1" /></g>
<g transform="translate(922 463) rotate(20) scale(111 20)"><rect fill="#00112e" fill-opacity="0.501961" x="-0.5" y="-0.5" width="1" height="1" /></g>
<g transform="translate(105 611) rotate(119) scale(142 341)"><rect fill="#040508" fill-opacity="0.501961" x="-0.5" y="-0.5" width="1" height="1" /></g>
<g transform="translate(645 619) rotate(146) scale(58 32)"><rect fill="#000310" fill-opacity="0.501961" x="-0.5" y="-0.5" width="1" height="1" /></g>
<g transform="translate(626 31) rotate(176) scale(156 72)"><rect fill="#9a3624" fill-opacity="0.501961" x="-0.5" y="-0.5" width="1" height="1" /></g>
<g transform="translate(721 629) rotate(312) scale(36 24)"><rect fill="#000319" fill-opacity="0.501961" x="-0.5" y="-0.5" width="1" height="1" /></g>
<g transform="translate(612 569) rotate(265) scale(19 70)"><rect fill="#cf2f00" fill-opacity="0.501961" x="-0.5" y="-0.5" width="1" height="1" /></g>
<g transform="translate(857 441) rotate(365) scale(26 77)"><rect fill="#4a4bc6" fill-opacity="0.501961" x="-0.5" y="-0.5" width="1" height="1" /></g>
<g transform="translate(1160 7) rotate(320) scale(86 155)"><rect fill="#270e07" fill-opacity="0.501961" x="-0.5" y="-0.5" width="1" height="1" /></g>
<g transform="translate(1015 361) rotate(114) scale(126 52)"><rect fill="#09182d" fill-opacity="0.501961" x="-0.5" y="-0.5" width="1" height="1" /></g>
<g transform="translate(579 445) rotate(-10) scale(22 87)"><rect fill="#6759d0" fill-opacity="0.501961" x="-0.5" y="-0.5" width="1" height="1" /></g>
<g transform="translate(957 519) rotate(89) scale(69 34)"><rect fill="#000d25" fill-opacity="0.501961" x="-0.5" y="-0.5" width="1" height="1" /></g>
<g transform="translate(345 316) rotate(180) scale(346 435)"><rect fill="#1a223a" fill-opacity="0.501961" x="-0.5" y="-0.5" width="1" height="1" /></g>
<g transform="translate(1151 625) rotate(155) scale(162 54)"><rect fill="#1f0601" fill-opacity="0.501961" x="-0.5" y="-0.5" width="1" height="1" /></g>
<g transform="translate(858 111) rotate(250) scale(27 88)"><rect fill="#cf4e32" fill-opacity="0.501961" x="-0.5" y="-0.5" width="1" height="1" /></g>
<g transform="translate(771 497) rotate(234) scale(103 143)"><rect fill="#5749a6" fill-opacity="0.501961" x="-0.5" y="-0.5" width="1" height="1" /></g>
<g transform="translate(654 381) rotate(49) scale(155 39)"><rect fill="#6c5dd7" fill-opacity="0.501961" x="-0.5" y="-0.5" width="1" height="1" /></g>
<g transform="translate(706 87) rotate(271) scale(75 238)"><rect fill="#be4733" fill-opacity="0.501961" x="-0.5" y="-0.5" width="1" height="1" /></g>
<g transform="translate(725 593) rotate(175) scale(109 36)"><rect fill="#ab2d00" fill-opacity="0.501961" x="-0.5" y="-0.5" width="1" height="1" /></g>
<g transform="translate(868 148) rotate(250) scale(48 68)"><rect fill="#02142c" fill-opacity="0.501961" x="-0.5" y="-0.5" width="1" height="1" /></g>
<g transform="translate(798 605) rotate(352) scale(34 46)"><rect fill="#000717" fill-opacity="0.501961" x="-0.5" y="-0.5" width="1" height="1" /></g>
<g transform="translate(462 46) rotate(369) scale(156 126)"><rect fill="#0b1423" fill-opacity="0.501961" x="-0.5" y="-0.5" width="1" height="1" /></g>
<g transform="translate(628 603) rotate(237) scale(8 117)"><rect fill="#d2491f" fill-opacity="0.501961" x="-0.5" y="-0.5" width="1" height="1" /></g>
<g transform="translate(1012 454) rotate(88) scale(50 68)"><rect fill="#cd4a36" fill-opacity="0.501961" x="-0.5" y="-0.5" width="1" height="1" /></g>
<g transform="translate(929 307) rotate(44) scale(172 27)"><rect fill="#11192f" fill-opacity="0.501961" x="-0.5" y="-0.5" width="1" height="1" /></g>
<g transform="translate(864 534) rotate(34) scale(58 59)"><rect fill="#091320" fill-opacity="0.501961" x="-0.5" y="-0.5" width="1" height="1" /></g>
<g transform="translate(821 307) rotate(260) scale(20 58)"><rect fill="#ff8140" fill-opacity="0.501961" x="-0.5" y="-0.5" width="1" height="1" /></g>
<g transform="translate(600 602) rotate(416) scale(15 72)"><rect fill="#000c2e" fill-opacity="0.501961" x="-0.5" y="-0.5" width="1" height="1" /></g>
<g transform="translate(986 16) rotate(61) scale(39 170)"><rect fill="#000b19" fill-opacity="0.501961" x="-0.5" y="-0.5" width="1" height="1" /></g>
<g transform="translate(1089 567) rotate(55) scale(62 412)"><rect fill="#632c1c" fill-opacity="0.501961" x="-0.5" y="-0.5" width="1" height="1" /></g>
<g transform="translate(843 560) rotate(298) scale(8 63)"><rect fill="#d83500" fill-opacity="0.501961" x="-0.5" y="-0.5" width="1" height="1" /></g>
<g transform="translate(747 375) rotate(211) scale(34 95)"><rect fill="#ff7f4f" fill-opacity="0.501961" x="-0.5" y="-0.5" width="1" height="1" /></g>
<g transform="translate(556 396) rotate(371) scale(25 105)"><rect fill="#231e29" fill-opacity="0.501961" x="-0.5" y="-0.5" width="1" height="1" /></g>
<g transform="translate(666 256) rotate(79) scale(108 26)"><rect fill="#101b41" fill-opacity="0.501961" x="-0.5" y="-0.5" width="1" height="1" /></g>
<g transform="translate(1020 247) rotate(299) scale(27 180)"><rect fill="#0f172b" fill-opacity="0.501961" x="-0.5" y="-0.5" width="1" height="1" /></g>
<g transform="translate(678 222) rotate(78) scale(152 9)"><rect fill="#ff6d46" fill-opacity="0.501961" x="-0.5" y="-0.5" width="1" height="1" /></g>
<g transform="translate(670 179) rotate(160) scale(230 28)"><rect fill="#f75c42" fill-opacity="0.501961" x="-0.5" y="-0.5" width="1" height="1" /></g>
<g transform="translate(884 84) rotate(299) scale(9 61)"><rect fill="#000e23" fill-opacity="0.501961" x="-0.5" y="-0.5" width="1" height="1" /></g>
<g transform="translate(274 73) rotate(154) scale(264 161)"><rect fill="#0e121f" fill-opacity="0.501961" x="-0.5" y="-0.5" width="1" height="1" /></g>
<g transform="translate(574 613) rotate(127) scale(82 8)"><rect fill="#4544b6" fill-opacity="0.501961" x="-0.5" y="-0.5" width="1" height="1" /></g>
<g transform="translate(60 36) rotate(323) scale(226 47)"><rect fill="#45170c" fill-opacity="0.501961" x="-0.5" y="-0.5" width="1" height="1" /></g>
<g transform="translate(772 440) rotate(262) scale(50 157)"><rect fill="#5f53c3" fill-opacity="0.501961" x="-0.5" y="-0.5" width="1" height="1" /></g>
</g>
</svg>