<svg xmlns="http://www.w3.org/2000/svg" version="1.1" width="1200" height="630">
<rect x="0" y="0" width="1200" height="630" fill="#303133" />
<g transform="scale(1.000000) translate(0.5 0.5)">
<rect fill="#ebff28" fill-opacity="0.501961" x="712" y="258" width="140" height="205" />
<rect fill="#91cc42" fill-opacity="0.501961" x="88" y="431" width="194" height="170" />
<rect fill="#bdff5b" fill-opacity="0.501961" x="602" y="0" width="95" height="151" />
<rect fill="#ccff6c" fill-opacity="0.501961" x="889" y="221" width="87" height="124" />
<rect fill="#a4ff2d" fill-opacity="0.501961" x="709" y="281" width="145" height="153" />
<rect fill="#b851bb" fill-opacity="0.501961" x="199" y="78" width="105" height="112" />
<rect fill="#8fce3f" fill-opacity="0.501961" x="1122" y="172" width="78" height="144" />
<rect fill="#000013" fill-opacity="0.501961" x="706" y="0" width="494" height="189" />
<rect fill="#a6ec4b" fill-opacity="0.501961" x="507" y="0" width="94" height="64" />
<rect fill="#0b0334" fill-opacity="0.501961" x="667" y="405" width="75" height="225" />
<rect fill="#000038" fill-opacity="0.501961" x="818" y="188" width="52" height="117" />
<rect fill="#020124" fill-opacity="0.501961" x="855" y="317" width="70" height="313" />
<rect fill="#855386" fill-opacity="0.501961" x="1040" y="466" width="124" height="117" />
<rect fill="#adff2b" fill-opacity="0.501961" x="730" y="251" width="75" height="189" />
<rect fill="#99d254" fill-opacity="0.501961" x="172" y="406" width="67" height="107" />
<rect fill="#1e1647" fill-opacity="0.501961" x="253" y="185" width="347" height="305" />
<rect fill="#ffffae" fill-opacity="0.501961" x="665" y="348" width="47" height="22" />
<rect fill="#79a42d" fill-opacity="0.501961" x="0" y="78" width="72" height="114" />
<rect fill="#00001b" fill-opacity="0.501961" x="0" y="185" width="182" height="259" />
<rect fill="#a3ff29" fill-opacity="0.501961" x="769" y="287" width="61" height="185" />
<rect fill="#000021" fill-opacity="0.501961" x="952" y="189" width="162" height="60" />
<rect fill="#0d0b3b" fill-opacity="0.501961" x="663" y="122" width="60" height="166" />
<rect fill="#abf35e" fill-opacity="0.501961" x="920" y="239" width="45" height="120" />
<rect fill="#060523" fill-opacity="0.501961" x="981" y="287" width="154" height="197" />
<rect fill="#c3f86c" fill-opacity="0.501961" x="848" y="299" width="42" height="28" />
<rect fill="#020122" fill-opacity="0.501961" x="313" y="0" width="190" height="188" />
<rect fill="#98da46" fill-opacity="0.501961" x="282" y="526" width="26" height="61" />
<rect fill="#91638d" fill-opacity="0.501961" x="1109" y="440" width="57" height="61" />
<rect fill="#91c467" fill-opacity="0.501961" x="598" y="293" width="24" height="66" />
<rect fill="#b994b9" fill-opacity="0.501961" x="250" y="97" width="40" height="80" />
<rect fill="#460044" fill-opacity="0.501961" x="89" y="0" width="167" height="154" />
<rect fill="#80af3a" fill-opacity="0.501961" x="1149" y="152" width="51" height="37" />
<rect fill="#00001e" fill-opacity="0.501961" x="742" y="475" width="114" height="155" />
<rect fill="#91c666" fill-opacity="0.501961" x="621" y="359" width="22" height="64" />
<rect fill="#0d0e26" fill-opacity="0.501961" x="922" y="364" width="145" height="156" />
<rect fill="#9ad464" fill-opacity="0.501961" x="642" y="418" width="18" height="55" />
<rect fill="#787156" fill-opacity="0.501961" x="43" y="462" width="47" height="88" />
<rect fill="#7ca647" fill-opacity="0.501961" x="149" y="425" width="110" height="114" />
<rect fill="#b4ff62" fill-opacity="0.501961" x="882" y="217" width="42" height="37" />
<rect fill="#7e538b" fill-opacity="0.501961" x="414" y="317" width="50" height="48" />
<rect fill="#1b001d" fill-opacity="0.501961" x="0" y="0" width="225" height="63" />
<rect fill="#915f91" fill-opacity="0.501961" x="1001" y="540" width="49" height="40" />
<rect fill="#c995cb" fill-opacity="0.501961" x="197" y="167" width="23" height="39" />
<rect fill="#13152a" fill-opacity="0.501961" x="244" y="278" width="124" height="180" />
<rect fill="#1b1a37" fill-opacity="0.501961" x="794" y="89" width="86" height="182" />
<rect fill="#000000" fill-opacity="0.501961" x="895" y="587" width="305" height="43" />
<rect fill="#13113c" fill-opacity="0.501961" x="653" y="381" width="67" height="67" />
<rect fill="#480066" fill-opacity="0.501961" x="614" y="154" width="42" height="172" />
<rect fill="#a9e85f" fill-opacity="0.501961" x="603" y="78" width="45" height="78" />
<rect fill="#a772a5" fill-opacity="0.501961" x="270" y="73" width="53" height="25" />
<rect fill="#b78ab6" fill-opacity="0.501961" x="223" y="132" width="64" height="36" />
<rect fill="#8642a1" fill-opacity="0.501961" x="477" y="376" width="39" height="35" />
<rect fill="#000208" fill-opacity="0.501961" x="285" y="114" width="27" height="32" />
<rect fill="#84419d" fill-opacity="0.501961" x="376" y="283" width="38" height="36" />
<rect fill="#0d0c2d" fill-opacity="0.501961" x="182" y="202" width="90" height="196" />
<rect fill="#510051" fill-opacity="0.501961" x="110" y="37" width="101" height="142" />
<rect fill="#8e44a7" fill-opacity="0.501961" x="515" y="410" width="34" height="32" />
<rect fill="#09000a" fill-opacity="0.501961" x="0" y="572" width="119" height="58" />
<rect fill="#000138" fill-opacity="0.501961" x="712" y="433" width="40" height="31" />
<rect fill="#a1de5b" fill-opacity="0.501961" x="909" y="268" width="72" height="53" />
<rect fill="#000032" fill-opacity="0.501961" x="881" y="310" width="33" height="37" />
<rect fill="#9245aa" fill-opacity="0.501961" x="346" y="255" width="32" height="30" />
<rect fill="#070036" fill-opacity="0.501961" x="824" y="268" width="72" height="27" />
<rect fill="#814e90" fill-opacity="0.501961" x="278" y="172" width="38" height="53" />
<rect fill="#d15beb" fill-opacity="0.501961" x="461" y="360" width="20" height="19" />
<rect fill="#37195b" fill-opacity="0.501961" x="560" y="451" width="91" height="84" />
<rect fill="#1c1c37" fill-opacity="0.501961" x="685" y="109" width="190" height="140" />
<rect fill="#80b247" fill-opacity="0.501961" x="605" y="25" width="100" height="68" />
<rect fill="#480048" fill-opacity="0.501961" x="194" y="0" width="120" height="80" />
<rect fill="#000031" fill-opacity="0.501961" x="838" y="440" width="17" height="36" />
<rect fill="#900098" fill-opacity="0.501961" x="645" y="295" width="17" height="70" />
<rect fill="#490047" fill-opacity="0.501961" x="1163" y="401" width="37" height="152" />
<rect fill="#b1ff2e" fill-opacity="0.501961" x="707" y="302" width="62" height="67" />
<rect fill="#521061" fill-opacity="0.501961" x="0" y="475" width="56" height="107" />
<rect fill="#03041e" fill-opacity="0.501961" x="304" y="490" width="303" height="140" />
<rect fill="#680c8f" fill-opacity="0.501961" x="73" y="440" width="40" height="28" />
<rect fill="#07072c" fill-opacity="0.501961" x="504" y="72" width="96" height="81" />
<rect fill="#000014" fill-opacity="0.501961" x="1134" y="330" width="66" height="62" />
<rect fill="#7ca844" fill-opacity="0.501961" x="1113" y="209" width="45" height="59" />
<rect fill="#a048b7" fill-opacity="0.501961" x="321" y="232" width="25" height="25" />
<rect fill="#b14fc8" fill-opacity="0.501961" x="546" y="437" width="23" height="22" />
<rect fill="#486820" fill-opacity="0.501961" x="107" y="554" width="139" height="76" />
<rect fill="#1c1e36" fill-opacity="0.501961" x="642" y="144" width="95" height="119" />
<rect fill="#91c74e" fill-opacity="0.501961" x="503" y="42" width="40" height="29" />
<rect fill="#beff69" fill-opacity="0.501961" x="655" y="465" width="14" height="21" />
<rect fill="#d4ff76" fill-opacity="0.501961" x="616" y="340" width="11" height="31" />
<rect fill="#70973f" fill-opacity="0.501961" x="206" y="547" width="112" height="34" />
<rect fill="#9e4db1" fill-opacity="0.501961" x="586" y="475" width="24" height="24" />
<rect fill="#a8e65d" fill-opacity="0.501961" x="648" y="87" width="30" height="46" />
<rect fill="#9ff32a" fill-opacity="0.501961" x="744" y="322" width="102" height="125" />
<rect fill="#a4e158" fill-opacity="0.501961" x="201" y="397" width="23" height="30" />
<rect fill="#1b1739" fill-opacity="0.501961" x="849" y="334" width="80" height="26" />
<rect fill="#000715" fill-opacity="0.501961" x="230" y="176" width="29" height="30" />
<rect fill="#030016" fill-opacity="0.501961" x="71" y="106" width="34" height="81" />
<rect fill="#77963c" fill-opacity="0.501961" x="0" y="159" width="34" height="40" />
<rect fill="#131435" fill-opacity="0.501961" x="556" y="388" width="73" height="55" />
<rect fill="#000017" fill-opacity="0.501961" x="924" y="516" width="55" height="114" />
<rect fill="#090817" fill-opacity="0.501961" x="262" y="597" width="452" height="33" />
<rect fill="#19162f" fill-opacity="0.501961" x="935" y="93" width="108" height="138" />
<rect fill="#ba7db5" fill-opacity="0.501961" x="409" y="308" width="21" height="24" />
</g>
</svg>