<svg xmlns="http://www.w3.org/2000/svg" version="1.1" width="1200" height="630">
<rect x="0" y="0" width="1200" height="630" fill="#383a3e" />
<g transform="scale(1.000000) translate(0.5 0.5)">
<g transform="translate(706.200673 414.077678) rotate(-11.595843) scale(261.717014 125.377624)"><ellipse fill="#fffde2" fill-opacity="0.501961" cx="0" cy="0" rx="1" ry="1" /></g>
<g transform="translate(302.517482 239.445661) rotate(411.353481) scale(126.225436 130.528131)"><ellipse fill="#75c8ff" fill-opacity="0.501961" cx="0" cy="0" rx="1" ry="1" /></g>
<polygon fill="#fffacc" fill-opacity="0.501961" points="405,387 617,518 640,324" />
<ellipse fill="#bf9a67" fill-opacity="0.501961" cx="113" cy="450" rx="103" ry="103" />
<ellipse fill="#d1a370" fill-opacity="0.501961" cx="610" cy="527" rx="89" ry="89" />
<g transform="translate(697 224) rotate(48) scale(122 21)"><rect fill="#ffffee" fill-opacity="0.501961" x="-0.5" y="-0.5" width="1" height="1" /></g>
<ellipse fill="#000000" fill-opacity="0.501961" cx="832" cy="629" rx="141" ry="141" />
<g transform="translate(529.660786 349.733530) rotate(93.208616) scale(59.496989 19.822423)"><ellipse fill="#fffff2" fill-opacity="0.501961" cx="0" cy="0" rx="1" ry="1" /></g>
<rect fill="#000000" fill-opacity="0.501961" x="426" y="0" width="270" height="336" />
<ellipse fill="#000000" fill-opacity="0.501961" cx="1095" cy="136" rx="194" ry="542" />
<g transform="translate(339.231995 510.875349) rotate(381.829128) scale(137.000887 137.589709)"><ellipse fill="#000000" fill-opacity="0.501961" cx="0" cy="0" rx="1" ry="1" /></g>
<g transform="translate(641.270306 248.101558) rotate(301.583757) scale(86.114816 18.761225)"><ellipse fill="#dec3a8" fill-opacity="0.501961" cx="0" cy="0" rx="1" ry="1" /></g>
<rect fill="#000000" fill-opacity="0.501961" x="734" y="449" width="42" height="71" />
<ellipse fill="#000000" fill-opacity="0.501961" cx="791" cy="72" rx="457" ry="123" />
<polygon fill="#ffeec9" fill-opacity="0.501961" points="872,375 728,326 886,563" />
<ellipse fill="#7aa7cf" fill-opacity="0.501961" cx="925" cy="385" rx="63" ry="63" />
<g transform="translate(691.574285 345.498821) rotate(365.930862) scale(54.636699 24.558944)"><ellipse fill="#000849" fill-opacity="0.501961" cx="0" cy="0" rx="1" ry="1" /></g>
<polygon fill="#ffffd6" fill-opacity="0.501961" points="478,478 556,337 527,270" />
<polygon fill="#699fcf" fill-opacity="0.501961" points="388,388 453,135 145,322" />
<polygon fill="#fffedc" fill-opacity="0.501961" points="405.342726,426.412560,156.208862,552.538788,382.974157,453.752260,526.014164,382.060598" />
<g transform="translate(832.343899 235.063773) rotate(155.335632) scale(203.781554 5.680221)"><ellipse fill="#fffff6" fill-opacity="0.501961" cx="0" cy="0" rx="1" ry="1" /></g>
<g transform="translate(764.608598 98.101226) rotate(66.215285) scale(90.246811 4.972313)"><ellipse fill="#ffffe6" fill-opacity="0.501961" cx="0" cy="0" rx="1" ry="1" /></g>
<ellipse fill="#0068cc" fill-opacity="0.501961" cx="790" cy="308" rx="48" ry="39" />
<g transform="translate(646.901147 263.539265) rotate(10.185424) scale(6.656470 101.252856)"><ellipse fill="#ffffda" fill-opacity="0.501961" cx="0" cy="0" rx="1" ry="1" /></g>
<g transform="translate(198.073490 98.014076) rotate(-106.243396) scale(59.754883 147.814972)"><ellipse fill="#427297" fill-opacity="0.501961" cx="0" cy="0" rx="1" ry="1" /></g>
<g transform="translate(504.020136 545.616163) rotate(136.694466) scale(23.565280 56.251987)"><ellipse fill="#d8b283" fill-opacity="0.501961" cx="0" cy="0" rx="1" ry="1" /></g>
<g transform="translate(213.588392 362.406087) rotate(104.775495) scale(19.390707 213.963863)"><ellipse fill="#000000" fill-opacity="0.501961" cx="0" cy="0" rx="1" ry="1" /></g>
<polygon fill="#ffd8aa" fill-opacity="0.501961" points="880.301024,465.860353,970.018360,471.435932,979.306330,471.871718,864.904959,391.457310" />
<g transform="translate(820.624583 223.702646) rotate(155.245599) scale(5.570392 84.242669)"><ellipse fill="#ffffe3" fill-opacity="0.501961" cx="0" cy="0" rx="1" ry="1" /></g>
<g transform="translate(703.059788 234.906622) rotate(235.587894) scale(73.398504 9.164917)"><ellipse fill="#fff7d5" fill-opacity="0.501961" cx="0" cy="0" rx="1" ry="1" /></g>
<polygon fill="#ffe3c0" fill-opacity="0.501961" points="767,540 870,439 767,497" />
<ellipse fill="#0051a7" fill-opacity="0.501961" cx="890" cy="325" rx="32" ry="38" />
<g transform="translate(727.242500 331.228866) rotate(364.325824) scale(36.380913 55.321180)"><ellipse fill="#368acf" fill-opacity="0.501961" cx="0" cy="0" rx="1" ry="1" /></g>
<ellipse fill="#000007" fill-opacity="0.501961" cx="325" cy="618" rx="126" ry="126" />
<g transform="translate(40.341320 267.282692) rotate(269.548235) scale(24.899756 129.945894)"><ellipse fill="#000000" fill-opacity="0.501961" cx="0" cy="0" rx="1" ry="1" /></g>
<ellipse fill="#000000" fill-opacity="0.501961" cx="763" cy="215" rx="45" ry="41" />
<g transform="translate(1034.854494 139.752066) rotate(336.010086) scale(116.502233 6.558836)"><ellipse fill="#d5baa0" fill-opacity="0.501961" cx="0" cy="0" rx="1" ry="1" /></g>
<g transform="translate(623.783402 288.925870) rotate(204.160601) scale(8.092389 53.886579)"><ellipse fill="#000000" fill-opacity="0.501961" cx="0" cy="0" rx="1" ry="1" /></g>
<g transform="translate(342.378960 17.510417) rotate(100.799151) scale(19.525187 68.437625)"><ellipse fill="#5b85a2" fill-opacity="0.501961" cx="0" cy="0" rx="1" ry="1" /></g>
<g transform="translate(450.731551 544.846235) rotate(308.680571) scale(123.742976 7.211922)"><ellipse fill="#e6c7aa" fill-opacity="0.501961" cx="0" cy="0" rx="1" ry="1" /></g>
<ellipse fill="#a98a60" fill-opacity="0.501961" cx="0" cy="364" rx="94" ry="38" />
<ellipse fill="#caaa80" fill-opacity="0.501961" cx="189" cy="409" rx="43" ry="32" />
<g transform="translate(202.933775 550.176871) rotate(168.556385) scale(48.132011 35.160527)"><ellipse fill="#4a697e" fill-opacity="0.501961" cx="0" cy="0" rx="1" ry="1" /></g>
<ellipse fill="#f3c59f" fill-opacity="0.501961" cx="687" cy="432" rx="223" ry="20" />
<g transform="translate(441 344) rotate(306) scale(13 99)"><rect fill="#85dfff" fill-opacity="0.501961" x="-0.5" y="-0.5" width="1" height="1" /></g>
<g transform="translate(550.178906 609.287352) rotate(106.367005) scale(15.787990 94.394537)"><ellipse fill="#000000" fill-opacity="0.501961" cx="0" cy="0" rx="1" ry="1" /></g>
<g transform="translate(908.414084 262.250181) rotate(103.214535) scale(34.015946 69.033184)"><ellipse fill="#000000" fill-opacity="0.501961" cx="0" cy="0" rx="1" ry="1" /></g>
<ellipse fill="#004290" fill-opacity="0.501961" cx="739" cy="392" rx="27" ry="27" />
<g transform="translate(1116.601415 414.560019) rotate(95.327850) scale(312.895011 134.340404)"><ellipse fill="#000000" fill-opacity="0.501961" cx="0" cy="0" rx="1" ry="1" /></g>
<g transform="translate(910.765140 371.865554) rotate(331.578683) scale(46.906334 13.357550)"><ellipse fill="#ffe2a7" fill-opacity="0.501961" cx="0" cy="0" rx="1" ry="1" /></g>
<polygon fill="#000000" fill-opacity="0.501961" points="889.410695,645.000000,880.103137,462.367508,924.680065,473.317518,1000.435799,642.504695" />
<ellipse fill="#ffe3bf" fill-opacity="0.501961" cx="843" cy="360" rx="21" ry="58" />
<ellipse fill="#000000" fill-opacity="0.501961" cx="757" cy="473" rx="23" ry="23" />
<g transform="translate(467.170382 572.817790) rotate(193.340724) scale(27.317042 39.053535)"><ellipse fill="#000000" fill-opacity="0.501961" cx="0" cy="0" rx="1" ry="1" /></g>
<g transform="translate(667.072025 344.935474) rotate(288.344192) scale(16.918239 31.019797)"><ellipse fill="#000000" fill-opacity="0.501961" cx="0" cy="0" rx="1" ry="1" /></g>
<rect fill="#ffd6af" fill-opacity="0.501961" x="435" y="379" width="278" height="33" />
<g transform="translate(677.686830 610.977644) rotate(133.573787) scale(117.779114 20.503578)"><ellipse fill="#000000" fill-opacity="0.501961" cx="0" cy="0" rx="1" ry="1" /></g>
<ellipse fill="#000000" fill-opacity="0.501961" cx="453" cy="465" rx="15" ry="47" />
<g transform="translate(100.484490 19.335452) rotate(350.283735) scale(159.243529 69.550477)"><ellipse fill="#092337" fill-opacity="0.501961" cx="0" cy="0" rx="1" ry="1" /></g>
<g transform="translate(615.203814 274.766084) rotate(117.774693) scale(105.803413 6.115672)"><ellipse fill="#ffefbc" fill-opacity="0.501961" cx="0" cy="0" rx="1" ry="1" /></g>
<polygon fill="#ffffe3" fill-opacity="0.501961" points="680.061625,313.989542,588.367295,349.154486,631.053397,322.166728,710.023127,290.732793" />
<ellipse fill="#659dca" fill-opacity="0.501961" cx="413" cy="168" rx="32" ry="29" />
<rect fill="#000009" fill-opacity="0.501961" x="473" y="123" width="32" height="250" />
<polygon fill="#5784a8" fill-opacity="0.501961" points="158,327 168,230 395,386" />
<polygon fill="#000002" fill-opacity="0.501961" points="726.720009,280.472954,651.723113,310.370380,664.354805,203.196699,670.285445,204.159566" />
<polygon fill="#859cad" fill-opacity="0.501961" points="104.311628,288.426896,127.568364,140.857489,121.712392,300.638839,-16.000000,302.579439" />
<g transform="translate(444.902819 261.066438) rotate(295.543370) scale(59.340380 22.025939)"><ellipse fill="#000000" fill-opacity="0.501961" cx="0" cy="0" rx="1" ry="1" /></g>
<polygon fill="#ffd8bb" fill-opacity="0.501961" points="526,290 466,533 612,424" />
<g transform="translate(951.793810 517.823641) rotate(67.199828) scale(96.693755 4.628708)"><ellipse fill="#debe9b" fill-opacity="0.501961" cx="0" cy="0" rx="1" ry="1" /></g>
<g transform="translate(690.203206 515.478124) rotate(304.221620) scale(61.689799 41.906531)"><ellipse fill="#b28f64" fill-opacity="0.501961" cx="0" cy="0" rx="1" ry="1" /></g>
<g transform="translate(837 583) rotate(139) scale(103 157)"><rect fill="#000000" fill-opacity="0.501961" x="-0.5" y="-0.5" width="1" height="1" /></g>
<ellipse fill="#513f27" fill-opacity="0.501961" cx="36" cy="593" rx="133" ry="133" />
<g transform="translate(251.912120 596.903583) rotate(231.535547) scale(34.245056 275.504724)"><ellipse fill="#000004" fill-opacity="0.501961" cx="0" cy="0" rx="1" ry="1" /></g>
<ellipse fill="#000000" fill-opacity="0.501961" cx="850" cy="78" rx="82" ry="82" />
<polygon fill="#dfcfba" fill-opacity="0.501961" points="121,230 130,249 190,238" />
<ellipse fill="#000000" fill-opacity="0.501961" cx="137" cy="289" rx="20" ry="44" />
<polygon fill="#6794b3" fill-opacity="0.501961" points="395.544740,645.000000,518.486236,645.000000,500.458183,590.596872,469.936927,609.113368" />
<polygon fill="#120000" fill-opacity="0.501961" points="285,56 327,120 265,99" />
<g transform="translate(36.793864 205.123637) rotate(13.324730) scale(63.051458 34.608763)"><ellipse fill="#145487" fill-opacity="0.501961" cx="0" cy="0" rx="1" ry="1" /></g>
<polygon fill="#000000" fill-opacity="0.501961" points="782,454 731,453 754,549" />
<ellipse fill="#0e5693" fill-opacity="0.501961" cx="938" cy="411" rx="36" ry="25" />
<g transform="translate(853.570309 188.232893) rotate(324.778481) scale(39.992813 26.821694)"><ellipse fill="#000000" fill-opacity="0.501961" cx="0" cy="0" rx="1" ry="1" /></g>
<ellipse fill="#000000" fill-opacity="0.501961" cx="430" cy="369" rx="37" ry="12" />
<ellipse fill="#00000e" fill-opacity="0.501961" cx="549" cy="200" rx="88" ry="88" />
<polygon fill="#668599" fill-opacity="0.501961" points="334,35 335,127 247,2" />
<ellipse fill="#4682b6" fill-opacity="0.501961" cx="792" cy="290" rx="84" ry="19" />
<g transform="translate(762.144970 353.402298) rotate(228.580529) scale(45.982981 10.373047)"><ellipse fill="#ffe8bb" fill-opacity="0.501961" cx="0" cy="0" rx="1" ry="1" /></g>
<ellipse fill="#000000" fill-opacity="0.501961" cx="268" cy="432" rx="44" ry="44" />
<polygon fill="#e8c6a8" fill-opacity="0.501961" points="758.825311,535.549457,756.546384,549.738000,827.905726,482.373370,797.342671,413.309034" />
<rect fill="#ffe5ba" fill-opacity="0.501961" x="585" y="363" width="91" height="19" />
<ellipse fill="#000006" fill-opacity="0.501961" cx="728" cy="169" rx="51" ry="51" />
<ellipse fill="#000000" fill-opacity="0.501961" cx="730" cy="626" rx="67" ry="67" />
<ellipse fill="#000008" fill-opacity="0.501961" cx="972" cy="253" rx="71" ry="71" />
<g transform="translate(356.344393 91.666341) rotate(287.035971) scale(35.082970 17.966832)"><ellipse fill="#000000" fill-opacity="0.501961" cx="0" cy="0" rx="1" ry="1" /></g>
<g transform="translate(68.481339 478.793524) rotate(132.588286) scale(62.301006 149.203756)"><ellipse fill="#71604a" fill-opacity="0.501961" cx="0" cy="0" rx="1" ry="1" /></g>
<polygon fill="#000007" fill-opacity="0.501961" points="586.122958,347.369052,601.111839,313.181685,644.752369,232.163350,631.495407,314.607771" />
<g transform="translate(100.497841 327.736709) rotate(283.734127) scale(35.193396 4.033080)"><ellipse fill="#6fa4cc" fill-opacity="0.501961" cx="0" cy="0" rx="1" ry="1" /></g>
<g transform="translate(590.792642 549.020795) rotate(97.468293) scale(40.918704 106.215224)"><ellipse fill="#9e8869" fill-opacity="0.501961" cx="0" cy="0" rx="1" ry="1" /></g>
<g transform="translate(403.468756 436.973001) rotate(155.225061) scale(102.471555 4.971106)"><ellipse fill="#ffd6b9" fill-opacity="0.501961" cx="0" cy="0" rx="1" ry="1" /></g>
<g transform="translate(659.352617 435.518711) rotate(133.419122) scale(71.318721 47.456755)"><ellipse fill="#c3a174" fill-opacity="0.501961" cx="0" cy="0" rx="1" ry="1" /></g>
</g>
</svg>