<svg xmlns="http://www.w3.org/2000/svg" version="1.1" width="1200" height="630">
<rect x="0" y="0" width="1200" height="630" fill="#544939" />
<g transform="scale(1.000000) translate(0.5 0.5)">
<ellipse fill="#fff18e" fill-opacity="0.501961" cx="922" cy="412" rx="204" ry="204" />
<ellipse fill="#ffd638" fill-opacity="0.501961" cx="196" cy="220" rx="107" ry="107" />
<ellipse fill="#d5c89d" fill-opacity="0.501961" cx="691" cy="564" rx="152" ry="152" />
<ellipse fill="#000023" fill-opacity="0.501961" cx="784" cy="121" rx="165" ry="165" />
<ellipse fill="#000013" fill-opacity="0.501961" cx="218" cy="619" rx="306" ry="306" />
<ellipse fill="#ffea54" fill-opacity="0.501961" cx="535" cy="125" rx="82" ry="82" />
<ellipse fill="#ffee68" fill-opacity="0.501961" cx="291" cy="278" rx="63" ry="63" />
<ellipse fill="#000026" fill-opacity="0.501961" cx="555" cy="453" rx="79" ry="79" />
<ellipse fill="#fffec4" fill-opacity="0.501961" cx="880" cy="359" rx="83" ry="83" />
<ellipse fill="#0e0702" fill-opacity="0.501961" cx="1096" cy="629" rx="149" ry="149" />
<ellipse fill="#fff1b9" fill-opacity="0.501961" cx="719" cy="475" rx="72" ry="72" />
<ellipse fill="#000028" fill-opacity="0.501961" cx="782" cy="287" rx="44" ry="44" />
<ellipse fill="#000003" fill-opacity="0.501961" cx="1165" cy="31" rx="233" ry="233" />
<ellipse fill="#ffc942" fill-opacity="0.501961" cx="994" cy="218" rx="52" ry="52" />
<ellipse fill="#b17800" fill-opacity="0.501961" cx="84" cy="180" rx="134" ry="134" />
<ellipse fill="#000015" fill-opacity="0.501961" cx="308" cy="0" rx="156" ry="156" />
<ellipse fill="#ffff63" fill-opacity="0.501961" cx="356" cy="312" rx="29" ry="29" />
<ellipse fill="#875400" fill-opacity="0.501961" cx="883" cy="610" rx="100" ry="100" />
<ellipse fill="#ffff7e" fill-opacity="0.501961" cx="605" cy="202" rx="24" ry="24" />
<ellipse fill="#000000" fill-opacity="0.501961" cx="71" cy="0" rx="93" ry="93" />
<ellipse fill="#fff457" fill-opacity="0.501961" cx="634" cy="104" rx="23" ry="23" />
<ellipse fill="#ffffe4" fill-opacity="0.501961" cx="644" cy="417" rx="23" ry="23" />
<ellipse fill="#d0b264" fill-opacity="0.501961" cx="1137" cy="363" rx="43" ry="43" />
<ellipse fill="#ad9358" fill-opacity="0.501961" cx="1067" cy="511" rx="63" ry="63" />
<ellipse fill="#ffcd67" fill-opacity="0.501961" cx="923" cy="264" rx="52" ry="52" />
<ellipse fill="#000030" fill-opacity="0.501961" cx="397" cy="213" rx="73" ry="73" />
<ellipse fill="#eebe70" fill-opacity="0.501961" cx="255" cy="257" rx="71" ry="71" />
<ellipse fill="#00001e" fill-opacity="0.501961" cx="1145" cy="249" rx="70" ry="70" />
<ellipse fill="#00001c" fill-opacity="0.501961" cx="112" cy="472" rx="166" ry="166" />
<ellipse fill="#000008" fill-opacity="0.501961" cx="659" cy="552" rx="24" ry="24" />
<ellipse fill="#000005" fill-opacity="0.501961" cx="1199" cy="469" rx="58" ry="58" />
<ellipse fill="#ffff67" fill-opacity="0.501961" cx="497" cy="210" rx="21" ry="21" />
<ellipse fill="#00083e" fill-opacity="0.501961" cx="525" cy="340" rx="119" ry="119" />
<ellipse fill="#ffdc58" fill-opacity="0.501961" cx="430" cy="128" rx="25" ry="25" />
<ellipse fill="#00003c" fill-opacity="0.501961" cx="696" cy="342" rx="44" ry="44" />
<ellipse fill="#000019" fill-opacity="0.501961" cx="636" cy="38" rx="49" ry="49" />
<ellipse fill="#dbdac6" fill-opacity="0.501961" cx="1051" cy="268" rx="29" ry="29" />
<ellipse fill="#000023" fill-opacity="0.501961" cx="613" cy="461" rx="37" ry="37" />
<ellipse fill="#f0ce8d" fill-opacity="0.501961" cx="874" cy="394" rx="101" ry="101" />
<ellipse fill="#ffffde" fill-opacity="0.501961" cx="742" cy="393" rx="26" ry="26" />
<ellipse fill="#000033" fill-opacity="0.501961" cx="551" cy="210" rx="24" ry="24" />
<ellipse fill="#ffffdb" fill-opacity="0.501961" cx="622" cy="398" rx="13" ry="13" />
<ellipse fill="#00002c" fill-opacity="0.501961" cx="309" cy="161" rx="36" ry="36" />
<ellipse fill="#00000d" fill-opacity="0.501961" cx="621" cy="549" rx="17" ry="17" />
<ellipse fill="#fff45d" fill-opacity="0.501961" cx="488" cy="235" rx="15" ry="15" />
<ellipse fill="#febd50" fill-opacity="0.501961" cx="527" cy="137" rx="54" ry="54" />
<ellipse fill="#000010" fill-opacity="0.501961" cx="520" cy="16" rx="33" ry="33" />
<ellipse fill="#000000" fill-opacity="0.501961" cx="742" cy="575" rx="17" ry="17" />
<ellipse fill="#ffe1a2" fill-opacity="0.501961" cx="632" cy="219" rx="19" ry="19" />
<ellipse fill="#00002d" fill-opacity="0.501961" cx="466" cy="170" rx="19" ry="19" />
<ellipse fill="#ffcc50" fill-opacity="0.501961" cx="335" cy="300" rx="36" ry="36" />
<ellipse fill="#f0faec" fill-opacity="0.501961" cx="848" cy="342" rx="46" ry="46" />
<ellipse fill="#b8bea9" fill-opacity="0.501961" cx="566" cy="593" rx="40" ry="40" />
<ellipse fill="#00002a" fill-opacity="0.501961" cx="787" cy="327" rx="19" ry="19" />
<ellipse fill="#030836" fill-opacity="0.501961" cx="633" cy="157" rx="33" ry="33" />
<ellipse fill="#000026" fill-opacity="0.501961" cx="437" cy="81" rx="33" ry="33" />
<ellipse fill="#070b36" fill-opacity="0.501961" cx="802" cy="263" rx="43" ry="43" />
<ellipse fill="#ffffd4" fill-opacity="0.501961" cx="670" cy="247" rx="13" ry="13" />
<ellipse fill="#ffffd3" fill-opacity="0.501961" cx="728" cy="305" rx="13" ry="13" />
<ellipse fill="#e3b750" fill-opacity="0.501961" cx="1024" cy="191" rx="25" ry="25" />
<ellipse fill="#e1ae3a" fill-opacity="0.501961" cx="483" cy="50" rx="24" ry="24" />
<ellipse fill="#ffff63" fill-opacity="0.501961" cx="383" cy="327" rx="15" ry="15" />
<ellipse fill="#000008" fill-opacity="0.501961" cx="1181" cy="575" rx="74" ry="74" />
<ellipse fill="#00001d" fill-opacity="0.501961" cx="960" cy="40" rx="137" ry="137" />
<ellipse fill="#a3884e" fill-opacity="0.501961" cx="1113" cy="435" rx="43" ry="43" />
<ellipse fill="#00023a" fill-opacity="0.501961" cx="642" cy="279" rx="36" ry="36" />
<ellipse fill="#00000d" fill-opacity="0.501961" cx="1045" cy="612" rx="48" ry="48" />
<ellipse fill="#d4b467" fill-opacity="0.501961" cx="394" cy="124" rx="19" ry="19" />
<ellipse fill="#fffed4" fill-opacity="0.501961" cx="688" cy="266" rx="13" ry="13" />
<ellipse fill="#e0ae38" fill-opacity="0.501961" cx="568" cy="36" rx="23" ry="23" />
<ellipse fill="#00002f" fill-opacity="0.501961" cx="690" cy="398" rx="21" ry="21" />
<ellipse fill="#ffeeb1" fill-opacity="0.501961" cx="645" cy="511" rx="24" ry="24" />
<ellipse fill="#fffff0" fill-opacity="0.501961" cx="873" cy="276" rx="21" ry="21" />
<ellipse fill="#ffffdf" fill-opacity="0.501961" cx="710" cy="286" rx="12" ry="12" />
<ellipse fill="#ffdb58" fill-opacity="0.501961" cx="584" cy="181" rx="25" ry="25" />
<ellipse fill="#d7b264" fill-opacity="0.501961" cx="977" cy="351" rx="95" ry="95" />
<ellipse fill="#fffcb8" fill-opacity="0.501961" cx="666" cy="435" rx="27" ry="27" />
<ellipse fill="#bc9d5c" fill-opacity="0.501961" cx="243" cy="130" rx="23" ry="23" />
<ellipse fill="#ffe554" fill-opacity="0.501961" cx="662" cy="100" rx="12" ry="12" />
<ellipse fill="#00000c" fill-opacity="0.501961" cx="1199" cy="395" rx="33" ry="33" />
<ellipse fill="#000013" fill-opacity="0.501961" cx="1160" cy="75" rx="129" ry="129" />
<ellipse fill="#c9cabb" fill-opacity="0.501961" cx="221" cy="268" rx="31" ry="31" />
<ellipse fill="#080d3c" fill-opacity="0.501961" cx="285" cy="359" rx="33" ry="33" />
<ellipse fill="#d09922" fill-opacity="0.501961" cx="827" cy="505" rx="35" ry="35" />
<ellipse fill="#ffffec" fill-opacity="0.501961" cx="655" cy="233" rx="10" ry="10" />
<ellipse fill="#000631" fill-opacity="0.501961" cx="860" cy="214" rx="34" ry="34" />
<ellipse fill="#a37b24" fill-opacity="0.501961" cx="978" cy="551" rx="41" ry="41" />
<ellipse fill="#b77a00" fill-opacity="0.501961" cx="772" cy="578" rx="23" ry="23" />
<ellipse fill="#000015" fill-opacity="0.501961" cx="238" cy="49" rx="63" ry="63" />
<ellipse fill="#e5c87d" fill-opacity="0.501961" cx="360" cy="117" rx="12" ry="12" />
<ellipse fill="#c0911b" fill-opacity="0.501961" cx="79" cy="274" rx="41" ry="41" />
<ellipse fill="#0a1039" fill-opacity="0.501961" cx="665" cy="372" rx="34" ry="34" />
<ellipse fill="#00000c" fill-opacity="0.501961" cx="596" cy="544" rx="12" ry="12" />
<ellipse fill="#000016" fill-opacity="0.501961" cx="25" cy="343" rx="34" ry="34" />
<ellipse fill="#dec279" fill-opacity="0.501961" cx="332" cy="117" rx="12" ry="12" />
<ellipse fill="#000014" fill-opacity="0.501961" cx="1186" cy="301" rx="33" ry="33" />
<ellipse fill="#050a2b" fill-opacity="0.501961" cx="566" cy="489" rx="37" ry="37" />
<ellipse fill="#474241" fill-opacity="0.501961" cx="288" cy="133" rx="35" ry="35" />
<ellipse fill="#664e0b" fill-opacity="0.501961" cx="54" cy="99" rx="58" ry="58" />
<ellipse fill="#d1a43b" fill-opacity="0.501961" cx="951" cy="225" rx="33" ry="33" />
</g>
</svg>