<svg xmlns="http://www.w3.org/2000/svg" version="1.1" width="1200" height="630">
<rect x="0" y="0" width="1200" height="630" fill="#564741" />
<g transform="scale(1.000000) translate(0.5 0.5)">
<g transform="translate(873 398) rotate(230) scale(388 265)"><rect fill="#f9d1ff" fill-opacity="0.501961" x="-0.5" y="-0.5" width="1" height="1" /></g>
<g transform="translate(532 173) rotate(135) scale(311 321)"><rect fill="#ffff5a" fill-opacity="0.501961" x="-0.5" y="-0.5" width="1" height="1" /></g>
<g transform="translate(414 610) rotate(210) scale(661 558)"><rect fill="#000000" fill-opacity="0.501961" x="-0.5" y="-0.5" width="1" height="1" /></g>
<g transform="translate(900 77) rotate(464) scale(249 393)"><rect fill="#000000" fill-opacity="0.501961" x="-0.5" y="-0.5" width="1" height="1" /></g>
<g transform="translate(114 352) rotate(180) scale(172 220)"><rect fill="#fab500" fill-opacity="0.501961" x="-0.5" y="-0.5" width="1" height="1" /></g>
<g transform="translate(89 102) rotate(-91) scale(259 262)"><rect fill="#000000" fill-opacity="0.501961" x="-0.5" y="-0.5" width="1" height="1" /></g>
<g transform="translate(1165 337) rotate(181) scale(171 371)"><rect fill="#b2a3df" fill-opacity="0.501961" x="-0.5" y="-0.5" width="1" height="1" /></g>
<g transform="translate(495 182) rotate(400) scale(395 158)"><rect fill="#ffd794" fill-opacity="0.501961" x="-0.5" y="-0.5" width="1" height="1" /></g>
<g transform="translate(1036 327) rotate(359) scale(89 147)"><rect fill="#000000" fill-opacity="0.501961" x="-0.5" y="-0.5" width="1" height="1" /></g>
<g transform="translate(207 568) rotate(67) scale(236 462)"><rect fill="#000000" fill-opacity="0.501961" x="-0.5" y="-0.5" width="1" height="1" /></g>
<g transform="translate(829 353) rotate(274) scale(239 247)"><rect fill="#cea8ff" fill-opacity="0.501961" x="-0.5" y="-0.5" width="1" height="1" /></g>
<g transform="translate(858 0) rotate(207) scale(552 274)"><rect fill="#000000" fill-opacity="0.501961" x="-0.5" y="-0.5" width="1" height="1" /></g>
<g transform="translate(607 380) rotate(165) scale(157 90)"><rect fill="#000000" fill-opacity="0.501961" x="-0.5" y="-0.5" width="1" height="1" /></g>
<g transform="translate(270 217) rotate(310) scale(188 96)"><rect fill="#00000f" fill-opacity="0.501961" x="-0.5" y="-0.5" width="1" height="1" /></g>
<g transform="translate(528 285) rotate(1) scale(232 99)"><rect fill="#ffbf00" fill-opacity="0.501961" x="-0.5" y="-0.5" width="1" height="1" /></g>
<g transform="translate(587 83) rotate(133) scale(130 266)"><rect fill="#d17e00" fill-opacity="0.501961" x="-0.5" y="-0.5" width="1" height="1" /></g>
<g transform="translate(1174 58) rotate(226) scale(245 115)"><rect fill="#000000" fill-opacity="0.501961" x="-0.5" y="-0.5" width="1" height="1" /></g>
<g transform="translate(294 84) rotate(90) scale(127 136)"><rect fill="#754fd0" fill-opacity="0.501961" x="-0.5" y="-0.5" width="1" height="1" /></g>
<g transform="translate(983 538) rotate(251) scale(118 264)"><rect fill="#8a7e53" fill-opacity="0.501961" x="-0.5" y="-0.5" width="1" height="1" /></g>
<g transform="translate(727 213) rotate(191) scale(36 75)"><rect fill="#000000" fill-opacity="0.501961" x="-0.5" y="-0.5" width="1" height="1" /></g>
<g transform="translate(700 498) rotate(233) scale(217 79)"><rect fill="#000000" fill-opacity="0.501961" x="-0.5" y="-0.5" width="1" height="1" /></g>
<g transform="translate(377 349) rotate(337) scale(11 117)"><rect fill="#febbff" fill-opacity="0.501961" x="-0.5" y="-0.5" width="1" height="1" /></g>
<g transform="translate(471 189) rotate(269) scale(88 218)"><rect fill="#f9edd0" fill-opacity="0.501961" x="-0.5" y="-0.5" width="1" height="1" /></g>
<g transform="translate(1101 117) rotate(269) scale(95 42)"><rect fill="#a393c0" fill-opacity="0.501961" x="-0.5" y="-0.5" width="1" height="1" /></g>
<g transform="translate(277 236) rotate(271) scale(11 163)"><rect fill="#ffd2ff" fill-opacity="0.501961" x="-0.5" y="-0.5" width="1" height="1" /></g>
<g transform="translate(413 442) rotate(338) scale(9 193)"><rect fill="#e7aaff" fill-opacity="0.501961" x="-0.5" y="-0.5" width="1" height="1" /></g>
<g transform="translate(675 323) rotate(284) scale(94 24)"><rect fill="#000000" fill-opacity="0.501961" x="-0.5" y="-0.5" width="1" height="1" /></g>
<g transform="translate(659 261) rotate(122) scale(117 48)"><rect fill="#ffc400" fill-opacity="0.501961" x="-0.5" y="-0.5" width="1" height="1" /></g>
<g transform="translate(828 581) rotate(335) scale(121 34)"><rect fill="#c1aa60" fill-opacity="0.501961" x="-0.5" y="-0.5" width="1" height="1" /></g>
<g transform="translate(92 114) rotate(386) scale(243 191)"><rect fill="#000000" fill-opacity="0.501961" x="-0.5" y="-0.5" width="1" height="1" /></g>
<g transform="translate(45 247) rotate(150) scale(112 62)"><rect fill="#bd8a05" fill-opacity="0.501961" x="-0.5" y="-0.5" width="1" height="1" /></g>
<g transform="translate(899 222) rotate(103) scale(30 87)"><rect fill="#e0c2fb" fill-opacity="0.501961" x="-0.5" y="-0.5" width="1" height="1" /></g>
<g transform="translate(521 0) rotate(84) scale(34 176)"><rect fill="#000000" fill-opacity="0.501961" x="-0.5" y="-0.5" width="1" height="1" /></g>
<g transform="translate(99 465) rotate(61) scale(56 126)"><rect fill="#b78609" fill-opacity="0.501961" x="-0.5" y="-0.5" width="1" height="1" /></g>
<g transform="translate(463 363) rotate(115) scale(56 155)"><rect fill="#000009" fill-opacity="0.501961" x="-0.5" y="-0.5" width="1" height="1" /></g>
<g transform="translate(743 605) rotate(158) scale(155 10)"><rect fill="#c3aee8" fill-opacity="0.501961" x="-0.5" y="-0.5" width="1" height="1" /></g>
<g transform="translate(830 623) rotate(168) scale(104 34)"><rect fill="#000000" fill-opacity="0.501961" x="-0.5" y="-0.5" width="1" height="1" /></g>
<g transform="translate(1102 519) rotate(-31) scale(241 112)"><rect fill="#695f8c" fill-opacity="0.501961" x="-0.5" y="-0.5" width="1" height="1" /></g>
<g transform="translate(760 473) rotate(212) scale(73 30)"><rect fill="#d2acff" fill-opacity="0.501961" x="-0.5" y="-0.5" width="1" height="1" /></g>
<g transform="translate(25 393) rotate(53) scale(205 130)"><rect fill="#956d06" fill-opacity="0.501961" x="-0.5" y="-0.5" width="1" height="1" /></g>
<g transform="translate(637 342) rotate(144) scale(111 35)"><rect fill="#000003" fill-opacity="0.501961" x="-0.5" y="-0.5" width="1" height="1" /></g>
<g transform="translate(965 292) rotate(332) scale(22 85)"><rect fill="#d4aeff" fill-opacity="0.501961" x="-0.5" y="-0.5" width="1" height="1" /></g>
<g transform="translate(120 609) rotate(294) scale(128 341)"><rect fill="#000000" fill-opacity="0.501961" x="-0.5" y="-0.5" width="1" height="1" /></g>
<g transform="translate(787 183) rotate(195) scale(155 9)"><rect fill="#ffffc9" fill-opacity="0.501961" x="-0.5" y="-0.5" width="1" height="1" /></g>
<g transform="translate(416 273) rotate(323) scale(31 93)"><rect fill="#ffd424" fill-opacity="0.501961" x="-0.5" y="-0.5" width="1" height="1" /></g>
<g transform="translate(666 170) rotate(-3) scale(83 113)"><rect fill="#ffbe1e" fill-opacity="0.501961" x="-0.5" y="-0.5" width="1" height="1" /></g>
<g transform="translate(717 345) rotate(279) scale(134 51)"><rect fill="#dfb7ff" fill-opacity="0.501961" x="-0.5" y="-0.5" width="1" height="1" /></g>
<g transform="translate(572 537) rotate(188) scale(247 232)"><rect fill="#000007" fill-opacity="0.501961" x="-0.5" y="-0.5" width="1" height="1" /></g>
<g transform="translate(729 233) rotate(42) scale(21 120)"><rect fill="#000000" fill-opacity="0.501961" x="-0.5" y="-0.5" width="1" height="1" /></g>
<g transform="translate(1167 71) rotate(136) scale(89 217)"><rect fill="#000000" fill-opacity="0.501961" x="-0.5" y="-0.5" width="1" height="1" /></g>
<g transform="translate(462 565) rotate(67) scale(88 10)"><rect fill="#cb96ff" fill-opacity="0.501961" x="-0.5" y="-0.5" width="1" height="1" /></g>
<g transform="translate(1027 376) rotate(103) scale(48 61)"><rect fill="#000000" fill-opacity="0.501961" x="-0.5" y="-0.5" width="1" height="1" /></g>
<g transform="translate(758 241) rotate(236) scale(23 82)"><rect fill="#eac0ff" fill-opacity="0.501961" x="-0.5" y="-0.5" width="1" height="1" /></g>
<g transform="translate(713 110) rotate(157) scale(26 108)"><rect fill="#000002" fill-opacity="0.501961" x="-0.5" y="-0.5" width="1" height="1" /></g>
<g transform="translate(1009 240) rotate(15) scale(188 9)"><rect fill="#fffebb" fill-opacity="0.501961" x="-0.5" y="-0.5" width="1" height="1" /></g>
<g transform="translate(278 349) rotate(179) scale(150 216)"><rect fill="#000006" fill-opacity="0.501961" x="-0.5" y="-0.5" width="1" height="1" /></g>
<g transform="translate(296 176) rotate(152) scale(64 84)"><rect fill="#000000" fill-opacity="0.501961" x="-0.5" y="-0.5" width="1" height="1" /></g>
<g transform="translate(485 329) rotate(289) scale(21 88)"><rect fill="#ffdc2c" fill-opacity="0.501961" x="-0.5" y="-0.5" width="1" height="1" /></g>
<g transform="translate(820 159) rotate(285) scale(48 215)"><rect fill="#000002" fill-opacity="0.501961" x="-0.5" y="-0.5" width="1" height="1" /></g>
<g transform="translate(989 420) rotate(142) scale(40 15)"><rect fill="#000000" fill-opacity="0.501961" x="-0.5" y="-0.5" width="1" height="1" /></g>
<g transform="translate(233 151) rotate(55) scale(27 63)"><rect fill="#a276e2" fill-opacity="0.501961" x="-0.5" y="-0.5" width="1" height="1" /></g>
<g transform="translate(982 265) rotate(-41) scale(27 77)"><rect fill="#000000" fill-opacity="0.501961" x="-0.5" y="-0.5" width="1" height="1" /></g>
<g transform="translate(166 374) rotate(270) scale(141 65)"><rect fill="#d9a327" fill-opacity="0.501961" x="-0.5" y="-0.5" width="1" height="1" /></g>
<g transform="translate(344 190) rotate(338) scale(10 108)"><rect fill="#ffd33d" fill-opacity="0.501961" x="-0.5" y="-0.5" width="1" height="1" /></g>
<g transform="translate(206 39) rotate(37) scale(97 31)"><rect fill="#6c4f95" fill-opacity="0.501961" x="-0.5" y="-0.5" width="1" height="1" /></g>
<g transform="translate(811 529) rotate(225) scale(63 25)"><rect fill="#000000" fill-opacity="0.501961" x="-0.5" y="-0.5" width="1" height="1" /></g>
<g transform="translate(919 552) rotate(234) scale(100 140)"><rect fill="#988434" fill-opacity="0.501961" x="-0.5" y="-0.5" width="1" height="1" /></g>
<g transform="translate(1025 323) rotate(258) scale(128 70)"><rect fill="#000001" fill-opacity="0.501961" x="-0.5" y="-0.5" width="1" height="1" /></g>
<g transform="translate(1077 426) rotate(-14) scale(118 59)"><rect fill="#9e90ba" fill-opacity="0.501961" x="-0.5" y="-0.5" width="1" height="1" /></g>
<g transform="translate(648 386) rotate(-25) scale(60 125)"><rect fill="#00000e" fill-opacity="0.501961" x="-0.5" y="-0.5" width="1" height="1" /></g>
<g transform="translate(237 190) rotate(149) scale(112 39)"><rect fill="#000000" fill-opacity="0.501961" x="-0.5" y="-0.5" width="1" height="1" /></g>
<g transform="translate(399 307) rotate(227) scale(158 35)"><rect fill="#00000b" fill-opacity="0.501961" x="-0.5" y="-0.5" width="1" height="1" /></g>
<g transform="translate(740 199) rotate(191) scale(57 41)"><rect fill="#000005" fill-opacity="0.501961" x="-0.5" y="-0.5" width="1" height="1" /></g>
<g transform="translate(715 423) rotate(241) scale(71 28)"><rect fill="#d8b2ff" fill-opacity="0.501961" x="-0.5" y="-0.5" width="1" height="1" /></g>
<g transform="translate(707 46) rotate(-45) scale(74 255)"><rect fill="#000005" fill-opacity="0.501961" x="-0.5" y="-0.5" width="1" height="1" /></g>
<g transform="translate(940 615) rotate(334) scale(26 40)"><rect fill="#000000" fill-opacity="0.501961" x="-0.5" y="-0.5" width="1" height="1" /></g>
<g transform="translate(536 366) rotate(-2) scale(134 32)"><rect fill="#00000f" fill-opacity="0.501961" x="-0.5" y="-0.5" width="1" height="1" /></g>
<g transform="translate(431 73) rotate(224) scale(122 76)"><rect fill="#9c9b89" fill-opacity="0.501961" x="-0.5" y="-0.5" width="1" height="1" /></g>
<g transform="translate(1182 629) rotate(61) scale(110 205)"><rect fill="#141733" fill-opacity="0.501961" x="-0.5" y="-0.5" width="1" height="1" /></g>
<g transform="translate(811 245) rotate(254) scale(74 100)"><rect fill="#c7a4fd" fill-opacity="0.501961" x="-0.5" y="-0.5" width="1" height="1" /></g>
<g transform="translate(576 38) rotate(201) scale(169 54)"><rect fill="#9b7314" fill-opacity="0.501961" x="-0.5" y="-0.5" width="1" height="1" /></g>
<g transform="translate(563 338) rotate(-8) scale(69 20)"><rect fill="#ffcc0d" fill-opacity="0.501961" x="-0.5" y="-0.5" width="1" height="1" /></g>
<g transform="translate(1133 148) rotate(46) scale(95 68)"><rect fill="#776c8c" fill-opacity="0.501961" x="-0.5" y="-0.5" width="1" height="1" /></g>
<g transform="translate(1114 296) rotate(179) scale(66 193)"><rect fill="#a693b6" fill-opacity="0.501961" x="-0.5" y="-0.5" width="1" height="1" /></g>
<g transform="translate(1061 190) rotate(-2) scale(35 114)"><rect fill="#000001" fill-opacity="0.501961" x="-0.5" y="-0.5" width="1" height="1" /></g>
<g transform="translate(775 334) rotate(314) scale(121 143)"><rect fill="#cea9fe" fill-opacity="0.501961" x="-0.5" y="-0.5" width="1" height="1" /></g>
<g transform="translate(1039 512) rotate(44) scale(63 146)"><rect fill="#8b7baa" fill-opacity="0.501961" x="-0.5" y="-0.5" width="1" height="1" /></g>
<g transform="translate(433 409) rotate(243) scale(106 43)"><rect fill="#000007" fill-opacity="0.501961" x="-0.5" y="-0.5" width="1" height="1" /></g>
<g transform="translate(177 243) rotate(140) scale(40 13)"><rect fill="#8c78ff" fill-opacity="0.501961" x="-0.5" y="-0.5" width="1" height="1" /></g>
<g transform="translate(789 201) rotate(173) scale(65 14)"><rect fill="#000000" fill-opacity="0.501961" x="-0.5" y="-0.5" width="1" height="1" /></g>
<g transform="translate(702 565) rotate(341) scale(181 89)"><rect fill="#000009" fill-opacity="0.501961" x="-0.5" y="-0.5" width="1" height="1" /></g>
<g transform="translate(598 212) rotate(44) scale(65 34)"><rect fill="#fff9cd" fill-opacity="0.501961" x="-0.5" y="-0.5" width="1" height="1" /></g>
<g transform="translate(1134 559) rotate(-46) scale(297 75)"><rect fill="#4d4659" fill-opacity="0.501961" x="-0.5" y="-0.5" width="1" height="1" /></g>
<g transform="translate(436 133) rotate(94) scale(81 153)"><rect fill="#c8bc9e" fill-opacity="0.501961" x="-0.5" y="-0.5" width="1" height="1" /></g>
<g transform="translate(85 176) rotate(165) scale(254 46)"><rect fill="#000005" fill-opacity="0.501961" x="-0.5" y="-0.5" width="1" height="1" /></g>
<g transform="translate(84 239) rotate(298) scale(43 83)"><rect fill="#b7881a" fill-opacity="0.501961" x="-0.5" y="-0.5" width="1" height="1" /></g>
<g transform="translate(622 169) rotate(315) scale(59 174)"><rect fill="#f4b220" fill-opacity="0.501961" x="-0.5" y="-0.5" width="1" height="1" /></g>
<g transform="translate(990 247) rotate(16) scale(133 10)"><rect fill="#000000" fill-opacity="0.501961" x="-0.5" y="-0.5" width="1" height="1" /></g>
<g transform="translate(968 381) rotate(13) scale(39 102)"><rect fill="#a788e7" fill-opacity="0.501961" x="-0.5" y="-0.5" width="1" height="1" /></g>
<g transform="translate(1188 70) rotate(41) scale(128 118)"><rect fill="#000000" fill-opacity="0.501961" x="-0.5" y="-0.5" width="1" height="1" /></g>
</g>
</svg>