<svg xmlns="http://www.w3.org/2000/svg" version="1.1" width="1200" height="630">
<rect x="0" y="0" width="1200" height="630" fill="#3e636b" />
<g transform="scale(1.000000) translate(0.5 0.5)">
<ellipse fill="#ffffff" fill-opacity="0.501961" cx="301" cy="318" rx="154" ry="195" />
<ellipse fill="#a3ffff" fill-opacity="0.501961" cx="647" cy="459" rx="154" ry="241" />
<ellipse fill="#000000" fill-opacity="0.501961" cx="1048" cy="499" rx="236" ry="169" />
<ellipse fill="#000000" fill-opacity="0.501961" cx="395" cy="51" rx="277" ry="105" />
<ellipse fill="#00ddf9" fill-opacity="0.501961" cx="814" cy="210" rx="156" ry="151" />
<ellipse fill="#000000" fill-opacity="0.501961" cx="454" cy="475" rx="34" ry="138" />
<ellipse fill="#000000" fill-opacity="0.501961" cx="1102" cy="26" rx="225" ry="99" />
<ellipse fill="#000000" fill-opacity="0.501961" cx="538" cy="105" rx="131" ry="164" />
<ellipse fill="#000000" fill-opacity="0.501961" cx="62" cy="322" rx="86" ry="81" />
<ellipse fill="#000000" fill-opacity="0.501961" cx="935" cy="423" rx="158" ry="91" />
<ellipse fill="#000000" fill-opacity="0.501961" cx="622" cy="360" rx="98" ry="19" />
<ellipse fill="#f3d4ce" fill-opacity="0.501961" cx="728" cy="30" rx="53" ry="138" />
<ellipse fill="#afe1e4" fill-opacity="0.501961" cx="382" cy="529" rx="51" ry="91" />
<ellipse fill="#fffcff" fill-opacity="0.501961" cx="584" cy="466" rx="89" ry="81" />
<ellipse fill="#24bacb" fill-opacity="0.501961" cx="1069" cy="261" rx="117" ry="108" />
<ellipse fill="#ffffff" fill-opacity="0.501961" cx="506" cy="380" rx="29" ry="57" />
<ellipse fill="#dff4f5" fill-opacity="0.501961" cx="316" cy="151" rx="73" ry="30" />
<ellipse fill="#000000" fill-opacity="0.501961" cx="149" cy="444" rx="30" ry="61" />
<ellipse fill="#ffffff" fill-opacity="0.501961" cx="420" cy="284" rx="32" ry="101" />
<ellipse fill="#000000" fill-opacity="0.501961" cx="495" cy="240" rx="44" ry="89" />
<ellipse fill="#000000" fill-opacity="0.501961" cx="171" cy="152" rx="36" ry="50" />
<ellipse fill="#bcb1ad" fill-opacity="0.501961" cx="65" cy="190" rx="55" ry="57" />
<ellipse fill="#00aaca" fill-opacity="0.501961" cx="745" cy="386" rx="45" ry="112" />
<ellipse fill="#80cfd9" fill-opacity="0.501961" cx="805" cy="535" rx="32" ry="67" />
<ellipse fill="#000000" fill-opacity="0.501961" cx="1061" cy="553" rx="229" ry="189" />
<ellipse fill="#d5f3f6" fill-opacity="0.501961" cx="333" cy="293" rx="116" ry="166" />
<ellipse fill="#000000" fill-opacity="0.501961" cx="447" cy="429" rx="41" ry="50" />
<ellipse fill="#000000" fill-opacity="0.501961" cx="297" cy="26" rx="195" ry="96" />
<ellipse fill="#000000" fill-opacity="0.501961" cx="133" cy="229" rx="23" ry="55" />
<ellipse fill="#83b3b7" fill-opacity="0.501961" cx="273" cy="499" rx="101" ry="108" />
<ellipse fill="#000000" fill-opacity="0.501961" cx="663" cy="133" rx="39" ry="34" />
<ellipse fill="#000000" fill-opacity="0.501961" cx="112" cy="327" rx="32" ry="97" />
<ellipse fill="#c8b5b5" fill-opacity="0.501961" cx="649" cy="545" rx="136" ry="71" />
<ellipse fill="#38e5ff" fill-opacity="0.501961" cx="649" cy="278" rx="73" ry="70" />
<ellipse fill="#a19894" fill-opacity="0.501961" cx="115" cy="105" rx="36" ry="60" />
<ellipse fill="#000000" fill-opacity="0.501961" cx="597" cy="363" rx="57" ry="20" />
<ellipse fill="#000000" fill-opacity="0.501961" cx="1076" cy="40" rx="173" ry="68" />
<ellipse fill="#150a07" fill-opacity="0.501961" cx="50" cy="616" rx="135" ry="45" />
<ellipse fill="#000000" fill-opacity="0.501961" cx="936" cy="331" rx="34" ry="29" />
<ellipse fill="#000000" fill-opacity="0.501961" cx="814" cy="416" rx="46" ry="28" />
<ellipse fill="#000000" fill-opacity="0.501961" cx="1189" cy="363" rx="49" ry="37" />
<ellipse fill="#000000" fill-opacity="0.501961" cx="841" cy="620" rx="41" ry="26" />
<ellipse fill="#000000" fill-opacity="0.501961" cx="538" cy="347" rx="28" ry="9" />
<ellipse fill="#060000" fill-opacity="0.501961" cx="174" cy="20" rx="479" ry="36" />
<ellipse fill="#07cee9" fill-opacity="0.501961" cx="680" cy="400" rx="88" ry="29" />
<ellipse fill="#000000" fill-opacity="0.501961" cx="47" cy="337" rx="95" ry="61" />
<ellipse fill="#00c0da" fill-opacity="0.501961" cx="785" cy="342" rx="69" ry="42" />
<ellipse fill="#7f9898" fill-opacity="0.501961" cx="76" cy="471" rx="50" ry="70" />
<ellipse fill="#b3c0c0" fill-opacity="0.501961" cx="675" cy="30" rx="20" ry="49" />
<ellipse fill="#000000" fill-opacity="0.501961" cx="1199" cy="56" rx="128" ry="78" />
<ellipse fill="#007d8f" fill-opacity="0.501961" cx="851" cy="108" rx="81" ry="87" />
<ellipse fill="#000000" fill-opacity="0.501961" cx="456" cy="585" rx="25" ry="276" />
<ellipse fill="#c8bdbb" fill-opacity="0.501961" cx="827" cy="581" rx="38" ry="15" />
<ellipse fill="#ffffff" fill-opacity="0.501961" cx="520" cy="392" rx="40" ry="32" />
<ellipse fill="#62d8e7" fill-opacity="0.501961" cx="689" cy="220" rx="60" ry="44" />
<ellipse fill="#000000" fill-opacity="0.501961" cx="576" cy="182" rx="55" ry="58" />
<ellipse fill="#000000" fill-opacity="0.501961" cx="191" cy="128" rx="45" ry="38" />
<ellipse fill="#777c7f" fill-opacity="0.501961" cx="656" cy="606" rx="151" ry="32" />
<ellipse fill="#28909c" fill-opacity="0.501961" cx="1062" cy="142" rx="56" ry="46" />
<ellipse fill="#bccbcb" fill-opacity="0.501961" cx="165" cy="313" rx="24" ry="83" />
<ellipse fill="#ffffff" fill-opacity="0.501961" cx="480" cy="346" rx="10" ry="22" />
<ellipse fill="#000000" fill-opacity="0.501961" cx="155" cy="448" rx="33" ry="32" />
<ellipse fill="#000000" fill-opacity="0.501961" cx="150" cy="187" rx="22" ry="49" />
<ellipse fill="#2fe8ff" fill-opacity="0.501961" cx="562" cy="317" rx="52" ry="26" />
<ellipse fill="#000000" fill-opacity="0.501961" cx="643" cy="131" rx="50" ry="48" />
<ellipse fill="#000000" fill-opacity="0.501961" cx="996" cy="91" rx="34" ry="41" />
<ellipse fill="#000000" fill-opacity="0.501961" cx="664" cy="357" rx="61" ry="11" />
<ellipse fill="#2eb9ca" fill-opacity="0.501961" cx="495" cy="560" rx="22" ry="35" />
<ellipse fill="#000000" fill-opacity="0.501961" cx="424" cy="429" rx="25" ry="21" />
<ellipse fill="#00a6bd" fill-opacity="0.501961" cx="872" cy="223" rx="136" ry="92" />
<ellipse fill="#000000" fill-opacity="0.501961" cx="508" cy="261" rx="55" ry="32" />
<ellipse fill="#000000" fill-opacity="0.501961" cx="488" cy="480" rx="12" ry="28" />
<ellipse fill="#000000" fill-opacity="0.501961" cx="132" cy="402" rx="21" ry="56" />
<ellipse fill="#46aebc" fill-opacity="0.501961" cx="1098" cy="352" rx="35" ry="24" />
<ellipse fill="#24aabd" fill-opacity="0.501961" cx="787" cy="494" rx="32" ry="41" />
<ellipse fill="#000000" fill-opacity="0.501961" cx="49" cy="276" rx="97" ry="25" />
<ellipse fill="#64605e" fill-opacity="0.501961" cx="81" cy="63" rx="48" ry="46" />
<ellipse fill="#000911" fill-opacity="0.501961" cx="457" cy="629" rx="49" ry="50" />
<ellipse fill="#000000" fill-opacity="0.501961" cx="914" cy="0" rx="50" ry="45" />
<ellipse fill="#006e7e" fill-opacity="0.501961" cx="829" cy="43" rx="47" ry="64" />
<ellipse fill="#9facae" fill-opacity="0.501961" cx="301" cy="158" rx="79" ry="29" />
<ellipse fill="#ced3d4" fill-opacity="0.501961" cx="742" cy="131" rx="24" ry="45" />
<ellipse fill="#cce1e4" fill-opacity="0.501961" cx="664" cy="497" rx="56" ry="39" />
<ellipse fill="#000000" fill-opacity="0.501961" cx="920" cy="351" rx="43" ry="30" />
<ellipse fill="#000000" fill-opacity="0.501961" cx="585" cy="365" rx="33" ry="22" />
<ellipse fill="#000000" fill-opacity="0.501961" cx="487" cy="295" rx="34" ry="28" />
<ellipse fill="#949a99" fill-opacity="0.501961" cx="20" cy="223" rx="71" ry="29" />
<ellipse fill="#000000" fill-opacity="0.501961" cx="851" cy="385" rx="39" ry="24" />
<ellipse fill="#f1ffff" fill-opacity="0.501961" cx="495" cy="364" rx="20" ry="27" />
<ellipse fill="#000000" fill-opacity="0.501961" cx="459" cy="159" rx="28" ry="74" />
<ellipse fill="#698384" fill-opacity="0.501961" cx="366" cy="592" rx="58" ry="39" />
<ellipse fill="#005b67" fill-opacity="0.501961" cx="747" cy="629" rx="58" ry="16" />
<ellipse fill="#216d76" fill-opacity="0.501961" cx="1150" cy="220" rx="62" ry="96" />
<ellipse fill="#a39e9d" fill-opacity="0.501961" cx="799" cy="575" rx="49" ry="25" />
<ellipse fill="#4fc6d5" fill-opacity="0.501961" cx="714" cy="178" rx="41" ry="33" />
<ellipse fill="#759395" fill-opacity="0.501961" cx="33" cy="428" rx="80" ry="32" />
<ellipse fill="#48b8c7" fill-opacity="0.501961" cx="1016" cy="313" rx="52" ry="34" />
<ellipse fill="#000000" fill-opacity="0.501961" cx="153" cy="629" rx="24" ry="36" />
<ellipse fill="#000000" fill-opacity="0.501961" cx="154" cy="494" rx="11" ry="36" />
<ellipse fill="#e2f2f5" fill-opacity="0.501961" cx="544" cy="426" rx="56" ry="47" />
</g>
</svg>