<svg xmlns="http://www.w3.org/2000/svg" version="1.1" width="1200" height="630">
<rect x="0" y="0" width="1200" height="630" fill="#1c2539" />
<g transform="scale(1.000000) translate(0.5 0.5)">
<polygon fill="#c2c9f8" fill-opacity="0.501961" points="400,420 324,180 41,304" />
<polygon fill="#929ce8" fill-opacity="0.501961" points="971,108 702,315 657,-16" />
<polygon fill="#3747b9" fill-opacity="0.501961" points="625,537 334,645 -16,362" />
<polygon fill="#a8abd6" fill-opacity="0.501961" points="777,471 656,618 839,645" />
<polygon fill="#000907" fill-opacity="0.501961" points="518,410 -16,8 693,-16" />
<polygon fill="#8592e0" fill-opacity="0.501961" points="723,259 926,226 602,87" />
<polygon fill="#000d11" fill-opacity="0.501961" points="1215,273 587,587 521,242" />
<polygon fill="#9aa1cf" fill-opacity="0.501961" points="218,392 96,199 436,330" />
<polygon fill="#000000" fill-opacity="0.501961" points="-6,-13 -12,323 435,-16" />
<polygon fill="#000000" fill-opacity="0.501961" points="1193,-16 1215,629 781,644" />
<polygon fill="#000000" fill-opacity="0.501961" points="871,268 972,-16 1215,3" />
<polygon fill="#000a12" fill-opacity="0.501961" points="217,421 530,336 594,529" />
<polygon fill="#000000" fill-opacity="0.501961" points="-16,391 -16,632 339,645" />
<polygon fill="#9ea2b8" fill-opacity="0.501961" points="353,37 365,156 311,269" />
<polygon fill="#000000" fill-opacity="0.501961" points="47,243 216,422 -16,358" />
<polygon fill="#5c659a" fill-opacity="0.501961" points="894,238 903,27 701,-16" />
<polygon fill="#a0a4d0" fill-opacity="0.501961" points="95,227 230,219 85,284" />
<polygon fill="#b48c26" fill-opacity="0.501961" points="557,195 493,92 678,255" />
<polygon fill="#071628" fill-opacity="0.501961" points="720,304 323,268 368,17" />
<polygon fill="#ffca1a" fill-opacity="0.501961" points="689,256 741,306 783,307" />
<polygon fill="#9aa3d4" fill-opacity="0.501961" points="297,397 407,346 151,348" />
<polygon fill="#051019" fill-opacity="0.501961" points="364,-16 311,252 -15,138" />
<polygon fill="#828dd6" fill-opacity="0.501961" points="633,140 667,47 687,207" />
<polygon fill="#2f3b97" fill-opacity="0.501961" points="557,633 588,513 380,638" />
<polygon fill="#c4a552" fill-opacity="0.501961" points="1013,188 1080,73 1065,137" />
<polygon fill="#c18d19" fill-opacity="0.501961" points="513,122 465,-8 468,59" />
<polygon fill="#7e8bd2" fill-opacity="0.501961" points="876,240 786,249 919,140" />
<polygon fill="#ffdd22" fill-opacity="0.501961" points="732,281 644,229 683,269" />
<polygon fill="#000710" fill-opacity="0.501961" points="572,174 753,291 646,159" />
<polygon fill="#0b1b2c" fill-opacity="0.501961" points="417,258 865,318 351,454" />
<polygon fill="#000000" fill-opacity="0.501961" points="1013,-10 853,-16 967,135" />
<polygon fill="#000306" fill-opacity="0.501961" points="1158,-16 1215,144 965,275" />
<polygon fill="#000000" fill-opacity="0.501961" points="657,645 548,609 705,531" />
<polygon fill="#a3acdf" fill-opacity="0.501961" points="338,391 401,355 314,244" />
<polygon fill="#010912" fill-opacity="0.501961" points="695,-16 466,-8 628,140" />
<polygon fill="#797fa5" fill-opacity="0.501961" points="687,555 785,488 839,645" />
<polygon fill="#c3c5dc" fill-opacity="0.501961" points="349,115 321,170 326,234" />
<polygon fill="#494f78" fill-opacity="0.501961" points="665,32 849,-16 949,110" />
<polygon fill="#00080e" fill-opacity="0.501961" points="164,368 214,422 384,407" />
<polygon fill="#000a10" fill-opacity="0.501961" points="752,388 834,630 1215,628" />
<polygon fill="#4355d0" fill-opacity="0.501961" points="959,253 981,204 965,306" />
<polygon fill="#3546a6" fill-opacity="0.501961" points="981,213 976,144 1007,83" />
<polygon fill="#b0934d" fill-opacity="0.501961" points="1082,70 1119,35 1069,117" />
<polygon fill="#00001f" fill-opacity="0.501961" points="655,247 774,313 715,305" />
<polygon fill="#000710" fill-opacity="0.501961" points="403,373 375,291 442,337" />
<polygon fill="#01111a" fill-opacity="0.501961" points="985,-15 963,260 861,274" />
<polygon fill="#929ac6" fill-opacity="0.501961" points="157,212 350,386 322,258" />
<polygon fill="#20295f" fill-opacity="0.501961" points="334,645 70,447 557,640" />
<polygon fill="#000406" fill-opacity="0.501961" points="313,634 -16,634 -16,387" />
<polygon fill="#b7b599" fill-opacity="0.501961" points="264,220 323,179 286,192" />
<polygon fill="#beba99" fill-opacity="0.501961" points="342,159 399,124 378,149" />
<polygon fill="#ffe228" fill-opacity="0.501961" points="576,179 629,218 596,207" />
<polygon fill="#a8b1e5" fill-opacity="0.501961" points="386,366 340,271 388,321" />
<polygon fill="#6973b0" fill-opacity="0.501961" points="879,240 640,99 880,121" />
<polygon fill="#081624" fill-opacity="0.501961" points="921,551 991,165 1168,311" />
<polygon fill="#36459b" fill-opacity="0.501961" points="585,530 135,403 394,558" />
<polygon fill="#01090e" fill-opacity="0.501961" points="1,257 -1,-16 221,195" />
<polygon fill="#0c1a28" fill-opacity="0.501961" points="457,113 362,461 1056,510" />
<polygon fill="#061425" fill-opacity="0.501961" points="640,15 629,218 525,127" />
<polygon fill="#000508" fill-opacity="0.501961" points="972,645 1214,319 1215,638" />
<polygon fill="#000a13" fill-opacity="0.501961" points="-16,314 198,381 99,304" />
<polygon fill="#7b81a6" fill-opacity="0.501961" points="157,211 286,395 138,338" />
<polygon fill="#252f72" fill-opacity="0.501961" points="-16,387 187,533 62,378" />
<polygon fill="#ffef23" fill-opacity="0.501961" points="649,239 609,212 635,220" />
<polygon fill="#000511" fill-opacity="0.501961" points="326,178 253,228 311,255" />
<polygon fill="#ffdb2a" fill-opacity="0.501961" points="587,195 571,169 542,156" />
<polygon fill="#d9b866" fill-opacity="0.501961" points="1013,182 1027,187 1045,138" />
<polygon fill="#565a74" fill-opacity="0.501961" points="826,628 658,631 810,558" />
<polygon fill="#091320" fill-opacity="0.501961" points="359,-16 229,234 329,171" />
<polygon fill="#00080c" fill-opacity="0.501961" points="1024,-16 982,223 1117,25" />
<polygon fill="#ffcc26" fill-opacity="0.501961" points="559,163 519,119 536,153" />
<polygon fill="#858db5" fill-opacity="0.501961" points="734,513 794,512 680,579" />
<polygon fill="#000712" fill-opacity="0.501961" points="389,135 325,262 341,169" />
<polygon fill="#ffc130" fill-opacity="0.501961" points="780,302 735,287 777,316" />
<polygon fill="#00030d" fill-opacity="0.501961" points="404,420 321,396 384,377" />
<polygon fill="#acadc8" fill-opacity="0.501961" points="361,58 342,133 341,91" />
<polygon fill="#d0d4f5" fill-opacity="0.501961" points="322,209 328,244 312,272" />
<polygon fill="#84856d" fill-opacity="0.501961" points="27,313 -8,299 66,304" />
<polygon fill="#000005" fill-opacity="0.501961" points="343,160 360,72 366,145" />
<polygon fill="#acaca4" fill-opacity="0.501961" points="273,210 227,253 166,265" />
<polygon fill="#020a14" fill-opacity="0.501961" points="489,92 320,41 450,-16" />
<polygon fill="#2b3886" fill-opacity="0.501961" points="1012,72 1008,18 987,121" />
<polygon fill="#06141d" fill-opacity="0.501961" points="790,311 786,251 704,264" />
<polygon fill="#05101a" fill-opacity="0.501961" points="732,496 569,507 647,645" />
<polygon fill="#787d9e" fill-opacity="0.501961" points="79,259 202,373 157,215" />
<polygon fill="#000c13" fill-opacity="0.501961" points="93,298 33,303 70,212" />
<polygon fill="#4858d0" fill-opacity="0.501961" points="953,306 963,267 965,307" />
<polygon fill="#f0b023" fill-opacity="0.501961" points="490,79 505,117 537,141" />
<polygon fill="#48507a" fill-opacity="0.501961" points="932,84 664,59 693,-16" />
<polygon fill="#0c1927" fill-opacity="0.501961" points="637,256 320,263 496,107" />
<polygon fill="#d0ccb0" fill-opacity="0.501961" points="304,187 358,152 336,178" />
<polygon fill="#72789c" fill-opacity="0.501961" points="243,227 81,305 161,215" />
<polygon fill="#7582c5" fill-opacity="0.501961" points="830,243 679,195 726,258" />
<polygon fill="#040e16" fill-opacity="0.501961" points="1215,470 1199,-16 967,645" />
<polygon fill="#091522" fill-opacity="0.501961" points="987,125 833,279 949,334" />
<polygon fill="#6c592a" fill-opacity="0.501961" points="1127,29 1140,-16 1090,63" />
<polygon fill="#00040a" fill-opacity="0.501961" points="252,387 212,392 171,360" />
<polygon fill="#0c1a28" fill-opacity="0.501961" points="324,261 344,164 540,429" />
<polygon fill="#ffcb29" fill-opacity="0.501961" points="689,258 657,249 633,222" />
<polygon fill="#030d14" fill-opacity="0.501961" points="676,618 585,528 556,645" />
</g>
</svg>