<svg xmlns="http://www.w3.org/2000/svg" version="1.1" width="1200" height="630">
<rect x="0" y="0" width="1200" height="630" fill="#294f40" />
<g transform="scale(1.000000) translate(0.5 0.5)">
<g transform="translate(661.809950 248.378051) rotate(183.786700) scale(204.617834 142.544928)"><ellipse fill="#caffc3" fill-opacity="0.501961" cx="0" cy="0" rx="1" ry="1" /></g>
<g transform="translate(1021.488596 253.270296) rotate(143.362515) scale(78.506584 218.223082)"><ellipse fill="#ffc83f" fill-opacity="0.501961" cx="0" cy="0" rx="1" ry="1" /></g>
<g transform="translate(724.428096 301.344889) rotate(78.788163) scale(87.734333 130.720905)"><ellipse fill="#ffd200" fill-opacity="0.501961" cx="0" cy="0" rx="1" ry="1" /></g>
<g transform="translate(558.390996 217.120605) rotate(296.750456) scale(130.399566 91.242776)"><ellipse fill="#00edff" fill-opacity="0.501961" cx="0" cy="0" rx="1" ry="1" /></g>
<g transform="translate(1083.038730 64.237980) rotate(-164.292071) scale(185.389353 93.009067)"><ellipse fill="#000000" fill-opacity="0.501961" cx="0" cy="0" rx="1" ry="1" /></g>
<g transform="translate(811.649674 450.906615) rotate(51.280538) scale(43.291428 137.051037)"><ellipse fill="#00deed" fill-opacity="0.501961" cx="0" cy="0" rx="1" ry="1" /></g>
<g transform="translate(795.085309 202.334051) rotate(313.889157) scale(147.052628 47.165503)"><ellipse fill="#ffda79" fill-opacity="0.501961" cx="0" cy="0" rx="1" ry="1" /></g>
<g transform="translate(555.168474 543.117851) rotate(360.322716) scale(160.821370 192.150062)"><ellipse fill="#000000" fill-opacity="0.501961" cx="0" cy="0" rx="1" ry="1" /></g>
<g transform="translate(1122.581503 239.673402) rotate(248.620594) scale(84.743391 55.524655)"><ellipse fill="#ec9a2f" fill-opacity="0.501961" cx="0" cy="0" rx="1" ry="1" /></g>
<g transform="translate(668.745323 169.169780) rotate(134.450041) scale(44.347920 83.253057)"><ellipse fill="#00cce7" fill-opacity="0.501961" cx="0" cy="0" rx="1" ry="1" /></g>
<g transform="translate(159.049444 92.359474) rotate(78.432936) scale(125.516413 558.838476)"><ellipse fill="#00000b" fill-opacity="0.501961" cx="0" cy="0" rx="1" ry="1" /></g>
<g transform="translate(108.353981 522.475709) rotate(301.818064) scale(68.016263 120.733016)"><ellipse fill="#cc8643" fill-opacity="0.501961" cx="0" cy="0" rx="1" ry="1" /></g>
<g transform="translate(624.375239 280.275187) rotate(269.253788) scale(51.794066 29.981774)"><ellipse fill="#ffb600" fill-opacity="0.501961" cx="0" cy="0" rx="1" ry="1" /></g>
<g transform="translate(289.089079 325.114654) rotate(354.938856) scale(128.176845 276.040624)"><ellipse fill="#008793" fill-opacity="0.501961" cx="0" cy="0" rx="1" ry="1" /></g>
<g transform="translate(994.995953 610.459698) rotate(-1.453583) scale(231.001307 135.275305)"><ellipse fill="#000000" fill-opacity="0.501961" cx="0" cy="0" rx="1" ry="1" /></g>
<g transform="translate(937.370540 335.849836) rotate(243.699121) scale(175.663944 43.342350)"><ellipse fill="#000000" fill-opacity="0.501961" cx="0" cy="0" rx="1" ry="1" /></g>
<g transform="translate(1048.863968 345.897191) rotate(153.797316) scale(42.059633 186.978221)"><ellipse fill="#eca741" fill-opacity="0.501961" cx="0" cy="0" rx="1" ry="1" /></g>
<g transform="translate(25.353192 332.978369) rotate(434.603282) scale(116.191216 62.342144)"><ellipse fill="#000000" fill-opacity="0.501961" cx="0" cy="0" rx="1" ry="1" /></g>
<g transform="translate(741.162324 63.632634) rotate(118.596214) scale(54.635889 106.212741)"><ellipse fill="#0098a5" fill-opacity="0.501961" cx="0" cy="0" rx="1" ry="1" /></g>
<g transform="translate(549.517756 334.358894) rotate(213.781222) scale(56.875917 31.856317)"><ellipse fill="#00ffff" fill-opacity="0.501961" cx="0" cy="0" rx="1" ry="1" /></g>
<g transform="translate(436.286087 275.741502) rotate(256.970355) scale(196.495627 28.667320)"><ellipse fill="#000000" fill-opacity="0.501961" cx="0" cy="0" rx="1" ry="1" /></g>
<g transform="translate(118.032692 69.195553) rotate(364.219256) scale(149.905657 91.172980)"><ellipse fill="#000000" fill-opacity="0.501961" cx="0" cy="0" rx="1" ry="1" /></g>
<g transform="translate(1045.080430 520.800070) rotate(118.147793) scale(61.980483 44.633492)"><ellipse fill="#008c92" fill-opacity="0.501961" cx="0" cy="0" rx="1" ry="1" /></g>
<g transform="translate(829.733716 261.074332) rotate(279.311533) scale(76.594944 32.536067)"><ellipse fill="#ffa80c" fill-opacity="0.501961" cx="0" cy="0" rx="1" ry="1" /></g>
<g transform="translate(799.125998 514.490215) rotate(36.185329) scale(22.277609 134.157591)"><ellipse fill="#009ca5" fill-opacity="0.501961" cx="0" cy="0" rx="1" ry="1" /></g>
<g transform="translate(716.267553 431.861161) rotate(115.355198) scale(22.033200 76.234980)"><ellipse fill="#29bda8" fill-opacity="0.501961" cx="0" cy="0" rx="1" ry="1" /></g>
<g transform="translate(695.047022 328.795019) rotate(199.118129) scale(103.928586 57.409725)"><ellipse fill="#ffb919" fill-opacity="0.501961" cx="0" cy="0" rx="1" ry="1" /></g>
<g transform="translate(472.867250 100.580652) rotate(26.733252) scale(36.717500 152.772061)"><ellipse fill="#000000" fill-opacity="0.501961" cx="0" cy="0" rx="1" ry="1" /></g>
<g transform="translate(263.249662 629.000000) rotate(156.758413) scale(25.919434 112.750747)"><ellipse fill="#000000" fill-opacity="0.501961" cx="0" cy="0" rx="1" ry="1" /></g>
<g transform="translate(890.788079 495.768308) rotate(212.324120) scale(38.642961 173.738072)"><ellipse fill="#020000" fill-opacity="0.501961" cx="0" cy="0" rx="1" ry="1" /></g>
<g transform="translate(546.721963 260.822578) rotate(-15.121359) scale(43.197882 119.060943)"><ellipse fill="#00d8e1" fill-opacity="0.501961" cx="0" cy="0" rx="1" ry="1" /></g>
<g transform="translate(881.072251 319.874422) rotate(222.172013) scale(36.399615 66.491989)"><ellipse fill="#000000" fill-opacity="0.501961" cx="0" cy="0" rx="1" ry="1" /></g>
<g transform="translate(149.811765 274.208890) rotate(173.992199) scale(85.063364 125.179580)"><ellipse fill="#00656b" fill-opacity="0.501961" cx="0" cy="0" rx="1" ry="1" /></g>
<g transform="translate(660.335249 91.673624) rotate(307.130150) scale(17.575321 57.235126)"><ellipse fill="#000000" fill-opacity="0.501961" cx="0" cy="0" rx="1" ry="1" /></g>
<g transform="translate(1168.554408 432.145541) rotate(284.692928) scale(110.754541 28.469955)"><ellipse fill="#005a6a" fill-opacity="0.501961" cx="0" cy="0" rx="1" ry="1" /></g>
<g transform="translate(939.062507 491.706367) rotate(122.917440) scale(6.357475 78.725930)"><ellipse fill="#ffd17f" fill-opacity="0.501961" cx="0" cy="0" rx="1" ry="1" /></g>
<g transform="translate(766.210935 173.676761) rotate(130.185178) scale(28.055711 79.636900)"><ellipse fill="#ffc96f" fill-opacity="0.501961" cx="0" cy="0" rx="1" ry="1" /></g>
<g transform="translate(1064.789242 184.166523) rotate(10.913277) scale(163.841069 32.295005)"><ellipse fill="#c18b36" fill-opacity="0.501961" cx="0" cy="0" rx="1" ry="1" /></g>
<g transform="translate(636.499185 170.916041) rotate(109.220690) scale(51.636497 101.179081)"><ellipse fill="#00c1c5" fill-opacity="0.501961" cx="0" cy="0" rx="1" ry="1" /></g>
<g transform="translate(904.773949 380.823440) rotate(56.912848) scale(13.706395 45.738793)"><ellipse fill="#00f4f7" fill-opacity="0.501961" cx="0" cy="0" rx="1" ry="1" /></g>
<g transform="translate(62.539722 616.724989) rotate(384.623702) scale(292.457945 77.077229)"><ellipse fill="#4e2911" fill-opacity="0.501961" cx="0" cy="0" rx="1" ry="1" /></g>
<g transform="translate(625.292087 395.860107) rotate(242.208353) scale(60.701094 19.630357)"><ellipse fill="#000000" fill-opacity="0.501961" cx="0" cy="0" rx="1" ry="1" /></g>
<g transform="translate(1015.425541 113.069930) rotate(3.628497) scale(50.379324 29.159036)"><ellipse fill="#000000" fill-opacity="0.501961" cx="0" cy="0" rx="1" ry="1" /></g>
<g transform="translate(725.655182 492.459768) rotate(281.836926) scale(78.452545 22.256941)"><ellipse fill="#009ea6" fill-opacity="0.501961" cx="0" cy="0" rx="1" ry="1" /></g>
<g transform="translate(466.302960 563.952214) rotate(281.846635) scale(218.931019 72.016120)"><ellipse fill="#000001" fill-opacity="0.501961" cx="0" cy="0" rx="1" ry="1" /></g>
<g transform="translate(855.574092 146.972480) rotate(267.477326) scale(33.542567 59.681053)"><ellipse fill="#f4b961" fill-opacity="0.501961" cx="0" cy="0" rx="1" ry="1" /></g>
<g transform="translate(821.575194 36.222505) rotate(358.423278) scale(83.728385 69.918005)"><ellipse fill="#007079" fill-opacity="0.501961" cx="0" cy="0" rx="1" ry="1" /></g>
<g transform="translate(1112.708670 45.066398) rotate(108.641094) scale(115.997742 228.083657)"><ellipse fill="#000000" fill-opacity="0.501961" cx="0" cy="0" rx="1" ry="1" /></g>
<g transform="translate(1128.631465 603.287847) rotate(234.632898) scale(56.379118 150.128386)"><ellipse fill="#000000" fill-opacity="0.501961" cx="0" cy="0" rx="1" ry="1" /></g>
<g transform="translate(498.210112 190.603560) rotate(113.983604) scale(76.523208 30.978880)"><ellipse fill="#00c5cb" fill-opacity="0.501961" cx="0" cy="0" rx="1" ry="1" /></g>
<g transform="translate(654.715503 260.512678) rotate(272.071406) scale(29.297875 56.683746)"><ellipse fill="#ffb713" fill-opacity="0.501961" cx="0" cy="0" rx="1" ry="1" /></g>
<g transform="translate(309.208399 61.866419) rotate(82.333217) scale(205.013553 62.550458)"><ellipse fill="#006261" fill-opacity="0.501961" cx="0" cy="0" rx="1" ry="1" /></g>
<g transform="translate(356.004640 473.433329) rotate(366.368593) scale(47.351417 261.161090)"><ellipse fill="#008082" fill-opacity="0.501961" cx="0" cy="0" rx="1" ry="1" /></g>
<g transform="translate(944.195287 225.792448) rotate(151.528112) scale(18.739601 134.614031)"><ellipse fill="#edb34c" fill-opacity="0.501961" cx="0" cy="0" rx="1" ry="1" /></g>
<g transform="translate(760.953243 261.782129) rotate(155.261478) scale(38.968264 50.923306)"><ellipse fill="#ffd8a5" fill-opacity="0.501961" cx="0" cy="0" rx="1" ry="1" /></g>
<g transform="translate(592.767188 57.843877) rotate(436.372918) scale(38.717145 63.551048)"><ellipse fill="#000000" fill-opacity="0.501961" cx="0" cy="0" rx="1" ry="1" /></g>
<g transform="translate(652.719545 396.805977) rotate(340.013757) scale(5.599635 39.609613)"><ellipse fill="#ffe079" fill-opacity="0.501961" cx="0" cy="0" rx="1" ry="1" /></g>
<g transform="translate(916.430484 571.071861) rotate(276.488840) scale(79.022378 66.619630)"><ellipse fill="#000000" fill-opacity="0.501961" cx="0" cy="0" rx="1" ry="1" /></g>
<g transform="translate(790.096702 395.038573) rotate(121.143296) scale(4.392175 26.339859)"><ellipse fill="#ffffa5" fill-opacity="0.501961" cx="0" cy="0" rx="1" ry="1" /></g>
<g transform="translate(992.086811 417.608898) rotate(158.099448) scale(42.097327 57.029135)"><ellipse fill="#000000" fill-opacity="0.501961" cx="0" cy="0" rx="1" ry="1" /></g>
<g transform="translate(1199.000000 270.363435) rotate(183.942638) scale(17.340458 69.859398)"><ellipse fill="#000000" fill-opacity="0.501961" cx="0" cy="0" rx="1" ry="1" /></g>
<g transform="translate(517.675855 302.794249) rotate(325.330980) scale(35.220820 73.096276)"><ellipse fill="#00dbdf" fill-opacity="0.501961" cx="0" cy="0" rx="1" ry="1" /></g>
<g transform="translate(857.628695 402.004058) rotate(358.555662) scale(46.028747 30.500592)"><ellipse fill="#00d9da" fill-opacity="0.501961" cx="0" cy="0" rx="1" ry="1" /></g>
<g transform="translate(612.623191 543.492713) rotate(279.832501) scale(130.922400 82.881365)"><ellipse fill="#000001" fill-opacity="0.501961" cx="0" cy="0" rx="1" ry="1" /></g>
<g transform="translate(693.469118 431.742459) rotate(66.228086) scale(43.947850 6.071697)"><ellipse fill="#ffcc2d" fill-opacity="0.501961" cx="0" cy="0" rx="1" ry="1" /></g>
<g transform="translate(34.102078 358.539532) rotate(147.313958) scale(46.927660 93.983122)"><ellipse fill="#000000" fill-opacity="0.501961" cx="0" cy="0" rx="1" ry="1" /></g>
<g transform="translate(12.149743 152.442254) rotate(5.968867) scale(57.881710 330.586743)"><ellipse fill="#000000" fill-opacity="0.501961" cx="0" cy="0" rx="1" ry="1" /></g>
<g transform="translate(24.456492 629.000000) rotate(294.129217) scale(34.724779 76.724813)"><ellipse fill="#000000" fill-opacity="0.501961" cx="0" cy="0" rx="1" ry="1" /></g>
<g transform="translate(768.216968 405.286350) rotate(285.156254) scale(12.700535 36.069636)"><ellipse fill="#000000" fill-opacity="0.501961" cx="0" cy="0" rx="1" ry="1" /></g>
<g transform="translate(463.746185 35.426124) rotate(81.869226) scale(46.135468 99.472519)"><ellipse fill="#000000" fill-opacity="0.501961" cx="0" cy="0" rx="1" ry="1" /></g>
<g transform="translate(700.084671 607.469077) rotate(396.075246) scale(21.243777 47.579736)"><ellipse fill="#000000" fill-opacity="0.501961" cx="0" cy="0" rx="1" ry="1" /></g>
<g transform="translate(134.704157 416.095330) rotate(413.594703) scale(80.008476 25.071493)"><ellipse fill="#005d69" fill-opacity="0.501961" cx="0" cy="0" rx="1" ry="1" /></g>
<g transform="translate(614.164071 205.129748) rotate(359.139707) scale(113.776019 28.378055)"><ellipse fill="#00d2d3" fill-opacity="0.501961" cx="0" cy="0" rx="1" ry="1" /></g>
<g transform="translate(1132.548257 340.969887) rotate(105.836777) scale(103.900424 31.165718)"><ellipse fill="#a87d34" fill-opacity="0.501961" cx="0" cy="0" rx="1" ry="1" /></g>
<g transform="translate(457.103502 322.154875) rotate(66.967780) scale(177.326313 23.564833)"><ellipse fill="#03000e" fill-opacity="0.501961" cx="0" cy="0" rx="1" ry="1" /></g>
<g transform="translate(932.760715 97.046838) rotate(140.299451) scale(18.090137 47.394176)"><ellipse fill="#bf9b6e" fill-opacity="0.501961" cx="0" cy="0" rx="1" ry="1" /></g>
<g transform="translate(756.281388 499.928838) rotate(1.760719) scale(51.559782 83.512274)"><ellipse fill="#00898b" fill-opacity="0.501961" cx="0" cy="0" rx="1" ry="1" /></g>
<g transform="translate(957.039085 461.331110) rotate(310.518722) scale(26.982334 72.012011)"><ellipse fill="#000001" fill-opacity="0.501961" cx="0" cy="0" rx="1" ry="1" /></g>
<g transform="translate(106.512630 469.589374) rotate(200.408030) scale(73.609947 21.947208)"><ellipse fill="#a9935b" fill-opacity="0.501961" cx="0" cy="0" rx="1" ry="1" /></g>
<g transform="translate(766.977579 629.000000) rotate(213.649416) scale(23.974568 133.026176)"><ellipse fill="#000000" fill-opacity="0.501961" cx="0" cy="0" rx="1" ry="1" /></g>
<g transform="translate(619.447221 122.040909) rotate(100.832054) scale(24.775097 69.723912)"><ellipse fill="#00acab" fill-opacity="0.501961" cx="0" cy="0" rx="1" ry="1" /></g>
<g transform="translate(70.274583 206.799180) rotate(180.003090) scale(24.968486 38.462136)"><ellipse fill="#006163" fill-opacity="0.501961" cx="0" cy="0" rx="1" ry="1" /></g>
<g transform="translate(1099.998017 496.729566) rotate(147.818286) scale(8.136356 48.074771)"><ellipse fill="#b18531" fill-opacity="0.501961" cx="0" cy="0" rx="1" ry="1" /></g>
<g transform="translate(869.917725 286.465949) rotate(14.030307) scale(13.472721 76.806278)"><ellipse fill="#000002" fill-opacity="0.501961" cx="0" cy="0" rx="1" ry="1" /></g>
<g transform="translate(926.816314 263.682196) rotate(241.964454) scale(96.489180 13.122815)"><ellipse fill="#000004" fill-opacity="0.501961" cx="0" cy="0" rx="1" ry="1" /></g>
<g transform="translate(799.965713 333.149415) rotate(315.647367) scale(72.751379 24.518974)"><ellipse fill="#ffb024" fill-opacity="0.501961" cx="0" cy="0" rx="1" ry="1" /></g>
<g transform="translate(811.606930 372.622410) rotate(241.314800) scale(13.122495 30.763946)"><ellipse fill="#000000" fill-opacity="0.501961" cx="0" cy="0" rx="1" ry="1" /></g>
<g transform="translate(181.393132 111.377280) rotate(184.262228) scale(78.288448 25.972084)"><ellipse fill="#040000" fill-opacity="0.501961" cx="0" cy="0" rx="1" ry="1" /></g>
<g transform="translate(418.526116 397.472680) rotate(-21.262316) scale(19.210442 38.764570)"><ellipse fill="#00868e" fill-opacity="0.501961" cx="0" cy="0" rx="1" ry="1" /></g>
<g transform="translate(188.222261 603.162734) rotate(384.346003) scale(33.565986 45.221417)"><ellipse fill="#82693e" fill-opacity="0.501961" cx="0" cy="0" rx="1" ry="1" /></g>
<g transform="translate(890.677873 130.190254) rotate(358.990996) scale(40.498416 48.054892)"><ellipse fill="#bc974d" fill-opacity="0.501961" cx="0" cy="0" rx="1" ry="1" /></g>
<g transform="translate(238.885283 494.532373) rotate(232.043189) scale(246.144980 35.960198)"><ellipse fill="#005e60" fill-opacity="0.501961" cx="0" cy="0" rx="1" ry="1" /></g>
<g transform="translate(373.363678 79.902908) rotate(18.066194) scale(52.050512 13.752598)"><ellipse fill="#006f71" fill-opacity="0.501961" cx="0" cy="0" rx="1" ry="1" /></g>
<g transform="translate(251.149378 612.055826) rotate(160.883000) scale(24.989283 56.390621)"><ellipse fill="#000000" fill-opacity="0.501961" cx="0" cy="0" rx="1" ry="1" /></g>
<g transform="translate(689.746992 420.316624) rotate(264.532913) scale(7.307257 27.584480)"><ellipse fill="#00ecfe" fill-opacity="0.501961" cx="0" cy="0" rx="1" ry="1" /></g>
<g transform="translate(319.786546 387.464861) rotate(106.815826) scale(162.843128 98.584648)"><ellipse fill="#007777" fill-opacity="0.501961" cx="0" cy="0" rx="1" ry="1" /></g>
<g transform="translate(1028.752965 624.713824) rotate(257.510694) scale(37.571915 76.596222)"><ellipse fill="#000000" fill-opacity="0.501961" cx="0" cy="0" rx="1" ry="1" /></g>
<g transform="translate(577.560406 412.690328) rotate(56.774465) scale(26.015669 74.412812)"><ellipse fill="#01000e" fill-opacity="0.501961" cx="0" cy="0" rx="1" ry="1" /></g>
<g transform="translate(692.522101 75.357722) rotate(194.504334) scale(44.371293 20.337874)"><ellipse fill="#00878a" fill-opacity="0.501961" cx="0" cy="0" rx="1" ry="1" /></g>
<g transform="translate(842.199333 244.893467) rotate(360.752963) scale(20.835220 59.375047)"><ellipse fill="#f4a917" fill-opacity="0.501961" cx="0" cy="0" rx="1" ry="1" /></g>
</g>
</svg>