<svg xmlns="http://www.w3.org/2000/svg" version="1.1" width="1024" height="536">
<rect x="0" y="0" width="1024" height="536" fill="#23333f" />
<g transform="scale(4.000000) translate(0.5 0.5)">
<g transform="translate(160 110) rotate(270) scale(24 23)"><rect fill="#a2f3df" fill-opacity="0.501961" x="-0.5" y="-0.5" width="1" height="1" /></g>
<g transform="translate(74.652651 15.304506) rotate(284.684297) scale(32.944882 11.971728)"><ellipse fill="#7faeaa" fill-opacity="0.501961" cx="0" cy="0" rx="1" ry="1" /></g>
<g transform="translate(50 84) rotate(363) scale(17 18)"><rect fill="#a3dad2" fill-opacity="0.501961" x="-0.5" y="-0.5" width="1" height="1" /></g>
<rect fill="#5f918a" fill-opacity="0.501961" x="167" y="79" width="19" height="55" />
<g transform="translate(224 2) rotate(193) scale(23 27)"><rect fill="#89d0bd" fill-opacity="0.501961" x="-0.5" y="-0.5" width="1" height="1" /></g>
<g transform="translate(153 13) rotate(71) scale(17 20)"><rect fill="#75b0a3" fill-opacity="0.501961" x="-0.5" y="-0.5" width="1" height="1" /></g>
<g transform="translate(225.780953 124.358740) rotate(110.035993) scale(20.827012 56.471093)"><ellipse fill="#070b1c" fill-opacity="0.501961" cx="0" cy="0" rx="1" ry="1" /></g>
<g transform="translate(118.769794 95.832863) rotate(134.711931) scale(5.606414 30.758674)"><ellipse fill="#5c938d" fill-opacity="0.501961" cx="0" cy="0" rx="1" ry="1" /></g>
<g transform="translate(182.440513 57.819748) rotate(267.149929) scale(21.609103 57.328931)"><ellipse fill="#0a0d22" fill-opacity="0.501961" cx="0" cy="0" rx="1" ry="1" /></g>
<rect fill="#69a092" fill-opacity="0.501961" x="234" y="78" width="19" height="22" />
<polygon fill="#0a0c21" fill-opacity="0.501961" points="130.280909,37.189726,32.290788,13.296879,102.950540,13.593466,150.527620,-16.000000" />
<polygon fill="#090d1e" fill-opacity="0.501961" points="11,102 72,52 27,6" />
<polygon fill="#64958b" fill-opacity="0.501961" points="2.947926,43.806775,2.808312,53.592756,4.767021,73.605008,25.975414,46.816962" />
<polygon fill="#7ea7a5" fill-opacity="0.501961" points="31,133 79,149 87,124" />
<polygon fill="#557b77" fill-opacity="0.501961" points="262.841400,36.913023,242.645066,65.039507,227.076270,9.582301,239.710075,21.965338" />
<ellipse fill="#9fcdca" fill-opacity="0.501961" cx="74" cy="0" rx="13" ry="14" />
<polygon fill="#53857d" fill-opacity="0.501961" points="80.295569,122.931225,72.832689,95.659960,85.737005,79.655565,54.016378,102.310211" />
<g transform="translate(17.293774 112.192211) rotate(331.181392) scale(36.234822 16.559953)"><ellipse fill="#0b0e1e" fill-opacity="0.501961" cx="0" cy="0" rx="1" ry="1" /></g>
<polygon fill="#9ed2c9" fill-opacity="0.501961" points="23,5 11,-5 20,15" />
<polygon fill="#0a0c21" fill-opacity="0.501961" points="93,142 78,90 175,137" />
<polygon fill="#569b8c" fill-opacity="0.501961" points="108,54 94,61 108,85" />
<polygon fill="#0f1429" fill-opacity="0.501961" points="41,61 71,91 152,1" />
<ellipse fill="#699792" fill-opacity="0.501961" cx="178" cy="88" rx="12" ry="12" />
<polygon fill="#81b4ab" fill-opacity="0.501961" points="193,26 211,28 207,35" />
<g transform="translate(186.626139 12.908569) rotate(202.235910) scale(20.597067 88.431737)"><ellipse fill="#141b2d" fill-opacity="0.501961" cx="0" cy="0" rx="1" ry="1" /></g>
<rect fill="#8bbbb4" fill-opacity="0.501961" x="25" y="127" width="13" height="7" />
<rect fill="#9cc7c9" fill-opacity="0.501961" x="132" y="111" width="25" height="5" />
<polygon fill="#54877e" fill-opacity="0.501961" points="195,116 163,112 164,146" />
<g transform="translate(171 19) rotate(23) scale(67 1)"><rect fill="#6ca096" fill-opacity="0.501961" x="-0.5" y="-0.5" width="1" height="1" /></g>
<rect fill="#0e1129" fill-opacity="0.501961" x="127" y="70" width="22" height="39" />
<polygon fill="#55807d" fill-opacity="0.501961" points="40.614362,126.186022,47.392678,111.980788,93.026503,77.465456,43.992330,123.579149" />
<polygon fill="#0e1423" fill-opacity="0.501961" points="246.716588,24.151642,203.059169,134.133415,271.000000,-12.638663,229.278207,-11.598640" />
<polygon fill="#050517" fill-opacity="0.501961" points="-16,93 -3,-16 17,11" />
<g transform="translate(113.712357 97.756578) rotate(124.918133) scale(9.163596 12.940355)"><ellipse fill="#417f73" fill-opacity="0.501961" cx="0" cy="0" rx="1" ry="1" /></g>
<ellipse fill="#618184" fill-opacity="0.501961" cx="226" cy="93" rx="18" ry="3" />
<rect fill="#95c4c1" fill-opacity="0.501961" x="78" y="122" width="9" height="8" />
<ellipse fill="#5d8c85" fill-opacity="0.501961" cx="71" cy="32" rx="12" ry="12" />
<g transform="translate(229.836673 123.790803) rotate(174.009377) scale(46.455891 25.483344)"><ellipse fill="#111727" fill-opacity="0.501961" cx="0" cy="0" rx="1" ry="1" /></g>
<ellipse fill="#628d88" fill-opacity="0.501961" cx="243" cy="31" rx="14" ry="5" />
<g transform="translate(109.934381 15.961992) rotate(10.148143) scale(21.628465 42.541102)"><ellipse fill="#141c2e" fill-opacity="0.501961" cx="0" cy="0" rx="1" ry="1" /></g>
<g transform="translate(121.345318 54.511324) rotate(131.988282) scale(41.797449 3.136374)"><ellipse fill="#3e6668" fill-opacity="0.501961" cx="0" cy="0" rx="1" ry="1" /></g>
<g transform="translate(11 105) rotate(146) scale(1 56)"><rect fill="#5b8881" fill-opacity="0.501961" x="-0.5" y="-0.5" width="1" height="1" /></g>
<polygon fill="#131829" fill-opacity="0.501961" points="190.628730,103.604314,194.902489,37.552231,236.968558,35.911913,241.478477,76.329984" />
<polygon fill="#547a77" fill-opacity="0.501961" points="10.395567,47.513415,16.472326,10.875123,23.279148,-7.313804,15.351367,45.132376" />
<polygon fill="#161e31" fill-opacity="0.501961" points="234,44 110,82 150,22" />
<polygon fill="#4f7976" fill-opacity="0.501961" points="142.248089,3.395340,146.902980,-3.653742,174.563494,21.666589,157.733084,18.809924" />
<polygon fill="#7ea6a5" fill-opacity="0.501961" points="207,39 199,31 212,31" />
<polygon fill="#57757a" fill-opacity="0.501961" points="210.880333,81.835439,216.406961,100.189903,211.791927,94.589127,199.708301,69.676493" />
<rect fill="#000000" fill-opacity="0.501961" x="74" y="132" width="15" height="2" />
<g transform="translate(90.840453 95.244983) rotate(45.241458) scale(7.239529 19.878129)"><ellipse fill="#101529" fill-opacity="0.501961" cx="0" cy="0" rx="1" ry="1" /></g>
<polygon fill="#51807d" fill-opacity="0.501961" points="107.495187,78.377430,69.347279,92.331040,111.184640,70.201698,95.631647,57.247183" />
<polygon fill="#0a121f" fill-opacity="0.501961" points="271.000000,37.214913,246.386005,87.475453,249.784906,56.398642,249.308857,50.362154" />
<polygon fill="#0f1525" fill-opacity="0.501961" points="132,-16 185,22 243,24" />
<rect fill="#56857d" fill-opacity="0.501961" x="242" y="51" width="5" height="27" />
<g transform="translate(254 38) rotate(118) scale(47 1)"><rect fill="#8ab2b1" fill-opacity="0.501961" x="-0.5" y="-0.5" width="1" height="1" /></g>
<polygon fill="#8fb6b9" fill-opacity="0.501961" points="119.485620,103.239962,119.407826,102.504977,133.171706,115.238227,112.687707,90.967183" />
<rect fill="#0d1224" fill-opacity="0.501961" x="147" y="121" width="15" height="13" />
<g transform="translate(75 8) rotate(270) scale(11 27)"><rect fill="#7ea3a5" fill-opacity="0.501961" x="-0.5" y="-0.5" width="1" height="1" /></g>
<polygon fill="#0e1525" fill-opacity="0.501961" points="37,131 85,102 74,126" />
<rect fill="#1b2733" fill-opacity="0.501961" x="22" y="0" width="41" height="17" />
<polygon fill="#567879" fill-opacity="0.501961" points="22.709797,8.483001,-14.709188,-16.000000,12.247963,-3.524218,54.945428,25.873645" />
<rect fill="#172033" fill-opacity="0.501961" x="142" y="35" width="27" height="62" />
<polygon fill="#131a2b" fill-opacity="0.501961" points="96,49 64,99 56,42" />
<path stroke="#6d9a97" stroke-opacity="0.501961" fill="none" d="M 26.012198 6.789563 Q 53.165831 0.355267, 92.932069 6.814275" stroke-width="0.500000" />
<polygon fill="#151c2c" fill-opacity="0.501961" points="234.824749,93.457455,226.551112,116.158236,169.353762,110.081311,226.616115,92.811177" />
<ellipse fill="#0d1422" fill-opacity="0.501961" cx="11" cy="84" rx="7" ry="17" />
<polygon fill="#98bfc1" fill-opacity="0.501961" points="44,77 53,73 61,85" />
<polygon fill="#101527" fill-opacity="0.501961" points="127.721697,3.501288,89.489912,-10.363910,88.069382,54.677141,78.985745,16.337538" />
<rect fill="#48766f" fill-opacity="0.501961" x="54" y="96" width="20" height="16" />
<polygon fill="#121a29" fill-opacity="0.501961" points="10.496702,88.195894,34.652628,131.058352,64.543817,83.073203,37.539203,105.608860" />
<polygon fill="#4d7170" fill-opacity="0.501961" points="72.593760,45.839925,53.638532,18.475326,61.130543,44.585194,75.122844,7.208560" />
<polygon fill="#2b5651" fill-opacity="0.501961" points="13.036616,65.658916,43.258381,79.385144,57.339675,88.741116,18.028636,71.209398" />
<polygon fill="#141c2b" fill-opacity="0.501961" points="234.382013,89.704806,216.641768,93.050569,194.107072,51.068363,229.413331,16.167925" />
<rect fill="#66978e" fill-opacity="0.501961" x="205" y="31" width="31" height="2" />
<polygon fill="#527a76" fill-opacity="0.501961" points="23,60 5,52 14,33" />
<polygon fill="#121929" fill-opacity="0.501961" points="69,84 23,9 15,42" />
<g transform="translate(50 114) rotate(150) scale(6 7)"><rect fill="#6da59a" fill-opacity="0.501961" x="-0.5" y="-0.5" width="1" height="1" /></g>
<rect fill="#b7e5e4" fill-opacity="0.501961" x="135" y="108" width="2" height="9" />
<g transform="translate(125 106) rotate(136) scale(1 28)"><rect fill="#a4cdd0" fill-opacity="0.501961" x="-0.5" y="-0.5" width="1" height="1" /></g>
<polygon fill="#457671" fill-opacity="0.501961" points="134.018295,47.108451,154.615686,11.164035,132.088288,42.443641,145.260562,8.168284" />
<polygon fill="#0a0e1f" fill-opacity="0.501961" points="59,22 73,16 35,6" />
<polygon fill="#162030" fill-opacity="0.501961" points="130,45 145,3 78,-16" />
<polygon fill="#0d1222" fill-opacity="0.501961" points="271.000000,31.887569,246.297773,-16.000000,235.530617,15.219207,247.848284,28.599469" />
<polygon fill="#44706a" fill-opacity="0.501961" points="210,27 219,6 225,9" />
<g transform="translate(33.755926 5.438380) rotate(355.929698) scale(18.440262 1.000000)"><ellipse fill="#537b79" fill-opacity="0.501961" cx="0" cy="0" rx="1" ry="1" /></g>
<polygon fill="#5e8d88" fill-opacity="0.501961" points="211,7 239,11 210,-16" />
<rect fill="#131b2a" fill-opacity="0.501961" x="197" y="38" width="49" height="14" />
<polygon fill="#3d716a" fill-opacity="0.501961" points="99.503217,58.131683,119.024171,53.103033,95.214046,70.913641,87.549990,80.139864" />
<rect fill="#74ab9c" fill-opacity="0.501961" x="253" y="79" width="1" height="20" />
<rect fill="#5b8784" fill-opacity="0.501961" x="164" y="107" width="9" height="27" />
<polygon fill="#0e1728" fill-opacity="0.501961" points="134,112 121,96 132,96" />
<path stroke="#7ebbb3" stroke-opacity="0.501961" fill="none" d="M 102.964707 78.591323 Q 101.503854 76.915220, 72.351229 90.846271" stroke-width="0.500000" />
<g transform="translate(122 91) rotate(235) scale(20 5)"><rect fill="#337266" fill-opacity="0.501961" x="-0.5" y="-0.5" width="1" height="1" /></g>
<g transform="translate(3 82) rotate(106) scale(22 2)"><rect fill="#528177" fill-opacity="0.501961" x="-0.5" y="-0.5" width="1" height="1" /></g>
<polygon fill="#5e8684" fill-opacity="0.501961" points="80.558100,121.015093,82.663691,133.023312,78.620967,122.503342,68.933952,109.135409" />
<path stroke="#87b1af" stroke-opacity="0.501961" fill="none" d="M 211.842250 94.217843 Q 223.127448 95.123435, 244.990507 86.607586" stroke-width="0.500000" />
<g transform="translate(20 88) rotate(81) scale(1 66)"><rect fill="#2f6459" fill-opacity="0.501961" x="-0.5" y="-0.5" width="1" height="1" /></g>
<g transform="translate(17 3) rotate(63) scale(11 7)"><rect fill="#7ea0a3" fill-opacity="0.501961" x="-0.5" y="-0.5" width="1" height="1" /></g>
<g transform="translate(11 133) rotate(127) scale(26 19)"><rect fill="#0e1324" fill-opacity="0.501961" x="-0.5" y="-0.5" width="1" height="1" /></g>
<polygon fill="#2c675a" fill-opacity="0.501961" points="188,114 189,128 179,111" />
</g>
</svg>