<svg width="122" height="52" viewBox="0 0 122 52" fill="none" xmlns="http://www.w3.org/2000/svg">
    <rect x="16.5174" y="13.4589" width="5.50588" height="38.5412" fill="#0E5DF5"/>
    <rect x="27.5297" y="13.4589" width="5.50588" height="38.5412" fill="#0E5DF5"/>
    <rect x="38.5413" y="13.4589" width="5.50588" height="38.5412" fill="#0E5DF5"/>
    <rect x="49.5529" y="13.4589" width="5.50588" height="38.5412" fill="#0E5DF5"/>
    <rect width="5.50588" height="38.5412" fill="#5FDCFF"/>
    <rect x="11.0116" width="5.50588" height="38.5412" fill="#5FDCFF"/>
    <rect x="22.0233" width="5.50588" height="38.5412" fill="#5FDCFF"/>
    <rect x="33.0355" width="5.50588" height="38.5412" fill="#5FDCFF"/>
    <path d="M121.623 20.5081V23.9813H117.893V38.1993H112.897V23.9813H109.629V20.5081H112.897V17.9588C112.897 16.533 113.313 15.4266 114.146 14.6395C114.99 13.8525 116.182 13.459 117.722 13.459H121.777L121.794 16.7782H119.467C118.828 16.7782 118.389 16.9379 118.149 17.2573C117.921 17.5653 117.807 18.0785 117.807 18.7971V20.5081H121.623Z" fill="#333333"/>
    <path d="M96.6053 38.5414C95.784 38.5414 94.9742 38.416 94.1757 38.165C93.3887 37.9141 92.6701 37.5434 92.0199 37.0529C91.3698 36.5624 90.8451 35.9579 90.4459 35.2393C90.058 34.5207 89.8641 33.6881 89.8641 32.7413V20.5081H94.8601V32.1083C94.8601 32.9295 95.1281 33.6025 95.6642 34.1272C96.2003 34.6519 96.9874 34.9142 98.0254 34.9142C99.0063 34.9142 99.7819 34.6633 100.352 34.1614C100.934 33.6481 101.225 32.9352 101.225 32.0227V20.5081H106.169V38.1993H102.405L101.824 34.6918C101.618 35.7298 101.231 36.5282 100.66 37.0871C100.101 37.6346 99.4568 38.011 98.7268 38.2164C98.0082 38.4331 97.3011 38.5414 96.6053 38.5414Z" fill="#333333"/>
    <path d="M67.2942 38.1992V13.4589H76.2596C79.499 13.4589 81.9 14.0178 83.4626 15.1356C85.0367 16.242 85.8238 17.8446 85.8238 19.9434C85.8238 21.1752 85.5101 22.2474 84.8827 23.1599C84.2554 24.061 83.1376 24.8481 81.5293 25.521C82.5672 25.7834 83.4056 26.137 84.0444 26.5818C84.6831 27.0267 85.1736 27.5229 85.5158 28.0704C85.858 28.6065 86.0918 29.1711 86.2173 29.7642C86.3427 30.3459 86.4055 30.9219 86.4055 31.4923C86.4055 33.7735 85.6298 35.4616 84.0786 36.5567C82.5273 37.6517 80.0579 38.1992 76.6702 38.1992H67.2942ZM72.273 34.3324H76.7728C78.2785 34.3324 79.4134 34.0302 80.1776 33.4256C80.9533 32.8211 81.3411 32.0112 81.3411 30.9961C81.3411 30.2661 81.1529 29.6558 80.7765 29.1654C80.4 28.6635 79.8868 28.2871 79.2366 28.0361C78.5978 27.7852 77.8678 27.6597 77.0466 27.6597H72.273V34.3324ZM72.273 23.6903H77.0466C77.5599 23.6903 78.0503 23.6333 78.518 23.5192C78.9971 23.3938 79.4191 23.2056 79.7841 22.9546C80.1605 22.7037 80.4571 22.3843 80.6738 21.9965C80.8905 21.5973 80.9989 21.1296 80.9989 20.5935C80.9989 19.5213 80.594 18.7115 79.7841 18.164C78.9857 17.6051 77.9591 17.3256 76.7044 17.3256H72.273V23.6903Z" fill="#333333"/>
    </svg>