<svg version="1.1" xmlns="http://www.w3.org/2000/svg" xmlns:xlink="http://www.w3.org/1999/xlink" style="display:none">
<symbol viewBox="0 0 254.5 225" id="lang_go"><style type="text/css">.st0{fill:#2DBCAF;}
	.st1{fill:#5DC9E1;}
	.st2{fill:#FDDD00;}
	.st3{fill:#CE3262;}
	.st4{fill:#00ACD7;}
	.st5{fill:#FFFFFF;}</style><g><g><g><g><path class="st4" d="M40.2,101.1c-0.4,0-0.5-0.2-0.3-0.5l2.1-2.7c0.2-0.3,0.7-0.5,1.1-0.5l35.7,0c0.4,0,0.5,0.3,0.3,0.6      l-1.7,2.6c-0.2,0.3-0.7,0.6-1,0.6L40.2,101.1z"/></g></g></g><g><g><g><path class="st4" d="M25.1,110.3c-0.4,0-0.5-0.2-0.3-0.5l2.1-2.7c0.2-0.3,0.7-0.5,1.1-0.5l45.6,0c0.4,0,0.6,0.3,0.5,0.6      l-0.8,2.4c-0.1,0.4-0.5,0.6-0.9,0.6L25.1,110.3z"/></g></g></g><g><g><g><path class="st4" d="M49.3,119.5c-0.4,0-0.5-0.3-0.3-0.6l1.4-2.5c0.2-0.3,0.6-0.6,1-0.6l20,0c0.4,0,0.6,0.3,0.6,0.7l-0.2,2.4      c0,0.4-0.4,0.7-0.7,0.7L49.3,119.5z"/></g></g></g><g><g id="CXHf1q_3_"><g><g><path class="st4" d="M153.1,99.3c-6.3,1.6-10.6,2.8-16.8,4.4c-1.5,0.4-1.6,0.5-2.9-1c-1.5-1.7-2.6-2.8-4.7-3.8       c-6.3-3.1-12.4-2.2-18.1,1.5c-6.8,4.4-10.3,10.9-10.2,19c0.1,8,5.6,14.6,13.5,15.7c6.8,0.9,12.5-1.5,17-6.6       c0.9-1.1,1.7-2.3,2.7-3.7c-3.6,0-8.1,0-19.3,0c-2.1,0-2.6-1.3-1.9-3c1.3-3.1,3.7-8.3,5.1-10.9c0.3-0.6,1-1.6,2.5-1.6       c5.1,0,23.9,0,36.4,0c-0.2,2.7-0.2,5.4-0.6,8.1c-1.1,7.2-3.8,13.8-8.2,19.6c-7.2,9.5-16.6,15.4-28.5,17       c-9.8,1.3-18.9-0.6-26.9-6.6c-7.4-5.6-11.6-13-12.7-22.2c-1.3-10.9,1.9-20.7,8.5-29.3c7.1-9.3,16.5-15.2,28-17.3       c9.4-1.7,18.4-0.6,26.5,4.9c5.3,3.5,9.1,8.3,11.6,14.1C154.7,98.5,154.3,99,153.1,99.3z"/></g><g><path class="st4" d="M186.2,154.6c-9.1-0.2-17.4-2.8-24.4-8.8c-5.9-5.1-9.6-11.6-10.8-19.3c-1.8-11.3,1.3-21.3,8.1-30.2       c7.3-9.6,16.1-14.6,28-16.7c10.2-1.8,19.8-0.8,28.5,5.1c7.9,5.4,12.8,12.7,14.1,22.3c1.7,13.5-2.2,24.5-11.5,33.9       c-6.6,6.7-14.7,10.9-24,12.8C191.5,154.2,188.8,154.3,186.2,154.6z M210,114.2c-0.1-1.3-0.1-2.3-0.3-3.3       c-1.8-9.9-10.9-15.5-20.4-13.3c-9.3,2.1-15.3,8-17.5,17.4c-1.8,7.8,2,15.7,9.2,18.9c5.5,2.4,11,2.1,16.3-0.6       C205.2,129.2,209.5,122.8,210,114.2z"/></g></g></g></g></g></symbol>
<symbol viewBox="0 0 64 64" id="lang_python"><path d="M31.885 16c-8.124 0-7.617 3.523-7.617 3.523l.01 3.65h7.752v1.095H21.197S16 23.678 16 31.876c0 8.196 4.537 7.906 4.537 7.906h2.708v-3.804s-.146-4.537 4.465-4.537h7.688s4.32.07 4.32-4.175v-7.019S40.374 16 31.885 16zm-4.275 2.454c.771 0 1.395.624 1.395 1.395s-.624 1.395-1.395 1.395a1.393 1.393 0 0 1-1.395-1.395c0-.771.624-1.395 1.395-1.395z" fill="url(#a)"/><path d="M32.115 47.833c8.124 0 7.617-3.523 7.617-3.523l-.01-3.65H31.97v-1.095h10.832S48 40.155 48 31.958c0-8.197-4.537-7.906-4.537-7.906h-2.708v3.803s.146 4.537-4.465 4.537h-7.688s-4.32-.07-4.32 4.175v7.019s-.656 4.247 7.833 4.247zm4.275-2.454a1.393 1.393 0 0 1-1.395-1.395c0-.77.624-1.394 1.395-1.394s1.395.623 1.395 1.394c0 .772-.624 1.395-1.395 1.395z" fill="url(#b)"/><defs><linearGradient id="a" x1="19.075" y1="18.782" x2="34.898" y2="34.658" gradientUnits="userSpaceOnUse"><stop stop-color="#387EB8"/><stop offset="1" stop-color="#366994"/></linearGradient><linearGradient id="b" x1="28.809" y1="28.882" x2="45.803" y2="45.163" gradientUnits="userSpaceOnUse"><stop stop-color="#FFE052"/><stop offset="1" stop-color="#FFC331"/></linearGradient></defs></symbol>
<symbol viewBox="0 0 64 64" id="lang_rust"><path d="m47.781 31.608-1.343-.832a18.57 18.57 0 0 0-.038-.391l1.154-1.077a.46.46 0 0 0-.153-.771l-1.476-.552a16.798 16.798 0 0 0-.115-.381l.92-1.279a.462.462 0 0 0-.3-.727l-1.557-.253c-.06-.118-.123-.234-.187-.35l.654-1.435a.46.46 0 0 0-.437-.654l-1.579.055a12.482 12.482 0 0 0-.25-.302l.363-1.539a.461.461 0 0 0-.556-.556l-1.538.362c-.1-.084-.2-.167-.303-.25l.055-1.578a.46.46 0 0 0-.654-.437l-1.435.654a16.712 16.712 0 0 0-.35-.188l-.253-1.556a.462.462 0 0 0-.726-.301l-1.28.92a14.31 14.31 0 0 0-.38-.115l-.552-1.476a.461.461 0 0 0-.771-.154l-1.077 1.156c-.13-.014-.26-.028-.391-.038l-.832-1.344a.462.462 0 0 0-.786 0l-.832 1.344c-.13.01-.261.024-.391.038l-1.077-1.155a.464.464 0 0 0-.771.153l-.552 1.476c-.128.037-.255.076-.38.116l-1.28-.921a.46.46 0 0 0-.727.3l-.254 1.557c-.117.061-.233.124-.35.188l-1.434-.654a.46.46 0 0 0-.654.436l.055 1.58c-.102.082-.203.165-.303.25l-1.538-.363a.464.464 0 0 0-.557.556l.363 1.539c-.085.1-.168.2-.25.302l-1.579-.055a.462.462 0 0 0-.437.654l.654 1.436c-.063.115-.126.231-.187.35l-1.556.252a.462.462 0 0 0-.301.727l.92 1.279c-.04.126-.078.253-.115.38l-1.476.553a.462.462 0 0 0-.153.771l1.155 1.077c-.015.13-.028.26-.039.391l-1.343.832a.462.462 0 0 0 0 .786l1.343.831c.011.131.024.262.039.392l-1.155 1.077a.462.462 0 0 0 .153.771l1.476.552c.037.128.076.255.116.38l-.921 1.28a.462.462 0 0 0 .301.726l1.556.253c.061.118.123.235.188.35l-.655 1.435a.462.462 0 0 0 .437.654l1.579-.055c.082.103.165.203.25.303l-.363 1.539a.46.46 0 0 0 .557.555l1.538-.362c.1.085.201.167.303.249l-.055 1.58a.461.461 0 0 0 .654.436l1.435-.654c.115.064.232.127.35.188l.253 1.555a.461.461 0 0 0 .727.302l1.279-.922c.126.04.253.08.38.116l.552 1.476a.46.46 0 0 0 .771.153l1.078-1.155c.13.015.26.028.391.04l.832 1.343a.463.463 0 0 0 .786 0l.831-1.344c.131-.011.262-.024.392-.039l1.077 1.155a.46.46 0 0 0 .77-.153l.553-1.476c.127-.036.254-.076.38-.116l1.28.922a.463.463 0 0 0 .726-.302l.254-1.556c.117-.06.233-.124.349-.187l1.435.654a.461.461 0 0 0 .654-.437l-.055-1.58c.102-.08.203-.163.303-.248l1.538.362a.46.46 0 0 0 .556-.555l-.362-1.539c.084-.1.167-.2.249-.303l1.58.055a.46.46 0 0 0 .436-.654l-.654-1.435c.064-.115.126-.232.187-.35l1.556-.253a.46.46 0 0 0 .301-.726l-.92-1.28a17.5 17.5 0 0 0 .115-.38l1.476-.552a.46.46 0 0 0 .153-.771l-1.155-1.077c.014-.13.027-.261.039-.392l1.343-.831a.462.462 0 0 0 0-.786zM38.79 42.752a.952.952 0 0 1 .399-1.861.952.952 0 0 1-.4 1.861zm-.457-3.087a.866.866 0 0 0-1.028.666l-.477 2.226A11.649 11.649 0 0 1 32 43.597c-1.76 0-3.43-.39-4.929-1.087l-.477-2.225a.866.866 0 0 0-1.028-.667l-1.965.422a11.68 11.68 0 0 1-1.016-1.197h9.561c.108 0 .18-.02.18-.118v-3.382c0-.099-.072-.118-.18-.118H29.35V33.08h3.024c.276 0 1.476.079 1.86 1.613.12.471.384 2.006.564 2.497.18.551.912 1.652 1.692 1.652h4.764a.977.977 0 0 0 .173-.017c-.33.449-.693.874-1.083 1.27l-2.01-.431zm-13.223 3.04a.952.952 0 0 1-.399-1.861.95.95 0 0 1 .398 1.862zm-3.627-14.707a.95.95 0 1 1-1.737.771.95.95 0 1 1 1.737-.771zm-1.115 2.643 2.047-.91a.868.868 0 0 0 .44-1.145l-.421-.953h1.658v7.474h-3.345a11.714 11.714 0 0 1-.38-4.466zm8.983-.726v-2.203h3.948c.204 0 1.44.236 1.44 1.16 0 .767-.948 1.043-1.728 1.043h-3.66zM43.7 31.898c0 .292-.011.581-.033.868h-1.2c-.12 0-.168.08-.168.197v.551c0 1.298-.732 1.58-1.373 1.652-.61.068-1.288-.256-1.371-.63-.36-2.025-.96-2.458-1.908-3.206 1.176-.746 2.4-1.848 2.4-3.323 0-1.593-1.092-2.596-1.836-3.088-1.044-.688-2.2-.826-2.512-.826H23.285a11.684 11.684 0 0 1 6.545-3.694l1.463 1.535c.331.346.88.36 1.225.028l1.638-1.566a11.71 11.71 0 0 1 8.009 5.704l-1.121 2.532a.869.869 0 0 0 .44 1.145l2.159.958c.037.383.056.77.056 1.163zM31.294 19.093a.95.95 0 0 1 1.344.031.952.952 0 0 1-.032 1.346.949.949 0 0 1-1.343-.032.953.953 0 0 1 .031-1.345zm11.123 8.951a.95.95 0 1 1 1.737.772.95.95 0 1 1-1.737-.772z" fill="#000000"/></symbol>
</svg>