<svg xmlns="http://www.w3.org/2000/svg" version="1.1" width="1200" height="630">
<rect x="0" y="0" width="1200" height="630" fill="#18282f" />
<g transform="scale(1.000000) translate(0.5 0.5)">
<ellipse fill="#daffff" fill-opacity="0.501961" cx="365" cy="181" rx="108" ry="108" />
<ellipse fill="#639e99" fill-opacity="0.501961" cx="349" cy="366" rx="165" ry="165" />
<ellipse fill="#b8f3f0" fill-opacity="0.501961" cx="453" cy="121" rx="59" ry="59" />
<ellipse fill="#000000" fill-opacity="0.501961" cx="443" cy="304" rx="73" ry="73" />
<ellipse fill="#5e857d" fill-opacity="0.501961" cx="1199" cy="379" rx="121" ry="121" />
<ellipse fill="#b3e4e7" fill-opacity="0.501961" cx="313" cy="226" rx="67" ry="67" />
<ellipse fill="#000000" fill-opacity="0.501961" cx="140" cy="40" rx="178" ry="178" />
<ellipse fill="#000015" fill-opacity="0.501961" cx="364" cy="312" rx="41" ry="41" />
<ellipse fill="#aee6e8" fill-opacity="0.501961" cx="401" cy="208" rx="43" ry="43" />
<ellipse fill="#00010f" fill-opacity="0.501961" cx="901" cy="65" rx="304" ry="304" />
<ellipse fill="#577d77" fill-opacity="0.501961" cx="1158" cy="262" rx="43" ry="43" />
<ellipse fill="#00051c" fill-opacity="0.501961" cx="487" cy="236" rx="48" ry="48" />
<ellipse fill="#000000" fill-opacity="0.501961" cx="75" cy="535" rx="169" ry="169" />
<ellipse fill="#46625b" fill-opacity="0.501961" cx="1128" cy="509" rx="62" ry="62" />
<ellipse fill="#00020f" fill-opacity="0.501961" cx="883" cy="532" rx="194" ry="194" />
<ellipse fill="#9dcdcb" fill-opacity="0.501961" cx="491" cy="107" rx="31" ry="31" />
<ellipse fill="#59958c" fill-opacity="0.501961" cx="443" cy="426" rx="65" ry="65" />
<ellipse fill="#81abac" fill-opacity="0.501961" cx="407" cy="111" rx="50" ry="50" />
<ellipse fill="#00000b" fill-opacity="0.501961" cx="308" cy="47" rx="53" ry="53" />
<ellipse fill="#000002" fill-opacity="0.501961" cx="328" cy="629" rx="108" ry="108" />
<ellipse fill="#000000" fill-opacity="0.501961" cx="1128" cy="629" rx="73" ry="73" />
<ellipse fill="#010713" fill-opacity="0.501961" cx="39" cy="246" rx="163" ry="163" />
<ellipse fill="#000211" fill-opacity="0.501961" cx="1045" cy="359" rx="57" ry="57" />
<ellipse fill="#000004" fill-opacity="0.501961" cx="496" cy="2" rx="73" ry="73" />
<ellipse fill="#0b1c2d" fill-opacity="0.501961" cx="663" cy="249" rx="195" ry="195" />
<ellipse fill="#50857c" fill-opacity="0.501961" cx="313" cy="406" rx="74" ry="74" />
<ellipse fill="#00000a" fill-opacity="0.501961" cx="613" cy="598" rx="69" ry="69" />
<ellipse fill="#000310" fill-opacity="0.501961" cx="436" cy="581" rx="65" ry="65" />
<ellipse fill="#5d9a93" fill-opacity="0.501961" cx="499" cy="398" rx="27" ry="27" />
<ellipse fill="#06162c" fill-opacity="0.501961" cx="421" cy="308" rx="62" ry="62" />
<ellipse fill="#8ebbbc" fill-opacity="0.501961" cx="346" cy="188" rx="83" ry="83" />
<ellipse fill="#000003" fill-opacity="0.501961" cx="388" cy="25" rx="41" ry="41" />
<ellipse fill="#afddde" fill-opacity="0.501961" cx="305" cy="283" rx="20" ry="20" />
<ellipse fill="#7fbdb5" fill-opacity="0.501961" cx="529" cy="93" rx="12" ry="12" />
<ellipse fill="#00061c" fill-opacity="0.501961" cx="500" cy="344" rx="32" ry="32" />
<ellipse fill="#7cb9b0" fill-opacity="0.501961" cx="544" cy="75" rx="11" ry="11" />
<ellipse fill="#000004" fill-opacity="0.501961" cx="1179" cy="199" rx="34" ry="34" />
<ellipse fill="#50847b" fill-opacity="0.501961" cx="238" cy="285" rx="38" ry="38" />
<ellipse fill="#132530" fill-opacity="0.501961" cx="373" cy="315" rx="43" ry="43" />
<ellipse fill="#74aea5" fill-opacity="0.501961" cx="558" cy="56" rx="11" ry="11" />
<ellipse fill="#4a6b69" fill-opacity="0.501961" cx="1106" cy="463" rx="30" ry="30" />
<ellipse fill="#2d4c51" fill-opacity="0.501961" cx="649" cy="194" rx="26" ry="26" />
<ellipse fill="#8bb8ba" fill-opacity="0.501961" cx="449" cy="147" rx="41" ry="41" />
<ellipse fill="#000305" fill-opacity="0.501961" cx="1122" cy="7" rx="176" ry="176" />
<ellipse fill="#061422" fill-opacity="0.501961" cx="467" cy="239" rx="32" ry="32" />
<ellipse fill="#6aa097" fill-opacity="0.501961" cx="571" cy="39" rx="11" ry="11" />
<ellipse fill="#7a9d9e" fill-opacity="0.501961" cx="417" cy="95" rx="34" ry="34" />
<ellipse fill="#010915" fill-opacity="0.501961" cx="1078" cy="320" rx="29" ry="29" />
<ellipse fill="#030f1b" fill-opacity="0.501961" cx="287" cy="82" rx="34" ry="34" />
<ellipse fill="#396264" fill-opacity="0.501961" cx="587" cy="375" rx="20" ry="20" />
<ellipse fill="#528683" fill-opacity="0.501961" cx="609" cy="297" rx="12" ry="12" />
<ellipse fill="#568d89" fill-opacity="0.501961" cx="595" cy="341" rx="11" ry="11" />
<ellipse fill="#3c5754" fill-opacity="0.501961" cx="1091" cy="538" rx="30" ry="30" />
<ellipse fill="#0d1926" fill-opacity="0.501961" cx="173" cy="190" rx="75" ry="75" />
<ellipse fill="#98cecd" fill-opacity="0.501961" cx="432" cy="194" rx="27" ry="27" />
<ellipse fill="#426d6a" fill-opacity="0.501961" cx="661" cy="155" rx="14" ry="14" />
<ellipse fill="#000010" fill-opacity="0.501961" cx="325" cy="311" rx="15" ry="15" />
<ellipse fill="#679a90" fill-opacity="0.501961" cx="585" cy="22" rx="10" ry="10" />
<ellipse fill="#0d1d2b" fill-opacity="0.501961" cx="694" cy="426" rx="118" ry="118" />
<ellipse fill="#558c88" fill-opacity="0.501961" cx="618" cy="273" rx="11" ry="11" />
<ellipse fill="#000714" fill-opacity="0.501961" cx="248" cy="531" rx="36" ry="36" />
<ellipse fill="#5a948e" fill-opacity="0.501961" cx="626" cy="253" rx="10" ry="10" />
<ellipse fill="#558d89" fill-opacity="0.501961" cx="602" cy="320" rx="11" ry="11" />
<ellipse fill="#4f847c" fill-opacity="0.501961" cx="282" cy="334" rx="39" ry="39" />
<ellipse fill="#9ac7c9" fill-opacity="0.501961" cx="325" cy="259" rx="31" ry="31" />
<ellipse fill="#548b84" fill-opacity="0.501961" cx="404" cy="387" rx="27" ry="27" />
<ellipse fill="#81b1af" fill-opacity="0.501961" cx="507" cy="105" rx="19" ry="19" />
<ellipse fill="#446361" fill-opacity="0.501961" cx="1159" cy="272" rx="46" ry="46" />
<ellipse fill="#4e807d" fill-opacity="0.501961" cx="635" cy="232" rx="12" ry="12" />
<ellipse fill="#528783" fill-opacity="0.501961" cx="571" cy="403" rx="11" ry="11" />
<ellipse fill="#304544" fill-opacity="0.501961" cx="1168" cy="504" rx="77" ry="77" />
<ellipse fill="#010b1b" fill-opacity="0.501961" cx="259" cy="117" rx="29" ry="29" />
<ellipse fill="#3b615f" fill-opacity="0.501961" cx="670" cy="127" rx="15" ry="15" />
<ellipse fill="#030915" fill-opacity="0.501961" cx="586" cy="91" rx="38" ry="38" />
<ellipse fill="#000107" fill-opacity="0.501961" cx="93" cy="0" rx="120" ry="120" />
<ellipse fill="#4e7270" fill-opacity="0.501961" cx="1130" cy="367" rx="34" ry="34" />
<ellipse fill="#000109" fill-opacity="0.501961" cx="74" cy="629" rx="147" ry="147" />
<ellipse fill="#84acad" fill-opacity="0.501961" cx="285" cy="203" rx="35" ry="35" />
<ellipse fill="#010915" fill-opacity="0.501961" cx="1058" cy="403" rx="33" ry="33" />
<ellipse fill="#548883" fill-opacity="0.501961" cx="389" cy="297" rx="10" ry="10" />
<ellipse fill="#63a096" fill-opacity="0.501961" cx="380" cy="313" rx="8" ry="8" />
<ellipse fill="#091522" fill-opacity="0.501961" cx="488" cy="212" rx="31" ry="31" />
<ellipse fill="#6fb7ac" fill-opacity="0.501961" cx="566" cy="420" rx="7" ry="7" />
<ellipse fill="#000000" fill-opacity="0.501961" cx="1161" cy="629" rx="52" ry="52" />
<ellipse fill="#010509" fill-opacity="0.501961" cx="993" cy="615" rx="95" ry="95" />
<ellipse fill="#426f68" fill-opacity="0.501961" cx="235" cy="433" rx="34" ry="34" />
<ellipse fill="#487771" fill-opacity="0.501961" cx="220" cy="317" rx="35" ry="35" />
<ellipse fill="#699c91" fill-opacity="0.501961" cx="595" cy="7" rx="9" ry="9" />
<ellipse fill="#00071a" fill-opacity="0.501961" cx="509" cy="484" rx="28" ry="28" />
<ellipse fill="#5fa09a" fill-opacity="0.501961" cx="561" cy="435" rx="8" ry="8" />
<ellipse fill="#406962" fill-opacity="0.501961" cx="680" cy="98" rx="12" ry="12" />
<ellipse fill="#01091b" fill-opacity="0.501961" cx="584" cy="487" rx="35" ry="35" />
<ellipse fill="#050d1b" fill-opacity="0.501961" cx="527" cy="165" rx="34" ry="34" />
<ellipse fill="#94bebf" fill-opacity="0.501961" cx="280" cy="234" rx="33" ry="33" />
<ellipse fill="#030c1b" fill-opacity="0.501961" cx="515" cy="65" rx="23" ry="23" />
<ellipse fill="#4f817b" fill-opacity="0.501961" cx="372" cy="329" rx="10" ry="10" />
<ellipse fill="#5d9c96" fill-opacity="0.501961" cx="554" cy="452" rx="8" ry="8" />
<ellipse fill="#040d16" fill-opacity="0.501961" cx="321" cy="59" rx="31" ry="31" />
<ellipse fill="#51847f" fill-opacity="0.501961" cx="488" cy="416" rx="29" ry="29" />
<ellipse fill="#538c87" fill-opacity="0.501961" cx="549" cy="468" rx="9" ry="9" />
</g>
</svg>