<svg xmlns="http://www.w3.org/2000/svg" version="1.1" width="1200" height="630">
<rect x="0" y="0" width="1200" height="630" fill="#28314a" />
<g transform="scale(1.000000) translate(0.5 0.5)">
<g transform="translate(770 301) rotate(272) scale(276 287)"><rect fill="#ffffff" fill-opacity="0.501961" x="-0.5" y="-0.5" width="1" height="1" /></g>
<g transform="translate(1036 405) rotate(-74) scale(973 280)"><rect fill="#000000" fill-opacity="0.501961" x="-0.5" y="-0.5" width="1" height="1" /></g>
<g transform="translate(568 304) rotate(141) scale(258 246)"><rect fill="#647aff" fill-opacity="0.501961" x="-0.5" y="-0.5" width="1" height="1" /></g>
<g transform="translate(243 421) rotate(101) scale(292 298)"><rect fill="#000000" fill-opacity="0.501961" x="-0.5" y="-0.5" width="1" height="1" /></g>
<g transform="translate(783 293) rotate(55) scale(250 232)"><rect fill="#d8ddff" fill-opacity="0.501961" x="-0.5" y="-0.5" width="1" height="1" /></g>
<g transform="translate(374 97) rotate(41) scale(109 158)"><rect fill="#afb3df" fill-opacity="0.501961" x="-0.5" y="-0.5" width="1" height="1" /></g>
<g transform="translate(517 617) rotate(174) scale(312 67)"><rect fill="#bcb9c5" fill-opacity="0.501961" x="-0.5" y="-0.5" width="1" height="1" /></g>
<g transform="translate(833 11) rotate(-167) scale(885 227)"><rect fill="#000000" fill-opacity="0.501961" x="-0.5" y="-0.5" width="1" height="1" /></g>
<g transform="translate(233 98) rotate(179) scale(140 299)"><rect fill="#000000" fill-opacity="0.501961" x="-0.5" y="-0.5" width="1" height="1" /></g>
<g transform="translate(669 509) rotate(82) scale(97 629)"><rect fill="#000003" fill-opacity="0.501961" x="-0.5" y="-0.5" width="1" height="1" /></g>
<g transform="translate(175 620) rotate(281) scale(94 356)"><rect fill="#000000" fill-opacity="0.501961" x="-0.5" y="-0.5" width="1" height="1" /></g>
<g transform="translate(308 279) rotate(101) scale(9 243)"><rect fill="#ffffff" fill-opacity="0.501961" x="-0.5" y="-0.5" width="1" height="1" /></g>
<g transform="translate(81 186) rotate(373) scale(124 221)"><rect fill="#5f6496" fill-opacity="0.501961" x="-0.5" y="-0.5" width="1" height="1" /></g>
<g transform="translate(625 205) rotate(211) scale(70 162)"><rect fill="#2237b5" fill-opacity="0.501961" x="-0.5" y="-0.5" width="1" height="1" /></g>
<g transform="translate(768 605) rotate(90) scale(113 158)"><rect fill="#000000" fill-opacity="0.501961" x="-0.5" y="-0.5" width="1" height="1" /></g>
<g transform="translate(636 400) rotate(324) scale(65 122)"><rect fill="#1129ad" fill-opacity="0.501961" x="-0.5" y="-0.5" width="1" height="1" /></g>
<g transform="translate(904 154) rotate(298) scale(46 139)"><rect fill="#000003" fill-opacity="0.501961" x="-0.5" y="-0.5" width="1" height="1" /></g>
<g transform="translate(1105 499) rotate(68) scale(97 158)"><rect fill="#2a3790" fill-opacity="0.501961" x="-0.5" y="-0.5" width="1" height="1" /></g>
<g transform="translate(1199 576) rotate(20) scale(121 169)"><rect fill="#000000" fill-opacity="0.501961" x="-0.5" y="-0.5" width="1" height="1" /></g>
<g transform="translate(338 50) rotate(99) scale(108 81)"><rect fill="#727593" fill-opacity="0.501961" x="-0.5" y="-0.5" width="1" height="1" /></g>
<g transform="translate(39 416) rotate(268) scale(250 63)"><rect fill="#000003" fill-opacity="0.501961" x="-0.5" y="-0.5" width="1" height="1" /></g>
<g transform="translate(681 355) rotate(331) scale(52 126)"><rect fill="#e1e3f7" fill-opacity="0.501961" x="-0.5" y="-0.5" width="1" height="1" /></g>
<g transform="translate(496 197) rotate(21) scale(55 94)"><rect fill="#3d53d9" fill-opacity="0.501961" x="-0.5" y="-0.5" width="1" height="1" /></g>
<g transform="translate(351 232) rotate(192) scale(163 91)"><rect fill="#000508" fill-opacity="0.501961" x="-0.5" y="-0.5" width="1" height="1" /></g>
<g transform="translate(807 435) rotate(352) scale(73 26)"><rect fill="#d0d5f9" fill-opacity="0.501961" x="-0.5" y="-0.5" width="1" height="1" /></g>
<g transform="translate(857 175) rotate(206) scale(172 32)"><rect fill="#5261b8" fill-opacity="0.501961" x="-0.5" y="-0.5" width="1" height="1" /></g>
<g transform="translate(942 339) rotate(183) scale(37 86)"><rect fill="#00020e" fill-opacity="0.501961" x="-0.5" y="-0.5" width="1" height="1" /></g>
<g transform="translate(862 80) rotate(49) scale(9 157)"><rect fill="#7a86cd" fill-opacity="0.501961" x="-0.5" y="-0.5" width="1" height="1" /></g>
<g transform="translate(355 507) rotate(230) scale(7 313)"><rect fill="#8e9ae7" fill-opacity="0.501961" x="-0.5" y="-0.5" width="1" height="1" /></g>
<g transform="translate(904 372) rotate(29) scale(12 58)"><rect fill="#ebf1ff" fill-opacity="0.501961" x="-0.5" y="-0.5" width="1" height="1" /></g>
<g transform="translate(536 110) rotate(7) scale(126 52)"><rect fill="#000000" fill-opacity="0.501961" x="-0.5" y="-0.5" width="1" height="1" /></g>
<g transform="translate(876 441) rotate(144) scale(109 35)"><rect fill="#000312" fill-opacity="0.501961" x="-0.5" y="-0.5" width="1" height="1" /></g>
<g transform="translate(674 628) rotate(133) scale(116 35)"><rect fill="#000000" fill-opacity="0.501961" x="-0.5" y="-0.5" width="1" height="1" /></g>
<g transform="translate(1135 277) rotate(217) scale(400 233)"><rect fill="#000d17" fill-opacity="0.501961" x="-0.5" y="-0.5" width="1" height="1" /></g>
<g transform="translate(182 253) rotate(12) scale(152 10)"><rect fill="#b2b6d3" fill-opacity="0.501961" x="-0.5" y="-0.5" width="1" height="1" /></g>
<g transform="translate(515 500) rotate(390) scale(169 93)"><rect fill="#000d15" fill-opacity="0.501961" x="-0.5" y="-0.5" width="1" height="1" /></g>
<g transform="translate(616 439) rotate(351) scale(179 29)"><rect fill="#3649c0" fill-opacity="0.501961" x="-0.5" y="-0.5" width="1" height="1" /></g>
<g transform="translate(719 143) rotate(324) scale(56 35)"><rect fill="#000000" fill-opacity="0.501961" x="-0.5" y="-0.5" width="1" height="1" /></g>
<g transform="translate(88 313) rotate(417) scale(69 33)"><rect fill="#6872b3" fill-opacity="0.501961" x="-0.5" y="-0.5" width="1" height="1" /></g>
<g transform="translate(354 163) rotate(227) scale(48 50)"><rect fill="#9ba4d3" fill-opacity="0.501961" x="-0.5" y="-0.5" width="1" height="1" /></g>
<g transform="translate(414 403) rotate(49) scale(69 105)"><rect fill="#00080f" fill-opacity="0.501961" x="-0.5" y="-0.5" width="1" height="1" /></g>
<g transform="translate(678 582) rotate(309) scale(39 16)"><rect fill="#bdbdcf" fill-opacity="0.501961" x="-0.5" y="-0.5" width="1" height="1" /></g>
<g transform="translate(132 629) rotate(11) scale(250 126)"><rect fill="#000000" fill-opacity="0.501961" x="-0.5" y="-0.5" width="1" height="1" /></g>
<g transform="translate(572 161) rotate(261) scale(45 172)"><rect fill="#3749b3" fill-opacity="0.501961" x="-0.5" y="-0.5" width="1" height="1" /></g>
<g transform="translate(420 168) rotate(131) scale(151 52)"><rect fill="#000d19" fill-opacity="0.501961" x="-0.5" y="-0.5" width="1" height="1" /></g>
<g transform="translate(729 109) rotate(190) scale(121 10)"><rect fill="#8793e0" fill-opacity="0.501961" x="-0.5" y="-0.5" width="1" height="1" /></g>
<g transform="translate(15 275) rotate(167) scale(50 22)"><rect fill="#000000" fill-opacity="0.501961" x="-0.5" y="-0.5" width="1" height="1" /></g>
<g transform="translate(869 542) rotate(269) scale(10 321)"><rect fill="#5967c2" fill-opacity="0.501961" x="-0.5" y="-0.5" width="1" height="1" /></g>
<g transform="translate(150 109) rotate(193) scale(21 285)"><rect fill="#64698b" fill-opacity="0.501961" x="-0.5" y="-0.5" width="1" height="1" /></g>
<g transform="translate(257 88) rotate(338) scale(65 212)"><rect fill="#00070e" fill-opacity="0.501961" x="-0.5" y="-0.5" width="1" height="1" /></g>
<g transform="translate(315 590) rotate(100) scale(12 82)"><rect fill="#96949f" fill-opacity="0.501961" x="-0.5" y="-0.5" width="1" height="1" /></g>
<g transform="translate(456 156) rotate(103) scale(155 5)"><rect fill="#7483f6" fill-opacity="0.501961" x="-0.5" y="-0.5" width="1" height="1" /></g>
<g transform="translate(510 70) rotate(190) scale(165 8)"><rect fill="#828bca" fill-opacity="0.501961" x="-0.5" y="-0.5" width="1" height="1" /></g>
<g transform="translate(711 184) rotate(56) scale(17 110)"><rect fill="#c2c8f8" fill-opacity="0.501961" x="-0.5" y="-0.5" width="1" height="1" /></g>
<g transform="translate(45 44) rotate(21) scale(113 134)"><rect fill="#1b1a29" fill-opacity="0.501961" x="-0.5" y="-0.5" width="1" height="1" /></g>
<g transform="translate(693 270) rotate(194) scale(107 97)"><rect fill="#d0d2e5" fill-opacity="0.501961" x="-0.5" y="-0.5" width="1" height="1" /></g>
<g transform="translate(606 331) rotate(359) scale(58 242)"><rect fill="#3d4fb5" fill-opacity="0.501961" x="-0.5" y="-0.5" width="1" height="1" /></g>
<g transform="translate(219 573) rotate(191) scale(124 11)"><rect fill="#8f8c92" fill-opacity="0.501961" x="-0.5" y="-0.5" width="1" height="1" /></g>
<g transform="translate(669 118) rotate(278) scale(27 164)"><rect fill="#00070e" fill-opacity="0.501961" x="-0.5" y="-0.5" width="1" height="1" /></g>
<g transform="translate(627 91) rotate(11) scale(89 10)"><rect fill="#7d89d0" fill-opacity="0.501961" x="-0.5" y="-0.5" width="1" height="1" /></g>
<g transform="translate(1111 551) rotate(137) scale(163 83)"><rect fill="#1a2258" fill-opacity="0.501961" x="-0.5" y="-0.5" width="1" height="1" /></g>
<g transform="translate(651 167) rotate(237) scale(68 81)"><rect fill="#2b3da0" fill-opacity="0.501961" x="-0.5" y="-0.5" width="1" height="1" /></g>
<g transform="translate(678 458) rotate(171) scale(109 27)"><rect fill="#000d0e" fill-opacity="0.501961" x="-0.5" y="-0.5" width="1" height="1" /></g>
<g transform="translate(154 204) rotate(103) scale(76 22)"><rect fill="#000000" fill-opacity="0.501961" x="-0.5" y="-0.5" width="1" height="1" /></g>
<g transform="translate(908 307) rotate(-3) scale(29 77)"><rect fill="#b4b8d6" fill-opacity="0.501961" x="-0.5" y="-0.5" width="1" height="1" /></g>
<g transform="translate(763 138) rotate(137) scale(59 13)"><rect fill="#5d6cd1" fill-opacity="0.501961" x="-0.5" y="-0.5" width="1" height="1" /></g>
<g transform="translate(524 278) rotate(206) scale(164 176)"><rect fill="#3649b5" fill-opacity="0.501961" x="-0.5" y="-0.5" width="1" height="1" /></g>
<g transform="translate(451 464) rotate(-39) scale(123 45)"><rect fill="#000c14" fill-opacity="0.501961" x="-0.5" y="-0.5" width="1" height="1" /></g>
<g transform="translate(870 395) rotate(45) scale(31 91)"><rect fill="#b9bde4" fill-opacity="0.501961" x="-0.5" y="-0.5" width="1" height="1" /></g>
<g transform="translate(23 397) rotate(167) scale(8 213)"><rect fill="#455095" fill-opacity="0.501961" x="-0.5" y="-0.5" width="1" height="1" /></g>
<g transform="translate(1189 588) rotate(210) scale(57 153)"><rect fill="#000000" fill-opacity="0.501961" x="-0.5" y="-0.5" width="1" height="1" /></g>
<g transform="translate(722 420) rotate(208) scale(71 19)"><rect fill="#c6cbf2" fill-opacity="0.501961" x="-0.5" y="-0.5" width="1" height="1" /></g>
<g transform="translate(951 331) rotate(279) scale(88 53)"><rect fill="#031623" fill-opacity="0.501961" x="-0.5" y="-0.5" width="1" height="1" /></g>
<g transform="translate(433 50) rotate(33) scale(105 19)"><rect fill="#676d8d" fill-opacity="0.501961" x="-0.5" y="-0.5" width="1" height="1" /></g>
<g transform="translate(529 52) rotate(10) scale(144 30)"><rect fill="#00060b" fill-opacity="0.501961" x="-0.5" y="-0.5" width="1" height="1" /></g>
<g transform="translate(58 373) rotate(280) scale(80 59)"><rect fill="#00060c" fill-opacity="0.501961" x="-0.5" y="-0.5" width="1" height="1" /></g>
<g transform="translate(98 255) rotate(102) scale(128 56)"><rect fill="#555f94" fill-opacity="0.501961" x="-0.5" y="-0.5" width="1" height="1" /></g>
<g transform="translate(119 555) rotate(191) scale(109 13)"><rect fill="#767377" fill-opacity="0.501961" x="-0.5" y="-0.5" width="1" height="1" /></g>
<g transform="translate(986 595) rotate(85) scale(91 98)"><rect fill="#000103" fill-opacity="0.501961" x="-0.5" y="-0.5" width="1" height="1" /></g>
<g transform="translate(575 471) rotate(-8) scale(226 18)"><rect fill="#03121b" fill-opacity="0.501961" x="-0.5" y="-0.5" width="1" height="1" /></g>
<g transform="translate(743 463) rotate(288) scale(43 94)"><rect fill="#021425" fill-opacity="0.501961" x="-0.5" y="-0.5" width="1" height="1" /></g>
<g transform="translate(385 135) rotate(312) scale(132 42)"><rect fill="#848cb5" fill-opacity="0.501961" x="-0.5" y="-0.5" width="1" height="1" /></g>
<g transform="translate(742 339) rotate(221) scale(120 163)"><rect fill="#c1c6e7" fill-opacity="0.501961" x="-0.5" y="-0.5" width="1" height="1" /></g>
<g transform="translate(828 613) rotate(0) scale(256 127)"><rect fill="#00090f" fill-opacity="0.501961" x="-0.5" y="-0.5" width="1" height="1" /></g>
<g transform="translate(912 214) rotate(34) scale(31 51)"><rect fill="#6470b7" fill-opacity="0.501961" x="-0.5" y="-0.5" width="1" height="1" /></g>
<g transform="translate(159 526) rotate(10) scale(176 60)"><rect fill="#00080e" fill-opacity="0.501961" x="-0.5" y="-0.5" width="1" height="1" /></g>
<g transform="translate(872 460) rotate(135) scale(162 51)"><rect fill="#031622" fill-opacity="0.501961" x="-0.5" y="-0.5" width="1" height="1" /></g>
<g transform="translate(831 158) rotate(206) scale(118 27)"><rect fill="#5b66a1" fill-opacity="0.501961" x="-0.5" y="-0.5" width="1" height="1" /></g>
<g transform="translate(494 137) rotate(255) scale(26 59)"><rect fill="#00080c" fill-opacity="0.501961" x="-0.5" y="-0.5" width="1" height="1" /></g>
<g transform="translate(791 430) rotate(269) scale(34 73)"><rect fill="#b1b5d3" fill-opacity="0.501961" x="-0.5" y="-0.5" width="1" height="1" /></g>
<g transform="translate(836 35) rotate(235) scale(83 168)"><rect fill="#00080e" fill-opacity="0.501961" x="-0.5" y="-0.5" width="1" height="1" /></g>
<g transform="translate(52 126) rotate(319) scale(230 96)"><rect fill="#383e5e" fill-opacity="0.501961" x="-0.5" y="-0.5" width="1" height="1" /></g>
<g transform="translate(911 161) rotate(296) scale(37 96)"><rect fill="#000f1a" fill-opacity="0.501961" x="-0.5" y="-0.5" width="1" height="1" /></g>
<g transform="translate(953 58) rotate(319) scale(178 70)"><rect fill="#00070d" fill-opacity="0.501961" x="-0.5" y="-0.5" width="1" height="1" /></g>
<g transform="translate(1171 442) rotate(71) scale(39 37)"><rect fill="#2b327e" fill-opacity="0.501961" x="-0.5" y="-0.5" width="1" height="1" /></g>
<g transform="translate(678 419) rotate(42) scale(66 27)"><rect fill="#293ca4" fill-opacity="0.501961" x="-0.5" y="-0.5" width="1" height="1" /></g>
<g transform="translate(347 54) rotate(354) scale(100 70)"><rect fill="#606684" fill-opacity="0.501961" x="-0.5" y="-0.5" width="1" height="1" /></g>
<g transform="translate(657 544) rotate(85) scale(51 114)"><rect fill="#000f16" fill-opacity="0.501961" x="-0.5" y="-0.5" width="1" height="1" /></g>
<g transform="translate(412 335) rotate(89) scale(58 23)"><rect fill="#00121a" fill-opacity="0.501961" x="-0.5" y="-0.5" width="1" height="1" /></g>
<g transform="translate(447 240) rotate(197) scale(8 88)"><rect fill="#001020" fill-opacity="0.501961" x="-0.5" y="-0.5" width="1" height="1" /></g>
</g>
</svg>