<svg xmlns="http://www.w3.org/2000/svg" version="1.1" width="1200" height="630">
<rect x="0" y="0" width="1200" height="630" fill="#273e68" />
<g transform="scale(1.000000) translate(0.5 0.5)">
<polygon fill="#71a7ff" fill-opacity="0.501961" points="601,513 196,473 636,238" />
<polygon fill="#76a5e4" fill-opacity="0.501961" points="87,86 565,83 83,435" />
<polygon fill="#059bff" fill-opacity="0.501961" points="877,343 897,41 566,-16" />
<polygon fill="#040000" fill-opacity="0.501961" points="863,627 160,638 -2,372" />
<polygon fill="#070000" fill-opacity="0.501961" points="873,422 903,-16 1215,5" />
<polygon fill="#0690ff" fill-opacity="0.501961" points="712,552 969,601 1009,301" />
<polygon fill="#170208" fill-opacity="0.501961" points="559,-16 906,380 677,580" />
<polygon fill="#000000" fill-opacity="0.501961" points="1215,618 969,645 1004,364" />
<polygon fill="#4973f1" fill-opacity="0.501961" points="424,297 205,483 651,477" />
<polygon fill="#000000" fill-opacity="0.501961" points="984,-16 1215,-16 1202,256" />
<polygon fill="#6c93d0" fill-opacity="0.501961" points="529,202 403,37 198,253" />
<polygon fill="#100000" fill-opacity="0.501961" points="415,223 275,248 243,463" />
<polygon fill="#2f4dc1" fill-opacity="0.501961" points="957,334 1151,492 1152,165" />
<polygon fill="#93e3e1" fill-opacity="0.501961" points="276,237 93,413 258,349" />
<polygon fill="#120711" fill-opacity="0.501961" points="598,454 406,645 803,622" />
<polygon fill="#75acff" fill-opacity="0.501961" points="588,241 411,462 649,389" />
<polygon fill="#130a0f" fill-opacity="0.501961" points="568,-16 656,107 179,2" />
<polygon fill="#5b87ae" fill-opacity="0.501961" points="-16,320 97,416 80,105" />
<polygon fill="#160002" fill-opacity="0.501961" points="486,346 443,178 594,240" />
<polygon fill="#d5fffd" fill-opacity="0.501961" points="431,189 476,267 475,356" />
<polygon fill="#9eb79a" fill-opacity="0.501961" points="298,55 174,11 389,233" />
<polygon fill="#5785da" fill-opacity="0.501961" points="397,84 486,-16 417,313" />
<polygon fill="#150005" fill-opacity="0.501961" points="635,299 575,88 480,132" />
<polygon fill="#1d8bff" fill-opacity="0.501961" points="886,142 877,342 676,111" />
<polygon fill="#040002" fill-opacity="0.501961" points="1215,484 909,590 1198,645" />
<polygon fill="#0b5cab" fill-opacity="0.501961" points="983,593 822,645 650,490" />
<polygon fill="#150811" fill-opacity="0.501961" points="394,316 68,419 120,552" />
<polygon fill="#1b0d19" fill-opacity="0.501961" points="336,370 419,297 389,164" />
<polygon fill="#23314d" fill-opacity="0.501961" points="-16,1 104,229 252,-10" />
<polygon fill="#3558c5" fill-opacity="0.501961" points="434,295 209,473 483,508" />
<polygon fill="#050000" fill-opacity="0.501961" points="371,90 236,13 350,-16" />
<polygon fill="#130f10" fill-opacity="0.501961" points="225,472 -16,628 528,631" />
<polygon fill="#bee4d1" fill-opacity="0.501961" points="385,222 356,163 264,244" />
<polygon fill="#365ad4" fill-opacity="0.501961" points="1044,292 998,223 1106,192" />
<polygon fill="#070000" fill-opacity="0.501961" points="1097,-5 1199,-16 1201,331" />
<polygon fill="#0b0000" fill-opacity="0.501961" points="-3,441 -6,334 119,438" />
<polygon fill="#4b74c3" fill-opacity="0.501961" points="356,-16 544,216 377,147" />
<polygon fill="#084a8e" fill-opacity="0.501961" points="874,104 912,-16 540,-9" />
<polygon fill="#00000a" fill-opacity="0.501961" points="-16,92 151,-16 -16,-8" />
<polygon fill="#4d766b" fill-opacity="0.501961" points="57,452 144,609 -16,501" />
<polygon fill="#6798eb" fill-opacity="0.501961" points="624,427 633,307 400,494" />
<polygon fill="#140c17" fill-opacity="0.501961" points="1139,180 896,5 940,234" />
<polygon fill="#3b5895" fill-opacity="0.501961" points="255,5 116,405 -16,180" />
<polygon fill="#1b111f" fill-opacity="0.501961" points="638,361 614,446 741,541" />
<polygon fill="#197fe5" fill-opacity="0.501961" points="992,446 983,330 716,544" />
<polygon fill="#5c88d4" fill-opacity="0.501961" points="595,512 481,358 405,497" />
<polygon fill="#000000" fill-opacity="0.501961" points="1200,458 1206,376 1161,313" />
<polygon fill="#19152d" fill-opacity="0.501961" points="443,184 488,349 530,304" />
<polygon fill="#110911" fill-opacity="0.501961" points="1012,380 1215,586 971,645" />
<polygon fill="#aeffff" fill-opacity="0.501961" points="416,291 493,356 443,333" />
<polygon fill="#110000" fill-opacity="0.501961" points="1013,258 959,307 1044,287" />
<polygon fill="#094c88" fill-opacity="0.501961" points="988,476 972,645 775,617" />
<polygon fill="#43626c" fill-opacity="0.501961" points="1025,120 951,29 1123,153" />
<polygon fill="#4767ef" fill-opacity="0.501961" points="714,541 609,462 671,486" />
<polygon fill="#09000e" fill-opacity="0.501961" points="392,177 369,189 413,260" />
<polygon fill="#171320" fill-opacity="0.501961" points="729,544 486,512 806,645" />
<polygon fill="#7badfc" fill-opacity="0.501961" points="403,198 432,196 421,307" />
<polygon fill="#3655b9" fill-opacity="0.501961" points="951,314 1079,275 1081,446" />
<polygon fill="#0d0515" fill-opacity="0.501961" points="272,240 353,240 273,296" />
<polygon fill="#62756a" fill-opacity="0.501961" points="363,87 191,39 189,-16" />
<polygon fill="#1e337c" fill-opacity="0.501961" points="1154,255 1215,579 1101,469" />
<polygon fill="#2c4539" fill-opacity="0.501961" points="-16,479 146,619 -10,613" />
<polygon fill="#110c17" fill-opacity="0.501961" points="489,-16 470,82 650,82" />
<polygon fill="#1b050a" fill-opacity="0.501961" points="436,216 465,327 426,295" />
<polygon fill="#19070d" fill-opacity="0.501961" points="942,320 899,395 972,333" />
<polygon fill="#6799fe" fill-opacity="0.501961" points="451,393 631,316 588,244" />
<polygon fill="#5b8ba2" fill-opacity="0.501961" points="96,414 -16,316 253,351" />
<polygon fill="#0b060c" fill-opacity="0.501961" points="1107,-3 1084,125 911,-1" />
<polygon fill="#6697f1" fill-opacity="0.501961" points="541,216 483,139 435,171" />
<polygon fill="#030008" fill-opacity="0.501961" points="975,60 1015,119 1094,146" />
<polygon fill="#160f1b" fill-opacity="0.501961" points="571,483 676,584 600,457" />
<polygon fill="#2e4cac" fill-opacity="0.501961" points="427,496 208,477 338,388" />
<polygon fill="#3d5c9c" fill-opacity="0.501961" points="486,81 316,81 347,150" />
<polygon fill="#191728" fill-opacity="0.501961" points="541,503 824,645 174,545" />
<polygon fill="#bff0eb" fill-opacity="0.501961" points="468,351 486,344 463,279" />
<polygon fill="#4a72c2" fill-opacity="0.501961" points="116,391 335,177 152,184" />
<polygon fill="#598a90" fill-opacity="0.501961" points="896,0 971,54 941,17" />
<polygon fill="#080611" fill-opacity="0.501961" points="144,645 398,634 112,539" />
<polygon fill="#7dbdd7" fill-opacity="0.501961" points="265,298 153,386 257,349" />
<polygon fill="#161525" fill-opacity="0.501961" points="172,553 28,441 296,337" />
<polygon fill="#254495" fill-opacity="0.501961" points="998,226 1151,175 1202,340" />
<polygon fill="#4f787f" fill-opacity="0.501961" points="51,451 -16,438 114,546" />
<polygon fill="#3e66e4" fill-opacity="0.501961" points="317,392 481,373 420,301" />
<polygon fill="#22223b" fill-opacity="0.501961" points="593,242 446,177 482,337" />
<polygon fill="#b4dee6" fill-opacity="0.501961" points="442,178 464,272 437,222" />
<polygon fill="#355080" fill-opacity="0.501961" points="76,61 266,86 -16,287" />
<polygon fill="#090308" fill-opacity="0.501961" points="477,-12 419,54 354,-16" />
<polygon fill="#0b050c" fill-opacity="0.501961" points="293,54 214,-16 364,55" />
<polygon fill="#1c1b2e" fill-opacity="0.501961" points="486,137 628,52 561,244" />
<polygon fill="#b9efec" fill-opacity="0.501961" points="427,303 422,261 414,302" />
<polygon fill="#1265b3" fill-opacity="0.501961" points="856,582 708,526 792,616" />
<polygon fill="#105295" fill-opacity="0.501961" points="901,16 640,71 564,-16" />
<polygon fill="#22223b" fill-opacity="0.501961" points="417,267 254,412 396,196" />
<polygon fill="#030305" fill-opacity="0.501961" points="1215,549 1196,645 982,627" />
<polygon fill="#166cc7" fill-opacity="0.501961" points="888,192 656,93 876,71" />
<polygon fill="#1f1f36" fill-opacity="0.501961" points="576,191 649,361 630,64" />
<polygon fill="#5f989f" fill-opacity="0.501961" points="1129,156 1149,181 1096,145" />
<polygon fill="#1d1d32" fill-opacity="0.501961" points="605,441 916,381 729,534" />
<polygon fill="#699dff" fill-opacity="0.501961" points="636,351 619,290 617,414" />
<polygon fill="#121d1a" fill-opacity="0.501961" points="-8,641 -9,546 88,645" />
</g>
</svg>