<svg xmlns="http://www.w3.org/2000/svg" version="1.1" width="1200" height="630">
<rect x="0" y="0" width="1200" height="630" fill="#222132" />
<g transform="scale(1.000000) translate(0.5 0.5)">
<g transform="translate(84.805072 223.102534) rotate(265.308583) scale(156.158250 84.957497)"><ellipse fill="#f36b2a" fill-opacity="0.501961" cx="0" cy="0" rx="1" ry="1" /></g>
<g transform="translate(715.068324 90.508907) rotate(192.328937) scale(130.281964 110.403185)"><ellipse fill="#745ff1" fill-opacity="0.501961" cx="0" cy="0" rx="1" ry="1" /></g>
<g transform="translate(706.406086 416.026338) rotate(-0.158291) scale(154.721133 7.924805)"><ellipse fill="#ff985a" fill-opacity="0.501961" cx="0" cy="0" rx="1" ry="1" /></g>
<g transform="translate(1104.103633 122.350921) rotate(117.742052) scale(150.078296 254.581961)"><ellipse fill="#00090d" fill-opacity="0.501961" cx="0" cy="0" rx="1" ry="1" /></g>
<g transform="translate(36.114054 350.414155) rotate(175.806819) scale(33.608834 57.334114)"><ellipse fill="#000116" fill-opacity="0.501961" cx="0" cy="0" rx="1" ry="1" /></g>
<g transform="translate(304.293660 257.104525) rotate(269.679421) scale(188.145489 6.838326)"><ellipse fill="#ff8a49" fill-opacity="0.501961" cx="0" cy="0" rx="1" ry="1" /></g>
<g transform="translate(456.441405 417.267420) rotate(89.850793) scale(6.677306 138.406780)"><ellipse fill="#ff9e58" fill-opacity="0.501961" cx="0" cy="0" rx="1" ry="1" /></g>
<g transform="translate(761.439927 182.585293) rotate(120.286612) scale(26.317305 48.488484)"><ellipse fill="#7764ec" fill-opacity="0.501961" cx="0" cy="0" rx="1" ry="1" /></g>
<g transform="translate(208.301136 558.739550) rotate(-79.662031) scale(150.435215 417.405905)"><ellipse fill="#000c14" fill-opacity="0.501961" cx="0" cy="0" rx="1" ry="1" /></g>
<g transform="translate(86.301171 0.000000) rotate(282.267683) scale(91.499978 217.251172)"><ellipse fill="#000000" fill-opacity="0.501961" cx="0" cy="0" rx="1" ry="1" /></g>
<g transform="translate(932.708873 416.613153) rotate(-1.080446) scale(87.831756 6.215650)"><ellipse fill="#ff9048" fill-opacity="0.501961" cx="0" cy="0" rx="1" ry="1" /></g>
<g transform="translate(604.181264 118.273776) rotate(263.568013) scale(29.873742 38.428410)"><ellipse fill="#6a5ad5" fill-opacity="0.501961" cx="0" cy="0" rx="1" ry="1" /></g>
<g transform="translate(111.654283 304.537594) rotate(196.489811) scale(34.448089 92.692143)"><ellipse fill="#d4683e" fill-opacity="0.501961" cx="0" cy="0" rx="1" ry="1" /></g>
<g transform="translate(143.482708 176.652561) rotate(294.611951) scale(42.211483 36.174075)"><ellipse fill="#ce6337" fill-opacity="0.501961" cx="0" cy="0" rx="1" ry="1" /></g>
<g transform="translate(179.745013 255.006770) rotate(188.243990) scale(27.907855 55.610119)"><ellipse fill="#001329" fill-opacity="0.501961" cx="0" cy="0" rx="1" ry="1" /></g>
<g transform="translate(728.453582 295.617667) rotate(277.422149) scale(3.686074 55.553444)"><ellipse fill="#ff9159" fill-opacity="0.501961" cx="0" cy="0" rx="1" ry="1" /></g>
<g transform="translate(813.111340 24.359108) rotate(280.340529) scale(83.090583 52.113559)"><ellipse fill="#433787" fill-opacity="0.501961" cx="0" cy="0" rx="1" ry="1" /></g>
<g transform="translate(1153.348248 454.260828) rotate(241.920790) scale(221.037452 94.208471)"><ellipse fill="#0a1017" fill-opacity="0.501961" cx="0" cy="0" rx="1" ry="1" /></g>
<g transform="translate(657.099962 188.653476) rotate(109.694611) scale(18.112941 140.547624)"><ellipse fill="#0a202b" fill-opacity="0.501961" cx="0" cy="0" rx="1" ry="1" /></g>
<g transform="translate(673.599605 478.694918) rotate(298.345575) scale(3.811683 68.069316)"><ellipse fill="#f87c49" fill-opacity="0.501961" cx="0" cy="0" rx="1" ry="1" /></g>
<g transform="translate(1005.316533 553.931193) rotate(217.218396) scale(42.697390 109.782901)"><ellipse fill="#00080d" fill-opacity="0.501961" cx="0" cy="0" rx="1" ry="1" /></g>
<g transform="translate(821.419948 299.896855) rotate(87.650088) scale(3.499384 53.682221)"><ellipse fill="#ff8b53" fill-opacity="0.501961" cx="0" cy="0" rx="1" ry="1" /></g>
<g transform="translate(18.449627 133.168037) rotate(154.615000) scale(118.012279 44.027022)"><ellipse fill="#6e341b" fill-opacity="0.501961" cx="0" cy="0" rx="1" ry="1" /></g>
<g transform="translate(715.012291 145.211668) rotate(20.220254) scale(102.720873 44.919197)"><ellipse fill="#6152bd" fill-opacity="0.501961" cx="0" cy="0" rx="1" ry="1" /></g>
<g transform="translate(969.898249 156.674172) rotate(288.129786) scale(76.736156 4.728537)"><ellipse fill="#ba6040" fill-opacity="0.501961" cx="0" cy="0" rx="1" ry="1" /></g>
<g transform="translate(736.444228 17.939983) rotate(271.792407) scale(42.010629 129.558923)"><ellipse fill="#372e6b" fill-opacity="0.501961" cx="0" cy="0" rx="1" ry="1" /></g>
<g transform="translate(400.592714 50.895901) rotate(380.327761) scale(87.247413 119.646500)"><ellipse fill="#02121d" fill-opacity="0.501961" cx="0" cy="0" rx="1" ry="1" /></g>
<g transform="translate(333.052668 415.315665) rotate(267.800756) scale(4.921874 36.221157)"><ellipse fill="#ff8649" fill-opacity="0.501961" cx="0" cy="0" rx="1" ry="1" /></g>
<g transform="translate(1057.855648 417.236487) rotate(86.816254) scale(4.299060 87.210288)"><ellipse fill="#ae5737" fill-opacity="0.501961" cx="0" cy="0" rx="1" ry="1" /></g>
<g transform="translate(1057.588978 599.519390) rotate(130.619685) scale(92.903937 27.125878)"><ellipse fill="#112b71" fill-opacity="0.501961" cx="0" cy="0" rx="1" ry="1" /></g>
<g transform="translate(622.106016 373.099922) rotate(317.960513) scale(51.773451 5.119472)"><ellipse fill="#5656bf" fill-opacity="0.501961" cx="0" cy="0" rx="1" ry="1" /></g>
<g transform="translate(304.000937 50.109523) rotate(0.130134) scale(5.507906 133.916973)"><ellipse fill="#c9592a" fill-opacity="0.501961" cx="0" cy="0" rx="1" ry="1" /></g>
<g transform="translate(76.007281 589.756563) rotate(26.294148) scale(232.681073 71.026386)"><ellipse fill="#030407" fill-opacity="0.501961" cx="0" cy="0" rx="1" ry="1" /></g>
<g transform="translate(542.661678 416.223829) rotate(180.074717) scale(151.656449 5.580860)"><ellipse fill="#ff7b51" fill-opacity="0.501961" cx="0" cy="0" rx="1" ry="1" /></g>
<g transform="translate(845.499968 138.445604) rotate(381.712496) scale(19.084655 168.600795)"><ellipse fill="#0a1a28" fill-opacity="0.501961" cx="0" cy="0" rx="1" ry="1" /></g>
<g transform="translate(864.079142 561.995263) rotate(26.560530) scale(68.544605 154.818842)"><ellipse fill="#0b1522" fill-opacity="0.501961" cx="0" cy="0" rx="1" ry="1" /></g>
<g transform="translate(921.497443 258.921554) rotate(41.690996) scale(4.969568 51.327634)"><ellipse fill="#ad5e41" fill-opacity="0.501961" cx="0" cy="0" rx="1" ry="1" /></g>
<g transform="translate(695.847840 586.913314) rotate(177.499646) scale(86.040258 76.281570)"><ellipse fill="#061425" fill-opacity="0.501961" cx="0" cy="0" rx="1" ry="1" /></g>
<g transform="translate(28.375568 334.981409) rotate(53.969542) scale(39.612014 35.564843)"><ellipse fill="#001321" fill-opacity="0.501961" cx="0" cy="0" rx="1" ry="1" /></g>
<g transform="translate(777.571805 541.307268) rotate(124.105994) scale(2.406524 97.294470)"><ellipse fill="#c9633b" fill-opacity="0.501961" cx="0" cy="0" rx="1" ry="1" /></g>
<g transform="translate(69.790688 246.599999) rotate(71.245971) scale(41.635879 94.615850)"><ellipse fill="#ac5433" fill-opacity="0.501961" cx="0" cy="0" rx="1" ry="1" /></g>
<g transform="translate(1164.860117 374.008864) rotate(14.442722) scale(5.034003 76.038244)"><ellipse fill="#8f472a" fill-opacity="0.501961" cx="0" cy="0" rx="1" ry="1" /></g>
<g transform="translate(544.291248 43.986244) rotate(298.468111) scale(93.607316 49.302321)"><ellipse fill="#03131f" fill-opacity="0.501961" cx="0" cy="0" rx="1" ry="1" /></g>
<g transform="translate(400.446278 491.634774) rotate(195.352118) scale(258.082548 47.391669)"><ellipse fill="#172438" fill-opacity="0.501961" cx="0" cy="0" rx="1" ry="1" /></g>
<g transform="translate(811.266502 416.203500) rotate(180.005331) scale(170.756049 5.285975)"><ellipse fill="#ff7647" fill-opacity="0.501961" cx="0" cy="0" rx="1" ry="1" /></g>
<g transform="translate(235.088924 140.362683) rotate(340.550526) scale(56.551682 111.024960)"><ellipse fill="#071624" fill-opacity="0.501961" cx="0" cy="0" rx="1" ry="1" /></g>
<g transform="translate(1099.683005 5.647474) rotate(207.850715) scale(374.247829 70.650514)"><ellipse fill="#010307" fill-opacity="0.501961" cx="0" cy="0" rx="1" ry="1" /></g>
<g transform="translate(577.143560 442.105794) rotate(103.312404) scale(42.145126 3.360527)"><ellipse fill="#655ad2" fill-opacity="0.501961" cx="0" cy="0" rx="1" ry="1" /></g>
<g transform="translate(979.377732 470.621170) rotate(214.050033) scale(3.188301 36.469995)"><ellipse fill="#d36534" fill-opacity="0.501961" cx="0" cy="0" rx="1" ry="1" /></g>
<g transform="translate(135.502074 130.860291) rotate(325.629211) scale(17.509267 74.982171)"><ellipse fill="#9b4c2e" fill-opacity="0.501961" cx="0" cy="0" rx="1" ry="1" /></g>
<g transform="translate(189.193516 300.969329) rotate(-12.452019) scale(31.605470 82.486883)"><ellipse fill="#0a1b2c" fill-opacity="0.501961" cx="0" cy="0" rx="1" ry="1" /></g>
<g transform="translate(1167.813747 417.322514) rotate(92.711749) scale(2.400289 100.735715)"><ellipse fill="#b35630" fill-opacity="0.501961" cx="0" cy="0" rx="1" ry="1" /></g>
<g transform="translate(302.790877 396.524715) rotate(179.359390) scale(4.739319 29.367281)"><ellipse fill="#ff7848" fill-opacity="0.501961" cx="0" cy="0" rx="1" ry="1" /></g>
<g transform="translate(1015.480032 432.824359) rotate(329.605169) scale(24.457961 3.129465)"><ellipse fill="#db6937" fill-opacity="0.501961" cx="0" cy="0" rx="1" ry="1" /></g>
<g transform="translate(888.771796 286.962962) rotate(65.293919) scale(2.494048 28.791186)"><ellipse fill="#ff834d" fill-opacity="0.501961" cx="0" cy="0" rx="1" ry="1" /></g>
<g transform="translate(122.852620 333.540197) rotate(385.781659) scale(24.351016 52.651534)"><ellipse fill="#c05f3b" fill-opacity="0.501961" cx="0" cy="0" rx="1" ry="1" /></g>
<g transform="translate(303.884847 307.440588) rotate(90.103459) scale(64.755220 4.589042)"><ellipse fill="#ff804d" fill-opacity="0.501961" cx="0" cy="0" rx="1" ry="1" /></g>
<g transform="translate(1199.000000 269.607846) rotate(290.001650) scale(93.341447 2.945674)"><ellipse fill="#ab512d" fill-opacity="0.501961" cx="0" cy="0" rx="1" ry="1" /></g>
<g transform="translate(1195.020145 596.545650) rotate(39.654636) scale(60.566917 45.548678)"><ellipse fill="#020100" fill-opacity="0.501961" cx="0" cy="0" rx="1" ry="1" /></g>
<g transform="translate(677.111595 204.623268) rotate(20.555337) scale(221.351180 26.525082)"><ellipse fill="#142439" fill-opacity="0.501961" cx="0" cy="0" rx="1" ry="1" /></g>
<g transform="translate(36.764528 39.353031) rotate(352.694690) scale(114.773219 40.144979)"><ellipse fill="#000509" fill-opacity="0.501961" cx="0" cy="0" rx="1" ry="1" /></g>
<g transform="translate(741.709125 390.303014) rotate(-2.028527) scale(139.913992 21.391921)"><ellipse fill="#10253c" fill-opacity="0.501961" cx="0" cy="0" rx="1" ry="1" /></g>
<g transform="translate(573.484189 504.887513) rotate(350.854037) scale(3.835100 39.216197)"><ellipse fill="#574db4" fill-opacity="0.501961" cx="0" cy="0" rx="1" ry="1" /></g>
<g transform="translate(1149.876724 536.785809) rotate(182.144506) scale(72.987966 6.555092)"><ellipse fill="#422d6e" fill-opacity="0.501961" cx="0" cy="0" rx="1" ry="1" /></g>
<g transform="translate(747.185104 521.529411) rotate(210.890532) scale(69.331389 2.585179)"><ellipse fill="#cd663d" fill-opacity="0.501961" cx="0" cy="0" rx="1" ry="1" /></g>
<g transform="translate(599.591442 113.981506) rotate(74.864319) scale(36.155526 23.378130)"><ellipse fill="#594bac" fill-opacity="0.501961" cx="0" cy="0" rx="1" ry="1" /></g>
<g transform="translate(953.800251 524.980288) rotate(200.146680) scale(3.681822 60.153058)"><ellipse fill="#a24e2a" fill-opacity="0.501961" cx="0" cy="0" rx="1" ry="1" /></g>
<g transform="translate(863.468262 613.763023) rotate(46.287716) scale(63.531555 3.422037)"><ellipse fill="#90442b" fill-opacity="0.501961" cx="0" cy="0" rx="1" ry="1" /></g>
<g transform="translate(6.855318 118.397234) rotate(76.033001) scale(34.785830 108.810624)"><ellipse fill="#69331f" fill-opacity="0.501961" cx="0" cy="0" rx="1" ry="1" /></g>
<g transform="translate(776.622859 194.771598) rotate(233.950714) scale(30.787746 14.469700)"><ellipse fill="#6354c3" fill-opacity="0.501961" cx="0" cy="0" rx="1" ry="1" /></g>
<g transform="translate(1005.338901 221.468685) rotate(132.130691) scale(95.312854 43.989707)"><ellipse fill="#101e31" fill-opacity="0.501961" cx="0" cy="0" rx="1" ry="1" /></g>
<g transform="translate(941.088182 171.845900) rotate(197.603754) scale(19.723415 93.500042)"><ellipse fill="#101e31" fill-opacity="0.501961" cx="0" cy="0" rx="1" ry="1" /></g>
<g transform="translate(600.106640 261.296756) rotate(-48.237652) scale(34.901852 188.859626)"><ellipse fill="#132840" fill-opacity="0.501961" cx="0" cy="0" rx="1" ry="1" /></g>
<g transform="translate(1113.647384 629.000000) rotate(139.974382) scale(48.544803 61.120012)"><ellipse fill="#071b49" fill-opacity="0.501961" cx="0" cy="0" rx="1" ry="1" /></g>
<g transform="translate(1145.368198 492.529469) rotate(89.763118) scale(44.163988 4.381509)"><ellipse fill="#813d21" fill-opacity="0.501961" cx="0" cy="0" rx="1" ry="1" /></g>
<g transform="translate(1007.594165 478.505808) rotate(-50.931814) scale(55.321728 25.294145)"><ellipse fill="#071522" fill-opacity="0.501961" cx="0" cy="0" rx="1" ry="1" /></g>
<g transform="translate(441.265569 300.722685) rotate(99.731261) scale(110.200351 133.588315)"><ellipse fill="#11273e" fill-opacity="0.501961" cx="0" cy="0" rx="1" ry="1" /></g>
<g transform="translate(1018.074645 302.673527) rotate(138.339054) scale(128.879307 90.107027)"><ellipse fill="#101e2f" fill-opacity="0.501961" cx="0" cy="0" rx="1" ry="1" /></g>
<g transform="translate(756.195167 298.113674) rotate(183.165008) scale(98.190311 1.926863)"><ellipse fill="#f0764e" fill-opacity="0.501961" cx="0" cy="0" rx="1" ry="1" /></g>
<g transform="translate(885.365612 136.072869) rotate(58.134024) scale(53.074530 61.294205)"><ellipse fill="#101d2d" fill-opacity="0.501961" cx="0" cy="0" rx="1" ry="1" /></g>
<g transform="translate(636.148204 603.345848) rotate(305.262891) scale(3.523738 44.608796)"><ellipse fill="#433984" fill-opacity="0.501961" cx="0" cy="0" rx="1" ry="1" /></g>
<g transform="translate(372.998169 416.281425) rotate(179.210341) scale(73.476363 5.518650)"><ellipse fill="#f16d44" fill-opacity="0.501961" cx="0" cy="0" rx="1" ry="1" /></g>
<g transform="translate(873.195211 292.981267) rotate(167.039542) scale(22.726103 2.418738)"><ellipse fill="#f5784b" fill-opacity="0.501961" cx="0" cy="0" rx="1" ry="1" /></g>
<g transform="translate(853.698957 542.745237) rotate(204.067952) scale(3.876648 38.024952)"><ellipse fill="#463d8d" fill-opacity="0.501961" cx="0" cy="0" rx="1" ry="1" /></g>
<g transform="translate(587.987983 413.175468) rotate(28.604427) scale(3.616384 39.635165)"><ellipse fill="#5c50ae" fill-opacity="0.501961" cx="0" cy="0" rx="1" ry="1" /></g>
<g transform="translate(471.202736 441.695268) rotate(1.819255) scale(104.372397 20.587958)"><ellipse fill="#0f2238" fill-opacity="0.501961" cx="0" cy="0" rx="1" ry="1" /></g>
<g transform="translate(1182.151575 483.478867) rotate(96.164265) scale(53.027730 36.650777)"><ellipse fill="#030a13" fill-opacity="0.501961" cx="0" cy="0" rx="1" ry="1" /></g>
<g transform="translate(85.140410 293.690205) rotate(264.849529) scale(91.126115 26.952360)"><ellipse fill="#a85334" fill-opacity="0.501961" cx="0" cy="0" rx="1" ry="1" /></g>
<g transform="translate(709.463874 445.796323) rotate(272.788422) scale(24.994840 90.528737)"><ellipse fill="#0f2338" fill-opacity="0.501961" cx="0" cy="0" rx="1" ry="1" /></g>
<g transform="translate(53.316057 346.156867) rotate(348.635002) scale(14.767304 53.833256)"><ellipse fill="#071726" fill-opacity="0.501961" cx="0" cy="0" rx="1" ry="1" /></g>
<g transform="translate(128.972370 175.827053) rotate(172.268980) scale(54.721901 29.843231)"><ellipse fill="#a35133" fill-opacity="0.501961" cx="0" cy="0" rx="1" ry="1" /></g>
<g transform="translate(930.084674 250.544286) rotate(34.555995) scale(2.921216 30.625779)"><ellipse fill="#d96c43" fill-opacity="0.501961" cx="0" cy="0" rx="1" ry="1" /></g>
<g transform="translate(791.524888 148.409294) rotate(367.178913) scale(26.057784 64.228330)"><ellipse fill="#5a4caf" fill-opacity="0.501961" cx="0" cy="0" rx="1" ry="1" /></g>
<g transform="translate(939.756800 569.839808) rotate(106.305607) scale(64.834280 2.758393)"><ellipse fill="#994723" fill-opacity="0.501961" cx="0" cy="0" rx="1" ry="1" /></g>
<g transform="translate(945.140941 224.176967) rotate(206.303658) scale(2.569818 41.861037)"><ellipse fill="#c76540" fill-opacity="0.501961" cx="0" cy="0" rx="1" ry="1" /></g>
<g transform="translate(612.091809 112.556488) rotate(336.995055) scale(53.007209 24.602340)"><ellipse fill="#5347a2" fill-opacity="0.501961" cx="0" cy="0" rx="1" ry="1" /></g>
<g transform="translate(208.528779 373.422008) rotate(171.103502) scale(84.052255 43.771503)"><ellipse fill="#0c1c2c" fill-opacity="0.501961" cx="0" cy="0" rx="1" ry="1" /></g>
<g transform="translate(593.710528 560.720010) rotate(328.104908) scale(3.124024 34.111996)"><ellipse fill="#5043a0" fill-opacity="0.501961" cx="0" cy="0" rx="1" ry="1" /></g>
<g transform="translate(903.092702 609.754378) rotate(286.486777) scale(80.468295 21.547176)"><ellipse fill="#070d15" fill-opacity="0.501961" cx="0" cy="0" rx="1" ry="1" /></g>
<g transform="translate(231.417526 243.473834) rotate(235.425665) scale(79.003776 58.649640)"><ellipse fill="#121f2f" fill-opacity="0.501961" cx="0" cy="0" rx="1" ry="1" /></g>
</g>
</svg>