<svg xmlns="http://www.w3.org/2000/svg" version="1.1" width="1200" height="630">
<rect x="0" y="0" width="1200" height="630" fill="#181e1e" />
<g transform="scale(1.000000) translate(0.5 0.5)">
<polygon fill="#adf1ef" fill-opacity="0.501961" points="807.686931,379.467749,1194.133333,291.585020,1215.000000,532.334430,875.411053,476.826511" />
<polygon fill="#c4ffff" fill-opacity="0.501961" points="683.101130,208.754871,549.726090,311.931018,660.910822,103.569331,829.011012,94.526572" />
<polygon fill="#b5ffff" fill-opacity="0.501961" points="983.855239,369.903613,715.458638,301.958132,716.692406,285.234392,948.383766,345.985401" />
<polygon fill="#000000" fill-opacity="0.501961" points="972.506086,355.209818,1079.907472,323.067505,1215.000000,-16.000000,679.065405,209.665392" />
<polygon fill="#8fb5b8" fill-opacity="0.501961" points="1137.984155,255.381477,1183.339951,293.456139,1017.098355,462.769349,971.083519,420.016536" />
<polygon fill="#4c5e60" fill-opacity="0.501961" points="1210.943816,396.417552,1215.000000,509.792312,1143.748223,577.101482,1001.717449,489.812233" />
<polygon fill="#70beb6" fill-opacity="0.501961" points="592.634871,518.824900,595.710418,275.204884,604.347079,348.651697,603.406581,549.354008" />
<polygon fill="#070202" fill-opacity="0.501961" points="857.891036,487.057241,800.791939,326.860059,614.398702,265.645421,596.765238,645.000000" />
<polygon fill="#000000" fill-opacity="0.501961" points="-16.000000,-1.906499,14.080637,79.896438,353.403554,458.120172,743.896316,-16.000000" />
<polygon fill="#000000" fill-opacity="0.501961" points="1157.020296,263.626463,558.481752,-16.000000,1205.509309,-7.245716,1215.000000,338.769498" />
<polygon fill="#2e6b64" fill-opacity="0.501961" points="794.025666,645.000000,943.134024,645.000000,867.995109,561.427539,794.757286,486.316644" />
<polygon fill="#73b8ae" fill-opacity="0.501961" points="818.089856,369.064654,887.223056,478.990798,964.378636,504.573552,1008.382274,356.947379" />
<polygon fill="#000000" fill-opacity="0.501961" points="968.201159,627.212526,1061.829836,509.374624,1031.848948,476.742736,967.803365,501.718552" />
<polygon fill="#7fd2c7" fill-opacity="0.501961" points="591.959231,235.821074,516.722931,258.381716,789.369666,120.219921,561.100960,304.314387" />
<polygon fill="#000000" fill-opacity="0.501961" points="-16.000000,632.992543,-10.328600,95.770929,404.018509,501.762099,325.337439,633.442043" />
<polygon fill="#8fb8ba" fill-opacity="0.501961" points="226.456213,353.174061,94.564517,163.720334,185.307081,278.477323,221.933771,364.800893" />
<polygon fill="#57948e" fill-opacity="0.501961" points="302.790105,534.366383,292.225354,545.636112,482.280460,546.695386,616.693286,538.782197" />
<polygon fill="#608383" fill-opacity="0.501961" points="963.868463,645.000000,1072.624122,524.470091,1148.864727,589.882291,1092.597694,465.765070" />
<polygon fill="#2b655e" fill-opacity="0.501961" points="436.092667,564.613041,526.114491,645.000000,340.435719,637.692334,341.682969,595.872823" />
<polygon fill="#88c8c5" fill-opacity="0.501961" points="500.309355,448.138301,467.432269,362.063395,480.724393,299.768638,474.630749,401.989665" />
<polygon fill="#000000" fill-opacity="0.501961" points="1206.968883,572.369514,1046.133667,560.357744,980.174256,645.000000,1205.185101,631.108234" />
<polygon fill="#000000" fill-opacity="0.501961" points="953.015939,645.000000,808.500709,500.019312,849.672959,450.950129,952.662616,514.602945" />
<polygon fill="#78adab" fill-opacity="0.501961" points="553.931499,232.651610,502.532431,282.683328,465.399652,352.196609,491.751538,280.161363" />
<polygon fill="#689795" fill-opacity="0.501961" points="584.205782,495.995399,652.074336,484.903941,541.740779,484.805782,487.092471,434.683117" />
<polygon fill="#6c898c" fill-opacity="0.501961" points="1059.549712,537.191264,1066.004981,327.060983,1134.335124,260.748157,1215.000000,326.019400" />
<polygon fill="#77c0b7" fill-opacity="0.501961" points="662.746719,104.162934,553.270355,309.457594,770.101909,121.594259,675.997623,99.546624" />
<polygon fill="#000000" fill-opacity="0.501961" points="794.377423,632.648746,789.804031,544.192492,418.341538,548.197092,530.095428,645.000000" />
<polygon fill="#578581" fill-opacity="0.501961" points="956.664036,612.946964,964.310000,645.000000,968.278012,355.181704,952.755488,485.068795" />
<polygon fill="#8bb4b5" fill-opacity="0.501961" points="197.555094,303.716407,139.681708,217.040832,224.141840,361.764623,214.661138,334.456983" />
<polygon fill="#060101" fill-opacity="0.501961" points="595.272157,498.210488,351.071492,405.127625,380.526262,535.735880,593.312577,533.336956" />
<polygon fill="#465a5c" fill-opacity="0.501961" points="1208.687841,513.787864,1215.000000,411.702907,1091.539078,538.101477,1135.894264,587.213341" />
<polygon fill="#080303" fill-opacity="0.501961" points="525.527424,240.103850,595.551070,229.237504,658.395907,102.356213,696.041650,46.790552" />
<polygon fill="#607b7d" fill-opacity="0.501961" points="-16.000000,135.119774,71.121742,155.441073,131.395374,202.500988,29.954722,139.297174" />
<polygon fill="#0d0808" fill-opacity="0.501961" points="668.405962,217.587067,702.548928,277.914978,974.507520,352.099214,1076.728244,323.572740" />
<polygon fill="#070202" fill-opacity="0.501961" points="819.810026,370.510163,792.603828,323.561386,912.889931,354.159550,948.374696,357.402277" />
<polygon fill="#010000" fill-opacity="0.501961" points="-16.000000,123.261870,-7.556817,-4.265750,369.536644,3.253793,90.874052,158.346177" />
<polygon fill="#000000" fill-opacity="0.501961" points="1014.472609,501.259799,989.427734,496.413153,1029.740443,477.632303,1113.348321,562.422932" />
<polygon fill="#82d0c4" fill-opacity="0.501961" points="997.718745,366.343115,811.373543,310.917153,714.092364,287.376916,723.618699,304.286697" />
<polygon fill="#7abab2" fill-opacity="0.501961" points="854.376950,451.377573,942.001095,366.219927,820.027637,369.310415,830.838278,414.765736" />
<polygon fill="#0a0505" fill-opacity="0.501961" points="528.393312,257.731552,474.102333,344.161790,506.913564,443.593964,584.715396,231.981717" />
<polygon fill="#0d0b0b" fill-opacity="0.501961" points="1206.574940,196.368974,974.983034,-14.420954,709.152397,189.755218,1064.360726,327.253131" />
<polygon fill="#4b807b" fill-opacity="0.501961" points="602.251752,531.805148,600.044819,544.128734,562.137199,546.239022,494.968458,546.580367" />
<polygon fill="#4d706d" fill-opacity="0.501961" points="1104.288640,455.560165,963.161823,641.858408,985.522720,634.365724,1043.168317,560.521306" />
<polygon fill="#030000" fill-opacity="0.501961" points="459.989157,547.018938,-4.280528,542.552545,-2.691618,645.000000,267.446477,628.979857" />
<polygon fill="#090404" fill-opacity="0.501961" points="592.424871,425.693058,588.774894,282.500727,488.631013,423.062577,594.030834,488.046399" />
<polygon fill="#070505" fill-opacity="0.501961" points="797.199129,98.252423,665.991117,98.345770,225.036511,2.141109,1215.000000,1.231917" />
<polygon fill="#5e9c96" fill-opacity="0.501961" points="602.565184,366.071897,593.649620,409.674185,592.972237,301.352826,604.014556,295.554287" />
<polygon fill="#75aba9" fill-opacity="0.501961" points="471.534212,390.109630,514.166767,457.955013,481.381999,420.775884,474.973940,364.444577" />
<polygon fill="#000000" fill-opacity="0.501961" points="1204.700043,519.011441,1213.344240,555.743535,1199.971668,645.000000,1075.655746,645.000000" />
<polygon fill="#0f0e0e" fill-opacity="0.501961" points="606.942803,269.072213,571.489023,298.521475,920.103543,276.168139,913.536002,34.706756" />
<polygon fill="#110e0e" fill-opacity="0.501961" points="476.244702,405.286717,421.274215,185.972874,126.325496,444.814813,513.710475,481.684844" />
<polygon fill="#739596" fill-opacity="0.501961" points="1140.338227,251.672680,1174.698532,291.782559,1050.351097,500.807756,999.623037,438.292839" />
<polygon fill="#000000" fill-opacity="0.501961" points="1074.374033,521.278304,1181.028710,645.000000,980.149237,645.000000,1066.535170,528.801006" />
<polygon fill="#090606" fill-opacity="0.501961" points="-16.000000,631.349826,57.062497,152.708281,109.669466,194.422799,169.609165,265.085188" />
<polygon fill="#69898a" fill-opacity="0.501961" points="71.224711,159.053313,157.718565,238.277227,96.741634,173.002738,87.661410,168.674356" />
<polygon fill="#669f97" fill-opacity="0.501961" points="1062.780002,329.256484,968.474715,354.016599,922.815331,338.365662,961.164852,430.458711" />
<polygon fill="#110f0f" fill-opacity="0.501961" points="749.875475,-16.000000,145.905399,226.185629,352.455270,522.604483,494.740147,282.015216" />
<polygon fill="#609b93" fill-opacity="0.501961" points="825.332265,99.028397,719.219506,175.571649,680.649922,99.682260,819.982658,97.326383" />
<polygon fill="#5a7374" fill-opacity="0.501961" points="1215.000000,325.044511,1215.000000,406.987572,1110.922239,560.182758,1155.912352,279.144931" />
<polygon fill="#5a8c85" fill-opacity="0.501961" points="896.411453,483.308142,969.653251,407.428322,1018.678478,485.296727,958.862826,498.283602" />
<polygon fill="#040303" fill-opacity="0.501961" points="1126.818372,227.264760,1180.926519,298.198262,1214.788231,320.666114,1198.825880,-16.000000" />
<polygon fill="#305f5a" fill-opacity="0.501961" points="820.428015,511.492739,797.113383,488.855556,794.216930,574.610854,861.451375,560.051915" />
<polygon fill="#63918f" fill-opacity="0.501961" points="621.546862,494.869168,532.201560,473.463640,570.190262,491.419873,644.981991,481.079429" />
<polygon fill="#0a0808" fill-opacity="0.501961" points="174.267413,242.946672,485.483213,-16.000000,-16.000000,76.037732,116.564520,192.876104" />
<polygon fill="#0e0d0d" fill-opacity="0.501961" points="808.693111,321.776458,805.902079,494.615140,897.250570,590.732601,824.223123,392.322389" />
<polygon fill="#658d8d" fill-opacity="0.501961" points="571.920032,235.804431,495.304271,276.293788,531.483309,249.125705,555.454723,236.384644" />
<polygon fill="#436f6a" fill-opacity="0.501961" points="446.187520,535.608690,441.865570,543.449397,602.083176,546.420941,597.549152,536.645405" />
<polygon fill="#405454" fill-opacity="0.501961" points="1208.853259,453.977951,1200.374801,524.888773,1135.681610,584.182556,1103.469463,551.826584" />
<polygon fill="#0f0f0f" fill-opacity="0.501961" points="968.654891,351.290840,632.009622,253.188232,1023.049336,61.991680,1067.240643,328.076771" />
<polygon fill="#090606" fill-opacity="0.501961" points="1053.000908,498.311005,881.201531,501.111833,990.160696,493.768596,1030.039688,480.524277" />
<polygon fill="#679795" fill-opacity="0.501961" points="490.926486,429.075722,485.381942,427.699970,515.994134,462.987273,536.050557,474.105255" />
<polygon fill="#18312e" fill-opacity="0.501961" points="933.443368,633.046122,900.331682,592.940809,794.484213,610.793830,790.421402,641.478040" />
<polygon fill="#5a7576" fill-opacity="0.501961" points="46.344934,149.467880,88.095383,168.845022,55.663103,147.455943,22.098926,137.150465" />
<polygon fill="#7dbab4" fill-opacity="0.501961" points="559.291751,298.570724,750.634780,154.378420,734.587243,160.216764,636.665901,152.480729" />
<polygon fill="#0e0c0c" fill-opacity="0.501961" points="586.807834,482.725104,548.836574,475.877087,520.794788,458.468700,473.065749,355.501057" />
<polygon fill="#7ea2a4" fill-opacity="0.501961" points="1085.846928,309.150381,978.551702,412.547249,1009.627350,454.343034,1145.531981,255.148933" />
<polygon fill="#618c8a" fill-opacity="0.501961" points="497.229320,273.788614,470.315040,341.713744,483.379628,413.948461,465.829999,376.477005" />
<polygon fill="#0d0b0b" fill-opacity="0.501961" points="794.045335,525.233823,681.283199,393.326974,570.984937,633.442676,791.869391,645.000000" />
<polygon fill="#090707" fill-opacity="0.501961" points="0.954581,387.319705,-2.651042,544.595026,335.929290,535.825943,460.500404,534.288463" />
<polygon fill="#101010" fill-opacity="0.501961" points="468.442935,351.750097,476.590311,473.400060,178.568021,275.831108,509.201383,132.374362" />
<polygon fill="#0a0807" fill-opacity="0.501961" points="937.826550,645.000000,950.862790,506.704842,879.304915,473.545891,837.082469,432.587703" />
<polygon fill="#699a98" fill-opacity="0.501961" points="475.454125,318.079864,523.416090,257.396210,503.364868,271.838739,480.560478,306.427134" />
<polygon fill="#769a9b" fill-opacity="0.501961" points="158.421098,241.695766,101.631951,180.072908,159.525936,251.277601,229.968197,366.372762" />
<polygon fill="#648182" fill-opacity="0.501961" points="1043.222032,547.277731,1129.130690,377.010004,1171.137303,296.241455,1157.049269,447.169299" />
<polygon fill="#111111" fill-opacity="0.501961" points="626.223859,80.543759,594.851143,231.452962,584.122106,229.682869,422.882010,275.327233" />
<polygon fill="#6a9695" fill-opacity="0.501961" points="646.905994,232.863844,554.674128,240.455020,601.626343,226.740884,631.923585,241.622887" />
<polygon fill="#090808" fill-opacity="0.501961" points="4.314645,140.158384,77.949879,165.671462,148.627973,238.103406,-16.000000,425.823015" />
<polygon fill="#151918" fill-opacity="0.501961" points="932.163927,352.366148,914.603884,359.868353,842.835531,369.002899,743.882999,376.971468" />
<polygon fill="#70aaa3" fill-opacity="0.501961" points="964.333045,350.196126,823.706950,393.177726,842.156534,434.023904,873.843583,465.306672" />
<polygon fill="#62928d" fill-opacity="0.501961" points="872.855204,467.192440,913.824445,491.361133,980.462647,495.471470,966.039756,417.133846" />
<polygon fill="#52696b" fill-opacity="0.501961" points="1089.345588,481.364821,1162.590780,527.496280,1109.561994,559.349927,1071.536584,519.212150" />
<polygon fill="#111010" fill-opacity="0.501961" points="704.663377,313.440546,813.980252,113.877165,604.387098,274.249758,603.077495,467.289966" />
<polygon fill="#100f0f" fill-opacity="0.501961" points="556.092979,240.731845,499.456993,285.947333,487.489667,307.101104,485.240509,413.687986" />
<polygon fill="#0b0b0b" fill-opacity="0.501961" points="1136.147278,259.487004,1195.614758,205.313167,1015.510982,83.189663,1069.676852,320.477094" />
<polygon fill="#698789" fill-opacity="0.501961" points="1109.042773,286.290389,1121.990958,447.732693,1182.177581,297.312680,1145.893936,258.272628" />
<polygon fill="#070404" fill-opacity="0.501961" points="968.007117,634.065942,1054.888723,518.867668,1051.339422,499.182951,982.335291,491.905224" />
<polygon fill="#0c0b0b" fill-opacity="0.501961" points="955.583690,496.714816,925.143545,492.307310,790.850903,441.865103,942.179148,645.000000" />
<polygon fill="#528783" fill-opacity="0.501961" points="601.957018,455.401513,601.423915,283.484792,595.198538,416.194595,594.717482,549.208911" />
<polygon fill="#284f4a" fill-opacity="0.501961" points="377.670889,584.437039,421.458492,567.390250,431.929089,563.615647,493.165832,620.718298" />
<polygon fill="#659a94" fill-opacity="0.501961" points="651.090716,131.974233,660.527707,101.034405,715.442116,101.423123,803.377919,117.968036" />
</g>
</svg>