<svg xmlns="http://www.w3.org/2000/svg" version="1.1" width="1200" height="630">
<rect x="0" y="0" width="1200" height="630" fill="#262321" />
<g transform="scale(1.000000) translate(0.5 0.5)">
<ellipse fill="#ffff91" fill-opacity="0.501961" cx="778" cy="360" rx="95" ry="95" />
<ellipse fill="#ff6bff" fill-opacity="0.501961" cx="407" cy="292" rx="88" ry="88" />
<ellipse fill="#e3ff81" fill-opacity="0.501961" cx="783" cy="178" rx="67" ry="67" />
<ellipse fill="#beef65" fill-opacity="0.501961" cx="538" cy="61" rx="41" ry="41" />
<ellipse fill="#df5dff" fill-opacity="0.501961" cx="351" cy="359" rx="35" ry="35" />
<ellipse fill="#78007d" fill-opacity="0.501961" cx="886" cy="192" rx="56" ry="56" />
<ellipse fill="#aaff60" fill-opacity="0.501961" cx="769" cy="374" rx="89" ry="89" />
<ellipse fill="#d3ff6c" fill-opacity="0.501961" cx="594" cy="61" rx="27" ry="27" />
<ellipse fill="#c7ff6f" fill-opacity="0.501961" cx="782" cy="228" rx="36" ry="36" />
<ellipse fill="#cc57fe" fill-opacity="0.501961" cx="426" cy="297" rx="62" ry="62" />
<ellipse fill="#aeff5e" fill-opacity="0.501961" cx="792" cy="118" rx="31" ry="31" />
<ellipse fill="#cdff68" fill-opacity="0.501961" cx="487" cy="60" rx="23" ry="23" />
<ellipse fill="#150018" fill-opacity="0.501961" cx="416" cy="207" rx="36" ry="36" />
<ellipse fill="#07010f" fill-opacity="0.501961" cx="747" cy="476" rx="40" ry="40" />
<ellipse fill="#cdff73" fill-opacity="0.501961" cx="734" cy="287" rx="23" ry="23" />
<ellipse fill="#78ac36" fill-opacity="0.501961" cx="662" cy="109" rx="30" ry="30" />
<ellipse fill="#c9ff6f" fill-opacity="0.501961" cx="823" cy="446" rx="19" ry="19" />
<ellipse fill="#baff68" fill-opacity="0.501961" cx="851" cy="323" rx="26" ry="26" />
<ellipse fill="#a7fa5e" fill-opacity="0.501961" cx="784" cy="185" rx="48" ry="48" />
<ellipse fill="#89008d" fill-opacity="0.501961" cx="956" cy="177" rx="32" ry="32" />
<ellipse fill="#100d17" fill-opacity="0.501961" cx="663" cy="328" rx="42" ry="42" />
<ellipse fill="#ca60e8" fill-opacity="0.501961" cx="472" cy="264" rx="31" ry="31" />
<ellipse fill="#0f0f15" fill-opacity="0.501961" cx="682" cy="175" rx="53" ry="53" />
<ellipse fill="#070907" fill-opacity="0.501961" cx="91" cy="406" rx="238" ry="238" />
<ellipse fill="#cdff74" fill-opacity="0.501961" cx="698" cy="408" rx="21" ry="21" />
<ellipse fill="#4e0053" fill-opacity="0.501961" cx="944" cy="629" rx="70" ry="70" />
<ellipse fill="#314b23" fill-opacity="0.501961" cx="836" cy="258" rx="40" ry="40" />
<ellipse fill="#0a0a10" fill-opacity="0.501961" cx="894" cy="395" rx="42" ry="42" />
<ellipse fill="#040107" fill-opacity="0.501961" cx="1199" cy="324" rx="326" ry="326" />
<ellipse fill="#8c008b" fill-opacity="0.501961" cx="933" cy="182" rx="37" ry="37" />
<ellipse fill="#010208" fill-opacity="0.501961" cx="854" cy="134" rx="32" ry="32" />
<ellipse fill="#06020e" fill-opacity="0.501961" cx="554" cy="115" rx="33" ry="33" />
<ellipse fill="#020206" fill-opacity="0.501961" cx="201" cy="0" rx="263" ry="263" />
<ellipse fill="#4b6423" fill-opacity="0.501961" cx="301" cy="431" rx="35" ry="35" />
<ellipse fill="#9dd658" fill-opacity="0.501961" cx="709" cy="128" rx="15" ry="15" />
<ellipse fill="#101514" fill-opacity="0.501961" cx="483" cy="368" rx="35" ry="35" />
<ellipse fill="#c2ff6e" fill-opacity="0.501961" cx="787" cy="246" rx="21" ry="21" />
<ellipse fill="#94dd28" fill-opacity="0.501961" cx="513" cy="243" rx="15" ry="15" />
<ellipse fill="#330f34" fill-opacity="0.501961" cx="483" cy="157" rx="79" ry="79" />
<ellipse fill="#90dd25" fill-opacity="0.501961" cx="539" cy="219" rx="15" ry="15" />
<ellipse fill="#000000" fill-opacity="0.501961" cx="534" cy="9" rx="27" ry="27" />
<ellipse fill="#b250d5" fill-opacity="0.501961" cx="357" cy="333" rx="39" ry="39" />
<ellipse fill="#7d007e" fill-opacity="0.501961" cx="866" cy="191" rx="35" ry="35" />
<ellipse fill="#8dd525" fill-opacity="0.501961" cx="562" cy="199" rx="15" ry="15" />
<ellipse fill="#b950e6" fill-opacity="0.501961" cx="366" cy="239" rx="27" ry="27" />
<ellipse fill="#9beb26" fill-opacity="0.501961" cx="583" cy="180" rx="13" ry="13" />
<ellipse fill="#9bd955" fill-opacity="0.501961" cx="620" cy="92" rx="13" ry="13" />
<ellipse fill="#96e425" fill-opacity="0.501961" cx="603" cy="161" rx="13" ry="13" />
<ellipse fill="#010204" fill-opacity="0.501961" cx="936" cy="0" rx="149" ry="149" />
<ellipse fill="#6b9823" fill-opacity="0.501961" cx="264" cy="468" rx="18" ry="18" />
<ellipse fill="#07060a" fill-opacity="0.501961" cx="351" cy="568" rx="128" ry="128" />
<ellipse fill="#a4fc24" fill-opacity="0.501961" cx="626" cy="141" rx="11" ry="11" />
<ellipse fill="#a5d758" fill-opacity="0.501961" cx="538" cy="59" rx="28" ry="28" />
<ellipse fill="#800080" fill-opacity="0.501961" cx="978" cy="172" rx="22" ry="22" />
<ellipse fill="#1a161c" fill-opacity="0.501961" cx="663" cy="357" rx="32" ry="32" />
<ellipse fill="#b8ff6a" fill-opacity="0.501961" cx="742" cy="350" rx="45" ry="45" />
<ellipse fill="#b4ff2a" fill-opacity="0.501961" cx="333" cy="405" rx="10" ry="10" />
<ellipse fill="#130e17" fill-opacity="0.501961" cx="716" cy="462" rx="30" ry="30" />
<ellipse fill="#00000d" fill-opacity="0.501961" cx="814" cy="272" rx="18" ry="18" />
<ellipse fill="#04010a" fill-opacity="0.501961" cx="656" cy="63" rx="33" ry="33" />
<ellipse fill="#111413" fill-opacity="0.501961" cx="445" cy="393" rx="31" ry="31" />
<ellipse fill="#628c20" fill-opacity="0.501961" cx="236" cy="490" rx="18" ry="18" />
<ellipse fill="#0d0a14" fill-opacity="0.501961" cx="717" cy="214" rx="22" ry="22" />
<ellipse fill="#160023" fill-opacity="0.501961" cx="833" cy="228" rx="20" ry="20" />
<ellipse fill="#c457e0" fill-opacity="0.501961" cx="347" cy="379" rx="20" ry="20" />
<ellipse fill="#7c0a77" fill-opacity="0.501961" cx="495" cy="131" rx="20" ry="20" />
<ellipse fill="#09080c" fill-opacity="0.501961" cx="737" cy="583" rx="140" ry="140" />
<ellipse fill="#151618" fill-opacity="0.501961" cx="297" cy="265" rx="35" ry="35" />
<ellipse fill="#b250d1" fill-opacity="0.501961" cx="366" cy="286" rx="41" ry="41" />
<ellipse fill="#c6ff6d" fill-opacity="0.501961" cx="724" cy="133" rx="9" ry="9" />
<ellipse fill="#82f834" fill-opacity="0.501961" cx="870" cy="230" rx="10" ry="10" />
<ellipse fill="#141315" fill-opacity="0.501961" cx="514" cy="554" rx="205" ry="205" />
<ellipse fill="#b2e866" fill-opacity="0.501961" cx="840" cy="272" rx="10" ry="10" />
<ellipse fill="#c8ff70" fill-opacity="0.501961" cx="691" cy="120" rx="9" ry="9" />
<ellipse fill="#aef864" fill-opacity="0.501961" cx="813" cy="321" rx="34" ry="34" />
<ellipse fill="#591556" fill-opacity="0.501961" cx="460" cy="188" rx="33" ry="33" />
<ellipse fill="#cfff74" fill-opacity="0.501961" cx="852" cy="256" rx="8" ry="8" />
<ellipse fill="#a1fb1e" fill-opacity="0.501961" cx="690" cy="83" rx="9" ry="9" />
<ellipse fill="#000000" fill-opacity="0.501961" cx="773" cy="271" rx="9" ry="9" />
<ellipse fill="#63911b" fill-opacity="0.501961" cx="213" cy="514" rx="15" ry="15" />
<ellipse fill="#120d15" fill-opacity="0.501961" cx="707" cy="161" rx="27" ry="27" />
<ellipse fill="#a0ec2a" fill-opacity="0.501961" cx="313" cy="421" rx="10" ry="10" />
<ellipse fill="#212121" fill-opacity="0.501961" cx="895" cy="372" rx="34" ry="34" />
<ellipse fill="#9ed458" fill-opacity="0.501961" cx="802" cy="98" rx="16" ry="16" />
<ellipse fill="#b4fd67" fill-opacity="0.501961" cx="864" cy="317" rx="15" ry="15" />
<ellipse fill="#050608" fill-opacity="0.501961" cx="677" cy="9" rx="58" ry="58" />
<ellipse fill="#a9e856" fill-opacity="0.501961" cx="662" cy="109" rx="13" ry="13" />
<ellipse fill="#81c81a" fill-opacity="0.501961" cx="710" cy="64" rx="11" ry="11" />
<ellipse fill="#95c651" fill-opacity="0.501961" cx="580" cy="58" rx="26" ry="26" />
<ellipse fill="#a8ed61" fill-opacity="0.501961" cx="771" cy="415" rx="34" ry="34" />
<ellipse fill="#0b0b0d" fill-opacity="0.501961" cx="896" cy="520" rx="57" ry="57" />
<ellipse fill="#ccff2f" fill-opacity="0.501961" cx="524" cy="231" rx="8" ry="8" />
<ellipse fill="#9cdc5a" fill-opacity="0.501961" cx="814" cy="432" rx="29" ry="29" />
<ellipse fill="#aafe2a" fill-opacity="0.501961" cx="298" cy="436" rx="9" ry="9" />
<ellipse fill="#1b1a1c" fill-opacity="0.501961" cx="678" cy="303" rx="32" ry="32" />
<ellipse fill="#010302" fill-opacity="0.501961" cx="1196" cy="4" rx="155" ry="155" />
<ellipse fill="#affb65" fill-opacity="0.501961" cx="741" cy="299" rx="31" ry="31" />
<ellipse fill="#b552cf" fill-opacity="0.501961" cx="466" cy="274" rx="36" ry="36" />
<ellipse fill="#daff75" fill-opacity="0.501961" cx="860" cy="244" rx="7" ry="7" />
<ellipse fill="#001900" fill-opacity="0.501961" cx="399" cy="208" rx="18" ry="18" />
</g>
</svg>