<svg xmlns="http://www.w3.org/2000/svg" version="1.1" width="1200" height="630">
<rect x="0" y="0" width="1200" height="630" fill="#2f2a2c" />
<g transform="scale(1.000000) translate(0.5 0.5)">
<ellipse fill="#fe75c0" fill-opacity="0.501961" cx="911" cy="550" rx="178" ry="123" />
<ellipse fill="#63f6a9" fill-opacity="0.501961" cx="59" cy="347" rx="120" ry="107" />
<ellipse fill="#45df88" fill-opacity="0.501961" cx="459" cy="32" rx="173" ry="71" />
<ellipse fill="#ff76cf" fill-opacity="0.501961" cx="371" cy="121" rx="76" ry="42" />
<ellipse fill="#ff93e7" fill-opacity="0.501961" cx="645" cy="475" rx="417" ry="6" />
<ellipse fill="#ffb3fd" fill-opacity="0.501961" cx="884" cy="180" rx="215" ry="6" />
<ellipse fill="#ec64a7" fill-opacity="0.501961" cx="1009" cy="447" rx="50" ry="35" />
<ellipse fill="#ff5db1" fill-opacity="0.501961" cx="796" cy="467" rx="74" ry="20" />
<ellipse fill="#000000" fill-opacity="0.501961" cx="114" cy="577" rx="620" ry="101" />
<ellipse fill="#581d3a" fill-opacity="0.501961" cx="1159" cy="606" rx="214" ry="81" />
<ellipse fill="#000000" fill-opacity="0.501961" cx="1023" cy="79" rx="338" ry="96" />
<ellipse fill="#0e7c3f" fill-opacity="0.501961" cx="30" cy="218" rx="70" ry="87" />
<ellipse fill="#ff9fee" fill-opacity="0.501961" cx="241" cy="393" rx="6" ry="100" />
<ellipse fill="#000400" fill-opacity="0.501961" cx="736" cy="513" rx="57" ry="23" />
<ellipse fill="#000000" fill-opacity="0.501961" cx="168" cy="0" rx="145" ry="231" />
<ellipse fill="#cf88b8" fill-opacity="0.501961" cx="748" cy="613" rx="17" ry="75" />
<ellipse fill="#d0649c" fill-opacity="0.501961" cx="891" cy="505" rx="96" ry="67" />
<ellipse fill="#101111" fill-opacity="0.501961" cx="701" cy="288" rx="128" ry="112" />
<ellipse fill="#030906" fill-opacity="0.501961" cx="838" cy="421" rx="124" ry="21" />
<ellipse fill="#f56cb2" fill-opacity="0.501961" cx="668" cy="107" rx="36" ry="11" />
<ellipse fill="#ff62a9" fill-opacity="0.501961" cx="435" cy="112" rx="39" ry="13" />
<ellipse fill="#e463a4" fill-opacity="0.501961" cx="606" cy="369" rx="20" ry="12" />
<ellipse fill="#f4529a" fill-opacity="0.501961" cx="350" cy="136" rx="46" ry="30" />
<ellipse fill="#6ed29e" fill-opacity="0.501961" cx="158" cy="346" rx="27" ry="51" />
<ellipse fill="#38ab6a" fill-opacity="0.501961" cx="631" cy="7" rx="33" ry="39" />
<ellipse fill="#d35d98" fill-opacity="0.501961" cx="636" cy="387" rx="21" ry="13" />
<ellipse fill="#e05d9f" fill-opacity="0.501961" cx="572" cy="349" rx="20" ry="12" />
<ellipse fill="#060707" fill-opacity="0.501961" cx="1064" cy="299" rx="320" ry="115" />
<ellipse fill="#c476a7" fill-opacity="0.501961" cx="1140" cy="206" rx="7" ry="39" />
<ellipse fill="#a04674" fill-opacity="0.501961" cx="613" cy="91" rx="55" ry="13" />
<ellipse fill="#ff71bf" fill-opacity="0.501961" cx="704" cy="117" rx="21" ry="8" />
<ellipse fill="#34a764" fill-opacity="0.501961" cx="419" cy="78" rx="71" ry="22" />
<ellipse fill="#ff67bc" fill-opacity="0.501961" cx="534" cy="325" rx="15" ry="10" />
<ellipse fill="#418a64" fill-opacity="0.501961" cx="13" cy="445" rx="78" ry="27" />
<ellipse fill="#ff67bc" fill-opacity="0.501961" cx="506" cy="307" rx="15" ry="10" />
<ellipse fill="#ff66ba" fill-opacity="0.501961" cx="481" cy="291" rx="15" ry="10" />
<ellipse fill="#000000" fill-opacity="0.501961" cx="46" cy="14" rx="238" ry="52" />
<ellipse fill="#d14988" fill-opacity="0.501961" cx="323" cy="102" rx="22" ry="31" />
<ellipse fill="#ff67be" fill-opacity="0.501961" cx="458" cy="277" rx="15" ry="9" />
<ellipse fill="#ff62b4" fill-opacity="0.501961" cx="659" cy="405" rx="15" ry="10" />
<ellipse fill="#050807" fill-opacity="0.501961" cx="704" cy="48" rx="51" ry="58" />
<ellipse fill="#ff67c0" fill-opacity="0.501961" cx="434" cy="262" rx="14" ry="9" />
<ellipse fill="#080909" fill-opacity="0.501961" cx="544" cy="146" rx="97" ry="53" />
<ellipse fill="#ff60b1" fill-opacity="0.501961" cx="682" cy="419" rx="15" ry="10" />
<ellipse fill="#ff66bc" fill-opacity="0.501961" cx="410" cy="246" rx="14" ry="9" />
<ellipse fill="#040605" fill-opacity="0.501961" cx="194" cy="444" rx="43" ry="67" />
<ellipse fill="#eb6eae" fill-opacity="0.501961" cx="1011" cy="425" rx="15" ry="22" />
<ellipse fill="#ff62b7" fill-opacity="0.501961" cx="709" cy="437" rx="14" ry="9" />
<ellipse fill="#259456" fill-opacity="0.501961" cx="1177" cy="438" rx="27" ry="26" />
<ellipse fill="#090b0b" fill-opacity="0.501961" cx="208" cy="289" rx="27" ry="134" />
<ellipse fill="#020303" fill-opacity="0.501961" cx="1180" cy="153" rx="33" ry="263" />
<ellipse fill="#090a0a" fill-opacity="0.501961" cx="316" cy="378" rx="71" ry="93" />
<ellipse fill="#a54676" fill-opacity="0.501961" cx="257" cy="150" rx="21" ry="13" />
<ellipse fill="#ff62b6" fill-opacity="0.501961" cx="389" cy="232" rx="14" ry="9" />
<ellipse fill="#c874a5" fill-opacity="0.501961" cx="1096" cy="180" rx="51" ry="6" />
<ellipse fill="#0c100e" fill-opacity="0.501961" cx="433" cy="182" rx="56" ry="37" />
<ellipse fill="#ff77da" fill-opacity="0.501961" cx="551" cy="334" rx="11" ry="8" />
<ellipse fill="#ff65bf" fill-opacity="0.501961" cx="369" cy="220" rx="13" ry="8" />
<ellipse fill="#0a0a0a" fill-opacity="0.501961" cx="284" cy="243" rx="67" ry="58" />
<ellipse fill="#ff66be" fill-opacity="0.501961" cx="728" cy="450" rx="12" ry="10" />
<ellipse fill="#fb5cac" fill-opacity="0.501961" cx="346" cy="206" rx="14" ry="9" />
<ellipse fill="#97406c" fill-opacity="0.501961" cx="229" cy="131" rx="21" ry="13" />
<ellipse fill="#b34379" fill-opacity="0.501961" cx="995" cy="458" rx="79" ry="31" />
<ellipse fill="#0e0f0f" fill-opacity="0.501961" cx="477" cy="434" rx="211" ry="37" />
<ellipse fill="#ff65bf" fill-opacity="0.501961" cx="329" cy="194" rx="11" ry="8" />
<ellipse fill="#226d44" fill-opacity="0.501961" cx="22" cy="235" rx="93" ry="50" />
<ellipse fill="#be82aa" fill-opacity="0.501961" cx="812" cy="550" rx="40" ry="25" />
<ellipse fill="#60af85" fill-opacity="0.501961" cx="106" cy="313" rx="57" ry="51" />
<ellipse fill="#fc5bac" fill-opacity="0.501961" cx="310" cy="183" rx="13" ry="8" />
<ellipse fill="#eb77ab" fill-opacity="0.501961" cx="290" cy="476" rx="58" ry="6" />
<ellipse fill="#2f724c" fill-opacity="0.501961" cx="333" cy="22" rx="49" ry="46" />
<ellipse fill="#090a0a" fill-opacity="0.501961" cx="686" cy="155" rx="50" ry="32" />
<ellipse fill="#ff88be" fill-opacity="0.501961" cx="567" cy="475" rx="230" ry="5" />
<ellipse fill="#050a08" fill-opacity="0.501961" cx="151" cy="246" rx="35" ry="31" />
<ellipse fill="#476c56" fill-opacity="0.501961" cx="1188" cy="508" rx="61" ry="24" />
<ellipse fill="#f25da3" fill-opacity="0.501961" cx="777" cy="467" rx="40" ry="16" />
<ellipse fill="#9c3f6e" fill-opacity="0.501961" cx="202" cy="113" rx="18" ry="11" />
<ellipse fill="#111213" fill-opacity="0.501961" cx="637" cy="511" rx="151" ry="30" />
<ellipse fill="#ff9bd4" fill-opacity="0.501961" cx="777" cy="179" rx="62" ry="6" />
<ellipse fill="#f857a8" fill-opacity="0.501961" cx="290" cy="170" rx="12" ry="8" />
<ellipse fill="#bd84ab" fill-opacity="0.501961" cx="759" cy="531" rx="25" ry="7" />
<ellipse fill="#ff7ce2" fill-opacity="0.501961" cx="519" cy="317" rx="9" ry="7" />
<ellipse fill="#0f1010" fill-opacity="0.501961" cx="428" cy="336" rx="66" ry="60" />
<ellipse fill="#040605" fill-opacity="0.501961" cx="123" cy="474" rx="46" ry="30" />
<ellipse fill="#54374a" fill-opacity="0.501961" cx="981" cy="624" rx="129" ry="31" />
<ellipse fill="#8d6884" fill-opacity="0.501961" cx="901" cy="571" rx="83" ry="48" />
<ellipse fill="#000000" fill-opacity="0.501961" cx="1142" cy="473" rx="38" ry="17" />
<ellipse fill="#121514" fill-opacity="0.501961" cx="536" cy="243" rx="68" ry="65" />
<ellipse fill="#ff76d8" fill-opacity="0.501961" cx="588" cy="361" rx="10" ry="7" />
<ellipse fill="#c786b1" fill-opacity="0.501961" cx="887" cy="497" rx="19" ry="62" />
<ellipse fill="#000000" fill-opacity="0.501961" cx="600" cy="82" rx="25" ry="7" />
<ellipse fill="#151414" fill-opacity="0.501961" cx="855" cy="206" rx="284" ry="22" />
<ellipse fill="#ff75d5" fill-opacity="0.501961" cx="424" cy="254" rx="10" ry="6" />
<ellipse fill="#0d100f" fill-opacity="0.501961" cx="561" cy="381" rx="36" ry="25" />
<ellipse fill="#000a00" fill-opacity="0.501961" cx="784" cy="522" rx="19" ry="8" />
<ellipse fill="#121313" fill-opacity="0.501961" cx="371" cy="277" rx="43" ry="43" />
<ellipse fill="#d85390" fill-opacity="0.501961" cx="390" cy="126" rx="41" ry="29" />
<ellipse fill="#8f3964" fill-opacity="0.501961" cx="177" cy="98" rx="17" ry="11" />
<ellipse fill="#060707" fill-opacity="0.501961" cx="1033" cy="7" rx="304" ry="84" />
<ellipse fill="#000000" fill-opacity="0.501961" cx="1098" cy="511" rx="22" ry="20" />
</g>
</svg>