<svg xmlns="http://www.w3.org/2000/svg" version="1.1" width="1200" height="630">
<rect x="0" y="0" width="1200" height="630" fill="#2e2b32" />
<g transform="scale(1.000000) translate(0.5 0.5)">
<g transform="translate(842 124) rotate(312) scale(193 189)"><rect fill="#ffffff" fill-opacity="0.501961" x="-0.5" y="-0.5" width="1" height="1" /></g>
<g transform="translate(663.240297 64.362814) rotate(377.364901) scale(98.455194 91.853600)"><ellipse fill="#ff2d16" fill-opacity="0.501961" cx="0" cy="0" rx="1" ry="1" /></g>
<g transform="translate(424.679659 240.819492) rotate(-144.619236) scale(57.148371 59.305643)"><ellipse fill="#ffa39d" fill-opacity="0.501961" cx="0" cy="0" rx="1" ry="1" /></g>
<g transform="translate(211.483021 339.307757) rotate(302.857801) scale(100.183455 136.081594)"><ellipse fill="#a97771" fill-opacity="0.501961" cx="0" cy="0" rx="1" ry="1" /></g>
<polygon fill="#fffffd" fill-opacity="0.501961" points="1136,171 1120,303 1000,142" />
<ellipse fill="#b9bcb6" fill-opacity="0.501961" cx="423" cy="598" rx="72" ry="72" />
<g transform="translate(70.419408 515.450634) rotate(390.849055) scale(84.522195 60.969462)"><ellipse fill="#b78d8b" fill-opacity="0.501961" cx="0" cy="0" rx="1" ry="1" /></g>
<ellipse fill="#edeeea" fill-opacity="0.501961" cx="837" cy="151" rx="83" ry="72" />
<g transform="translate(1092.921502 67.877061) rotate(111.906817) scale(88.456282 219.529902)"><ellipse fill="#000000" fill-opacity="0.501961" cx="0" cy="0" rx="1" ry="1" /></g>
<g transform="translate(697.525951 261.087367) rotate(135.293124) scale(64.554172 8.385655)"><ellipse fill="#ffffff" fill-opacity="0.501961" cx="0" cy="0" rx="1" ry="1" /></g>
<g transform="translate(128.683345 93.452770) rotate(-16.855385) scale(79.178536 54.613185)"><ellipse fill="#82857f" fill-opacity="0.501961" cx="0" cy="0" rx="1" ry="1" /></g>
<ellipse fill="#00000e" fill-opacity="0.501961" cx="846" cy="629" rx="358" ry="358" />
<ellipse fill="#000000" fill-opacity="0.501961" cx="251" cy="561" rx="105" ry="105" />
<ellipse fill="#ea312b" fill-opacity="0.501961" cx="132" cy="260" rx="36" ry="98" />
<ellipse fill="#000000" fill-opacity="0.501961" cx="0" cy="218" rx="112" ry="112" />
<g transform="translate(731 227) rotate(45) scale(11 225)"><rect fill="#ffffff" fill-opacity="0.501961" x="-0.5" y="-0.5" width="1" height="1" /></g>
<g transform="translate(1040.780005 338.646362) rotate(203.774095) scale(178.695374 6.350771)"><ellipse fill="#c28684" fill-opacity="0.501961" cx="0" cy="0" rx="1" ry="1" /></g>
<ellipse fill="#000010" fill-opacity="0.501961" cx="280" cy="178" rx="92" ry="95" />
<polygon fill="#dd3427" fill-opacity="0.501961" points="562,-16 587,159 783,124" />
<ellipse fill="#ff6b6b" fill-opacity="0.501961" cx="421" cy="244" rx="58" ry="57" />
<ellipse fill="#000611" fill-opacity="0.501961" cx="369" cy="83" rx="91" ry="91" />
<ellipse fill="#000b1c" fill-opacity="0.501961" cx="528" cy="198" rx="50" ry="572" />
<ellipse fill="#9c635d" fill-opacity="0.501961" cx="238" cy="17" rx="66" ry="49" />
<ellipse fill="#000b1e" fill-opacity="0.501961" cx="430" cy="420" rx="107" ry="107" />
<g transform="translate(131.897051 452.830999) rotate(210.688861) scale(14.810180 51.511433)"><ellipse fill="#bda2a3" fill-opacity="0.501961" cx="0" cy="0" rx="1" ry="1" /></g>
<ellipse fill="#000005" fill-opacity="0.501961" cx="32" cy="361" rx="48" ry="91" />
<g transform="translate(37.794836 21.525723) rotate(366.419876) scale(93.932816 38.621234)"><ellipse fill="#000000" fill-opacity="0.501961" cx="0" cy="0" rx="1" ry="1" /></g>
<g transform="translate(456 129) rotate(107) scale(142 8)"><rect fill="#ffb1ad" fill-opacity="0.501961" x="-0.5" y="-0.5" width="1" height="1" /></g>
<g transform="translate(986.672496 267.639174) rotate(45.321664) scale(127.439435 4.474039)"><ellipse fill="#ffe0e4" fill-opacity="0.501961" cx="0" cy="0" rx="1" ry="1" /></g>
<g transform="translate(485 3) rotate(-56) scale(83 44)"><rect fill="#e7382d" fill-opacity="0.501961" x="-0.5" y="-0.5" width="1" height="1" /></g>
<g transform="translate(1159.697126 321.032762) rotate(438.693223) scale(62.909787 41.737350)"><ellipse fill="#000005" fill-opacity="0.501961" cx="0" cy="0" rx="1" ry="1" /></g>
<g transform="translate(110.528263 358.066457) rotate(303.549638) scale(50.397864 24.410748)"><ellipse fill="#cd312d" fill-opacity="0.501961" cx="0" cy="0" rx="1" ry="1" /></g>
<g transform="translate(112.115240 413.271908) rotate(228.939014) scale(20.876169 59.776349)"><ellipse fill="#000003" fill-opacity="0.501961" cx="0" cy="0" rx="1" ry="1" /></g>
<g transform="translate(1037.551314 253.035376) rotate(330.625822) scale(34.765919 89.518970)"><ellipse fill="#00000f" fill-opacity="0.501961" cx="0" cy="0" rx="1" ry="1" /></g>
<polygon fill="#000d22" fill-opacity="0.501961" points="722.342340,135.639520,759.249496,190.529686,576.298501,369.822471,579.295881,163.534468" />
<ellipse fill="#00020b" fill-opacity="0.501961" cx="1073" cy="16" rx="142" ry="142" />
<g transform="translate(1085.177341 538.136275) rotate(261.994231) scale(166.807079 124.676993)"><ellipse fill="#00060a" fill-opacity="0.501961" cx="0" cy="0" rx="1" ry="1" /></g>
<g transform="translate(844 225) rotate(44) scale(43 42)"><rect fill="#ffffff" fill-opacity="0.501961" x="-0.5" y="-0.5" width="1" height="1" /></g>
<polygon fill="#000917" fill-opacity="0.501961" points="347,634 373,361 86,645" />
<g transform="translate(18.494756 146.571886) rotate(80.368023) scale(165.606291 30.479382)"><ellipse fill="#00020c" fill-opacity="0.501961" cx="0" cy="0" rx="1" ry="1" /></g>
<polygon fill="#c1c3c2" fill-opacity="0.501961" points="945.579341,147.164987,856.867927,243.257108,888.858043,113.705646,1032.864040,156.733947" />
<g transform="translate(146.169689 243.224161) rotate(333.241658) scale(42.674372 60.636239)"><ellipse fill="#c03937" fill-opacity="0.501961" cx="0" cy="0" rx="1" ry="1" /></g>
<polygon fill="#5f7070" fill-opacity="0.501961" points="168.137876,285.811956,280.532637,477.991155,331.874020,254.996324,388.143996,263.475316" />
<ellipse fill="#6f5757" fill-opacity="0.501961" cx="86" cy="555" rx="65" ry="65" />
<ellipse fill="#000d22" fill-opacity="0.501961" cx="776" cy="255" rx="46" ry="46" />
<g transform="translate(777 58) rotate(224) scale(14 62)"><rect fill="#bfc2be" fill-opacity="0.501961" x="-0.5" y="-0.5" width="1" height="1" /></g>
<polygon fill="#979797" fill-opacity="0.501961" points="415,518 496,562 339,569" />
<g transform="translate(1174.984774 181.917666) rotate(156.888556) scale(20.717288 130.703039)"><ellipse fill="#000009" fill-opacity="0.501961" cx="0" cy="0" rx="1" ry="1" /></g>
<polygon fill="#938685" fill-opacity="0.501961" points="1079.164807,369.375583,1126.883711,382.411013,1213.538224,401.038381,1016.476646,330.237414" />
<ellipse fill="#000311" fill-opacity="0.501961" cx="177" cy="490" rx="42" ry="42" />
<polygon fill="#000002" fill-opacity="0.501961" points="739.026789,-16.000000,756.258636,68.197321,789.267507,31.356625,836.971910,-16.000000" />
<g transform="translate(865.510169 105.072439) rotate(8.022288) scale(107.913433 37.088370)"><ellipse fill="#aaaaa8" fill-opacity="0.501961" cx="0" cy="0" rx="1" ry="1" /></g>
<rect fill="#00131e" fill-opacity="0.501961" x="214" y="67" width="150" height="191" />
<polygon fill="#bf4f4a" fill-opacity="0.501961" points="1210,282 1214,343 1154,216" />
<ellipse fill="#000a1e" fill-opacity="0.501961" cx="372" cy="311" rx="46" ry="26" />
<g transform="translate(836.944011 25.401139) rotate(262.784772) scale(23.677672 39.152094)"><ellipse fill="#757874" fill-opacity="0.501961" cx="0" cy="0" rx="1" ry="1" /></g>
<polygon fill="#bb1a0e" fill-opacity="0.501961" points="765,128 704,138 755,64" />
<polygon fill="#061f2e" fill-opacity="0.501961" points="571.271137,391.884094,1107.996257,529.530009,774.650713,188.829255,776.137710,193.885792" />
<ellipse fill="#6e817f" fill-opacity="0.501961" cx="321" cy="375" rx="26" ry="27" />
<polygon fill="#dcdcdc" fill-opacity="0.501961" points="844.313538,125.409994,718.012540,136.804932,741.940975,158.384120,837.662804,250.362888" />
<ellipse fill="#746b64" fill-opacity="0.501961" cx="438" cy="60" rx="168" ry="6" />
<g transform="translate(175.586349 172.600152) rotate(63.916737) scale(98.185296 4.375674)"><ellipse fill="#858c89" fill-opacity="0.501961" cx="0" cy="0" rx="1" ry="1" /></g>
<g transform="translate(103.183493 310.448298) rotate(277.216752) scale(86.771031 15.921690)"><ellipse fill="#ad3230" fill-opacity="0.501961" cx="0" cy="0" rx="1" ry="1" /></g>
<ellipse fill="#476060" fill-opacity="0.501961" cx="180" cy="346" rx="42" ry="42" />
<polygon fill="#b3645f" fill-opacity="0.501961" points="1120,174 1144,166 1179,243" />
<ellipse fill="#041a2b" fill-opacity="0.501961" cx="549" cy="352" rx="110" ry="110" />
<g transform="translate(905 275) rotate(207) scale(133 6)"><rect fill="#ff8682" fill-opacity="0.501961" x="-0.5" y="-0.5" width="1" height="1" /></g>
<g transform="translate(1092.217133 316.349093) rotate(16.658031) scale(5.102989 37.070249)"><ellipse fill="#afb6b2" fill-opacity="0.501961" cx="0" cy="0" rx="1" ry="1" /></g>
<g transform="translate(969.356368 186.264070) rotate(132.516246) scale(37.647721 38.680152)"><ellipse fill="#000d1b" fill-opacity="0.501961" cx="0" cy="0" rx="1" ry="1" /></g>
<g transform="translate(340 267) rotate(164) scale(76 8)"><rect fill="#ff4d47" fill-opacity="0.501961" x="-0.5" y="-0.5" width="1" height="1" /></g>
<polygon fill="#e23e32" fill-opacity="0.501961" points="590.702376,159.345756,587.715984,152.512961,577.954479,92.253703,735.512562,130.602225" />
<polygon fill="#8f241c" fill-opacity="0.501961" points="746.859329,24.732097,743.929263,-16.000000,557.936972,-16.000000,573.938376,78.070929" />
<g transform="translate(156.653866 443.694516) rotate(38.594079) scale(6.653359 25.053283)"><ellipse fill="#9ea8a3" fill-opacity="0.501961" cx="0" cy="0" rx="1" ry="1" /></g>
<g transform="translate(945.931011 266.324066) rotate(390.615100) scale(52.641601 20.192332)"><ellipse fill="#000a1c" fill-opacity="0.501961" cx="0" cy="0" rx="1" ry="1" /></g>
<g transform="translate(10.002520 629.000000) rotate(21.341969) scale(271.071140 26.656563)"><ellipse fill="#000000" fill-opacity="0.501961" cx="0" cy="0" rx="1" ry="1" /></g>
<g transform="translate(67.257337 81.832656) rotate(143.777383) scale(30.324773 47.153277)"><ellipse fill="#515250" fill-opacity="0.501961" cx="0" cy="0" rx="1" ry="1" /></g>
<g transform="translate(488.063812 134.430155) rotate(294.770631) scale(70.692808 26.565604)"><ellipse fill="#000d1c" fill-opacity="0.501961" cx="0" cy="0" rx="1" ry="1" /></g>
<g transform="translate(96.944753 489.752410) rotate(218.679968) scale(53.259702 22.728455)"><ellipse fill="#9d7e81" fill-opacity="0.501961" cx="0" cy="0" rx="1" ry="1" /></g>
<ellipse fill="#000613" fill-opacity="0.501961" cx="1124" cy="337" rx="33" ry="33" />
<rect fill="#84888c" fill-opacity="0.501961" x="849" y="327" width="7" height="70" />
<g transform="translate(164.093799 101.763152) rotate(226.255901) scale(25.699837 60.641669)"><ellipse fill="#757676" fill-opacity="0.501961" cx="0" cy="0" rx="1" ry="1" /></g>
<polygon fill="#ab3a38" fill-opacity="0.501961" points="73.149056,417.700943,205.901677,256.395630,100.777154,120.639234,114.116485,144.431432" />
<ellipse fill="#00111b" fill-opacity="0.501961" cx="765" cy="629" rx="207" ry="207" />
<g transform="translate(746.146589 214.268229) rotate(316.581297) scale(51.767511 6.475319)"><ellipse fill="#dde0df" fill-opacity="0.501961" cx="0" cy="0" rx="1" ry="1" /></g>
<g transform="translate(490.484741 521.590839) rotate(191.127782) scale(61.970181 28.420788)"><ellipse fill="#00111d" fill-opacity="0.501961" cx="0" cy="0" rx="1" ry="1" /></g>
<g transform="translate(32.006560 566.841364) rotate(222.778146) scale(78.317089 35.059874)"><ellipse fill="#483837" fill-opacity="0.501961" cx="0" cy="0" rx="1" ry="1" /></g>
<g transform="translate(872.382725 36.194998) rotate(129.731473) scale(14.954898 89.773921)"><ellipse fill="#828483" fill-opacity="0.501961" cx="0" cy="0" rx="1" ry="1" /></g>
<g transform="translate(869.662378 296.306094) rotate(298.859529) scale(34.437915 3.904077)"><ellipse fill="#88868a" fill-opacity="0.501961" cx="0" cy="0" rx="1" ry="1" /></g>
<polygon fill="#000008" fill-opacity="0.501961" points="198,244 128,150 158,140" />
<polygon fill="#000d1a" fill-opacity="0.501961" points="67,448 112,144 -16,150" />
<g transform="translate(465.938725 260.431714) rotate(312.470771) scale(17.396331 17.226082)"><ellipse fill="#f37675" fill-opacity="0.501961" cx="0" cy="0" rx="1" ry="1" /></g>
<ellipse fill="#4a5250" fill-opacity="0.501961" cx="163" cy="29" rx="40" ry="40" />
<g transform="translate(785.730544 419.194721) rotate(121.133035) scale(2.817978 75.647879)"><ellipse fill="#5e5f62" fill-opacity="0.501961" cx="0" cy="0" rx="1" ry="1" /></g>
<polygon fill="#03111e" fill-opacity="0.501961" points="212.368827,71.982829,374.906649,210.016411,440.130775,160.484338,465.582140,70.403369" />
<polygon fill="#475a5b" fill-opacity="0.501961" points="138,444 196,365 306,428" />
<ellipse fill="#000000" fill-opacity="0.501961" cx="63" cy="0" rx="65" ry="42" />
<g transform="translate(198 127) rotate(213) scale(24 75)"><rect fill="#000009" fill-opacity="0.501961" x="-0.5" y="-0.5" width="1" height="1" /></g>
<polygon fill="#01121f" fill-opacity="0.501961" points="149,454 499,457 364,554" />
<g transform="translate(880.052339 225.292176) rotate(224.546567) scale(4.692802 41.741125)"><ellipse fill="#010c1c" fill-opacity="0.501961" cx="0" cy="0" rx="1" ry="1" /></g>
<polygon fill="#687171" fill-opacity="0.501961" points="349,383 316,275 205,255" />
</g>
</svg>