<svg xmlns="http://www.w3.org/2000/svg" version="1.1" width="1200" height="630">
<rect x="0" y="0" width="1200" height="630" fill="#1a2c2b" />
<g transform="scale(1.000000) translate(0.5 0.5)">
<ellipse fill="#4bdea9" fill-opacity="0.501961" cx="324" cy="299" rx="132" ry="132" />
<ellipse fill="#ffb1ff" fill-opacity="0.501961" cx="176" cy="419" rx="75" ry="75" />
<g transform="translate(669.168128 186.719737) rotate(99.747239) scale(72.554092 86.212762)"><ellipse fill="#8bffef" fill-opacity="0.501961" cx="0" cy="0" rx="1" ry="1" /></g>
<g transform="translate(683.514439 486.641160) rotate(287.160699) scale(84.130011 48.419346)"><ellipse fill="#00ffc3" fill-opacity="0.501961" cx="0" cy="0" rx="1" ry="1" /></g>
<g transform="translate(843.306481 181.450626) rotate(176.037503) scale(112.078622 33.625864)"><ellipse fill="#00ffcb" fill-opacity="0.501961" cx="0" cy="0" rx="1" ry="1" /></g>
<g transform="translate(1150.158557 281.170395) rotate(220.554798) scale(61.190650 143.964034)"><ellipse fill="#8ab5aa" fill-opacity="0.501961" cx="0" cy="0" rx="1" ry="1" /></g>
<ellipse fill="#020000" fill-opacity="0.501961" cx="317" cy="398" rx="76" ry="76" />
<polygon fill="#65ffc8" fill-opacity="0.501961" points="506,388 463,232 189,253" />
<ellipse fill="#00d975" fill-opacity="0.501961" cx="890" cy="617" rx="70" ry="70" />
<polygon fill="#ffecff" fill-opacity="0.501961" points="634,492 537,414 604,508" />
<g transform="translate(304.044105 240.383347) rotate(174.552373) scale(70.004772 53.829776)"><ellipse fill="#00fb8e" fill-opacity="0.501961" cx="0" cy="0" rx="1" ry="1" /></g>
<g transform="translate(418.966207 185.929168) rotate(296.061600) scale(42.079552 265.424664)"><ellipse fill="#000000" fill-opacity="0.501961" cx="0" cy="0" rx="1" ry="1" /></g>
<g transform="translate(488.753131 566.315066) rotate(165.736482) scale(130.434705 10.056385)"><ellipse fill="#00ef8d" fill-opacity="0.501961" cx="0" cy="0" rx="1" ry="1" /></g>
<rect fill="#00ff8b" fill-opacity="0.501961" x="680" y="399" width="42" height="196" />
<g transform="translate(515.852683 397.695298) rotate(314.367730) scale(7.160610 111.480962)"><ellipse fill="#ffbcff" fill-opacity="0.501961" cx="0" cy="0" rx="1" ry="1" /></g>
<ellipse fill="#d45c9c" fill-opacity="0.501961" cx="1196" cy="314" rx="25" ry="110" />
<g transform="translate(313.323212 561.942732) rotate(275.269710) scale(6.089666 144.911331)"><ellipse fill="#e485ba" fill-opacity="0.501961" cx="0" cy="0" rx="1" ry="1" /></g>
<g transform="translate(1173.556699 174.509381) rotate(91.238878) scale(64.460508 30.872593)"><ellipse fill="#c1266d" fill-opacity="0.501961" cx="0" cy="0" rx="1" ry="1" /></g>
<polygon fill="#000000" fill-opacity="0.501961" points="1208,-16 729,-16 1067,320" />
<polygon fill="#00ff9a" fill-opacity="0.501961" points="589.477418,494.394224,697.332255,407.179701,740.782457,369.678420,720.876173,507.688909" />
<g transform="translate(824.221625 290.391672) rotate(124.441625) scale(6.658796 141.301246)"><ellipse fill="#ff99ef" fill-opacity="0.501961" cx="0" cy="0" rx="1" ry="1" /></g>
<polygon fill="#ff48a2" fill-opacity="0.501961" points="402,337 413,441 369,535" />
<ellipse fill="#000000" fill-opacity="0.501961" cx="72" cy="247" rx="128" ry="128" />
<g transform="translate(852.896347 179.831154) rotate(84.042891) scale(32.678986 96.248995)"><ellipse fill="#00ff8b" fill-opacity="0.501961" cx="0" cy="0" rx="1" ry="1" /></g>
<g transform="translate(1143.159475 571.386313) rotate(-8.847935) scale(151.783175 60.768390)"><ellipse fill="#000000" fill-opacity="0.501961" cx="0" cy="0" rx="1" ry="1" /></g>
<polygon fill="#000000" fill-opacity="0.501961" points="157,-6 -16,-6 10,645" />
<polygon fill="#000000" fill-opacity="0.501961" points="255,193 170,-16 1031,8" />
<g transform="translate(484.613585 521.588452) rotate(-35.626479) scale(7.028460 96.566026)"><ellipse fill="#00ffa2" fill-opacity="0.501961" cx="0" cy="0" rx="1" ry="1" /></g>
<ellipse fill="#000000" fill-opacity="0.501961" cx="157" cy="600" rx="192" ry="45" />
<g transform="translate(544.183652 98.057162) rotate(304.313699) scale(5.457410 78.058596)"><ellipse fill="#ffa5f5" fill-opacity="0.501961" cx="0" cy="0" rx="1" ry="1" /></g>
<g transform="translate(1012 180) rotate(181) scale(138 11)"><rect fill="#ff6fc0" fill-opacity="0.501961" x="-0.5" y="-0.5" width="1" height="1" /></g>
<g transform="translate(152.416170 78.892352) rotate(302.215330) scale(54.446327 32.042274)"><ellipse fill="#4b9f7e" fill-opacity="0.501961" cx="0" cy="0" rx="1" ry="1" /></g>
<g transform="translate(1113 493) rotate(340) scale(52 92)"><rect fill="#b83572" fill-opacity="0.501961" x="-0.5" y="-0.5" width="1" height="1" /></g>
<ellipse fill="#000000" fill-opacity="0.501961" cx="900" cy="459" rx="173" ry="93" />
<g transform="translate(633.414975 323.754875) rotate(101.071234) scale(156.312737 6.438031)"><ellipse fill="#56ffa1" fill-opacity="0.501961" cx="0" cy="0" rx="1" ry="1" /></g>
<g transform="translate(977.308885 395.048504) rotate(304.282851) scale(7.481334 54.988073)"><ellipse fill="#ff87cc" fill-opacity="0.501961" cx="0" cy="0" rx="1" ry="1" /></g>
<ellipse fill="#000000" fill-opacity="0.501961" cx="317" cy="427" rx="69" ry="69" />
<polygon fill="#000000" fill-opacity="0.501961" points="1014,412 1088,180 748,229" />
<polygon fill="#000000" fill-opacity="0.501961" points="604,478 801,326 731,192" />
<polygon fill="#6cdeac" fill-opacity="0.501961" points="629,82 571,221 740,230" />
<g transform="translate(530.054412 327.782136) rotate(71.730177) scale(44.077850 55.191679)"><ellipse fill="#000000" fill-opacity="0.501961" cx="0" cy="0" rx="1" ry="1" /></g>
<polygon fill="#bd5689" fill-opacity="0.501961" points="281,556 382,609 221,455" />
<ellipse fill="#f382b5" fill-opacity="0.501961" cx="205" cy="402" rx="43" ry="50" />
<g transform="translate(299 358) rotate(245) scale(7 88)"><rect fill="#ffb6ff" fill-opacity="0.501961" x="-0.5" y="-0.5" width="1" height="1" /></g>
<ellipse fill="#000000" fill-opacity="0.501961" cx="787" cy="534" rx="68" ry="68" />
<rect fill="#000000" fill-opacity="0.501961" x="404" y="365" width="78" height="94" />
<g transform="translate(595.994148 590.618416) rotate(96.219452) scale(6.725247 69.303384)"><ellipse fill="#fc85c7" fill-opacity="0.501961" cx="0" cy="0" rx="1" ry="1" /></g>
<g transform="translate(68.917377 493.954043) rotate(366.275845) scale(36.024348 117.934334)"><ellipse fill="#000000" fill-opacity="0.501961" cx="0" cy="0" rx="1" ry="1" /></g>
<rect fill="#3ba77e" fill-opacity="0.501961" x="1088" y="209" width="44" height="173" />
<polygon fill="#000000" fill-opacity="0.501961" points="69,528 310,556 231,484" />
<polygon fill="#00ee8f" fill-opacity="0.501961" points="255,313 318,204 289,137" />
<ellipse fill="#000000" fill-opacity="0.501961" cx="777" cy="90" rx="64" ry="64" />
<polygon fill="#00e288" fill-opacity="0.501961" points="872.913025,527.217217,916.017187,554.256540,834.177354,577.550538,835.873820,578.130676" />
<g transform="translate(801.318130 351.820525) rotate(20.830679) scale(107.503498 56.262806)"><ellipse fill="#010007" fill-opacity="0.501961" cx="0" cy="0" rx="1" ry="1" /></g>
<ellipse fill="#ff90d7" fill-opacity="0.501961" cx="603" cy="504" rx="8" ry="35" />
<ellipse fill="#7adab9" fill-opacity="0.501961" cx="446" cy="297" rx="40" ry="40" />
<ellipse fill="#000001" fill-opacity="0.501961" cx="527" cy="165" rx="62" ry="62" />
<ellipse fill="#000000" fill-opacity="0.501961" cx="537" cy="629" rx="269" ry="34" />
<g transform="translate(375 544) rotate(279) scale(130 11)"><rect fill="#fa5da8" fill-opacity="0.501961" x="-0.5" y="-0.5" width="1" height="1" /></g>
<polygon fill="#4cac89" fill-opacity="0.501961" points="1012.239127,368.760019,1093.970605,303.545222,1084.728349,393.531895,1090.806251,411.016757" />
<polygon fill="#00b96c" fill-opacity="0.501961" points="580,488 477,580 388,583" />
<ellipse fill="#56c29b" fill-opacity="0.501961" cx="232" cy="288" rx="43" ry="43" />
<ellipse fill="#000000" fill-opacity="0.501961" cx="515" cy="469" rx="45" ry="45" />
<ellipse fill="#000000" fill-opacity="0.501961" cx="421" cy="515" rx="36" ry="51" />
<g transform="translate(1150 412) rotate(315) scale(136 12)"><rect fill="#db4d90" fill-opacity="0.501961" x="-0.5" y="-0.5" width="1" height="1" /></g>
<g transform="translate(119.099512 542.729179) rotate(185.455900) scale(63.867892 5.736933)"><ellipse fill="#c16798" fill-opacity="0.501961" cx="0" cy="0" rx="1" ry="1" /></g>
<ellipse fill="#000000" fill-opacity="0.501961" cx="1171" cy="463" rx="54" ry="39" />
<ellipse fill="#75fbc3" fill-opacity="0.501961" cx="686" cy="245" rx="18" ry="23" />
<rect fill="#6dcaaa" fill-opacity="0.501961" x="377" y="235" width="78" height="129" />
<g transform="translate(746 236) rotate(125) scale(9 87)"><rect fill="#ff9de1" fill-opacity="0.501961" x="-0.5" y="-0.5" width="1" height="1" /></g>
<g transform="translate(1081.938659 428.023533) rotate(89.534421) scale(44.071735 5.881472)"><ellipse fill="#fc75b5" fill-opacity="0.501961" cx="0" cy="0" rx="1" ry="1" /></g>
<g transform="translate(650 506) rotate(319) scale(41 95)"><rect fill="#00f482" fill-opacity="0.501961" x="-0.5" y="-0.5" width="1" height="1" /></g>
<polygon fill="#00e185" fill-opacity="0.501961" points="384,170 327,273 203,299" />
<rect fill="#020007" fill-opacity="0.501961" x="384" y="0" width="91" height="234" />
<ellipse fill="#000000" fill-opacity="0.501961" cx="572" cy="384" rx="42" ry="42" />
<g transform="translate(162.968938 364.000296) rotate(227.922708) scale(22.886872 28.505737)"><ellipse fill="#e680b1" fill-opacity="0.501961" cx="0" cy="0" rx="1" ry="1" /></g>
<ellipse fill="#c1447f" fill-opacity="0.501961" cx="1137" cy="178" rx="186" ry="6" />
<g transform="translate(497 581) rotate(94) scale(10 45)"><rect fill="#fba2d8" fill-opacity="0.501961" x="-0.5" y="-0.5" width="1" height="1" /></g>
<g transform="translate(221.879867 157.827964) rotate(225.147889) scale(90.558730 7.012688)"><ellipse fill="#33b26b" fill-opacity="0.501961" cx="0" cy="0" rx="1" ry="1" /></g>
<polygon fill="#040002" fill-opacity="0.501961" points="689,593 505,571 642,529" />
<ellipse fill="#000001" fill-opacity="0.501961" cx="159" cy="183" rx="59" ry="59" />
<polygon fill="#69ddb0" fill-opacity="0.501961" points="589.178247,532.132609,646.058664,559.401581,675.480656,561.632307,622.682553,538.851351" />
<g transform="translate(778.878310 179.663502) rotate(341.388308) scale(58.675458 25.171929)"><ellipse fill="#00ea7f" fill-opacity="0.501961" cx="0" cy="0" rx="1" ry="1" /></g>
<g transform="translate(334.275378 517.643723) rotate(583.585552) scale(39.561478 34.672168)"><ellipse fill="#000000" fill-opacity="0.501961" cx="0" cy="0" rx="1" ry="1" /></g>
<ellipse fill="#007a45" fill-opacity="0.501961" cx="949" cy="622" rx="57" ry="42" />
<ellipse fill="#d2719c" fill-opacity="0.501961" cx="130" cy="399" rx="31" ry="31" />
<g transform="translate(817.261137 100.999270) rotate(177.470192) scale(135.229841 42.119262)"><ellipse fill="#010005" fill-opacity="0.501961" cx="0" cy="0" rx="1" ry="1" /></g>
<g transform="translate(404.444049 457.661117) rotate(9.163116) scale(9.488940 86.430175)"><ellipse fill="#000003" fill-opacity="0.501961" cx="0" cy="0" rx="1" ry="1" /></g>
<polygon fill="#00ff9b" fill-opacity="0.501961" points="588.367238,481.021126,499.925857,532.259661,526.207843,526.358622,600.078749,489.879964" />
<g transform="translate(966.315336 532.161112) rotate(239.129470) scale(38.381519 49.484728)"><ellipse fill="#000000" fill-opacity="0.501961" cx="0" cy="0" rx="1" ry="1" /></g>
<g transform="translate(1152.142897 572.563470) rotate(46.838615) scale(45.434962 274.080099)"><ellipse fill="#000000" fill-opacity="0.501961" cx="0" cy="0" rx="1" ry="1" /></g>
<g transform="translate(1075.940009 59.254789) rotate(162.471589) scale(206.322439 79.091859)"><ellipse fill="#000000" fill-opacity="0.501961" cx="0" cy="0" rx="1" ry="1" /></g>
<polygon fill="#00d683" fill-opacity="0.501961" points="315,333 338,212 212,199" />
<g transform="translate(247 490) rotate(313) scale(10 95)"><rect fill="#ea7db2" fill-opacity="0.501961" x="-0.5" y="-0.5" width="1" height="1" /></g>
<ellipse fill="#80c0af" fill-opacity="0.501961" cx="367" cy="233" rx="23" ry="19" />
<polygon fill="#000000" fill-opacity="0.501961" points="736,195 804,255 721,214" />
<polygon fill="#000000" fill-opacity="0.501961" points="242.897812,380.524961,316.428293,343.927278,300.150870,309.270709,240.494327,368.573841" />
<g transform="translate(1054.830372 507.960342) rotate(136.085253) scale(42.702889 6.192385)"><ellipse fill="#00d877" fill-opacity="0.501961" cx="0" cy="0" rx="1" ry="1" /></g>
<polygon fill="#ff8ad4" fill-opacity="0.501961" points="472.308007,363.903653,458.517919,331.949249,591.010738,458.856324,611.209709,499.359921" />
<polygon fill="#06000e" fill-opacity="0.501961" points="534,302 135,-16 603,142" />
</g>
</svg>