<svg xmlns="http://www.w3.org/2000/svg" version="1.1" width="1200" height="630">
<rect x="0" y="0" width="1200" height="630" fill="#12171b" />
<g transform="scale(1.000000) translate(0.5 0.5)">
<g transform="translate(675 351) rotate(334) scale(555 12)"><rect fill="#eeffff" fill-opacity="0.501961" x="-0.5" y="-0.5" width="1" height="1" /></g>
<g transform="translate(793 192) rotate(184) scale(49 198)"><rect fill="#95c1bc" fill-opacity="0.501961" x="-0.5" y="-0.5" width="1" height="1" /></g>
<g transform="translate(487 366) rotate(100) scale(12 427)"><rect fill="#ffffff" fill-opacity="0.501961" x="-0.5" y="-0.5" width="1" height="1" /></g>
<g transform="translate(318 216) rotate(114) scale(12 181)"><rect fill="#f8ffff" fill-opacity="0.501961" x="-0.5" y="-0.5" width="1" height="1" /></g>
<g transform="translate(573 539) rotate(3) scale(220 24)"><rect fill="#a2f8b5" fill-opacity="0.501961" x="-0.5" y="-0.5" width="1" height="1" /></g>
<g transform="translate(725 385) rotate(291) scale(136 11)"><rect fill="#baffff" fill-opacity="0.501961" x="-0.5" y="-0.5" width="1" height="1" /></g>
<g transform="translate(851 137) rotate(393) scale(13 194)"><rect fill="#e7ffff" fill-opacity="0.501961" x="-0.5" y="-0.5" width="1" height="1" /></g>
<g transform="translate(413 362) rotate(68) scale(312 12)"><rect fill="#c2ffbd" fill-opacity="0.501961" x="-0.5" y="-0.5" width="1" height="1" /></g>
<g transform="translate(509 244) rotate(0) scale(188 11)"><rect fill="#deffd8" fill-opacity="0.501961" x="-0.5" y="-0.5" width="1" height="1" /></g>
<g transform="translate(848 85) rotate(153) scale(138 12)"><rect fill="#e8ffff" fill-opacity="0.501961" x="-0.5" y="-0.5" width="1" height="1" /></g>
<g transform="translate(740 408) rotate(190) scale(95 9)"><rect fill="#ffffff" fill-opacity="0.501961" x="-0.5" y="-0.5" width="1" height="1" /></g>
<g transform="translate(209 318) rotate(190) scale(182 9)"><rect fill="#fffff9" fill-opacity="0.501961" x="-0.5" y="-0.5" width="1" height="1" /></g>
<g transform="translate(1046 121) rotate(374) scale(182 46)"><rect fill="#608781" fill-opacity="0.501961" x="-0.5" y="-0.5" width="1" height="1" /></g>
<g transform="translate(997 191) rotate(153) scale(251 11)"><rect fill="#b7e8f6" fill-opacity="0.501961" x="-0.5" y="-0.5" width="1" height="1" /></g>
<g transform="translate(400 577) rotate(244) scale(14 216)"><rect fill="#acdbe6" fill-opacity="0.501961" x="-0.5" y="-0.5" width="1" height="1" /></g>
<g transform="translate(531 590) rotate(-42) scale(13 134)"><rect fill="#91ffd9" fill-opacity="0.501961" x="-0.5" y="-0.5" width="1" height="1" /></g>
<g transform="translate(874 205) rotate(156) scale(137 7)"><rect fill="#fafff4" fill-opacity="0.501961" x="-0.5" y="-0.5" width="1" height="1" /></g>
<g transform="translate(379 123) rotate(0) scale(202 11)"><rect fill="#96ffff" fill-opacity="0.501961" x="-0.5" y="-0.5" width="1" height="1" /></g>
<g transform="translate(676 531) rotate(194) scale(13 176)"><rect fill="#90f7c6" fill-opacity="0.501961" x="-0.5" y="-0.5" width="1" height="1" /></g>
<g transform="translate(780 242) rotate(154) scale(50 40)"><rect fill="#d2ffff" fill-opacity="0.501961" x="-0.5" y="-0.5" width="1" height="1" /></g>
<g transform="translate(272 243) rotate(90) scale(11 176)"><rect fill="#bcffb6" fill-opacity="0.501961" x="-0.5" y="-0.5" width="1" height="1" /></g>
<g transform="translate(577 566) rotate(46) scale(10 90)"><rect fill="#f7ffff" fill-opacity="0.501961" x="-0.5" y="-0.5" width="1" height="1" /></g>
<g transform="translate(803 160) rotate(365) scale(30 71)"><rect fill="#000000" fill-opacity="0.501961" x="-0.5" y="-0.5" width="1" height="1" /></g>
<g transform="translate(65 319) rotate(360) scale(10 392)"><rect fill="#76f9c8" fill-opacity="0.501961" x="-0.5" y="-0.5" width="1" height="1" /></g>
<g transform="translate(883 118) rotate(180) scale(225 11)"><rect fill="#b4e5ea" fill-opacity="0.501961" x="-0.5" y="-0.5" width="1" height="1" /></g>
<g transform="translate(195 124) rotate(179) scale(160 11)"><rect fill="#76faca" fill-opacity="0.501961" x="-0.5" y="-0.5" width="1" height="1" /></g>
<g transform="translate(604 593) rotate(90) scale(94 13)"><rect fill="#c0f3fa" fill-opacity="0.501961" x="-0.5" y="-0.5" width="1" height="1" /></g>
<g transform="translate(526 521) rotate(60) scale(18 41)"><rect fill="#aaffa1" fill-opacity="0.501961" x="-0.5" y="-0.5" width="1" height="1" /></g>
<g transform="translate(979 161) rotate(157) scale(117 8)"><rect fill="#c0ffba" fill-opacity="0.501961" x="-0.5" y="-0.5" width="1" height="1" /></g>
<g transform="translate(944 73) rotate(289) scale(11 83)"><rect fill="#9cc7cc" fill-opacity="0.501961" x="-0.5" y="-0.5" width="1" height="1" /></g>
<g transform="translate(734 365) rotate(381) scale(9 200)"><rect fill="#79ffea" fill-opacity="0.501961" x="-0.5" y="-0.5" width="1" height="1" /></g>
<g transform="translate(723 100) rotate(63) scale(69 425)"><rect fill="#000003" fill-opacity="0.501961" x="-0.5" y="-0.5" width="1" height="1" /></g>
<g transform="translate(798 272) rotate(246) scale(20 51)"><rect fill="#000000" fill-opacity="0.501961" x="-0.5" y="-0.5" width="1" height="1" /></g>
<g transform="translate(780 177) rotate(180) scale(12 106)"><rect fill="#e2ffe9" fill-opacity="0.501961" x="-0.5" y="-0.5" width="1" height="1" /></g>
<g transform="translate(1140 544) rotate(226) scale(13 252)"><rect fill="#799e75" fill-opacity="0.501961" x="-0.5" y="-0.5" width="1" height="1" /></g>
<g transform="translate(452 245) rotate(90) scale(10 293)"><rect fill="#86ff85" fill-opacity="0.501961" x="-0.5" y="-0.5" width="1" height="1" /></g>
<g transform="translate(667 539) rotate(351) scale(32 53)"><rect fill="#70c16f" fill-opacity="0.501961" x="-0.5" y="-0.5" width="1" height="1" /></g>
<g transform="translate(463 616) rotate(170) scale(162 6)"><rect fill="#79eebc" fill-opacity="0.501961" x="-0.5" y="-0.5" width="1" height="1" /></g>
<g transform="translate(964 482) rotate(44) scale(318 537)"><rect fill="#000000" fill-opacity="0.501961" x="-0.5" y="-0.5" width="1" height="1" /></g>
<g transform="translate(184 521) rotate(71) scale(230 412)"><rect fill="#000000" fill-opacity="0.501961" x="-0.5" y="-0.5" width="1" height="1" /></g>
<g transform="translate(169 244) rotate(91) scale(10 93)"><rect fill="#93ff8e" fill-opacity="0.501961" x="-0.5" y="-0.5" width="1" height="1" /></g>
<g transform="translate(456 466) rotate(68) scale(154 9)"><rect fill="#87ff89" fill-opacity="0.501961" x="-0.5" y="-0.5" width="1" height="1" /></g>
<g transform="translate(1143 47) rotate(147) scale(155 100)"><rect fill="#000000" fill-opacity="0.501961" x="-0.5" y="-0.5" width="1" height="1" /></g>
<g transform="translate(662 607) rotate(91) scale(107 14)"><rect fill="#a0cec1" fill-opacity="0.501961" x="-0.5" y="-0.5" width="1" height="1" /></g>
<g transform="translate(172 40) rotate(180) scale(437 157)"><rect fill="#000000" fill-opacity="0.501961" x="-0.5" y="-0.5" width="1" height="1" /></g>
<g transform="translate(501 368) rotate(100) scale(8 192)"><rect fill="#d8ffd5" fill-opacity="0.501961" x="-0.5" y="-0.5" width="1" height="1" /></g>
<g transform="translate(895 260) rotate(243) scale(21 176)"><rect fill="#000004" fill-opacity="0.501961" x="-0.5" y="-0.5" width="1" height="1" /></g>
<g transform="translate(542 547) rotate(92) scale(7 85)"><rect fill="#000000" fill-opacity="0.501961" x="-0.5" y="-0.5" width="1" height="1" /></g>
<g transform="translate(1130 166) rotate(312) scale(11 41)"><rect fill="#bcd1d0" fill-opacity="0.501961" x="-0.5" y="-0.5" width="1" height="1" /></g>
<g transform="translate(968 101) rotate(-78) scale(22 80)"><rect fill="#000000" fill-opacity="0.501961" x="-0.5" y="-0.5" width="1" height="1" /></g>
<g transform="translate(578 54) rotate(183) scale(394 141)"><rect fill="#000003" fill-opacity="0.501961" x="-0.5" y="-0.5" width="1" height="1" /></g>
<g transform="translate(687 345) rotate(153) scale(126 9)"><rect fill="#c4ffff" fill-opacity="0.501961" x="-0.5" y="-0.5" width="1" height="1" /></g>
<g transform="translate(1076 116) rotate(102) scale(38 35)"><rect fill="#4db38c" fill-opacity="0.501961" x="-0.5" y="-0.5" width="1" height="1" /></g>
<g transform="translate(802 152) rotate(90) scale(50 33)"><rect fill="#000000" fill-opacity="0.501961" x="-0.5" y="-0.5" width="1" height="1" /></g>
<g transform="translate(472 454) rotate(334) scale(117 8)"><rect fill="#a8e6f1" fill-opacity="0.501961" x="-0.5" y="-0.5" width="1" height="1" /></g>
<g transform="translate(755 414) rotate(99) scale(8 66)"><rect fill="#c6ffc4" fill-opacity="0.501961" x="-0.5" y="-0.5" width="1" height="1" /></g>
<g transform="translate(1153 113) rotate(333) scale(130 10)"><rect fill="#698187" fill-opacity="0.501961" x="-0.5" y="-0.5" width="1" height="1" /></g>
<g transform="translate(361 236) rotate(280) scale(31 30)"><rect fill="#85fe83" fill-opacity="0.501961" x="-0.5" y="-0.5" width="1" height="1" /></g>
<g transform="translate(656 394) rotate(10) scale(188 10)"><rect fill="#b7ffbc" fill-opacity="0.501961" x="-0.5" y="-0.5" width="1" height="1" /></g>
<g transform="translate(1007 32) rotate(375) scale(188 95)"><rect fill="#000000" fill-opacity="0.501961" x="-0.5" y="-0.5" width="1" height="1" /></g>
<g transform="translate(635 570) rotate(268) scale(46 41)"><rect fill="#000000" fill-opacity="0.501961" x="-0.5" y="-0.5" width="1" height="1" /></g>
<g transform="translate(394 315) rotate(158) scale(9 181)"><rect fill="#90ff8f" fill-opacity="0.501961" x="-0.5" y="-0.5" width="1" height="1" /></g>
<g transform="translate(99 124) rotate(179) scale(74 10)"><rect fill="#54b290" fill-opacity="0.501961" x="-0.5" y="-0.5" width="1" height="1" /></g>
<g transform="translate(751 261) rotate(298) scale(30 33)"><rect fill="#000001" fill-opacity="0.501961" x="-0.5" y="-0.5" width="1" height="1" /></g>
<g transform="translate(492 425) rotate(64) scale(19 82)"><rect fill="#000002" fill-opacity="0.501961" x="-0.5" y="-0.5" width="1" height="1" /></g>
<g transform="translate(822 179) rotate(211) scale(10 117)"><rect fill="#a2dee7" fill-opacity="0.501961" x="-0.5" y="-0.5" width="1" height="1" /></g>
<g transform="translate(314 214) rotate(206) scale(73 7)"><rect fill="#ebffff" fill-opacity="0.501961" x="-0.5" y="-0.5" width="1" height="1" /></g>
<g transform="translate(808 285) rotate(153) scale(176 8)"><rect fill="#aef6ff" fill-opacity="0.501961" x="-0.5" y="-0.5" width="1" height="1" /></g>
<g transform="translate(127 184) rotate(178) scale(104 111)"><rect fill="#000000" fill-opacity="0.501961" x="-0.5" y="-0.5" width="1" height="1" /></g>
<g transform="translate(1169 232) rotate(-30) scale(141 119)"><rect fill="#000000" fill-opacity="0.501961" x="-0.5" y="-0.5" width="1" height="1" /></g>
<g transform="translate(118 379) rotate(273) scale(131 87)"><rect fill="#000002" fill-opacity="0.501961" x="-0.5" y="-0.5" width="1" height="1" /></g>
<g transform="translate(558 537) rotate(2) scale(79 10)"><rect fill="#c3f9b6" fill-opacity="0.501961" x="-0.5" y="-0.5" width="1" height="1" /></g>
<g transform="translate(16 231) rotate(270) scale(492 84)"><rect fill="#000000" fill-opacity="0.501961" x="-0.5" y="-0.5" width="1" height="1" /></g>
<g transform="translate(65 480) rotate(1) scale(11 125)"><rect fill="#50a286" fill-opacity="0.501961" x="-0.5" y="-0.5" width="1" height="1" /></g>
<g transform="translate(767 204) rotate(267) scale(50 10)"><rect fill="#000000" fill-opacity="0.501961" x="-0.5" y="-0.5" width="1" height="1" /></g>
<g transform="translate(1004 130) rotate(94) scale(12 55)"><rect fill="#000000" fill-opacity="0.501961" x="-0.5" y="-0.5" width="1" height="1" /></g>
<g transform="translate(1136 603) rotate(316) scale(153 59)"><rect fill="#000000" fill-opacity="0.501961" x="-0.5" y="-0.5" width="1" height="1" /></g>
<g transform="translate(705 484) rotate(21) scale(24 91)"><rect fill="#000006" fill-opacity="0.501961" x="-0.5" y="-0.5" width="1" height="1" /></g>
<g transform="translate(1020 119) rotate(361) scale(74 9)"><rect fill="#86b4b4" fill-opacity="0.501961" x="-0.5" y="-0.5" width="1" height="1" /></g>
<g transform="translate(759 238) rotate(49) scale(20 19)"><rect fill="#bef7ff" fill-opacity="0.501961" x="-0.5" y="-0.5" width="1" height="1" /></g>
<g transform="translate(401 273) rotate(325) scale(23 51)"><rect fill="#000003" fill-opacity="0.501961" x="-0.5" y="-0.5" width="1" height="1" /></g>
<g transform="translate(785 274) rotate(288) scale(27 21)"><rect fill="#000000" fill-opacity="0.501961" x="-0.5" y="-0.5" width="1" height="1" /></g>
<g transform="translate(351 343) rotate(190) scale(120 8)"><rect fill="#bfffbd" fill-opacity="0.501961" x="-0.5" y="-0.5" width="1" height="1" /></g>
<g transform="translate(583 397) rotate(333) scale(182 8)"><rect fill="#baf9ff" fill-opacity="0.501961" x="-0.5" y="-0.5" width="1" height="1" /></g>
<g transform="translate(688 479) rotate(113) scale(113 8)"><rect fill="#7affd5" fill-opacity="0.501961" x="-0.5" y="-0.5" width="1" height="1" /></g>
<g transform="translate(350 156) rotate(273) scale(40 341)"><rect fill="#000005" fill-opacity="0.501961" x="-0.5" y="-0.5" width="1" height="1" /></g>
<g transform="translate(494 522) rotate(76) scale(22 14)"><rect fill="#000000" fill-opacity="0.501961" x="-0.5" y="-0.5" width="1" height="1" /></g>
<g transform="translate(1055 142) rotate(157) scale(26 19)"><rect fill="#000000" fill-opacity="0.501961" x="-0.5" y="-0.5" width="1" height="1" /></g>
<g transform="translate(533 298) rotate(92) scale(93 246)"><rect fill="#01000c" fill-opacity="0.501961" x="-0.5" y="-0.5" width="1" height="1" /></g>
<g transform="translate(559 514) rotate(93) scale(34 29)"><rect fill="#000000" fill-opacity="0.501961" x="-0.5" y="-0.5" width="1" height="1" /></g>
<g transform="translate(671 446) rotate(111) scale(80 47)"><rect fill="#03010c" fill-opacity="0.501961" x="-0.5" y="-0.5" width="1" height="1" /></g>
<g transform="translate(457 531) rotate(168) scale(30 16)"><rect fill="#000000" fill-opacity="0.501961" x="-0.5" y="-0.5" width="1" height="1" /></g>
<g transform="translate(198 316) rotate(100) scale(11 156)"><rect fill="#96ee95" fill-opacity="0.501961" x="-0.5" y="-0.5" width="1" height="1" /></g>
<g transform="translate(428 449) rotate(245) scale(34 30)"><rect fill="#000005" fill-opacity="0.501961" x="-0.5" y="-0.5" width="1" height="1" /></g>
<g transform="translate(795 316) rotate(243) scale(32 69)"><rect fill="#00000a" fill-opacity="0.501961" x="-0.5" y="-0.5" width="1" height="1" /></g>
<g transform="translate(1017 99) rotate(19) scale(83 8)"><rect fill="#87a6ae" fill-opacity="0.501961" x="-0.5" y="-0.5" width="1" height="1" /></g>
<g transform="translate(1129 139) rotate(152) scale(31 17)"><rect fill="#000000" fill-opacity="0.501961" x="-0.5" y="-0.5" width="1" height="1" /></g>
<g transform="translate(796 192) rotate(290) scale(34 11)"><rect fill="#000000" fill-opacity="0.501961" x="-0.5" y="-0.5" width="1" height="1" /></g>
<g transform="translate(252 289) rotate(367) scale(231 54)"><rect fill="#000007" fill-opacity="0.501961" x="-0.5" y="-0.5" width="1" height="1" /></g>
<g transform="translate(278 124) rotate(361) scale(154 7)"><rect fill="#63d6a5" fill-opacity="0.501961" x="-0.5" y="-0.5" width="1" height="1" /></g>
</g>
</svg>