<svg xmlns="http://www.w3.org/2000/svg" version="1.1" width="1200" height="630">
<rect x="0" y="0" width="1200" height="630" fill="#233e5a" />
<g transform="scale(1.000000) translate(0.5 0.5)">
<g transform="translate(361 408) rotate(47) scale(261 239)"><rect fill="#b1ffff" fill-opacity="0.501961" x="-0.5" y="-0.5" width="1" height="1" /></g>
<g transform="translate(646 227) rotate(272) scale(138 154)"><rect fill="#c6ffff" fill-opacity="0.501961" x="-0.5" y="-0.5" width="1" height="1" /></g>
<g transform="translate(175 228) rotate(-74) scale(187 310)"><rect fill="#6fa2e6" fill-opacity="0.501961" x="-0.5" y="-0.5" width="1" height="1" /></g>
<g transform="translate(108 521) rotate(59) scale(396 288)"><rect fill="#000000" fill-opacity="0.501961" x="-0.5" y="-0.5" width="1" height="1" /></g>
<g transform="translate(637 481) rotate(227) scale(287 148)"><rect fill="#2688ff" fill-opacity="0.501961" x="-0.5" y="-0.5" width="1" height="1" /></g>
<g transform="translate(1053 35) rotate(254) scale(222 383)"><rect fill="#000000" fill-opacity="0.501961" x="-0.5" y="-0.5" width="1" height="1" /></g>
<g transform="translate(551 192) rotate(137) scale(190 64)"><rect fill="#000000" fill-opacity="0.501961" x="-0.5" y="-0.5" width="1" height="1" /></g>
<g transform="translate(392 90) rotate(314) scale(253 428)"><rect fill="#000000" fill-opacity="0.501961" x="-0.5" y="-0.5" width="1" height="1" /></g>
<g transform="translate(665 169) rotate(-44) scale(174 55)"><rect fill="#93e9ff" fill-opacity="0.501961" x="-0.5" y="-0.5" width="1" height="1" /></g>
<g transform="translate(885 355) rotate(-90) scale(448 190)"><rect fill="#000000" fill-opacity="0.501961" x="-0.5" y="-0.5" width="1" height="1" /></g>
<g transform="translate(1112 610) rotate(85) scale(157 258)"><rect fill="#000000" fill-opacity="0.501961" x="-0.5" y="-0.5" width="1" height="1" /></g>
<g transform="translate(743 48) rotate(10) scale(282 64)"><rect fill="#0376e5" fill-opacity="0.501961" x="-0.5" y="-0.5" width="1" height="1" /></g>
<g transform="translate(607 265) rotate(358) scale(188 53)"><rect fill="#9efeff" fill-opacity="0.501961" x="-0.5" y="-0.5" width="1" height="1" /></g>
<g transform="translate(1073 168) rotate(385) scale(105 148)"><rect fill="#577acb" fill-opacity="0.501961" x="-0.5" y="-0.5" width="1" height="1" /></g>
<g transform="translate(69 32) rotate(366) scale(144 83)"><rect fill="#000000" fill-opacity="0.501961" x="-0.5" y="-0.5" width="1" height="1" /></g>
<g transform="translate(1075 410) rotate(216) scale(121 231)"><rect fill="#2f48c6" fill-opacity="0.501961" x="-0.5" y="-0.5" width="1" height="1" /></g>
<g transform="translate(901 608) rotate(203) scale(110 86)"><rect fill="#8c9f95" fill-opacity="0.501961" x="-0.5" y="-0.5" width="1" height="1" /></g>
<g transform="translate(747 181) rotate(271) scale(198 43)"><rect fill="#000000" fill-opacity="0.501961" x="-0.5" y="-0.5" width="1" height="1" /></g>
<g transform="translate(665 334) rotate(57) scale(13 142)"><rect fill="#bdffff" fill-opacity="0.501961" x="-0.5" y="-0.5" width="1" height="1" /></g>
<g transform="translate(1097 273) rotate(88) scale(58 242)"><rect fill="#000000" fill-opacity="0.501961" x="-0.5" y="-0.5" width="1" height="1" /></g>
<g transform="translate(500 520) rotate(217) scale(76 156)"><rect fill="#000000" fill-opacity="0.501961" x="-0.5" y="-0.5" width="1" height="1" /></g>
<g transform="translate(784 394) rotate(90) scale(209 11)"><rect fill="#eeffff" fill-opacity="0.501961" x="-0.5" y="-0.5" width="1" height="1" /></g>
<g transform="translate(608 516) rotate(109) scale(169 101)"><rect fill="#1c7af3" fill-opacity="0.501961" x="-0.5" y="-0.5" width="1" height="1" /></g>
<g transform="translate(202 515) rotate(191) scale(14 182)"><rect fill="#86cadf" fill-opacity="0.501961" x="-0.5" y="-0.5" width="1" height="1" /></g>
<g transform="translate(355 601) rotate(85) scale(76 183)"><rect fill="#000000" fill-opacity="0.501961" x="-0.5" y="-0.5" width="1" height="1" /></g>
<g transform="translate(1151 87) rotate(145) scale(78 306)"><rect fill="#000000" fill-opacity="0.501961" x="-0.5" y="-0.5" width="1" height="1" /></g>
<g transform="translate(435 399) rotate(136) scale(114 169)"><rect fill="#8cd6ff" fill-opacity="0.501961" x="-0.5" y="-0.5" width="1" height="1" /></g>
<g transform="translate(371 106) rotate(76) scale(10 177)"><rect fill="#93daf1" fill-opacity="0.501961" x="-0.5" y="-0.5" width="1" height="1" /></g>
<g transform="translate(704 365) rotate(106) scale(143 8)"><rect fill="#fdffff" fill-opacity="0.501961" x="-0.5" y="-0.5" width="1" height="1" /></g>
<g transform="translate(752 382) rotate(270) scale(198 51)"><rect fill="#000000" fill-opacity="0.501961" x="-0.5" y="-0.5" width="1" height="1" /></g>
<g transform="translate(974 349) rotate(339) scale(10 108)"><rect fill="#e0ffff" fill-opacity="0.501961" x="-0.5" y="-0.5" width="1" height="1" /></g>
<g transform="translate(661 401) rotate(263) scale(71 41)"><rect fill="#000000" fill-opacity="0.501961" x="-0.5" y="-0.5" width="1" height="1" /></g>
<g transform="translate(543 25) rotate(172) scale(109 69)"><rect fill="#000000" fill-opacity="0.501961" x="-0.5" y="-0.5" width="1" height="1" /></g>
<g transform="translate(326 277) rotate(314) scale(91 195)"><rect fill="#5b87f8" fill-opacity="0.501961" x="-0.5" y="-0.5" width="1" height="1" /></g>
<g transform="translate(204 363) rotate(10) scale(39 79)"><rect fill="#000000" fill-opacity="0.501961" x="-0.5" y="-0.5" width="1" height="1" /></g>
<g transform="translate(804 149) rotate(98) scale(115 144)"><rect fill="#00040a" fill-opacity="0.501961" x="-0.5" y="-0.5" width="1" height="1" /></g>
<g transform="translate(192 127) rotate(314) scale(79 144)"><rect fill="#4a6aaf" fill-opacity="0.501961" x="-0.5" y="-0.5" width="1" height="1" /></g>
<g transform="translate(503 620) rotate(109) scale(33 103)"><rect fill="#9eb5aa" fill-opacity="0.501961" x="-0.5" y="-0.5" width="1" height="1" /></g>
<g transform="translate(516 366) rotate(136) scale(42 81)"><rect fill="#000000" fill-opacity="0.501961" x="-0.5" y="-0.5" width="1" height="1" /></g>
<g transform="translate(546 256) rotate(228) scale(17 117)"><rect fill="#9ff1ff" fill-opacity="0.501961" x="-0.5" y="-0.5" width="1" height="1" /></g>
<g transform="translate(504 77) rotate(167) scale(202 8)"><rect fill="#8ed9f1" fill-opacity="0.501961" x="-0.5" y="-0.5" width="1" height="1" /></g>
<g transform="translate(44 330) rotate(101) scale(65 137)"><rect fill="#000000" fill-opacity="0.501961" x="-0.5" y="-0.5" width="1" height="1" /></g>
<g transform="translate(66 165) rotate(192) scale(134 180)"><rect fill="#50786e" fill-opacity="0.501961" x="-0.5" y="-0.5" width="1" height="1" /></g>
<g transform="translate(584 388) rotate(288) scale(109 73)"><rect fill="#5566ff" fill-opacity="0.501961" x="-0.5" y="-0.5" width="1" height="1" /></g>
<g transform="translate(543 598) rotate(50) scale(123 40)"><rect fill="#000000" fill-opacity="0.501961" x="-0.5" y="-0.5" width="1" height="1" /></g>
<g transform="translate(1016 320) rotate(138) scale(78 62)"><rect fill="#000000" fill-opacity="0.501961" x="-0.5" y="-0.5" width="1" height="1" /></g>
<g transform="translate(628 118) rotate(152) scale(9 136)"><rect fill="#99e5f9" fill-opacity="0.501961" x="-0.5" y="-0.5" width="1" height="1" /></g>
<g transform="translate(228 21) rotate(214) scale(216 111)"><rect fill="#000000" fill-opacity="0.501961" x="-0.5" y="-0.5" width="1" height="1" /></g>
<g transform="translate(687 480) rotate(50) scale(84 79)"><rect fill="#1192ff" fill-opacity="0.501961" x="-0.5" y="-0.5" width="1" height="1" /></g>
<g transform="translate(291 145) rotate(286) scale(39 12)"><rect fill="#d8ffff" fill-opacity="0.501961" x="-0.5" y="-0.5" width="1" height="1" /></g>
<g transform="translate(1016 230) rotate(177) scale(58 33)"><rect fill="#6692ee" fill-opacity="0.501961" x="-0.5" y="-0.5" width="1" height="1" /></g>
<g transform="translate(789 574) rotate(109) scale(45 69)"><rect fill="#000000" fill-opacity="0.501961" x="-0.5" y="-0.5" width="1" height="1" /></g>
<g transform="translate(515 327) rotate(11) scale(88 65)"><rect fill="#000107" fill-opacity="0.501961" x="-0.5" y="-0.5" width="1" height="1" /></g>
<g transform="translate(654 97) rotate(48) scale(62 46)"><rect fill="#000000" fill-opacity="0.501961" x="-0.5" y="-0.5" width="1" height="1" /></g>
<g transform="translate(663 605) rotate(290) scale(232 148)"><rect fill="#0869bd" fill-opacity="0.501961" x="-0.5" y="-0.5" width="1" height="1" /></g>
<g transform="translate(61 528) rotate(184) scale(247 320)"><rect fill="#000000" fill-opacity="0.501961" x="-0.5" y="-0.5" width="1" height="1" /></g>
<g transform="translate(692 242) rotate(90) scale(104 63)"><rect fill="#86daff" fill-opacity="0.501961" x="-0.5" y="-0.5" width="1" height="1" /></g>
<g transform="translate(266 285) rotate(49) scale(197 125)"><rect fill="#5178d2" fill-opacity="0.501961" x="-0.5" y="-0.5" width="1" height="1" /></g>
<g transform="translate(547 211) rotate(46) scale(43 187)"><rect fill="#06162b" fill-opacity="0.501961" x="-0.5" y="-0.5" width="1" height="1" /></g>
<g transform="translate(1199 363) rotate(93) scale(151 35)"><rect fill="#000000" fill-opacity="0.501961" x="-0.5" y="-0.5" width="1" height="1" /></g>
<g transform="translate(252 534) rotate(224) scale(10 165)"><rect fill="#5d89cd" fill-opacity="0.501961" x="-0.5" y="-0.5" width="1" height="1" /></g>
<g transform="translate(54 22) rotate(277) scale(93 164)"><rect fill="#000000" fill-opacity="0.501961" x="-0.5" y="-0.5" width="1" height="1" /></g>
<g transform="translate(880 42) rotate(54) scale(152 34)"><rect fill="#000000" fill-opacity="0.501961" x="-0.5" y="-0.5" width="1" height="1" /></g>
<g transform="translate(1094 602) rotate(271) scale(95 212)"><rect fill="#000000" fill-opacity="0.501961" x="-0.5" y="-0.5" width="1" height="1" /></g>
<g transform="translate(219 412) rotate(48) scale(41 39)"><rect fill="#79bbdb" fill-opacity="0.501961" x="-0.5" y="-0.5" width="1" height="1" /></g>
<g transform="translate(333 186) rotate(339) scale(48 16)"><rect fill="#0b97ff" fill-opacity="0.501961" x="-0.5" y="-0.5" width="1" height="1" /></g>
<g transform="translate(168 320) rotate(51) scale(43 46)"><rect fill="#4483e6" fill-opacity="0.501961" x="-0.5" y="-0.5" width="1" height="1" /></g>
<g transform="translate(1136 210) rotate(267) scale(63 74)"><rect fill="#4c6ab1" fill-opacity="0.501961" x="-0.5" y="-0.5" width="1" height="1" /></g>
<g transform="translate(973 34) rotate(313) scale(173 170)"><rect fill="#000003" fill-opacity="0.501961" x="-0.5" y="-0.5" width="1" height="1" /></g>
<g transform="translate(850 604) rotate(232) scale(33 121)"><rect fill="#778f92" fill-opacity="0.501961" x="-0.5" y="-0.5" width="1" height="1" /></g>
<g transform="translate(537 467) rotate(343) scale(25 74)"><rect fill="#070000" fill-opacity="0.501961" x="-0.5" y="-0.5" width="1" height="1" /></g>
<g transform="translate(643 322) rotate(-33) scale(70 29)"><rect fill="#000000" fill-opacity="0.501961" x="-0.5" y="-0.5" width="1" height="1" /></g>
<g transform="translate(1177 70) rotate(65) scale(215 115)"><rect fill="#000000" fill-opacity="0.501961" x="-0.5" y="-0.5" width="1" height="1" /></g>
<g transform="translate(765 629) rotate(114) scale(45 61)"><rect fill="#000000" fill-opacity="0.501961" x="-0.5" y="-0.5" width="1" height="1" /></g>
<g transform="translate(1000 165) rotate(207) scale(28 213)"><rect fill="#000409" fill-opacity="0.501961" x="-0.5" y="-0.5" width="1" height="1" /></g>
<g transform="translate(769 247) rotate(186) scale(86 89)"><rect fill="#030d17" fill-opacity="0.501961" x="-0.5" y="-0.5" width="1" height="1" /></g>
<g transform="translate(302 565) rotate(138) scale(49 107)"><rect fill="#000105" fill-opacity="0.501961" x="-0.5" y="-0.5" width="1" height="1" /></g>
<g transform="translate(291 505) rotate(47) scale(210 15)"><rect fill="#69a0b6" fill-opacity="0.501961" x="-0.5" y="-0.5" width="1" height="1" /></g>
<g transform="translate(1137 312) rotate(0) scale(58 46)"><rect fill="#2e49ae" fill-opacity="0.501961" x="-0.5" y="-0.5" width="1" height="1" /></g>
<g transform="translate(784 524) rotate(182) scale(9 50)"><rect fill="#c9e4d4" fill-opacity="0.501961" x="-0.5" y="-0.5" width="1" height="1" /></g>
<g transform="translate(721 400) rotate(198) scale(40 77)"><rect fill="#000308" fill-opacity="0.501961" x="-0.5" y="-0.5" width="1" height="1" /></g>
<g transform="translate(463 513) rotate(318) scale(181 35)"><rect fill="#040c13" fill-opacity="0.501961" x="-0.5" y="-0.5" width="1" height="1" /></g>
<g transform="translate(367 406) rotate(33) scale(124 134)"><rect fill="#7dc1de" fill-opacity="0.501961" x="-0.5" y="-0.5" width="1" height="1" /></g>
<g transform="translate(837 567) rotate(143) scale(104 35)"><rect fill="#000005" fill-opacity="0.501961" x="-0.5" y="-0.5" width="1" height="1" /></g>
<g transform="translate(128 294) rotate(29) scale(15 69)"><rect fill="#000000" fill-opacity="0.501961" x="-0.5" y="-0.5" width="1" height="1" /></g>
<g transform="translate(881 93) rotate(233) scale(37 20)"><rect fill="#167de0" fill-opacity="0.501961" x="-0.5" y="-0.5" width="1" height="1" /></g>
<g transform="translate(718 122) rotate(92) scale(85 18)"><rect fill="#85c5da" fill-opacity="0.501961" x="-0.5" y="-0.5" width="1" height="1" /></g>
<g transform="translate(772 12) rotate(289) scale(39 144)"><rect fill="#0356a5" fill-opacity="0.501961" x="-0.5" y="-0.5" width="1" height="1" /></g>
<g transform="translate(589 92) rotate(152) scale(32 56)"><rect fill="#000000" fill-opacity="0.501961" x="-0.5" y="-0.5" width="1" height="1" /></g>
<g transform="translate(581 308) rotate(3) scale(134 25)"><rect fill="#00070f" fill-opacity="0.501961" x="-0.5" y="-0.5" width="1" height="1" /></g>
<g transform="translate(552 274) rotate(96) scale(39 46)"><rect fill="#98e2ff" fill-opacity="0.501961" x="-0.5" y="-0.5" width="1" height="1" /></g>
<g transform="translate(45 276) rotate(101) scale(40 138)"><rect fill="#649891" fill-opacity="0.501961" x="-0.5" y="-0.5" width="1" height="1" /></g>
<g transform="translate(937 510) rotate(317) scale(60 173)"><rect fill="#00060c" fill-opacity="0.501961" x="-0.5" y="-0.5" width="1" height="1" /></g>
<g transform="translate(1120 492) rotate(66) scale(94 152)"><rect fill="#1e2d7f" fill-opacity="0.501961" x="-0.5" y="-0.5" width="1" height="1" /></g>
<g transform="translate(584 472) rotate(71) scale(76 58)"><rect fill="#4c54cb" fill-opacity="0.501961" x="-0.5" y="-0.5" width="1" height="1" /></g>
<g transform="translate(246 347) rotate(281) scale(30 9)"><rect fill="#000000" fill-opacity="0.501961" x="-0.5" y="-0.5" width="1" height="1" /></g>
<g transform="translate(1087 85) rotate(53) scale(61 23)"><rect fill="#3f5b94" fill-opacity="0.501961" x="-0.5" y="-0.5" width="1" height="1" /></g>
<g transform="translate(961 431) rotate(279) scale(91 45)"><rect fill="#02090c" fill-opacity="0.501961" x="-0.5" y="-0.5" width="1" height="1" /></g>
<g transform="translate(1040 380) rotate(127) scale(103 46)"><rect fill="#3758c1" fill-opacity="0.501961" x="-0.5" y="-0.5" width="1" height="1" /></g>
<g transform="translate(385 41) rotate(0) scale(140 91)"><rect fill="#000409" fill-opacity="0.501961" x="-0.5" y="-0.5" width="1" height="1" /></g>
</g>
</svg>