<svg xmlns="http://www.w3.org/2000/svg" version="1.1" width="1200" height="630">
<rect x="0" y="0" width="1200" height="630" fill="#484137" />
<g transform="scale(1.000000) translate(0.5 0.5)">
<polygon fill="#ffffbc" fill-opacity="0.501961" points="347,-16 623,229 -16,374" />
<polygon fill="#ffe54f" fill-opacity="0.501961" points="585,33 937,115 962,645" />
<polygon fill="#000000" fill-opacity="0.501961" points="668,160 841,645 -16,615" />
<polygon fill="#6782ff" fill-opacity="0.501961" points="1164,199 613,622 859,300" />
<polygon fill="#000000" fill-opacity="0.501961" points="1207,411 753,-16 1215,-14" />
<polygon fill="#000000" fill-opacity="0.501961" points="991,627 -1,374 -16,640" />
<polygon fill="#8a92c8" fill-opacity="0.501961" points="247,-10 180,418 -16,368" />
<polygon fill="#e5b657" fill-opacity="0.501961" points="941,645 1037,411 704,436" />
<polygon fill="#ffda86" fill-opacity="0.501961" points="497,-16 561,248 224,317" />
<polygon fill="#a9bbff" fill-opacity="0.501961" points="723,125 313,388 482,201" />
<polygon fill="#ffb115" fill-opacity="0.501961" points="598,58 985,123 807,378" />
<polygon fill="#00000b" fill-opacity="0.501961" points="119,645 685,528 211,275" />
<polygon fill="#000000" fill-opacity="0.501961" points="-16,-5 4,285 162,-16" />
<polygon fill="#000000" fill-opacity="0.501961" points="1209,186 1215,-16 462,-4" />
<polygon fill="#c29b47" fill-opacity="0.501961" points="169,14 240,325 519,-16" />
<polygon fill="#000000" fill-opacity="0.501961" points="501,-16 652,130 549,195" />
<polygon fill="#000000" fill-opacity="0.501961" points="1215,623 1029,645 1021,467" />
<polygon fill="#2a42b0" fill-opacity="0.501961" points="1215,390 1076,561 983,328" />
<polygon fill="#000010" fill-opacity="0.501961" points="872,418 996,411 1155,219" />
<polygon fill="#888eb1" fill-opacity="0.501961" points="211,134 177,420 -16,275" />
<polygon fill="#000000" fill-opacity="0.501961" points="2,-16 139,177 -16,271" />
<polygon fill="#b89132" fill-opacity="0.501961" points="1026,645 772,500 1018,395" />
<polygon fill="#000012" fill-opacity="0.501961" points="809,389 223,645 569,225" />
<polygon fill="#5d6ec2" fill-opacity="0.501961" points="1196,174 657,587 856,310" />
<polygon fill="#5579fa" fill-opacity="0.501961" points="618,189 685,109 799,73" />
<polygon fill="#304186" fill-opacity="0.501961" points="151,-16 63,121 218,225" />
<polygon fill="#000000" fill-opacity="0.501961" points="1215,162 1002,326 1215,379" />
<polygon fill="#000000" fill-opacity="0.501961" points="418,278 197,328 156,522" />
<polygon fill="#000001" fill-opacity="0.501961" points="-16,372 4,645 327,452" />
<polygon fill="#000013" fill-opacity="0.501961" points="980,70 929,281 1201,169" />
<polygon fill="#7283c3" fill-opacity="0.501961" points="996,274 963,103 944,176" />
<polygon fill="#000000" fill-opacity="0.501961" points="218,235 194,343 246,356" />
<polygon fill="#b6c4ff" fill-opacity="0.501961" points="355,369 383,314 286,405" />
<polygon fill="#ffbf20" fill-opacity="0.501961" points="936,267 663,156 787,360" />
<polygon fill="#05081b" fill-opacity="0.501961" points="661,159 795,373 423,645" />
<polygon fill="#f1cc75" fill-opacity="0.501961" points="203,164 240,320 560,189" />
<polygon fill="#796a3f" fill-opacity="0.501961" points="512,10 190,119 163,-16" />
<polygon fill="#000000" fill-opacity="0.501961" points="1067,535 1215,610 985,645" />
<polygon fill="#091a63" fill-opacity="0.501961" points="1215,377 1084,542 1215,609" />
<polygon fill="#000000" fill-opacity="0.501961" points="542,191 644,139 553,-16" />
<polygon fill="#93a2ee" fill-opacity="0.501961" points="635,178 336,375 457,236" />
<polygon fill="#6b5521" fill-opacity="0.501961" points="933,501 885,607 1045,645" />
<polygon fill="#506eff" fill-opacity="0.501961" points="589,243 708,241 650,225" />
<polygon fill="#fdcc56" fill-opacity="0.501961" points="986,379 933,359 1014,421" />
<polygon fill="#7c8197" fill-opacity="0.501961" points="-16,373 172,413 10,254" />
<polygon fill="#00000e" fill-opacity="0.501961" points="773,498 731,631 922,633" />
<polygon fill="#000007" fill-opacity="0.501961" points="1215,-16 1041,136 494,10" />
<polygon fill="#8c98d4" fill-opacity="0.501961" points="1026,375 1012,422 990,301" />
<polygon fill="#858cbd" fill-opacity="0.501961" points="739,90 847,38 796,82" />
<polygon fill="#000000" fill-opacity="0.501961" points="933,280 980,258 957,153" />
<polygon fill="#737db1" fill-opacity="0.501961" points="690,567 599,629 737,468" />
<polygon fill="#fff864" fill-opacity="0.501961" points="737,461 703,432 760,431" />
<polygon fill="#c89016" fill-opacity="0.501961" points="958,117 791,80 919,291" />
<polygon fill="#000003" fill-opacity="0.501961" points="1000,411 901,417 943,366" />
<polygon fill="#939fe2" fill-opacity="0.501961" points="689,119 478,227 604,200" />
<polygon fill="#52537b" fill-opacity="0.501961" points="675,616 764,600 833,540" />
<polygon fill="#000000" fill-opacity="0.501961" points="-16,7 87,-16 71,224" />
<polygon fill="#b97f09" fill-opacity="0.501961" points="772,75 651,137 586,34" />
<polygon fill="#00010a" fill-opacity="0.501961" points="634,627 7,376 -16,645" />
<polygon fill="#e2b54b" fill-opacity="0.501961" points="850,562 776,498 890,413" />
<polygon fill="#a0a4bb" fill-opacity="0.501961" points="212,263 69,388 176,414" />
<polygon fill="#d7b769" fill-opacity="0.501961" points="514,48 548,193 244,165" />
<polygon fill="#00000e" fill-opacity="0.501961" points="666,162 608,238 577,217" />
<polygon fill="#6473b7" fill-opacity="0.501961" points="637,586 911,397 826,352" />
<polygon fill="#0a0b15" fill-opacity="0.501961" points="443,308 167,485 622,641" />
<polygon fill="#000004" fill-opacity="0.501961" points="-14,272 -7,76 138,174" />
<polygon fill="#000008" fill-opacity="0.501961" points="1215,157 1006,354 1211,340" />
<polygon fill="#a7905a" fill-opacity="0.501961" points="180,99 508,-15 478,122" />
<polygon fill="#535878" fill-opacity="0.501961" points="675,285 603,280 735,327" />
<polygon fill="#43529b" fill-opacity="0.501961" points="1142,353 1018,456 1020,355" />
<polygon fill="#6e76a0" fill-opacity="0.501961" points="605,282 557,278 517,298" />
<polygon fill="#3049d2" fill-opacity="0.501961" points="940,207 940,270 921,274" />
<polygon fill="#00000c" fill-opacity="0.501961" points="735,464 614,606 632,372" />
<polygon fill="#00000f" fill-opacity="0.501961" points="171,450 263,435 218,243" />
<polygon fill="#00000e" fill-opacity="0.501961" points="677,247 527,249 426,321" />
<polygon fill="#000009" fill-opacity="0.501961" points="600,-3 501,-14 550,184" />
<polygon fill="#000001" fill-opacity="0.501961" points="1215,541 1026,619 1196,645" />
<polygon fill="#8d90a8" fill-opacity="0.501961" points="1048,534 1088,546 1009,544" />
<polygon fill="#ffd876" fill-opacity="0.501961" points="521,191 414,278 290,293" />
<polygon fill="#000010" fill-opacity="0.501961" points="245,447 239,318 410,279" />
<polygon fill="#000000" fill-opacity="0.501961" points="957,364 992,330 1006,401" />
<polygon fill="#303654" fill-opacity="0.501961" points="78,129 91,-16 202,18" />
<polygon fill="#484c6a" fill-opacity="0.501961" points="336,464 366,402 427,362" />
<polygon fill="#000000" fill-opacity="0.501961" points="833,554 701,619 932,645" />
<polygon fill="#a2a8d5" fill-opacity="0.501961" points="989,230 982,269 968,187" />
<polygon fill="#000002" fill-opacity="0.501961" points="1190,-16 983,233 1215,171" />
<polygon fill="#fbb827" fill-opacity="0.501961" points="684,194 802,379 873,295" />
<polygon fill="#000007" fill-opacity="0.501961" points="668,438 800,379 769,425" />
<polygon fill="#787b8e" fill-opacity="0.501961" points="-15,269 26,384 187,183" />
<polygon fill="#000000" fill-opacity="0.501961" points="1025,535 1067,535 1019,439" />
<polygon fill="#00000b" fill-opacity="0.501961" points="714,243 603,265 764,329" />
<polygon fill="#ffdf30" fill-opacity="0.501961" points="599,239 589,225 556,220" />
<polygon fill="#b59241" fill-opacity="0.501961" points="1023,541 821,542 1014,400" />
<polygon fill="#e9aa20" fill-opacity="0.501961" points="939,182 796,329 923,283" />
<polygon fill="#49517d" fill-opacity="0.501961" points="79,130 202,217 179,59" />
<polygon fill="#2b2d3c" fill-opacity="0.501961" points="344,445 314,540 243,602" />
<polygon fill="#555b85" fill-opacity="0.501961" points="425,359 457,321 509,304" />
<polygon fill="#a58e54" fill-opacity="0.501961" points="290,24 188,103 219,241" />
<polygon fill="#454c8a" fill-opacity="0.501961" points="692,627 731,594 647,632" />
<polygon fill="#00000c" fill-opacity="0.501961" points="485,282 333,458 328,383" />
</g>
</svg>