<svg xmlns="http://www.w3.org/2000/svg" version="1.1" width="1200" height="630">
<rect x="0" y="0" width="1200" height="630" fill="#454044" />
<g transform="scale(1.000000) translate(0.5 0.5)">
<ellipse fill="#fffeff" fill-opacity="0.501961" cx="695" cy="423" rx="146" ry="90" />
<ellipse fill="#dbf2f9" fill-opacity="0.501961" cx="289" cy="278" rx="134" ry="106" />
<ellipse fill="#df93a8" fill-opacity="0.501961" cx="904" cy="480" rx="196" ry="134" />
<ellipse fill="#a6f3f1" fill-opacity="0.501961" cx="206" cy="379" rx="102" ry="72" />
<ellipse fill="#000000" fill-opacity="0.501961" cx="67" cy="260" rx="109" ry="629" />
<ellipse fill="#000400" fill-opacity="0.501961" cx="859" cy="303" rx="118" ry="108" />
<ellipse fill="#f8819f" fill-opacity="0.501961" cx="1082" cy="373" rx="121" ry="70" />
<ellipse fill="#000000" fill-opacity="0.501961" cx="414" cy="415" rx="101" ry="111" />
<ellipse fill="#ffd7f3" fill-opacity="0.501961" cx="679" cy="393" rx="78" ry="83" />
<ellipse fill="#000000" fill-opacity="0.501961" cx="1042" cy="90" rx="158" ry="215" />
<ellipse fill="#000000" fill-opacity="0.501961" cx="320" cy="585" rx="421" ry="106" />
<ellipse fill="#ffe0fa" fill-opacity="0.501961" cx="567" cy="465" rx="67" ry="30" />
<ellipse fill="#5eada6" fill-opacity="0.501961" cx="699" cy="103" rx="189" ry="87" />
<ellipse fill="#9fcfd1" fill-opacity="0.501961" cx="163" cy="381" rx="74" ry="52" />
<ellipse fill="#000000" fill-opacity="0.501961" cx="660" cy="509" rx="78" ry="22" />
<ellipse fill="#000000" fill-opacity="0.501961" cx="333" cy="54" rx="191" ry="139" />
<ellipse fill="#e0b3c1" fill-opacity="0.501961" cx="820" cy="510" rx="90" ry="70" />
<ellipse fill="#000000" fill-opacity="0.501961" cx="534" cy="332" rx="73" ry="74" />
<ellipse fill="#02211c" fill-opacity="0.501961" cx="1085" cy="607" rx="79" ry="102" />
<ellipse fill="#4c7d79" fill-opacity="0.501961" cx="1155" cy="232" rx="46" ry="117" />
<ellipse fill="#b4ffff" fill-opacity="0.501961" cx="398" cy="274" rx="50" ry="33" />
<ellipse fill="#000000" fill-opacity="0.501961" cx="558" cy="198" rx="114" ry="34" />
<ellipse fill="#ff99b2" fill-opacity="0.501961" cx="190" cy="235" rx="76" ry="17" />
<ellipse fill="#ffbbd4" fill-opacity="0.501961" cx="271" cy="169" rx="16" ry="37" />
<ellipse fill="#c08b99" fill-opacity="0.501961" cx="778" cy="580" rx="48" ry="54" />
<ellipse fill="#d0ffff" fill-opacity="0.501961" cx="873" cy="359" rx="98" ry="6" />
<ellipse fill="#6fb9b4" fill-opacity="0.501961" cx="813" cy="183" rx="61" ry="27" />
<ellipse fill="#ffd3e5" fill-opacity="0.501961" cx="667" cy="337" rx="10" ry="99" />
<ellipse fill="#985364" fill-opacity="0.501961" cx="1149" cy="450" rx="115" ry="83" />
<ellipse fill="#000b07" fill-opacity="0.501961" cx="857" cy="399" rx="35" ry="36" />
<ellipse fill="#91c3c4" fill-opacity="0.501961" cx="232" cy="432" rx="36" ry="44" />
<ellipse fill="#ffcfe0" fill-opacity="0.501961" cx="523" cy="484" rx="43" ry="12" />
<ellipse fill="#000100" fill-opacity="0.501961" cx="730" cy="255" rx="53" ry="62" />
<ellipse fill="#ffbbcf" fill-opacity="0.501961" cx="572" cy="448" rx="40" ry="42" />
<ellipse fill="#ffaec5" fill-opacity="0.501961" cx="202" cy="181" rx="18" ry="23" />
<ellipse fill="#dd8fa2" fill-opacity="0.501961" cx="243" cy="238" rx="58" ry="65" />
<ellipse fill="#fff8ff" fill-opacity="0.501961" cx="675" cy="225" rx="6" ry="33" />
<ellipse fill="#000000" fill-opacity="0.501961" cx="690" cy="520" rx="44" ry="33" />
<ellipse fill="#9ddada" fill-opacity="0.501961" cx="362" cy="245" rx="41" ry="70" />
<ellipse fill="#175f57" fill-opacity="0.501961" cx="889" cy="425" rx="27" ry="42" />
<ellipse fill="#000000" fill-opacity="0.501961" cx="305" cy="188" rx="24" ry="15" />
<ellipse fill="#000000" fill-opacity="0.501961" cx="304" cy="460" rx="33" ry="51" />
<ellipse fill="#dd7993" fill-opacity="0.501961" cx="963" cy="433" rx="43" ry="70" />
<ellipse fill="#000000" fill-opacity="0.501961" cx="368" cy="324" rx="39" ry="11" />
<ellipse fill="#000100" fill-opacity="0.501961" cx="633" cy="244" rx="35" ry="35" />
<ellipse fill="#000000" fill-opacity="0.501961" cx="1112" cy="32" rx="215" ry="94" />
<ellipse fill="#000000" fill-opacity="0.501961" cx="161" cy="18" rx="366" ry="115" />
<ellipse fill="#80a7a8" fill-opacity="0.501961" cx="190" cy="343" rx="58" ry="37" />
<ellipse fill="#ffd2e4" fill-opacity="0.501961" cx="663" cy="335" rx="26" ry="29" />
<ellipse fill="#906d77" fill-opacity="0.501961" cx="865" cy="597" rx="100" ry="64" />
<ellipse fill="#ffccdf" fill-opacity="0.501961" cx="774" cy="404" rx="27" ry="29" />
<ellipse fill="#0d0d0d" fill-opacity="0.501961" cx="440" cy="137" rx="67" ry="64" />
<ellipse fill="#eda9b9" fill-opacity="0.501961" cx="661" cy="468" rx="157" ry="23" />
<ellipse fill="#000000" fill-opacity="0.501961" cx="161" cy="271" rx="27" ry="17" />
<ellipse fill="#ffc5d9" fill-opacity="0.501961" cx="611" cy="400" rx="35" ry="34" />
<ellipse fill="#9de6e5" fill-opacity="0.501961" cx="313" cy="342" rx="31" ry="25" />
<ellipse fill="#131111" fill-opacity="0.501961" cx="694" cy="288" rx="24" ry="35" />
<ellipse fill="#050000" fill-opacity="0.501961" cx="1189" cy="629" rx="85" ry="50" />
<ellipse fill="#90d7d5" fill-opacity="0.501961" cx="321" cy="264" rx="54" ry="39" />
<ellipse fill="#000000" fill-opacity="0.501961" cx="474" cy="255" rx="36" ry="21" />
<ellipse fill="#0e0b0a" fill-opacity="0.501961" cx="377" cy="368" rx="44" ry="36" />
<ellipse fill="#ffeeff" fill-opacity="0.501961" cx="681" cy="200" rx="5" ry="22" />
<ellipse fill="#0c0b0b" fill-opacity="0.501961" cx="904" cy="177" rx="29" ry="105" />
<ellipse fill="#f9b0c4" fill-opacity="0.501961" cx="282" cy="133" rx="7" ry="19" />
<ellipse fill="#6fa7a5" fill-opacity="0.501961" cx="901" cy="415" rx="25" ry="27" />
<ellipse fill="#7b3b4b" fill-opacity="0.501961" cx="981" cy="568" rx="45" ry="45" />
<ellipse fill="#000000" fill-opacity="0.501961" cx="814" cy="380" rx="25" ry="15" />
<ellipse fill="#030301" fill-opacity="0.501961" cx="614" cy="314" rx="22" ry="29" />
<ellipse fill="#121110" fill-opacity="0.501961" cx="496" cy="430" rx="30" ry="36" />
<ellipse fill="#010201" fill-opacity="0.501961" cx="164" cy="480" rx="57" ry="25" />
<ellipse fill="#629996" fill-opacity="0.501961" cx="855" cy="178" rx="17" ry="41" />
<ellipse fill="#060505" fill-opacity="0.501961" cx="982" cy="303" rx="39" ry="26" />
<ellipse fill="#08483e" fill-opacity="0.501961" cx="1086" cy="523" rx="22" ry="35" />
<ellipse fill="#000000" fill-opacity="0.501961" cx="873" cy="437" rx="15" ry="14" />
<ellipse fill="#6caba7" fill-opacity="0.501961" cx="542" cy="144" rx="39" ry="14" />
<ellipse fill="#100f0f" fill-opacity="0.501961" cx="603" cy="508" rx="127" ry="17" />
<ellipse fill="#110f0f" fill-opacity="0.501961" cx="540" cy="391" rx="26" ry="29" />
<ellipse fill="#39605e" fill-opacity="0.501961" cx="789" cy="37" rx="111" ry="58" />
<ellipse fill="#030403" fill-opacity="0.501961" cx="10" cy="458" rx="147" ry="61" />
<ellipse fill="#82aeaf" fill-opacity="0.501961" cx="102" cy="391" rx="24" ry="16" />
<ellipse fill="#497774" fill-opacity="0.501961" cx="577" cy="54" rx="58" ry="71" />
<ellipse fill="#ffb9ca" fill-opacity="0.501961" cx="710" cy="380" rx="50" ry="50" />
<ellipse fill="#0e0a0c" fill-opacity="0.501961" cx="755" cy="328" rx="22" ry="22" />
<ellipse fill="#040404" fill-opacity="0.501961" cx="45" cy="202" rx="71" ry="212" />
<ellipse fill="#d78299" fill-opacity="0.501961" cx="1029" cy="346" rx="46" ry="29" />
<ellipse fill="#b3edee" fill-opacity="0.501961" cx="428" cy="274" rx="25" ry="15" />
<ellipse fill="#000000" fill-opacity="0.501961" cx="711" cy="494" rx="19" ry="7" />
<ellipse fill="#000000" fill-opacity="0.501961" cx="331" cy="315" rx="16" ry="6" />
<ellipse fill="#060605" fill-opacity="0.501961" cx="377" cy="621" rx="366" ry="116" />
<ellipse fill="#070706" fill-opacity="0.501961" cx="1085" cy="175" rx="34" ry="80" />
<ellipse fill="#eb9eb2" fill-opacity="0.501961" cx="186" cy="157" rx="10" ry="15" />
<ellipse fill="#578885" fill-opacity="0.501961" cx="1114" cy="272" rx="13" ry="37" />
<ellipse fill="#659392" fill-opacity="0.501961" cx="713" cy="151" rx="163" ry="28" />
<ellipse fill="#f2b9ca" fill-opacity="0.501961" cx="796" cy="437" rx="54" ry="22" />
<ellipse fill="#000000" fill-opacity="0.501961" cx="291" cy="300" rx="15" ry="5" />
<ellipse fill="#ff96b5" fill-opacity="0.501961" cx="647" cy="290" rx="22" ry="6" />
<ellipse fill="#000000" fill-opacity="0.501961" cx="899" cy="464" rx="11" ry="12" />
<ellipse fill="#ff8fb1" fill-opacity="0.501961" cx="610" cy="277" rx="15" ry="6" />
<ellipse fill="#ff8caf" fill-opacity="0.501961" cx="578" cy="265" rx="15" ry="6" />
<ellipse fill="#161414" fill-opacity="0.501961" cx="601" cy="235" rx="50" ry="30" />
</g>
</svg>