<svg xmlns="http://www.w3.org/2000/svg" version="1.1" width="1200" height="630">
<rect x="0" y="0" width="1200" height="630" fill="#202023" />
<g transform="scale(1.000000) translate(0.5 0.5)">
<polygon fill="#d0d3ff" fill-opacity="0.501961" points="547.508199,358.535725,444.639223,369.791321,571.337209,94.449672,608.774674,108.745632" />
<polygon fill="#9b80c6" fill-opacity="0.501961" points="1092.287554,493.166803,845.964058,422.089315,914.181804,28.095583,803.218367,487.695640" />
<polygon fill="#f2b4ff" fill-opacity="0.501961" points="473.180349,79.562413,469.016881,295.828912,135.297001,298.879934,490.884053,313.959150" />
<polygon fill="#ffffff" fill-opacity="0.501961" points="859.456351,128.063169,894.097000,115.758237,586.426328,110.741582,615.197200,126.068462" />
<polygon fill="#fff4ff" fill-opacity="0.501961" points="566.362043,250.472505,571.954407,243.024428,798.638647,292.598168,787.617900,301.831037" />
<polygon fill="#c485ff" fill-opacity="0.501961" points="424.277176,369.053869,192.494696,473.204546,198.542741,485.226369,519.538120,342.658792" />
<polygon fill="#8efdc4" fill-opacity="0.501961" points="376.040648,553.312114,682.994125,383.986723,1003.803970,223.118374,461.284130,520.102884" />
<polygon fill="#f4e5ff" fill-opacity="0.501961" points="545.989143,233.675954,551.372340,25.876491,530.584706,57.041424,538.724160,223.384044" />
<polygon fill="#a588d1" fill-opacity="0.501961" points="267.935433,72.409941,226.840870,83.564092,215.620933,52.510964,648.520278,52.463839" />
<polygon fill="#090906" fill-opacity="0.501961" points="909.329533,-14.812272,910.618149,477.278225,1088.574734,469.767965,1215.000000,1.596935" />
<polygon fill="#c38bff" fill-opacity="0.501961" points="28.999819,307.222217,346.216900,308.919496,228.638746,295.874427,-16.000000,298.007405" />
<polygon fill="#fcefff" fill-opacity="0.501961" points="224.994753,113.880252,231.098442,124.538942,373.023659,124.514663,367.438837,115.091930" />
<polygon fill="#af6eff" fill-opacity="0.501961" points="946.681712,496.667917,820.813683,454.564602,929.962601,402.135460,893.897622,468.357549" />
<polygon fill="#c292fd" fill-opacity="0.501961" points="801.318213,554.118094,878.467313,215.929265,810.323606,457.385784,778.798240,602.348159" />
<polygon fill="#9c7cbb" fill-opacity="0.501961" points="923.275603,586.015445,943.163570,631.799550,985.171051,613.092487,978.281187,562.385677" />
<polygon fill="#b5a5d8" fill-opacity="0.501961" points="903.927071,-16.000000,906.160374,115.086123,853.183222,306.518399,888.713352,121.181753" />
<polygon fill="#87e7b9" fill-opacity="0.501961" points="968.811197,244.380665,966.159012,233.711533,849.596200,297.434804,880.139436,292.328919" />
<polygon fill="#000000" fill-opacity="0.501961" points="538.106392,260.140845,513.416900,306.300797,504.955728,315.928382,532.914350,342.606703" />
<polygon fill="#000400" fill-opacity="0.501961" points="814.853914,491.542735,901.435125,486.936079,846.088323,460.132219,851.051933,349.843891" />
<polygon fill="#e9c7ff" fill-opacity="0.501961" points="543.570691,363.780249,530.195284,363.457826,541.398461,236.410843,559.039716,303.676673" />
<polygon fill="#e4b6ff" fill-opacity="0.501961" points="468.715635,327.653009,616.699381,110.429097,589.302223,127.326284,505.923117,250.388944" />
<polygon fill="#110e0c" fill-opacity="0.501961" points="537.985674,202.927478,480.667658,287.104531,486.226700,125.499675,522.207594,80.307360" />
<polygon fill="#95a2a7" fill-opacity="0.501961" points="936.985249,621.832014,1097.455136,469.585807,875.223492,484.846857,1060.065190,493.546371" />
<polygon fill="#000000" fill-opacity="0.501961" points="550.804588,177.914623,549.804543,119.273672,543.838201,53.396095,573.615132,149.059586" />
<polygon fill="#338d65" fill-opacity="0.501961" points="858.445202,165.447569,865.871532,80.875454,902.584771,133.329468,750.462700,348.778064" />
<polygon fill="#000000" fill-opacity="0.501961" points="1210.813062,347.361047,1003.732265,567.818719,974.258995,645.000000,1215.000000,629.037847" />
<polygon fill="#77769d" fill-opacity="0.501961" points="598.713089,112.636515,555.277079,39.707759,360.215661,65.509695,529.146678,65.643608" />
<polygon fill="#d7afff" fill-opacity="0.501961" points="481.404564,97.411507,482.193592,343.379970,473.287284,356.254265,470.517140,284.387770" />
<polygon fill="#32694f" fill-opacity="0.501961" points="1097.129126,471.498484,1019.727285,475.956371,1077.775031,415.815584,1215.000000,283.010834" />
<polygon fill="#59b294" fill-opacity="0.501961" points="776.216016,290.795674,782.620662,281.137909,891.381659,464.299092,848.082164,412.101926" />
<polygon fill="#56a37a" fill-opacity="0.501961" points="415.981145,529.770866,266.407679,610.515970,221.149922,645.000000,456.840849,519.597129" />
<polygon fill="#090705" fill-opacity="0.501961" points="780.203887,113.133910,843.224289,-13.994526,555.295484,-16.000000,563.521555,75.988239" />
<polygon fill="#040200" fill-opacity="0.501961" points="173.998568,-16.000000,-16.000000,-2.669876,-15.219810,296.280713,309.569379,290.665430" />
<polygon fill="#010100" fill-opacity="0.501961" points="328.970890,645.000000,97.576000,311.903373,-16.000000,307.871136,-3.958321,645.000000" />
<polygon fill="#161211" fill-opacity="0.501961" points="474.654321,308.074827,465.363324,356.731330,-16.000000,318.173452,412.052607,307.633735" />
<polygon fill="#775e90" fill-opacity="0.501961" points="313.959363,56.353406,154.408291,-16.000000,245.543410,83.780937,220.803991,23.857748" />
<polygon fill="#1ea75a" fill-opacity="0.501961" points="477.825036,302.753132,507.652189,320.613685,587.557064,160.997462,517.879525,262.933765" />
<polygon fill="#9a6ec4" fill-opacity="0.501961" points="967.418087,572.126556,975.774965,572.118975,1026.131509,478.981524,1009.317193,493.053054" />
<polygon fill="#dea8ff" fill-opacity="0.501961" points="657.304999,261.107399,554.532608,238.311194,544.419255,247.880068,740.436042,287.012707" />
<polygon fill="#865eaf" fill-opacity="0.501961" points="921.857507,-2.741236,819.440422,28.078692,849.971978,-13.408411,872.448063,-5.083883" />
<polygon fill="#030900" fill-opacity="0.501961" points="549.104047,302.976164,575.549334,192.980682,559.697668,221.443580,554.459862,231.854920" />
<polygon fill="#c084f8" fill-opacity="0.501961" points="887.854767,183.392739,864.276579,241.416962,837.598560,349.512799,840.052097,380.855408" />
<polygon fill="#161410" fill-opacity="0.501961" points="818.624827,374.995803,963.706711,428.188561,862.082178,295.471583,841.811881,382.357556" />
<polygon fill="#ecb4ff" fill-opacity="0.501961" points="562.033525,252.927460,554.328328,307.657894,580.342731,224.601585,549.526609,242.444208" />
<polygon fill="#000500" fill-opacity="0.501961" points="500.482155,327.035528,484.907374,347.719341,523.398197,348.371290,513.171167,346.157853" />
<polygon fill="#d6acf8" fill-opacity="0.501961" points="651.499720,124.994333,840.713318,122.613685,622.489607,111.204222,578.066908,125.383753" />
<polygon fill="#c9b3cf" fill-opacity="0.501961" points="972.521924,489.951823,895.205358,488.113288,900.034095,473.781121,990.840354,477.356087" />
<polygon fill="#a36df6" fill-opacity="0.501961" points="371.902081,393.883360,239.278973,461.602168,423.014985,385.443018,487.090153,342.495551" />
<polygon fill="#2e8058" fill-opacity="0.501961" points="934.639269,600.034541,775.310959,592.250915,938.551907,441.975466,782.977936,608.447267" />
<polygon fill="#100f0d" fill-opacity="0.501961" points="504.814102,65.489969,286.702867,68.740795,421.394391,156.629582,561.087936,52.704166" />
<polygon fill="#0c0a08" fill-opacity="0.501961" points="230.618610,645.000000,809.148006,645.000000,617.166692,433.674497,467.479932,513.185266" />
<polygon fill="#040301" fill-opacity="0.501961" points="182.858746,-0.837543,320.259428,55.223031,531.310896,47.978797,558.378756,-2.077137" />
<polygon fill="#76b690" fill-opacity="0.501961" points="1197.062549,274.419823,1198.820309,304.301879,1215.000000,307.850210,1166.814390,301.668281" />
<polygon fill="#ddabff" fill-opacity="0.501961" points="557.666085,309.485804,605.345146,114.230053,570.314005,219.473834,535.476653,358.087500" />
<polygon fill="#080b00" fill-opacity="0.501961" points="906.202644,473.962058,897.894620,471.284884,919.690115,427.299002,1013.609541,476.414953" />
<polygon fill="#a879eb" fill-opacity="0.501961" points="483.007591,158.605674,482.103102,110.962771,469.750780,117.777439,472.855506,266.803151" />
<polygon fill="#b887ff" fill-opacity="0.501961" points="272.904585,307.766090,433.911161,305.838733,416.085116,297.309842,255.011849,296.437779" />
<polygon fill="#d9b8f4" fill-opacity="0.501961" points="535.692871,158.072018,534.842317,68.229804,548.460337,95.339601,539.885477,262.184536" />
<polygon fill="#73be9b" fill-opacity="0.501961" points="839.820983,299.961018,879.131339,293.231013,744.336424,366.014799,660.475867,400.972793" />
<polygon fill="#8c4ad6" fill-opacity="0.501961" points="570.546802,78.904431,607.359795,120.803982,568.045192,140.772724,561.782367,116.988104" />
<polygon fill="#da9dff" fill-opacity="0.501961" points="793.064826,307.079220,741.655324,286.656948,795.088851,286.042343,789.088383,305.177499" />
<polygon fill="#8e5acf" fill-opacity="0.501961" points="874.353611,473.438679,818.916900,452.712661,917.542471,416.381814,900.374860,470.496858" />
<polygon fill="#afacaf" fill-opacity="0.501961" points="541.290565,26.771552,570.211452,55.176238,537.656819,54.468041,540.102863,20.293372" />
<polygon fill="#0e0004" fill-opacity="0.501961" points="1097.948049,446.234066,1151.766452,362.119811,1036.537240,473.468897,1076.038099,476.275169" />
<polygon fill="#9f9e9e" fill-opacity="0.501961" points="910.546656,-16.000000,904.365380,70.231845,894.523938,115.408839,896.869821,13.497210" />
<polygon fill="#060404" fill-opacity="0.501961" points="1199.225396,-16.000000,1002.914296,-16.000000,1148.274691,343.797267,1215.000000,221.047190" />
<polygon fill="#d6b7eb" fill-opacity="0.501961" points="577.565230,356.490175,573.307410,353.761800,570.773420,355.607853,542.300773,304.759604" />
<polygon fill="#4de186" fill-opacity="0.501961" points="459.642204,358.176647,500.960267,364.325647,547.875004,363.279444,483.279093,343.266441" />
<polygon fill="#396964" fill-opacity="0.501961" points="166.187560,499.702422,162.340657,469.362779,211.695671,469.843186,193.333900,498.435561" />
<polygon fill="#678483" fill-opacity="0.501961" points="1078.201891,474.938356,1169.742229,344.233724,1083.073859,493.909839,1040.326066,475.782818" />
<polygon fill="#53a073" fill-opacity="0.501961" points="985.782699,489.139968,1022.823860,483.958878,1018.691419,471.760585,1016.776696,454.412354" />
<polygon fill="#090806" fill-opacity="0.501961" points="939.124565,574.824014,919.033865,591.952071,795.084474,596.300727,894.398019,491.632369" />
<polygon fill="#ba7cff" fill-opacity="0.501961" points="545.079854,362.372861,461.021988,299.717940,469.770301,294.488597,508.841613,322.864715" />
<polygon fill="#161312" fill-opacity="0.501961" points="801.313276,502.743970,821.344043,424.412054,623.506473,427.962740,762.260492,615.607618" />
<polygon fill="#120f0d" fill-opacity="0.501961" points="825.665547,456.627948,892.544289,479.806384,793.371030,582.664807,811.464889,507.658334" />
<polygon fill="#151211" fill-opacity="0.501961" points="175.924839,645.000000,577.698818,443.643798,504.489295,361.563914,467.109867,364.431335" />
<polygon fill="#010100" fill-opacity="0.501961" points="950.518095,645.000000,735.271263,625.411418,845.180091,603.762461,936.001764,610.360701" />
<polygon fill="#141212" fill-opacity="0.501961" points="865.617120,112.321221,822.087402,17.580397,499.431495,-8.774052,631.009911,109.869850" />
<polygon fill="#0d0b09" fill-opacity="0.501961" points="258.329678,68.973532,332.791085,70.000271,351.601874,109.054478,193.155525,117.466933" />
<polygon fill="#1d1d1d" fill-opacity="0.501961" points="482.602936,279.690379,482.375626,175.459618,538.107847,168.507900,530.822495,211.801145" />
<polygon fill="#938499" fill-opacity="0.501961" points="252.999162,64.958720,245.152061,82.339456,212.984410,38.163391,252.268299,49.744318" />
<polygon fill="#090d00" fill-opacity="0.501961" points="844.652520,409.792516,837.893494,399.914961,828.411850,448.160347,864.778017,435.618093" />
<polygon fill="#030000" fill-opacity="0.501961" points="570.973619,147.065541,558.479378,123.844449,548.575344,143.690804,552.473932,179.356082" />
<polygon fill="#080605" fill-opacity="0.501961" points="895.562055,1.958136,799.874942,42.283828,882.223275,96.965182,890.978276,119.974410" />
<polygon fill="#bf90ff" fill-opacity="0.501961" points="433.050366,308.236215,346.774324,304.320458,430.422422,296.648622,489.572916,305.085718" />
<polygon fill="#409e70" fill-opacity="0.501961" points="867.397066,85.352124,893.478758,117.310528,892.287543,127.498590,858.237112,150.137359" />
<polygon fill="#b69dcf" fill-opacity="0.501961" points="894.219603,128.169733,814.515179,129.056502,688.329471,125.490860,772.440559,112.727786" />
<polygon fill="#080605" fill-opacity="0.501961" points="1067.255521,488.915620,1027.760472,490.610818,976.751416,570.193364,1069.376907,487.462454" />
<polygon fill="#191615" fill-opacity="0.501961" points="917.883099,147.439020,612.565827,123.953353,772.289010,290.282499,894.309993,123.470363" />
<polygon fill="#e6d0ff" fill-opacity="0.501961" points="477.943996,358.885417,471.292888,337.732914,476.858024,257.314906,484.207014,336.284984" />
<polygon fill="#3a9256" fill-opacity="0.501961" points="573.238620,91.327111,577.970898,87.531284,528.261126,36.973200,524.263812,65.708054" />
<polygon fill="#110f0f" fill-opacity="0.501961" points="304.109049,437.917801,209.695865,478.451372,253.028604,616.516007,427.498953,521.694984" />
<polygon fill="#1e1a1c" fill-opacity="0.501961" points="424.874077,308.130011,336.209633,409.912271,468.301330,349.825052,472.572184,311.510775" />
<polygon fill="#616384" fill-opacity="0.501961" points="224.437182,24.109344,356.549147,63.938430,286.664878,67.276428,277.188555,49.262053" />
<polygon fill="#0a0600" fill-opacity="0.501961" points="534.507661,274.457956,506.318513,316.594115,517.733445,330.396345,532.598001,314.929008" />
<polygon fill="#d3a6ff" fill-opacity="0.501961" points="690.842770,278.578804,772.347422,296.237591,754.722448,284.076463,551.936247,240.252329" />
<polygon fill="#161313" fill-opacity="0.501961" points="25.971372,309.237886,77.379379,513.455683,374.883276,391.282567,289.273795,311.298707" />
<polygon fill="#8757ad" fill-opacity="0.501961" points="530.447831,50.286930,364.066007,52.238700,415.661238,65.631800,525.421782,62.554331" />
<polygon fill="#1c1a1b" fill-opacity="0.501961" points="880.658381,428.030000,1215.000000,154.002928,861.412178,304.039998,840.355876,384.345437" />
<polygon fill="#1a1718" fill-opacity="0.501961" points="876.706508,280.585900,863.004323,288.662951,897.939512,150.904284,1165.525696,136.828337" />
</g>
</svg>