<svg xmlns="http://www.w3.org/2000/svg" version="1.1" width="1200" height="630">
<rect x="0" y="0" width="1200" height="630" fill="#50425f" />
<g transform="scale(1.000000) translate(0.5 0.5)">
<g transform="translate(887.226741 246.573933) rotate(228.956234) scale(243.123372 167.464130)"><ellipse fill="#c88dff" fill-opacity="0.501961" cx="0" cy="0" rx="1" ry="1" /></g>
<g transform="translate(430.049927 533.047558) rotate(338.343293) scale(110.919307 81.566199)"><ellipse fill="#ffffff" fill-opacity="0.501961" cx="0" cy="0" rx="1" ry="1" /></g>
<g transform="translate(644.642942 429.410683) rotate(140.652511) scale(132.086321 372.914229)"><ellipse fill="#000000" fill-opacity="0.501961" cx="0" cy="0" rx="1" ry="1" /></g>
<g transform="translate(238.095955 303.237591) rotate(184.539208) scale(107.961954 107.691441)"><ellipse fill="#d596ff" fill-opacity="0.501961" cx="0" cy="0" rx="1" ry="1" /></g>
<g transform="translate(392.234447 82.578513) rotate(294.134846) scale(130.055380 46.232617)"><ellipse fill="#ecd6f9" fill-opacity="0.501961" cx="0" cy="0" rx="1" ry="1" /></g>
<g transform="translate(124.466513 531.558769) rotate(9.067925) scale(197.018057 149.323549)"><ellipse fill="#000000" fill-opacity="0.501961" cx="0" cy="0" rx="1" ry="1" /></g>
<g transform="translate(1126.612065 327.630615) rotate(208.730701) scale(133.412889 42.764006)"><ellipse fill="#000000" fill-opacity="0.501961" cx="0" cy="0" rx="1" ry="1" /></g>
<g transform="translate(1177.340461 444.756365) rotate(177.392784) scale(73.321155 219.247139)"><ellipse fill="#000000" fill-opacity="0.501961" cx="0" cy="0" rx="1" ry="1" /></g>
<g transform="translate(561.722937 100.481424) rotate(48.642682) scale(79.614601 294.448658)"><ellipse fill="#000000" fill-opacity="0.501961" cx="0" cy="0" rx="1" ry="1" /></g>
<g transform="translate(646.527456 181.200000) rotate(125.314613) scale(86.996218 20.626260)"><ellipse fill="#f2c3ff" fill-opacity="0.501961" cx="0" cy="0" rx="1" ry="1" /></g>
<g transform="translate(1069.773197 164.440649) rotate(316.767147) scale(91.523422 113.848300)"><ellipse fill="#afa1b6" fill-opacity="0.501961" cx="0" cy="0" rx="1" ry="1" /></g>
<g transform="translate(151.416743 155.272626) rotate(-29.130134) scale(99.825364 68.054296)"><ellipse fill="#b89fcf" fill-opacity="0.501961" cx="0" cy="0" rx="1" ry="1" /></g>
<g transform="translate(400.923687 391.095729) rotate(183.402683) scale(73.200684 67.589976)"><ellipse fill="#000000" fill-opacity="0.501961" cx="0" cy="0" rx="1" ry="1" /></g>
<g transform="translate(886.200357 472.783327) rotate(482.966129) scale(50.664234 74.936457)"><ellipse fill="#a161f8" fill-opacity="0.501961" cx="0" cy="0" rx="1" ry="1" /></g>
<g transform="translate(778.852420 398.867130) rotate(320.501337) scale(74.973252 35.021628)"><ellipse fill="#000100" fill-opacity="0.501961" cx="0" cy="0" rx="1" ry="1" /></g>
<g transform="translate(48.624714 273.429981) rotate(509.040754) scale(47.223562 123.861700)"><ellipse fill="#000300" fill-opacity="0.501961" cx="0" cy="0" rx="1" ry="1" /></g>
<g transform="translate(275.283531 109.702943) rotate(281.520396) scale(92.966791 30.127036)"><ellipse fill="#000000" fill-opacity="0.501961" cx="0" cy="0" rx="1" ry="1" /></g>
<g transform="translate(338.472520 64.430032) rotate(86.338548) scale(164.224890 24.965079)"><ellipse fill="#bdaacb" fill-opacity="0.501961" cx="0" cy="0" rx="1" ry="1" /></g>
<g transform="translate(685.293271 38.671202) rotate(162.152309) scale(231.163492 32.402345)"><ellipse fill="#000200" fill-opacity="0.501961" cx="0" cy="0" rx="1" ry="1" /></g>
<g transform="translate(591.401307 564.898365) rotate(215.636428) scale(57.501478 211.241538)"><ellipse fill="#0b0e01" fill-opacity="0.501961" cx="0" cy="0" rx="1" ry="1" /></g>
<g transform="translate(776.989756 288.196394) rotate(370.245937) scale(52.195143 72.339523)"><ellipse fill="#d6a0ff" fill-opacity="0.501961" cx="0" cy="0" rx="1" ry="1" /></g>
<g transform="translate(688.810560 99.071664) rotate(255.296669) scale(25.533040 43.425723)"><ellipse fill="#be8bfa" fill-opacity="0.501961" cx="0" cy="0" rx="1" ry="1" /></g>
<g transform="translate(899.082078 586.141793) rotate(133.476534) scale(29.174125 120.746801)"><ellipse fill="#000100" fill-opacity="0.501961" cx="0" cy="0" rx="1" ry="1" /></g>
<g transform="translate(1016.897667 440.700226) rotate(94.139143) scale(143.819746 78.612746)"><ellipse fill="#7447b6" fill-opacity="0.501961" cx="0" cy="0" rx="1" ry="1" /></g>
<g transform="translate(15.121352 344.700419) rotate(91.340171) scale(30.821529 43.006171)"><ellipse fill="#b7a6c0" fill-opacity="0.501961" cx="0" cy="0" rx="1" ry="1" /></g>
<g transform="translate(302.147593 466.651131) rotate(138.539619) scale(27.548821 57.818954)"><ellipse fill="#000000" fill-opacity="0.501961" cx="0" cy="0" rx="1" ry="1" /></g>
<g transform="translate(1151.813177 465.103107) rotate(215.941490) scale(54.357637 79.810002)"><ellipse fill="#000000" fill-opacity="0.501961" cx="0" cy="0" rx="1" ry="1" /></g>
<g transform="translate(494.845076 492.564447) rotate(394.214169) scale(42.379824 36.194369)"><ellipse fill="#f1e6fe" fill-opacity="0.501961" cx="0" cy="0" rx="1" ry="1" /></g>
<g transform="translate(678.350407 248.798304) rotate(242.848361) scale(49.716491 25.171414)"><ellipse fill="#000000" fill-opacity="0.501961" cx="0" cy="0" rx="1" ry="1" /></g>
<g transform="translate(217.631677 550.473979) rotate(245.093522) scale(160.866643 82.083069)"><ellipse fill="#000300" fill-opacity="0.501961" cx="0" cy="0" rx="1" ry="1" /></g>
<g transform="translate(976.909004 0.000000) rotate(-31.225136) scale(53.556990 31.126319)"><ellipse fill="#000000" fill-opacity="0.501961" cx="0" cy="0" rx="1" ry="1" /></g>
<g transform="translate(622.695649 200.787854) rotate(192.732833) scale(15.936630 46.931096)"><ellipse fill="#eec5ff" fill-opacity="0.501961" cx="0" cy="0" rx="1" ry="1" /></g>
<g transform="translate(654.975604 599.431876) rotate(89.900816) scale(6.396558 94.210918)"><ellipse fill="#c29fe5" fill-opacity="0.501961" cx="0" cy="0" rx="1" ry="1" /></g>
<g transform="translate(471.917844 29.904468) rotate(28.209191) scale(12.443690 88.951269)"><ellipse fill="#c4b1d0" fill-opacity="0.501961" cx="0" cy="0" rx="1" ry="1" /></g>
<g transform="translate(61.405652 238.705804) rotate(22.181871) scale(8.043851 84.144598)"><ellipse fill="#aca2b2" fill-opacity="0.501961" cx="0" cy="0" rx="1" ry="1" /></g>
<g transform="translate(732.080868 200.458400) rotate(-26.837575) scale(43.701673 129.840469)"><ellipse fill="#b788f1" fill-opacity="0.501961" cx="0" cy="0" rx="1" ry="1" /></g>
<g transform="translate(150.010763 368.440399) rotate(16.444149) scale(30.411591 42.551652)"><ellipse fill="#814ecd" fill-opacity="0.501961" cx="0" cy="0" rx="1" ry="1" /></g>
<g transform="translate(370.651063 597.964164) rotate(44.898320) scale(76.920236 45.445744)"><ellipse fill="#918d96" fill-opacity="0.501961" cx="0" cy="0" rx="1" ry="1" /></g>
<g transform="translate(87.596890 593.285843) rotate(190.971906) scale(85.387018 187.423447)"><ellipse fill="#000100" fill-opacity="0.501961" cx="0" cy="0" rx="1" ry="1" /></g>
<g transform="translate(528.423829 42.255510) rotate(223.277614) scale(34.859423 109.229881)"><ellipse fill="#030700" fill-opacity="0.501961" cx="0" cy="0" rx="1" ry="1" /></g>
<g transform="translate(831.458197 240.446836) rotate(182.321887) scale(128.187797 96.299027)"><ellipse fill="#b385ea" fill-opacity="0.501961" cx="0" cy="0" rx="1" ry="1" /></g>
<g transform="translate(4.123787 487.714681) rotate(318.612249) scale(26.039539 43.401186)"><ellipse fill="#9c8ca6" fill-opacity="0.501961" cx="0" cy="0" rx="1" ry="1" /></g>
<g transform="translate(649.695268 144.938234) rotate(319.482562) scale(14.214479 25.577984)"><ellipse fill="#000000" fill-opacity="0.501961" cx="0" cy="0" rx="1" ry="1" /></g>
<g transform="translate(1168.137102 269.957959) rotate(63.309617) scale(35.050207 125.751530)"><ellipse fill="#000300" fill-opacity="0.501961" cx="0" cy="0" rx="1" ry="1" /></g>
<g transform="translate(311.294308 183.033562) rotate(188.706570) scale(19.110178 36.443050)"><ellipse fill="#000000" fill-opacity="0.501961" cx="0" cy="0" rx="1" ry="1" /></g>
<g transform="translate(51.837273 14.768691) rotate(153.258281) scale(214.113925 37.979938)"><ellipse fill="#17121a" fill-opacity="0.501961" cx="0" cy="0" rx="1" ry="1" /></g>
<g transform="translate(414.300784 330.511240) rotate(154.297356) scale(54.693288 128.900170)"><ellipse fill="#14180a" fill-opacity="0.501961" cx="0" cy="0" rx="1" ry="1" /></g>
<g transform="translate(70.602847 371.049582) rotate(-56.164894) scale(97.887106 22.854756)"><ellipse fill="#000200" fill-opacity="0.501961" cx="0" cy="0" rx="1" ry="1" /></g>
<g transform="translate(954.136985 74.148252) rotate(187.366845) scale(190.812747 41.210452)"><ellipse fill="#6f5c84" fill-opacity="0.501961" cx="0" cy="0" rx="1" ry="1" /></g>
<g transform="translate(842.794505 599.403364) rotate(-0.231875) scale(126.199382 5.657125)"><ellipse fill="#aa8cc7" fill-opacity="0.501961" cx="0" cy="0" rx="1" ry="1" /></g>
<g transform="translate(1168.433456 0.000000) rotate(26.337464) scale(210.662670 47.732673)"><ellipse fill="#0f100c" fill-opacity="0.501961" cx="0" cy="0" rx="1" ry="1" /></g>
<g transform="translate(298.759698 297.659061) rotate(410.989881) scale(66.670392 40.094432)"><ellipse fill="#b689f5" fill-opacity="0.501961" cx="0" cy="0" rx="1" ry="1" /></g>
<g transform="translate(553.906498 629.000000) rotate(-3.285445) scale(112.754896 23.668630)"><ellipse fill="#000000" fill-opacity="0.501961" cx="0" cy="0" rx="1" ry="1" /></g>
<g transform="translate(428.318368 484.803783) rotate(343.945098) scale(76.302745 31.911184)"><ellipse fill="#ddd2e9" fill-opacity="0.501961" cx="0" cy="0" rx="1" ry="1" /></g>
<g transform="translate(801.139099 398.296675) rotate(26.219601) scale(26.638745 64.040094)"><ellipse fill="#0d1202" fill-opacity="0.501961" cx="0" cy="0" rx="1" ry="1" /></g>
<g transform="translate(1128.994343 565.506600) rotate(47.281657) scale(56.483051 21.294787)"><ellipse fill="#6e6472" fill-opacity="0.501961" cx="0" cy="0" rx="1" ry="1" /></g>
<g transform="translate(397.740440 13.913603) rotate(265.247078) scale(37.240889 111.631729)"><ellipse fill="#73667e" fill-opacity="0.501961" cx="0" cy="0" rx="1" ry="1" /></g>
<g transform="translate(755.134678 350.533683) rotate(-2.433283) scale(13.160704 16.030434)"><ellipse fill="#dba3ff" fill-opacity="0.501961" cx="0" cy="0" rx="1" ry="1" /></g>
<g transform="translate(378.107659 141.658438) rotate(297.778275) scale(88.120289 23.666312)"><ellipse fill="#c8b1db" fill-opacity="0.501961" cx="0" cy="0" rx="1" ry="1" /></g>
<g transform="translate(332.949793 428.500836) rotate(51.956973) scale(94.902033 5.329859)"><ellipse fill="#cfacf5" fill-opacity="0.501961" cx="0" cy="0" rx="1" ry="1" /></g>
<g transform="translate(454.175091 590.483325) rotate(60.564616) scale(30.668842 70.965517)"><ellipse fill="#97919e" fill-opacity="0.501961" cx="0" cy="0" rx="1" ry="1" /></g>
<g transform="translate(215.578724 70.686442) rotate(259.922004) scale(52.588023 35.451694)"><ellipse fill="#816898" fill-opacity="0.501961" cx="0" cy="0" rx="1" ry="1" /></g>
<g transform="translate(25.099607 224.001168) rotate(301.664170) scale(56.253043 25.632426)"><ellipse fill="#000000" fill-opacity="0.501961" cx="0" cy="0" rx="1" ry="1" /></g>
<g transform="translate(587.002638 185.252499) rotate(366.752443) scale(22.297244 101.939609)"><ellipse fill="#111407" fill-opacity="0.501961" cx="0" cy="0" rx="1" ry="1" /></g>
<g transform="translate(537.779615 599.101228) rotate(268.287420) scale(5.627906 47.802844)"><ellipse fill="#b895dc" fill-opacity="0.501961" cx="0" cy="0" rx="1" ry="1" /></g>
<g transform="translate(955.457545 580.221868) rotate(248.866362) scale(10.846960 29.075260)"><ellipse fill="#000000" fill-opacity="0.501961" cx="0" cy="0" rx="1" ry="1" /></g>
<g transform="translate(1084.243755 233.247444) rotate(-87.395326) scale(39.912498 38.910505)"><ellipse fill="#ae9cbd" fill-opacity="0.501961" cx="0" cy="0" rx="1" ry="1" /></g>
<g transform="translate(88.542522 287.990329) rotate(38.348588) scale(40.794229 32.990585)"><ellipse fill="#040600" fill-opacity="0.501961" cx="0" cy="0" rx="1" ry="1" /></g>
<g transform="translate(298.612950 152.276015) rotate(113.418350) scale(89.787730 4.864023)"><ellipse fill="#bb99df" fill-opacity="0.501961" cx="0" cy="0" rx="1" ry="1" /></g>
<g transform="translate(1164.786074 186.093459) rotate(214.257196) scale(36.312348 53.923300)"><ellipse fill="#84778e" fill-opacity="0.501961" cx="0" cy="0" rx="1" ry="1" /></g>
<g transform="translate(283.598176 70.193391) rotate(335.569261) scale(25.438229 44.225045)"><ellipse fill="#000300" fill-opacity="0.501961" cx="0" cy="0" rx="1" ry="1" /></g>
<g transform="translate(1183.369247 539.075734) rotate(130.370359) scale(35.354071 114.021530)"><ellipse fill="#000300" fill-opacity="0.501961" cx="0" cy="0" rx="1" ry="1" /></g>
<g transform="translate(766.366543 535.883017) rotate(169.071544) scale(89.743726 56.271041)"><ellipse fill="#0a0e02" fill-opacity="0.501961" cx="0" cy="0" rx="1" ry="1" /></g>
<g transform="translate(122.533200 102.117489) rotate(155.168274) scale(147.871127 43.879769)"><ellipse fill="#6b587d" fill-opacity="0.501961" cx="0" cy="0" rx="1" ry="1" /></g>
<g transform="translate(1091.753796 375.232248) rotate(176.269853) scale(16.545924 41.789088)"><ellipse fill="#7c4eb8" fill-opacity="0.501961" cx="0" cy="0" rx="1" ry="1" /></g>
<g transform="translate(226.985418 186.291611) rotate(233.962648) scale(8.977296 23.798871)"><ellipse fill="#be9ae4" fill-opacity="0.501961" cx="0" cy="0" rx="1" ry="1" /></g>
<g transform="translate(1031.021568 274.123836) rotate(256.040457) scale(14.705534 30.276411)"><ellipse fill="#000700" fill-opacity="0.501961" cx="0" cy="0" rx="1" ry="1" /></g>
<g transform="translate(300.995245 234.371453) rotate(120.143772) scale(22.028124 30.292274)"><ellipse fill="#af83e9" fill-opacity="0.501961" cx="0" cy="0" rx="1" ry="1" /></g>
<g transform="translate(0.000000 397.913624) rotate(314.311101) scale(88.772842 13.889638)"><ellipse fill="#998aa4" fill-opacity="0.501961" cx="0" cy="0" rx="1" ry="1" /></g>
<g transform="translate(995.148099 66.517918) rotate(-49.280131) scale(47.965895 39.809236)"><ellipse fill="#887c8d" fill-opacity="0.501961" cx="0" cy="0" rx="1" ry="1" /></g>
<g transform="translate(250.128609 350.693533) rotate(254.240628) scale(69.696815 48.797003)"><ellipse fill="#9e75da" fill-opacity="0.501961" cx="0" cy="0" rx="1" ry="1" /></g>
<g transform="translate(707.915103 100.965334) rotate(146.721658) scale(58.830307 33.365713)"><ellipse fill="#8865b0" fill-opacity="0.501961" cx="0" cy="0" rx="1" ry="1" /></g>
<g transform="translate(172.243829 328.564335) rotate(245.729573) scale(82.043167 38.944659)"><ellipse fill="#744db3" fill-opacity="0.501961" cx="0" cy="0" rx="1" ry="1" /></g>
<g transform="translate(1037.731451 573.445813) rotate(153.814191) scale(74.635845 27.896660)"><ellipse fill="#757071" fill-opacity="0.501961" cx="0" cy="0" rx="1" ry="1" /></g>
<g transform="translate(856.001490 376.320493) rotate(375.808729) scale(20.395886 113.268582)"><ellipse fill="#9a64e5" fill-opacity="0.501961" cx="0" cy="0" rx="1" ry="1" /></g>
<g transform="translate(116.175384 205.440788) rotate(163.227197) scale(65.453076 20.958085)"><ellipse fill="#a393ae" fill-opacity="0.501961" cx="0" cy="0" rx="1" ry="1" /></g>
<g transform="translate(94.736515 250.093364) rotate(290.424742) scale(3.838670 43.755736)"><ellipse fill="#d3ced7" fill-opacity="0.501961" cx="0" cy="0" rx="1" ry="1" /></g>
<g transform="translate(118.240994 238.714826) rotate(3.268361) scale(32.850778 11.573528)"><ellipse fill="#0b1001" fill-opacity="0.501961" cx="0" cy="0" rx="1" ry="1" /></g>
<g transform="translate(387.613890 440.596728) rotate(397.692907) scale(24.547898 30.129430)"><ellipse fill="#0b0f01" fill-opacity="0.501961" cx="0" cy="0" rx="1" ry="1" /></g>
<g transform="translate(926.625433 528.738993) rotate(126.724124) scale(32.096352 54.848403)"><ellipse fill="#7046a8" fill-opacity="0.501961" cx="0" cy="0" rx="1" ry="1" /></g>
<g transform="translate(909.969244 387.859343) rotate(124.600929) scale(129.229261 59.068419)"><ellipse fill="#8857ce" fill-opacity="0.501961" cx="0" cy="0" rx="1" ry="1" /></g>
<g transform="translate(345.376544 384.775054) rotate(361.375738) scale(33.695493 25.064002)"><ellipse fill="#0b0f00" fill-opacity="0.501961" cx="0" cy="0" rx="1" ry="1" /></g>
<g transform="translate(635.812042 241.252923) rotate(42.792630) scale(13.283245 69.003215)"><ellipse fill="#14180c" fill-opacity="0.501961" cx="0" cy="0" rx="1" ry="1" /></g>
<g transform="translate(11.353129 289.889572) rotate(362.569254) scale(23.639241 27.427266)"><ellipse fill="#000000" fill-opacity="0.501961" cx="0" cy="0" rx="1" ry="1" /></g>
<g transform="translate(966.807872 11.315274) rotate(221.215468) scale(20.821249 41.736610)"><ellipse fill="#000000" fill-opacity="0.501961" cx="0" cy="0" rx="1" ry="1" /></g>
<g transform="translate(629.000483 178.582986) rotate(158.588636) scale(13.539377 28.300974)"><ellipse fill="#cba7fd" fill-opacity="0.501961" cx="0" cy="0" rx="1" ry="1" /></g>
<g transform="translate(603.323282 244.385488) rotate(105.795086) scale(20.683296 5.110997)"><ellipse fill="#e2bcff" fill-opacity="0.501961" cx="0" cy="0" rx="1" ry="1" /></g>
<g transform="translate(859.880000 623.615462) rotate(359.485626) scale(100.602475 16.345537)"><ellipse fill="#000000" fill-opacity="0.501961" cx="0" cy="0" rx="1" ry="1" /></g>
<g transform="translate(334.244843 454.671488) rotate(314.322742) scale(4.097078 79.403795)"><ellipse fill="#b98ee8" fill-opacity="0.501961" cx="0" cy="0" rx="1" ry="1" /></g>
<g transform="translate(1106.939924 94.310653) rotate(213.642414) scale(133.404290 31.633723)"><ellipse fill="#645b68" fill-opacity="0.501961" cx="0" cy="0" rx="1" ry="1" /></g>
</g>
</svg>