<svg xmlns="http://www.w3.org/2000/svg" version="1.1" width="1200" height="630">
<rect x="0" y="0" width="1200" height="630" fill="#583837" />
<g transform="scale(1.000000) translate(0.5 0.5)">
<path stroke="#ffffff" stroke-opacity="0.501961" fill="none" d="M 616.742689 107.392407 Q 594.936525 319.699103, 1110.181261 266.555458" stroke-width="0.500000" />
<path stroke="#ffffff" stroke-opacity="0.501961" fill="none" d="M 1168.862835 205.078663 Q 623.438789 355.927307, 602.798238 157.185784" stroke-width="0.500000" />
<path stroke="#ffffff" stroke-opacity="0.501961" fill="none" d="M 608.745463 145.266015 Q 1035.023286 450.365911, 1151.977515 180.848419" stroke-width="0.500000" />
<path stroke="#ffffff" stroke-opacity="0.501961" fill="none" d="M 1159.100234 207.358264 Q 792.361593 464.662186, 672.812891 31.758440" stroke-width="0.500000" />
<path stroke="#ffffff" stroke-opacity="0.501961" fill="none" d="M 619.317368 91.389460 Q 633.395638 387.875621, 1131.021799 223.677088" stroke-width="0.500000" />
<path stroke="#ffffff" stroke-opacity="0.501961" fill="none" d="M 622.939313 99.951540 Q 642.634298 362.162616, 1156.274745 202.800162" stroke-width="0.500000" />
<path stroke="#ffffff" stroke-opacity="0.501961" fill="none" d="M 1134.101449 177.418968 Q 1025.814283 451.307354, 606.597029 128.358707" stroke-width="0.500000" />
<path stroke="#ffffff" stroke-opacity="0.501961" fill="none" d="M 1156.157890 212.129581 Q 632.576340 377.026981, 612.195785 123.675353" stroke-width="0.500000" />
<path stroke="#ffffff" stroke-opacity="0.501961" fill="none" d="M 637.732312 335.038898 Q 659.390522 65.712633, 1149.335329 227.752500" stroke-width="0.500000" />
<path stroke="#ffffff" stroke-opacity="0.501961" fill="none" d="M 643.113953 62.112729 Q 617.713932 334.972372, 1110.240566 258.023371" stroke-width="0.500000" />
<path stroke="#ffffff" stroke-opacity="0.501961" fill="none" d="M 598.602886 178.915180 Q 651.998289 385.448132, 1142.244612 156.771881" stroke-width="0.500000" />
<path stroke="#ffffff" stroke-opacity="0.501961" fill="none" d="M 629.992847 334.308267 Q 639.335782 63.347476, 1152.560806 202.856510" stroke-width="0.500000" />
<path stroke="#ffffff" stroke-opacity="0.501961" fill="none" d="M 632.648409 82.668853 Q 949.353283 514.278236, 1157.000319 205.732471" stroke-width="0.500000" />
<path stroke="#ffffff" stroke-opacity="0.501961" fill="none" d="M 1148.973543 226.619414 Q 623.008460 387.198813, 609.445626 111.822619" stroke-width="0.500000" />
<path stroke="#ffffff" stroke-opacity="0.501961" fill="none" d="M 604.296446 153.375161 Q 620.775574 345.231870, 1149.509877 204.498241" stroke-width="0.500000" />
<path stroke="#ffffff" stroke-opacity="0.501961" fill="none" d="M 672.156285 26.693090 Q 841.175998 483.329229, 1132.268202 243.667874" stroke-width="0.500000" />
<path stroke="#ffffff" stroke-opacity="0.501961" fill="none" d="M 610.878283 136.834202 Q 611.347811 363.929307, 1126.184705 249.786967" stroke-width="0.500000" />
<path stroke="#ffffff" stroke-opacity="0.501961" fill="none" d="M 1041.842143 364.841086 Q 814.774495 -10.547514, 601.474390 281.444808" stroke-width="0.500000" />
<path stroke="#ffffff" stroke-opacity="0.501961" fill="none" d="M 1076.441480 351.845511 Q 795.315082 2.304765, 626.716205 333.217613" stroke-width="0.500000" />
<path stroke="#ffffff" stroke-opacity="0.501961" fill="none" d="M 613.090432 115.153513 Q 988.587239 488.037682, 1145.553576 174.796878" stroke-width="0.500000" />
<path stroke="#ffffff" stroke-opacity="0.501961" fill="none" d="M 1040.377793 349.160550 Q 856.503171 -16.000000, 619.046638 320.958599" stroke-width="0.500000" />
<path stroke="#ffffff" stroke-opacity="0.501961" fill="none" d="M 650.062477 353.642523 Q 664.399062 95.403390, 1131.873264 243.886398" stroke-width="0.500000" />
<path stroke="#ffffff" stroke-opacity="0.501961" fill="none" d="M 1136.731218 166.926127 Q 654.708480 393.753260, 597.917140 184.382768" stroke-width="0.500000" />
<path stroke="#ffffff" stroke-opacity="0.501961" fill="none" d="M 593.506751 212.930586 Q 701.480912 418.513391, 1103.439992 77.033820" stroke-width="0.500000" />
<path stroke="#ffffff" stroke-opacity="0.501961" fill="none" d="M 657.228155 47.855327 Q 668.749884 362.940898, 1164.376400 191.972976" stroke-width="0.500000" />
<path stroke="#ffffff" stroke-opacity="0.501961" fill="none" d="M 624.474045 327.686654 Q 636.008208 56.348648, 1146.943722 197.807304" stroke-width="0.500000" />
<path stroke="#ffffff" stroke-opacity="0.501961" fill="none" d="M 658.673708 41.498938 Q 664.890678 352.141741, 1146.883983 191.740063" stroke-width="0.500000" />
<path stroke="#ffffff" stroke-opacity="0.501961" fill="none" d="M 1152.523522 197.015465 Q 634.562414 23.521887, 621.064389 327.403993" stroke-width="0.500000" />
<path stroke="#ffffff" stroke-opacity="0.501961" fill="none" d="M 601.236263 157.886991 Q 619.223675 385.593583, 1133.842404 233.842407" stroke-width="0.500000" />
<path stroke="#ffffff" stroke-opacity="0.501961" fill="none" d="M 1140.742545 231.621226 Q 669.401397 79.997783, 648.125349 354.731899" stroke-width="0.500000" />
<path stroke="#ffffff" stroke-opacity="0.501961" fill="none" d="M 1141.086988 221.795380 Q 985.254919 506.536667, 609.622449 117.046560" stroke-width="0.500000" />
<path stroke="#ffffff" stroke-opacity="0.501961" fill="none" d="M 1131.602977 248.301824 Q 667.555156 107.249895, 654.722542 352.362077" stroke-width="0.500000" />
<path stroke="#ffffff" stroke-opacity="0.501961" fill="none" d="M 620.418410 331.409459 Q 623.221532 22.725388, 1140.850104 181.982268" stroke-width="0.500000" />
<path stroke="#ffffff" stroke-opacity="0.501961" fill="none" d="M 635.454172 76.434123 Q 588.685687 299.850948, 1117.598708 296.036241" stroke-width="0.500000" />
<path stroke="#ffffff" stroke-opacity="0.501961" fill="none" d="M 635.333560 72.842101 Q 952.451141 503.841540, 1156.145812 203.546504" stroke-width="0.500000" />
<path stroke="#ffffff" stroke-opacity="0.501961" fill="none" d="M 1136.922032 226.010948 Q 696.910272 4.815319, 640.284201 344.373641" stroke-width="0.500000" />
<path stroke="#ffffff" stroke-opacity="0.501961" fill="none" d="M 675.186324 27.749522 Q 837.583481 467.404115, 1143.732190 227.964485" stroke-width="0.500000" />
<path stroke="#ffffff" stroke-opacity="0.501961" fill="none" d="M 635.536511 83.885049 Q 950.071609 475.367313, 1112.138361 264.257757" stroke-width="0.500000" />
<path stroke="#ffffff" stroke-opacity="0.501961" fill="none" d="M 1146.071830 230.538291 Q 649.965545 390.027682, 607.166394 151.345277" stroke-width="0.500000" />
<path stroke="#ffffff" stroke-opacity="0.501961" fill="none" d="M 641.302175 346.696332 Q 739.186176 -16.000000, 1109.952471 271.046298" stroke-width="0.500000" />
<path stroke="#ffffff" stroke-opacity="0.501961" fill="none" d="M 637.665386 59.906314 Q 927.562562 488.207477, 1139.270762 223.857231" stroke-width="0.500000" />
<path stroke="#ffffff" stroke-opacity="0.501961" fill="none" d="M 618.131693 323.505917 Q 629.231022 12.833911, 1117.212631 171.523251" stroke-width="0.500000" />
<path stroke="#ffffff" stroke-opacity="0.501961" fill="none" d="M 1134.643939 258.272047 Q 630.085041 122.705672, 613.637290 312.042747" stroke-width="0.500000" />
<path stroke="#ffffff" stroke-opacity="0.501961" fill="none" d="M 633.325864 79.639544 Q 588.893755 297.854552, 1106.826348 299.501407" stroke-width="0.500000" />
<path stroke="#ffffff" stroke-opacity="0.501961" fill="none" d="M 1093.381900 293.665407 Q 701.176524 -2.043659, 600.379515 279.515154" stroke-width="0.500000" />
<path stroke="#ffffff" stroke-opacity="0.501961" fill="none" d="M 1156.585925 192.899968 Q 627.740030 347.709477, 602.949236 145.349222" stroke-width="0.500000" />
<path stroke="#ffffff" stroke-opacity="0.501961" fill="none" d="M 1105.398826 85.141899 Q 699.216103 410.980777, 595.209776 239.048852" stroke-width="0.500000" />
<path stroke="#ffffff" stroke-opacity="0.501961" fill="none" d="M 1157.099680 193.824889 Q 956.536931 488.902637, 643.634222 61.225433" stroke-width="0.500000" />
<path stroke="#ffffff" stroke-opacity="0.501961" fill="none" d="M 632.849165 345.607064 Q 860.344809 21.853434, 1044.252870 381.169186" stroke-width="0.500000" />
<path stroke="#ffffff" stroke-opacity="0.501961" fill="none" d="M 1143.454227 130.214451 Q 830.258259 428.799823, 626.229972 92.332661" stroke-width="0.500000" />
<path stroke="#ffffff" stroke-opacity="0.501961" fill="none" d="M 663.200120 359.146379 Q 674.360494 66.848965, 1139.312070 230.050114" stroke-width="0.500000" />
<path stroke="#ffffff" stroke-opacity="0.501961" fill="none" d="M 1146.533386 135.498505 Q 666.198355 394.596335, 597.756003 166.182775" stroke-width="0.500000" />
<path stroke="#fffdff" stroke-opacity="0.501961" fill="none" d="M 634.810593 342.241244 Q 634.289597 -16.000000, 1126.073640 159.591086" stroke-width="0.500000" />
<path stroke="#ffffff" stroke-opacity="0.501961" fill="none" d="M 1082.083532 290.802311 Q 712.737847 23.255263, 623.940883 333.647426" stroke-width="0.500000" />
<path stroke="#ffffff" stroke-opacity="0.501961" fill="none" d="M 595.368553 196.647167 Q 715.986649 433.858464, 1105.453421 87.630247" stroke-width="0.500000" />
<path stroke="#ffffff" stroke-opacity="0.501961" fill="none" d="M 1119.655731 253.239255 Q 621.448471 374.002840, 596.733069 187.848697" stroke-width="0.500000" />
<path stroke="#ffffff" stroke-opacity="0.501961" fill="none" d="M 651.027369 51.853065 Q 650.076472 428.565675, 1120.697673 259.886940" stroke-width="0.500000" />
<path stroke="#ffffff" stroke-opacity="0.501961" fill="none" d="M 1137.820961 157.538315 Q 667.184431 362.002002, 613.843242 134.029222" stroke-width="0.500000" />
<path stroke="#ffffff" stroke-opacity="0.501961" fill="none" d="M 1034.814315 375.395703 Q 809.393135 -6.033463, 599.627054 288.151436" stroke-width="0.500000" />
<path stroke="#ffffff" stroke-opacity="0.501961" fill="none" d="M 1051.653628 353.858633 Q 780.142426 -16.000000, 594.572703 241.864745" stroke-width="0.500000" />
<path stroke="#ffffff" stroke-opacity="0.501961" fill="none" d="M 654.569041 46.363788 Q 878.575088 474.356657, 1103.984309 275.101551" stroke-width="0.500000" />
<path stroke="#ffffff" stroke-opacity="0.501961" fill="none" d="M 1124.772114 202.057068 Q 648.167530 -15.747634, 611.448907 305.516128" stroke-width="0.500000" />
<path stroke="#ffffff" stroke-opacity="0.501961" fill="none" d="M 1091.109331 293.896317 Q 977.442941 464.827892, 610.792029 115.993835" stroke-width="0.500000" />
<path stroke="#ffffff" stroke-opacity="0.501961" fill="none" d="M 655.569983 351.093326 Q 747.784188 70.391911, 1076.003636 323.517386" stroke-width="0.500000" />
<path stroke="#ffffff" stroke-opacity="0.501961" fill="none" d="M 594.372660 189.076707 Q 755.201155 430.089273, 1066.670678 50.919887" stroke-width="0.500000" />
<path stroke="#ffffff" stroke-opacity="0.501961" fill="none" d="M 637.651318 353.908917 Q 686.261682 2.439647, 1128.288629 220.185173" stroke-width="0.500000" />
<path stroke="#ffffff" stroke-opacity="0.501961" fill="none" d="M 1034.912587 363.842870 Q 845.508300 61.752427, 642.741324 345.909307" stroke-width="0.500000" />
<path stroke="#ffffff" stroke-opacity="0.501961" fill="none" d="M 1154.216770 198.186342 Q 693.051209 382.199359, 613.795962 116.401190" stroke-width="0.500000" />
<path stroke="#ffffff" stroke-opacity="0.501961" fill="none" d="M 670.001895 360.915260 Q 679.883170 82.209024, 1130.175239 233.761313" stroke-width="0.500000" />
<path stroke="#ffffff" stroke-opacity="0.501961" fill="none" d="M 1126.382816 243.255630 Q 619.489872 375.534859, 593.907922 209.710239" stroke-width="0.500000" />
<path stroke="#ffffff" stroke-opacity="0.501961" fill="none" d="M 1101.574018 183.565321 Q 636.185614 35.630251, 641.118593 346.431340" stroke-width="0.500000" />
<path stroke="#ffffff" stroke-opacity="0.501961" fill="none" d="M 1137.189337 232.758416 Q 890.717153 474.281707, 681.143912 38.745531" stroke-width="0.500000" />
<path stroke="#ffffff" stroke-opacity="0.501961" fill="none" d="M 612.695586 149.983549 Q 638.988635 339.725625, 1141.638176 190.713364" stroke-width="0.500000" />
<path stroke="#ffffff" stroke-opacity="0.501961" fill="none" d="M 636.725364 341.144543 Q 638.663934 30.824274, 1123.760794 179.593379" stroke-width="0.500000" />
<path stroke="#ffffff" stroke-opacity="0.501961" fill="none" d="M 615.070461 115.093353 Q 1020.484502 433.923158, 1139.994706 161.832936" stroke-width="0.500000" />
<path stroke="#ffffff" stroke-opacity="0.501961" fill="none" d="M 635.966939 70.110749 Q 667.139326 464.308167, 1124.456019 242.483906" stroke-width="0.500000" />
<path stroke="#ffffff" stroke-opacity="0.501961" fill="none" d="M 660.955432 42.551332 Q 664.731162 343.751992, 1140.069554 187.499497" stroke-width="0.500000" />
<path stroke="#ffffff" stroke-opacity="0.501961" fill="none" d="M 1110.243048 250.293989 Q 773.369271 -10.061425, 652.478023 353.865635" stroke-width="0.500000" />
<path stroke="#ffffff" stroke-opacity="0.501961" fill="none" d="M 1058.024608 368.025368 Q 924.658002 -12.346627, 607.664184 295.849187" stroke-width="0.500000" />
<path stroke="#ffffff" stroke-opacity="0.501961" fill="none" d="M 1100.667723 208.078383 Q 623.095364 59.362980, 607.436920 296.704917" stroke-width="0.500000" />
<path stroke="#ffffff" stroke-opacity="0.501961" fill="none" d="M 658.905798 358.083041 Q 830.354640 15.063746, 1068.016859 339.729444" stroke-width="0.500000" />
<path stroke="#ffffff" stroke-opacity="0.501961" fill="none" d="M 605.461666 144.714054 Q 698.052992 429.574618, 1148.917434 160.800238" stroke-width="0.500000" />
<path stroke="#ffffff" stroke-opacity="0.501961" fill="none" d="M 1118.669939 210.407995 Q 643.677040 358.986488, 641.313458 68.717174" stroke-width="0.500000" />
<path stroke="#ffffff" stroke-opacity="0.501961" fill="none" d="M 1051.108890 33.812287 Q 733.025113 423.115080, 601.307585 264.098210" stroke-width="0.500000" />
<path stroke="#ffffff" stroke-opacity="0.501961" fill="none" d="M 680.268391 22.091304 Q 882.586728 461.332813, 1095.366927 278.018776" stroke-width="0.500000" />
<path stroke="#ffffff" stroke-opacity="0.501961" fill="none" d="M 1143.869836 225.711964 Q 710.570184 373.554966, 710.331549 2.419826" stroke-width="0.500000" />
<path stroke="#ffffff" stroke-opacity="0.501961" fill="none" d="M 1135.984251 155.636150 Q 622.534352 335.098155, 592.886187 200.327457" stroke-width="0.500000" />
<path stroke="#ffffff" stroke-opacity="0.501961" fill="none" d="M 626.209982 91.461193 Q 616.598599 300.104234, 1127.495050 249.169455" stroke-width="0.500000" />
<path stroke="#ffffff" stroke-opacity="0.501961" fill="none" d="M 1116.558246 339.400704 Q 729.616090 49.369852, 626.941990 325.753516" stroke-width="0.500000" />
<path stroke="#fffcff" stroke-opacity="0.501961" fill="none" d="M 1116.588089 167.736756 Q 617.224158 9.832200, 604.624053 290.337156" stroke-width="0.500000" />
<path stroke="#ffffff" stroke-opacity="0.501961" fill="none" d="M 1152.903007 130.672198 Q 666.400158 357.508699, 614.642637 124.756785" stroke-width="0.500000" />
<path stroke="#ffffff" stroke-opacity="0.501961" fill="none" d="M 654.893951 359.234871 Q 664.359718 112.148490, 1115.253918 244.771073" stroke-width="0.500000" />
<path stroke="#ffffff" stroke-opacity="0.501961" fill="none" d="M 1138.691394 264.917185 Q 626.950582 328.654145, 614.473461 130.447587" stroke-width="0.500000" />
<path stroke="#ffffff" stroke-opacity="0.501961" fill="none" d="M 1050.870517 361.512094 Q 586.671077 312.431043, 675.354436 24.289346" stroke-width="0.500000" />
<path stroke="#ffffff" stroke-opacity="0.501961" fill="none" d="M 1038.880213 41.777026 Q 732.719402 421.091828, 599.498730 260.504670" stroke-width="0.500000" />
<path stroke="#ffffff" stroke-opacity="0.501961" fill="none" d="M 973.618861 33.353890 Q 781.820589 426.794792, 601.409522 278.781248" stroke-width="0.500000" />
<path stroke="#ffffff" stroke-opacity="0.501961" fill="none" d="M 596.744433 222.461492 Q 933.031433 -16.000000, 1037.639802 370.756115" stroke-width="0.500000" />
<path stroke="#ffffff" stroke-opacity="0.501961" fill="none" d="M 1042.515404 384.862228 Q 810.766839 66.905277, 642.168056 341.082417" stroke-width="0.500000" />
<path stroke="#fffdff" stroke-opacity="0.501961" fill="none" d="M 1070.674243 139.369366 Q 611.143806 -12.192320, 617.918774 318.198788" stroke-width="0.500000" />
<path stroke="#ffffff" stroke-opacity="0.501961" fill="none" d="M 1129.126356 238.088240 Q 630.375984 418.414179, 605.876675 143.023710" stroke-width="0.500000" />
</g>
</svg>