<svg xmlns="http://www.w3.org/2000/svg" version="1.1" width="1200" height="630">
<rect x="0" y="0" width="1200" height="630" fill="#544374" />
<g transform="scale(1.000000) translate(0.5 0.5)">
<g transform="translate(790.223208 328.542052) rotate(166.749264) scale(372.476264 216.480219)"><ellipse fill="#cf91ff" fill-opacity="0.501961" cx="0" cy="0" rx="1" ry="1" /></g>
<ellipse fill="#000000" fill-opacity="0.501961" cx="196" cy="525" rx="266" ry="266" />
<ellipse fill="#000000" fill-opacity="0.501961" cx="424" cy="102" rx="135" ry="135" />
<ellipse fill="#000000" fill-opacity="0.501961" cx="1044" cy="0" rx="170" ry="170" />
<ellipse fill="#000000" fill-opacity="0.501961" cx="1115" cy="629" rx="172" ry="172" />
<g transform="translate(852 479) rotate(393) scale(59 91)"><rect fill="#000000" fill-opacity="0.501961" x="-0.5" y="-0.5" width="1" height="1" /></g>
<ellipse fill="#001213" fill-opacity="0.501961" cx="319" cy="279" rx="141" ry="141" />
<polygon fill="#a870f6" fill-opacity="0.501961" points="1098,386 632,-12 370,470" />
<g transform="translate(1032.077281 138.388163) rotate(94.864817) scale(34.364841 95.845123)"><ellipse fill="#bca0d5" fill-opacity="0.501961" cx="0" cy="0" rx="1" ry="1" /></g>
<g transform="translate(197.865121 125.007857) rotate(225.939804) scale(60.220723 147.332421)"><ellipse fill="#aea6ad" fill-opacity="0.501961" cx="0" cy="0" rx="1" ry="1" /></g>
<ellipse fill="#000000" fill-opacity="0.501961" cx="475" cy="610" rx="174" ry="47" />
<g transform="translate(1153.900304 67.739197) rotate(110.545959) scale(75.610090 391.445700)"><ellipse fill="#000000" fill-opacity="0.501961" cx="0" cy="0" rx="1" ry="1" /></g>
<g transform="translate(425.946826 512.218297) rotate(110.049486) scale(6.976443 261.463801)"><ellipse fill="#f1f0f5" fill-opacity="0.501961" cx="0" cy="0" rx="1" ry="1" /></g>
<g transform="translate(959.171230 528.687641) rotate(126.863489) scale(45.304778 60.562840)"><ellipse fill="#000000" fill-opacity="0.501961" cx="0" cy="0" rx="1" ry="1" /></g>
<ellipse fill="#a392ad" fill-opacity="0.501961" cx="1051" cy="392" rx="95" ry="95" />
<g transform="translate(72.901272 233.368532) rotate(149.443833) scale(107.727333 63.287325)"><ellipse fill="#a082b3" fill-opacity="0.501961" cx="0" cy="0" rx="1" ry="1" /></g>
<ellipse fill="#000503" fill-opacity="0.501961" cx="74" cy="570" rx="263" ry="151" />
<g transform="translate(193.482055 207.328074) rotate(205.797400) scale(16.157288 61.111733)"><ellipse fill="#000000" fill-opacity="0.501961" cx="0" cy="0" rx="1" ry="1" /></g>
<g transform="translate(22.332124 28.091967) rotate(329.801380) scale(411.061046 55.369614)"><ellipse fill="#19170d" fill-opacity="0.501961" cx="0" cy="0" rx="1" ry="1" /></g>
<ellipse fill="#9481a4" fill-opacity="0.501961" cx="1088" cy="292" rx="134" ry="134" />
<g transform="translate(1193.458807 443.946946) rotate(403.375591) scale(40.128919 138.091625)"><ellipse fill="#000300" fill-opacity="0.501961" cx="0" cy="0" rx="1" ry="1" /></g>
<g transform="translate(918.885723 100.987623) rotate(294.106578) scale(44.335469 18.122548)"><ellipse fill="#000000" fill-opacity="0.501961" cx="0" cy="0" rx="1" ry="1" /></g>
<g transform="translate(451.042314 195.528917) rotate(346.889787) scale(5.635142 155.279262)"><ellipse fill="#b77aff" fill-opacity="0.501961" cx="0" cy="0" rx="1" ry="1" /></g>
<g transform="translate(781.206051 123.592315) rotate(284.843371) scale(113.265144 114.799280)"><ellipse fill="#7a4db5" fill-opacity="0.501961" cx="0" cy="0" rx="1" ry="1" /></g>
<g transform="translate(753.969042 553.926480) rotate(90.280710) scale(51.950699 151.073859)"><ellipse fill="#7546b2" fill-opacity="0.501961" cx="0" cy="0" rx="1" ry="1" /></g>
<g transform="translate(510.128959 584.337929) rotate(19.218399) scale(233.952670 35.054928)"><ellipse fill="#001218" fill-opacity="0.501961" cx="0" cy="0" rx="1" ry="1" /></g>
<ellipse fill="#b49bcc" fill-opacity="0.501961" cx="936" cy="294" rx="84" ry="166" />
<polygon fill="#0e1f30" fill-opacity="0.501961" points="189,162 428,159 386,492" />
<g transform="translate(433.931647 444.433077) rotate(231.360622) scale(44.683287 22.667295)"><ellipse fill="#b175fe" fill-opacity="0.501961" cx="0" cy="0" rx="1" ry="1" /></g>
<g transform="translate(850.301602 468.932346) rotate(285.516421) scale(52.487413 20.322045)"><ellipse fill="#000b06" fill-opacity="0.501961" cx="0" cy="0" rx="1" ry="1" /></g>
<ellipse fill="#001116" fill-opacity="0.501961" cx="66" cy="368" rx="165" ry="57" />
<g transform="translate(256.020048 128.233852) rotate(131.767125) scale(42.186446 22.053900)"><ellipse fill="#cdcbcd" fill-opacity="0.501961" cx="0" cy="0" rx="1" ry="1" /></g>
<g transform="translate(1182.628421 130.600126) rotate(242.200500) scale(234.520368 29.860782)"><ellipse fill="#000603" fill-opacity="0.501961" cx="0" cy="0" rx="1" ry="1" /></g>
<ellipse fill="#00171f" fill-opacity="0.501961" cx="489" cy="41" rx="56" ry="183" />
<ellipse fill="#000c0d" fill-opacity="0.501961" cx="362" cy="40" rx="56" ry="56" />
<g transform="translate(636.137889 20.884198) rotate(135.009894) scale(92.849700 77.363321)"><ellipse fill="#6b4199" fill-opacity="0.501961" cx="0" cy="0" rx="1" ry="1" /></g>
<ellipse fill="#000e11" fill-opacity="0.501961" cx="1022" cy="539" rx="50" ry="50" />
<rect fill="#000d0e" fill-opacity="0.501961" x="918" y="485" width="53" height="83" />
<g transform="translate(486 515) rotate(112) scale(23 77)"><rect fill="#000603" fill-opacity="0.501961" x="-0.5" y="-0.5" width="1" height="1" /></g>
<polygon fill="#8a57d3" fill-opacity="0.501961" points="770,210 927,278 783,548" />
<g transform="translate(948.548470 597.017530) rotate(353.988929) scale(51.261665 20.838933)"><ellipse fill="#5d3788" fill-opacity="0.501961" cx="0" cy="0" rx="1" ry="1" /></g>
<polygon fill="#132132" fill-opacity="0.501961" points="403.956570,47.218954,50.652894,327.576765,383.096745,448.568472,469.740521,287.026605" />
<g transform="translate(540.228184 574.167868) rotate(169.023645) scale(5.562312 34.207564)"><ellipse fill="#9258d0" fill-opacity="0.501961" cx="0" cy="0" rx="1" ry="1" /></g>
<g transform="translate(883.759208 513.444707) rotate(219.020874) scale(25.478103 58.422036)"><ellipse fill="#6b45a5" fill-opacity="0.501961" cx="0" cy="0" rx="1" ry="1" /></g>
<polygon fill="#001a0d" fill-opacity="0.501961" points="815.751149,228.117061,822.055754,215.940323,844.620691,208.851828,836.279091,235.444943" />
<polygon fill="#d6cfe0" fill-opacity="0.501961" points="333.626271,477.778100,177.836875,415.856111,173.831071,427.502723,289.598869,469.913037" />
<ellipse fill="#9c83b4" fill-opacity="0.501961" cx="1014" cy="477" rx="61" ry="14" />
<ellipse fill="#7b668f" fill-opacity="0.501961" cx="1095" cy="187" rx="65" ry="65" />
<g transform="translate(363 463) rotate(-70) scale(39 125)"><rect fill="#021a23" fill-opacity="0.501961" x="-0.5" y="-0.5" width="1" height="1" /></g>
<g transform="translate(124.768659 116.352152) rotate(320.432559) scale(352.250597 40.640392)"><ellipse fill="#746779" fill-opacity="0.501961" cx="0" cy="0" rx="1" ry="1" /></g>
<polygon fill="#011219" fill-opacity="0.501961" points="899.003240,-16.000000,894.164411,149.478725,918.436219,129.908399,1097.654558,61.493945" />
<ellipse fill="#000000" fill-opacity="0.501961" cx="1028" cy="629" rx="58" ry="31" />
<g transform="translate(479 245) rotate(179) scale(17 51)"><rect fill="#00141c" fill-opacity="0.501961" x="-0.5" y="-0.5" width="1" height="1" /></g>
<ellipse fill="#a5a1a8" fill-opacity="0.501961" cx="234" cy="108" rx="51" ry="51" />
<rect fill="#9c65e7" fill-opacity="0.501961" x="531" y="162" width="248" height="321" />
<polygon fill="#9461da" fill-opacity="0.501961" points="512.772543,514.720730,433.980161,472.614189,383.877893,446.136597,456.863185,314.297692" />
<polygon fill="#0b1523" fill-opacity="0.501961" points="202,145 147,299 300,212" />
<polygon fill="#7c51b9" fill-opacity="0.501961" points="871.275676,549.112390,755.540158,460.503046,442.548305,478.577403,655.575531,590.448753" />
<polygon fill="#816899" fill-opacity="0.501961" points="1161,437 1016,491 1164,162" />
<rect fill="#000b10" fill-opacity="0.501961" x="1058" y="480" width="142" height="63" />
<polygon fill="#0b1725" fill-opacity="0.501961" points="919,467 1056,531 905,568" />
<g transform="translate(110.852979 253.019451) rotate(411.263126) scale(24.759862 63.627297)"><ellipse fill="#9c80b7" fill-opacity="0.501961" cx="0" cy="0" rx="1" ry="1" /></g>
<ellipse fill="#4d2f70" fill-opacity="0.501961" cx="1123" cy="565" rx="64" ry="22" />
<ellipse fill="#00070a" fill-opacity="0.501961" cx="51" cy="629" rx="127" ry="127" />
<g transform="translate(1199.000000 407.155022) rotate(191.707758) scale(17.495451 46.345212)"><ellipse fill="#000200" fill-opacity="0.501961" cx="0" cy="0" rx="1" ry="1" /></g>
<polygon fill="#001721" fill-opacity="0.501961" points="902,458 852,413 837,527" />
<g transform="translate(1190.724895 467.481266) rotate(43.752107) scale(61.039513 4.705264)"><ellipse fill="#8f8396" fill-opacity="0.501961" cx="0" cy="0" rx="1" ry="1" /></g>
<polygon fill="#000100" fill-opacity="0.501961" points="737,631 637,604 639,645" />
<g transform="translate(622.256940 161.818444) rotate(69.284714) scale(64.463375 90.076987)"><ellipse fill="#9362cf" fill-opacity="0.501961" cx="0" cy="0" rx="1" ry="1" /></g>
<ellipse fill="#5d3c83" fill-opacity="0.501961" cx="709" cy="18" rx="160" ry="37" />
<polygon fill="#0a1723" fill-opacity="0.501961" points="269,145 397,-16 431,144" />
<g transform="translate(1199.000000 44.674991) rotate(92.736433) scale(133.891313 73.890819)"><ellipse fill="#030b10" fill-opacity="0.501961" cx="0" cy="0" rx="1" ry="1" /></g>
<g transform="translate(566 550) rotate(295) scale(11 65)"><rect fill="#000a03" fill-opacity="0.501961" x="-0.5" y="-0.5" width="1" height="1" /></g>
<g transform="translate(900.616928 226.928002) rotate(192.249221) scale(55.793963 36.954425)"><ellipse fill="#bca1d5" fill-opacity="0.501961" cx="0" cy="0" rx="1" ry="1" /></g>
<polygon fill="#7950ad" fill-opacity="0.501961" points="905,551 830,533 932,431" />
<polygon fill="#162235" fill-opacity="0.501961" points="576.260267,81.865293,439.651311,79.035759,472.929403,275.455176,560.334389,120.081525" />
<polygon fill="#a26de9" fill-opacity="0.501961" points="403.388471,415.168662,761.998418,348.192066,535.396072,160.686996,491.535889,247.218988" />
<g transform="translate(897.228586 381.550240) rotate(29.732518) scale(22.910167 54.909120)"><ellipse fill="#c2a6da" fill-opacity="0.501961" cx="0" cy="0" rx="1" ry="1" /></g>
<ellipse fill="#0a1621" fill-opacity="0.501961" cx="468" cy="627" rx="76" ry="90" />
<g transform="translate(1069.259173 120.832630) rotate(104.870564) scale(13.962283 54.243745)"><ellipse fill="#78628f" fill-opacity="0.501961" cx="0" cy="0" rx="1" ry="1" /></g>
<g transform="translate(281.426237 88.982318) rotate(284.657889) scale(33.309599 18.211440)"><ellipse fill="#a6a1ab" fill-opacity="0.501961" cx="0" cy="0" rx="1" ry="1" /></g>
<g transform="translate(82.743625 65.528169) rotate(239.325987) scale(29.108017 207.598553)"><ellipse fill="#514753" fill-opacity="0.501961" cx="0" cy="0" rx="1" ry="1" /></g>
<g transform="translate(428.196067 9.582362) rotate(360.944729) scale(115.802579 47.261624)"><ellipse fill="#081018" fill-opacity="0.501961" cx="0" cy="0" rx="1" ry="1" /></g>
<g transform="translate(796.993738 106.026035) rotate(99.813814) scale(40.329979 102.778293)"><ellipse fill="#7950ad" fill-opacity="0.501961" cx="0" cy="0" rx="1" ry="1" /></g>
<g transform="translate(10.896997 0.000000) rotate(214.140199) scale(30.892110 186.598797)"><ellipse fill="#07060a" fill-opacity="0.501961" cx="0" cy="0" rx="1" ry="1" /></g>
<ellipse fill="#9179aa" fill-opacity="0.501961" cx="989" cy="161" rx="83" ry="51" />
<polygon fill="#8468a3" fill-opacity="0.501961" points="197.232590,170.864960,182.393868,86.862416,31.211968,232.320484,161.827062,239.523393" />
<g transform="translate(1050.977751 603.462136) rotate(166.454122) scale(21.321030 84.110789)"><ellipse fill="#00090d" fill-opacity="0.501961" cx="0" cy="0" rx="1" ry="1" /></g>
<g transform="translate(584.294332 62.925513) rotate(254.121331) scale(44.718199 24.821393)"><ellipse fill="#7e54b3" fill-opacity="0.501961" cx="0" cy="0" rx="1" ry="1" /></g>
<g transform="translate(297.810414 570.793827) rotate(410.607579) scale(126.008554 75.845422)"><ellipse fill="#0c1a28" fill-opacity="0.501961" cx="0" cy="0" rx="1" ry="1" /></g>
<g transform="translate(1160 460) rotate(135) scale(22 51)"><rect fill="#00090d" fill-opacity="0.501961" x="-0.5" y="-0.5" width="1" height="1" /></g>
<g transform="translate(831.962478 494.741069) rotate(90.207459) scale(23.638650 16.480879)"><ellipse fill="#041a24" fill-opacity="0.501961" cx="0" cy="0" rx="1" ry="1" /></g>
<polygon fill="#727471" fill-opacity="0.501961" points="197,97 332,-16 161,27" />
<g transform="translate(987.672424 301.369041) rotate(195.782248) scale(71.550943 79.328073)"><ellipse fill="#ac8dca" fill-opacity="0.501961" cx="0" cy="0" rx="1" ry="1" /></g>
<g transform="translate(251.487772 416.883034) rotate(102.444448) scale(22.836427 99.855424)"><ellipse fill="#0c1f2c" fill-opacity="0.501961" cx="0" cy="0" rx="1" ry="1" /></g>
<polygon fill="#d8cddf" fill-opacity="0.501961" points="525.862981,550.185993,483.570982,528.543613,371.563213,489.008228,374.990504,500.037101" />
<polygon fill="#09121b" fill-opacity="0.501961" points="1144,446 1060,490 1215,545" />
<polygon fill="#0f1723" fill-opacity="0.501961" points="570.645863,102.866668,332.034579,22.883494,535.114944,-1.311652,558.817414,67.084735" />
<g transform="translate(539.582358 464.374315) rotate(10.745496) scale(150.567598 37.122974)"><ellipse fill="#8f60d0" fill-opacity="0.501961" cx="0" cy="0" rx="1" ry="1" /></g>
<g transform="translate(334.380427 479.347603) rotate(290.422936) scale(4.114526 54.860786)"><ellipse fill="#dcd0e6" fill-opacity="0.501961" cx="0" cy="0" rx="1" ry="1" /></g>
</g>
</svg>