<svg xmlns="http://www.w3.org/2000/svg" version="1.1" width="1200" height="630">
<rect x="0" y="0" width="1200" height="630" fill="#382331" />
<g transform="scale(1.000000) translate(0.5 0.5)">
<polygon fill="#e39aba" fill-opacity="0.501961" points="157.958470,376.181746,138.540327,75.894035,600.875772,-16.000000,376.837572,361.429071" />
<polygon fill="#ff70d1" fill-opacity="0.501961" points="595.630516,183.561861,823.000968,158.399330,800.178732,14.657484,584.543265,-16.000000" />
<polygon fill="#000000" fill-opacity="0.501961" points="541.843067,163.862492,1032.826984,242.832260,723.685379,636.758001,99.132255,631.530881" />
<polygon fill="#ff37aa" fill-opacity="0.501961" points="1044.956324,300.371705,1020.978887,525.751495,792.826022,563.449089,892.486385,410.899254" />
<polygon fill="#ff1c8c" fill-opacity="0.501961" points="987.661616,171.180163,981.285636,253.930454,1192.139127,330.800393,1215.000000,174.668099" />
<polygon fill="#000000" fill-opacity="0.501961" points="0.514700,645.000000,275.040400,465.668961,66.727225,225.328458,-5.500621,99.185342" />
<polygon fill="#318b5b" fill-opacity="0.501961" points="-16.000000,50.723279,358.429966,-16.000000,283.983042,146.141299,47.344688,201.742609" />
<polygon fill="#000004" fill-opacity="0.501961" points="493.138987,120.390028,293.873653,645.000000,1215.000000,626.222661,822.243121,548.656780" />
<polygon fill="#000000" fill-opacity="0.501961" points="1111.621810,300.868725,937.187685,645.000000,1206.123516,636.015357,1198.969904,351.282242" />
<polygon fill="#aaecc7" fill-opacity="0.501961" points="429.861796,301.279305,305.313363,375.907443,440.368691,133.951779,459.332407,217.180121" />
<polygon fill="#ff0791" fill-opacity="0.501961" points="416.660104,315.695190,310.720140,138.312026,200.965266,331.200813,354.985139,295.180138" />
<polygon fill="#e30070" fill-opacity="0.501961" points="551.612849,124.601057,342.350843,8.544199,304.900948,181.286645,554.641835,129.854025" />
<polygon fill="#000000" fill-opacity="0.501961" points="-15.314596,249.567489,86.953091,614.675825,138.125549,225.086240,223.702616,120.239485" />
<polygon fill="#67e9a4" fill-opacity="0.501961" points="185.560751,365.366150,134.919150,314.314092,134.395294,230.118853,238.940234,260.687761" />
<polygon fill="#003817" fill-opacity="0.501961" points="862.329714,204.064107,781.749124,-16.000000,1215.000000,-6.592823,1215.000000,139.906276" />
<polygon fill="#6effb3" fill-opacity="0.501961" points="277.344060,299.484232,311.822117,376.632039,211.734220,377.307361,188.234772,357.738791" />
<polygon fill="#159f5a" fill-opacity="0.501961" points="508.575289,110.029913,551.706324,1.353479,332.846650,-16.000000,389.522406,22.855931" />
<polygon fill="#000410" fill-opacity="0.501961" points="480.341082,144.469212,444.443450,152.694696,610.851340,645.000000,1051.116567,281.063819" />
<polygon fill="#ff489c" fill-opacity="0.501961" points="837.292685,99.380662,584.149865,152.131244,503.258225,89.878491,597.069115,192.478124" />
<polygon fill="#db2477" fill-opacity="0.501961" points="1051.981270,444.847704,916.866007,571.109358,794.776154,535.452887,965.223852,355.527894" />
<polygon fill="#eef6ec" fill-opacity="0.501961" points="1077.261191,297.541855,1073.171171,281.384128,887.996684,416.683641,903.644846,419.389981" />
<polygon fill="#f70d7e" fill-opacity="0.501961" points="205.099024,109.360977,423.642132,312.417051,148.831160,231.248449,243.531723,209.736985" />
<polygon fill="#000000" fill-opacity="0.501961" points="1141.870237,528.105394,1181.803905,322.456158,1082.104235,296.640802,1010.956740,342.236474" />
<polygon fill="#000004" fill-opacity="0.501961" points="116.052899,437.950482,403.721258,334.059148,395.107501,631.032181,208.759703,645.000000" />
<polygon fill="#000000" fill-opacity="0.501961" points="1023.306021,152.599078,893.412044,172.715216,657.093221,174.627318,917.561119,276.603810" />
<polygon fill="#e8006a" fill-opacity="0.501961" points="506.518526,105.939565,614.290734,199.662777,548.657862,115.840041,580.877966,-16.000000" />
<polygon fill="#fb2990" fill-opacity="0.501961" points="441.032378,170.703512,253.886669,257.578599,319.564278,391.894996,329.838051,276.897463" />
<polygon fill="#000000" fill-opacity="0.501961" points="1125.447063,160.883268,1205.133558,186.061420,1209.251329,-16.000000,1103.216987,-16.000000" />
<polygon fill="#a30034" fill-opacity="0.501961" points="1215.000000,572.533646,1213.578489,439.581845,1146.744379,504.974154,1133.742769,558.841326" />
<polygon fill="#6cf9ae" fill-opacity="0.501961" points="364.869685,163.856196,454.651047,179.153577,338.253873,196.184546,336.979624,134.477195" />
<polygon fill="#f15a99" fill-opacity="0.501961" points="593.489736,67.418033,597.052257,180.809428,825.842931,159.909718,797.935702,75.677239" />
<polygon fill="#1f5f44" fill-opacity="0.501961" points="821.080400,150.595912,820.953668,183.009715,1121.403645,136.489272,800.196525,10.077587" />
<polygon fill="#7d4a62" fill-opacity="0.501961" points="77.373512,583.267692,32.405268,487.067004,22.028619,610.692456,165.952686,599.839703" />
<polygon fill="#000000" fill-opacity="0.501961" points="1114.047940,524.125775,828.576428,578.558599,534.341484,629.384202,1215.000000,630.688780" />
<polygon fill="#000000" fill-opacity="0.501961" points="600.769845,172.923868,600.325932,175.507644,579.071498,-5.345810,549.191589,118.239625" />
<polygon fill="#79eaad" fill-opacity="0.501961" points="460.536981,185.703223,439.312268,273.420907,412.713564,298.424933,349.949488,241.113580" />
<polygon fill="#000109" fill-opacity="0.501961" points="-16.000000,284.044296,77.919583,590.500979,404.364695,390.375562,228.731158,378.390889" />
<polygon fill="#507c64" fill-opacity="0.501961" points="16.086479,111.313715,53.741316,209.386438,194.077074,134.550113,408.005426,-16.000000" />
<polygon fill="#51cc8b" fill-opacity="0.501961" points="149.973679,226.986084,165.991757,182.972817,221.527494,141.234538,239.994302,209.597141" />
<polygon fill="#c72776" fill-opacity="0.501961" points="1086.704110,150.081064,976.336696,197.225864,1016.123839,268.271353,1126.571121,316.179116" />
<polygon fill="#925672" fill-opacity="0.501961" points="120.737457,645.000000,138.240144,612.616904,182.966803,525.289043,105.783362,580.297853" />
<polygon fill="#000406" fill-opacity="0.501961" points="1084.375864,292.827265,953.028061,386.057138,1039.089037,347.151163,1052.475032,645.000000" />
<polygon fill="#00050e" fill-opacity="0.501961" points="719.517428,167.493520,917.399025,393.272131,1046.285059,301.448339,941.142119,183.216565" />
<polygon fill="#980d53" fill-opacity="0.501961" points="450.454775,70.794051,329.724525,113.014689,291.774270,99.204555,362.453489,-2.247209" />
<polygon fill="#b01c65" fill-opacity="0.501961" points="953.479605,558.921236,1033.565048,483.418305,1045.475623,374.080989,840.272558,563.043698" />
<polygon fill="#5bb185" fill-opacity="0.501961" points="1146.243265,536.302775,1018.755461,510.039299,1013.931168,499.264168,1104.074606,517.936591" />
<polygon fill="#000001" fill-opacity="0.501961" points="93.844071,264.520268,221.447650,129.063999,194.571345,137.916284,20.127918,228.586129" />
<polygon fill="#912851" fill-opacity="0.501961" points="536.392224,28.037462,810.601993,47.874201,767.217907,-16.000000,546.840557,-13.910223" />
<polygon fill="#79e9ad" fill-opacity="0.501961" points="405.634603,319.201215,329.081492,364.717968,321.348425,361.684114,329.241951,287.634481" />
<polygon fill="#080a14" fill-opacity="0.501961" points="242.579091,449.001352,897.344326,627.605224,497.000770,186.606827,419.322610,301.381212" />
<polygon fill="#000002" fill-opacity="0.501961" points="542.610513,136.292329,579.636888,174.127651,462.120979,216.302833,449.368692,154.078853" />
<polygon fill="#5dcb91" fill-opacity="0.501961" points="281.259243,107.063094,253.841834,152.118942,287.290132,178.145266,323.181433,118.921658" />
<polygon fill="#f91988" fill-opacity="0.501961" points="299.683062,198.424283,348.262561,229.067248,350.606002,250.004790,431.592068,186.797631" />
<polygon fill="#e62e8c" fill-opacity="0.501961" points="521.254663,97.255309,352.954529,176.141764,540.508515,130.060219,559.922344,64.098686" />
<polygon fill="#901c55" fill-opacity="0.501961" points="1215.000000,374.176009,1215.000000,184.190631,1107.210647,161.503607,1024.947923,168.035321" />
<polygon fill="#1c402a" fill-opacity="0.501961" points="1.802666,115.547004,-16.000000,-11.320574,269.738866,-0.841598,89.936281,42.578796" />
<polygon fill="#000005" fill-opacity="0.501961" points="978.816275,541.337888,1014.891067,507.429808,1215.000000,592.178835,749.988470,645.000000" />
<polygon fill="#d6267c" fill-opacity="0.501961" points="1025.427074,348.638380,1043.740002,398.146507,1040.463842,446.111120,874.574512,442.900888" />
<polygon fill="#8d2a5d" fill-opacity="0.501961" points="1197.840606,91.231991,1134.025993,65.292698,1123.771825,72.458310,1215.000000,109.892725" />
<polygon fill="#000209" fill-opacity="0.501961" points="1215.000000,406.419377,1123.078457,548.193923,1068.463184,304.343677,1169.977649,313.141711" />
<polygon fill="#73a589" fill-opacity="0.501961" points="145.109019,330.867921,130.888818,267.114932,147.536067,213.544290,193.473750,369.039958" />
<polygon fill="#628672" fill-opacity="0.501961" points="42.792101,180.612682,122.577100,100.020719,193.401754,134.096146,78.334810,198.376127" />
<polygon fill="#000000" fill-opacity="0.501961" points="-4.140305,325.075412,22.982544,384.810466,43.905264,451.967604,0.635917,625.809264" />
<polygon fill="#080913" fill-opacity="0.501961" points="825.183329,161.527999,805.408959,608.620747,421.002807,295.317171,613.942454,180.247342" />
<polygon fill="#386c52" fill-opacity="0.501961" points="213.164849,36.428083,362.983126,-5.406830,273.374624,132.614821,100.391504,65.669911" />
<polygon fill="#d6297f" fill-opacity="0.501961" points="207.828078,135.718461,343.509236,206.316856,316.121797,387.128854,210.105345,120.469055" />
<polygon fill="#000001" fill-opacity="0.501961" points="1046.857286,167.282702,1215.000000,92.784524,1199.961072,178.115199,1082.553265,158.736418" />
<polygon fill="#000009" fill-opacity="0.501961" points="545.851294,121.502220,585.614012,-16.000000,583.043432,17.476694,596.395017,163.985739" />
<polygon fill="#03060d" fill-opacity="0.501961" points="1013.102291,609.088578,133.555277,645.000000,134.000500,620.323918,269.949253,374.469151" />
<polygon fill="#af4272" fill-opacity="0.501961" points="817.638477,111.873059,770.244506,-15.272377,581.288307,49.587989,774.281368,123.067082" />
<polygon fill="#02060e" fill-opacity="0.501961" points="785.983833,551.695235,881.199120,437.307539,889.645539,423.491283,830.738413,295.488263" />
<polygon fill="#000002" fill-opacity="0.501961" points="972.755285,-16.000000,1198.072624,92.572521,1215.000000,-2.565992,1011.463980,-0.662471" />
<polygon fill="#02060e" fill-opacity="0.501961" points="319.176844,447.487793,155.746028,342.798537,78.868108,194.657986,-16.000000,430.947542" />
<polygon fill="#00030a" fill-opacity="0.501961" points="1037.748464,503.434306,1042.721399,399.703704,1025.047668,333.010412,1215.000000,451.498128" />
<polygon fill="#a72064" fill-opacity="0.501961" points="1040.961298,460.692306,977.817797,542.843738,878.476332,568.108933,794.545224,531.578730" />
<polygon fill="#76c79c" fill-opacity="0.501961" points="457.978686,189.793008,359.463284,175.490384,422.179825,158.278760,451.735060,162.015412" />
<polygon fill="#529c77" fill-opacity="0.501961" points="523.314304,87.525710,538.814766,43.833162,452.657764,65.732947,507.675170,114.118074" />
<polygon fill="#113526" fill-opacity="0.501961" points="786.802436,14.675993,1052.966110,145.688129,1141.405022,136.851770,1116.045888,-9.204877" />
<polygon fill="#00090b" fill-opacity="0.501961" points="1112.084040,304.804421,1054.052230,338.103941,952.234447,388.186803,1037.715722,326.283797" />
<polygon fill="#010610" fill-opacity="0.501961" points="458.812833,259.412794,456.548329,176.304834,444.418063,154.689297,541.401998,129.370404" />
<polygon fill="#01050a" fill-opacity="0.501961" points="962.611906,149.688245,983.336619,236.388292,1056.358565,294.703507,958.752470,359.383038" />
<polygon fill="#ca287a" fill-opacity="0.501961" points="1076.638292,299.635988,1015.971659,172.503019,975.383732,211.496991,1003.192216,255.446083" />
<polygon fill="#426d57" fill-opacity="0.501961" points="574.402259,-14.908807,464.213706,-16.000000,348.076024,-5.815211,440.881757,61.755114" />
<polygon fill="#000003" fill-opacity="0.501961" points="46.731648,194.002050,-15.793805,74.123138,4.048707,310.184588,60.944759,222.220581" />
<polygon fill="#f13491" fill-opacity="0.501961" points="345.910632,238.870651,308.036296,286.189426,374.852658,300.506178,431.481664,317.722891" />
<polygon fill="#00020b" fill-opacity="0.501961" points="113.722438,299.985064,71.384730,200.893828,180.257020,144.998437,143.963220,225.520635" />
<polygon fill="#84be9d" fill-opacity="0.501961" points="241.933879,319.089730,278.556059,295.393801,309.047573,372.903243,253.518059,375.070468" />
<polygon fill="#8ecdac" fill-opacity="0.501961" points="459.128954,185.875371,412.908461,306.671386,448.210567,258.416121,453.985996,236.862504" />
<polygon fill="#f3004d" fill-opacity="0.501961" points="535.320261,104.796617,555.004111,146.413216,596.958479,188.843478,601.753800,176.105727" />
<polygon fill="#dd257d" fill-opacity="0.501961" points="232.352235,281.451341,192.129357,350.995733,286.117825,292.440292,241.313515,208.191803" />
<polygon fill="#d5287f" fill-opacity="0.501961" points="803.267031,534.268408,972.218985,429.711077,909.554202,406.025307,847.654208,476.165484" />
<polygon fill="#970855" fill-opacity="0.501961" points="545.604083,-5.736653,583.685956,-16.000000,567.566184,45.806978,532.870424,75.118212" />
<polygon fill="#00000c" fill-opacity="0.501961" points="913.484659,169.806341,1051.809561,149.064739,985.362286,191.179014,966.560759,246.495773" />
<polygon fill="#ce2078" fill-opacity="0.501961" points="296.822993,91.297527,374.060107,170.157233,548.779161,114.864285,311.649177,70.891366" />
<polygon fill="#ab4979" fill-opacity="0.501961" points="1192.367454,356.350869,1215.000000,396.331744,1215.000000,361.942415,1169.679593,301.100992" />
<polygon fill="#a92165" fill-opacity="0.501961" points="1043.389894,164.678867,1003.476369,177.359902,1139.198441,314.385766,1143.033847,165.603452" />
<polygon fill="#caacbb" fill-opacity="0.501961" points="889.833680,412.381123,889.410395,420.826608,937.378256,400.019444,1080.053454,281.293522" />
<polygon fill="#e25c9f" fill-opacity="0.501961" points="818.488300,145.018935,591.436727,110.503188,628.680267,178.256628,791.494992,160.483487" />
<polygon fill="#51a87d" fill-opacity="0.501961" points="1075.730237,144.778799,1088.175862,159.870617,1078.310350,165.158544,1063.084555,145.031904" />
<polygon fill="#000000" fill-opacity="0.501961" points="287.654416,103.067371,297.956946,92.551818,307.812150,106.247218,282.258321,105.210401" />
</g>
</svg>