<svg xmlns="http://www.w3.org/2000/svg" version="1.1" width="1200" height="630">
<rect x="0" y="0" width="1200" height="630" fill="#2a2735" />
<g transform="scale(1.000000) translate(0.5 0.5)">
<g transform="translate(1100.575703 291.339532) rotate(201.028478) scale(108.237686 91.227657)"><ellipse fill="#abff1d" fill-opacity="0.501961" cx="0" cy="0" rx="1" ry="1" /></g>
<g transform="translate(488.126716 593.571608) rotate(170.692225) scale(108.626832 69.067321)"><ellipse fill="#d7ff5b" fill-opacity="0.501961" cx="0" cy="0" rx="1" ry="1" /></g>
<g transform="translate(180.475083 249.069274) rotate(46.697867) scale(241.333737 99.153073)"><ellipse fill="#8d1d99" fill-opacity="0.501961" cx="0" cy="0" rx="1" ry="1" /></g>
<g transform="translate(822.378147 351.701298) rotate(216.953728) scale(78.758723 42.747838)"><ellipse fill="#b700a3" fill-opacity="0.501961" cx="0" cy="0" rx="1" ry="1" /></g>
<g transform="translate(302.190681 256.052565) rotate(379.006216) scale(53.715459 105.835669)"><ellipse fill="#920089" fill-opacity="0.501961" cx="0" cy="0" rx="1" ry="1" /></g>
<g transform="translate(229.853519 383.067206) rotate(284.645717) scale(24.850532 75.479799)"><ellipse fill="#c460df" fill-opacity="0.501961" cx="0" cy="0" rx="1" ry="1" /></g>
<g transform="translate(975.510771 396.856774) rotate(206.200064) scale(6.727138 175.944477)"><ellipse fill="#b3ff17" fill-opacity="0.501961" cx="0" cy="0" rx="1" ry="1" /></g>
<g transform="translate(949.333070 226.036701) rotate(134.111460) scale(8.069497 81.355785)"><ellipse fill="#caff19" fill-opacity="0.501961" cx="0" cy="0" rx="1" ry="1" /></g>
<g transform="translate(10.598024 279.291809) rotate(328.165491) scale(14.891063 101.266620)"><ellipse fill="#b1ed48" fill-opacity="0.501961" cx="0" cy="0" rx="1" ry="1" /></g>
<g transform="translate(145.515505 134.220367) rotate(459.721167) scale(127.143681 40.153571)"><ellipse fill="#843c95" fill-opacity="0.501961" cx="0" cy="0" rx="1" ry="1" /></g>
<g transform="translate(228.508597 163.952307) rotate(341.524716) scale(47.104108 58.503542)"><ellipse fill="#000c12" fill-opacity="0.501961" cx="0" cy="0" rx="1" ry="1" /></g>
<g transform="translate(96.528080 294.515468) rotate(198.232839) scale(61.988792 49.568239)"><ellipse fill="#04240c" fill-opacity="0.501961" cx="0" cy="0" rx="1" ry="1" /></g>
<g transform="translate(828.074680 466.405814) rotate(225.333338) scale(79.098561 6.951259)"><ellipse fill="#c6ff64" fill-opacity="0.501961" cx="0" cy="0" rx="1" ry="1" /></g>
<g transform="translate(1000.993148 60.469480) rotate(99.805098) scale(139.260003 292.616998)"><ellipse fill="#00060c" fill-opacity="0.501961" cx="0" cy="0" rx="1" ry="1" /></g>
<g transform="translate(95.023754 532.941327) rotate(156.317208) scale(136.088105 177.813822)"><ellipse fill="#000006" fill-opacity="0.501961" cx="0" cy="0" rx="1" ry="1" /></g>
<g transform="translate(1148.783086 238.167384) rotate(180.480715) scale(149.129627 34.689010)"><ellipse fill="#7db537" fill-opacity="0.501961" cx="0" cy="0" rx="1" ry="1" /></g>
<g transform="translate(1192.539213 375.875621) rotate(154.894694) scale(20.273645 73.495540)"><ellipse fill="#020029" fill-opacity="0.501961" cx="0" cy="0" rx="1" ry="1" /></g>
<g transform="translate(390.080640 442.385265) rotate(129.188933) scale(6.387521 141.512738)"><ellipse fill="#dc64fb" fill-opacity="0.501961" cx="0" cy="0" rx="1" ry="1" /></g>
<g transform="translate(308.093980 43.419677) rotate(102.856567) scale(109.020396 114.332291)"><ellipse fill="#000713" fill-opacity="0.501961" cx="0" cy="0" rx="1" ry="1" /></g>
<g transform="translate(957.800855 629.000000) rotate(85.184454) scale(90.358712 347.398378)"><ellipse fill="#05010c" fill-opacity="0.501961" cx="0" cy="0" rx="1" ry="1" /></g>
<g transform="translate(1123.034629 459.538744) rotate(171.963342) scale(49.879830 62.283071)"><ellipse fill="#620057" fill-opacity="0.501961" cx="0" cy="0" rx="1" ry="1" /></g>
<g transform="translate(260.025564 471.190413) rotate(289.901049) scale(92.043378 5.154557)"><ellipse fill="#d591d8" fill-opacity="0.501961" cx="0" cy="0" rx="1" ry="1" /></g>
<g transform="translate(345.732676 359.388318) rotate(232.883680) scale(44.875461 34.372197)"><ellipse fill="#00221d" fill-opacity="0.501961" cx="0" cy="0" rx="1" ry="1" /></g>
<g transform="translate(39.783961 199.962609) rotate(192.199188) scale(135.380053 41.920849)"><ellipse fill="#833d95" fill-opacity="0.501961" cx="0" cy="0" rx="1" ry="1" /></g>
<g transform="translate(312.479143 557.558187) rotate(230.471456) scale(65.896737 126.925579)"><ellipse fill="#000b17" fill-opacity="0.501961" cx="0" cy="0" rx="1" ry="1" /></g>
<g transform="translate(857.310083 380.862126) rotate(-10.715240) scale(91.190274 26.031342)"><ellipse fill="#81037b" fill-opacity="0.501961" cx="0" cy="0" rx="1" ry="1" /></g>
<g transform="translate(1056.314415 297.885771) rotate(239.053131) scale(86.305525 38.086896)"><ellipse fill="#8ddb1a" fill-opacity="0.501961" cx="0" cy="0" rx="1" ry="1" /></g>
<g transform="translate(991.427298 521.542720) rotate(255.993057) scale(5.436912 109.683603)"><ellipse fill="#a6e044" fill-opacity="0.501961" cx="0" cy="0" rx="1" ry="1" /></g>
<g transform="translate(106.797828 309.330885) rotate(344.282133) scale(4.049207 68.644980)"><ellipse fill="#a4ff15" fill-opacity="0.501961" cx="0" cy="0" rx="1" ry="1" /></g>
<g transform="translate(1028.341828 340.225245) rotate(236.061507) scale(80.126215 10.266656)"><ellipse fill="#070033" fill-opacity="0.501961" cx="0" cy="0" rx="1" ry="1" /></g>
<g transform="translate(136.346723 345.821530) rotate(132.035666) scale(29.324968 7.063232)"><ellipse fill="#beff47" fill-opacity="0.501961" cx="0" cy="0" rx="1" ry="1" /></g>
<g transform="translate(1079.409126 388.282685) rotate(56.337803) scale(26.953880 7.278055)"><ellipse fill="#bff35a" fill-opacity="0.501961" cx="0" cy="0" rx="1" ry="1" /></g>
<g transform="translate(208.854160 315.024156) rotate(203.751806) scale(83.259430 38.290772)"><ellipse fill="#700068" fill-opacity="0.501961" cx="0" cy="0" rx="1" ry="1" /></g>
<g transform="translate(495.516375 551.177072) rotate(266.783143) scale(24.259975 74.121461)"><ellipse fill="#a3de5a" fill-opacity="0.501961" cx="0" cy="0" rx="1" ry="1" /></g>
<g transform="translate(571.227674 226.288607) rotate(184.651935) scale(208.203911 302.969518)"><ellipse fill="#071d33" fill-opacity="0.501961" cx="0" cy="0" rx="1" ry="1" /></g>
<g transform="translate(781.184342 297.497380) rotate(313.615995) scale(17.411066 40.960065)"><ellipse fill="#a10b8d" fill-opacity="0.501961" cx="0" cy="0" rx="1" ry="1" /></g>
<g transform="translate(285.823908 398.344386) rotate(313.506601) scale(12.981058 61.185684)"><ellipse fill="#b453cf" fill-opacity="0.501961" cx="0" cy="0" rx="1" ry="1" /></g>
<g transform="translate(194.162869 235.346291) rotate(-57.807533) scale(20.280516 23.737270)"><ellipse fill="#001108" fill-opacity="0.501961" cx="0" cy="0" rx="1" ry="1" /></g>
<g transform="translate(1142.987992 481.336198) rotate(244.590666) scale(92.457050 55.243060)"><ellipse fill="#450040" fill-opacity="0.501961" cx="0" cy="0" rx="1" ry="1" /></g>
<g transform="translate(722.522228 535.363283) rotate(75.653303) scale(83.372567 129.337740)"><ellipse fill="#0a162a" fill-opacity="0.501961" cx="0" cy="0" rx="1" ry="1" /></g>
<g transform="translate(64.109000 92.119427) rotate(53.026389) scale(54.076225 162.141981)"><ellipse fill="#481c50" fill-opacity="0.501961" cx="0" cy="0" rx="1" ry="1" /></g>
<g transform="translate(1165.213914 606.238908) rotate(52.344703) scale(25.152379 143.847768)"><ellipse fill="#355c00" fill-opacity="0.501961" cx="0" cy="0" rx="1" ry="1" /></g>
<g transform="translate(1125.948998 39.780414) rotate(296.101754) scale(67.224311 206.439542)"><ellipse fill="#000408" fill-opacity="0.501961" cx="0" cy="0" rx="1" ry="1" /></g>
<g transform="translate(1112.624412 370.748676) rotate(105.622085) scale(20.542588 38.042991)"><ellipse fill="#78bc14" fill-opacity="0.501961" cx="0" cy="0" rx="1" ry="1" /></g>
<g transform="translate(1002.159430 463.771693) rotate(132.124632) scale(50.816263 48.658479)"><ellipse fill="#00101d" fill-opacity="0.501961" cx="0" cy="0" rx="1" ry="1" /></g>
<g transform="translate(296.028505 363.464320) rotate(200.523750) scale(6.079399 26.335897)"><ellipse fill="#ddb7de" fill-opacity="0.501961" cx="0" cy="0" rx="1" ry="1" /></g>
<g transform="translate(323.475906 253.366389) rotate(11.411544) scale(37.081357 75.443532)"><ellipse fill="#780078" fill-opacity="0.501961" cx="0" cy="0" rx="1" ry="1" /></g>
<g transform="translate(328.331744 411.865370) rotate(313.530880) scale(9.956734 44.095482)"><ellipse fill="#00231c" fill-opacity="0.501961" cx="0" cy="0" rx="1" ry="1" /></g>
<g transform="translate(409.195691 614.804179) rotate(281.203898) scale(50.418440 39.534581)"><ellipse fill="#719f3b" fill-opacity="0.501961" cx="0" cy="0" rx="1" ry="1" /></g>
<g transform="translate(875.763647 513.474619) rotate(135.887982) scale(5.788638 46.593389)"><ellipse fill="#94d747" fill-opacity="0.501961" cx="0" cy="0" rx="1" ry="1" /></g>
<g transform="translate(1199.000000 209.667352) rotate(279.283614) scale(121.022999 14.424572)"><ellipse fill="#63823e" fill-opacity="0.501961" cx="0" cy="0" rx="1" ry="1" /></g>
<g transform="translate(194.466185 92.198003) rotate(267.434986) scale(29.864075 6.273593)"><ellipse fill="#7cc40a" fill-opacity="0.501961" cx="0" cy="0" rx="1" ry="1" /></g>
<g transform="translate(708.698945 602.662731) rotate(270.848610) scale(6.494332 115.051052)"><ellipse fill="#6a0060" fill-opacity="0.501961" cx="0" cy="0" rx="1" ry="1" /></g>
<g transform="translate(159.631365 372.993579) rotate(288.949273) scale(10.342426 34.056231)"><ellipse fill="#9e38a2" fill-opacity="0.501961" cx="0" cy="0" rx="1" ry="1" /></g>
<g transform="translate(808.453690 384.275891) rotate(316.846866) scale(42.935415 2.953303)"><ellipse fill="#a5c93d" fill-opacity="0.501961" cx="0" cy="0" rx="1" ry="1" /></g>
<g transform="translate(220.506791 213.796067) rotate(54.392458) scale(84.799123 7.318171)"><ellipse fill="#78006f" fill-opacity="0.501961" cx="0" cy="0" rx="1" ry="1" /></g>
<g transform="translate(1176.993836 382.219331) rotate(363.544640) scale(19.141592 55.777676)"><ellipse fill="#0c001f" fill-opacity="0.501961" cx="0" cy="0" rx="1" ry="1" /></g>
<g transform="translate(480.787669 0.000000) rotate(92.894767) scale(101.950855 290.529421)"><ellipse fill="#0b111b" fill-opacity="0.501961" cx="0" cy="0" rx="1" ry="1" /></g>
<g transform="translate(987.080776 370.815451) rotate(205.264415) scale(6.015728 84.955587)"><ellipse fill="#96ea25" fill-opacity="0.501961" cx="0" cy="0" rx="1" ry="1" /></g>
<g transform="translate(235.613103 281.630322) rotate(338.790428) scale(95.690332 44.154398)"><ellipse fill="#660064" fill-opacity="0.501961" cx="0" cy="0" rx="1" ry="1" /></g>
<g transform="translate(844.416990 202.078674) rotate(418.046716) scale(208.114096 56.792072)"><ellipse fill="#112432" fill-opacity="0.501961" cx="0" cy="0" rx="1" ry="1" /></g>
<g transform="translate(79.694873 595.767731) rotate(-83.946062) scale(77.045539 290.044514)"><ellipse fill="#020a11" fill-opacity="0.501961" cx="0" cy="0" rx="1" ry="1" /></g>
<g transform="translate(896.273976 138.744180) rotate(144.153802) scale(108.132460 6.720685)"><ellipse fill="#40632d" fill-opacity="0.501961" cx="0" cy="0" rx="1" ry="1" /></g>
<g transform="translate(359.098547 182.088696) rotate(104.464560) scale(12.096616 5.709015)"><ellipse fill="#dbb5e3" fill-opacity="0.501961" cx="0" cy="0" rx="1" ry="1" /></g>
<g transform="translate(159.423772 350.805905) rotate(296.628367) scale(17.921154 13.051744)"><ellipse fill="#001f0b" fill-opacity="0.501961" cx="0" cy="0" rx="1" ry="1" /></g>
<g transform="translate(216.735089 430.378834) rotate(196.870825) scale(43.144049 28.531271)"><ellipse fill="#011626" fill-opacity="0.501961" cx="0" cy="0" rx="1" ry="1" /></g>
<g transform="translate(820.091942 206.005829) rotate(126.812875) scale(42.936081 3.970394)"><ellipse fill="#6ca22d" fill-opacity="0.501961" cx="0" cy="0" rx="1" ry="1" /></g>
<g transform="translate(926.638099 206.125901) rotate(221.088873) scale(42.179455 7.216609)"><ellipse fill="#97fc24" fill-opacity="0.501961" cx="0" cy="0" rx="1" ry="1" /></g>
<g transform="translate(903.134556 413.080819) rotate(181.173412) scale(54.729900 16.678648)"><ellipse fill="#021a2c" fill-opacity="0.501961" cx="0" cy="0" rx="1" ry="1" /></g>
<g transform="translate(17.513128 355.372976) rotate(135.709849) scale(25.483355 66.127850)"><ellipse fill="#000f1b" fill-opacity="0.501961" cx="0" cy="0" rx="1" ry="1" /></g>
<g transform="translate(986.426351 262.664294) rotate(133.488772) scale(8.349225 46.760161)"><ellipse fill="#8ae324" fill-opacity="0.501961" cx="0" cy="0" rx="1" ry="1" /></g>
<g transform="translate(1178.277243 237.674101) rotate(94.046472) scale(36.477706 72.163140)"><ellipse fill="#638042" fill-opacity="0.501961" cx="0" cy="0" rx="1" ry="1" /></g>
<g transform="translate(931.964682 361.994654) rotate(88.571941) scale(4.204852 61.482885)"><ellipse fill="#9b0086" fill-opacity="0.501961" cx="0" cy="0" rx="1" ry="1" /></g>
<g transform="translate(221.580602 167.277299) rotate(-32.298483) scale(22.981759 63.437486)"><ellipse fill="#041e21" fill-opacity="0.501961" cx="0" cy="0" rx="1" ry="1" /></g>
<g transform="translate(816.997450 386.249764) rotate(53.692974) scale(28.673833 3.332135)"><ellipse fill="#96be37" fill-opacity="0.501961" cx="0" cy="0" rx="1" ry="1" /></g>
<g transform="translate(731.621067 482.548476) rotate(301.347777) scale(50.221739 2.408774)"><ellipse fill="#8cd72a" fill-opacity="0.501961" cx="0" cy="0" rx="1" ry="1" /></g>
<g transform="translate(66.732155 366.591019) rotate(327.204113) scale(4.960387 24.825277)"><ellipse fill="#89b450" fill-opacity="0.501961" cx="0" cy="0" rx="1" ry="1" /></g>
<g transform="translate(903.166506 465.003299) rotate(305.729410) scale(2.747012 67.596356)"><ellipse fill="#69b11e" fill-opacity="0.501961" cx="0" cy="0" rx="1" ry="1" /></g>
<g transform="translate(1195.194959 449.670058) rotate(135.599377) scale(8.172544 18.181870)"><ellipse fill="#72be00" fill-opacity="0.501961" cx="0" cy="0" rx="1" ry="1" /></g>
<g transform="translate(871.252067 345.517642) rotate(161.595306) scale(43.574487 3.618925)"><ellipse fill="#848e42" fill-opacity="0.501961" cx="0" cy="0" rx="1" ry="1" /></g>
<g transform="translate(791.635104 339.107702) rotate(250.525953) scale(27.381876 1.879611)"><ellipse fill="#aefa2e" fill-opacity="0.501961" cx="0" cy="0" rx="1" ry="1" /></g>
<g transform="translate(33.496346 28.477658) rotate(38.743352) scale(46.286982 124.196261)"><ellipse fill="#2b092e" fill-opacity="0.501961" cx="0" cy="0" rx="1" ry="1" /></g>
<g transform="translate(1113.491868 304.204788) rotate(144.028345) scale(29.248715 75.629172)"><ellipse fill="#75b415" fill-opacity="0.501961" cx="0" cy="0" rx="1" ry="1" /></g>
<g transform="translate(882.052134 603.127241) rotate(180.533854) scale(114.735055 5.450564)"><ellipse fill="#5a0057" fill-opacity="0.501961" cx="0" cy="0" rx="1" ry="1" /></g>
<g transform="translate(165.365873 227.002696) rotate(365.976086) scale(8.487291 40.168520)"><ellipse fill="#9d4db5" fill-opacity="0.501961" cx="0" cy="0" rx="1" ry="1" /></g>
<g transform="translate(275.442558 408.664638) rotate(116.334225) scale(11.499023 71.134566)"><ellipse fill="#a04ab8" fill-opacity="0.501961" cx="0" cy="0" rx="1" ry="1" /></g>
<g transform="translate(608.009784 618.678409) rotate(310.429518) scale(6.386562 28.525114)"><ellipse fill="#92429a" fill-opacity="0.501961" cx="0" cy="0" rx="1" ry="1" /></g>
<g transform="translate(779.175126 375.326447) rotate(77.521752) scale(50.340542 6.436904)"><ellipse fill="#91028a" fill-opacity="0.501961" cx="0" cy="0" rx="1" ry="1" /></g>
<g transform="translate(125.690706 264.989226) rotate(263.973116) scale(12.953010 27.287695)"><ellipse fill="#001616" fill-opacity="0.501961" cx="0" cy="0" rx="1" ry="1" /></g>
<g transform="translate(945.020508 347.230365) rotate(202.381065) scale(31.731247 3.286601)"><ellipse fill="#75ae29" fill-opacity="0.501961" cx="0" cy="0" rx="1" ry="1" /></g>
<g transform="translate(61.561793 273.369857) rotate(203.290541) scale(32.649646 29.808109)"><ellipse fill="#000c1e" fill-opacity="0.501961" cx="0" cy="0" rx="1" ry="1" /></g>
<g transform="translate(1038.844352 237.231890) rotate(294.528042) scale(25.004061 31.965364)"><ellipse fill="#80c01b" fill-opacity="0.501961" cx="0" cy="0" rx="1" ry="1" /></g>
<g transform="translate(552.896691 589.617406) rotate(169.994418) scale(42.130971 47.131681)"><ellipse fill="#85b649" fill-opacity="0.501961" cx="0" cy="0" rx="1" ry="1" /></g>
<g transform="translate(1028.702956 363.093144) rotate(270.958585) scale(5.905162 35.665244)"><ellipse fill="#800075" fill-opacity="0.501961" cx="0" cy="0" rx="1" ry="1" /></g>
<g transform="translate(787.351257 267.325036) rotate(13.676961) scale(2.083627 27.258302)"><ellipse fill="#9aeb31" fill-opacity="0.501961" cx="0" cy="0" rx="1" ry="1" /></g>
<g transform="translate(84.219714 156.887012) rotate(322.186977) scale(126.148296 46.262590)"><ellipse fill="#673175" fill-opacity="0.501961" cx="0" cy="0" rx="1" ry="1" /></g>
<g transform="translate(722.943862 236.862124) rotate(151.159384) scale(9.102592 63.484253)"><ellipse fill="#3a5738" fill-opacity="0.501961" cx="0" cy="0" rx="1" ry="1" /></g>
<g transform="translate(1032.631102 190.200393) rotate(267.499758) scale(21.613680 103.827085)"><ellipse fill="#0c192e" fill-opacity="0.501961" cx="0" cy="0" rx="1" ry="1" /></g>
<g transform="translate(300.549872 464.520711) rotate(156.512154) scale(32.340144 34.070744)"><ellipse fill="#05182a" fill-opacity="0.501961" cx="0" cy="0" rx="1" ry="1" /></g>
<g transform="translate(1053.762018 539.770181) rotate(328.241152) scale(45.009000 26.487161)"><ellipse fill="#010c16" fill-opacity="0.501961" cx="0" cy="0" rx="1" ry="1" /></g>
</g>
</svg>