<svg xmlns="http://www.w3.org/2000/svg" version="1.1" width="1200" height="630">
<rect x="0" y="0" width="1200" height="630" fill="#292633" />
<g transform="scale(1.000000) translate(0.5 0.5)">
<path stroke="#ffffff" stroke-opacity="0.501961" fill="none" d="M 672.423313 11.757719 Q 722.130731 380.104163, 1015.962715 162.380983" stroke-width="0.500000" />
<path stroke="#ffffff" stroke-opacity="0.501961" fill="none" d="M 1015.220372 171.140791 Q 673.227118 357.218490, 669.985689 -13.034415" stroke-width="0.500000" />
<path stroke="#ffffff" stroke-opacity="0.501961" fill="none" d="M 1002.030822 183.556240 Q 691.716380 339.922074, 683.615231 0.798686" stroke-width="0.500000" />
<path stroke="#ffffff" stroke-opacity="0.501961" fill="none" d="M 1016.234465 192.684178 Q 649.632174 302.148275, 681.718064 3.403066" stroke-width="0.500000" />
<path stroke="#ffffff" stroke-opacity="0.501961" fill="none" d="M 682.578805 86.990741 Q 737.772337 348.327412, 1008.367678 160.837711" stroke-width="0.500000" />
<path stroke="#ffffff" stroke-opacity="0.501961" fill="none" d="M 1020.146826 187.826316 Q 714.004012 295.269637, 674.805562 20.871113" stroke-width="0.500000" />
<path stroke="#ffffff" stroke-opacity="0.501961" fill="none" d="M 668.454828 25.027542 Q 759.580821 371.687160, 1013.427909 135.250913" stroke-width="0.500000" />
<path stroke="#ffffff" stroke-opacity="0.501961" fill="none" d="M 673.833486 164.551566 Q 950.835438 355.689612, 997.435471 63.338062" stroke-width="0.500000" />
<path stroke="#ffffff" stroke-opacity="0.501961" fill="none" d="M 686.137748 -16.000000 Q 676.907729 290.586908, 1016.156918 166.208914" stroke-width="0.500000" />
<path stroke="#ffffff" stroke-opacity="0.501961" fill="none" d="M 1020.024050 185.561782 Q 707.289159 295.174713, 673.206265 4.139670" stroke-width="0.500000" />
<path stroke="#ffffff" stroke-opacity="0.501961" fill="none" d="M 688.446649 -3.588387 Q 717.500483 359.257042, 1015.842911 155.027780" stroke-width="0.500000" />
<path stroke="#ffffff" stroke-opacity="0.501961" fill="none" d="M 1012.579742 153.595326 Q 712.089857 343.915507, 689.282793 -9.546238" stroke-width="0.500000" />
<path stroke="#ffffff" stroke-opacity="0.501961" fill="none" d="M 677.740774 60.474365 Q 769.831564 364.224918, 1004.015399 127.903393" stroke-width="0.500000" />
<path stroke="#ffffff" stroke-opacity="0.501961" fill="none" d="M 685.451723 172.472780 Q 942.121916 367.364306, 991.096773 48.151098" stroke-width="0.500000" />
<path stroke="#ffffff" stroke-opacity="0.501961" fill="none" d="M 1021.837002 196.549876 Q 673.739054 260.061438, 703.087883 0.350203" stroke-width="0.500000" />
<path stroke="#ffffff" stroke-opacity="0.501961" fill="none" d="M 1006.803960 119.919855 Q 785.956944 342.820055, 676.342167 13.110207" stroke-width="0.500000" />
<path stroke="#ffffff" stroke-opacity="0.501961" fill="none" d="M 666.199758 -16.000000 Q 744.425248 335.455713, 1012.620974 145.113777" stroke-width="0.500000" />
<path stroke="#ffffff" stroke-opacity="0.501961" fill="none" d="M 1010.952372 114.757017 Q 766.529738 321.029010, 694.101702 4.680154" stroke-width="0.500000" />
<path stroke="#ffffff" stroke-opacity="0.501961" fill="none" d="M 679.386811 89.703435 Q 817.513007 386.813608, 1005.020109 136.564758" stroke-width="0.500000" />
<path stroke="#ffffff" stroke-opacity="0.501961" fill="none" d="M 1008.422494 145.594930 Q 735.254408 304.058555, 690.367373 -3.297731" stroke-width="0.500000" />
<path stroke="#ffffff" stroke-opacity="0.501961" fill="none" d="M 675.593881 148.095798 Q 904.685535 378.660398, 997.943494 57.813729" stroke-width="0.500000" />
<path stroke="#ffffff" stroke-opacity="0.501961" fill="none" d="M 1015.438687 161.986170 Q 748.838694 344.879714, 669.223730 23.093596" stroke-width="0.500000" />
<path stroke="#ffffff" stroke-opacity="0.501961" fill="none" d="M 697.415810 -16.000000 Q 738.779664 275.957179, 1012.921067 185.795284" stroke-width="0.500000" />
<path stroke="#ffffff" stroke-opacity="0.501961" fill="none" d="M 673.408324 162.889789 Q 946.565149 342.822571, 991.634103 4.926055" stroke-width="0.500000" />
<path stroke="#ffffff" stroke-opacity="0.501961" fill="none" d="M 684.613472 1.964132 Q 653.134330 207.725894, 1021.243171 196.405706" stroke-width="0.500000" />
<path stroke="#ffffff" stroke-opacity="0.501961" fill="none" d="M 1006.706737 130.753598 Q 774.274824 334.588460, 685.146602 20.152503" stroke-width="0.500000" />
<path stroke="#ffffff" stroke-opacity="0.501961" fill="none" d="M 1012.278500 158.662273 Q 673.055609 273.224584, 688.612225 -16.000000" stroke-width="0.500000" />
<path stroke="#ffffff" stroke-opacity="0.501961" fill="none" d="M 1014.232565 160.423699 Q 675.134122 328.363828, 671.379650 -6.442645" stroke-width="0.500000" />
<path stroke="#ffffff" stroke-opacity="0.501961" fill="none" d="M 993.978389 184.530169 Q 676.412160 355.353333, 670.277323 0.153460" stroke-width="0.500000" />
<path stroke="#ffffff" stroke-opacity="0.501961" fill="none" d="M 1004.852103 99.604116 Q 780.271683 309.294690, 707.470111 14.422027" stroke-width="0.500000" />
<path stroke="#fffffe" stroke-opacity="0.501961" fill="none" d="M 690.638734 -8.049029 Q 726.396228 256.502679, 1012.302214 151.118786" stroke-width="0.500000" />
<path stroke="#fffffc" stroke-opacity="0.501961" fill="none" d="M 665.359130 -16.000000 Q 695.854588 325.579602, 1017.046507 164.050445" stroke-width="0.500000" />
<path stroke="#ffffff" stroke-opacity="0.501961" fill="none" d="M 1016.231329 183.021146 Q 772.894616 -16.000000, 699.844437 245.303981" stroke-width="0.500000" />
<path stroke="#ffffff" stroke-opacity="0.501961" fill="none" d="M 701.991397 248.017776 Q 797.571455 -16.000000, 1021.456046 200.645121" stroke-width="0.500000" />
<path stroke="#ffffff" stroke-opacity="0.501961" fill="none" d="M 1012.225682 180.373689 Q 690.351846 310.328392, 711.021667 1.696095" stroke-width="0.500000" />
<path stroke="#ffffff" stroke-opacity="0.501961" fill="none" d="M 1007.337795 147.700316 Q 710.415504 277.975189, 710.981737 9.068512" stroke-width="0.500000" />
<path stroke="#ffffff" stroke-opacity="0.501961" fill="none" d="M 1017.894769 206.299003 Q 802.337291 -16.000000, 704.833857 245.586732" stroke-width="0.500000" />
<path stroke="#ffffff" stroke-opacity="0.501961" fill="none" d="M 705.023213 -16.000000 Q 703.103830 291.902520, 1007.905848 162.383024" stroke-width="0.500000" />
<path stroke="#fffffa" stroke-opacity="0.501961" fill="none" d="M 710.178184 -1.548752 Q 795.423184 303.585143, 1007.140894 113.492998" stroke-width="0.500000" />
<path stroke="#ffffff" stroke-opacity="0.501961" fill="none" d="M 685.459696 156.459948 Q 902.546299 362.455182, 984.892874 68.226026" stroke-width="0.500000" />
<path stroke="#ffffff" stroke-opacity="0.501961" fill="none" d="M 969.415005 180.811839 Q 669.436248 335.869744, 674.331242 17.405835" stroke-width="0.500000" />
<path stroke="#fffff9" stroke-opacity="0.501961" fill="none" d="M 1017.146349 166.788900 Q 748.838338 -16.000000, 698.906190 247.411261" stroke-width="0.500000" />
<path stroke="#ffffff" stroke-opacity="0.501961" fill="none" d="M 984.404747 43.833217 Q 925.356627 333.511589, 674.190460 158.003313" stroke-width="0.500000" />
<path stroke="#ffffff" stroke-opacity="0.501961" fill="none" d="M 857.275993 -5.402861 Q 623.790205 156.635715, 883.867786 288.786063" stroke-width="0.500000" />
<path stroke="#fffffe" stroke-opacity="0.501961" fill="none" d="M 688.229000 181.030187 Q 932.234664 361.353988, 991.054805 43.399694" stroke-width="0.500000" />
<path stroke="#fffff9" stroke-opacity="0.501961" fill="none" d="M 980.619473 17.176492 Q 961.030074 305.791030, 670.731350 159.164296" stroke-width="0.500000" />
<path stroke="#ffffeb" stroke-opacity="0.501961" fill="none" d="M 672.643356 1.249054 Q 815.655834 310.485538, 1015.422508 76.158894" stroke-width="0.500000" />
<path stroke="#fffff3" stroke-opacity="0.501961" fill="none" d="M 632.130480 358.604063 Q 817.711021 -0.921065, 1009.508060 204.998171" stroke-width="0.500000" />
<path stroke="#fffffe" stroke-opacity="0.501961" fill="none" d="M 1018.451569 200.386044 Q 796.623545 -4.205394, 705.403881 247.888187" stroke-width="0.500000" />
<path stroke="#fffff3" stroke-opacity="0.501961" fill="none" d="M 994.977291 113.418653 Q 692.444530 -3.467295, 700.149457 249.397568" stroke-width="0.500000" />
<path stroke="#fffffb" stroke-opacity="0.501961" fill="none" d="M 1016.363982 194.684295 Q 840.864085 -16.000000, 705.377956 247.859273" stroke-width="0.500000" />
<path stroke="#fffff7" stroke-opacity="0.501961" fill="none" d="M 698.743403 236.715995 Q 747.975113 -16.000000, 1015.780182 163.894508" stroke-width="0.500000" />
<path stroke="#fffffe" stroke-opacity="0.501961" fill="none" d="M 993.536407 29.958879 Q 834.919191 330.796986, 690.320588 187.167178" stroke-width="0.500000" />
<path stroke="#fffff7" stroke-opacity="0.501961" fill="none" d="M 1006.032653 109.087804 Q 783.793125 336.199954, 676.934902 24.740177" stroke-width="0.500000" />
<path stroke="#ffffff" stroke-opacity="0.501961" fill="none" d="M 872.114044 -1.292279 Q 647.364034 176.729504, 891.473808 288.806861" stroke-width="0.500000" />
<path stroke="#fffff6" stroke-opacity="0.501961" fill="none" d="M 725.078431 -15.633774 Q 686.664887 258.167566, 1022.131448 177.615650" stroke-width="0.500000" />
<path stroke="#ffffed" stroke-opacity="0.501961" fill="none" d="M 668.045779 -16.000000 Q 813.608648 301.938435, 1008.164986 80.169446" stroke-width="0.500000" />
<path stroke="#fffffa" stroke-opacity="0.501961" fill="none" d="M 1015.795090 206.772606 Q 826.373998 2.204944, 706.790906 251.511206" stroke-width="0.500000" />
<path stroke="#fffce8" stroke-opacity="0.501961" fill="none" d="M 966.767540 9.818009 Q 993.208262 204.805917, 524.250101 287.059323" stroke-width="0.500000" />
<path stroke="#ffffeb" stroke-opacity="0.501961" fill="none" d="M 538.075787 281.146217 Q 995.734648 206.728516, 941.066236 -10.264810" stroke-width="0.500000" />
<path stroke="#fffff6" stroke-opacity="0.501961" fill="none" d="M 710.474126 5.468887 Q 760.547118 303.398021, 1002.278195 118.003423" stroke-width="0.500000" />
<path stroke="#ffffff" stroke-opacity="0.501961" fill="none" d="M 935.360392 211.231134 Q 666.753445 318.002906, 674.495067 -16.000000" stroke-width="0.500000" />
<path stroke="#fffff7" stroke-opacity="0.501961" fill="none" d="M 999.886042 131.203089 Q 752.017694 311.124835, 698.068665 4.244652" stroke-width="0.500000" />
<path stroke="#ffffff" stroke-opacity="0.501961" fill="none" d="M 904.428040 270.431275 Q 606.273352 222.563527, 791.846090 -16.000000" stroke-width="0.500000" />
<path stroke="#ffffff" stroke-opacity="0.501961" fill="none" d="M 906.242594 251.061062 Q 612.698868 257.091811, 705.326341 -5.946974" stroke-width="0.500000" />
<path stroke="#ffffeb" stroke-opacity="0.501961" fill="none" d="M 1009.551490 77.604589 Q 778.291342 288.571445, 709.401176 -16.000000" stroke-width="0.500000" />
<path stroke="#ffffff" stroke-opacity="0.501961" fill="none" d="M 700.192739 250.974371 Q 762.394140 13.028960, 1003.844820 202.583241" stroke-width="0.500000" />
<path stroke="#ffffeb" stroke-opacity="0.501961" fill="none" d="M 1006.107511 100.655333 Q 813.026474 304.569569, 666.664696 -16.000000" stroke-width="0.500000" />
<path stroke="#eee4ec" stroke-opacity="0.501961" fill="none" d="M 520.531933 445.861220 Q 846.220724 21.548030, 1010.455059 203.618001" stroke-width="0.500000" />
<path stroke="#fffffd" stroke-opacity="0.501961" fill="none" d="M 887.344453 285.387904 Q 651.813392 168.716382, 879.620272 0.481097" stroke-width="0.500000" />
<path stroke="#fffff3" stroke-opacity="0.501961" fill="none" d="M 696.226723 232.773175 Q 748.557416 -16.000000, 1010.995828 159.283065" stroke-width="0.500000" />
<path stroke="#fffff5" stroke-opacity="0.501961" fill="none" d="M 679.550052 151.113405 Q 935.436093 337.198273, 976.726143 15.041423" stroke-width="0.500000" />
<path stroke="#ffffe6" stroke-opacity="0.501961" fill="none" d="M 661.944449 -0.105102 Q 990.656516 133.634537, 880.270971 290.850805" stroke-width="0.500000" />
<path stroke="#ffffff" stroke-opacity="0.501961" fill="none" d="M 905.139009 256.544928 Q 604.185042 216.297668, 742.285441 -4.170329" stroke-width="0.500000" />
<path stroke="#ffffff" stroke-opacity="0.501961" fill="none" d="M 707.942905 249.574389 Q 770.576107 38.872039, 1005.901464 205.869822" stroke-width="0.500000" />
<path stroke="#fffff0" stroke-opacity="0.501961" fill="none" d="M 963.475508 0.456927 Q 921.724109 316.393722, 681.096565 148.039093" stroke-width="0.500000" />
<path stroke="#fffff0" stroke-opacity="0.501961" fill="none" d="M 700.764950 244.900438 Q 719.786556 -16.000000, 1006.181991 135.340521" stroke-width="0.500000" />
<path stroke="#fffff3" stroke-opacity="0.501961" fill="none" d="M 1015.614408 154.570843 Q 708.102979 326.290427, 679.585349 0.270248" stroke-width="0.500000" />
<path stroke="#fffff1" stroke-opacity="0.501961" fill="none" d="M 727.513489 -0.878076 Q 685.716169 181.612028, 1014.177847 178.066326" stroke-width="0.500000" />
<path stroke="#ffffed" stroke-opacity="0.501961" fill="none" d="M 699.146485 239.587089 Q 688.452532 -1.691599, 991.302519 100.045487" stroke-width="0.500000" />
<path stroke="#fffffb" stroke-opacity="0.501961" fill="none" d="M 1001.277857 203.782631 Q 645.610151 244.002267, 687.341690 25.337207" stroke-width="0.500000" />
<path stroke="#fffffe" stroke-opacity="0.501961" fill="none" d="M 891.428700 277.164338 Q 613.868424 197.566321, 822.033939 -4.215492" stroke-width="0.500000" />
<path stroke="#fffff6" stroke-opacity="0.501961" fill="none" d="M 1019.028772 203.239358 Q 781.390644 4.634780, 702.013964 244.299851" stroke-width="0.500000" />
<path stroke="#ffffeb" stroke-opacity="0.501961" fill="none" d="M 1008.522729 82.307992 Q 809.021283 299.438758, 706.098554 9.576160" stroke-width="0.500000" />
<path stroke="#fffff4" stroke-opacity="0.501961" fill="none" d="M 895.198473 286.953372 Q 654.366280 163.305084, 886.776980 -0.547381" stroke-width="0.500000" />
<path stroke="#fffff1" stroke-opacity="0.501961" fill="none" d="M 700.819705 248.598859 Q 738.611559 19.375737, 1008.287380 122.714047" stroke-width="0.500000" />
<path stroke="#e9dfe4" stroke-opacity="0.501961" fill="none" d="M 927.844174 1.736593 Q 983.596266 249.011966, 411.631555 279.138654" stroke-width="0.500000" />
<path stroke="#fffff4" stroke-opacity="0.501961" fill="none" d="M 674.771849 39.069491 Q 770.038752 329.711889, 1006.177525 134.880534" stroke-width="0.500000" />
<path stroke="#ffffe3" stroke-opacity="0.501961" fill="none" d="M 1005.498274 98.828700 Q 697.379594 -14.125513, 697.478974 225.359600" stroke-width="0.500000" />
<path stroke="#ffffe5" stroke-opacity="0.501961" fill="none" d="M 716.304078 5.907723 Q 805.788673 293.649523, 1011.765902 76.922722" stroke-width="0.500000" />
<path stroke="#fffff0" stroke-opacity="0.501961" fill="none" d="M 1013.805348 143.611382 Q 777.814561 351.567869, 670.512865 63.087002" stroke-width="0.500000" />
<path stroke="#fffff1" stroke-opacity="0.501961" fill="none" d="M 967.441802 12.850906 Q 911.363787 335.520094, 675.527195 163.357623" stroke-width="0.500000" />
<path stroke="#fffff1" stroke-opacity="0.501961" fill="none" d="M 1002.103832 109.701745 Q 799.783436 310.967668, 683.714860 32.760339" stroke-width="0.500000" />
<path stroke="#fff7e3" stroke-opacity="0.501961" fill="none" d="M 984.012771 16.851027 Q 988.184189 128.844035, 553.472360 311.753109" stroke-width="0.500000" />
<path stroke="#ffffff" stroke-opacity="0.501961" fill="none" d="M 707.029989 12.589913 Q 615.777831 261.945790, 917.699468 235.974984" stroke-width="0.500000" />
<path stroke="#fffff2" stroke-opacity="0.501961" fill="none" d="M 674.087028 38.541948 Q 978.469126 144.593582, 878.483062 291.520756" stroke-width="0.500000" />
<path stroke="#ffffeb" stroke-opacity="0.501961" fill="none" d="M 929.058920 -2.483069 Q 669.415598 97.154441, 886.716212 293.440946" stroke-width="0.500000" />
<path stroke="#ffffde" stroke-opacity="0.501961" fill="none" d="M 668.248502 12.262008 Q 1007.488999 87.937210, 882.351725 293.665141" stroke-width="0.500000" />
<path stroke="#ffffe5" stroke-opacity="0.501961" fill="none" d="M 702.550464 249.636495 Q 701.085680 -4.087067, 1006.052316 108.883919" stroke-width="0.500000" />
<path stroke="#fffffd" stroke-opacity="0.501961" fill="none" d="M 680.034251 148.186271 Q 722.534762 297.925637, 1018.896429 189.901434" stroke-width="0.500000" />
</g>
</svg>