<svg xmlns="http://www.w3.org/2000/svg" version="1.1" width="1200" height="630">
<rect x="0" y="0" width="1200" height="630" fill="#282f30" />
<g transform="scale(1.000000) translate(0.5 0.5)">
<ellipse fill="#ffe34d" fill-opacity="0.501961" cx="368" cy="600" rx="191" ry="235" />
<ellipse fill="#00b5b2" fill-opacity="0.501961" cx="1065" cy="352" rx="85" ry="72" />
<ellipse fill="#ffd95d" fill-opacity="0.501961" cx="365" cy="430" rx="65" ry="91" />
<ellipse fill="#00ffff" fill-opacity="0.501961" cx="816" cy="241" rx="245" ry="7" />
<ellipse fill="#dfa53a" fill-opacity="0.501961" cx="563" cy="622" rx="52" ry="73" />
<ellipse fill="#885e1e" fill-opacity="0.501961" cx="206" cy="600" rx="101" ry="96" />
<ellipse fill="#f3d691" fill-opacity="0.501961" cx="755" cy="319" rx="9" ry="77" />
<ellipse fill="#fdbb4f" fill-opacity="0.501961" cx="448" cy="504" rx="56" ry="69" />
<ellipse fill="#00013a" fill-opacity="0.501961" cx="510" cy="429" rx="43" ry="43" />
<ellipse fill="#000012" fill-opacity="0.501961" cx="1044" cy="574" rx="314" ry="143" />
<ellipse fill="#000016" fill-opacity="0.501961" cx="54" cy="230" rx="197" ry="344" />
<ellipse fill="#000116" fill-opacity="0.501961" cx="1053" cy="29" rx="368" ry="203" />
<ellipse fill="#ffde90" fill-opacity="0.501961" cx="743" cy="421" rx="8" ry="67" />
<ellipse fill="#ffdf8e" fill-opacity="0.501961" cx="773" cy="179" rx="8" ry="63" />
<ellipse fill="#ffdb85" fill-opacity="0.501961" cx="733" cy="506" rx="7" ry="54" />
<ellipse fill="#007d80" fill-opacity="0.501961" cx="1108" cy="291" rx="35" ry="70" />
<ellipse fill="#ffffb1" fill-opacity="0.501961" cx="765" cy="241" rx="5" ry="47" />
<ellipse fill="#00cadb" fill-opacity="0.501961" cx="557" cy="480" rx="55" ry="6" />
<ellipse fill="#000000" fill-opacity="0.501961" cx="37" cy="629" rx="60" ry="143" />
<ellipse fill="#444345" fill-opacity="0.501961" cx="503" cy="381" rx="76" ry="55" />
<ellipse fill="#ffda5a" fill-opacity="0.501961" cx="366" cy="368" rx="25" ry="36" />
<ellipse fill="#041336" fill-opacity="0.501961" cx="237" cy="390" rx="45" ry="48" />
<ellipse fill="#edae49" fill-opacity="0.501961" cx="284" cy="462" rx="38" ry="50" />
<ellipse fill="#00c2c1" fill-opacity="0.501961" cx="1093" cy="237" rx="211" ry="5" />
<ellipse fill="#ebc573" fill-opacity="0.501961" cx="724" cy="563" rx="6" ry="42" />
<ellipse fill="#007f80" fill-opacity="0.501961" cx="1106" cy="410" rx="43" ry="28" />
<ellipse fill="#09ffff" fill-opacity="0.501961" cx="664" cy="246" rx="74" ry="4" />
<ellipse fill="#ffe78b" fill-opacity="0.501961" cx="690" cy="124" rx="4" ry="52" />
<ellipse fill="#e8bc6e" fill-opacity="0.501961" cx="996" cy="362" rx="5" ry="58" />
<ellipse fill="#000521" fill-opacity="0.501961" cx="357" cy="70" rx="113" ry="146" />
<ellipse fill="#dba546" fill-opacity="0.501961" cx="529" cy="554" rx="39" ry="33" />
<ellipse fill="#62481e" fill-opacity="0.501961" cx="277" cy="624" rx="168" ry="36" />
<ellipse fill="#af893c" fill-opacity="0.501961" cx="219" cy="528" rx="63" ry="42" />
<ellipse fill="#ffc94a" fill-opacity="0.501961" cx="494" cy="367" rx="18" ry="11" />
<ellipse fill="#002447" fill-opacity="0.501961" cx="545" cy="475" rx="32" ry="35" />
<ellipse fill="#000013" fill-opacity="0.501961" cx="1173" cy="360" rx="31" ry="76" />
<ellipse fill="#000f32" fill-opacity="0.501961" cx="493" cy="412" rx="38" ry="33" />
<ellipse fill="#9e7c34" fill-opacity="0.501961" cx="548" cy="620" rx="77" ry="54" />
<ellipse fill="#000939" fill-opacity="0.501961" cx="436" cy="368" rx="25" ry="27" />
<ellipse fill="#08163b" fill-opacity="0.501961" cx="786" cy="395" rx="32" ry="120" />
<ellipse fill="#040f2d" fill-opacity="0.501961" cx="550" cy="24" rx="121" ry="236" />
<ellipse fill="#ffee8a" fill-opacity="0.501961" cx="778" cy="140" rx="6" ry="25" />
<ellipse fill="#f8c259" fill-opacity="0.501961" cx="420" cy="444" rx="35" ry="49" />
<ellipse fill="#ffff97" fill-opacity="0.501961" cx="749" cy="371" rx="5" ry="38" />
<ellipse fill="#ffff95" fill-opacity="0.501961" cx="756" cy="314" rx="5" ry="38" />
<ellipse fill="#061234" fill-opacity="0.501961" cx="672" cy="599" rx="49" ry="352" />
<ellipse fill="#07112c" fill-opacity="0.501961" cx="208" cy="436" rx="34" ry="26" />
<ellipse fill="#00002c" fill-opacity="0.501961" cx="749" cy="273" rx="7" ry="28" />
<ellipse fill="#fcc654" fill-opacity="0.501961" cx="907" cy="418" rx="13" ry="8" />
<ellipse fill="#f8c352" fill-opacity="0.501961" cx="930" cy="406" rx="13" ry="8" />
<ellipse fill="#d69f46" fill-opacity="0.501961" cx="980" cy="382" rx="19" ry="9" />
<ellipse fill="#00eeeb" fill-opacity="0.501961" cx="746" cy="242" rx="155" ry="4" />
<ellipse fill="#cd9f45" fill-opacity="0.501961" cx="415" cy="506" rx="105" ry="64" />
<ellipse fill="#edba4f" fill-opacity="0.501961" cx="955" cy="394" rx="14" ry="8" />
<ellipse fill="#1f2333" fill-opacity="0.501961" cx="987" cy="439" rx="61" ry="51" />
<ellipse fill="#061133" fill-opacity="0.501961" cx="280" cy="365" rx="30" ry="35" />
<ellipse fill="#081740" fill-opacity="0.501961" cx="728" cy="352" rx="16" ry="78" />
<ellipse fill="#111c33" fill-opacity="0.501961" cx="773" cy="478" rx="30" ry="91" />
<ellipse fill="#fcbb2f" fill-opacity="0.501961" cx="580" cy="413" rx="14" ry="7" />
<ellipse fill="#febc2f" fill-opacity="0.501961" cx="444" cy="336" rx="11" ry="8" />
<ellipse fill="#010409" fill-opacity="0.501961" cx="1122" cy="30" rx="165" ry="85" />
<ellipse fill="#846c2b" fill-opacity="0.501961" cx="174" cy="561" rx="48" ry="39" />
<ellipse fill="#b07805" fill-opacity="0.501961" cx="240" cy="68" rx="5" ry="54" />
<ellipse fill="#f9b930" fill-opacity="0.501961" cx="420" cy="319" rx="11" ry="8" />
<ellipse fill="#e6c784" fill-opacity="0.501961" cx="684" cy="176" rx="5" ry="18" />
<ellipse fill="#a9af53" fill-opacity="0.501961" cx="347" cy="261" rx="13" ry="12" />
<ellipse fill="#000b28" fill-opacity="0.501961" cx="611" cy="549" rx="30" ry="33" />
<ellipse fill="#ffce2c" fill-opacity="0.501961" cx="402" cy="307" rx="9" ry="7" />
<ellipse fill="#000409" fill-opacity="0.501961" cx="102" cy="5" rx="139" ry="116" />
<ellipse fill="#04a39d" fill-opacity="0.501961" cx="1000" cy="343" rx="36" ry="17" />
<ellipse fill="#000e36" fill-opacity="0.501961" cx="785" cy="207" rx="11" ry="33" />
<ellipse fill="#efb22f" fill-opacity="0.501961" cx="385" cy="295" rx="11" ry="8" />
<ellipse fill="#ffc125" fill-opacity="0.501961" cx="525" cy="385" rx="12" ry="7" />
<ellipse fill="#12263c" fill-opacity="0.501961" cx="227" cy="319" rx="89" ry="112" />
<ellipse fill="#201d30" fill-opacity="0.501961" cx="999" cy="285" rx="53" ry="23" />
<ellipse fill="#0d1937" fill-opacity="0.501961" cx="738" cy="148" rx="32" ry="91" />
<ellipse fill="#0e1a35" fill-opacity="0.501961" cx="943" cy="267" rx="158" ry="24" />
<ellipse fill="#ffe386" fill-opacity="0.501961" cx="738" cy="460" rx="5" ry="35" />
<ellipse fill="#b59e62" fill-opacity="0.501961" cx="1003" cy="433" rx="5" ry="25" />
<ellipse fill="#ffd722" fill-opacity="0.501961" cx="563" cy="405" rx="10" ry="6" />
<ellipse fill="#000307" fill-opacity="0.501961" cx="1150" cy="597" rx="84" ry="109" />
<ellipse fill="#e0a72e" fill-opacity="0.501961" cx="367" cy="279" rx="11" ry="9" />
<ellipse fill="#ffbf25" fill-opacity="0.501961" cx="544" cy="395" rx="12" ry="7" />
<ellipse fill="#ffc926" fill-opacity="0.501961" cx="473" cy="354" rx="10" ry="7" />
<ellipse fill="#06173f" fill-opacity="0.501961" cx="569" cy="366" rx="42" ry="32" />
<ellipse fill="#e8cc90" fill-opacity="0.501961" cx="592" cy="300" rx="9" ry="7" />
<ellipse fill="#0a1b33" fill-opacity="0.501961" cx="514" cy="445" rx="27" ry="32" />
<ellipse fill="#ffee8b" fill-opacity="0.501961" cx="744" cy="408" rx="5" ry="33" />
<ellipse fill="#e8cb8e" fill-opacity="0.501961" cx="558" cy="326" rx="9" ry="7" />
<ellipse fill="#d3b981" fill-opacity="0.501961" cx="676" cy="198" rx="6" ry="14" />
<ellipse fill="#fffa8f" fill-opacity="0.501961" cx="762" cy="273" rx="5" ry="27" />
<ellipse fill="#f9bd52" fill-opacity="0.501961" cx="362" cy="393" rx="48" ry="45" />
<ellipse fill="#cab280" fill-opacity="0.501961" cx="666" cy="218" rx="7" ry="12" />
<ellipse fill="#02133e" fill-opacity="0.501961" cx="406" cy="341" rx="18" ry="24" />
<ellipse fill="#081538" fill-opacity="0.501961" cx="885" cy="357" rx="83" ry="53" />
<ellipse fill="#d5bd88" fill-opacity="0.501961" cx="619" cy="276" rx="9" ry="8" />
<ellipse fill="#13233f" fill-opacity="0.501961" cx="482" cy="204" rx="119" ry="131" />
<ellipse fill="#008789" fill-opacity="0.501961" cx="1038" cy="354" rx="42" ry="53" />
<ellipse fill="#f1d392" fill-opacity="0.501961" cx="606" cy="288" rx="8" ry="7" />
<ellipse fill="#e6ca8d" fill-opacity="0.501961" cx="572" cy="314" rx="9" ry="7" />
</g>
</svg>