<svg xmlns="http://www.w3.org/2000/svg" version="1.1" width="1200" height="630">
<rect x="0" y="0" width="1200" height="630" fill="#25325d" />
<g transform="scale(1.000000) translate(0.5 0.5)">
<ellipse fill="#4b82ff" fill-opacity="0.501961" cx="707" cy="395" rx="206" ry="206" />
<ellipse fill="#a1c5ab" fill-opacity="0.501961" cx="81" cy="193" rx="118" ry="118" />
<ellipse fill="#497bff" fill-opacity="0.501961" cx="821" cy="205" rx="128" ry="128" />
<ellipse fill="#070000" fill-opacity="0.501961" cx="1199" cy="370" rx="305" ry="305" />
<ellipse fill="#000000" fill-opacity="0.501961" cx="0" cy="482" rx="170" ry="170" />
<ellipse fill="#355ed8" fill-opacity="0.501961" cx="238" cy="475" rx="93" ry="93" />
<ellipse fill="#375bd6" fill-opacity="0.501961" cx="672" cy="482" rx="190" ry="190" />
<ellipse fill="#74b1ff" fill-opacity="0.501961" cx="967" cy="217" rx="39" ry="39" />
<ellipse fill="#0e0707" fill-opacity="0.501961" cx="444" cy="0" rx="296" ry="296" />
<ellipse fill="#000000" fill-opacity="0.501961" cx="1083" cy="0" rx="147" ry="147" />
<ellipse fill="#141400" fill-opacity="0.501961" cx="27" cy="0" rx="124" ry="124" />
<ellipse fill="#3158ca" fill-opacity="0.501961" cx="346" cy="540" rx="58" ry="58" />
<ellipse fill="#010000" fill-opacity="0.501961" cx="927" cy="627" rx="98" ry="98" />
<ellipse fill="#4771fd" fill-opacity="0.501961" cx="571" cy="310" rx="61" ry="61" />
<ellipse fill="#010000" fill-opacity="0.501961" cx="891" cy="14" rx="63" ry="63" />
<ellipse fill="#110507" fill-opacity="0.501961" cx="228" cy="276" rx="64" ry="64" />
<ellipse fill="#3b68ec" fill-opacity="0.501961" cx="188" cy="369" rx="42" ry="42" />
<ellipse fill="#1d1016" fill-opacity="0.501961" cx="474" cy="346" rx="58" ry="58" />
<ellipse fill="#080000" fill-opacity="0.501961" cx="769" cy="25" rx="62" ry="62" />
<ellipse fill="#170b0d" fill-opacity="0.501961" cx="427" cy="448" rx="70" ry="70" />
<ellipse fill="#030000" fill-opacity="0.501961" cx="73" cy="592" rx="89" ry="89" />
<ellipse fill="#6090cf" fill-opacity="0.501961" cx="937" cy="143" rx="41" ry="41" />
<ellipse fill="#190e12" fill-opacity="0.501961" cx="339" cy="350" rx="84" ry="84" />
<ellipse fill="#040000" fill-opacity="0.501961" cx="411" cy="605" rx="41" ry="41" />
<ellipse fill="#6ca6ff" fill-opacity="0.501961" cx="1012" cy="240" rx="18" ry="18" />
<ellipse fill="#22397b" fill-opacity="0.501961" cx="710" cy="629" rx="127" ry="127" />
<ellipse fill="#5186ff" fill-opacity="0.501961" cx="508" cy="285" rx="19" ry="19" />
<ellipse fill="#546971" fill-opacity="0.501961" cx="67" cy="127" rx="76" ry="76" />
<ellipse fill="#4c82ca" fill-opacity="0.501961" cx="976" cy="94" rx="25" ry="25" />
<ellipse fill="#1e131c" fill-opacity="0.501961" cx="635" cy="201" rx="37" ry="37" />
<ellipse fill="#456ff3" fill-opacity="0.501961" cx="668" cy="332" rx="100" ry="100" />
<ellipse fill="#83a3ae" fill-opacity="0.501961" cx="106" cy="252" rx="59" ry="59" />
<ellipse fill="#3053b6" fill-opacity="0.501961" cx="513" cy="564" rx="56" ry="56" />
<ellipse fill="#3356c8" fill-opacity="0.501961" cx="894" cy="485" rx="34" ry="34" />
<ellipse fill="#070406" fill-opacity="0.501961" cx="219" cy="23" rx="88" ry="88" />
<ellipse fill="#8aabb4" fill-opacity="0.501961" cx="171" cy="188" rx="37" ry="37" />
<ellipse fill="#000000" fill-opacity="0.501961" cx="59" cy="0" rx="61" ry="61" />
<ellipse fill="#1f1824" fill-opacity="0.501961" cx="915" cy="338" rx="37" ry="37" />
<ellipse fill="#090708" fill-opacity="0.501961" cx="1158" cy="629" rx="208" ry="208" />
<ellipse fill="#0f0709" fill-opacity="0.501961" cx="871" cy="535" rx="26" ry="26" />
<ellipse fill="#130b0e" fill-opacity="0.501961" cx="105" cy="353" rx="44" ry="44" />
<ellipse fill="#5985ce" fill-opacity="0.501961" cx="938" cy="203" rx="42" ry="42" />
<ellipse fill="#3861da" fill-opacity="0.501961" cx="168" cy="326" rx="23" ry="23" />
<ellipse fill="#607877" fill-opacity="0.501961" cx="121" cy="87" rx="32" ry="32" />
<ellipse fill="#15101a" fill-opacity="0.501961" cx="996" cy="166" rx="30" ry="30" />
<ellipse fill="#000000" fill-opacity="0.501961" cx="1136" cy="0" rx="64" ry="64" />
<ellipse fill="#3c62df" fill-opacity="0.501961" cx="713" cy="189" rx="33" ry="33" />
<ellipse fill="#6d888a" fill-opacity="0.501961" cx="24" cy="276" rx="35" ry="35" />
<ellipse fill="#4470ef" fill-opacity="0.501961" cx="552" cy="378" rx="38" ry="38" />
<ellipse fill="#1b5fa7" fill-opacity="0.501961" cx="536" cy="107" rx="16" ry="16" />
<ellipse fill="#11090c" fill-opacity="0.501961" cx="431" cy="573" rx="30" ry="30" />
<ellipse fill="#3658be" fill-opacity="0.501961" cx="322" cy="490" rx="36" ry="36" />
<ellipse fill="#486faa" fill-opacity="0.501961" cx="842" cy="79" rx="23" ry="23" />
<ellipse fill="#1a75ce" fill-opacity="0.501961" cx="481" cy="111" rx="12" ry="12" />
<ellipse fill="#3e67db" fill-opacity="0.501961" cx="515" cy="479" rx="30" ry="30" />
<ellipse fill="#3251b0" fill-opacity="0.501961" cx="185" cy="417" rx="38" ry="38" />
<ellipse fill="#171422" fill-opacity="0.501961" cx="225" cy="221" rx="34" ry="34" />
<ellipse fill="#1b5493" fill-opacity="0.501961" cx="592" cy="104" rx="19" ry="19" />
<ellipse fill="#201e32" fill-opacity="0.501961" cx="476" cy="397" rx="35" ry="35" />
<ellipse fill="#4c77de" fill-opacity="0.501961" cx="890" cy="244" rx="33" ry="33" />
<ellipse fill="#4067ea" fill-opacity="0.501961" cx="853" cy="354" rx="33" ry="33" />
<ellipse fill="#1e1a2a" fill-opacity="0.501961" cx="953" cy="275" rx="32" ry="32" />
<ellipse fill="#1975cd" fill-opacity="0.501961" cx="506" cy="109" rx="12" ry="12" />
<ellipse fill="#2b4594" fill-opacity="0.501961" cx="813" cy="528" rx="42" ry="42" />
<ellipse fill="#1974cb" fill-opacity="0.501961" cx="452" cy="113" rx="12" ry="12" />
<ellipse fill="#1873cb" fill-opacity="0.501961" cx="627" cy="100" rx="12" ry="12" />
<ellipse fill="#1872c9" fill-opacity="0.501961" cx="656" cy="98" rx="12" ry="12" />
<ellipse fill="#1972c9" fill-opacity="0.501961" cx="428" cy="115" rx="12" ry="12" />
<ellipse fill="#178efb" fill-opacity="0.501961" cx="562" cy="105" rx="9" ry="9" />
<ellipse fill="#1770c6" fill-opacity="0.501961" cx="682" cy="97" rx="12" ry="12" />
<ellipse fill="#1b3276" fill-opacity="0.501961" cx="236" cy="588" rx="81" ry="81" />
<ellipse fill="#385cc6" fill-opacity="0.501961" cx="234" cy="405" rx="33" ry="33" />
<ellipse fill="#1767b6" fill-opacity="0.501961" cx="401" cy="115" rx="13" ry="13" />
<ellipse fill="#166dc1" fill-opacity="0.501961" cx="374" cy="118" rx="12" ry="12" />
<ellipse fill="#090302" fill-opacity="0.501961" cx="1025" cy="11" rx="56" ry="56" />
<ellipse fill="#669cf4" fill-opacity="0.501961" cx="1032" cy="251" rx="8" ry="8" />
<ellipse fill="#156bbd" fill-opacity="0.501961" cx="347" cy="120" rx="12" ry="12" />
<ellipse fill="#166ec3" fill-opacity="0.501961" cx="707" cy="95" rx="12" ry="12" />
<ellipse fill="#4471fa" fill-opacity="0.501961" cx="529" cy="288" rx="22" ry="22" />
<ellipse fill="#3b5fd5" fill-opacity="0.501961" cx="771" cy="254" rx="111" ry="111" />
<ellipse fill="#0c0718" fill-opacity="0.501961" cx="169" cy="280" rx="16" ry="16" />
<ellipse fill="#1c1827" fill-opacity="0.501961" cx="510" cy="326" rx="22" ry="22" />
<ellipse fill="#080100" fill-opacity="0.501961" cx="375" cy="629" rx="28" ry="28" />
<ellipse fill="#262134" fill-opacity="0.501961" cx="555" cy="233" rx="28" ry="28" />
<ellipse fill="#1468b9" fill-opacity="0.501961" cx="320" cy="122" rx="12" ry="12" />
<ellipse fill="#5580d3" fill-opacity="0.501961" cx="994" cy="231" rx="21" ry="21" />
<ellipse fill="#3053bc" fill-opacity="0.501961" cx="916" cy="523" rx="16" ry="16" />
<ellipse fill="#3455c4" fill-opacity="0.501961" cx="883" cy="445" rx="30" ry="30" />
<ellipse fill="#425358" fill-opacity="0.501961" cx="3" cy="118" rx="65" ry="65" />
<ellipse fill="#0c0d10" fill-opacity="0.501961" cx="808" cy="71" rx="16" ry="16" />
<ellipse fill="#15101a" fill-opacity="0.501961" cx="450" cy="508" rx="27" ry="27" />
<ellipse fill="#13111a" fill-opacity="0.501961" cx="1199" cy="258" rx="159" ry="159" />
<ellipse fill="#100d15" fill-opacity="0.501961" cx="378" cy="39" rx="74" ry="74" />
<ellipse fill="#4d7fff" fill-opacity="0.501961" cx="488" cy="284" rx="8" ry="8" />
<ellipse fill="#3966a1" fill-opacity="0.501961" cx="1006" cy="75" rx="12" ry="12" />
<ellipse fill="#26418e" fill-opacity="0.501961" cx="518" cy="621" rx="72" ry="72" />
<ellipse fill="#150e14" fill-opacity="0.501961" cx="122" cy="482" rx="34" ry="34" />
<ellipse fill="#0f0a0d" fill-opacity="0.501961" cx="934" cy="32" rx="43" ry="43" />
<ellipse fill="#385cc6" fill-opacity="0.501961" cx="272" cy="439" rx="33" ry="33" />
<ellipse fill="#120f17" fill-opacity="0.501961" cx="35" cy="473" rx="118" ry="118" />
</g>
</svg>