<svg xmlns="http://www.w3.org/2000/svg" version="1.1" width="1200" height="630">
<rect x="0" y="0" width="1200" height="630" fill="#3d3c33" />
<g transform="scale(1.000000) translate(0.5 0.5)">
<rect fill="#f0b184" fill-opacity="0.501961" x="305" y="286" width="679" height="264" />
<rect fill="#18ece0" fill-opacity="0.501961" x="0" y="184" width="260" height="240" />
<rect fill="#000000" fill-opacity="0.501961" x="258" y="0" width="305" height="337" />
<rect fill="#00fffa" fill-opacity="0.501961" x="685" y="283" width="85" height="300" />
<rect fill="#00ffff" fill-opacity="0.501961" x="767" y="270" width="211" height="70" />
<rect fill="#ffbd8e" fill-opacity="0.501961" x="574" y="201" width="86" height="216" />
<rect fill="#ff5c2b" fill-opacity="0.501961" x="292" y="341" width="247" height="271" />
<rect fill="#000000" fill-opacity="0.501961" x="618" y="391" width="76" height="239" />
<rect fill="#ff6433" fill-opacity="0.501961" x="757" y="378" width="277" height="118" />
<rect fill="#000000" fill-opacity="0.501961" x="0" y="451" width="270" height="179" />
<rect fill="#000000" fill-opacity="0.501961" x="0" y="0" width="355" height="157" />
<rect fill="#00afad" fill-opacity="0.501961" x="869" y="486" width="128" height="79" />
<rect fill="#ff8559" fill-opacity="0.501961" x="348" y="333" width="286" height="140" />
<rect fill="#000000" fill-opacity="0.501961" x="556" y="506" width="143" height="124" />
<rect fill="#28f9eb" fill-opacity="0.501961" x="679" y="286" width="125" height="116" />
<rect fill="#000000" fill-opacity="0.501961" x="563" y="0" width="637" height="231" />
<rect fill="#ffb58a" fill-opacity="0.501961" x="597" y="193" width="66" height="140" />
<rect fill="#000009" fill-opacity="0.501961" x="652" y="316" width="29" height="216" />
<rect fill="#28a89d" fill-opacity="0.501961" x="76" y="147" width="98" height="312" />
<rect fill="#000000" fill-opacity="0.501961" x="0" y="542" width="314" height="88" />
<rect fill="#00030f" fill-opacity="0.501961" x="265" y="283" width="69" height="103" />
<rect fill="#da6037" fill-opacity="0.501961" x="755" y="442" width="94" height="134" />
<rect fill="#ff7543" fill-opacity="0.501961" x="264" y="426" width="42" height="84" />
<rect fill="#000000" fill-opacity="0.501961" x="1021" y="0" width="179" height="630" />
<rect fill="#00000f" fill-opacity="0.501961" x="439" y="286" width="114" height="56" />
<rect fill="#030000" fill-opacity="0.501961" x="210" y="396" width="62" height="53" />
<rect fill="#000000" fill-opacity="0.501961" x="957" y="561" width="243" height="69" />
<rect fill="#d5653d" fill-opacity="0.501961" x="974" y="412" width="71" height="93" />
<rect fill="#ff6a39" fill-opacity="0.501961" x="844" y="335" width="111" height="74" />
<rect fill="#ffa884" fill-opacity="0.501961" x="558" y="274" width="82" height="165" />
<rect fill="#000001" fill-opacity="0.501961" x="976" y="228" width="45" height="131" />
<rect fill="#000007" fill-opacity="0.501961" x="526" y="330" width="22" height="46" />
<rect fill="#030007" fill-opacity="0.501961" x="665" y="231" width="201" height="45" />
<rect fill="#000000" fill-opacity="0.501961" x="0" y="0" width="58" height="201" />
<rect fill="#ff8255" fill-opacity="0.501961" x="539" y="388" width="51" height="136" />
<rect fill="#050005" fill-opacity="0.501961" x="208" y="0" width="52" height="203" />
<rect fill="#000006" fill-opacity="0.501961" x="511" y="576" width="107" height="54" />
<rect fill="#000000" fill-opacity="0.501961" x="696" y="586" width="190" height="44" />
<rect fill="#39e2d1" fill-opacity="0.501961" x="742" y="280" width="109" height="75" />
<rect fill="#3bd1c1" fill-opacity="0.501961" x="174" y="222" width="88" height="162" />
<rect fill="#000002" fill-opacity="0.501961" x="0" y="409" width="52" height="221" />
<rect fill="#ff9f78" fill-opacity="0.501961" x="611" y="191" width="47" height="164" />
<rect fill="#101017" fill-opacity="0.501961" x="609" y="459" width="82" height="156" />
<rect fill="#14aba2" fill-opacity="0.501961" x="840" y="540" width="70" height="36" />
<rect fill="#2ed1c1" fill-opacity="0.501961" x="850" y="265" width="122" height="68" />
<rect fill="#25867b" fill-opacity="0.501961" x="32" y="170" width="86" height="265" />
<rect fill="#e7693f" fill-opacity="0.501961" x="787" y="371" width="98" height="143" />
<rect fill="#141116" fill-opacity="0.501961" x="240" y="0" width="376" height="210" />
<rect fill="#32e2d4" fill-opacity="0.501961" x="686" y="378" width="78" height="70" />
<rect fill="#00000c" fill-opacity="0.501961" x="662" y="287" width="14" height="104" />
<rect fill="#010004" fill-opacity="0.501961" x="999" y="512" width="201" height="118" />
<rect fill="#100e13" fill-opacity="0.501961" x="667" y="0" width="487" height="263" />
<rect fill="#00000e" fill-opacity="0.501961" x="331" y="286" width="108" height="40" />
<rect fill="#20968c" fill-opacity="0.501961" x="699" y="534" width="80" height="52" />
<rect fill="#020105" fill-opacity="0.501961" x="141" y="0" width="70" height="165" />
<rect fill="#e56c42" fill-opacity="0.501961" x="822" y="351" width="173" height="61" />
<rect fill="#1c1a1d" fill-opacity="0.501961" x="257" y="85" width="328" height="176" />
<rect fill="#2b9c91" fill-opacity="0.501961" x="95" y="141" width="52" height="323" />
<rect fill="#ae5333" fill-opacity="0.501961" x="364" y="516" width="134" height="108" />
<rect fill="#ff9f79" fill-opacity="0.501961" x="580" y="243" width="63" height="167" />
<rect fill="#3bdacb" fill-opacity="0.501961" x="676" y="286" width="140" height="79" />
<rect fill="#a55f46" fill-opacity="0.501961" x="895" y="582" width="53" height="48" />
<rect fill="#ff9e7a" fill-opacity="0.501961" x="554" y="318" width="66" height="159" />
<rect fill="#159a91" fill-opacity="0.501961" x="891" y="482" width="56" height="84" />
<rect fill="#f97647" fill-opacity="0.501961" x="318" y="361" width="214" height="65" />
<rect fill="#c55e3a" fill-opacity="0.501961" x="284" y="413" width="131" height="144" />
<rect fill="#ff7948" fill-opacity="0.501961" x="351" y="326" width="57" height="35" />
<rect fill="#de6a41" fill-opacity="0.501961" x="257" y="440" width="319" height="41" />
<rect fill="#100001" fill-opacity="0.501961" x="241" y="388" width="39" height="44" />
<rect fill="#101519" fill-opacity="0.501961" x="646" y="372" width="37" height="121" />
<rect fill="#0c090f" fill-opacity="0.501961" x="155" y="439" width="104" height="113" />
<rect fill="#0f0e12" fill-opacity="0.501961" x="1010" y="178" width="190" height="216" />
<rect fill="#151315" fill-opacity="0.501961" x="576" y="517" width="120" height="113" />
<rect fill="#34b1a4" fill-opacity="0.501961" x="148" y="194" width="82" height="216" />
<rect fill="#161619" fill-opacity="0.501961" x="628" y="430" width="60" height="119" />
<rect fill="#12181a" fill-opacity="0.501961" x="264" y="290" width="62" height="82" />
<rect fill="#b55534" fill-opacity="0.501961" x="928" y="430" width="114" height="60" />
<rect fill="#000000" fill-opacity="0.501961" x="267" y="618" width="138" height="12" />
<rect fill="#00030e" fill-opacity="0.501961" x="553" y="260" width="14" height="45" />
<rect fill="#1e1d1e" fill-opacity="0.501961" x="653" y="116" width="255" height="97" />
<rect fill="#3ed9c9" fill-opacity="0.501961" x="684" y="292" width="91" height="122" />
<rect fill="#c25733" fill-opacity="0.501961" x="797" y="479" width="27" height="113" />
<rect fill="#2ebbae" fill-opacity="0.501961" x="940" y="261" width="34" height="84" />
<rect fill="#201e1e" fill-opacity="0.501961" x="666" y="176" width="231" height="95" />
<rect fill="#060409" fill-opacity="0.501961" x="1048" y="393" width="152" height="119" />
<rect fill="#ff9e79" fill-opacity="0.501961" x="593" y="221" width="71" height="82" />
<rect fill="#e16339" fill-opacity="0.501961" x="760" y="427" width="31" height="115" />
<rect fill="#1b9289" fill-opacity="0.501961" x="878" y="499" width="117" height="54" />
<rect fill="#2ea599" fill-opacity="0.501961" x="132" y="173" width="59" height="263" />
<rect fill="#ff7e4c" fill-opacity="0.501961" x="401" y="336" width="80" height="36" />
<rect fill="#00050d" fill-opacity="0.501961" x="254" y="383" width="47" height="20" />
<rect fill="#000005" fill-opacity="0.501961" x="827" y="574" width="49" height="56" />
<rect fill="#171616" fill-opacity="0.501961" x="599" y="491" width="93" height="118" />
<rect fill="#26c1b5" fill-opacity="0.501961" x="692" y="426" width="61" height="104" />
<rect fill="#000002" fill-opacity="0.501961" x="1" y="0" width="143" height="132" />
<rect fill="#00111a" fill-opacity="0.501961" x="522" y="329" width="28" height="26" />
<rect fill="#1e6961" fill-opacity="0.501961" x="0" y="197" width="42" height="218" />
<rect fill="#120a0f" fill-opacity="0.501961" x="200" y="415" width="67" height="31" />
<rect fill="#0b0a0c" fill-opacity="0.501961" x="11" y="492" width="265" height="129" />
<rect fill="#dd663d" fill-opacity="0.501961" x="456" y="468" width="109" height="69" />
</g>
</svg>