<svg xmlns="http://www.w3.org/2000/svg" version="1.1" width="1200" height="630">
<rect x="0" y="0" width="1200" height="630" fill="#333b21" />
<g transform="scale(1.000000) translate(0.5 0.5)">
<ellipse fill="#e9ff2c" fill-opacity="0.501961" cx="658" cy="473" rx="179" ry="179" />
<ellipse fill="#cbff6c" fill-opacity="0.501961" cx="104" cy="242" rx="115" ry="115" />
<ellipse fill="#c236f5" fill-opacity="0.501961" cx="796" cy="90" rx="93" ry="93" />
<ellipse fill="#9fff2b" fill-opacity="0.501961" cx="655" cy="452" rx="154" ry="154" />
<ellipse fill="#87be4b" fill-opacity="0.501961" cx="248" cy="62" rx="58" ry="58" />
<ellipse fill="#75983e" fill-opacity="0.501961" cx="79" cy="142" rx="84" ry="84" />
<ellipse fill="#ba4fd8" fill-opacity="0.501961" cx="813" cy="149" rx="49" ry="49" />
<ellipse fill="#000006" fill-opacity="0.501961" cx="1150" cy="333" rx="340" ry="340" />
<ellipse fill="#000006" fill-opacity="0.501961" cx="248" cy="597" rx="258" ry="258" />
<ellipse fill="#030012" fill-opacity="0.501961" cx="502" cy="114" rx="208" ry="208" />
<ellipse fill="#b6ff2f" fill-opacity="0.501961" cx="507" cy="428" rx="38" ry="38" />
<ellipse fill="#b0e161" fill-opacity="0.501961" cx="147" cy="313" rx="50" ry="50" />
<ellipse fill="#b6ff30" fill-opacity="0.501961" cx="773" cy="378" rx="45" ry="45" />
<ellipse fill="#c8ff34" fill-opacity="0.501961" cx="623" cy="321" rx="37" ry="37" />
<ellipse fill="#892ea6" fill-opacity="0.501961" cx="725" cy="28" rx="43" ry="43" />
<ellipse fill="#03000b" fill-opacity="0.501961" cx="989" cy="65" rx="116" ry="116" />
<ellipse fill="#040016" fill-opacity="0.501961" cx="261" cy="226" rx="58" ry="58" />
<ellipse fill="#000004" fill-opacity="0.501961" cx="882" cy="612" rx="77" ry="77" />
<ellipse fill="#abec61" fill-opacity="0.501961" cx="243" cy="130" rx="24" ry="24" />
<ellipse fill="#000005" fill-opacity="0.501961" cx="30" cy="394" rx="63" ry="63" />
<ellipse fill="#599f17" fill-opacity="0.501961" cx="632" cy="629" rx="125" ry="125" />
<ellipse fill="#000000" fill-opacity="0.501961" cx="123" cy="0" rx="60" ry="60" />
<ellipse fill="#0e0a14" fill-opacity="0.501961" cx="703" cy="174" rx="53" ry="53" />
<ellipse fill="#afff30" fill-opacity="0.501961" cx="642" cy="392" rx="99" ry="99" />
<ellipse fill="#1d1126" fill-opacity="0.501961" cx="439" cy="293" rx="113" ry="113" />
<ellipse fill="#09001b" fill-opacity="0.501961" cx="729" cy="263" rx="56" ry="56" />
<ellipse fill="#7cd520" fill-opacity="0.501961" cx="789" cy="520" rx="57" ry="57" />
<ellipse fill="#000002" fill-opacity="0.501961" cx="167" cy="73" rx="33" ry="33" />
<ellipse fill="#6b933b" fill-opacity="0.501961" cx="292" cy="29" rx="31" ry="31" />
<ellipse fill="#612772" fill-opacity="0.501961" cx="824" cy="20" rx="53" ry="53" />
<ellipse fill="#501766" fill-opacity="0.501961" cx="220" cy="183" rx="26" ry="26" />
<ellipse fill="#24142c" fill-opacity="0.501961" cx="313" cy="299" rx="107" ry="107" />
<ellipse fill="#afe161" fill-opacity="0.501961" cx="178" cy="240" rx="32" ry="32" />
<ellipse fill="#18161d" fill-opacity="0.501961" cx="532" cy="314" rx="36" ry="36" />
<ellipse fill="#b357c8" fill-opacity="0.501961" cx="412" cy="299" rx="12" ry="12" />
<ellipse fill="#08020d" fill-opacity="0.501961" cx="102" cy="553" rx="190" ry="190" />
<ellipse fill="#ac50c2" fill-opacity="0.501961" cx="384" cy="298" rx="12" ry="12" />
<ellipse fill="#7bc620" fill-opacity="0.501961" cx="532" cy="571" rx="33" ry="33" />
<ellipse fill="#a94fbf" fill-opacity="0.501961" cx="358" cy="299" rx="12" ry="12" />
<ellipse fill="#86a94a" fill-opacity="0.501961" cx="142" cy="144" rx="33" ry="33" />
<ellipse fill="#160f1c" fill-opacity="0.501961" cx="769" cy="271" rx="58" ry="58" />
<ellipse fill="#5a7332" fill-opacity="0.501961" cx="0" cy="160" rx="89" ry="89" />
<ellipse fill="#000007" fill-opacity="0.501961" cx="202" cy="145" rx="24" ry="24" />
<ellipse fill="#000006" fill-opacity="0.501961" cx="797" cy="629" rx="37" ry="37" />
<ellipse fill="#13170f" fill-opacity="0.501961" cx="695" cy="127" rx="31" ry="31" />
<ellipse fill="#a6ff2c" fill-opacity="0.501961" cx="775" cy="371" rx="37" ry="37" />
<ellipse fill="#a1ff2b" fill-opacity="0.501961" cx="505" cy="430" rx="34" ry="34" />
<ellipse fill="#0b0510" fill-opacity="0.501961" cx="1113" cy="602" rx="273" ry="273" />
<ellipse fill="#100c13" fill-opacity="0.501961" cx="1183" cy="138" rx="307" ry="307" />
<ellipse fill="#16111e" fill-opacity="0.501961" cx="685" cy="271" rx="34" ry="34" />
<ellipse fill="#ce5beb" fill-opacity="0.501961" cx="337" cy="298" rx="9" ry="9" />
<ellipse fill="#a24bb8" fill-opacity="0.501961" cx="765" cy="122" rx="35" ry="35" />
<ellipse fill="#526f2e" fill-opacity="0.501961" cx="226" cy="22" rx="53" ry="53" />
<ellipse fill="#070010" fill-opacity="0.501961" cx="289" cy="152" rx="31" ry="31" />
<ellipse fill="#9bfa2a" fill-opacity="0.501961" cx="788" cy="427" rx="38" ry="38" />
<ellipse fill="#9a47af" fill-opacity="0.501961" cx="833" cy="156" rx="33" ry="33" />
<ellipse fill="#c650e9" fill-opacity="0.501961" cx="319" cy="299" rx="9" ry="9" />
<ellipse fill="#a5cf5d" fill-opacity="0.501961" cx="176" cy="292" rx="34" ry="34" />
<ellipse fill="#c44fe5" fill-opacity="0.501961" cx="300" cy="299" rx="9" ry="9" />
<ellipse fill="#000009" fill-opacity="0.501961" cx="184" cy="108" rx="25" ry="25" />
<ellipse fill="#7ca647" fill-opacity="0.501961" cx="245" cy="98" rx="36" ry="36" />
<ellipse fill="#90b850" fill-opacity="0.501961" cx="120" cy="332" rx="34" ry="34" />
<ellipse fill="#be4cdf" fill-opacity="0.501961" cx="278" cy="298" rx="9" ry="9" />
<ellipse fill="#030900" fill-opacity="0.501961" cx="223" cy="207" rx="22" ry="22" />
<ellipse fill="#69a51c" fill-opacity="0.501961" cx="748" cy="566" rx="48" ry="48" />
<ellipse fill="#a36fa0" fill-opacity="0.501961" cx="235" cy="173" rx="13" ry="13" />
<ellipse fill="#b949da" fill-opacity="0.501961" cx="255" cy="299" rx="9" ry="9" />
<ellipse fill="#88e525" fill-opacity="0.501961" cx="520" cy="508" rx="33" ry="33" />
<ellipse fill="#6e327d" fill-opacity="0.501961" cx="754" cy="0" rx="73" ry="73" />
<ellipse fill="#04000c" fill-opacity="0.501961" cx="2" cy="347" rx="37" ry="37" />
<ellipse fill="#b547d5" fill-opacity="0.501961" cx="235" cy="299" rx="9" ry="9" />
<ellipse fill="#010500" fill-opacity="0.501961" cx="34" cy="0" rx="35" ry="35" />
<ellipse fill="#9ef22b" fill-opacity="0.501961" cx="592" cy="446" rx="106" ry="106" />
<ellipse fill="#000008" fill-opacity="0.501961" cx="520" cy="629" rx="17" ry="17" />
<ellipse fill="#9ddf54" fill-opacity="0.501961" cx="242" cy="156" rx="11" ry="11" />
<ellipse fill="#adff2d" fill-opacity="0.501961" cx="626" cy="316" rx="31" ry="31" />
<ellipse fill="#100c16" fill-opacity="0.501961" cx="747" cy="190" rx="26" ry="26" />
<ellipse fill="#8fb64f" fill-opacity="0.501961" cx="134" cy="235" rx="74" ry="74" />
<ellipse fill="#b2ff30" fill-opacity="0.501961" cx="704" cy="344" rx="33" ry="33" />
<ellipse fill="#c14ae4" fill-opacity="0.501961" cx="217" cy="299" rx="8" ry="8" />
<ellipse fill="#020102" fill-opacity="0.501961" cx="1199" cy="35" rx="123" ry="123" />
<ellipse fill="#88cd21" fill-opacity="0.501961" cx="825" cy="531" rx="23" ry="23" />
<ellipse fill="#130c1a" fill-opacity="0.501961" cx="795" cy="229" rx="36" ry="36" />
<ellipse fill="#b649d5" fill-opacity="0.501961" cx="211" cy="178" rx="9" ry="9" />
<ellipse fill="#6f8c3d" fill-opacity="0.501961" cx="114" cy="116" rx="39" ry="39" />
<ellipse fill="#0d0711" fill-opacity="0.501961" cx="311" cy="108" rx="29" ry="29" />
<ellipse fill="#000006" fill-opacity="0.501961" cx="138" cy="32" rx="38" ry="38" />
<ellipse fill="#7fc322" fill-opacity="0.501961" cx="524" cy="538" rx="30" ry="30" />
<ellipse fill="#4f652a" fill-opacity="0.501961" cx="73" cy="72" rx="38" ry="38" />
<ellipse fill="#141119" fill-opacity="0.501961" cx="444" cy="382" rx="43" ry="43" />
<ellipse fill="#1e1b20" fill-opacity="0.501961" cx="554" cy="306" rx="26" ry="26" />
<ellipse fill="#873f99" fill-opacity="0.501961" cx="730" cy="60" rx="33" ry="33" />
<ellipse fill="#0e0d12" fill-opacity="0.501961" cx="227" cy="334" rx="32" ry="32" />
<ellipse fill="#74aa1d" fill-opacity="0.501961" cx="538" cy="591" rx="30" ry="30" />
<ellipse fill="#833d95" fill-opacity="0.501961" cx="823" cy="90" rx="58" ry="58" />
<ellipse fill="#111212" fill-opacity="0.501961" cx="311" cy="332" rx="30" ry="30" />
<ellipse fill="#672d76" fill-opacity="0.501961" cx="841" cy="38" rx="39" ry="39" />
<ellipse fill="#12140f" fill-opacity="0.501961" cx="243" cy="262" rx="33" ry="33" />
<ellipse fill="#040304" fill-opacity="0.501961" cx="1146" cy="629" rx="126" ry="126" />
<ellipse fill="#1a181c" fill-opacity="0.501961" cx="513" cy="333" rx="33" ry="33" />
</g>
</svg>