<svg xmlns="http://www.w3.org/2000/svg" version="1.1" width="1200" height="630">
<rect x="0" y="0" width="1200" height="630" fill="#4f3334" />
<g transform="scale(1.000000) translate(0.5 0.5)">
<rect fill="#ffdee2" fill-opacity="0.501961" x="194" y="252" width="320" height="311" />
<rect fill="#ffbbba" fill-opacity="0.501961" x="431" y="33" width="225" height="201" />
<rect fill="#000000" fill-opacity="0.501961" x="416" y="245" width="330" height="106" />
<rect fill="#ffd5dc" fill-opacity="0.501961" x="164" y="296" width="259" height="160" />
<rect fill="#000000" fill-opacity="0.501961" x="0" y="439" width="242" height="191" />
<rect fill="#000000" fill-opacity="0.501961" x="0" y="0" width="232" height="315" />
<rect fill="#d68483" fill-opacity="0.501961" x="291" y="451" width="305" height="179" />
<rect fill="#ff433e" fill-opacity="0.501961" x="958" y="230" width="129" height="252" />
<rect fill="#ff3523" fill-opacity="0.501961" x="780" y="414" width="141" height="144" />
<rect fill="#ffe3ea" fill-opacity="0.501961" x="246" y="235" width="122" height="62" />
<rect fill="#000000" fill-opacity="0.501961" x="0" y="0" width="418" height="227" />
<rect fill="#000000" fill-opacity="0.501961" x="668" y="0" width="532" height="248" />
<rect fill="#e9a8ab" fill-opacity="0.501961" x="189" y="398" width="347" height="86" />
<rect fill="#ff9c9c" fill-opacity="0.501961" x="485" y="112" width="122" height="130" />
<rect fill="#000001" fill-opacity="0.501961" x="420" y="228" width="93" height="112" />
<rect fill="#ff5552" fill-opacity="0.501961" x="996" y="202" width="86" height="46" />
<rect fill="#ff3f31" fill-opacity="0.501961" x="810" y="330" width="45" height="163" />
<rect fill="#000404" fill-opacity="0.501961" x="643" y="0" width="557" height="79" />
<rect fill="#4d2f2f" fill-opacity="0.501961" x="625" y="186" width="131" height="120" />
<rect fill="#000000" fill-opacity="0.501961" x="1059" y="387" width="141" height="243" />
<rect fill="#ff3a28" fill-opacity="0.501961" x="721" y="443" width="87" height="44" />
<rect fill="#000001" fill-opacity="0.501961" x="0" y="227" width="148" height="334" />
<rect fill="#000000" fill-opacity="0.501961" x="616" y="483" width="160" height="147" />
<rect fill="#070b0c" fill-opacity="0.501961" x="0" y="508" width="271" height="122" />
<rect fill="#d48181" fill-opacity="0.501961" x="420" y="68" width="248" height="108" />
<rect fill="#000c0d" fill-opacity="0.501961" x="549" y="370" width="88" height="99" />
<rect fill="#f5bec3" fill-opacity="0.501961" x="207" y="266" width="200" height="116" />
<rect fill="#000000" fill-opacity="0.501961" x="814" y="545" width="386" height="85" />
<rect fill="#d0a8ac" fill-opacity="0.501961" x="150" y="334" width="145" height="75" />
<rect fill="#000000" fill-opacity="0.501961" x="1099" y="198" width="101" height="164" />
<rect fill="#ad6c6c" fill-opacity="0.501961" x="471" y="0" width="141" height="127" />
<rect fill="#aa6666" fill-opacity="0.501961" x="260" y="508" width="322" height="69" />
<rect fill="#d4aaaf" fill-opacity="0.501961" x="589" y="462" width="98" height="19" />
<rect fill="#ff5246" fill-opacity="0.501961" x="917" y="405" width="41" height="55" />
<rect fill="#000405" fill-opacity="0.501961" x="222" y="0" width="228" height="56" />
<rect fill="#00070a" fill-opacity="0.501961" x="740" y="391" width="63" height="46" />
<rect fill="#121618" fill-opacity="0.501961" x="328" y="184" width="115" height="61" />
<rect fill="#0b1415" fill-opacity="0.501961" x="802" y="31" width="171" height="264" />
<rect fill="#c5423f" fill-opacity="0.501961" x="950" y="268" width="146" height="163" />
<rect fill="#c8a2a6" fill-opacity="0.501961" x="183" y="293" width="98" height="169" />
<rect fill="#ffd5db" fill-opacity="0.501961" x="260" y="225" width="44" height="27" />
<rect fill="#000e10" fill-opacity="0.501961" x="602" y="219" width="67" height="55" />
<rect fill="#211b1b" fill-opacity="0.501961" x="500" y="285" width="279" height="88" />
<rect fill="#000000" fill-opacity="0.501961" x="910" y="479" width="59" height="66" />
<rect fill="#ff918f" fill-opacity="0.501961" x="421" y="354" width="82" height="97" />
<rect fill="#000405" fill-opacity="0.501961" x="894" y="308" width="59" height="66" />
<rect fill="#e99797" fill-opacity="0.501961" x="514" y="438" width="39" height="119" />
<rect fill="#000000" fill-opacity="0.501961" x="580" y="489" width="38" height="44" />
<rect fill="#101616" fill-opacity="0.501961" x="0" y="117" width="175" height="218" />
<rect fill="#291f1f" fill-opacity="0.501961" x="411" y="217" width="60" height="91" />
<rect fill="#061112" fill-opacity="0.501961" x="524" y="383" width="157" height="36" />
<rect fill="#c76763" fill-opacity="0.501961" x="694" y="197" width="39" height="37" />
<rect fill="#d9382c" fill-opacity="0.501961" x="749" y="442" width="152" height="60" />
<rect fill="#000607" fill-opacity="0.501961" x="148" y="471" width="65" height="81" />
<rect fill="#000505" fill-opacity="0.501961" x="630" y="586" width="492" height="44" />
<rect fill="#c62f24" fill-opacity="0.501961" x="883" y="537" width="50" height="37" />
<rect fill="#040909" fill-opacity="0.501961" x="947" y="523" width="253" height="107" />
<rect fill="#d03430" fill-opacity="0.501961" x="971" y="482" width="78" height="36" />
<rect fill="#ce8685" fill-opacity="0.501961" x="595" y="570" width="27" height="41" />
<rect fill="#b1c6d2" fill-opacity="0.501961" x="874" y="414" width="56" height="13" />
<rect fill="#7c6568" fill-opacity="0.501961" x="135" y="556" width="88" height="17" />
<rect fill="#091315" fill-opacity="0.501961" x="648" y="474" width="87" height="135" />
<rect fill="#ffbcba" fill-opacity="0.501961" x="670" y="458" width="49" height="10" />
<rect fill="#131516" fill-opacity="0.501961" x="99" y="57" width="122" height="222" />
<rect fill="#bb2518" fill-opacity="0.501961" x="777" y="545" width="49" height="50" />
<rect fill="#f46d65" fill-opacity="0.501961" x="759" y="257" width="29" height="30" />
<rect fill="#faa0a0" fill-opacity="0.501961" x="497" y="200" width="72" height="44" />
<rect fill="#ffcdd2" fill-opacity="0.501961" x="552" y="477" width="71" height="10" />
<rect fill="#c3a3a8" fill-opacity="0.501961" x="229" y="430" width="145" height="83" />
<rect fill="#ff5c53" fill-opacity="0.501961" x="755" y="365" width="38" height="17" />
<rect fill="#000000" fill-opacity="0.501961" x="865" y="388" width="35" height="31" />
<rect fill="#fc9e9e" fill-opacity="0.501961" x="605" y="144" width="37" height="63" />
<rect fill="#00090a" fill-opacity="0.501961" x="635" y="197" width="52" height="38" />
<rect fill="#d08e8f" fill-opacity="0.501961" x="667" y="174" width="24" height="21" />
<rect fill="#f8c7cc" fill-opacity="0.501961" x="341" y="256" width="65" height="172" />
<rect fill="#000708" fill-opacity="0.501961" x="1083" y="391" width="117" height="154" />
<rect fill="#000d0f" fill-opacity="0.501961" x="746" y="312" width="74" height="35" />
<rect fill="#e17979" fill-opacity="0.501961" x="413" y="226" width="22" height="22" />
<rect fill="#eea1a2" fill-opacity="0.501961" x="732" y="232" width="20" height="18" />
<rect fill="#d12b1f" fill-opacity="0.501961" x="428" y="349" width="161" height="9" />
<rect fill="#d08f93" fill-opacity="0.501961" x="832" y="323" width="33" height="25" />
<rect fill="#001115" fill-opacity="0.501961" x="840" y="342" width="16" height="36" />
<rect fill="#0c1010" fill-opacity="0.501961" x="0" y="423" width="171" height="139" />
<rect fill="#f24a3e" fill-opacity="0.501961" x="662" y="275" width="130" height="7" />
<rect fill="#e8bcc1" fill-opacity="0.501961" x="328" y="329" width="98" height="140" />
<rect fill="#000000" fill-opacity="0.501961" x="0" y="601" width="295" height="29" />
<rect fill="#f07676" fill-opacity="0.501961" x="608" y="448" width="28" height="14" />
<rect fill="#cab0b4" fill-opacity="0.501961" x="1097" y="374" width="50" height="8" />
<rect fill="#ff9998" fill-opacity="0.501961" x="468" y="341" width="24" height="58" />
<rect fill="#f9827d" fill-opacity="0.501961" x="805" y="295" width="19" height="22" />
<rect fill="#a26969" fill-opacity="0.501961" x="271" y="519" width="317" height="70" />
<rect fill="#010e0f" fill-opacity="0.501961" x="973" y="79" width="44" height="135" />
<rect fill="#e89393" fill-opacity="0.501961" x="466" y="166" width="153" height="58" />
<rect fill="#0d1516" fill-opacity="0.501961" x="428" y="238" width="31" height="117" />
<rect fill="#ca7e7e" fill-opacity="0.501961" x="404" y="476" width="170" height="67" />
<rect fill="#030c0c" fill-opacity="0.501961" x="0" y="379" width="154" height="59" />
<rect fill="#ff3f2f" fill-opacity="0.501961" x="813" y="368" width="33" height="48" />
<rect fill="#031112" fill-opacity="0.501961" x="506" y="356" width="69" height="27" />
<rect fill="#000708" fill-opacity="0.501961" x="674" y="428" width="56" height="23" />
<rect fill="#836b6e" fill-opacity="0.501961" x="90" y="570" width="51" height="12" />
</g>
</svg>