<svg xmlns="http://www.w3.org/2000/svg" version="1.1" width="1200" height="630">
<rect x="0" y="0" width="1200" height="630" fill="#1b203c" />
<g transform="scale(1.000000) translate(0.5 0.5)">
<ellipse fill="#4984ff" fill-opacity="0.501961" cx="957" cy="302" rx="180" ry="177" />
<ellipse fill="#0b0708" fill-opacity="0.501961" cx="305" cy="15" rx="1199" ry="128" />
<ellipse fill="#0d080a" fill-opacity="0.501961" cx="920" cy="609" rx="514" ry="135" />
<ellipse fill="#090504" fill-opacity="0.501961" cx="150" cy="566" rx="253" ry="129" />
<ellipse fill="#3f69f2" fill-opacity="0.501961" cx="865" cy="297" rx="95" ry="98" />
<ellipse fill="#3e67ec" fill-opacity="0.501961" cx="871" cy="452" rx="30" ry="20" />
<ellipse fill="#050202" fill-opacity="0.501961" cx="1160" cy="133" rx="62" ry="140" />
<ellipse fill="#0a0607" fill-opacity="0.501961" cx="1181" cy="431" rx="85" ry="86" />
<ellipse fill="#100b10" fill-opacity="0.501961" cx="54" cy="210" rx="174" ry="107" />
<ellipse fill="#3659cf" fill-opacity="0.501961" cx="890" cy="148" rx="36" ry="26" />
<ellipse fill="#385ace" fill-opacity="0.501961" cx="904" cy="413" rx="77" ry="60" />
<ellipse fill="#88cfe2" fill-opacity="0.501961" cx="244" cy="280" rx="40" ry="4" />
<ellipse fill="#6692a3" fill-opacity="0.501961" cx="431" cy="481" rx="67" ry="5" />
<ellipse fill="#27419c" fill-opacity="0.501961" cx="1124" cy="307" rx="32" ry="44" />
<ellipse fill="#2c49ac" fill-opacity="0.501961" cx="1020" cy="455" rx="50" ry="26" />
<ellipse fill="#0b0708" fill-opacity="0.501961" cx="20" cy="381" rx="31" ry="86" />
<ellipse fill="#040407" fill-opacity="0.501961" cx="1164" cy="613" rx="192" ry="97" />
<ellipse fill="#272739" fill-opacity="0.501961" cx="766" cy="162" rx="60" ry="93" />
<ellipse fill="#3659c5" fill-opacity="0.501961" cx="909" cy="299" rx="107" ry="173" />
<ellipse fill="#2a2d45" fill-opacity="0.501961" cx="671" cy="372" rx="131" ry="79" />
<ellipse fill="#26409a" fill-opacity="0.501961" cx="1048" cy="167" rx="39" ry="36" />
<ellipse fill="#446de8" fill-opacity="0.501961" cx="793" cy="297" rx="30" ry="29" />
<ellipse fill="#040406" fill-opacity="0.501961" cx="31" cy="21" rx="183" ry="83" />
<ellipse fill="#6692a5" fill-opacity="0.501961" cx="292" cy="287" rx="22" ry="6" />
<ellipse fill="#1f1827" fill-opacity="0.501961" cx="793" cy="417" rx="26" ry="45" />
<ellipse fill="#0d090d" fill-opacity="0.501961" cx="1187" cy="298" rx="29" ry="57" />
<ellipse fill="#74b0bf" fill-opacity="0.501961" cx="438" cy="513" rx="4" ry="20" />
<ellipse fill="#435468" fill-opacity="0.501961" cx="403" cy="360" rx="19" ry="22" />
<ellipse fill="#4c7884" fill-opacity="0.501961" cx="43" cy="475" rx="4" ry="45" />
<ellipse fill="#212030" fill-opacity="0.501961" cx="290" cy="428" rx="125" ry="130" />
<ellipse fill="#131523" fill-opacity="0.501961" cx="1017" cy="111" rx="159" ry="20" />
<ellipse fill="#06070a" fill-opacity="0.501961" cx="32" cy="608" rx="201" ry="59" />
<ellipse fill="#6a97ab" fill-opacity="0.501961" cx="323" cy="297" rx="15" ry="6" />
<ellipse fill="#121018" fill-opacity="0.501961" cx="100" cy="432" rx="50" ry="35" />
<ellipse fill="#537187" fill-opacity="0.501961" cx="346" cy="309" rx="17" ry="10" />
<ellipse fill="#6493a2" fill-opacity="0.501961" cx="193" cy="285" rx="20" ry="5" />
<ellipse fill="#05060a" fill-opacity="0.501961" cx="1097" cy="15" rx="129" ry="56" />
<ellipse fill="#4b647c" fill-opacity="0.501961" cx="370" cy="328" rx="16" ry="14" />
<ellipse fill="#4e7186" fill-opacity="0.501961" cx="363" cy="473" rx="27" ry="6" />
<ellipse fill="#394056" fill-opacity="0.501961" cx="721" cy="268" rx="24" ry="37" />
<ellipse fill="#221e32" fill-opacity="0.501961" cx="494" cy="187" rx="260" ry="143" />
<ellipse fill="#1065b8" fill-opacity="0.501961" cx="975" cy="106" rx="3" ry="51" />
<ellipse fill="#57788a" fill-opacity="0.501961" cx="513" cy="476" rx="22" ry="6" />
<ellipse fill="#181524" fill-opacity="0.501961" cx="820" cy="155" rx="20" ry="39" />
<ellipse fill="#4a6c81" fill-opacity="0.501961" cx="314" cy="463" rx="23" ry="6" />
<ellipse fill="#16121b" fill-opacity="0.501961" cx="141" cy="365" rx="56" ry="31" />
<ellipse fill="#567689" fill-opacity="0.501961" cx="537" cy="466" rx="15" ry="7" />
<ellipse fill="#5d8999" fill-opacity="0.501961" cx="166" cy="295" rx="15" ry="5" />
<ellipse fill="#29428f" fill-opacity="0.501961" cx="1128" cy="302" rx="18" ry="55" />
<ellipse fill="#284395" fill-opacity="0.501961" cx="1024" cy="155" rx="57" ry="24" />
<ellipse fill="#648ea8" fill-opacity="0.501961" cx="661" cy="359" rx="7" ry="9" />
<ellipse fill="#6d9fb7" fill-opacity="0.501961" cx="385" cy="339" rx="7" ry="8" />
<ellipse fill="#2b3147" fill-opacity="0.501961" cx="766" cy="231" rx="29" ry="36" />
<ellipse fill="#436076" fill-opacity="0.501961" cx="279" cy="454" rx="23" ry="7" />
<ellipse fill="#1f1e32" fill-opacity="0.501961" cx="683" cy="513" rx="179" ry="76" />
<ellipse fill="#628ca6" fill-opacity="0.501961" cx="700" cy="303" rx="6" ry="11" />
<ellipse fill="#77b2cd" fill-opacity="0.501961" cx="688" cy="321" rx="5" ry="7" />
<ellipse fill="#485e72" fill-opacity="0.501961" cx="566" cy="450" rx="17" ry="10" />
<ellipse fill="#2c4aa0" fill-opacity="0.501961" cx="920" cy="152" rx="66" ry="27" />
<ellipse fill="#1c1728" fill-opacity="0.501961" cx="437" cy="470" rx="69" ry="10" />
<ellipse fill="#5d8a96" fill-opacity="0.501961" cx="432" cy="543" rx="5" ry="14" />
<ellipse fill="#1a192a" fill-opacity="0.501961" cx="245" cy="195" rx="162" ry="83" />
<ellipse fill="#2a459a" fill-opacity="0.501961" cx="1037" cy="443" rx="37" ry="37" />
<ellipse fill="#100d15" fill-opacity="0.501961" cx="1083" cy="481" rx="25" ry="34" />
<ellipse fill="#263d93" fill-opacity="0.501961" cx="1079" cy="230" rx="25" ry="65" />
<ellipse fill="#6fa3be" fill-opacity="0.501961" cx="672" cy="344" rx="6" ry="7" />
<ellipse fill="#6ea1bb" fill-opacity="0.501961" cx="648" cy="375" rx="6" ry="7" />
<ellipse fill="#6b9bb2" fill-opacity="0.501961" cx="589" cy="435" rx="7" ry="6" />
<ellipse fill="#588098" fill-opacity="0.501961" cx="769" cy="187" rx="6" ry="11" />
<ellipse fill="#5e87a0" fill-opacity="0.501961" cx="638" cy="387" rx="8" ry="8" />
<ellipse fill="#7dc0d9" fill-opacity="0.501961" cx="446" cy="482" rx="45" ry="2" />
<ellipse fill="#598391" fill-opacity="0.501961" cx="147" cy="303" rx="11" ry="6" />
<ellipse fill="#6ea1bc" fill-opacity="0.501961" cx="680" cy="334" rx="6" ry="7" />
<ellipse fill="#3b6ce0" fill-opacity="0.501961" cx="817" cy="334" rx="29" ry="38" />
<ellipse fill="#21253a" fill-opacity="0.501961" cx="807" cy="135" rx="28" ry="76" />
<ellipse fill="#13111c" fill-opacity="0.501961" cx="46" cy="336" rx="42" ry="37" />
<ellipse fill="#73b3cd" fill-opacity="0.501961" cx="392" cy="478" rx="15" ry="3" />
<ellipse fill="#5d8da0" fill-opacity="0.501961" cx="253" cy="444" rx="13" ry="4" />
<ellipse fill="#6fa5be" fill-opacity="0.501961" cx="625" cy="401" rx="6" ry="6" />
<ellipse fill="#2f4ca4" fill-opacity="0.501961" cx="976" cy="438" rx="102" ry="38" />
<ellipse fill="#191429" fill-opacity="0.501961" cx="785" cy="213" rx="21" ry="30" />
<ellipse fill="#0f0d15" fill-opacity="0.501961" cx="1097" cy="131" rx="24" ry="36" />
<ellipse fill="#54758c" fill-opacity="0.501961" cx="606" cy="419" rx="10" ry="9" />
<ellipse fill="#6697b4" fill-opacity="0.501961" cx="743" cy="235" rx="5" ry="9" />
<ellipse fill="#5a899c" fill-opacity="0.501961" cx="233" cy="438" rx="13" ry="4" />
<ellipse fill="#1b1b2f" fill-opacity="0.501961" cx="907" cy="502" rx="130" ry="30" />
<ellipse fill="#191726" fill-opacity="0.501961" cx="394" cy="530" rx="35" ry="49" />
<ellipse fill="#1b1829" fill-opacity="0.501961" cx="482" cy="536" rx="44" ry="52" />
<ellipse fill="#527c83" fill-opacity="0.501961" cx="74" cy="376" rx="8" ry="9" />
<ellipse fill="#7dbfda" fill-opacity="0.501961" cx="399" cy="356" rx="5" ry="6" />
<ellipse fill="#1b1726" fill-opacity="0.501961" cx="213" cy="319" rx="67" ry="31" />
<ellipse fill="#6394af" fill-opacity="0.501961" cx="754" cy="214" rx="5" ry="9" />
<ellipse fill="#5a8b9d" fill-opacity="0.501961" cx="199" cy="426" rx="11" ry="4" />
<ellipse fill="#567d94" fill-opacity="0.501961" cx="780" cy="168" rx="6" ry="11" />
<ellipse fill="#1d6cc0" fill-opacity="0.501961" cx="667" cy="422" rx="10" ry="5" />
<ellipse fill="#314fb4" fill-opacity="0.501961" cx="997" cy="313" rx="73" ry="123" />
<ellipse fill="#5c8d9f" fill-opacity="0.501961" cx="214" cy="432" rx="11" ry="4" />
<ellipse fill="#88d2ee" fill-opacity="0.501961" cx="410" cy="371" rx="4" ry="6" />
<ellipse fill="#74b4ca" fill-opacity="0.501961" cx="339" cy="468" rx="11" ry="3" />
<ellipse fill="#1d1c32" fill-opacity="0.501961" cx="270" cy="315" rx="61" ry="28" />
</g>
</svg>