<svg xmlns="http://www.w3.org/2000/svg" version="1.1" width="1200" height="630">
<rect x="0" y="0" width="1200" height="630" fill="#3b3837" />
<g transform="scale(1.000000) translate(0.5 0.5)">
<g transform="translate(844.318756 210.141570) rotate(229.097409) scale(130.399570 282.340451)"><ellipse fill="#dbcfff" fill-opacity="0.501961" cx="0" cy="0" rx="1" ry="1" /></g>
<g transform="translate(238.561455 411.664125) rotate(284.553289) scale(107.578950 91.219667)"><ellipse fill="#ffff95" fill-opacity="0.501961" cx="0" cy="0" rx="1" ry="1" /></g>
<g transform="translate(895.981322 538.470915) rotate(5.567288) scale(149.374337 91.748293)"><ellipse fill="#f1e778" fill-opacity="0.501961" cx="0" cy="0" rx="1" ry="1" /></g>
<g transform="translate(880.074891 286.119484) rotate(77.885967) scale(102.444389 48.289049)"><ellipse fill="#ffffdb" fill-opacity="0.501961" cx="0" cy="0" rx="1" ry="1" /></g>
<g transform="translate(694.639498 93.745484) rotate(129.799845) scale(76.975656 139.086489)"><ellipse fill="#000000" fill-opacity="0.501961" cx="0" cy="0" rx="1" ry="1" /></g>
<g transform="translate(725.184317 306.931422) rotate(323.595119) scale(109.415759 117.430998)"><ellipse fill="#7355ff" fill-opacity="0.501961" cx="0" cy="0" rx="1" ry="1" /></g>
<g transform="translate(484.693517 359.501871) rotate(100.038750) scale(10.000736 223.116372)"><ellipse fill="#ffffe8" fill-opacity="0.501961" cx="0" cy="0" rx="1" ry="1" /></g>
<g transform="translate(1041.316746 315.760141) rotate(220.070404) scale(190.293689 33.443543)"><ellipse fill="#000000" fill-opacity="0.501961" cx="0" cy="0" rx="1" ry="1" /></g>
<g transform="translate(76.063084 174.412227) rotate(255.305205) scale(192.207908 783.392012)"><ellipse fill="#000000" fill-opacity="0.501961" cx="0" cy="0" rx="1" ry="1" /></g>
<g transform="translate(912.527236 149.792129) rotate(392.030507) scale(131.743341 34.150662)"><ellipse fill="#e8efab" fill-opacity="0.501961" cx="0" cy="0" rx="1" ry="1" /></g>
<g transform="translate(812.658862 470.271494) rotate(195.601386) scale(48.541976 32.726726)"><ellipse fill="#fff792" fill-opacity="0.501961" cx="0" cy="0" rx="1" ry="1" /></g>
<g transform="translate(306.472358 613.547294) rotate(87.542915) scale(122.617594 446.321482)"><ellipse fill="#000000" fill-opacity="0.501961" cx="0" cy="0" rx="1" ry="1" /></g>
<g transform="translate(1170.678244 308.876349) rotate(188.143856) scale(126.645340 381.742347)"><ellipse fill="#000000" fill-opacity="0.501961" cx="0" cy="0" rx="1" ry="1" /></g>
<g transform="translate(668.709615 502.405246) rotate(305.869063) scale(127.459627 6.788159)"><ellipse fill="#ffffee" fill-opacity="0.501961" cx="0" cy="0" rx="1" ry="1" /></g>
<g transform="translate(854.709710 41.516053) rotate(311.377182) scale(95.861515 25.130519)"><ellipse fill="#c3c79f" fill-opacity="0.501961" cx="0" cy="0" rx="1" ry="1" /></g>
<g transform="translate(825.953116 373.150853) rotate(54.263636) scale(18.753522 34.993050)"><ellipse fill="#000000" fill-opacity="0.501961" cx="0" cy="0" rx="1" ry="1" /></g>
<g transform="translate(58.947341 498.474553) rotate(259.424566) scale(210.655691 93.727782)"><ellipse fill="#000000" fill-opacity="0.501961" cx="0" cy="0" rx="1" ry="1" /></g>
<g transform="translate(161.100840 310.180174) rotate(277.916177) scale(6.587762 120.985648)"><ellipse fill="#ffffdc" fill-opacity="0.501961" cx="0" cy="0" rx="1" ry="1" /></g>
<g transform="translate(826.366844 208.565757) rotate(248.555873) scale(57.657656 21.105769)"><ellipse fill="#ffffc9" fill-opacity="0.501961" cx="0" cy="0" rx="1" ry="1" /></g>
<g transform="translate(817.902610 141.658326) rotate(116.548809) scale(12.644703 42.903348)"><ellipse fill="#000000" fill-opacity="0.501961" cx="0" cy="0" rx="1" ry="1" /></g>
<g transform="translate(963.511587 288.525084) rotate(252.561984) scale(87.664630 29.183577)"><ellipse fill="#000000" fill-opacity="0.501961" cx="0" cy="0" rx="1" ry="1" /></g>
<g transform="translate(785.753498 591.097621) rotate(367.359876) scale(33.787646 155.392847)"><ellipse fill="#c4bc6e" fill-opacity="0.501961" cx="0" cy="0" rx="1" ry="1" /></g>
<g transform="translate(844.024484 410.575704) rotate(278.774129) scale(6.204283 61.614921)"><ellipse fill="#ffffff" fill-opacity="0.501961" cx="0" cy="0" rx="1" ry="1" /></g>
<g transform="translate(1008.784939 33.825955) rotate(285.454722) scale(68.073891 109.798582)"><ellipse fill="#6f7549" fill-opacity="0.501961" cx="0" cy="0" rx="1" ry="1" /></g>
<g transform="translate(321.028047 324.702059) rotate(284.730703) scale(7.309055 92.014802)"><ellipse fill="#ffffa5" fill-opacity="0.501961" cx="0" cy="0" rx="1" ry="1" /></g>
<g transform="translate(758.596396 156.314023) rotate(425.067154) scale(55.601040 36.803150)"><ellipse fill="#000000" fill-opacity="0.501961" cx="0" cy="0" rx="1" ry="1" /></g>
<g transform="translate(965.051753 417.205150) rotate(343.684962) scale(77.947608 39.664201)"><ellipse fill="#000000" fill-opacity="0.501961" cx="0" cy="0" rx="1" ry="1" /></g>
<g transform="translate(385.435770 370.060240) rotate(282.393972) scale(21.146684 100.566476)"><ellipse fill="#000002" fill-opacity="0.501961" cx="0" cy="0" rx="1" ry="1" /></g>
<g transform="translate(1021.573314 490.469484) rotate(103.751116) scale(22.444769 36.146377)"><ellipse fill="#cec56e" fill-opacity="0.501961" cx="0" cy="0" rx="1" ry="1" /></g>
<g transform="translate(265.297541 393.178332) rotate(142.957717) scale(48.656556 78.496605)"><ellipse fill="#ebdc7f" fill-opacity="0.501961" cx="0" cy="0" rx="1" ry="1" /></g>
<g transform="translate(449.070230 468.224574) rotate(203.696291) scale(129.875071 106.600413)"><ellipse fill="#080709" fill-opacity="0.501961" cx="0" cy="0" rx="1" ry="1" /></g>
<g transform="translate(590.535859 379.472593) rotate(190.974696) scale(81.621425 11.990701)"><ellipse fill="#fcefb0" fill-opacity="0.501961" cx="0" cy="0" rx="1" ry="1" /></g>
<g transform="translate(736.118835 509.110956) rotate(185.262039) scale(26.846307 86.823472)"><ellipse fill="#000001" fill-opacity="0.501961" cx="0" cy="0" rx="1" ry="1" /></g>
<g transform="translate(938.445267 605.996565) rotate(-17.324744) scale(111.122415 49.612263)"><ellipse fill="#615d35" fill-opacity="0.501961" cx="0" cy="0" rx="1" ry="1" /></g>
<g transform="translate(893.276175 332.869605) rotate(266.133638) scale(45.381402 33.896455)"><ellipse fill="#ffffc6" fill-opacity="0.501961" cx="0" cy="0" rx="1" ry="1" /></g>
<g transform="translate(627.017370 461.785963) rotate(408.557143) scale(53.595488 65.707469)"><ellipse fill="#020103" fill-opacity="0.501961" cx="0" cy="0" rx="1" ry="1" /></g>
<g transform="translate(585.410323 243.302976) rotate(412.486262) scale(25.897864 170.450147)"><ellipse fill="#050406" fill-opacity="0.501961" cx="0" cy="0" rx="1" ry="1" /></g>
<g transform="translate(661.272711 304.729246) rotate(157.367715) scale(47.256036 70.364953)"><ellipse fill="#8772ff" fill-opacity="0.501961" cx="0" cy="0" rx="1" ry="1" /></g>
<g transform="translate(240.841431 490.768151) rotate(70.042586) scale(25.184750 48.548970)"><ellipse fill="#c9bc6d" fill-opacity="0.501961" cx="0" cy="0" rx="1" ry="1" /></g>
<g transform="translate(585.814346 331.298187) rotate(399.418966) scale(49.970530 28.648829)"><ellipse fill="#020102" fill-opacity="0.501961" cx="0" cy="0" rx="1" ry="1" /></g>
<g transform="translate(450.619502 270.550329) rotate(144.860276) scale(85.733090 64.799701)"><ellipse fill="#100f11" fill-opacity="0.501961" cx="0" cy="0" rx="1" ry="1" /></g>
<g transform="translate(697.710323 374.791122) rotate(263.453226) scale(23.920237 64.550693)"><ellipse fill="#735eff" fill-opacity="0.501961" cx="0" cy="0" rx="1" ry="1" /></g>
<g transform="translate(967.283906 119.995669) rotate(212.445038) scale(91.839911 53.619820)"><ellipse fill="#b7bc8c" fill-opacity="0.501961" cx="0" cy="0" rx="1" ry="1" /></g>
<g transform="translate(712.787834 297.468861) rotate(378.993950) scale(92.446657 106.987924)"><ellipse fill="#7f6cff" fill-opacity="0.501961" cx="0" cy="0" rx="1" ry="1" /></g>
<g transform="translate(885.768969 247.865533) rotate(241.490070) scale(78.092370 34.808808)"><ellipse fill="#f4efaa" fill-opacity="0.501961" cx="0" cy="0" rx="1" ry="1" /></g>
<g transform="translate(996.482447 318.095861) rotate(119.505890) scale(89.384532 58.151913)"><ellipse fill="#100f10" fill-opacity="0.501961" cx="0" cy="0" rx="1" ry="1" /></g>
<g transform="translate(880.966067 484.922491) rotate(83.472379) scale(29.353647 74.950090)"><ellipse fill="#cdc478" fill-opacity="0.501961" cx="0" cy="0" rx="1" ry="1" /></g>
<g transform="translate(484.650077 357.744525) rotate(278.067245) scale(5.591935 51.514527)"><ellipse fill="#ffffea" fill-opacity="0.501961" cx="0" cy="0" rx="1" ry="1" /></g>
<g transform="translate(856.920636 379.279695) rotate(301.786620) scale(18.582804 42.242550)"><ellipse fill="#000000" fill-opacity="0.501961" cx="0" cy="0" rx="1" ry="1" /></g>
<g transform="translate(698.539372 411.107633) rotate(284.899299) scale(6.479123 35.826967)"><ellipse fill="#ffff58" fill-opacity="0.501961" cx="0" cy="0" rx="1" ry="1" /></g>
<g transform="translate(296.218644 476.662621) rotate(316.880087) scale(26.775258 19.278500)"><ellipse fill="#d8cc75" fill-opacity="0.501961" cx="0" cy="0" rx="1" ry="1" /></g>
<g transform="translate(1148.763264 560.030261) rotate(390.413322) scale(95.283827 145.662386)"><ellipse fill="#000000" fill-opacity="0.501961" cx="0" cy="0" rx="1" ry="1" /></g>
<g transform="translate(1080.357360 155.118918) rotate(126.873735) scale(125.415506 20.785066)"><ellipse fill="#040405" fill-opacity="0.501961" cx="0" cy="0" rx="1" ry="1" /></g>
<g transform="translate(1043.993965 234.470954) rotate(118.108366) scale(3.074263 51.381859)"><ellipse fill="#edeed0" fill-opacity="0.501961" cx="0" cy="0" rx="1" ry="1" /></g>
<g transform="translate(1174.204788 162.198298) rotate(270.243127) scale(259.596302 61.957612)"><ellipse fill="#040404" fill-opacity="0.501961" cx="0" cy="0" rx="1" ry="1" /></g>
<g transform="translate(1069.849408 103.358667) rotate(29.833240) scale(14.190785 69.987993)"><ellipse fill="#94967c" fill-opacity="0.501961" cx="0" cy="0" rx="1" ry="1" /></g>
<g transform="translate(1022.317715 0.000000) rotate(-69.555685) scale(49.992569 112.195291)"><ellipse fill="#52534a" fill-opacity="0.501961" cx="0" cy="0" rx="1" ry="1" /></g>
<g transform="translate(99.791978 120.746117) rotate(151.646855) scale(390.404138 137.062412)"><ellipse fill="#050506" fill-opacity="0.501961" cx="0" cy="0" rx="1" ry="1" /></g>
<g transform="translate(628.861575 387.698515) rotate(12.248829) scale(39.092250 3.226477)"><ellipse fill="#100b2a" fill-opacity="0.501961" cx="0" cy="0" rx="1" ry="1" /></g>
<g transform="translate(852.718792 262.680979) rotate(76.057388) scale(109.474434 27.618509)"><ellipse fill="#f4eeb7" fill-opacity="0.501961" cx="0" cy="0" rx="1" ry="1" /></g>
<g transform="translate(368.845668 340.705362) rotate(7.296225) scale(96.487832 6.369876)"><ellipse fill="#ffffcc" fill-opacity="0.501961" cx="0" cy="0" rx="1" ry="1" /></g>
<g transform="translate(876.387606 437.881036) rotate(185.088116) scale(80.564720 13.263931)"><ellipse fill="#04030c" fill-opacity="0.501961" cx="0" cy="0" rx="1" ry="1" /></g>
<g transform="translate(923.700769 210.075281) rotate(226.579352) scale(32.210724 14.366315)"><ellipse fill="#000000" fill-opacity="0.501961" cx="0" cy="0" rx="1" ry="1" /></g>
<g transform="translate(693.707354 504.733649) rotate(212.798131) scale(17.695651 51.218229)"><ellipse fill="#050506" fill-opacity="0.501961" cx="0" cy="0" rx="1" ry="1" /></g>
<g transform="translate(299.120349 345.056651) rotate(292.513122) scale(9.340823 26.007112)"><ellipse fill="#00000d" fill-opacity="0.501961" cx="0" cy="0" rx="1" ry="1" /></g>
<g transform="translate(163.282179 499.781942) rotate(129.081334) scale(17.374539 97.100535)"><ellipse fill="#060507" fill-opacity="0.501961" cx="0" cy="0" rx="1" ry="1" /></g>
<g transform="translate(1027.381797 528.930927) rotate(197.907844) scale(21.357857 62.641725)"><ellipse fill="#86804e" fill-opacity="0.501961" cx="0" cy="0" rx="1" ry="1" /></g>
<g transform="translate(157.914644 444.296854) rotate(285.584654) scale(26.206332 18.017677)"><ellipse fill="#baae60" fill-opacity="0.501961" cx="0" cy="0" rx="1" ry="1" /></g>
<g transform="translate(573.982284 410.645768) rotate(190.082874) scale(141.166955 21.087619)"><ellipse fill="#161515" fill-opacity="0.501961" cx="0" cy="0" rx="1" ry="1" /></g>
<g transform="translate(627.986886 395.524826) rotate(13.898074) scale(94.293741 5.556293)"><ellipse fill="#f2e86b" fill-opacity="0.501961" cx="0" cy="0" rx="1" ry="1" /></g>
<g transform="translate(132.149800 385.681081) rotate(277.451817) scale(68.019545 18.500577)"><ellipse fill="#050506" fill-opacity="0.501961" cx="0" cy="0" rx="1" ry="1" /></g>
<g transform="translate(782.426165 402.623935) rotate(313.735551) scale(83.635872 3.859968)"><ellipse fill="#131502" fill-opacity="0.501961" cx="0" cy="0" rx="1" ry="1" /></g>
<g transform="translate(772.162111 128.990816) rotate(289.099532) scale(15.918673 90.902926)"><ellipse fill="#14130e" fill-opacity="0.501961" cx="0" cy="0" rx="1" ry="1" /></g>
<g transform="translate(541.170533 259.762525) rotate(109.339193) scale(101.238037 66.254890)"><ellipse fill="#1a181a" fill-opacity="0.501961" cx="0" cy="0" rx="1" ry="1" /></g>
<g transform="translate(1035.445747 431.295329) rotate(174.942757) scale(69.825563 39.095258)"><ellipse fill="#0b0a0c" fill-opacity="0.501961" cx="0" cy="0" rx="1" ry="1" /></g>
<g transform="translate(887.567168 180.672075) rotate(303.381867) scale(11.744216 6.359346)"><ellipse fill="#000000" fill-opacity="0.501961" cx="0" cy="0" rx="1" ry="1" /></g>
<g transform="translate(696.334268 142.316622) rotate(210.015102) scale(114.008976 31.033925)"><ellipse fill="#1e1c1c" fill-opacity="0.501961" cx="0" cy="0" rx="1" ry="1" /></g>
<g transform="translate(873.382098 31.079389) rotate(36.655251) scale(39.015062 75.231481)"><ellipse fill="#95967c" fill-opacity="0.501961" cx="0" cy="0" rx="1" ry="1" /></g>
<g transform="translate(249.628694 603.851453) rotate(92.432238) scale(58.845315 364.173351)"><ellipse fill="#060607" fill-opacity="0.501961" cx="0" cy="0" rx="1" ry="1" /></g>
<g transform="translate(815.946332 607.115695) rotate(107.809288) scale(46.994301 65.242079)"><ellipse fill="#89844d" fill-opacity="0.501961" cx="0" cy="0" rx="1" ry="1" /></g>
<g transform="translate(191.020412 388.448003) rotate(228.830991) scale(46.308572 30.024257)"><ellipse fill="#cabd6d" fill-opacity="0.501961" cx="0" cy="0" rx="1" ry="1" /></g>
<g transform="translate(801.472537 338.399102) rotate(29.211007) scale(25.442299 48.091803)"><ellipse fill="#7b68ff" fill-opacity="0.501961" cx="0" cy="0" rx="1" ry="1" /></g>
<g transform="translate(45.785298 489.230785) rotate(277.394670) scale(135.791990 71.560023)"><ellipse fill="#080708" fill-opacity="0.501961" cx="0" cy="0" rx="1" ry="1" /></g>
<g transform="translate(361.943575 301.999731) rotate(179.910409) scale(73.346362 20.703229)"><ellipse fill="#121112" fill-opacity="0.501961" cx="0" cy="0" rx="1" ry="1" /></g>
<g transform="translate(593.467588 313.974563) rotate(242.691150) scale(64.909768 20.844234)"><ellipse fill="#1b1a1b" fill-opacity="0.501961" cx="0" cy="0" rx="1" ry="1" /></g>
<g transform="translate(794.210122 232.212160) rotate(222.775281) scale(27.481008 22.689208)"><ellipse fill="#725eff" fill-opacity="0.501961" cx="0" cy="0" rx="1" ry="1" /></g>
<g transform="translate(890.365208 414.010858) rotate(193.825210) scale(15.199667 4.432408)"><ellipse fill="#f7f2b9" fill-opacity="0.501961" cx="0" cy="0" rx="1" ry="1" /></g>
<g transform="translate(841.986889 492.139897) rotate(9.779885) scale(75.562952 46.751952)"><ellipse fill="#c3bb72" fill-opacity="0.501961" cx="0" cy="0" rx="1" ry="1" /></g>
<g transform="translate(778.625986 62.816660) rotate(213.373988) scale(25.460615 139.673111)"><ellipse fill="#101010" fill-opacity="0.501961" cx="0" cy="0" rx="1" ry="1" /></g>
<g transform="translate(629.782890 280.421400) rotate(46.070137) scale(25.169611 20.967730)"><ellipse fill="#8b76ff" fill-opacity="0.501961" cx="0" cy="0" rx="1" ry="1" /></g>
<g transform="translate(436.642016 340.026729) rotate(100.943949) scale(3.419708 74.478101)"><ellipse fill="#0d0a09" fill-opacity="0.501961" cx="0" cy="0" rx="1" ry="1" /></g>
<g transform="translate(935.489383 371.613205) rotate(23.255181) scale(17.780481 53.635625)"><ellipse fill="#0f0e10" fill-opacity="0.501961" cx="0" cy="0" rx="1" ry="1" /></g>
<g transform="translate(735.806552 536.787615) rotate(272.495672) scale(3.998434 40.038993)"><ellipse fill="#a19b5e" fill-opacity="0.501961" cx="0" cy="0" rx="1" ry="1" /></g>
<g transform="translate(994.305972 486.573808) rotate(188.707138) scale(56.457625 19.525426)"><ellipse fill="#aba463" fill-opacity="0.501961" cx="0" cy="0" rx="1" ry="1" /></g>
<g transform="translate(507.146202 363.773757) rotate(98.765979) scale(6.559870 64.389127)"><ellipse fill="#ffffbc" fill-opacity="0.501961" cx="0" cy="0" rx="1" ry="1" /></g>
<g transform="translate(805.416856 191.511820) rotate(83.657039) scale(24.070560 8.705014)"><ellipse fill="#fffbbe" fill-opacity="0.501961" cx="0" cy="0" rx="1" ry="1" /></g>
<g transform="translate(678.429013 488.109449) rotate(215.730045) scale(4.735507 32.801738)"><ellipse fill="#ffffdb" fill-opacity="0.501961" cx="0" cy="0" rx="1" ry="1" /></g>
<g transform="translate(966.504887 268.378977) rotate(369.261831) scale(35.946532 40.413701)"><ellipse fill="#151411" fill-opacity="0.501961" cx="0" cy="0" rx="1" ry="1" /></g>
<g transform="translate(808.207458 111.063131) rotate(117.420534) scale(9.001462 25.700549)"><ellipse fill="#e0e1bc" fill-opacity="0.501961" cx="0" cy="0" rx="1" ry="1" /></g>
<g transform="translate(743.912381 397.229126) rotate(268.378500) scale(20.786493 32.228435)"><ellipse fill="#7b69ff" fill-opacity="0.501961" cx="0" cy="0" rx="1" ry="1" /></g>
</g>
</svg>