<svg xmlns="http://www.w3.org/2000/svg" version="1.1" width="1200" height="630">
<rect x="0" y="0" width="1200" height="630" fill="#373942" />
<g transform="scale(1.000000) translate(0.5 0.5)">
<polygon fill="#ffffff" fill-opacity="0.501961" points="477.370261,580.552981,495.377801,360.142200,718.427467,376.107250,700.342132,599.252091" />
<polygon fill="#ffff8d" fill-opacity="0.501961" points="673.645035,-1.975505,576.615731,229.299398,311.901620,166.315136,356.233065,-16.000000" />
<polygon fill="#ebc8fb" fill-opacity="0.501961" points="1215.000000,221.964086,1048.817987,245.804025,990.555480,398.392040,1175.849659,505.264253" />
<polygon fill="#fffcff" fill-opacity="0.501961" points="705.117149,553.643055,484.391682,540.665432,494.472025,360.804457,713.454451,376.957580" />
<polygon fill="#00000c" fill-opacity="0.501961" points="204.592698,645.000000,-16.000000,86.130015,-16.000000,-16.000000,351.135179,-16.000000" />
<polygon fill="#000013" fill-opacity="0.501961" points="1215.000000,213.124448,1199.221031,-16.000000,788.881944,-16.000000,461.135953,371.157215" />
<polygon fill="#ffd47e" fill-opacity="0.501961" points="501.382642,210.559127,585.129859,233.692718,623.717830,42.212281,299.741726,160.129970" />
<polygon fill="#00000c" fill-opacity="0.501961" points="1215.000000,539.304809,1215.000000,633.056951,954.737163,645.000000,618.391116,266.997456" />
<polygon fill="#ded7a5" fill-opacity="0.501961" points="-11.488005,182.651992,-16.000000,270.608121,25.346847,289.651418,62.899072,181.242505" />
<polygon fill="#df9700" fill-opacity="0.501961" points="890.745316,559.912331,775.375626,571.792464,743.726086,645.000000,943.252774,645.000000" />
<polygon fill="#00061b" fill-opacity="0.501961" points="-16.000000,288.255545,482.433096,200.709947,482.949719,645.000000,-11.735144,645.000000" />
<polygon fill="#dfbdf4" fill-opacity="0.501961" points="725.186954,104.059337,688.766040,-16.000000,592.047871,134.477770,665.076784,44.275504" />
<polygon fill="#06162b" fill-opacity="0.501961" points="1002.681218,392.192158,868.233335,-15.002620,700.708350,544.911305,1160.628634,597.070961" />
<polygon fill="#b9a3c9" fill-opacity="0.501961" points="1089.793756,502.397584,994.324682,383.140396,1056.053672,234.489031,1132.052258,492.647969" />
<polygon fill="#00000b" fill-opacity="0.501961" points="753.943001,599.606836,750.746148,645.000000,115.744697,627.069821,473.825886,584.348231" />
<polygon fill="#a573d8" fill-opacity="0.501961" points="564.743315,521.710114,549.550743,514.002884,263.105029,586.156909,253.340701,597.315264" />
<polygon fill="#000003" fill-opacity="0.501961" points="1071.108647,502.319661,1206.139764,481.471639,1215.000000,635.378613,913.814510,633.169000" />
<polygon fill="#d4d2ac" fill-opacity="0.501961" points="86.548195,207.847112,181.012840,155.140643,184.082281,161.509793,5.753210,265.641531" />
<polygon fill="#000321" fill-opacity="0.501961" points="666.118805,54.994655,613.460566,109.535458,589.912767,211.639664,709.834343,85.535667" />
<polygon fill="#fae6ff" fill-opacity="0.501961" points="514.479358,508.194102,494.763794,360.484838,565.593454,366.706468,724.822536,381.183056" />
<polygon fill="#7e6e88" fill-opacity="0.501961" points="1087.749404,503.184706,1057.094693,459.506418,1196.263430,222.305086,1215.000000,478.883651" />
<polygon fill="#977cbb" fill-opacity="0.501961" points="642.015624,-16.000000,789.434687,8.873602,679.542483,27.634959,615.441222,112.056051" />
<polygon fill="#00090f" fill-opacity="0.501961" points="695.641987,25.518593,1215.000000,232.576842,1215.000000,-6.441292,966.751799,-16.000000" />
<polygon fill="#00050d" fill-opacity="0.501961" points="353.547198,-16.000000,-16.000000,-15.520744,-9.989461,183.246271,181.577285,158.206798" />
<polygon fill="#18273e" fill-opacity="0.501961" points="577.756952,228.274238,1121.582011,230.764167,68.031437,455.048393,194.857926,137.905490" />
<polygon fill="#8d653a" fill-opacity="0.501961" points="334.196979,67.342525,354.098174,-16.000000,643.866793,-16.000000,635.928962,26.294546" />
<polygon fill="#121c2e" fill-opacity="0.501961" points="910.706684,590.867697,1027.325706,298.859663,1102.200601,126.936817,765.079518,-16.000000" />
<polygon fill="#01070b" fill-opacity="0.501961" points="-0.521843,645.000000,186.940893,605.233722,44.729419,239.713764,-16.000000,410.700601" />
<polygon fill="#baaac8" fill-opacity="0.501961" points="494.648477,475.778301,478.517190,580.175011,731.568393,573.793512,662.204188,510.076560" />
<polygon fill="#c29a5c" fill-opacity="0.501961" points="338.803205,50.874772,314.062368,150.192757,618.612355,103.796029,628.592476,23.878511" />
<polygon fill="#18273e" fill-opacity="0.501961" points="707.931211,372.676226,510.543929,360.893709,682.319074,61.770884,957.597434,549.530555" />
<polygon fill="#f9d182" fill-opacity="0.501961" points="377.305726,216.312668,613.821714,105.438280,585.155717,230.704523,413.857852,190.586685" />
<polygon fill="#0a1428" fill-opacity="0.501961" points="717.866767,366.783195,706.954315,548.223945,749.108269,585.133880,858.921824,542.383929" />
<polygon fill="#987eb9" fill-opacity="0.501961" points="293.847088,197.434590,255.315038,115.781976,271.570075,169.958374,343.042360,219.768765" />
<polygon fill="#ede0ff" fill-opacity="0.501961" points="627.017213,488.685432,491.897072,362.412185,716.194269,376.966657,712.154789,446.141521" />
<polygon fill="#9868c2" fill-opacity="0.501961" points="689.869718,540.639972,708.374043,569.803788,764.789181,612.629040,764.392758,593.926832" />
<polygon fill="#59337b" fill-opacity="0.501961" points="298.643895,575.184698,107.336683,626.242804,195.532051,612.922551,286.722221,589.148983" />
<polygon fill="#76687f" fill-opacity="0.501961" points="1086.372329,496.853786,1175.388305,381.263675,1203.290588,198.886048,1202.560741,484.319546" />
<polygon fill="#796798" fill-opacity="0.501961" points="309.511123,35.765802,277.601034,62.064761,257.181536,147.064768,262.834708,83.231339" />
<polygon fill="#5f5942" fill-opacity="0.501961" points="-15.221604,539.973440,70.322649,604.428238,122.654188,645.000000,21.768165,579.971568" />
<polygon fill="#9988a7" fill-opacity="0.501961" points="1029.952875,417.508883,1175.540668,274.022876,1091.599362,502.738275,1022.030181,417.678983" />
<polygon fill="#0c1527" fill-opacity="0.501961" points="1052.358372,202.073090,974.658860,449.543733,1053.474834,462.225222,938.776256,311.324908" />
<polygon fill="#ba95de" fill-opacity="0.501961" points="365.012823,213.233789,366.049733,219.949884,312.330066,208.484710,331.713576,209.154650" />
<polygon fill="#131e2e" fill-opacity="0.501961" points="-16.000000,283.024703,206.672312,593.131729,484.478881,527.990503,495.207214,372.436392" />
<polygon fill="#ad99bd" fill-opacity="0.501961" points="1060.513515,241.976299,997.235412,385.266475,1116.162356,348.894808,1109.971317,236.630647" />
<polygon fill="#182436" fill-opacity="0.501961" points="576.133814,263.664453,613.438408,114.729168,654.750987,62.601756,1041.987402,271.867374" />
<polygon fill="#84768e" fill-opacity="0.501961" points="643.480735,54.222176,636.432664,-16.000000,789.340134,11.157017,705.899578,22.982722" />
<polygon fill="#01070c" fill-opacity="0.501961" points="1153.799971,487.766230,1093.326197,645.000000,1215.000000,628.400913,1215.000000,487.261564" />
<polygon fill="#020406" fill-opacity="0.501961" points="1215.000000,125.538376,1215.000000,42.526937,1195.258176,-16.000000,993.643153,4.334374" />
<polygon fill="#a67c13" fill-opacity="0.501961" points="780.392353,561.941088,785.884228,568.854250,902.584670,559.525479,754.818515,621.719244" />
<polygon fill="#020c1c" fill-opacity="0.501961" points="700.740355,637.754558,703.769879,566.678984,761.105150,611.477642,727.032316,641.894848" />
<polygon fill="#6c5a88" fill-opacity="0.501961" points="261.867344,88.267874,296.944541,44.199947,365.103916,23.794592,317.934880,28.679122" />
<polygon fill="#937bb1" fill-opacity="0.501961" points="260.476070,94.902968,272.263337,171.993201,310.359008,207.890566,264.609327,153.924544" />
<polygon fill="#0d141e" fill-opacity="0.501961" points="1142.912249,492.037499,850.313237,535.766588,1003.045089,645.000000,1215.000000,485.420204" />
<polygon fill="#1a2437" fill-opacity="0.501961" points="719.940464,481.541980,714.842707,210.826528,901.568560,107.099342,937.597074,485.787498" />
<polygon fill="#b58fe1" fill-opacity="0.501961" points="402.378584,206.546740,438.353733,175.658808,454.943539,93.543979,449.344444,149.440388" />
<polygon fill="#b1a8bc" fill-opacity="0.501961" points="702.958093,579.372091,456.512037,537.114984,653.191590,527.040965,709.084371,497.378990" />
<polygon fill="#ccae6c" fill-opacity="0.501961" points="313.715138,152.228588,331.715527,107.065034,537.224364,67.272486,339.605788,172.155867" />
<polygon fill="#0a1627" fill-opacity="0.501961" points="701.627154,22.056528,712.245297,63.579788,775.587193,133.151806,778.210795,13.900156" />
<polygon fill="#060e1b" fill-opacity="0.501961" points="763.046294,594.402707,778.032623,570.989967,851.271570,557.825605,705.046237,546.134832" />
<polygon fill="#a997b7" fill-opacity="0.501961" points="700.670863,32.555385,721.855701,96.565779,714.163752,94.942860,664.021769,44.767192" />
<polygon fill="#d4c8e4" fill-opacity="0.501961" points="712.068542,446.442471,490.709774,426.885474,485.138039,509.579134,700.731998,501.718200" />
<polygon fill="#18243a" fill-opacity="0.501961" points="403.997950,494.960067,319.050388,424.664616,413.726269,192.305353,586.596713,233.046253" />
<polygon fill="#0a1428" fill-opacity="0.501961" points="281.376827,74.568091,306.229036,201.108331,412.136558,195.583078,315.596889,167.462917" />
<polygon fill="#9b987f" fill-opacity="0.501961" points="18.575852,289.496132,18.128796,251.014359,126.391261,186.490186,41.683733,248.720578" />
<polygon fill="#a38d58" fill-opacity="0.501961" points="615.266197,74.808828,637.546539,14.647111,421.163583,29.791519,333.774632,71.079306" />
<polygon fill="#010507" fill-opacity="0.501961" points="1.533767,112.085569,94.594011,50.387953,205.367050,2.829129,-1.992269,-8.059305" />
<polygon fill="#71550a" fill-opacity="0.501961" points="877.760307,601.904105,746.486262,629.999829,946.747474,645.000000,910.899527,591.305881" />
<polygon fill="#121a28" fill-opacity="0.501961" points="40.315157,249.009028,122.142413,551.217748,261.616373,125.164000,107.921750,202.542486" />
<polygon fill="#0b121c" fill-opacity="0.501961" points="171.178962,606.803459,324.674184,569.333621,374.721813,553.241308,250.369680,478.194079" />
<polygon fill="#0a131d" fill-opacity="0.501961" points="534.758754,645.000000,459.261213,553.576271,390.541361,566.012087,116.677813,632.776371" />
<polygon fill="#000000" fill-opacity="0.501961" points="52.277854,602.543073,-6.842428,554.986088,-10.001283,630.099693,115.922694,645.000000" />
<polygon fill="#1a253b" fill-opacity="0.501961" points="899.429224,374.210364,614.787659,144.022972,540.942118,358.891131,673.626927,373.543768" />
<polygon fill="#0e1622" fill-opacity="0.501961" points="1029.001141,247.881826,1016.887415,52.665161,1215.000000,219.931190,1119.663416,233.755154" />
<polygon fill="#80718b" fill-opacity="0.501961" points="1215.000000,221.529125,1199.052033,450.360628,1188.553531,434.408824,1135.856462,231.374186" />
<polygon fill="#b6b395" fill-opacity="0.501961" points="90.308785,212.891736,172.167578,167.356247,185.388234,157.810105,133.227832,181.281050" />
<polygon fill="#0f1826" fill-opacity="0.501961" points="156.092407,39.658765,271.522816,80.168947,48.711091,232.499562,56.839945,202.567847" />
<polygon fill="#79693f" fill-opacity="0.501961" points="437.590264,16.462207,348.372936,25.371433,352.350297,-10.166087,554.005560,-1.905701" />
<polygon fill="#957b9f" fill-opacity="0.501961" points="436.455864,72.027412,383.519499,22.677955,443.983573,63.789773,456.765116,138.220553" />
<polygon fill="#928f79" fill-opacity="0.501961" points="27.734026,289.101774,12.783681,284.084457,30.697903,182.566084,59.922504,189.623923" />
<polygon fill="#efcd7d" fill-opacity="0.501961" points="452.919139,146.223071,600.030790,160.220486,583.854967,230.162825,427.489818,189.367555" />
<polygon fill="#182132" fill-opacity="0.501961" points="417.742197,214.352672,346.062361,217.154356,212.535712,187.420233,211.957873,501.520037" />
<polygon fill="#a692bf" fill-opacity="0.501961" points="623.508801,62.835414,616.673393,112.104764,657.875304,51.904540,645.251743,27.177800" />
<polygon fill="#9278c2" fill-opacity="0.501961" points="380.397221,210.279612,437.770794,182.059013,389.573187,213.200968,359.685850,215.146147" />
<polygon fill="#d6b870" fill-opacity="0.501961" points="451.069456,114.471884,617.364689,90.094174,603.484107,144.432918,466.877795,187.434826" />
<polygon fill="#eae0f9" fill-opacity="0.501961" points="662.126036,375.232196,491.835981,459.752084,492.105774,435.415679,496.133321,361.522399" />
<polygon fill="#0b1523" fill-opacity="0.501961" points="317.309955,622.098996,782.969984,645.000000,687.914053,602.237840,454.631264,580.380692" />
<polygon fill="#151d2c" fill-opacity="0.501961" points="829.120529,567.894852,1048.136588,454.525020,986.192615,372.610511,1026.113513,97.021974" />
<polygon fill="#0f1727" fill-opacity="0.501961" points="614.194067,109.550701,735.892288,112.351072,659.690502,52.110808,603.721078,162.542802" />
<polygon fill="#9e95a8" fill-opacity="0.501961" points="479.617131,582.541816,485.504168,555.987498,620.239971,593.306074,536.457318,586.591288" />
<polygon fill="#060910" fill-opacity="0.501961" points="102.966890,627.767046,9.934236,555.564445,-16.000000,490.534627,205.399495,591.555866" />
<polygon fill="#131c31" fill-opacity="0.501961" points="291.619883,186.722575,418.449726,191.920011,375.129391,212.683885,318.895988,205.108739" />
<polygon fill="#695e74" fill-opacity="0.501961" points="1126.023334,496.489872,1183.823295,484.654921,1215.000000,417.342641,1172.451588,432.815709" />
<polygon fill="#774ab3" fill-opacity="0.501961" points="435.650842,541.111440,374.611942,565.418438,480.335916,541.055918,485.469032,529.669269" />
<polygon fill="#80728b" fill-opacity="0.501961" points="779.452064,13.679308,640.297147,22.786864,639.195789,-16.000000,726.805287,-16.000000" />
<polygon fill="#1a2438" fill-opacity="0.501961" points="490.282917,409.816473,513.241445,214.256510,189.122187,297.185022,483.971551,513.359666" />
<polygon fill="#af9bbf" fill-opacity="0.501961" points="995.671021,384.464431,1000.198988,375.365879,1044.831012,262.189743,1060.208063,462.196861" />
<polygon fill="#a488c2" fill-opacity="0.501961" points="279.428161,179.700176,298.960056,197.270568,305.278310,201.796330,330.749854,213.273729" />
<polygon fill="#101826" fill-opacity="0.501961" points="184.199708,156.904526,251.308518,188.860188,271.795913,27.202772,31.744837,181.114973" />
<polygon fill="#121926" fill-opacity="0.501961" points="844.723810,-13.492726,1171.798474,224.327189,723.693866,103.646624,706.858238,36.405834" />
</g>
</svg>