<svg xmlns="http://www.w3.org/2000/svg" version="1.1" width="1200" height="630">
<rect x="0" y="0" width="1200" height="630" fill="#333029" />
<g transform="scale(1.000000) translate(0.5 0.5)">
<ellipse fill="#ffff70" fill-opacity="0.501961" cx="606" cy="435" rx="178" ry="206" />
<ellipse fill="#2c70ff" fill-opacity="0.501961" cx="360" cy="418" rx="129" ry="182" />
<ellipse fill="#ffc133" fill-opacity="0.501961" cx="627" cy="516" rx="150" ry="290" />
<ellipse fill="#a2956d" fill-opacity="0.501961" cx="1003" cy="48" rx="83" ry="71" />
<ellipse fill="#fff679" fill-opacity="0.501961" cx="506" cy="301" rx="50" ry="41" />
<ellipse fill="#000000" fill-opacity="0.501961" cx="505" cy="194" rx="137" ry="59" />
<ellipse fill="#d89907" fill-opacity="0.501961" cx="784" cy="607" rx="39" ry="64" />
<ellipse fill="#fff168" fill-opacity="0.501961" cx="756" cy="369" rx="33" ry="48" />
<ellipse fill="#4168ff" fill-opacity="0.501961" cx="379" cy="361" rx="100" ry="121" />
<ellipse fill="#decd98" fill-opacity="0.501961" cx="1033" cy="127" rx="17" ry="55" />
<ellipse fill="#955f00" fill-opacity="0.501961" cx="622" cy="582" rx="161" ry="81" />
<ellipse fill="#000000" fill-opacity="0.501961" cx="1039" cy="428" rx="258" ry="348" />
<ellipse fill="#c4b589" fill-opacity="0.501961" cx="1030" cy="104" rx="24" ry="64" />
<ellipse fill="#000000" fill-opacity="0.501961" cx="464" cy="567" rx="22" ry="41" />
<ellipse fill="#000000" fill-opacity="0.501961" cx="93" cy="516" rx="144" ry="305" />
<ellipse fill="#000000" fill-opacity="0.501961" cx="333" cy="73" rx="578" ry="169" />
<ellipse fill="#ffe16c" fill-opacity="0.501961" cx="610" cy="349" rx="130" ry="111" />
<ellipse fill="#000000" fill-opacity="0.501961" cx="783" cy="487" rx="19" ry="49" />
<ellipse fill="#9cffff" fill-opacity="0.501961" cx="787" cy="292" rx="57" ry="6" />
<ellipse fill="#000002" fill-opacity="0.501961" cx="785" cy="194" rx="142" ry="92" />
<ellipse fill="#000000" fill-opacity="0.501961" cx="1186" cy="430" rx="173" ry="439" />
<ellipse fill="#fbe8ac" fill-opacity="0.501961" cx="922" cy="99" rx="22" ry="21" />
<ellipse fill="#000000" fill-opacity="0.501961" cx="228" cy="623" rx="243" ry="50" />
<ellipse fill="#9e926c" fill-opacity="0.501961" cx="1113" cy="68" rx="32" ry="23" />
<ellipse fill="#6db4d3" fill-opacity="0.501961" cx="234" cy="245" rx="82" ry="7" />
<ellipse fill="#8dfbff" fill-opacity="0.501961" cx="463" cy="264" rx="44" ry="6" />
<ellipse fill="#a2c1c5" fill-opacity="0.501961" cx="209" cy="301" rx="26" ry="13" />
<ellipse fill="#1f45df" fill-opacity="0.501961" cx="460" cy="413" rx="28" ry="95" />
<ellipse fill="#80a4b1" fill-opacity="0.501961" cx="504" cy="0" rx="437" ry="5" />
<ellipse fill="#99f5ff" fill-opacity="0.501961" cx="753" cy="288" rx="39" ry="5" />
<ellipse fill="#000000" fill-opacity="0.501961" cx="53" cy="252" rx="79" ry="86" />
<ellipse fill="#d5ffff" fill-opacity="0.501961" cx="404" cy="239" rx="17" ry="6" />
<ellipse fill="#fffaba" fill-opacity="0.501961" cx="900" cy="121" rx="12" ry="11" />
<ellipse fill="#28419f" fill-opacity="0.501961" cx="348" cy="580" rx="58" ry="24" />
<ellipse fill="#86aebd" fill-opacity="0.501961" cx="162" cy="313" rx="26" ry="8" />
<ellipse fill="#000000" fill-opacity="0.501961" cx="904" cy="38" rx="32" ry="23" />
<ellipse fill="#ffcc57" fill-opacity="0.501961" cx="753" cy="355" rx="38" ry="27" />
<ellipse fill="#81a7b5" fill-opacity="0.501961" cx="126" cy="325" rx="25" ry="8" />
<ellipse fill="#ace4fc" fill-opacity="0.501961" cx="251" cy="287" rx="19" ry="6" />
<ellipse fill="#94ecff" fill-opacity="0.501961" cx="297" cy="250" rx="35" ry="5" />
<ellipse fill="#e5d4a0" fill-opacity="0.501961" cx="1036" cy="169" rx="8" ry="26" />
<ellipse fill="#b3a67d" fill-opacity="0.501961" cx="948" cy="72" rx="30" ry="27" />
<ellipse fill="#789ba9" fill-opacity="0.501961" cx="88" cy="336" rx="25" ry="8" />
<ellipse fill="#08090f" fill-opacity="0.501961" cx="498" cy="234" rx="71" ry="28" />
<ellipse fill="#ffd54f" fill-opacity="0.501961" cx="483" cy="295" rx="29" ry="18" />
<ellipse fill="#a97d19" fill-opacity="0.501961" cx="801" cy="627" rx="33" ry="58" />
<ellipse fill="#000000" fill-opacity="0.501961" cx="225" cy="269" rx="32" ry="21" />
<ellipse fill="#ffe467" fill-opacity="0.501961" cx="632" cy="235" rx="22" ry="14" />
<ellipse fill="#cbc9aa" fill-opacity="0.501961" cx="146" cy="225" rx="10" ry="10" />
<ellipse fill="#2d4bc3" fill-opacity="0.501961" cx="423" cy="506" rx="41" ry="51" />
<ellipse fill="#a1fbff" fill-opacity="0.501961" cx="825" cy="296" rx="19" ry="5" />
<ellipse fill="#df9f1b" fill-opacity="0.501961" cx="634" cy="517" rx="121" ry="44" />
<ellipse fill="#395ad3" fill-opacity="0.501961" cx="270" cy="398" rx="31" ry="83" />
<ellipse fill="#ffc459" fill-opacity="0.501961" cx="746" cy="386" rx="37" ry="72" />
<ellipse fill="#000000" fill-opacity="0.501961" cx="1160" cy="20" rx="53" ry="44" />
<ellipse fill="#000000" fill-opacity="0.501961" cx="209" cy="369" rx="29" ry="54" />
<ellipse fill="#ffffd9" fill-opacity="0.501961" cx="232" cy="326" rx="8" ry="9" />
<ellipse fill="#978c68" fill-opacity="0.501961" cx="1144" cy="87" rx="19" ry="12" />
<ellipse fill="#000002" fill-opacity="0.501961" cx="468" cy="555" rx="20" ry="23" />
<ellipse fill="#779ba9" fill-opacity="0.501961" cx="52" cy="348" rx="23" ry="7" />
<ellipse fill="#b2b095" fill-opacity="0.501961" cx="128" cy="205" rx="10" ry="12" />
<ellipse fill="#000000" fill-opacity="0.501961" cx="234" cy="579" rx="36" ry="55" />
<ellipse fill="#f5f2cd" fill-opacity="0.501961" cx="193" cy="280" rx="8" ry="9" />
<ellipse fill="#000007" fill-opacity="0.501961" cx="781" cy="477" rx="10" ry="56" />
<ellipse fill="#ffc657" fill-opacity="0.501961" cx="522" cy="378" rx="35" ry="117" />
<ellipse fill="#000000" fill-opacity="0.501961" cx="83" cy="492" rx="151" ry="143" />
<ellipse fill="#000204" fill-opacity="0.501961" cx="235" cy="92" rx="671" ry="86" />
<ellipse fill="#897f60" fill-opacity="0.501961" cx="1025" cy="83" rx="31" ry="44" />
<ellipse fill="#8c8a74" fill-opacity="0.501961" cx="96" cy="169" rx="12" ry="14" />
<ellipse fill="#000000" fill-opacity="0.501961" cx="247" cy="309" rx="19" ry="16" />
<ellipse fill="#f9c055" fill-opacity="0.501961" cx="632" cy="425" rx="144" ry="56" />
<ellipse fill="#050607" fill-opacity="0.501961" cx="324" cy="221" rx="94" ry="26" />
<ellipse fill="#b7e7ff" fill-opacity="0.501961" cx="278" cy="279" rx="19" ry="5" />
<ellipse fill="#a97f1a" fill-opacity="0.501961" cx="495" cy="604" rx="24" ry="48" />
<ellipse fill="#00020a" fill-opacity="0.501961" cx="727" cy="256" rx="36" ry="25" />
<ellipse fill="#6f919e" fill-opacity="0.501961" cx="17" cy="358" rx="26" ry="7" />
<ellipse fill="#c79621" fill-opacity="0.501961" cx="764" cy="556" rx="29" ry="31" />
<ellipse fill="#9c8d64" fill-opacity="0.501961" cx="917" cy="0" rx="28" ry="20" />
<ellipse fill="#000000" fill-opacity="0.501961" cx="460" cy="275" rx="22" ry="7" />
<ellipse fill="#edeac6" fill-opacity="0.501961" cx="178" cy="263" rx="8" ry="9" />
<ellipse fill="#d0ceae" fill-opacity="0.501961" cx="113" cy="187" rx="7" ry="10" />
<ellipse fill="#856416" fill-opacity="0.501961" cx="631" cy="623" rx="163" ry="37" />
<ellipse fill="#304db1" fill-opacity="0.501961" cx="320" cy="475" rx="83" ry="109" />
<ellipse fill="#605842" fill-opacity="0.501961" cx="1063" cy="47" rx="58" ry="36" />
<ellipse fill="#020407" fill-opacity="0.501961" cx="963" cy="503" rx="136" ry="366" />
<ellipse fill="#807d69" fill-opacity="0.501961" cx="80" cy="148" rx="12" ry="14" />
<ellipse fill="#000000" fill-opacity="0.501961" cx="441" cy="604" rx="30" ry="41" />
<ellipse fill="#00000a" fill-opacity="0.501961" cx="775" cy="503" rx="13" ry="23" />
<ellipse fill="#000003" fill-opacity="0.501961" cx="794" cy="317" rx="34" ry="20" />
<ellipse fill="#000000" fill-opacity="0.501961" cx="978" cy="123" rx="25" ry="36" />
<ellipse fill="#000000" fill-opacity="0.501961" cx="762" cy="301" rx="28" ry="8" />
<ellipse fill="#ffd05c" fill-opacity="0.501961" cx="618" cy="292" rx="81" ry="60" />
<ellipse fill="#000000" fill-opacity="0.501961" cx="278" cy="260" rx="33" ry="8" />
<ellipse fill="#dacea7" fill-opacity="0.501961" cx="157" cy="240" rx="7" ry="10" />
<ellipse fill="#ffefb3" fill-opacity="0.501961" cx="888" cy="133" rx="7" ry="7" />
<ellipse fill="#72705e" fill-opacity="0.501961" cx="62" cy="129" rx="12" ry="14" />
<ellipse fill="#fff8c9" fill-opacity="0.501961" cx="169" cy="252" rx="6" ry="8" />
<ellipse fill="#fffff2" fill-opacity="0.501961" cx="240" cy="334" rx="6" ry="7" />
<ellipse fill="#000000" fill-opacity="0.501961" cx="204" cy="254" rx="27" ry="9" />
<ellipse fill="#000000" fill-opacity="0.501961" cx="862" cy="37" rx="73" ry="28" />
</g>
</svg>