<svg xmlns="http://www.w3.org/2000/svg" version="1.1" width="1200" height="630">
<rect x="0" y="0" width="1200" height="630" fill="#273c35" />
<g transform="scale(1.000000) translate(0.5 0.5)">
<rect fill="#a5ffe1" fill-opacity="0.501961" x="430" y="236" width="243" height="265" />
<rect fill="#75cf9f" fill-opacity="0.501961" x="881" y="76" width="300" height="360" />
<rect fill="#c1c9b8" fill-opacity="0.501961" x="112" y="473" width="275" height="147" />
<rect fill="#000000" fill-opacity="0.501961" x="0" y="0" width="399" height="467" />
<rect fill="#84efb3" fill-opacity="0.501961" x="385" y="261" width="322" height="101" />
<rect fill="#000000" fill-opacity="0.501961" x="663" y="331" width="238" height="299" />
<rect fill="#94ffc9" fill-opacity="0.501961" x="606" y="206" width="131" height="68" />
<rect fill="#e6fff3" fill-opacity="0.501961" x="258" y="113" width="459" height="11" />
<rect fill="#000000" fill-opacity="0.501961" x="624" y="458" width="576" height="172" />
<rect fill="#73d19c" fill-opacity="0.501961" x="492" y="356" width="104" height="252" />
<rect fill="#000000" fill-opacity="0.501961" x="126" y="126" width="434" height="124" />
<rect fill="#000000" fill-opacity="0.501961" x="340" y="431" width="117" height="83" />
<rect fill="#6cb992" fill-opacity="0.501961" x="896" y="175" width="134" height="279" />
<rect fill="#d1ffde" fill-opacity="0.501961" x="112" y="120" width="10" height="353" />
<rect fill="#76cda0" fill-opacity="0.501961" x="525" y="227" width="163" height="157" />
<rect fill="#b2c7b4" fill-opacity="0.501961" x="187" y="464" width="118" height="76" />
<rect fill="#000000" fill-opacity="0.501961" x="405" y="125" width="452" height="71" />
<rect fill="#000000" fill-opacity="0.501961" x="0" y="0" width="90" height="630" />
<rect fill="#bde7c9" fill-opacity="0.501961" x="114" y="114" width="145" height="10" />
<rect fill="#6fbf96" fill-opacity="0.501961" x="860" y="69" width="37" height="154" />
<rect fill="#000000" fill-opacity="0.501961" x="1086" y="426" width="114" height="204" />
<rect fill="#dbffe8" fill-opacity="0.501961" x="715" y="114" width="153" height="10" />
<rect fill="#000007" fill-opacity="0.501961" x="124" y="323" width="278" height="137" />
<rect fill="#000000" fill-opacity="0.501961" x="0" y="0" width="854" height="114" />
<rect fill="#000002" fill-opacity="0.501961" x="746" y="193" width="125" height="273" />
<rect fill="#000000" fill-opacity="0.501961" x="1" y="0" width="1199" height="53" />
<rect fill="#a0af9f" fill-opacity="0.501961" x="310" y="543" width="103" height="65" />
<rect fill="#677166" fill-opacity="0.501961" x="63" y="532" width="277" height="98" />
<rect fill="#8aefbc" fill-opacity="0.501961" x="698" y="190" width="56" height="36" />
<rect fill="#000000" fill-opacity="0.501961" x="405" y="471" width="63" height="105" />
<rect fill="#72c59a" fill-opacity="0.501961" x="412" y="264" width="263" height="135" />
<rect fill="#a5baa8" fill-opacity="0.501961" x="250" y="496" width="112" height="76" />
<rect fill="#69b88e" fill-opacity="0.501961" x="474" y="399" width="140" height="139" />
<rect fill="#315643" fill-opacity="0.501961" x="997" y="37" width="203" height="164" />
<rect fill="#02000e" fill-opacity="0.501961" x="365" y="126" width="287" height="90" />
<rect fill="#000000" fill-opacity="0.501961" x="422" y="561" width="84" height="69" />
<rect fill="#050012" fill-opacity="0.501961" x="724" y="258" width="161" height="241" />
<rect fill="#05020f" fill-opacity="0.501961" x="662" y="397" width="243" height="233" />
<rect fill="#56d799" fill-opacity="0.501961" x="651" y="449" width="11" height="157" />
<rect fill="#050010" fill-opacity="0.501961" x="124" y="127" width="339" height="138" />
<rect fill="#000000" fill-opacity="0.501961" x="0" y="467" width="154" height="24" />
<rect fill="#000008" fill-opacity="0.501961" x="317" y="419" width="122" height="69" />
<rect fill="#000000" fill-opacity="0.501961" x="581" y="560" width="43" height="70" />
<rect fill="#76caa0" fill-opacity="0.501961" x="584" y="222" width="135" height="81" />
<rect fill="#8ca793" fill-opacity="0.501961" x="1076" y="431" width="8" height="192" />
<rect fill="#000000" fill-opacity="0.501961" x="902" y="465" width="172" height="165" />
<rect fill="#85e1b5" fill-opacity="0.501961" x="374" y="272" width="55" height="35" />
<rect fill="#4b8065" fill-opacity="0.501961" x="851" y="63" width="187" height="73" />
<rect fill="#43745b" fill-opacity="0.501961" x="1110" y="169" width="90" height="254" />
<rect fill="#3f453f" fill-opacity="0.501961" x="49" y="576" width="162" height="54" />
<rect fill="#000008" fill-opacity="0.501961" x="386" y="0" width="537" height="68" />
<rect fill="#67af8b" fill-opacity="0.501961" x="875" y="129" width="61" height="162" />
<rect fill="#71c499" fill-opacity="0.501961" x="908" y="436" width="55" height="27" />
<rect fill="#70c097" fill-opacity="0.501961" x="448" y="252" width="188" height="226" />
<rect fill="#000006" fill-opacity="0.501961" x="372" y="459" width="80" height="68" />
<rect fill="#000000" fill-opacity="0.501961" x="365" y="614" width="154" height="16" />
<rect fill="#5ba580" fill-opacity="0.501961" x="384" y="597" width="123" height="11" />
<rect fill="#000007" fill-opacity="0.501961" x="1" y="17" width="109" height="499" />
<rect fill="#233e30" fill-opacity="0.501961" x="1099" y="29" width="101" height="107" />
<rect fill="#000004" fill-opacity="0.501961" x="634" y="448" width="18" height="141" />
<rect fill="#090a13" fill-opacity="0.501961" x="697" y="316" width="192" height="231" />
<rect fill="#070210" fill-opacity="0.501961" x="291" y="380" width="128" height="96" />
<rect fill="#a5afa2" fill-opacity="0.501961" x="386" y="562" width="31" height="42" />
<rect fill="#7b8a7d" fill-opacity="0.501961" x="96" y="510" width="183" height="50" />
<rect fill="#49b281" fill-opacity="0.501961" x="582" y="597" width="71" height="10" />
<rect fill="#569375" fill-opacity="0.501961" x="976" y="139" width="119" height="304" />
<rect fill="#75c79e" fill-opacity="0.501961" x="630" y="212" width="65" height="137" />
<rect fill="#06020f" fill-opacity="0.501961" x="125" y="162" width="250" height="286" />
<rect fill="#000006" fill-opacity="0.501961" x="997" y="448" width="75" height="182" />
<rect fill="#8bf2bc" fill-opacity="0.501961" x="494" y="242" width="70" height="9" />
<rect fill="#000001" fill-opacity="0.501961" x="607" y="518" width="42" height="78" />
<rect fill="#000003" fill-opacity="0.501961" x="412" y="520" width="68" height="56" />
<rect fill="#bccfbd" fill-opacity="0.501961" x="202" y="463" width="71" height="12" />
<rect fill="#559173" fill-opacity="0.501961" x="520" y="531" width="45" height="99" />
<rect fill="#6bb691" fill-opacity="0.501961" x="890" y="259" width="68" height="106" />
<rect fill="#060510" fill-opacity="0.501961" x="351" y="349" width="54" height="155" />
<rect fill="#090a12" fill-opacity="0.501961" x="191" y="126" width="355" height="113" />
<rect fill="#000000" fill-opacity="0.501961" x="854" y="0" width="275" height="39" />
<rect fill="#02000b" fill-opacity="0.501961" x="604" y="126" width="116" height="71" />
<rect fill="#000000" fill-opacity="0.501961" x="0" y="490" width="71" height="81" />
<rect fill="#88eaba" fill-opacity="0.501961" x="738" y="185" width="23" height="14" />
<rect fill="#72c59b" fill-opacity="0.501961" x="674" y="200" width="68" height="42" />
<rect fill="#000002" fill-opacity="0.501961" x="1139" y="423" width="61" height="116" />
<rect fill="#7ed4aa" fill-opacity="0.501961" x="394" y="300" width="37" height="43" />
<rect fill="#06040f" fill-opacity="0.501961" x="731" y="246" width="146" height="89" />
<rect fill="#03000e" fill-opacity="0.501961" x="761" y="128" width="95" height="129" />
<rect fill="#000003" fill-opacity="0.501961" x="396" y="236" width="83" height="18" />
<rect fill="#abc0ae" fill-opacity="0.501961" x="316" y="518" width="64" height="25" />
<rect fill="#bdd5c0" fill-opacity="0.501961" x="305" y="482" width="25" height="34" />
<rect fill="#72c299" fill-opacity="0.501961" x="424" y="259" width="143" height="151" />
<rect fill="#000003" fill-opacity="0.501961" x="545" y="196" width="80" height="23" />
<rect fill="#61a483" fill-opacity="0.501961" x="485" y="438" width="119" height="112" />
<rect fill="#000000" fill-opacity="0.501961" x="124" y="446" width="41" height="34" />
<rect fill="#00000a" fill-opacity="0.501961" x="681" y="358" width="37" height="42" />
<rect fill="#000000" fill-opacity="0.501961" x="0" y="516" width="44" height="114" />
<rect fill="#73c49b" fill-opacity="0.501961" x="536" y="233" width="167" height="94" />
<rect fill="#72c49a" fill-opacity="0.501961" x="600" y="218" width="41" height="248" />
<rect fill="#5a655c" fill-opacity="0.501961" x="59" y="551" width="123" height="41" />
<rect fill="#5a997a" fill-opacity="0.501961" x="869" y="115" width="107" height="121" />
<rect fill="#3a644f" fill-opacity="0.501961" x="955" y="49" width="159" height="58" />
</g>
</svg>