<svg xmlns="http://www.w3.org/2000/svg" version="1.1" width="1200" height="630">
<rect x="0" y="0" width="1200" height="630" fill="#19141b" />
<g transform="scale(1.000000) translate(0.5 0.5)">
<ellipse fill="#ff7cff" fill-opacity="0.501961" cx="661" cy="419" rx="91" ry="91" />
<ellipse fill="#ffff8f" fill-opacity="0.501961" cx="422" cy="238" rx="74" ry="74" />
<ellipse fill="#a9da47" fill-opacity="0.501961" cx="777" cy="0" rx="131" ry="131" />
<ellipse fill="#bb00bc" fill-opacity="0.501961" cx="721" cy="177" rx="69" ry="69" />
<ellipse fill="#94008f" fill-opacity="0.501961" cx="905" cy="130" rx="72" ry="72" />
<ellipse fill="#000000" fill-opacity="0.501961" cx="361" cy="240" rx="41" ry="41" />
<ellipse fill="#cd55f8" fill-opacity="0.501961" cx="701" cy="456" rx="58" ry="58" />
<ellipse fill="#deff74" fill-opacity="0.501961" cx="446" cy="254" rx="49" ry="49" />
<ellipse fill="#dd5eff" fill-opacity="0.501961" cx="625" cy="390" rx="56" ry="56" />
<ellipse fill="#000004" fill-opacity="0.501961" cx="805" cy="114" rx="34" ry="34" />
<ellipse fill="#9bc855" fill-opacity="0.501961" cx="647" cy="5" rx="44" ry="44" />
<ellipse fill="#547621" fill-opacity="0.501961" cx="1134" cy="16" rx="68" ry="68" />
<ellipse fill="#ccff6d" fill-opacity="0.501961" cx="434" cy="204" rx="39" ry="39" />
<ellipse fill="#000000" fill-opacity="0.501961" cx="729" cy="335" rx="38" ry="38" />
<ellipse fill="#000001" fill-opacity="0.501961" cx="379" cy="239" rx="31" ry="31" />
<ellipse fill="#daff75" fill-opacity="0.501961" cx="408" cy="286" rx="29" ry="29" />
<ellipse fill="#000001" fill-opacity="0.501961" cx="548" cy="543" rx="94" ry="94" />
<ellipse fill="#99c659" fill-opacity="0.501961" cx="725" cy="35" rx="50" ry="50" />
<ellipse fill="#b3ff2a" fill-opacity="0.501961" cx="542" cy="331" rx="15" ry="15" />
<ellipse fill="#b3ff2a" fill-opacity="0.501961" cx="566" cy="350" rx="15" ry="15" />
<ellipse fill="#66ad07" fill-opacity="0.501961" cx="851" cy="20" rx="69" ry="69" />
<ellipse fill="#b3ff2a" fill-opacity="0.501961" cx="517" cy="312" rx="15" ry="15" />
<ellipse fill="#bcff2c" fill-opacity="0.501961" cx="493" cy="295" rx="14" ry="14" />
<ellipse fill="#c4ff69" fill-opacity="0.501961" cx="405" cy="193" rx="29" ry="29" />
<ellipse fill="#560063" fill-opacity="0.501961" cx="715" cy="123" rx="39" ry="39" />
<ellipse fill="#c957f0" fill-opacity="0.501961" cx="693" cy="387" rx="32" ry="32" />
<ellipse fill="#792e8c" fill-opacity="0.501961" cx="1196" cy="475" rx="29" ry="29" />
<ellipse fill="#1f3e0d" fill-opacity="0.501961" cx="679" cy="302" rx="40" ry="40" />
<ellipse fill="#000006" fill-opacity="0.501961" cx="765" cy="375" rx="34" ry="34" />
<ellipse fill="#00000d" fill-opacity="0.501961" cx="800" cy="119" rx="32" ry="32" />
<ellipse fill="#c3ff6c" fill-opacity="0.501961" cx="453" cy="233" rx="42" ry="42" />
<ellipse fill="#000000" fill-opacity="0.501961" cx="760" cy="85" rx="14" ry="14" />
<ellipse fill="#9a0392" fill-opacity="0.501961" cx="723" cy="239" rx="23" ry="23" />
<ellipse fill="#b44ed7" fill-opacity="0.501961" cx="628" cy="450" rx="35" ry="35" />
<ellipse fill="#c655e7" fill-opacity="0.501961" cx="489" cy="168" rx="10" ry="10" />
<ellipse fill="#8f0a86" fill-opacity="0.501961" cx="789" cy="167" rx="20" ry="20" />
<ellipse fill="#b6ff2a" fill-opacity="0.501961" cx="538" cy="214" rx="9" ry="9" />
<ellipse fill="#b4ff28" fill-opacity="0.501961" cx="560" cy="209" rx="9" ry="9" />
<ellipse fill="#000005" fill-opacity="0.501961" cx="936" cy="240" rx="58" ry="58" />
<ellipse fill="#000000" fill-opacity="0.501961" cx="22" cy="322" rx="356" ry="356" />
<ellipse fill="#9e0196" fill-opacity="0.501961" cx="653" cy="182" rx="18" ry="18" />
<ellipse fill="#b4ff28" fill-opacity="0.501961" cx="702" cy="261" rx="9" ry="9" />
<ellipse fill="#b4ff29" fill-opacity="0.501961" cx="597" cy="202" rx="9" ry="9" />
<ellipse fill="#b4ff28" fill-opacity="0.501961" cx="515" cy="218" rx="9" ry="9" />
<ellipse fill="#000002" fill-opacity="0.501961" cx="1123" cy="496" rx="368" ry="368" />
<ellipse fill="#c152e1" fill-opacity="0.501961" cx="506" cy="151" rx="10" ry="10" />
<ellipse fill="#520055" fill-opacity="0.501961" cx="927" cy="83" rx="40" ry="40" />
<ellipse fill="#d1ff72" fill-opacity="0.501961" cx="384" cy="288" rx="15" ry="15" />
<ellipse fill="#602b6d" fill-opacity="0.501961" cx="1199" cy="477" rx="37" ry="37" />
<ellipse fill="#b3ff28" fill-opacity="0.501961" cx="579" cy="206" rx="9" ry="9" />
<ellipse fill="#000000" fill-opacity="0.501961" cx="1037" cy="102" rx="67" ry="67" />
<ellipse fill="#b1ff27" fill-opacity="0.501961" cx="625" cy="196" rx="9" ry="9" />
<ellipse fill="#00010b" fill-opacity="0.501961" cx="555" cy="451" rx="30" ry="30" />
<ellipse fill="#ba4fd9" fill-opacity="0.501961" cx="525" cy="132" rx="10" ry="10" />
<ellipse fill="#000009" fill-opacity="0.501961" cx="399" cy="238" rx="15" ry="15" />
<ellipse fill="#000000" fill-opacity="0.501961" cx="422" cy="13" rx="152" ry="152" />
<ellipse fill="#00000e" fill-opacity="0.501961" cx="655" cy="306" rx="31" ry="31" />
<ellipse fill="#000003" fill-opacity="0.501961" cx="645" cy="86" rx="35" ry="35" />
<ellipse fill="#b84fd6" fill-opacity="0.501961" cx="539" cy="117" rx="10" ry="10" />
<ellipse fill="#bbff33" fill-opacity="0.501961" cx="689" cy="315" rx="9" ry="9" />
<ellipse fill="#c5ff6d" fill-opacity="0.501961" cx="424" cy="282" rx="32" ry="32" />
<ellipse fill="#6a006c" fill-opacity="0.501961" cx="956" cy="153" rx="30" ry="30" />
<ellipse fill="#00010a" fill-opacity="0.501961" cx="373" cy="548" rx="235" ry="235" />
<ellipse fill="#820083" fill-opacity="0.501961" cx="872" cy="179" rx="25" ry="25" />
<ellipse fill="#af4acc" fill-opacity="0.501961" cx="554" cy="102" rx="10" ry="10" />
<ellipse fill="#ff72ff" fill-opacity="0.501961" cx="477" cy="181" rx="7" ry="7" />
<ellipse fill="#000000" fill-opacity="0.501961" cx="750" cy="100" rx="12" ry="12" />
<ellipse fill="#b5ff32" fill-opacity="0.501961" cx="697" cy="279" rx="9" ry="9" />
<ellipse fill="#00000b" fill-opacity="0.501961" cx="518" cy="267" rx="30" ry="30" />
<ellipse fill="#a8db5b" fill-opacity="0.501961" cx="814" cy="149" rx="9" ry="9" />
<ellipse fill="#510066" fill-opacity="0.501961" cx="838" cy="103" rx="18" ry="18" />
<ellipse fill="#000001" fill-opacity="0.501961" cx="705" cy="591" rx="79" ry="79" />
<ellipse fill="#b8ff33" fill-opacity="0.501961" cx="693" cy="296" rx="9" ry="9" />
<ellipse fill="#00000d" fill-opacity="0.501961" cx="663" cy="250" rx="35" ry="35" />
<ellipse fill="#000000" fill-opacity="0.501961" cx="996" cy="15" rx="58" ry="58" />
<ellipse fill="#d8ff2d" fill-opacity="0.501961" cx="499" cy="222" rx="7" ry="7" />
<ellipse fill="#a645c3" fill-opacity="0.501961" cx="568" cy="88" rx="10" ry="10" />
<ellipse fill="#000209" fill-opacity="0.501961" cx="188" cy="73" rx="210" ry="210" />
<ellipse fill="#000000" fill-opacity="0.501961" cx="1151" cy="127" rx="50" ry="50" />
<ellipse fill="#557f12" fill-opacity="0.501961" cx="900" cy="11" rx="33" ry="33" />
<ellipse fill="#00030b" fill-opacity="0.501961" cx="627" cy="527" rx="32" ry="32" />
<ellipse fill="#9e42b9" fill-opacity="0.501961" cx="584" cy="73" rx="10" ry="10" />
<ellipse fill="#00000e" fill-opacity="0.501961" cx="555" cy="291" rx="35" ry="35" />
<ellipse fill="#c0ff62" fill-opacity="0.501961" cx="830" cy="143" rx="7" ry="7" />
<ellipse fill="#000313" fill-opacity="0.501961" cx="722" cy="334" rx="33" ry="33" />
<ellipse fill="#d5ff2f" fill-opacity="0.501961" cx="609" cy="199" rx="7" ry="7" />
<ellipse fill="#a0cb58" fill-opacity="0.501961" cx="731" cy="69" rx="24" ry="24" />
<ellipse fill="#d9ff35" fill-opacity="0.501961" cx="533" cy="324" rx="9" ry="9" />
<ellipse fill="#000010" fill-opacity="0.501961" cx="531" cy="369" rx="31" ry="31" />
<ellipse fill="#ceff2f" fill-opacity="0.501961" cx="688" cy="328" rx="7" ry="7" />
<ellipse fill="#3f006c" fill-opacity="0.501961" cx="694" cy="91" rx="17" ry="17" />
<ellipse fill="#00000e" fill-opacity="0.501961" cx="585" cy="316" rx="32" ry="32" />
<ellipse fill="#000008" fill-opacity="0.501961" cx="796" cy="239" rx="37" ry="37" />
<ellipse fill="#00000f" fill-opacity="0.501961" cx="483" cy="333" rx="32" ry="32" />
<ellipse fill="#a645c1" fill-opacity="0.501961" cx="597" cy="58" rx="9" ry="9" />
<ellipse fill="#d7ff35" fill-opacity="0.501961" cx="555" cy="341" rx="9" ry="9" />
<ellipse fill="#de60fe" fill-opacity="0.501961" cx="517" cy="140" rx="7" ry="7" />
<ellipse fill="#d2ff34" fill-opacity="0.501961" cx="506" cy="305" rx="9" ry="9" />
<ellipse fill="#000308" fill-opacity="0.501961" cx="656" cy="111" rx="32" ry="32" />
<ellipse fill="#a34bb9" fill-opacity="0.501961" cx="714" cy="473" rx="34" ry="34" />
</g>
</svg>