<svg xmlns="http://www.w3.org/2000/svg" version="1.1" width="1200" height="630">
<rect x="0" y="0" width="1200" height="630" fill="#1d1828" />
<g transform="scale(1.000000) translate(0.5 0.5)">
<g transform="translate(700 201) rotate(140) scale(88 462)"><rect fill="#ffc0ff" fill-opacity="0.501961" x="-0.5" y="-0.5" width="1" height="1" /></g>
<g transform="translate(305 560) rotate(301) scale(186 225)"><rect fill="#bc8ced" fill-opacity="0.501961" x="-0.5" y="-0.5" width="1" height="1" /></g>
<g transform="translate(695 97) rotate(38) scale(139 224)"><rect fill="#ce98ff" fill-opacity="0.501961" x="-0.5" y="-0.5" width="1" height="1" /></g>
<g transform="translate(519 259) rotate(166) scale(347 12)"><rect fill="#ffffff" fill-opacity="0.501961" x="-0.5" y="-0.5" width="1" height="1" /></g>
<g transform="translate(238 96) rotate(381) scale(256 32)"><rect fill="#c09edd" fill-opacity="0.501961" x="-0.5" y="-0.5" width="1" height="1" /></g>
<g transform="translate(869 171) rotate(-14) scale(342 11)"><rect fill="#ffffff" fill-opacity="0.501961" x="-0.5" y="-0.5" width="1" height="1" /></g>
<g transform="translate(599 59) rotate(35) scale(137 162)"><rect fill="#946dce" fill-opacity="0.501961" x="-0.5" y="-0.5" width="1" height="1" /></g>
<g transform="translate(943 430) rotate(183) scale(194 495)"><rect fill="#000000" fill-opacity="0.501961" x="-0.5" y="-0.5" width="1" height="1" /></g>
<g transform="translate(370 379) rotate(216) scale(1062 175)"><rect fill="#000000" fill-opacity="0.501961" x="-0.5" y="-0.5" width="1" height="1" /></g>
<g transform="translate(331 178) rotate(78) scale(225 11)"><rect fill="#ffd8ff" fill-opacity="0.501961" x="-0.5" y="-0.5" width="1" height="1" /></g>
<g transform="translate(785 303) rotate(232) scale(209 57)"><rect fill="#cb96ff" fill-opacity="0.501961" x="-0.5" y="-0.5" width="1" height="1" /></g>
<g transform="translate(689 260) rotate(74) scale(74 45)"><rect fill="#000000" fill-opacity="0.501961" x="-0.5" y="-0.5" width="1" height="1" /></g>
<g transform="translate(427 0) rotate(270) scale(19 265)"><rect fill="#cfcad0" fill-opacity="0.501961" x="-0.5" y="-0.5" width="1" height="1" /></g>
<g transform="translate(146 449) rotate(255) scale(92 318)"><rect fill="#000000" fill-opacity="0.501961" x="-0.5" y="-0.5" width="1" height="1" /></g>
<g transform="translate(347 500) rotate(119) scale(53 98)"><rect fill="#b286e3" fill-opacity="0.501961" x="-0.5" y="-0.5" width="1" height="1" /></g>
<g transform="translate(123 332) rotate(60) scale(5 120)"><rect fill="#f9efff" fill-opacity="0.501961" x="-0.5" y="-0.5" width="1" height="1" /></g>
<g transform="translate(745 366) rotate(304) scale(47 364)"><rect fill="#000000" fill-opacity="0.501961" x="-0.5" y="-0.5" width="1" height="1" /></g>
<g transform="translate(382 294) rotate(-11) scale(61 12)"><rect fill="#ffffff" fill-opacity="0.501961" x="-0.5" y="-0.5" width="1" height="1" /></g>
<g transform="translate(449 569) rotate(156) scale(32 154)"><rect fill="#000000" fill-opacity="0.501961" x="-0.5" y="-0.5" width="1" height="1" /></g>
<g transform="translate(1137 426) rotate(110) scale(526 343)"><rect fill="#000000" fill-opacity="0.501961" x="-0.5" y="-0.5" width="1" height="1" /></g>
<g transform="translate(1195 118) rotate(244) scale(94 58)"><rect fill="#7b658c" fill-opacity="0.501961" x="-0.5" y="-0.5" width="1" height="1" /></g>
<g transform="translate(1009 21) rotate(257) scale(210 390)"><rect fill="#000000" fill-opacity="0.501961" x="-0.5" y="-0.5" width="1" height="1" /></g>
<g transform="translate(222 386) rotate(225) scale(116 8)"><rect fill="#e0c9f5" fill-opacity="0.501961" x="-0.5" y="-0.5" width="1" height="1" /></g>
<g transform="translate(437 146) rotate(68) scale(229 176)"><rect fill="#000000" fill-opacity="0.501961" x="-0.5" y="-0.5" width="1" height="1" /></g>
<g transform="translate(861 290) rotate(156) scale(58 199)"><rect fill="#000003" fill-opacity="0.501961" x="-0.5" y="-0.5" width="1" height="1" /></g>
<g transform="translate(351 147) rotate(296) scale(10 89)"><rect fill="#d3aefd" fill-opacity="0.501961" x="-0.5" y="-0.5" width="1" height="1" /></g>
<g transform="translate(90 504) rotate(191) scale(176 285)"><rect fill="#000000" fill-opacity="0.501961" x="-0.5" y="-0.5" width="1" height="1" /></g>
<g transform="translate(550 103) rotate(307) scale(29 109)"><rect fill="#b98be8" fill-opacity="0.501961" x="-0.5" y="-0.5" width="1" height="1" /></g>
<g transform="translate(416 610) rotate(92) scale(77 33)"><rect fill="#9971c3" fill-opacity="0.501961" x="-0.5" y="-0.5" width="1" height="1" /></g>
<g transform="translate(654 460) rotate(106) scale(232 454)"><rect fill="#000006" fill-opacity="0.501961" x="-0.5" y="-0.5" width="1" height="1" /></g>
<g transform="translate(158 4) rotate(98) scale(80 297)"><rect fill="#000000" fill-opacity="0.501961" x="-0.5" y="-0.5" width="1" height="1" /></g>
<g transform="translate(487 267) rotate(256) scale(9 269)"><rect fill="#ffffff" fill-opacity="0.501961" x="-0.5" y="-0.5" width="1" height="1" /></g>
<g transform="translate(704 138) rotate(-51) scale(168 70)"><rect fill="#a47ade" fill-opacity="0.501961" x="-0.5" y="-0.5" width="1" height="1" /></g>
<g transform="translate(222 599) rotate(365) scale(112 141)"><rect fill="#5a4374" fill-opacity="0.501961" x="-0.5" y="-0.5" width="1" height="1" /></g>
<g transform="translate(220 82) rotate(210) scale(92 38)"><rect fill="#8c73a4" fill-opacity="0.501961" x="-0.5" y="-0.5" width="1" height="1" /></g>
<g transform="translate(1055 125) rotate(163) scale(43 9)"><rect fill="#e6dee9" fill-opacity="0.501961" x="-0.5" y="-0.5" width="1" height="1" /></g>
<g transform="translate(740 176) rotate(155) scale(24 41)"><rect fill="#000000" fill-opacity="0.501961" x="-0.5" y="-0.5" width="1" height="1" /></g>
<g transform="translate(35 390) rotate(232) scale(7 113)"><rect fill="#b7b2be" fill-opacity="0.501961" x="-0.5" y="-0.5" width="1" height="1" /></g>
<g transform="translate(126 245) rotate(156) scale(357 125)"><rect fill="#000001" fill-opacity="0.501961" x="-0.5" y="-0.5" width="1" height="1" /></g>
<g transform="translate(774 22) rotate(38) scale(108 26)"><rect fill="#795a9d" fill-opacity="0.501961" x="-0.5" y="-0.5" width="1" height="1" /></g>
<g transform="translate(841 178) rotate(346) scale(183 8)"><rect fill="#f8e8ff" fill-opacity="0.501961" x="-0.5" y="-0.5" width="1" height="1" /></g>
<g transform="translate(620 29) rotate(-52) scale(126 123)"><rect fill="#735795" fill-opacity="0.501961" x="-0.5" y="-0.5" width="1" height="1" /></g>
<g transform="translate(767 262) rotate(316) scale(48 145)"><rect fill="#b788ff" fill-opacity="0.501961" x="-0.5" y="-0.5" width="1" height="1" /></g>
<g transform="translate(146 336) rotate(18) scale(63 5)"><rect fill="#e2caf2" fill-opacity="0.501961" x="-0.5" y="-0.5" width="1" height="1" /></g>
<g transform="translate(770 318) rotate(141) scale(35 114)"><rect fill="#c08fff" fill-opacity="0.501961" x="-0.5" y="-0.5" width="1" height="1" /></g>
<g transform="translate(770 217) rotate(35) scale(42 14)"><rect fill="#000000" fill-opacity="0.501961" x="-0.5" y="-0.5" width="1" height="1" /></g>
<g transform="translate(257 501) rotate(56) scale(67 95)"><rect fill="#9673bd" fill-opacity="0.501961" x="-0.5" y="-0.5" width="1" height="1" /></g>
<g transform="translate(715 306) rotate(241) scale(170 32)"><rect fill="#000005" fill-opacity="0.501961" x="-0.5" y="-0.5" width="1" height="1" /></g>
<g transform="translate(134 54) rotate(367) scale(165 26)"><rect fill="#5d4d6c" fill-opacity="0.501961" x="-0.5" y="-0.5" width="1" height="1" /></g>
<g transform="translate(1114 98) rotate(252) scale(278 78)"><rect fill="#000000" fill-opacity="0.501961" x="-0.5" y="-0.5" width="1" height="1" /></g>
<g transform="translate(47 356) rotate(237) scale(7 88)"><rect fill="#ac9ab9" fill-opacity="0.501961" x="-0.5" y="-0.5" width="1" height="1" /></g>
<g transform="translate(710 198) rotate(254) scale(16 22)"><rect fill="#000000" fill-opacity="0.501961" x="-0.5" y="-0.5" width="1" height="1" /></g>
<g transform="translate(406 32) rotate(270) scale(42 242)"><rect fill="#000000" fill-opacity="0.501961" x="-0.5" y="-0.5" width="1" height="1" /></g>
<g transform="translate(1069 325) rotate(235) scale(7 87)"><rect fill="#977db5" fill-opacity="0.501961" x="-0.5" y="-0.5" width="1" height="1" /></g>
<g transform="translate(494 597) rotate(85) scale(139 124)"><rect fill="#000001" fill-opacity="0.501961" x="-0.5" y="-0.5" width="1" height="1" /></g>
<g transform="translate(1184 70) rotate(124) scale(60 38)"><rect fill="#5b4b6a" fill-opacity="0.501961" x="-0.5" y="-0.5" width="1" height="1" /></g>
<g transform="translate(346 249) rotate(77) scale(113 8)"><rect fill="#e0b3ff" fill-opacity="0.501961" x="-0.5" y="-0.5" width="1" height="1" /></g>
<g transform="translate(780 162) rotate(-25) scale(107 35)"><rect fill="#000000" fill-opacity="0.501961" x="-0.5" y="-0.5" width="1" height="1" /></g>
<g transform="translate(637 230) rotate(77) scale(8 58)"><rect fill="#ffffff" fill-opacity="0.501961" x="-0.5" y="-0.5" width="1" height="1" /></g>
<g transform="translate(174 117) rotate(289) scale(45 289)"><rect fill="#000000" fill-opacity="0.501961" x="-0.5" y="-0.5" width="1" height="1" /></g>
<g transform="translate(198 518) rotate(36) scale(18 63)"><rect fill="#8864ae" fill-opacity="0.501961" x="-0.5" y="-0.5" width="1" height="1" /></g>
<g transform="translate(1008 166) rotate(166) scale(119 47)"><rect fill="#000000" fill-opacity="0.501961" x="-0.5" y="-0.5" width="1" height="1" /></g>
<g transform="translate(316 515) rotate(192) scale(105 101)"><rect fill="#906db5" fill-opacity="0.501961" x="-0.5" y="-0.5" width="1" height="1" /></g>
<g transform="translate(588 283) rotate(346) scale(244 64)"><rect fill="#000109" fill-opacity="0.501961" x="-0.5" y="-0.5" width="1" height="1" /></g>
<g transform="translate(1152 302) rotate(94) scale(9 83)"><rect fill="#786490" fill-opacity="0.501961" x="-0.5" y="-0.5" width="1" height="1" /></g>
<g transform="translate(106 333) rotate(-5) scale(48 7)"><rect fill="#c6b1d5" fill-opacity="0.501961" x="-0.5" y="-0.5" width="1" height="1" /></g>
<g transform="translate(316 112) rotate(120) scale(7 103)"><rect fill="#000000" fill-opacity="0.501961" x="-0.5" y="-0.5" width="1" height="1" /></g>
<g transform="translate(290 118) rotate(289) scale(25 67)"><rect fill="#ab8ccb" fill-opacity="0.501961" x="-0.5" y="-0.5" width="1" height="1" /></g>
<g transform="translate(246 457) rotate(-20) scale(50 17)"><rect fill="#000000" fill-opacity="0.501961" x="-0.5" y="-0.5" width="1" height="1" /></g>
<g transform="translate(261 629) rotate(100) scale(88 191)"><rect fill="#4b3860" fill-opacity="0.501961" x="-0.5" y="-0.5" width="1" height="1" /></g>
<g transform="translate(807 260) rotate(140) scale(3 137)"><rect fill="#000000" fill-opacity="0.501961" x="-0.5" y="-0.5" width="1" height="1" /></g>
<g transform="translate(559 167) rotate(131) scale(50 152)"><rect fill="#000002" fill-opacity="0.501961" x="-0.5" y="-0.5" width="1" height="1" /></g>
<g transform="translate(672 99) rotate(18) scale(152 102)"><rect fill="#916dbb" fill-opacity="0.501961" x="-0.5" y="-0.5" width="1" height="1" /></g>
<g transform="translate(269 442) rotate(145) scale(6 54)"><rect fill="#ddcce8" fill-opacity="0.501961" x="-0.5" y="-0.5" width="1" height="1" /></g>
<g transform="translate(806 114) rotate(130) scale(147 52)"><rect fill="#000003" fill-opacity="0.501961" x="-0.5" y="-0.5" width="1" height="1" /></g>
<g transform="translate(1161 511) rotate(99) scale(346 242)"><rect fill="#000000" fill-opacity="0.501961" x="-0.5" y="-0.5" width="1" height="1" /></g>
<g transform="translate(380 531) rotate(324) scale(54 78)"><rect fill="#8f6bb9" fill-opacity="0.501961" x="-0.5" y="-0.5" width="1" height="1" /></g>
<g transform="translate(844 357) rotate(-6) scale(18 69)"><rect fill="#b386f5" fill-opacity="0.501961" x="-0.5" y="-0.5" width="1" height="1" /></g>
<g transform="translate(648 208) rotate(41) scale(32 9)"><rect fill="#000000" fill-opacity="0.501961" x="-0.5" y="-0.5" width="1" height="1" /></g>
<g transform="translate(866 348) rotate(174) scale(22 57)"><rect fill="#000000" fill-opacity="0.501961" x="-0.5" y="-0.5" width="1" height="1" /></g>
<g transform="translate(70 588) rotate(83) scale(155 185)"><rect fill="#000000" fill-opacity="0.501961" x="-0.5" y="-0.5" width="1" height="1" /></g>
<g transform="translate(319 451) rotate(98) scale(18 81)"><rect fill="#000000" fill-opacity="0.501961" x="-0.5" y="-0.5" width="1" height="1" /></g>
<g transform="translate(367 230) rotate(347) scale(33 121)"><rect fill="#000004" fill-opacity="0.501961" x="-0.5" y="-0.5" width="1" height="1" /></g>
<g transform="translate(309 76) rotate(75) scale(43 10)"><rect fill="#846ba8" fill-opacity="0.501961" x="-0.5" y="-0.5" width="1" height="1" /></g>
<g transform="translate(188 356) rotate(125) scale(5 52)"><rect fill="#c3add3" fill-opacity="0.501961" x="-0.5" y="-0.5" width="1" height="1" /></g>
<g transform="translate(406 495) rotate(45) scale(113 26)"><rect fill="#02050c" fill-opacity="0.501961" x="-0.5" y="-0.5" width="1" height="1" /></g>
<g transform="translate(145 72) rotate(110) scale(17 137)"><rect fill="#635274" fill-opacity="0.501961" x="-0.5" y="-0.5" width="1" height="1" /></g>
<g transform="translate(432 311) rotate(350) scale(79 43)"><rect fill="#00030b" fill-opacity="0.501961" x="-0.5" y="-0.5" width="1" height="1" /></g>
<g transform="translate(264 68) rotate(212) scale(85 25)"><rect fill="#000000" fill-opacity="0.501961" x="-0.5" y="-0.5" width="1" height="1" /></g>
<g transform="translate(149 362) rotate(293) scale(29 79)"><rect fill="#000000" fill-opacity="0.501961" x="-0.5" y="-0.5" width="1" height="1" /></g>
<g transform="translate(699 215) rotate(159) scale(29 7)"><rect fill="#f9f2ff" fill-opacity="0.501961" x="-0.5" y="-0.5" width="1" height="1" /></g>
<g transform="translate(818 325) rotate(69) scale(35 51)"><rect fill="#b285f0" fill-opacity="0.501961" x="-0.5" y="-0.5" width="1" height="1" /></g>
<g transform="translate(192 338) rotate(-56) scale(30 52)"><rect fill="#00020a" fill-opacity="0.501961" x="-0.5" y="-0.5" width="1" height="1" /></g>
<g transform="translate(955 49) rotate(72) scale(171 237)"><rect fill="#000004" fill-opacity="0.501961" x="-0.5" y="-0.5" width="1" height="1" /></g>
<g transform="translate(349 71) rotate(75) scale(98 73)"><rect fill="#000005" fill-opacity="0.501961" x="-0.5" y="-0.5" width="1" height="1" /></g>
<g transform="translate(731 288) rotate(330) scale(9 84)"><rect fill="#c391ff" fill-opacity="0.501961" x="-0.5" y="-0.5" width="1" height="1" /></g>
<g transform="translate(279 422) rotate(234) scale(70 32)"><rect fill="#03060e" fill-opacity="0.501961" x="-0.5" y="-0.5" width="1" height="1" /></g>
<g transform="translate(312 219) rotate(347) scale(39 132)"><rect fill="#000209" fill-opacity="0.501961" x="-0.5" y="-0.5" width="1" height="1" /></g>
<g transform="translate(711 165) rotate(217) scale(26 132)"><rect fill="#a97eda" fill-opacity="0.501961" x="-0.5" y="-0.5" width="1" height="1" /></g>
<g transform="translate(65 140) rotate(110) scale(160 211)"><rect fill="#000104" fill-opacity="0.501961" x="-0.5" y="-0.5" width="1" height="1" /></g>
</g>
</svg>