<svg xmlns="http://www.w3.org/2000/svg" version="1.1" width="1200" height="630">
<rect x="0" y="0" width="1200" height="630" fill="#1d1b1d" />
<g transform="scale(1.000000) translate(0.5 0.5)">
<g transform="translate(453.151386 132.606093) rotate(320.132654) scale(95.815028 121.235448)"><ellipse fill="#ffecd4" fill-opacity="0.501961" cx="0" cy="0" rx="1" ry="1" /></g>
<g transform="translate(246.947037 501.356729) rotate(151.787024) scale(171.123954 68.698116)"><ellipse fill="#c5ff45" fill-opacity="0.501961" cx="0" cy="0" rx="1" ry="1" /></g>
<g transform="translate(1156.379750 359.504971) rotate(272.001611) scale(104.714190 62.883265)"><ellipse fill="#cbff64" fill-opacity="0.501961" cx="0" cy="0" rx="1" ry="1" /></g>
<g transform="translate(420.409443 63.306477) rotate(267.887776) scale(70.943023 143.338321)"><ellipse fill="#9723bd" fill-opacity="0.501961" cx="0" cy="0" rx="1" ry="1" /></g>
<g transform="translate(847.241135 22.841066) rotate(219.480308) scale(72.545243 40.470025)"><ellipse fill="#d090d0" fill-opacity="0.501961" cx="0" cy="0" rx="1" ry="1" /></g>
<g transform="translate(478.427652 176.141871) rotate(-23.216378) scale(80.860856 63.400416)"><ellipse fill="#d5ff4c" fill-opacity="0.501961" cx="0" cy="0" rx="1" ry="1" /></g>
<g transform="translate(355.901649 585.542002) rotate(67.000328) scale(84.028311 95.480994)"><ellipse fill="#7b0075" fill-opacity="0.501961" cx="0" cy="0" rx="1" ry="1" /></g>
<g transform="translate(356.326627 457.176319) rotate(-38.115631) scale(34.743730 79.954383)"><ellipse fill="#b3ff1f" fill-opacity="0.501961" cx="0" cy="0" rx="1" ry="1" /></g>
<g transform="translate(125.905584 601.520061) rotate(68.719552) scale(94.914184 81.931796)"><ellipse fill="#66337b" fill-opacity="0.501961" cx="0" cy="0" rx="1" ry="1" /></g>
<g transform="translate(785.508759 597.336528) rotate(315.490590) scale(64.440431 65.319159)"><ellipse fill="#7c007c" fill-opacity="0.501961" cx="0" cy="0" rx="1" ry="1" /></g>
<g transform="translate(274.561577 461.433475) rotate(412.103281) scale(33.633594 115.745099)"><ellipse fill="#8fea18" fill-opacity="0.501961" cx="0" cy="0" rx="1" ry="1" /></g>
<g transform="translate(215.392541 558.226381) rotate(247.377708) scale(106.553255 32.206235)"><ellipse fill="#5fa008" fill-opacity="0.501961" cx="0" cy="0" rx="1" ry="1" /></g>
<g transform="translate(366.930591 207.248519) rotate(50.368775) scale(176.828372 30.050807)"><ellipse fill="#000004" fill-opacity="0.501961" cx="0" cy="0" rx="1" ry="1" /></g>
<g transform="translate(435.540361 473.538681) rotate(324.453986) scale(24.656304 104.904856)"><ellipse fill="#000003" fill-opacity="0.501961" cx="0" cy="0" rx="1" ry="1" /></g>
<g transform="translate(360.747525 114.598113) rotate(46.863152) scale(66.275154 32.465905)"><ellipse fill="#932fb4" fill-opacity="0.501961" cx="0" cy="0" rx="1" ry="1" /></g>
<g transform="translate(874.071949 357.401279) rotate(505.426640) scale(162.496735 486.045802)"><ellipse fill="#000002" fill-opacity="0.501961" cx="0" cy="0" rx="1" ry="1" /></g>
<g transform="translate(1113.558907 403.080723) rotate(101.009634) scale(63.865722 18.637430)"><ellipse fill="#96c352" fill-opacity="0.501961" cx="0" cy="0" rx="1" ry="1" /></g>
<g transform="translate(1102.564711 75.751341) rotate(248.051909) scale(187.095513 201.880796)"><ellipse fill="#000000" fill-opacity="0.501961" cx="0" cy="0" rx="1" ry="1" /></g>
<g transform="translate(119.838444 215.405800) rotate(256.972547) scale(253.462401 209.687925)"><ellipse fill="#000000" fill-opacity="0.501961" cx="0" cy="0" rx="1" ry="1" /></g>
<g transform="translate(434.012382 38.661473) rotate(285.730708) scale(70.039037 114.246464)"><ellipse fill="#732f87" fill-opacity="0.501961" cx="0" cy="0" rx="1" ry="1" /></g>
<g transform="translate(554.900201 118.979983) rotate(303.501175) scale(18.547685 28.056427)"><ellipse fill="#000000" fill-opacity="0.501961" cx="0" cy="0" rx="1" ry="1" /></g>
<g transform="translate(562.404299 439.595389) rotate(-37.646145) scale(156.267778 220.822575)"><ellipse fill="#000007" fill-opacity="0.501961" cx="0" cy="0" rx="1" ry="1" /></g>
<g transform="translate(1125.857846 283.987648) rotate(-10.477843) scale(23.551947 27.383660)"><ellipse fill="#a6d858" fill-opacity="0.501961" cx="0" cy="0" rx="1" ry="1" /></g>
<g transform="translate(48.271554 481.507089) rotate(149.132989) scale(166.161771 55.047976)"><ellipse fill="#000000" fill-opacity="0.501961" cx="0" cy="0" rx="1" ry="1" /></g>
<g transform="translate(390.288727 493.324316) rotate(313.571841) scale(16.041474 44.235168)"><ellipse fill="#9bf924" fill-opacity="0.501961" cx="0" cy="0" rx="1" ry="1" /></g>
<g transform="translate(485.701381 202.656810) rotate(-16.728441) scale(67.261162 36.593978)"><ellipse fill="#c1ff6a" fill-opacity="0.501961" cx="0" cy="0" rx="1" ry="1" /></g>
<g transform="translate(1167.199330 533.455308) rotate(216.569147) scale(89.040039 68.164940)"><ellipse fill="#000000" fill-opacity="0.501961" cx="0" cy="0" rx="1" ry="1" /></g>
<g transform="translate(1076.173883 326.052250) rotate(-3.778060) scale(24.407366 73.954916)"><ellipse fill="#000001" fill-opacity="0.501961" cx="0" cy="0" rx="1" ry="1" /></g>
<g transform="translate(127.041803 556.546214) rotate(280.024262) scale(57.000271 45.938807)"><ellipse fill="#643b72" fill-opacity="0.501961" cx="0" cy="0" rx="1" ry="1" /></g>
<g transform="translate(374.421412 532.031233) rotate(103.363583) scale(19.818383 66.546830)"><ellipse fill="#61006a" fill-opacity="0.501961" cx="0" cy="0" rx="1" ry="1" /></g>
<g transform="translate(307.936428 373.670623) rotate(238.867413) scale(24.487901 112.545459)"><ellipse fill="#00000b" fill-opacity="0.501961" cx="0" cy="0" rx="1" ry="1" /></g>
<g transform="translate(529.995522 62.121869) rotate(278.012006) scale(27.949651 39.851935)"><ellipse fill="#9546a7" fill-opacity="0.501961" cx="0" cy="0" rx="1" ry="1" /></g>
<g transform="translate(304.355779 497.397496) rotate(134.321511) scale(81.586831 20.328698)"><ellipse fill="#82d616" fill-opacity="0.501961" cx="0" cy="0" rx="1" ry="1" /></g>
<g transform="translate(347.014669 408.775232) rotate(104.876576) scale(29.928201 18.048969)"><ellipse fill="#abfb30" fill-opacity="0.501961" cx="0" cy="0" rx="1" ry="1" /></g>
<g transform="translate(384.524033 201.768746) rotate(418.983160) scale(45.535660 14.662473)"><ellipse fill="#00000d" fill-opacity="0.501961" cx="0" cy="0" rx="1" ry="1" /></g>
<g transform="translate(1175.029489 439.534404) rotate(0.617872) scale(81.032297 22.738796)"><ellipse fill="#70933c" fill-opacity="0.501961" cx="0" cy="0" rx="1" ry="1" /></g>
<g transform="translate(270.764683 8.215005) rotate(-42.930225) scale(151.597510 38.739004)"><ellipse fill="#000001" fill-opacity="0.501961" cx="0" cy="0" rx="1" ry="1" /></g>
<g transform="translate(301.257555 552.085979) rotate(230.131225) scale(18.598454 60.959364)"><ellipse fill="#490051" fill-opacity="0.501961" cx="0" cy="0" rx="1" ry="1" /></g>
<g transform="translate(339.118265 269.283287) rotate(160.162752) scale(85.119920 112.134255)"><ellipse fill="#020311" fill-opacity="0.501961" cx="0" cy="0" rx="1" ry="1" /></g>
<g transform="translate(539.368717 242.534092) rotate(58.084078) scale(23.704114 142.345167)"><ellipse fill="#000211" fill-opacity="0.501961" cx="0" cy="0" rx="1" ry="1" /></g>
<g transform="translate(64.827069 553.243537) rotate(61.001990) scale(16.627219 65.217937)"><ellipse fill="#694e63" fill-opacity="0.501961" cx="0" cy="0" rx="1" ry="1" /></g>
<g transform="translate(562.942617 19.600919) rotate(43.974954) scale(111.450219 23.350238)"><ellipse fill="#000005" fill-opacity="0.501961" cx="0" cy="0" rx="1" ry="1" /></g>
<g transform="translate(501.886897 572.175888) rotate(152.244614) scale(48.813667 125.237992)"><ellipse fill="#000109" fill-opacity="0.501961" cx="0" cy="0" rx="1" ry="1" /></g>
<g transform="translate(1048.369609 142.437797) rotate(122.686314) scale(372.519124 116.718633)"><ellipse fill="#00000b" fill-opacity="0.501961" cx="0" cy="0" rx="1" ry="1" /></g>
<g transform="translate(452.305671 159.622167) rotate(48.812308) scale(30.521720 66.022945)"><ellipse fill="#a6ef5b" fill-opacity="0.501961" cx="0" cy="0" rx="1" ry="1" /></g>
<g transform="translate(542.955174 155.967427) rotate(251.041793) scale(34.943769 15.766765)"><ellipse fill="#b0fa5d" fill-opacity="0.501961" cx="0" cy="0" rx="1" ry="1" /></g>
<g transform="translate(375.830881 55.527003) rotate(83.071505) scale(39.977961 102.734240)"><ellipse fill="#72367f" fill-opacity="0.501961" cx="0" cy="0" rx="1" ry="1" /></g>
<g transform="translate(234.803670 448.954480) rotate(333.459626) scale(90.785193 12.040314)"><ellipse fill="#88d31e" fill-opacity="0.501961" cx="0" cy="0" rx="1" ry="1" /></g>
<g transform="translate(570.764056 121.014884) rotate(224.507482) scale(37.068389 26.269660)"><ellipse fill="#000009" fill-opacity="0.501961" cx="0" cy="0" rx="1" ry="1" /></g>
<g transform="translate(1094.677831 556.765972) rotate(252.463460) scale(96.187960 137.944707)"><ellipse fill="#000004" fill-opacity="0.501961" cx="0" cy="0" rx="1" ry="1" /></g>
<g transform="translate(784.286916 502.095062) rotate(-8.265557) scale(317.271974 30.844797)"><ellipse fill="#01020e" fill-opacity="0.501961" cx="0" cy="0" rx="1" ry="1" /></g>
<g transform="translate(1130.308752 310.641540) rotate(79.933324) scale(59.394414 28.004465)"><ellipse fill="#85ab4a" fill-opacity="0.501961" cx="0" cy="0" rx="1" ry="1" /></g>
<g transform="translate(1199.000000 242.086514) rotate(86.094647) scale(16.803917 96.976218)"><ellipse fill="#000006" fill-opacity="0.501961" cx="0" cy="0" rx="1" ry="1" /></g>
<g transform="translate(116.568304 623.740960) rotate(28.963805) scale(112.610149 52.398453)"><ellipse fill="#43333d" fill-opacity="0.501961" cx="0" cy="0" rx="1" ry="1" /></g>
<g transform="translate(354.937502 121.709282) rotate(143.546660) scale(18.984662 74.644792)"><ellipse fill="#8f3aa6" fill-opacity="0.501961" cx="0" cy="0" rx="1" ry="1" /></g>
<g transform="translate(99.809510 190.362278) rotate(280.678025) scale(344.947375 159.209835)"><ellipse fill="#00000a" fill-opacity="0.501961" cx="0" cy="0" rx="1" ry="1" /></g>
<g transform="translate(230.170906 580.873181) rotate(175.376508) scale(27.389798 99.398827)"><ellipse fill="#5d8918" fill-opacity="0.501961" cx="0" cy="0" rx="1" ry="1" /></g>
<g transform="translate(783.233573 89.836913) rotate(374.381675) scale(249.275931 34.589961)"><ellipse fill="#01020d" fill-opacity="0.501961" cx="0" cy="0" rx="1" ry="1" /></g>
<g transform="translate(145.690420 511.257357) rotate(157.284917) scale(13.188058 21.467326)"><ellipse fill="#8b539e" fill-opacity="0.501961" cx="0" cy="0" rx="1" ry="1" /></g>
<g transform="translate(448.671657 580.744910) rotate(253.124718) scale(24.764338 4.247591)"><ellipse fill="#6cb410" fill-opacity="0.501961" cx="0" cy="0" rx="1" ry="1" /></g>
<g transform="translate(900.022587 588.220397) rotate(-68.748047) scale(107.727192 47.272805)"><ellipse fill="#000007" fill-opacity="0.501961" cx="0" cy="0" rx="1" ry="1" /></g>
<g transform="translate(615.693831 245.449753) rotate(219.387991) scale(79.232849 151.611928)"><ellipse fill="#040514" fill-opacity="0.501961" cx="0" cy="0" rx="1" ry="1" /></g>
<g transform="translate(1184.449052 281.984345) rotate(320.262955) scale(27.424208 14.745619)"><ellipse fill="#7ba242" fill-opacity="0.501961" cx="0" cy="0" rx="1" ry="1" /></g>
<g transform="translate(417.838862 590.474442) rotate(69.536704) scale(76.543438 27.868903)"><ellipse fill="#560057" fill-opacity="0.501961" cx="0" cy="0" rx="1" ry="1" /></g>
<g transform="translate(176.146654 599.242535) rotate(240.096817) scale(71.831409 22.939496)"><ellipse fill="#634566" fill-opacity="0.501961" cx="0" cy="0" rx="1" ry="1" /></g>
<g transform="translate(790.141301 561.207348) rotate(95.044745) scale(24.539672 45.044855)"><ellipse fill="#630063" fill-opacity="0.501961" cx="0" cy="0" rx="1" ry="1" /></g>
<g transform="translate(2.269681 618.566528) rotate(422.198763) scale(97.426023 23.301225)"><ellipse fill="#000000" fill-opacity="0.501961" cx="0" cy="0" rx="1" ry="1" /></g>
<g transform="translate(885.351739 25.100069) rotate(74.395769) scale(49.114167 17.984713)"><ellipse fill="#765577" fill-opacity="0.501961" cx="0" cy="0" rx="1" ry="1" /></g>
<g transform="translate(169.650086 481.542951) rotate(261.160795) scale(14.033028 23.608400)"><ellipse fill="#6da71a" fill-opacity="0.501961" cx="0" cy="0" rx="1" ry="1" /></g>
<g transform="translate(353.722723 420.849081) rotate(234.666677) scale(38.247216 20.663117)"><ellipse fill="#99e829" fill-opacity="0.501961" cx="0" cy="0" rx="1" ry="1" /></g>
<g transform="translate(389.614574 408.624265) rotate(151.430860) scale(16.496215 56.324341)"><ellipse fill="#030213" fill-opacity="0.501961" cx="0" cy="0" rx="1" ry="1" /></g>
<g transform="translate(1094.675645 300.010793) rotate(273.422640) scale(88.539193 8.709266)"><ellipse fill="#00000b" fill-opacity="0.501961" cx="0" cy="0" rx="1" ry="1" /></g>
<g transform="translate(324.030277 624.984368) rotate(60.454951) scale(88.990300 52.814335)"><ellipse fill="#3e0040" fill-opacity="0.501961" cx="0" cy="0" rx="1" ry="1" /></g>
<g transform="translate(348.577369 559.160322) rotate(237.849103) scale(55.263215 51.795241)"><ellipse fill="#560057" fill-opacity="0.501961" cx="0" cy="0" rx="1" ry="1" /></g>
<g transform="translate(1110.790139 432.356222) rotate(246.789473) scale(26.569074 14.453955)"><ellipse fill="#88aa4b" fill-opacity="0.501961" cx="0" cy="0" rx="1" ry="1" /></g>
<g transform="translate(366.876322 480.360588) rotate(112.603387) scale(28.072236 43.447502)"><ellipse fill="#8bd526" fill-opacity="0.501961" cx="0" cy="0" rx="1" ry="1" /></g>
<g transform="translate(671.403459 601.346281) rotate(54.493899) scale(65.603929 42.886774)"><ellipse fill="#000006" fill-opacity="0.501961" cx="0" cy="0" rx="1" ry="1" /></g>
<g transform="translate(407.800691 122.112528) rotate(307.983663) scale(51.259412 22.543312)"><ellipse fill="#9439af" fill-opacity="0.501961" cx="0" cy="0" rx="1" ry="1" /></g>
<g transform="translate(492.125668 608.520535) rotate(270.128777) scale(41.912375 41.278706)"><ellipse fill="#000007" fill-opacity="0.501961" cx="0" cy="0" rx="1" ry="1" /></g>
<g transform="translate(427.029422 205.314400) rotate(320.121283) scale(22.534069 27.405583)"><ellipse fill="#baf168" fill-opacity="0.501961" cx="0" cy="0" rx="1" ry="1" /></g>
<g transform="translate(558.009527 107.795050) rotate(73.528068) scale(15.597968 33.859760)"><ellipse fill="#070514" fill-opacity="0.501961" cx="0" cy="0" rx="1" ry="1" /></g>
<g transform="translate(336.159883 456.078636) rotate(120.592197) scale(39.424557 70.819066)"><ellipse fill="#8fd328" fill-opacity="0.501961" cx="0" cy="0" rx="1" ry="1" /></g>
<g transform="translate(527.544700 146.374400) rotate(225.680272) scale(31.126230 25.001260)"><ellipse fill="#aae45f" fill-opacity="0.501961" cx="0" cy="0" rx="1" ry="1" /></g>
<g transform="translate(454.218904 92.021218) rotate(267.565904) scale(23.272969 97.342948)"><ellipse fill="#8d3da2" fill-opacity="0.501961" cx="0" cy="0" rx="1" ry="1" /></g>
<g transform="translate(778.312287 596.581754) rotate(111.859629) scale(56.263316 60.989815)"><ellipse fill="#4d004d" fill-opacity="0.501961" cx="0" cy="0" rx="1" ry="1" /></g>
<g transform="translate(934.091742 15.338592) rotate(153.041673) scale(30.901434 75.923198)"><ellipse fill="#000005" fill-opacity="0.501961" cx="0" cy="0" rx="1" ry="1" /></g>
<g transform="translate(564.364265 65.130740) rotate(331.905526) scale(11.109952 8.417311)"><ellipse fill="#9342a9" fill-opacity="0.501961" cx="0" cy="0" rx="1" ry="1" /></g>
<g transform="translate(1113.754836 274.329361) rotate(348.168037) scale(8.240005 21.328771)"><ellipse fill="#8db24d" fill-opacity="0.501961" cx="0" cy="0" rx="1" ry="1" /></g>
<g transform="translate(326.346649 77.642015) rotate(105.677087) scale(17.078717 56.878366)"><ellipse fill="#793b87" fill-opacity="0.501961" cx="0" cy="0" rx="1" ry="1" /></g>
<g transform="translate(1050.182053 628.142489) rotate(272.119798) scale(39.090882 205.085687)"><ellipse fill="#000003" fill-opacity="0.501961" cx="0" cy="0" rx="1" ry="1" /></g>
<g transform="translate(134.888855 527.558131) rotate(386.141324) scale(29.429298 29.868460)"><ellipse fill="#7b597b" fill-opacity="0.501961" cx="0" cy="0" rx="1" ry="1" /></g>
<g transform="translate(416.322924 14.924879) rotate(-2.994097) scale(99.311528 30.797036)"><ellipse fill="#63306e" fill-opacity="0.501961" cx="0" cy="0" rx="1" ry="1" /></g>
<g transform="translate(802.378660 6.387563) rotate(146.580299) scale(16.542372 54.899053)"><ellipse fill="#7e5b7e" fill-opacity="0.501961" cx="0" cy="0" rx="1" ry="1" /></g>
<g transform="translate(300.750672 372.431623) rotate(341.574640) scale(74.038031 29.322158)"><ellipse fill="#080812" fill-opacity="0.501961" cx="0" cy="0" rx="1" ry="1" /></g>
<g transform="translate(869.713518 58.194753) rotate(290.275147) scale(18.795170 31.654463)"><ellipse fill="#936a93" fill-opacity="0.501961" cx="0" cy="0" rx="1" ry="1" /></g>
<g transform="translate(232.919762 515.427861) rotate(204.410334) scale(59.959107 35.069224)"><ellipse fill="#6ea31d" fill-opacity="0.501961" cx="0" cy="0" rx="1" ry="1" /></g>
<g transform="translate(1185.931750 201.949717) rotate(-63.692088) scale(62.688086 45.705326)"><ellipse fill="#000007" fill-opacity="0.501961" cx="0" cy="0" rx="1" ry="1" /></g>
<g transform="translate(329.134519 525.061951) rotate(28.636367) scale(17.002788 26.855724)"><ellipse fill="#5c005d" fill-opacity="0.501961" cx="0" cy="0" rx="1" ry="1" /></g>
<g transform="translate(1199.000000 434.289578) rotate(178.813836) scale(51.390845 28.188141)"><ellipse fill="#648037" fill-opacity="0.501961" cx="0" cy="0" rx="1" ry="1" /></g>
<g transform="translate(327.720682 165.333808) rotate(128.767248) scale(29.866957 71.077091)"><ellipse fill="#070712" fill-opacity="0.501961" cx="0" cy="0" rx="1" ry="1" /></g>
</g>
</svg>