<svg xmlns="http://www.w3.org/2000/svg" version="1.1" width="1200" height="630">
<rect x="0" y="0" width="1200" height="630" fill="#43502d" />
<g transform="scale(1.000000) translate(0.5 0.5)">
<ellipse fill="#ffffe0" fill-opacity="0.501961" cx="531" cy="264" rx="204" ry="204" />
<ellipse fill="#ffff3e" fill-opacity="0.501961" cx="655" cy="337" rx="138" ry="138" />
<ellipse fill="#28f0ce" fill-opacity="0.501961" cx="428" cy="79" rx="195" ry="195" />
<ellipse fill="#ffff22" fill-opacity="0.501961" cx="757" cy="421" rx="75" ry="75" />
<ellipse fill="#bf7500" fill-opacity="0.501961" cx="232" cy="0" rx="162" ry="162" />
<ellipse fill="#000000" fill-opacity="0.501961" cx="342" cy="289" rx="51" ry="51" />
<ellipse fill="#ffffc1" fill-opacity="0.501961" cx="524" cy="330" rx="117" ry="117" />
<ellipse fill="#ffffc2" fill-opacity="0.501961" cx="367" cy="388" rx="54" ry="54" />
<ellipse fill="#00dafc" fill-opacity="0.501961" cx="734" cy="629" rx="84" ry="84" />
<ellipse fill="#fdb400" fill-opacity="0.501961" cx="659" cy="220" rx="72" ry="72" />
<ellipse fill="#9e6e00" fill-opacity="0.501961" cx="1053" cy="629" rx="193" ry="193" />
<ellipse fill="#12ffff" fill-opacity="0.501961" cx="276" cy="183" rx="53" ry="53" />
<ellipse fill="#000000" fill-opacity="0.501961" cx="469" cy="569" rx="135" ry="135" />
<ellipse fill="#000000" fill-opacity="0.501961" cx="1006" cy="190" rx="269" ry="269" />
<ellipse fill="#ffe500" fill-opacity="0.501961" cx="818" cy="475" rx="43" ry="43" />
<ellipse fill="#000000" fill-opacity="0.501961" cx="26" cy="435" rx="291" ry="291" />
<ellipse fill="#ffffca" fill-opacity="0.501961" cx="306" cy="407" rx="28" ry="28" />
<ellipse fill="#000000" fill-opacity="0.501961" cx="796" cy="69" rx="143" ry="143" />
<ellipse fill="#fffcdc" fill-opacity="0.501961" cx="665" cy="405" rx="56" ry="56" />
<ellipse fill="#000000" fill-opacity="0.501961" cx="0" cy="76" rx="118" ry="118" />
<ellipse fill="#f48e00" fill-opacity="0.501961" cx="384" cy="74" rx="37" ry="37" />
<ellipse fill="#ffe200" fill-opacity="0.501961" cx="714" cy="315" rx="58" ry="58" />
<ellipse fill="#14ffff" fill-opacity="0.501961" cx="213" cy="184" rx="32" ry="32" />
<ellipse fill="#a97d00" fill-opacity="0.501961" cx="645" cy="135" rx="43" ry="43" />
<ellipse fill="#002a4b" fill-opacity="0.501961" cx="613" cy="515" rx="70" ry="70" />
<ellipse fill="#00020e" fill-opacity="0.501961" cx="340" cy="594" rx="164" ry="164" />
<ellipse fill="#00efff" fill-opacity="0.501961" cx="410" cy="181" rx="83" ry="83" />
<ellipse fill="#000000" fill-opacity="0.501961" cx="911" cy="453" rx="57" ry="57" />
<ellipse fill="#000000" fill-opacity="0.501961" cx="319" cy="295" rx="57" ry="57" />
<ellipse fill="#c39e00" fill-opacity="0.501961" cx="886" cy="563" rx="59" ry="59" />
<ellipse fill="#00bada" fill-opacity="0.501961" cx="540" cy="98" rx="89" ry="89" />
<ellipse fill="#000000" fill-opacity="0.501961" cx="394" cy="277" rx="22" ry="22" />
<ellipse fill="#c7a300" fill-opacity="0.501961" cx="146" cy="137" rx="45" ry="45" />
<ellipse fill="#241f00" fill-opacity="0.501961" cx="1159" cy="629" rx="94" ry="94" />
<ellipse fill="#ab7600" fill-opacity="0.501961" cx="277" cy="66" rx="73" ry="73" />
<ellipse fill="#a47e00" fill-opacity="0.501961" cx="1162" cy="464" rx="55" ry="55" />
<ellipse fill="#fff28f" fill-opacity="0.501961" cx="532" cy="223" rx="34" ry="34" />
<ellipse fill="#ffda00" fill-opacity="0.501961" cx="658" cy="180" rx="46" ry="46" />
<ellipse fill="#01bad2" fill-opacity="0.501961" cx="641" cy="629" rx="41" ry="41" />
<ellipse fill="#26fcf8" fill-opacity="0.501961" cx="578" cy="493" rx="19" ry="19" />
<ellipse fill="#fff8a0" fill-opacity="0.501961" cx="334" cy="397" rx="35" ry="35" />
<ellipse fill="#ffd000" fill-opacity="0.501961" cx="755" cy="372" rx="50" ry="50" />
<ellipse fill="#ffff87" fill-opacity="0.501961" cx="273" cy="420" rx="16" ry="16" />
<ellipse fill="#00102e" fill-opacity="0.501961" cx="713" cy="519" rx="42" ry="42" />
<ellipse fill="#ffe4d2" fill-opacity="0.501961" cx="729" cy="436" rx="29" ry="29" />
<ellipse fill="#b39700" fill-opacity="0.501961" cx="997" cy="533" rx="57" ry="57" />
<ellipse fill="#000000" fill-opacity="0.501961" cx="626" cy="100" rx="16" ry="16" />
<ellipse fill="#fff898" fill-opacity="0.501961" cx="406" cy="403" rx="35" ry="35" />
<ellipse fill="#fff998" fill-opacity="0.501961" cx="404" cy="347" rx="43" ry="43" />
<ellipse fill="#f68f00" fill-opacity="0.501961" cx="427" cy="78" rx="18" ry="18" />
<ellipse fill="#000000" fill-opacity="0.501961" cx="258" cy="259" rx="37" ry="37" />
<ellipse fill="#00000c" fill-opacity="0.501961" cx="975" cy="411" rx="74" ry="74" />
<ellipse fill="#007bb4" fill-opacity="0.501961" cx="378" cy="0" rx="33" ry="33" />
<ellipse fill="#1dfcfd" fill-opacity="0.501961" cx="611" cy="514" rx="17" ry="17" />
<ellipse fill="#ffc700" fill-opacity="0.501961" cx="795" cy="452" rx="49" ry="49" />
<ellipse fill="#0daac1" fill-opacity="0.501961" cx="603" cy="22" rx="35" ry="35" />
<ellipse fill="#00b1d8" fill-opacity="0.501961" cx="581" cy="197" rx="25" ry="25" />
<ellipse fill="#15b9c1" fill-opacity="0.501961" cx="783" cy="582" rx="34" ry="34" />
<ellipse fill="#000000" fill-opacity="0.501961" cx="527" cy="471" rx="28" ry="28" />
<ellipse fill="#000000" fill-opacity="0.501961" cx="614" cy="475" rx="26" ry="26" />
<ellipse fill="#000006" fill-opacity="0.501961" cx="736" cy="180" rx="32" ry="32" />
<ellipse fill="#5f8f4d" fill-opacity="0.501961" cx="291" cy="475" rx="27" ry="27" />
<ellipse fill="#000000" fill-opacity="0.501961" cx="688" cy="46" rx="58" ry="58" />
<ellipse fill="#ffca00" fill-opacity="0.501961" cx="850" cy="498" rx="23" ry="23" />
<ellipse fill="#000000" fill-opacity="0.501961" cx="607" cy="169" rx="14" ry="14" />
<ellipse fill="#26ebfc" fill-opacity="0.501961" cx="332" cy="213" rx="33" ry="33" />
<ellipse fill="#000000" fill-opacity="0.501961" cx="617" cy="130" rx="14" ry="14" />
<ellipse fill="#ffd600" fill-opacity="0.501961" cx="690" cy="275" rx="60" ry="60" />
<ellipse fill="#af9700" fill-opacity="0.501961" cx="233" cy="102" rx="49" ry="49" />
<ellipse fill="#fffb98" fill-opacity="0.501961" cx="487" cy="277" rx="46" ry="46" />
<ellipse fill="#082830" fill-opacity="0.501961" cx="468" cy="502" rx="63" ry="63" />
<ellipse fill="#b18d00" fill-opacity="0.501961" cx="354" cy="70" rx="46" ry="46" />
<ellipse fill="#ae9300" fill-opacity="0.501961" cx="1073" cy="492" rx="45" ry="45" />
<ellipse fill="#000000" fill-opacity="0.501961" cx="591" cy="576" rx="39" ry="39" />
<ellipse fill="#000000" fill-opacity="0.501961" cx="673" cy="543" rx="29" ry="29" />
<ellipse fill="#21d3e9" fill-opacity="0.501961" cx="321" cy="153" rx="31" ry="31" />
<ellipse fill="#fff695" fill-opacity="0.501961" cx="467" cy="409" rx="34" ry="34" />
<ellipse fill="#000004" fill-opacity="0.501961" cx="854" cy="388" rx="37" ry="37" />
<ellipse fill="#665e00" fill-opacity="0.501961" cx="152" cy="57" rx="74" ry="74" />
<ellipse fill="#000000" fill-opacity="0.501961" cx="827" cy="621" rx="22" ry="22" />
<ellipse fill="#f5cc00" fill-opacity="0.501961" cx="653" cy="140" rx="29" ry="29" />
<ellipse fill="#537b49" fill-opacity="0.501961" cx="349" cy="503" rx="31" ry="31" />
<ellipse fill="#000000" fill-opacity="0.501961" cx="659" cy="481" rx="23" ry="23" />
<ellipse fill="#000000" fill-opacity="0.501961" cx="591" cy="228" rx="10" ry="10" />
<ellipse fill="#e5bf23" fill-opacity="0.501961" cx="774" cy="234" rx="14" ry="14" />
<ellipse fill="#fff4b3" fill-opacity="0.501961" cx="628" cy="353" rx="49" ry="49" />
<ellipse fill="#000005" fill-opacity="0.501961" cx="52" cy="453" rx="182" ry="182" />
<ellipse fill="#000000" fill-opacity="0.501961" cx="376" cy="282" rx="28" ry="28" />
<ellipse fill="#070000" fill-opacity="0.501961" cx="601" cy="193" rx="12" ry="12" />
<ellipse fill="#000001" fill-opacity="0.501961" cx="1098" cy="129" rx="289" ry="289" />
<ellipse fill="#000000" fill-opacity="0.501961" cx="7" cy="80" rx="81" ry="81" />
<ellipse fill="#6e5c0e" fill-opacity="0.501961" cx="848" cy="204" rx="28" ry="28" />
<ellipse fill="#fff3a0" fill-opacity="0.501961" cx="506" cy="374" rx="70" ry="70" />
<ellipse fill="#29dee0" fill-opacity="0.501961" cx="392" cy="494" rx="12" ry="12" />
<ellipse fill="#001b43" fill-opacity="0.501961" cx="802" cy="531" rx="26" ry="26" />
<ellipse fill="#27fdff" fill-opacity="0.501961" cx="536" cy="501" rx="10" ry="10" />
<ellipse fill="#000005" fill-opacity="0.501961" cx="899" cy="483" rx="32" ry="32" />
<ellipse fill="#2bffff" fill-opacity="0.501961" cx="567" cy="170" rx="31" ry="31" />
<ellipse fill="#00b1c1" fill-opacity="0.501961" cx="565" cy="461" rx="15" ry="15" />
<ellipse fill="#2edbd8" fill-opacity="0.501961" cx="455" cy="497" rx="12" ry="12" />
</g>
</svg>