<svg xmlns="http://www.w3.org/2000/svg" version="1.1" width="1200" height="630">
<rect x="0" y="0" width="1200" height="630" fill="#2c2b3d" />
<g transform="scale(1.000000) translate(0.5 0.5)">
<rect fill="#947bff" fill-opacity="0.501961" x="487" y="31" width="225" height="193" />
<rect fill="#fffa9c" fill-opacity="0.501961" x="754" y="107" width="161" height="154" />
<rect fill="#ffc489" fill-opacity="0.501961" x="719" y="355" width="117" height="133" />
<rect fill="#ffe68f" fill-opacity="0.501961" x="283" y="103" width="94" height="153" />
<rect fill="#ffcc79" fill-opacity="0.501961" x="79" y="307" width="92" height="82" />
<rect fill="#7b68ff" fill-opacity="0.501961" x="549" y="72" width="128" height="165" />
<rect fill="#000817" fill-opacity="0.501961" x="0" y="454" width="744" height="176" />
<rect fill="#ffb07a" fill-opacity="0.501961" x="784" y="100" width="99" height="165" />
<rect fill="#000d1c" fill-opacity="0.501961" x="871" y="239" width="329" height="128" />
<rect fill="#10223c" fill-opacity="0.501961" x="364" y="205" width="230" height="328" />
<rect fill="#ffa878" fill-opacity="0.501961" x="736" y="397" width="138" height="36" />
<rect fill="#ffab7e" fill-opacity="0.501961" x="679" y="427" width="143" height="24" />
<rect fill="#eaa56a" fill-opacity="0.501961" x="254" y="97" width="81" height="57" />
<rect fill="#000513" fill-opacity="0.501961" x="732" y="0" width="70" height="131" />
<rect fill="#7251a8" fill-opacity="0.501961" x="311" y="0" width="122" height="80" />
<rect fill="#031a2b" fill-opacity="0.501961" x="682" y="168" width="66" height="170" />
<rect fill="#ff9e74" fill-opacity="0.501961" x="793" y="330" width="23" height="146" />
<rect fill="#806cff" fill-opacity="0.501961" x="472" y="130" width="219" height="56" />
<rect fill="#ffbd82" fill-opacity="0.501961" x="298" y="153" width="82" height="74" />
<rect fill="#000001" fill-opacity="0.501961" x="0" y="0" width="183" height="293" />
<rect fill="#9375ff" fill-opacity="0.501961" x="835" y="474" width="164" height="11" />
<rect fill="#000000" fill-opacity="0.501961" x="921" y="0" width="279" height="211" />
<rect fill="#454484" fill-opacity="0.501961" x="457" y="454" width="207" height="42" />
<rect fill="#ff9b70" fill-opacity="0.501961" x="744" y="373" width="25" height="145" />
<rect fill="#dfa46b" fill-opacity="0.501961" x="108" y="320" width="31" height="107" />
<rect fill="#c6835c" fill-opacity="0.501961" x="208" y="221" width="22" height="112" />
<rect fill="#5f4fca" fill-opacity="0.501961" x="531" y="0" width="102" height="142" />
<rect fill="#000000" fill-opacity="0.501961" x="473" y="0" width="51" height="55" />
<rect fill="#0b1d34" fill-opacity="0.501961" x="815" y="268" width="112" height="130" />
<rect fill="#67459f" fill-opacity="0.501961" x="867" y="545" width="148" height="77" />
<rect fill="#00112f" fill-opacity="0.501961" x="746" y="241" width="35" height="132" />
<rect fill="#f3b583" fill-opacity="0.501961" x="755" y="206" width="209" height="19" />
<rect fill="#000b1d" fill-opacity="0.501961" x="353" y="97" width="138" height="35" />
<rect fill="#0e1b29" fill-opacity="0.501961" x="245" y="165" width="50" height="300" />
<rect fill="#cba275" fill-opacity="0.501961" x="275" y="144" width="191" height="17" />
<rect fill="#e3a9ab" fill-opacity="0.501961" x="711" y="147" width="75" height="21" />
<rect fill="#000108" fill-opacity="0.501961" x="878" y="0" width="43" height="119" />
<rect fill="#8f79ff" fill-opacity="0.501961" x="625" y="184" width="42" height="61" />
<rect fill="#d69f69" fill-opacity="0.501961" x="54" y="365" width="144" height="22" />
<rect fill="#ea9064" fill-opacity="0.501961" x="227" y="334" width="15" height="80" />
<rect fill="#6252d4" fill-opacity="0.501961" x="640" y="50" width="89" height="59" />
<rect fill="#f1ac79" fill-opacity="0.501961" x="750" y="149" width="170" height="63" />
<rect fill="#6555bb" fill-opacity="0.501961" x="379" y="494" width="89" height="19" />
<rect fill="#0a1a26" fill-opacity="0.501961" x="376" y="190" width="157" height="46" />
<rect fill="#122031" fill-opacity="0.501961" x="339" y="241" width="197" height="236" />
<rect fill="#000914" fill-opacity="0.501961" x="855" y="414" width="336" height="59" />
<rect fill="#000812" fill-opacity="0.501961" x="676" y="0" width="181" height="45" />
<rect fill="#000000" fill-opacity="0.501961" x="1054" y="486" width="146" height="144" />
<rect fill="#c2ab7a" fill-opacity="0.501961" x="968" y="225" width="59" height="18" />
<rect fill="#ffbf86" fill-opacity="0.501961" x="293" y="227" width="48" height="33" />
<rect fill="#000224" fill-opacity="0.501961" x="900" y="217" width="31" height="48" />
<rect fill="#00091e" fill-opacity="0.501961" x="161" y="314" width="59" height="43" />
<rect fill="#e8b274" fill-opacity="0.501961" x="154" y="290" width="36" height="19" />
<rect fill="#5149a0" fill-opacity="0.501961" x="282" y="512" width="97" height="21" />
<rect fill="#db8356" fill-opacity="0.501961" x="198" y="152" width="13" height="75" />
<rect fill="#8775ff" fill-opacity="0.501961" x="627" y="449" width="58" height="11" />
<rect fill="#00060c" fill-opacity="0.501961" x="193" y="59" width="142" height="39" />
<rect fill="#6156cc" fill-opacity="0.501961" x="885" y="389" width="79" height="17" />
<rect fill="#dabd80" fill-opacity="0.501961" x="441" y="77" width="44" height="14" />
<rect fill="#6652e0" fill-opacity="0.501961" x="990" y="475" width="169" height="10" />
<rect fill="#fd9270" fill-opacity="0.501961" x="731" y="370" width="83" height="84" />
<rect fill="#ffc088" fill-opacity="0.501961" x="769" y="217" width="117" height="31" />
<rect fill="#dc8aa2" fill-opacity="0.501961" x="827" y="476" width="33" height="26" />
<rect fill="#06132e" fill-opacity="0.501961" x="723" y="86" width="44" height="66" />
<rect fill="#fff39e" fill-opacity="0.501961" x="448" y="138" width="34" height="10" />
<rect fill="#051a32" fill-opacity="0.501961" x="582" y="384" width="151" height="31" />
<rect fill="#091729" fill-opacity="0.501961" x="103" y="102" width="33" height="218" />
<rect fill="#bc9269" fill-opacity="0.501961" x="256" y="196" width="25" height="26" />
<rect fill="#020c16" fill-opacity="0.501961" x="905" y="0" width="295" height="135" />
<rect fill="#000304" fill-opacity="0.501961" x="0" y="293" width="66" height="337" />
<rect fill="#7464fc" fill-opacity="0.501961" x="954" y="380" width="54" height="10" />
<rect fill="#ffb483" fill-opacity="0.501961" x="712" y="346" width="18" height="21" />
<rect fill="#ff9e7c" fill-opacity="0.501961" x="818" y="401" width="69" height="16" />
<rect fill="#0a0e0f" fill-opacity="0.501961" x="0" y="0" width="270" height="104" />
<rect fill="#9f6041" fill-opacity="0.501961" x="184" y="62" width="15" height="91" />
<rect fill="#e1ad76" fill-opacity="0.501961" x="240" y="219" width="18" height="21" />
<rect fill="#8c75ff" fill-opacity="0.501961" x="565" y="183" width="63" height="34" />
<rect fill="#000610" fill-opacity="0.501961" x="752" y="508" width="105" height="122" />
<rect fill="#00050f" fill-opacity="0.501961" x="905" y="487" width="149" height="54" />
<rect fill="#7363e1" fill-opacity="0.501961" x="563" y="460" width="69" height="13" />
<rect fill="#102238" fill-opacity="0.501961" x="549" y="248" width="146" height="187" />
<rect fill="#574cbc" fill-opacity="0.501961" x="1016" y="362" width="66" height="16" />
<rect fill="#010f1e" fill-opacity="0.501961" x="208" y="139" width="59" height="69" />
<rect fill="#6555c5" fill-opacity="0.501961" x="239" y="530" width="50" height="13" />
<rect fill="#c8966b" fill-opacity="0.501961" x="783" y="110" width="114" height="66" />
<rect fill="#000e1a" fill-opacity="0.501961" x="135" y="389" width="98" height="69" />
<rect fill="#7f68f0" fill-opacity="0.501961" x="488" y="478" width="52" height="12" />
<rect fill="#0c1b2d" fill-opacity="0.501961" x="248" y="259" width="93" height="261" />
<rect fill="#cb9668" fill-opacity="0.501961" x="245" y="113" width="116" height="22" />
<rect fill="#0b1820" fill-opacity="0.501961" x="690" y="162" width="41" height="62" />
<rect fill="#7254af" fill-opacity="0.501961" x="355" y="42" width="35" height="52" />
<rect fill="#1b263b" fill-opacity="0.501961" x="669" y="216" width="91" height="125" />
<rect fill="#ffe9a0" fill-opacity="0.501961" x="954" y="221" width="31" height="9" />
<rect fill="#031226" fill-opacity="0.501961" x="372" y="103" width="44" height="48" />
<rect fill="#b68b64" fill-opacity="0.501961" x="45" y="373" width="154" height="15" />
<rect fill="#0b1c29" fill-opacity="0.501961" x="602" y="466" width="143" height="32" />
<rect fill="#00040c" fill-opacity="0.501961" x="1054" y="371" width="146" height="43" />
<rect fill="#182235" fill-opacity="0.501961" x="860" y="254" width="118" height="130" />
<rect fill="#7563f0" fill-opacity="0.501961" x="509" y="77" width="41" height="118" />
<rect fill="#0f1b2c" fill-opacity="0.501961" x="936" y="83" width="199" height="132" />
</g>
</svg>