<svg xmlns="http://www.w3.org/2000/svg" version="1.1" width="1200" height="630">
<rect x="0" y="0" width="1200" height="630" fill="#232931" />
<g transform="scale(1.000000) translate(0.5 0.5)">
<path stroke="#ffffd5" stroke-opacity="0.501961" fill="none" d="M 373.614918 227.856769 Q 640.562445 210.281423, 527.580723 525.916533" stroke-width="0.500000" />
<path stroke="#ffffb2" stroke-opacity="0.501961" fill="none" d="M 231.511126 191.194684 Q 657.103837 132.636094, 539.313838 527.539465" stroke-width="0.500000" />
<path stroke="#ffffb0" stroke-opacity="0.501961" fill="none" d="M 542.014186 532.259616 Q 611.557131 60.276293, 162.973147 216.634220" stroke-width="0.500000" />
<path stroke="#ffffcd" stroke-opacity="0.501961" fill="none" d="M 389.111831 198.717208 Q 697.521853 287.452632, 495.008533 531.836656" stroke-width="0.500000" />
<path stroke="#ffffd2" stroke-opacity="0.501961" fill="none" d="M 508.893295 525.802367 Q 704.386541 346.730150, 399.078712 203.387657" stroke-width="0.500000" />
<path stroke="#ffff9c" stroke-opacity="0.501961" fill="none" d="M 529.536725 596.388141 Q 640.955853 60.023678, 110.564717 227.850187" stroke-width="0.500000" />
<path stroke="#ffffa6" stroke-opacity="0.501961" fill="none" d="M 59.443652 245.145364 Q 589.897538 47.234328, 566.414251 514.441330" stroke-width="0.500000" />
<path stroke="#ffffd1" stroke-opacity="0.501961" fill="none" d="M 547.549019 525.011192 Q 671.185436 277.599130, 363.295633 233.177691" stroke-width="0.500000" />
<path stroke="#ffffd1" stroke-opacity="0.501961" fill="none" d="M 367.649822 236.532770 Q 686.255279 307.214784, 529.178104 529.659635" stroke-width="0.500000" />
<path stroke="#ffffc7" stroke-opacity="0.501961" fill="none" d="M 436.273698 176.547245 Q 304.395012 480.508563, 586.870014 475.920287" stroke-width="0.500000" />
<path stroke="#ffffcc" stroke-opacity="0.501961" fill="none" d="M 372.908495 223.712812 Q 673.250406 274.457087, 486.452251 528.896877" stroke-width="0.500000" />
<path stroke="#ffffb1" stroke-opacity="0.501961" fill="none" d="M 534.621908 533.690858 Q 578.124206 88.855712, 226.132071 196.457383" stroke-width="0.500000" />
<path stroke="#ffffc6" stroke-opacity="0.501961" fill="none" d="M 413.954899 187.251654 Q 303.778974 502.168328, 585.608269 484.072840" stroke-width="0.500000" />
<path stroke="#ffffd0" stroke-opacity="0.501961" fill="none" d="M 366.149234 240.541023 Q 684.080087 305.533699, 527.133387 526.591436" stroke-width="0.500000" />
<path stroke="#ffffc6" stroke-opacity="0.501961" fill="none" d="M 582.687634 482.867409 Q 306.025833 498.042813, 421.700981 180.432594" stroke-width="0.500000" />
<path stroke="#ffffc8" stroke-opacity="0.501961" fill="none" d="M 404.615877 194.831715 Q 296.567027 489.587201, 595.870737 447.936651" stroke-width="0.500000" />
<path stroke="#ffffc8" stroke-opacity="0.501961" fill="none" d="M 356.035267 232.063678 Q 659.451298 230.228362, 510.011629 527.376823" stroke-width="0.500000" />
<path stroke="#ffffce" stroke-opacity="0.501961" fill="none" d="M 545.743859 522.714915 Q 648.216012 217.149910, 381.322989 217.858926" stroke-width="0.500000" />
<path stroke="#ffffca" stroke-opacity="0.501961" fill="none" d="M 442.190655 185.943261 Q 307.852908 474.182810, 591.504820 469.939753" stroke-width="0.500000" />
<path stroke="#ffffcd" stroke-opacity="0.501961" fill="none" d="M 370.578086 249.429478 Q 658.696886 248.394467, 561.842825 521.029848" stroke-width="0.500000" />
<path stroke="#ffffc4" stroke-opacity="0.501961" fill="none" d="M 473.897428 207.164127 Q 264.332951 440.345253, 573.064931 509.457763" stroke-width="0.500000" />
<path stroke="#ffffaf" stroke-opacity="0.501961" fill="none" d="M 526.429121 528.524384 Q 583.321436 63.886380, 173.969503 217.459847" stroke-width="0.500000" />
<path stroke="#ffffc8" stroke-opacity="0.501961" fill="none" d="M 586.807488 479.599889 Q 315.076638 497.848398, 420.374445 188.878988" stroke-width="0.500000" />
<path stroke="#ffffcc" stroke-opacity="0.501961" fill="none" d="M 512.782132 533.968731 Q 677.645336 306.194540, 367.649180 254.403913" stroke-width="0.500000" />
<path stroke="#ffffb7" stroke-opacity="0.501961" fill="none" d="M 492.417200 525.306664 Q 707.397151 260.286229, 326.187884 168.220629" stroke-width="0.500000" />
<path stroke="#ffffc9" stroke-opacity="0.501961" fill="none" d="M 595.734200 460.835174 Q 313.471651 466.326882, 446.368271 183.617549" stroke-width="0.500000" />
<path stroke="#ffffc3" stroke-opacity="0.501961" fill="none" d="M 571.864381 506.487368 Q 260.927615 353.207573, 431.954646 188.754829" stroke-width="0.500000" />
<path stroke="#ffffcd" stroke-opacity="0.501961" fill="none" d="M 382.622104 212.208391 Q 581.303071 213.490745, 483.012623 518.431148" stroke-width="0.500000" />
<path stroke="#ffffac" stroke-opacity="0.501961" fill="none" d="M 214.088816 205.607678 Q 521.955553 79.120831, 528.165338 526.937603" stroke-width="0.500000" />
<path stroke="#ffffc9" stroke-opacity="0.501961" fill="none" d="M 362.376265 249.644522 Q 661.897595 289.684139, 478.812439 531.745681" stroke-width="0.500000" />
<path stroke="#ffffcb" stroke-opacity="0.501961" fill="none" d="M 592.696958 459.787785 Q 315.255665 459.631934, 452.220881 189.733283" stroke-width="0.500000" />
<path stroke="#ffffcf" stroke-opacity="0.501961" fill="none" d="M 555.135374 517.245779 Q 676.253040 326.785519, 366.882063 258.870736" stroke-width="0.500000" />
<path stroke="#ffffcb" stroke-opacity="0.501961" fill="none" d="M 365.401662 262.285704 Q 675.667170 322.883862, 543.835715 531.351294" stroke-width="0.500000" />
<path stroke="#ffffc9" stroke-opacity="0.501961" fill="none" d="M 599.498719 457.280575 Q 335.171854 459.176117, 454.381219 187.714355" stroke-width="0.500000" />
<path stroke="#ffffcb" stroke-opacity="0.501961" fill="none" d="M 404.010084 193.261717 Q 680.174804 287.302874, 459.895804 501.670022" stroke-width="0.500000" />
<path stroke="#ffffc1" stroke-opacity="0.501961" fill="none" d="M 437.679301 187.097065 Q 301.245963 474.496160, 602.774492 474.279784" stroke-width="0.500000" />
<path stroke="#ffffcb" stroke-opacity="0.501961" fill="none" d="M 472.671734 512.280456 Q 649.435699 353.547216, 390.215324 203.134174" stroke-width="0.500000" />
<path stroke="#ffffc3" stroke-opacity="0.501961" fill="none" d="M 365.934870 218.699793 Q 622.960330 242.884931, 489.294321 526.832255" stroke-width="0.500000" />
<path stroke="#ffffcd" stroke-opacity="0.501961" fill="none" d="M 365.063740 274.090322 Q 665.188084 313.602294, 542.547502 528.768092" stroke-width="0.500000" />
<path stroke="#ffffc5" stroke-opacity="0.501961" fill="none" d="M 397.634992 195.820981 Q 290.104166 445.793423, 602.163734 440.735190" stroke-width="0.500000" />
<path stroke="#ffffa8" stroke-opacity="0.501961" fill="none" d="M 174.597174 218.504760 Q 574.011942 46.480974, 570.700345 517.501882" stroke-width="0.500000" />
<path stroke="#ffffc1" stroke-opacity="0.501961" fill="none" d="M 458.855267 191.889962 Q 337.394495 471.621472, 570.904360 510.384490" stroke-width="0.500000" />
<path stroke="#ffffcc" stroke-opacity="0.501961" fill="none" d="M 450.240599 192.975117 Q 315.102060 429.712236, 593.265704 434.839426" stroke-width="0.500000" />
<path stroke="#ffffc8" stroke-opacity="0.501961" fill="none" d="M 401.433101 223.031811 Q 669.101481 266.369978, 496.974585 516.182266" stroke-width="0.500000" />
<path stroke="#ffffc2" stroke-opacity="0.501961" fill="none" d="M 538.612211 527.770949 Q 268.311488 401.448675, 512.580001 228.655424" stroke-width="0.500000" />
<path stroke="#ffffc1" stroke-opacity="0.501961" fill="none" d="M 562.264411 511.772663 Q 300.741963 459.309287, 478.200406 202.398382" stroke-width="0.500000" />
<path stroke="#ffffbf" stroke-opacity="0.501961" fill="none" d="M 597.092389 435.983735 Q 282.781724 445.630461, 420.931246 170.542921" stroke-width="0.500000" />
<path stroke="#ffffc1" stroke-opacity="0.501961" fill="none" d="M 461.578715 188.271552 Q 357.733714 505.029463, 554.401447 512.082699" stroke-width="0.500000" />
<path stroke="#ffffc2" stroke-opacity="0.501961" fill="none" d="M 468.461232 192.522397 Q 353.189028 474.233319, 579.385943 501.888390" stroke-width="0.500000" />
<path stroke="#ffffc4" stroke-opacity="0.501961" fill="none" d="M 580.277743 498.648470 Q 353.906859 470.477523, 480.653465 199.578535" stroke-width="0.500000" />
<path stroke="#ffffa2" stroke-opacity="0.501961" fill="none" d="M 186.911678 209.506810 Q 592.523363 79.653659, 518.603953 540.073368" stroke-width="0.500000" />
<path stroke="#ffffc7" stroke-opacity="0.501961" fill="none" d="M 522.073906 526.745878 Q 688.507446 299.262686, 373.512862 235.942994" stroke-width="0.500000" />
<path stroke="#ffffa4" stroke-opacity="0.501961" fill="none" d="M 519.677277 531.441099 Q 520.913578 106.111550, 194.759267 210.585754" stroke-width="0.500000" />
<path stroke="#ffffc4" stroke-opacity="0.501961" fill="none" d="M 593.176320 435.611123 Q 289.944408 434.849321, 420.616737 179.818432" stroke-width="0.500000" />
<path stroke="#ffff9f" stroke-opacity="0.501961" fill="none" d="M 123.501224 225.932364 Q 552.604511 87.298076, 487.114937 524.240128" stroke-width="0.500000" />
<path stroke="#ffffb9" stroke-opacity="0.501961" fill="none" d="M 593.655777 477.023578 Q 304.739107 492.577616, 430.670450 166.680547" stroke-width="0.500000" />
<path stroke="#ffffc4" stroke-opacity="0.501961" fill="none" d="M 375.369532 230.969952 Q 663.788855 307.915853, 483.538673 521.757438" stroke-width="0.500000" />
<path stroke="#ffffc7" stroke-opacity="0.501961" fill="none" d="M 461.404915 503.661461 Q 673.235872 299.400225, 433.846203 185.871572" stroke-width="0.500000" />
<path stroke="#ffffc7" stroke-opacity="0.501961" fill="none" d="M 473.717942 511.537255 Q 570.421131 211.003196, 385.357578 207.259936" stroke-width="0.500000" />
<path stroke="#ffffc6" stroke-opacity="0.501961" fill="none" d="M 554.930308 522.895381 Q 670.429208 384.797438, 369.305481 236.184421" stroke-width="0.500000" />
<path stroke="#ffffbf" stroke-opacity="0.501961" fill="none" d="M 433.409597 181.541617 Q 322.011149 482.561987, 591.137839 461.890969" stroke-width="0.500000" />
<path stroke="#ffffaf" stroke-opacity="0.501961" fill="none" d="M 555.071728 529.862487 Q 491.311028 108.071141, 307.377981 176.233618" stroke-width="0.500000" />
<path stroke="#ffffc6" stroke-opacity="0.501961" fill="none" d="M 386.528091 215.400659 Q 511.565427 196.958897, 527.223182 531.579855" stroke-width="0.500000" />
<path stroke="#ffffc9" stroke-opacity="0.501961" fill="none" d="M 403.669329 195.968608 Q 301.342218 387.500938, 593.612577 433.516490" stroke-width="0.500000" />
<path stroke="#ffffc2" stroke-opacity="0.501961" fill="none" d="M 596.671909 455.080394 Q 304.785004 417.588702, 453.299043 184.360464" stroke-width="0.500000" />
<path stroke="#ffffaa" stroke-opacity="0.501961" fill="none" d="M 541.310088 527.176235 Q 303.265491 193.535681, 541.310444 115.315949" stroke-width="0.500000" />
<path stroke="#ffff97" stroke-opacity="0.501961" fill="none" d="M 560.207916 519.630290 Q 521.636096 68.310904, 71.618761 245.968730" stroke-width="0.500000" />
<path stroke="#ffffb9" stroke-opacity="0.501961" fill="none" d="M 545.116168 531.844494 Q 303.832999 460.790398, 493.321280 204.917602" stroke-width="0.500000" />
<path stroke="#ffffc2" stroke-opacity="0.501961" fill="none" d="M 377.447641 218.268948 Q 683.914871 254.945712, 497.119729 525.453995" stroke-width="0.500000" />
<path stroke="#ffffc6" stroke-opacity="0.501961" fill="none" d="M 429.302865 187.065754 Q 667.032685 333.149473, 446.836249 488.367083" stroke-width="0.500000" />
<path stroke="#ffffc6" stroke-opacity="0.501961" fill="none" d="M 454.097410 190.968127 Q 628.901379 290.504886, 476.179150 508.106401" stroke-width="0.500000" />
<path stroke="#ffffc3" stroke-opacity="0.501961" fill="none" d="M 552.465353 518.210290 Q 640.588180 235.481629, 374.722057 230.632734" stroke-width="0.500000" />
<path stroke="#ffffc2" stroke-opacity="0.501961" fill="none" d="M 398.995665 193.359378 Q 630.556018 217.974641, 482.153692 511.401685" stroke-width="0.500000" />
<path stroke="#ffffbd" stroke-opacity="0.501961" fill="none" d="M 469.823496 197.153524 Q 366.127981 488.636635, 553.660034 524.496568" stroke-width="0.500000" />
<path stroke="#ffffc5" stroke-opacity="0.501961" fill="none" d="M 592.938613 415.530613 Q 318.342080 458.799090, 413.675936 195.423130" stroke-width="0.500000" />
<path stroke="#ffffbf" stroke-opacity="0.501961" fill="none" d="M 424.858259 183.910406 Q 332.567316 467.874287, 591.665477 445.081081" stroke-width="0.500000" />
<path stroke="#ffffc2" stroke-opacity="0.501961" fill="none" d="M 449.442987 187.677420 Q 333.844535 305.081175, 581.967193 491.328342" stroke-width="0.500000" />
<path stroke="#ffffb7" stroke-opacity="0.501961" fill="none" d="M 596.711262 469.058776 Q 270.697884 392.117743, 408.475206 187.849651" stroke-width="0.500000" />
<path stroke="#ffffc1" stroke-opacity="0.501961" fill="none" d="M 380.319659 218.247527 Q 631.382488 424.917482, 502.408327 529.661548" stroke-width="0.500000" />
<path stroke="#ffffc8" stroke-opacity="0.501961" fill="none" d="M 364.673036 285.793617 Q 641.419055 272.566574, 578.981330 493.859698" stroke-width="0.500000" />
<path stroke="#ffffc6" stroke-opacity="0.501961" fill="none" d="M 595.617031 429.997627 Q 332.083299 436.526408, 445.396399 207.351591" stroke-width="0.500000" />
<path stroke="#ffffc5" stroke-opacity="0.501961" fill="none" d="M 366.871775 279.257650 Q 627.940549 315.176371, 541.195260 530.195372" stroke-width="0.500000" />
<path stroke="#ffffc6" stroke-opacity="0.501961" fill="none" d="M 455.707763 191.871648 Q 330.256075 431.343762, 596.842074 424.534863" stroke-width="0.500000" />
<path stroke="#ffffbc" stroke-opacity="0.501961" fill="none" d="M 437.666799 186.156180 Q 312.199644 289.848925, 583.415110 499.770534" stroke-width="0.500000" />
<path stroke="#ffffbc" stroke-opacity="0.501961" fill="none" d="M 589.832918 492.902906 Q 378.772216 477.334774, 488.614495 198.078263" stroke-width="0.500000" />
<path stroke="#ffffb4" stroke-opacity="0.501961" fill="none" d="M 381.826851 205.351533 Q 574.709865 194.437605, 504.143947 561.845477" stroke-width="0.500000" />
<path stroke="#ffffbd" stroke-opacity="0.501961" fill="none" d="M 524.281369 529.560982 Q 299.742011 416.392158, 523.357371 240.736217" stroke-width="0.500000" />
<path stroke="#ffffc6" stroke-opacity="0.501961" fill="none" d="M 591.614539 418.164166 Q 312.698346 378.590293, 399.779219 206.729852" stroke-width="0.500000" />
<path stroke="#ffffab" stroke-opacity="0.501961" fill="none" d="M 540.760694 524.555695 Q 348.181127 175.287656, 516.232065 122.573922" stroke-width="0.500000" />
<path stroke="#ffffb8" stroke-opacity="0.501961" fill="none" d="M 486.968609 198.656191 Q 307.494295 456.069935, 529.993132 528.337655" stroke-width="0.500000" />
<path stroke="#ffffc3" stroke-opacity="0.501961" fill="none" d="M 370.502252 247.581757 Q 659.045763 293.341594, 533.727906 516.249379" stroke-width="0.500000" />
<path stroke="#ffffbb" stroke-opacity="0.501961" fill="none" d="M 559.733519 517.572542 Q 375.056834 501.741296, 477.419588 199.507189" stroke-width="0.500000" />
<path stroke="#ffffc0" stroke-opacity="0.501961" fill="none" d="M 544.308652 527.699891 Q 659.976703 394.577535, 371.248909 241.587268" stroke-width="0.500000" />
<path stroke="#ffffbf" stroke-opacity="0.501961" fill="none" d="M 381.131069 220.366007 Q 652.251473 344.254057, 467.957998 508.360103" stroke-width="0.500000" />
<path stroke="#ffffb8" stroke-opacity="0.501961" fill="none" d="M 576.046474 483.428762 Q 276.670132 434.787438, 430.052751 191.745763" stroke-width="0.500000" />
<path stroke="#ffffbf" stroke-opacity="0.501961" fill="none" d="M 484.116498 517.644558 Q 553.312781 367.299437, 376.325020 216.211316" stroke-width="0.500000" />
<path stroke="#ffffba" stroke-opacity="0.501961" fill="none" d="M 527.302460 524.196014 Q 319.502204 437.087059, 501.001030 213.188421" stroke-width="0.500000" />
<path stroke="#ffffbe" stroke-opacity="0.501961" fill="none" d="M 475.280046 516.669786 Q 617.581510 218.844434, 426.677801 189.474181" stroke-width="0.500000" />
<path stroke="#ffffbd" stroke-opacity="0.501961" fill="none" d="M 575.935534 503.399202 Q 378.935019 498.269762, 482.221391 204.216139" stroke-width="0.500000" />
<path stroke="#ffffc1" stroke-opacity="0.501961" fill="none" d="M 540.128978 528.415829 Q 626.329261 317.237866, 357.303521 288.473001" stroke-width="0.500000" />
</g>
</svg>