<svg xmlns="http://www.w3.org/2000/svg" version="1.1" width="1200" height="630">
<rect x="0" y="0" width="1200" height="630" fill="#212530" />
<g transform="scale(1.000000) translate(0.5 0.5)">
<ellipse fill="#c8b867" fill-opacity="0.501961" cx="120" cy="545" rx="112" ry="109" />
<ellipse fill="#dbb000" fill-opacity="0.501961" cx="223" cy="67" rx="48" ry="86" />
<ellipse fill="#2f3e53" fill-opacity="0.501961" cx="734" cy="302" rx="288" ry="148" />
<ellipse fill="#2f2b1a" fill-opacity="0.501961" cx="0" cy="629" rx="171" ry="87" />
<ellipse fill="#d5d985" fill-opacity="0.501961" cx="575" cy="302" rx="8" ry="52" />
<ellipse fill="#6ed0a5" fill-opacity="0.501961" cx="857" cy="457" rx="19" ry="27" />
<ellipse fill="#afa263" fill-opacity="0.501961" cx="224" cy="594" rx="17" ry="72" />
<ellipse fill="#b4ab75" fill-opacity="0.501961" cx="142" cy="491" rx="61" ry="50" />
<ellipse fill="#00756b" fill-opacity="0.501961" cx="1169" cy="63" rx="57" ry="46" />
<ellipse fill="#b59200" fill-opacity="0.501961" cx="272" cy="7" rx="19" ry="59" />
<ellipse fill="#caa800" fill-opacity="0.501961" cx="205" cy="118" rx="28" ry="36" />
<ellipse fill="#6cc89b" fill-opacity="0.501961" cx="882" cy="418" rx="19" ry="27" />
<ellipse fill="#146580" fill-opacity="0.501961" cx="410" cy="355" rx="63" ry="28" />
<ellipse fill="#5ea583" fill-opacity="0.501961" cx="909" cy="375" rx="22" ry="34" />
<ellipse fill="#3d918b" fill-opacity="0.501961" cx="887" cy="149" rx="42" ry="18" />
<ellipse fill="#01e6ed" fill-opacity="0.501961" cx="545" cy="296" rx="24" ry="10" />
<ellipse fill="#00d3e0" fill-opacity="0.501961" cx="347" cy="381" rx="24" ry="10" />
<ellipse fill="#00dfea" fill-opacity="0.501961" cx="603" cy="270" rx="24" ry="10" />
<ellipse fill="#060315" fill-opacity="0.501961" cx="1164" cy="499" rx="277" ry="233" />
<ellipse fill="#00f0f8" fill-opacity="0.501961" cx="504" cy="313" rx="20" ry="10" />
<ellipse fill="#00f5fc" fill-opacity="0.501961" cx="635" cy="255" rx="21" ry="9" />
<ellipse fill="#ffde6e" fill-opacity="0.501961" cx="858" cy="305" rx="5" ry="47" />
<ellipse fill="#00edf5" fill-opacity="0.501961" cx="467" cy="329" rx="20" ry="10" />
<ellipse fill="#03000f" fill-opacity="0.501961" cx="70" cy="100" rx="109" ry="345" />
<ellipse fill="#00f3fa" fill-opacity="0.501961" cx="672" cy="240" rx="21" ry="9" />
<ellipse fill="#52d8b3" fill-opacity="0.501961" cx="796" cy="185" rx="26" ry="12" />
<ellipse fill="#00c6d3" fill-opacity="0.501961" cx="314" cy="396" rx="25" ry="10" />
<ellipse fill="#00edf3" fill-opacity="0.501961" cx="704" cy="226" rx="21" ry="9" />
<ellipse fill="#f7d266" fill-opacity="0.501961" cx="715" cy="161" rx="47" ry="5" />
<ellipse fill="#4c8c77" fill-opacity="0.501961" cx="943" cy="329" rx="26" ry="39" />
<ellipse fill="#00ffff" fill-opacity="0.501961" cx="732" cy="213" rx="18" ry="8" />
<ellipse fill="#bdab70" fill-opacity="0.501961" cx="977" cy="159" rx="64" ry="5" />
<ellipse fill="#00c0cb" fill-opacity="0.501961" cx="279" cy="411" rx="24" ry="10" />
<ellipse fill="#00e0e5" fill-opacity="0.501961" cx="761" cy="201" rx="21" ry="9" />
<ellipse fill="#00bcc5" fill-opacity="0.501961" cx="246" cy="425" rx="22" ry="10" />
<ellipse fill="#375953" fill-opacity="0.501961" cx="1018" cy="204" rx="36" ry="61" />
<ellipse fill="#5cffdd" fill-opacity="0.501961" cx="841" cy="483" rx="8" ry="17" />
<ellipse fill="#070628" fill-opacity="0.501961" cx="265" cy="147" rx="32" ry="39" />
<ellipse fill="#00ccd1" fill-opacity="0.501961" cx="837" cy="167" rx="21" ry="9" />
<ellipse fill="#00ffff" fill-opacity="0.501961" cx="438" cy="342" rx="16" ry="7" />
<ellipse fill="#00000a" fill-opacity="0.501961" cx="948" cy="34" rx="145" ry="52" />
<ellipse fill="#00ffff" fill-opacity="0.501961" cx="410" cy="354" rx="16" ry="7" />
<ellipse fill="#01000b" fill-opacity="0.501961" cx="1163" cy="162" rx="65" ry="56" />
<ellipse fill="#00b5bc" fill-opacity="0.501961" cx="214" cy="438" rx="22" ry="9" />
<ellipse fill="#130a29" fill-opacity="0.501961" cx="718" cy="183" rx="55" ry="22" />
<ellipse fill="#00ffff" fill-opacity="0.501961" cx="382" cy="366" rx="16" ry="7" />
<ellipse fill="#fbd664" fill-opacity="0.501961" cx="955" cy="277" rx="8" ry="13" />
<ellipse fill="#000020" fill-opacity="0.501961" cx="580" cy="314" rx="6" ry="29" />
<ellipse fill="#00b6bf" fill-opacity="0.501961" cx="827" cy="505" rx="11" ry="15" />
<ellipse fill="#f2cd5f" fill-opacity="0.501961" cx="970" cy="251" rx="8" ry="13" />
<ellipse fill="#00cacd" fill-opacity="0.501961" cx="926" cy="129" rx="17" ry="8" />
<ellipse fill="#00ffff" fill-opacity="0.501961" cx="524" cy="303" rx="12" ry="6" />
<ellipse fill="#2df6e5" fill-opacity="0.501961" cx="572" cy="282" rx="19" ry="8" />
<ellipse fill="#0d081f" fill-opacity="0.501961" cx="318" cy="577" rx="78" ry="176" />
<ellipse fill="#00e8e8" fill-opacity="0.501961" cx="975" cy="304" rx="9" ry="11" />
<ellipse fill="#bfa956" fill-opacity="0.501961" cx="1047" cy="125" rx="11" ry="14" />
<ellipse fill="#00efef" fill-opacity="0.501961" cx="190" cy="449" rx="14" ry="6" />
<ellipse fill="#00b5bc" fill-opacity="0.501961" cx="812" cy="526" rx="10" ry="15" />
<ellipse fill="#00bdbf" fill-opacity="0.501961" cx="950" cy="118" rx="17" ry="8" />
<ellipse fill="#210f30" fill-opacity="0.501961" cx="454" cy="376" rx="48" ry="31" />
<ellipse fill="#ffdd63" fill-opacity="0.501961" cx="981" cy="234" rx="7" ry="11" />
<ellipse fill="#130923" fill-opacity="0.501961" cx="893" cy="208" rx="54" ry="54" />
<ellipse fill="#aca26f" fill-opacity="0.501961" cx="191" cy="519" rx="30" ry="40" />
<ellipse fill="#00dbdb" fill-opacity="0.501961" cx="997" cy="278" rx="9" ry="11" />
<ellipse fill="#eecb70" fill-opacity="0.501961" cx="582" cy="361" rx="6" ry="14" />
<ellipse fill="#00b8bd" fill-opacity="0.501961" cx="798" cy="546" rx="10" ry="13" />
<ellipse fill="#00a9aa" fill-opacity="0.501961" cx="978" cy="107" rx="18" ry="8" />
<ellipse fill="#200c2c" fill-opacity="0.501961" cx="357" cy="342" rx="50" ry="22" />
<ellipse fill="#00ffff" fill-opacity="0.501961" cx="818" cy="176" rx="12" ry="5" />
<ellipse fill="#170e2d" fill-opacity="0.501961" cx="832" cy="297" rx="26" ry="59" />
<ellipse fill="#ffd45c" fill-opacity="0.501961" cx="922" cy="334" rx="7" ry="11" />
<ellipse fill="#ffc858" fill-opacity="0.501961" cx="945" cy="296" rx="7" ry="12" />
<ellipse fill="#00adb1" fill-opacity="0.501961" cx="784" cy="564" rx="10" ry="13" />
<ellipse fill="#ffe777" fill-opacity="0.501961" cx="582" cy="245" rx="5" ry="12" />
<ellipse fill="#a18700" fill-opacity="0.501961" cx="229" cy="85" rx="30" ry="46" />
<ellipse fill="#0b071d" fill-opacity="0.501961" cx="361" cy="68" rx="80" ry="92" />
<ellipse fill="#cbad5e" fill-opacity="0.501961" cx="1028" cy="146" rx="10" ry="11" />
<ellipse fill="#030206" fill-opacity="0.501961" cx="1150" cy="604" rx="96" ry="106" />
<ellipse fill="#6b5900" fill-opacity="0.501961" cx="241" cy="9" rx="55" ry="53" />
<ellipse fill="#00ffff" fill-opacity="0.501961" cx="485" cy="322" rx="11" ry="6" />
<ellipse fill="#00ffff" fill-opacity="0.501961" cx="651" cy="247" rx="13" ry="6" />
<ellipse fill="#1a0f2f" fill-opacity="0.501961" cx="721" cy="252" rx="44" ry="23" />
<ellipse fill="#140726" fill-opacity="0.501961" cx="828" cy="433" rx="26" ry="30" />
<ellipse fill="#00ffff" fill-opacity="0.501961" cx="986" cy="289" rx="6" ry="10" />
<ellipse fill="#eec05a" fill-opacity="0.501961" cx="989" cy="215" rx="7" ry="12" />
<ellipse fill="#00dae0" fill-opacity="0.501961" cx="1009" cy="260" rx="8" ry="11" />
<ellipse fill="#f0cc68" fill-opacity="0.501961" cx="851" cy="357" rx="5" ry="14" />
<ellipse fill="#00b7b9" fill-opacity="0.501961" cx="1062" cy="188" rx="9" ry="12" />
<ellipse fill="#080517" fill-opacity="0.501961" cx="823" cy="600" rx="37" ry="61" />
<ellipse fill="#c2aa5f" fill-opacity="0.501961" cx="849" cy="249" rx="7" ry="16" />
<ellipse fill="#02000c" fill-opacity="0.501961" cx="10" cy="446" rx="34" ry="49" />
<ellipse fill="#180f2c" fill-opacity="0.501961" cx="783" cy="230" rx="50" ry="27" />
<ellipse fill="#fff275" fill-opacity="0.501961" cx="570" cy="301" rx="4" ry="29" />
<ellipse fill="#1a0f31" fill-opacity="0.501961" cx="531" cy="262" rx="41" ry="30" />
<ellipse fill="#120c29" fill-opacity="0.501961" cx="880" cy="493" rx="26" ry="37" />
<ellipse fill="#005d54" fill-opacity="0.501961" cx="1117" cy="12" rx="29" ry="42" />
<ellipse fill="#ffd95b" fill-opacity="0.501961" cx="933" cy="314" rx="6" ry="11" />
<ellipse fill="#1b1133" fill-opacity="0.501961" cx="614" cy="305" rx="42" ry="31" />
<ellipse fill="#aaa16d" fill-opacity="0.501961" cx="114" cy="458" rx="49" ry="23" />
<ellipse fill="#e1c06b" fill-opacity="0.501961" cx="591" cy="379" rx="7" ry="11" />
</g>
</svg>