<svg xmlns="http://www.w3.org/2000/svg" version="1.1" width="1200" height="630">
<rect x="0" y="0" width="1200" height="630" fill="#3b2726" />
<g transform="scale(1.000000) translate(0.5 0.5)">
<path stroke="#ffffff" stroke-opacity="0.501961" fill="none" d="M 700.355569 207.102868 Q 443.998091 40.839865, 244.666381 600.673727" stroke-width="0.500000" />
<path stroke="#fff1f4" stroke-opacity="0.501961" fill="none" d="M 75.367643 452.116600 Q 367.823006 598.691590, 476.333989 27.055240" stroke-width="0.500000" />
<path stroke="#ffffff" stroke-opacity="0.501961" fill="none" d="M 255.572002 592.533955 Q 451.770137 37.005309, 701.398163 161.024817" stroke-width="0.500000" />
<path stroke="#ffe4e4" stroke-opacity="0.501961" fill="none" d="M 85.111478 422.888974 Q 483.373454 564.492987, 482.247368 25.672092" stroke-width="0.500000" />
<path stroke="#ffe5e7" stroke-opacity="0.501961" fill="none" d="M 65.308043 469.076548 Q 382.723943 610.858099, 483.756610 13.476367" stroke-width="0.500000" />
<path stroke="#ffeff7" stroke-opacity="0.501961" fill="none" d="M 699.461283 190.861398 Q 258.036449 77.474070, 322.511921 596.716213" stroke-width="0.500000" />
<path stroke="#ffe6e6" stroke-opacity="0.501961" fill="none" d="M 481.461929 33.341401 Q 438.497384 582.720527, 84.576060 426.616009" stroke-width="0.500000" />
<path stroke="#ffffff" stroke-opacity="0.501961" fill="none" d="M 704.327425 191.792519 Q 390.455611 42.521667, 303.096817 606.489897" stroke-width="0.500000" />
<path stroke="#ffedf0" stroke-opacity="0.501961" fill="none" d="M 73.934867 437.029769 Q 388.233108 579.589382, 464.433916 27.596868" stroke-width="0.500000" />
<path stroke="#ffebed" stroke-opacity="0.501961" fill="none" d="M 509.115719 35.217313 Q 349.117047 554.495593, 84.073747 414.792909" stroke-width="0.500000" />
<path stroke="#ffffff" stroke-opacity="0.501961" fill="none" d="M 700.218457 153.446622 Q 334.955043 105.727981, 337.893746 586.052897" stroke-width="0.500000" />
<path stroke="#ffffff" stroke-opacity="0.501961" fill="none" d="M 355.435368 572.414803 Q 329.654689 139.024454, 707.246833 163.164271" stroke-width="0.500000" />
<path stroke="#ffd3d3" stroke-opacity="0.501961" fill="none" d="M 61.987325 471.594442 Q 482.435853 624.988963, 489.053526 -12.472564" stroke-width="0.500000" />
<path stroke="#ffffff" stroke-opacity="0.501961" fill="none" d="M 699.208635 181.153276 Q 355.267234 54.971176, 341.756170 583.019586" stroke-width="0.500000" />
<path stroke="#ffffff" stroke-opacity="0.501961" fill="none" d="M 290.229855 520.978185 Q 449.602210 54.703407, 707.148497 212.896820" stroke-width="0.500000" />
<path stroke="#ffdfe1" stroke-opacity="0.501961" fill="none" d="M 485.304234 -9.428235 Q 406.983974 499.789251, 120.687851 542.497825" stroke-width="0.500000" />
<path stroke="#ffdede" stroke-opacity="0.501961" fill="none" d="M 71.179876 459.166918 Q 443.750370 590.855562, 480.280091 61.827387" stroke-width="0.500000" />
<path stroke="#fff8fb" stroke-opacity="0.501961" fill="none" d="M 299.781455 564.075506 Q 328.469177 196.033191, 685.979440 114.405024" stroke-width="0.500000" />
<path stroke="#ffe9f1" stroke-opacity="0.501961" fill="none" d="M 298.985726 596.566814 Q 150.332316 272.223207, 688.696601 123.429683" stroke-width="0.500000" />
<path stroke="#fff7f8" stroke-opacity="0.501961" fill="none" d="M 693.213484 208.729744 Q 420.019122 64.700363, 310.602178 587.520235" stroke-width="0.500000" />
<path stroke="#ffdee0" stroke-opacity="0.501961" fill="none" d="M 150.493528 583.211983 Q 573.409721 157.857773, 490.413640 38.501946" stroke-width="0.500000" />
<path stroke="#ffd3d2" stroke-opacity="0.501961" fill="none" d="M 439.683901 43.053636 Q 567.764790 582.727195, 75.306818 467.375996" stroke-width="0.500000" />
<path stroke="#ffe8f0" stroke-opacity="0.501961" fill="none" d="M 303.523619 599.568083 Q 209.729367 253.622806, 706.028658 119.390362" stroke-width="0.500000" />
<path stroke="#fffbff" stroke-opacity="0.501961" fill="none" d="M 226.081677 575.283694 Q 494.282749 34.578260, 685.394379 166.955884" stroke-width="0.500000" />
<path stroke="#ffffff" stroke-opacity="0.501961" fill="none" d="M 698.150596 185.243741 Q 376.032992 45.982529, 327.271607 560.241160" stroke-width="0.500000" />
<path stroke="#ffedf2" stroke-opacity="0.501961" fill="none" d="M 175.401314 571.117924 Q 546.051215 39.356677, 700.252056 162.056447" stroke-width="0.500000" />
<path stroke="#ffdada" stroke-opacity="0.501961" fill="none" d="M 82.577011 459.359248 Q 582.051723 535.340092, 420.094626 62.730110" stroke-width="0.500000" />
<path stroke="#ffe3e4" stroke-opacity="0.501961" fill="none" d="M 70.110664 441.645167 Q 513.124736 507.110436, 409.704012 75.238916" stroke-width="0.500000" />
<path stroke="#ffdbda" stroke-opacity="0.501961" fill="none" d="M 484.893358 25.505282 Q 560.919305 391.234048, 66.685796 453.489091" stroke-width="0.500000" />
<path stroke="#fff4f7" stroke-opacity="0.501961" fill="none" d="M 685.577632 140.966227 Q 361.422001 32.830182, 359.644786 574.611787" stroke-width="0.500000" />
<path stroke="#ffdbe2" stroke-opacity="0.501961" fill="none" d="M 684.524168 105.374382 Q 177.317232 173.176408, 321.941977 594.775605" stroke-width="0.500000" />
<path stroke="#ffd4d6" stroke-opacity="0.501961" fill="none" d="M 704.463970 121.577144 Q 623.461063 34.534976, 135.766657 567.885665" stroke-width="0.500000" />
<path stroke="#ffeff3" stroke-opacity="0.501961" fill="none" d="M 697.838887 141.282884 Q 404.698771 -0.109060, 303.344913 579.629137" stroke-width="0.500000" />
<path stroke="#ffd6d6" stroke-opacity="0.501961" fill="none" d="M 80.214415 435.434452 Q 501.606873 580.654864, 485.572367 37.390682" stroke-width="0.500000" />
<path stroke="#fff4f6" stroke-opacity="0.501961" fill="none" d="M 366.856105 564.673643 Q 367.558282 61.994055, 688.208330 113.383506" stroke-width="0.500000" />
<path stroke="#ffe0e0" stroke-opacity="0.501961" fill="none" d="M 86.212672 409.656666 Q 469.197817 527.475451, 471.241033 30.930253" stroke-width="0.500000" />
<path stroke="#fffdff" stroke-opacity="0.501961" fill="none" d="M 694.043119 172.886565 Q 330.453071 68.936887, 384.910643 549.077374" stroke-width="0.500000" />
<path stroke="#ffffff" stroke-opacity="0.501961" fill="none" d="M 348.270436 580.529932 Q 344.631248 74.319775, 700.166398 198.531925" stroke-width="0.500000" />
<path stroke="#ffffff" stroke-opacity="0.501961" fill="none" d="M 374.090836 204.009812 Q 591.637642 13.859988, 653.767745 294.533112" stroke-width="0.500000" />
<path stroke="#ffcccb" stroke-opacity="0.501961" fill="none" d="M 446.442964 37.558363 Q 595.387573 532.502971, 93.315077 463.205644" stroke-width="0.500000" />
<path stroke="#ffe8f0" stroke-opacity="0.501961" fill="none" d="M 688.383694 231.488483 Q 428.101464 19.973595, 170.415739 572.682139" stroke-width="0.500000" />
<path stroke="#ffe0e8" stroke-opacity="0.501961" fill="none" d="M 237.376700 600.688645 Q 231.763942 158.767967, 697.881011 157.986378" stroke-width="0.500000" />
<path stroke="#ffffff" stroke-opacity="0.501961" fill="none" d="M 400.367316 517.361516 Q 298.164550 213.705582, 76.953107 437.679557" stroke-width="0.500000" />
<path stroke="#ffe6ed" stroke-opacity="0.501961" fill="none" d="M 303.386427 598.923305 Q 245.875632 55.168207, 696.907678 216.823276" stroke-width="0.500000" />
<path stroke="#ffeded" stroke-opacity="0.501961" fill="none" d="M 352.659246 557.893025 Q 375.964637 141.642061, 692.183812 152.371101" stroke-width="0.500000" />
<path stroke="#ffd7d7" stroke-opacity="0.501961" fill="none" d="M 69.743549 470.034880 Q 502.042840 589.973583, 429.866623 53.243386" stroke-width="0.500000" />
<path stroke="#ffffff" stroke-opacity="0.501961" fill="none" d="M 369.199467 180.910978 Q 608.637838 -3.269602, 654.486722 297.247111" stroke-width="0.500000" />
<path stroke="#ffe9f1" stroke-opacity="0.501961" fill="none" d="M 698.890028 194.056232 Q 441.616557 54.004582, 180.997396 560.184807" stroke-width="0.500000" />
<path stroke="#ffebee" stroke-opacity="0.501961" fill="none" d="M 687.506173 128.744556 Q 358.203771 23.682049, 356.943525 571.832310" stroke-width="0.500000" />
<path stroke="#fff5f8" stroke-opacity="0.501961" fill="none" d="M 312.654104 542.972893 Q 395.359487 92.536211, 658.426917 201.078616" stroke-width="0.500000" />
<path stroke="#ffffff" stroke-opacity="0.501961" fill="none" d="M 638.860700 310.168368 Q 679.133035 40.658711, 386.315987 131.308911" stroke-width="0.500000" />
<path stroke="#ffd4d4" stroke-opacity="0.501961" fill="none" d="M 72.136153 451.229894 Q 507.250465 555.307485, 483.584960 24.393133" stroke-width="0.500000" />
<path stroke="#ffffff" stroke-opacity="0.501961" fill="none" d="M 375.697072 215.717281 Q 580.014080 23.478394, 650.554414 301.483178" stroke-width="0.500000" />
<path stroke="#ffffff" stroke-opacity="0.501961" fill="none" d="M 667.520629 279.786091 Q 647.340938 28.191552, 372.812711 168.200960" stroke-width="0.500000" />
<path stroke="#ffdcdc" stroke-opacity="0.501961" fill="none" d="M 77.663663 428.810077 Q 525.457329 454.142554, 433.603772 51.375960" stroke-width="0.500000" />
<path stroke="#ffe9f1" stroke-opacity="0.501961" fill="none" d="M 222.738406 583.490499 Q 397.868166 55.825330, 695.170799 214.685635" stroke-width="0.500000" />
<path stroke="#ffd8d8" stroke-opacity="0.501961" fill="none" d="M 411.052238 72.629712 Q 559.272498 372.802250, 87.610778 449.132344" stroke-width="0.500000" />
<path stroke="#ffffff" stroke-opacity="0.501961" fill="none" d="M 634.557513 309.622476 Q 595.857740 22.906598, 367.821015 183.884798" stroke-width="0.500000" />
<path stroke="#ffffff" stroke-opacity="0.501961" fill="none" d="M 67.050936 460.890578 Q 308.420692 219.248814, 406.416380 498.709137" stroke-width="0.500000" />
<path stroke="#ffecf0" stroke-opacity="0.501961" fill="none" d="M 307.310454 507.645637 Q 450.190262 -2.425478, 698.553583 149.870205" stroke-width="0.500000" />
<path stroke="#ffffff" stroke-opacity="0.501961" fill="none" d="M 375.758014 189.343353 Q 619.085497 35.471463, 638.132181 309.523295" stroke-width="0.500000" />
<path stroke="#ffffff" stroke-opacity="0.501961" fill="none" d="M 634.795990 318.476983 Q 669.266133 39.664601, 381.609606 142.979261" stroke-width="0.500000" />
<path stroke="#ffe2e9" stroke-opacity="0.501961" fill="none" d="M 241.475128 601.576112 Q 347.400166 40.811125, 700.729255 197.381040" stroke-width="0.500000" />
<path stroke="#ffd0d0" stroke-opacity="0.501961" fill="none" d="M 68.009160 446.166331 Q 588.382110 519.717906, 424.935014 51.242341" stroke-width="0.500000" />
<path stroke="#ffd8d9" stroke-opacity="0.501961" fill="none" d="M 71.892163 491.058626 Q 476.202759 608.642296, 411.123886 85.112914" stroke-width="0.500000" />
<path stroke="#ffffff" stroke-opacity="0.501961" fill="none" d="M 395.206243 525.353194 Q 301.916967 208.927963, 73.048284 444.339532" stroke-width="0.500000" />
<path stroke="#ffcece" stroke-opacity="0.501961" fill="none" d="M 503.352389 27.099546 Q 407.674606 604.388730, 73.465034 488.759178" stroke-width="0.500000" />
<path stroke="#fff6fa" stroke-opacity="0.501961" fill="none" d="M 689.284517 232.780194 Q 412.207836 56.187046, 311.414664 517.269398" stroke-width="0.500000" />
<path stroke="#ffe2e5" stroke-opacity="0.501961" fill="none" d="M 356.384200 588.853121 Q 300.076825 151.569285, 713.850904 168.612279" stroke-width="0.500000" />
<path stroke="#ffe1e2" stroke-opacity="0.501961" fill="none" d="M 331.290406 584.826767 Q 408.311980 23.553703, 702.596032 156.470632" stroke-width="0.500000" />
<path stroke="#ffd0d0" stroke-opacity="0.501961" fill="none" d="M 445.294166 43.051224 Q 578.273258 435.068764, 68.453446 439.529279" stroke-width="0.500000" />
<path stroke="#ffe3e6" stroke-opacity="0.501961" fill="none" d="M 738.076866 180.647165 Q 353.234320 36.887067, 365.345290 566.129826" stroke-width="0.500000" />
<path stroke="#ffffff" stroke-opacity="0.501961" fill="none" d="M 635.187304 314.107811 Q 573.445179 26.945780, 366.271679 189.745222" stroke-width="0.500000" />
<path stroke="#ffd4d5" stroke-opacity="0.501961" fill="none" d="M 81.872082 509.894906 Q 508.230603 573.492570, 399.100570 99.819330" stroke-width="0.500000" />
<path stroke="#ffffff" stroke-opacity="0.501961" fill="none" d="M 368.473082 191.024382 Q 611.590841 14.894609, 664.783018 277.443360" stroke-width="0.500000" />
<path stroke="#ffe5e7" stroke-opacity="0.501961" fill="none" d="M 85.824649 412.007704 Q 478.421521 530.060994, 394.390464 98.749116" stroke-width="0.500000" />
<path stroke="#ffcbca" stroke-opacity="0.501961" fill="none" d="M 89.834252 407.268951 Q 514.017438 467.283444, 507.317315 17.244224" stroke-width="0.500000" />
<path stroke="#ffdfe6" stroke-opacity="0.501961" fill="none" d="M 703.467924 192.995575 Q 518.983994 4.166131, 140.138111 541.500538" stroke-width="0.500000" />
<path stroke="#ffffff" stroke-opacity="0.501961" fill="none" d="M 376.125771 213.456249 Q 551.255046 30.750629, 647.322282 296.133968" stroke-width="0.500000" />
<path stroke="#ffcaca" stroke-opacity="0.501961" fill="none" d="M 77.443361 415.403146 Q 520.537470 564.371396, 486.914404 12.743388" stroke-width="0.500000" />
<path stroke="#ffffff" stroke-opacity="0.501961" fill="none" d="M 656.600280 294.753390 Q 594.639433 6.019523, 373.357405 201.345549" stroke-width="0.500000" />
<path stroke="#ffdcdc" stroke-opacity="0.501961" fill="none" d="M 90.239261 416.084573 Q 504.071779 536.046429, 417.047989 70.260226" stroke-width="0.500000" />
<path stroke="#ffffff" stroke-opacity="0.501961" fill="none" d="M 406.011358 500.891152 Q 371.474220 264.687003, 80.074181 421.553458" stroke-width="0.500000" />
<path stroke="#ffffff" stroke-opacity="0.501961" fill="none" d="M 375.847451 554.881749 Q 377.514665 268.499585, 90.703741 405.926738" stroke-width="0.500000" />
<path stroke="#ffffff" stroke-opacity="0.501961" fill="none" d="M 660.524004 290.017079 Q 645.588249 6.510677, 373.295272 162.125181" stroke-width="0.500000" />
<path stroke="#ffffff" stroke-opacity="0.501961" fill="none" d="M 400.803513 516.345472 Q 407.373374 280.159158, 106.740340 388.712188" stroke-width="0.500000" />
<path stroke="#ffc5c5" stroke-opacity="0.501961" fill="none" d="M 68.895895 481.500273 Q 554.467107 608.264797, 458.275956 33.911614" stroke-width="0.500000" />
<path stroke="#ffc6c5" stroke-opacity="0.501961" fill="none" d="M 79.433983 517.074456 Q 568.050182 579.733456, 398.609630 92.729865" stroke-width="0.500000" />
<path stroke="#ffc5c4" stroke-opacity="0.501961" fill="none" d="M 117.650246 551.684043 Q 616.542594 480.348689, 402.540080 83.375399" stroke-width="0.500000" />
<path stroke="#ffffff" stroke-opacity="0.501961" fill="none" d="M 368.505806 176.450343 Q 638.754863 19.885308, 659.837042 293.156425" stroke-width="0.500000" />
<path stroke="#ffd7d9" stroke-opacity="0.501961" fill="none" d="M 66.999709 461.010536 Q 457.045231 597.274956, 412.772640 107.505632" stroke-width="0.500000" />
<path stroke="#ffd5d5" stroke-opacity="0.501961" fill="none" d="M 463.695907 31.648766 Q 460.249330 524.444815, 90.333247 400.690131" stroke-width="0.500000" />
<path stroke="#ffffff" stroke-opacity="0.501961" fill="none" d="M 377.198439 132.036280 Q 672.301755 32.412239, 636.876335 312.808151" stroke-width="0.500000" />
<path stroke="#ffe8ee" stroke-opacity="0.501961" fill="none" d="M 705.144771 202.387589 Q 316.088416 63.776958, 345.946323 576.643794" stroke-width="0.500000" />
<path stroke="#ffc3c2" stroke-opacity="0.501961" fill="none" d="M 490.682781 24.191269 Q 522.229091 600.953493, 73.444625 443.330202" stroke-width="0.500000" />
<path stroke="#ffffff" stroke-opacity="0.501961" fill="none" d="M 634.890523 310.667054 Q 546.063444 53.755212, 374.890550 218.324950" stroke-width="0.500000" />
<path stroke="#ffe5e6" stroke-opacity="0.501961" fill="none" d="M 691.844879 141.808108 Q 351.462114 144.523175, 371.965679 564.437338" stroke-width="0.500000" />
<path stroke="#ffc0bf" stroke-opacity="0.501961" fill="none" d="M 90.075079 522.116732 Q 568.142593 588.396971, 441.346358 38.901539" stroke-width="0.500000" />
<path stroke="#ffffff" stroke-opacity="0.501961" fill="none" d="M 93.519926 402.740356 Q 379.089922 245.892016, 396.255540 533.685557" stroke-width="0.500000" />
<path stroke="#ffffff" stroke-opacity="0.501961" fill="none" d="M 642.199572 304.627233 Q 554.623088 56.345291, 371.193770 206.756389" stroke-width="0.500000" />
</g>
</svg>